<?xml version="1.0" encoding="utf-8"?>
<svg enable-background="new 0 0 400 400" version="1.1" viewBox="0 0 400 400" xml:space="preserve" width="400px" height="400px" xmlns="http://www.w3.org/2000/svg">
	<style type="text/css">
		.clear{fill:#fff;}
		.shade{fill:#dfe1e3;}
		.dark-shade{fill:#bbbfc3;}
		svg{fill:#253746;}
	</style>
	<path class="clear" d="m185 171.57c-7.2626-4.4812-12.011-9.8087-14.48-13.044 0 0 2.9283-5.7514 4.2342-8.0239 1.9196-3.3167 6.9654-10.708 6.9654-10.708 4.2083 0.47662 11.164 1.8464 18.399 5.7145 4.6767-5.8508 10.002-11.161 15.859-15.822-4.0456-7.5178-5.5056-14.531-6.0274-18.57 0 0 5.4061-3.5157 7.6763-4.8226 3.3248-1.9213 11.389-5.8055 11.389-5.8055 3.3972 2.5146 8.7396 7.1837 13.055 14.144 6.8855-2.6952 14.139-4.6508 21.671-5.76 0.25171-8.5373 2.4875-15.326 4.0542-19.084 0 0 6.4423-0.34278 9.065-0.34278 3.8295 0 12.75 0.67561 12.75 0.67561 1.6845 3.877 3.9831 10.602 4.2531 18.788 7.5143 1.1362 14.768 3.1102 21.643 5.8239 4.4877-7.2575 9.8128-12.017 13.038-14.488 0 0 5.7486 2.9297 8.0201 4.2379 3.3249 1.92 10.713 6.9687 10.713 6.9687-0.47763 4.2096-1.8565 11.177-5.7131 18.416 5.8395 4.6789 11.146 9.9979 15.813 15.857 7.5154-4.0474 14.525-5.4995 18.561-6.0301 0 0 3.514 5.4172 4.8204 7.6897 1.919 3.3167 5.7941 11.393 5.7941 11.393-2.5232 3.3891-7.1815 8.7364-14.137 13.062 2.6939 6.8888 4.6498 14.146 5.7573 21.673 8.542 0.24315 15.319 2.4972 19.086 4.0574 0 0 0.34137 6.4441 0.34137 9.068 0 3.8313-0.67529 12.764-0.67529 12.764-3.8836 1.6866-10.596 3.985-18.787 4.2551-1.1357 7.5276-3.1088 14.776-5.8211 21.653 7.2626 4.4812 12.02 9.8088 14.488 13.046 0 0-2.9283 5.7513-4.2434 8.0227-1.9104 3.3179-6.9654 10.718-6.9654 10.718-4.1979-0.48645-11.163-1.8561-18.399-5.7244-4.6767 5.851-10.002 11.161-15.859 15.83 4.0542 7.5179 5.5055 14.522 6.0287 18.561 0 0-5.4061 3.5169-7.6776 4.8313-3.3163 1.9127-11.389 5.7981-11.389 5.7981-3.3875-2.5244-8.7309-7.1849-13.057-14.146-6.8833 2.6952-14.137 4.652-21.662 5.7612-0.25171 8.5374-2.4948 15.325-4.0542 19.093 0 0-6.4423 0.33411-9.0649 0.33411-3.8382 0-12.758-0.6756-12.758-0.6756-1.6845-3.878-3.9831-10.603-4.2531-18.788-7.5241-1.1363-14.768-3.1102-21.643-5.8226-4.4778 7.2574-9.8128 12.016-13.038 14.487 0 0-5.7487-2.9297-8.0189-4.2379-3.3163-1.9188-10.714-6.9675-10.714-6.9675 0.48619-4.2098 1.8565-11.178 5.7118-18.418-5.8469-4.6777-11.145-10.005-15.813-15.865-7.5142 4.0561-14.515 5.5093-18.552 6.0401 0 0-3.5142-5.4173-4.8298-7.6898-1.9189-3.3179-5.7934-11.385-5.7934-11.385 2.5226-3.399 7.1901-8.7461 14.137-13.071-2.6939-6.8876-4.6491-14.146-5.7578-21.673-8.5326-0.24313-15.317-2.496-19.084-4.0561 0 0-0.33342-6.4454-0.33342-9.0692 0-3.8313 0.6759-12.764 0.6759-12.764 3.8744-1.6865 10.596-3.9751 18.778-4.2466 1.1351-7.5265 3.1088-14.783 5.8211-21.661l0.0023344-9.15e-5z"/>
	<path class="clear" d="m28.86 113.85c-4.3051-4.5159-6.6758-9.1627-7.8213-11.909 0 0 3.1367-3.523 4.4811-4.887 1.9719-1.9904 6.9095-6.2805 6.9095-6.2805 2.8871 1.1174 7.5513 3.3782 11.951 7.454 4.3902-3.2701 9.139-6.0371 14.144-8.2461-1.4676-6.0653-1.2002-11.295-0.82151-14.247 0 0 4.4751-1.4835 6.3222-1.9866 2.7068-0.74052 9.1286-1.9922 9.1286-1.9922 1.9362 2.4089 4.8482 6.7007 6.6106 12.423 5.3673-0.63007 10.859-0.66743 16.39-0.053581 1.7604-5.9888 4.5994-10.376 6.4034-12.742 0 0 4.6195 0.95348 6.4734 1.4391 2.7079 0.71033 8.8894 2.8432 8.8894 2.8432 0.47313 3.0531 0.85169 8.2353-0.4745 14.073 5.1027 2.1965 9.8658 4.9376 14.224 8.1315 4.5178-4.2993 9.1656-6.6766 11.904-7.8238 0 0 3.522 3.1375 4.8848 4.4819 1.9955 1.9752 6.2833 6.9154 6.2833 6.9154-1.1167 2.8871-3.3831 7.559-7.4517 11.962 3.262 4.3904 6.0285 9.1355 8.2422 14.144 6.0643-1.467 11.289-1.1928 14.243-0.82052 0 0 1.4804 4.4824 1.9831 6.3312 0.74142 2.7013 1.9858 9.1319 1.9858 9.1319-2.4128 1.9272-6.6974 4.8437-12.418 6.6147 0.62936 5.3667 0.66708 10.861 0.054901 16.389 5.9957 1.7574 10.368 4.6082 12.744 6.4071 0 0-0.95328 4.6236-1.4389 6.4771-0.71013 2.7097-2.8435 8.9017-2.8435 8.9017-3.059 0.47134-8.2306 0.85097-14.073-0.4761-2.1972 5.1113-4.935 9.8687-8.1274 14.23 4.3052 4.5146 6.6818 9.1658 7.8273 11.91 0 0-3.1367 3.5232-4.4878 4.8864-1.9651 1.9899-6.9101 6.2853-6.9101 6.2853-2.8791-1.1228-7.5499-3.3842-11.949-7.4588-4.3914 3.27-9.1401 6.0347-14.147 8.2508 1.4741 6.0684 1.2021 11.29 0.82277 14.243 0 0-4.4738 1.4825-6.3237 1.9926-2.6986 0.73524-9.1266 1.986-9.1266 1.986-1.9276-2.414-4.8417-6.6999-6.6105-12.424-5.3669 0.63121-10.857 0.66606-16.384 0.055222-1.7593 5.9901-4.6042 10.373-6.4046 12.748 0 0-4.6164-0.9594-6.471-1.4451-2.7139-0.7122-8.8953-2.8462-8.8953-2.8462-0.47325-3.0521-0.85169-8.2343 0.47362-14.071-5.1091-2.1995-9.8658-4.9376-14.224-8.1315-4.5111 4.3-9.1649 6.6755-11.903 7.8239 0 0-3.5222-3.1375-4.8853-4.4832-1.9888-1.9733-6.2843-6.9142-6.2843-6.9142 1.1248-2.8863 3.3846-7.5602 7.4526-11.963-3.268-4.3921-6.0265-9.1426-8.2404-14.151-6.0655 1.4742-11.284 1.203-14.237 0.83083 0 0-1.4804-4.4824-1.9895-6.3344-0.74151-2.7013-1.986-9.1231-1.986-9.1231 2.4132-1.9371 6.7037-4.8494 12.418-6.6208-0.62865-5.3703-0.66714-10.864-0.055472-16.391-5.9878-1.7552-10.368-4.6082-12.741-6.4083 0 0 0.95817-4.6193 1.4449-6.4751 0.70921-2.7073 2.8426-8.8991 2.8426-8.8991 3.0524-0.47459 8.2294-0.84618 14.064 0.48127 2.198-5.1123 4.9379-9.8783 8.1308-14.238l-0.0011521-0.0029454z"/>
	<path class="shade" d="m279.19 272.16c-34.834 0-63.074-28.252-63.074-63.101 0-34.85 28.239-63.103 63.074-63.103 34.834 0 63.073 28.252 63.071 63.103 0.0011597 34.852-28.239 63.101-63.071 63.101"/>
	<path class="clear" d="m278.91 248.53c-21.948 0-39.742-17.801-39.742-39.759s17.792-39.759 39.742-39.759c21.948 0 39.742 17.801 39.74 39.759 7.019e-4 21.959-17.792 39.759-39.74 39.759"/>
	<path class="dark-shade" d="m279.19 134.84c-40.975 0-74.193 33.233-74.193 74.228 0 40.981 33.218 74.215 74.193 74.215 40.962 0 74.179-33.233 74.179-74.215 0-40.995-33.218-74.228-74.179-74.228h3.06e-5zm-0.10059 136.88c-34.94 0-63.279-28.352-63.279-63.309 0-34.969 28.339-63.309 63.279-63.309 34.952 0 63.279 28.34 63.279 63.309-1e-7 34.957-28.327 63.309-63.279 63.309z"/>
	<path class="dark-shade" d="m92.51 103.82c-29.835-2.566-56.101 19.56-58.665 49.409s19.551 56.127 49.399 58.692c29.835 2.566 56.101-19.56 58.665-49.409 2.5523-29.862-19.551-56.139-49.399-58.692zm41.302 58.001c-2.1751 25.371-24.504 44.189-49.877 42-25.372-2.1761-44.168-24.516-41.994-49.9s24.504-44.189 49.877-42.014c25.372 2.1757 44.168 24.529 41.994 49.912v0.0013274z"/>
	<path class="shade" d="m92.986 125.24c-18.011-2.8242-34.898 9.4942-37.72 27.512-2.8227 18.018 9.4904 34.913 27.5 37.738 18.01 2.8254 34.898-9.4918 37.72-27.511 2.8227-18.019-9.489-34.914-27.499-37.738l-0.0013275-0.0013351z"/>
	<path d="m85.964 170.07c-3.229-0.34402-6.2978-2.1128-8.3276-4.7387-2.0214-2.6382-2.9334-6.1214-2.4606-9.4597 0.43229-3.3512 2.3428-6.4707 5.0717-8.4772 2.7223-2.027 6.2725-2.9101 9.6422-2.3893 3.3682 0.53259 6.4782 2.4623 8.4505 5.2249 1.9829 2.7459 2.8519 6.3002 2.238 9.624-0.57105 3.3237-2.5054 6.36-5.2361 8.2544-2.7359 1.8787-6.199 2.623-9.3782 1.9615 3.2168 0.36304 6.5133-0.52492 8.9977-2.4836 2.518-1.9044 4.205-4.8071 4.6155-7.8893 0.41026-3.0754-0.35339-6.2834-2.2057-8.7605-1.8246-2.4883-4.6506-4.1824-7.6853-4.6311-3.0264-0.50465-6.2357 0.24593-8.7336 2.0562-2.5196 1.7923-4.2311 4.6114-4.78 7.666-0.55195 3.061 0.16847 6.3405 1.9827 8.925 1.7676 2.6249 4.6347 4.4794 7.8087 5.117v2.9e-4z"/>
	<path d="m399.66 198.15l-0.062622-1.1879-1.1001-0.45509c-4.0344-1.6712-10.371-3.6882-18.179-4.1329-1.0609-6.4982-2.7639-12.907-5.0759-19.096 6.3319-4.2128 10.72-9.1725 13.341-12.692l0.68146-0.91525-0.49356-1.0281c-0.1597-0.33296-3.929-8.1812-5.8604-11.518-1.3163-2.2898-4.7284-7.5529-4.8733-7.7758l-0.64713-0.99876-1.1798 0.15485c-4.3183 0.56755-10.806 1.9876-17.82 5.5156-4.1782-5.085-8.8549-9.7745-13.934-13.971 3.4122-6.8932 4.7198-13.372 5.2109-17.705l0.129-1.1301-0.93936-0.64127c-0.30322-0.20755-7.4847-5.1114-10.835-7.0455-2.2862-1.3174-7.8678-4.1636-8.1049-4.284l-1.0584-0.53989-0.94409 0.72292c-3.4355 2.6306-8.3258 7.0884-12.651 13.671-6.1625-2.3222-12.563-4.0445-19.074-5.131-0.48492-7.6393-2.5919-13.908-4.3328-17.917l-0.45441-1.0429-1.1332-0.086037c-0.36713-0.028168-9.0356-0.68113-12.892-0.68113-2.6423 0-8.9005 0.33106-9.1657 0.34516l-1.1836 0.063271-0.45679 1.0951c-1.6661 3.9966-3.6784 10.306-4.1303 18.183-6.5013 1.0608-12.912 2.7651-19.095 5.0769-4.2311-6.3802-9.1828-10.753-12.692-13.35l-0.91469-0.67686-1.0252 0.49384c-0.33279 0.15962-8.1674 3.937-11.512 5.8699-2.2885 1.3174-7.5412 4.7318-7.7634 4.8761l-0.99451 0.6468 0.15225 1.1774c0.55498 4.3001 1.9658 10.778 5.5117 17.83-5.093 4.182-9.782 8.8611-13.971 13.94-6.8753-3.4121-13.353-4.7196-17.688-5.2109l-1.1289-0.12779-0.64096 0.93851c-0.20746 0.30467-5.1071 7.4876-7.0427 10.832-1.3144 2.2879-4.1592 7.871-4.2795 8.1081l-0.53912 1.0578 0.72017 0.94341c2.627 3.4431 7.0797 8.3414 13.664 12.662-2.3224 6.1671-4.0438 12.575-5.1286 19.088-7.6591 0.48643-13.915 2.5889-17.908 4.327l-1.0418 0.45384-0.085998 1.1339c-0.028168 0.36794-0.68144 9.0484-0.68144 12.907 0 2.6422 0.32237 8.9022 0.33582 9.1663l0.061478 1.1903 1.1006 0.45573c4.0335 1.6705 10.368 3.6877 18.179 4.1323 1.0615 6.502 2.7651 12.912 5.0758 19.097-6.3539 4.2294-10.734 9.1883-13.343 12.703l-0.67894 0.9151 0.49301 1.0269c0.15953 0.33295 3.9278 8.1713 5.8615 11.514 1.3242 2.2873 4.7351 7.5485 4.8794 7.7708l0.6476 0.99863 1.18-0.15472c4.3132-0.56754 10.798-1.9888 17.811-5.5241 4.2016 5.1125 8.877 9.8038 13.933 13.977-3.3911 6.8607-4.7074 13.352-5.2095 17.702l-0.13025 1.1326 0.94057 0.64255c0.30452 0.20755 7.4945 5.1101 10.836 7.0437 2.2861 1.3168 7.8678 4.1643 8.1048 4.2846l1.0584 0.53925 0.94423-0.72229c3.4454-2.6385 8.343-7.1013 12.653-13.669 6.1674 2.3242 12.569 4.045 19.072 5.1299 0.48508 7.6381 2.592 13.908 4.333 17.918l0.45312 1.0442 1.1345 0.085907c0.36713 0.027069 9.0356 0.68051 12.901 0.68051 2.6411 0 8.8979-0.323 9.1631-0.33646l1.1885-0.061523 0.45551-1.1018c1.6662-4.0243 3.6772-10.354 4.1291-18.186 6.4975-1.0627 12.904-2.7676 19.087-5.0794 4.2139 6.3373 9.1706 10.728 12.687 13.349l0.91605 0.68176 1.0288-0.49509c0.33154-0.15964 8.1749-3.9382 11.516-5.8643 2.2874-1.3242 7.5388-4.7393 7.761-4.8829l0.99463-0.64743-0.15225-1.1768c-0.5575-4.308-1.9695-10.789-5.513-17.823 5.0979-4.1938 9.7869-8.874 13.971-13.948 6.8475 3.3976 13.333 4.7171 17.683 5.2207l1.1319 0.13135 0.64221-0.94089c0.20871-0.30469 5.1175-7.498 7.0403-10.837 1.3248-2.2899 4.171-7.8753 4.2926-8.1125l0.53772-1.0576-0.71951-0.94339c-2.6214-3.4384-7.0722-8.3335-13.672-12.664 2.3219-6.1665 4.0431-12.57 5.1274-19.08 7.6321-0.48528 13.903-2.5921 17.916-4.335l1.0437-0.45334 0.086029-1.135c0.027008-0.36729 0.68018-9.0484 0.68018-12.907 0-2.6434-0.33029-8.9027-0.34387-9.168l-7.324e-4 -7.63e-5zm-4.0149 20.641c-4.0088 1.6301-9.9538 3.4261-17.052 3.6607l-1.5679 0.051559-0.2345 1.5527c-1.0965 7.2685-3.018 14.415-5.7106 21.241l-0.57947 1.4692 1.3444 0.82921c6.4694 3.9922 10.876 8.7117 13.249 11.655-0.90738 1.7639-2.7122 5.2478-3.6491 6.8655-1.45 2.5193-4.8215 7.5447-6.2408 9.6416-4.2899-0.59937-10.341-2.0231-16.6-5.3705l-1.3827-0.73825-0.97983 1.2247c-4.5723 5.7208-9.8077 10.946-15.56 15.533l-1.234 0.98279 0.74893 1.3882c3.4735 6.4417 4.9923 12.482 5.6517 16.737-1.6662 1.0749-4.9677 3.1914-6.5822 4.1249-2.5182 1.4531-7.9477 4.12-10.225 5.2292-3.4207-2.6742-7.9477-6.9368-11.678-12.938l-0.82755-1.3327-1.4611 0.57236c-6.8463 2.6804-13.996 4.5819-21.248 5.6506l-1.5631 0.23096-0.046661 1.581c-0.21484 7.2867-1.9179 13.291-3.4721 17.324-1.9818 0.094574-5.8972 0.27142-7.7622 0.27142-2.9148 0-8.946-0.40652-11.468-0.58704-1.6293-4.0058-3.4244-9.9488-3.659-17.052l-0.051544-1.5688-1.552-0.23459c-7.2613-1.0957-14.404-3.0181-21.231-5.7121l-1.4685-0.57864-0.82869 1.3427c-3.8334 6.2133-8.2975 10.547-11.648 13.247-1.7644-0.90656-5.2464-2.7111-6.8598-3.6411-2.5195-1.4568-7.5426-4.8263-9.6409-6.2451 0.59796-4.292 2.0186-10.348 5.3594-16.62l0.73538-1.3819-1.2228-0.979c-5.6983-4.5587-10.918-9.7954-15.516-15.566l-0.98232-1.2346-1.3873 0.74933c-6.4227 3.4666-12.466 4.9923-16.73 5.6605-1.0748-1.6705-3.1892-4.9774-4.1254-6.594-1.4568-2.5193-4.118-7.944-5.2238-10.219 2.6619-3.4174 6.9145-7.944 12.931-11.691l1.331-0.82919-0.57092-1.4607c-2.6791-6.8496-4.5798-14.003-5.6486-21.26l-0.23084-1.5662-1.5808-0.044266c-7.2674-0.20757-13.274-1.9139-17.314-3.4726-0.095169-1.9839-0.27145-5.9013-0.27145-7.7671 0-2.9101 0.40712-8.947 0.5869-11.473 3.511-1.4224 9.6568-3.4075 17.043-3.6526l1.568-0.051575 0.23448-1.5526c1.0971-7.2734 3.018-14.423 5.7106-21.25l0.57887-1.4693-1.3432-0.82906c-6.2281-3.8424-10.553-8.3052-13.241-11.652 0.90674-1.7651 2.7104-5.2508 3.6374-6.8649 1.4587-2.5195 4.8283-7.5423 6.2453-9.6375 4.2746 0.58781 10.314 2.0023 16.599 5.3626l1.3827 0.7395 0.97969-1.2247c4.5786-5.7287 9.814-10.952 15.559-15.524l1.234-0.98215-0.74771-1.3887c-3.6024-6.6948-5.0623-13.001-5.6492-16.747 1.6662-1.0749 4.9666-3.1877 6.5811-4.1176 2.5256-1.4594 7.9537-4.1287 10.229-5.2367 3.4072 2.6502 7.9244 6.8961 11.67 12.936l0.82753 1.3352 1.4623-0.57246c6.8475-2.6809 14.001-4.5818 21.259-5.6505l1.5631-0.23043 0.046631-1.5802c0.22467-7.5975 2.1093-13.784 3.4711-17.318 1.9803-0.097618 5.8985-0.27888 7.7635-0.27888 2.9086 0 8.9373 0.40668 11.459 0.58655 1.6293 4.0046 3.4243 9.9471 3.659 17.051l0.051544 1.5693 1.5507 0.23397c7.2698 1.0994 14.413 3.0219 21.232 5.714l1.4672 0.57851 0.8288-1.3415c3.9904-6.4522 8.7089-10.868 11.651-13.249 1.7656 0.90781 5.2465 2.7117 6.861 3.6415 2.5256 1.4575 7.5449 4.8277 9.6396 6.2453-0.52426 3.7564-1.8785 10.081-5.3607 16.617l-0.73663 1.3813 1.2216 0.97902c5.7278 4.5898 10.949 9.8253 15.517 15.56l0.98105 1.2327 1.3873-0.74693c6.4227-3.4591 12.472-4.9836 16.74-5.6518 1.0743 1.67 3.1862 4.9762 4.1168 6.5952 1.4561 2.517 4.1182 7.9472 5.2231 10.226-2.6729 3.4223-6.9347 7.9533-12.93 11.682l-1.3322 0.82845 0.5722 1.4612c2.6804 6.855 4.5798 14.008 5.6467 21.26l0.23084 1.5664 1.5815 0.04541c7.2651 0.20692 13.274 1.9145 17.318 3.4745 0.096924 1.982 0.27747 5.8999 0.27747 7.7646 0 2.9101-0.40649 8.9477-0.58691 11.473l-3.659e-4 6.406e-4z"/>
	<path d="m332.45 155.77c-6.9598-6.9891-15.3-12.604-24.414-16.397-9.1084-3.8062-18.979-5.7711-28.852-5.7872-9.8733 0.022278-19.744 1.9831-28.851 5.7904-9.1126 3.7941-17.454 9.4083-24.414 16.397-6.9587 6.9899-12.533 15.35-16.284 24.469-3.779 9.1096-5.6589 18.983-5.5985 28.822 0.060333 9.8405 2.0507 19.662 5.8709 28.709 3.8092 9.0507 9.4136 17.327 16.387 24.206 6.991 6.8605 15.321 12.324 24.371 15.969 9.0432 3.6702 18.807 5.467 28.519 5.3352-9.712-0.13886-19.37-2.1601-28.266-5.9479-8.8489-3.765-16.921-9.2853-23.646-16.113l6.9833-6.1562c1.0559 1.0323 2.1487 2.0265 3.2732 2.9849l-5.5261 7.5102 6.4231-6.7439c1.1407 0.93701 2.3227 1.8239 3.5268 2.682l-4.8495 7.9621 5.8103-7.2779c1.2174 0.83463 2.4686 1.6217 3.7439 2.373l-4.1335 8.3432 5.155-7.7552c1.2854 0.72568 2.5927 1.4162 3.9311 2.0539l-3.3854 8.6569 4.4575-8.1711c1.3428 0.60995 2.7039 1.1852 4.0938 1.7035l-2.615 8.912 3.7235-8.5188c1.39 0.48956 2.8022 0.93008 4.2338 1.3247l-1.8303 9.1143 2.963-8.7985c1.4259 0.3649 2.8759 0.66577 4.338 0.93332l-1.0305 9.2422 2.1886-9.0347c1.4514 0.23776 2.9175 0.42856 4.3992 0.56717l-0.22153 9.2905 1.395-9.2007c1.4647 0.11008 2.9396 0.18188 4.4298 0.19171l0.58917 9.2769 0.58752-9.284c1.486-0.016846 2.9623-0.087921 4.4302-0.20413l1.3964 9.1945-0.22379-9.2806c1.4791-0.14377 2.9428-0.35498 4.3983-0.59851l2.1892 9.0265-1.0312-9.2267c1.4592-0.27158 2.9052-0.58994 4.3355-0.96051l2.96 8.7845-1.8284-9.0972c1.4279-0.39825 2.8451-0.83008 4.2387-1.3261l3.7082 8.4788-2.6123-8.8955c1.3857-0.52203 2.7535-1.0894 4.0994-1.7072l4.4382 8.1324-3.3751-8.6266c1.333-0.642 2.6399-1.3398 3.9279-2.0751l5.1358 7.7252-4.1147-8.3043c1.2689-0.75574 2.5078-1.567 3.727-2.4129l5.795 7.2555-4.8344-7.933c1.1968-0.86292 2.3712-1.7622 3.5139-2.7116l6.4051 6.7237-5.5145-7.493c1.1155-0.96152 2.2086-1.9561 3.2664-3.0004l6.9511 6.1262c-0.035461 0.03595-0.06842 0.074554-0.10388 0.11041-6.7446 6.8807-14.859 12.439-23.756 16.225-8.8958 3.7884-18.552 5.8098-28.264 5.9498 9.7126 0.13284 19.476-1.6641 28.52-5.334 9.0505-3.6456 17.382-9.1086 24.372-15.969 6.9716-6.8812 12.578-15.157 16.387-24.209 3.8206-9.0483 5.8111-18.869 5.8722-28.71 0.063354-9.841-1.8235-19.712-5.6021-28.822-3.7516-9.118-9.3254-17.479-16.284-24.469l-2.444e-4 -3.06e-5zm19.952 53.291c0.011688 2.0727-0.081574 4.1452-0.24478 6.2121l-8.8432-1.3429c0.10925-1.469 0.17905-2.9456 0.18887-4.4324l8.8951-0.56427c2.441e-4 0.042511 0.0036621 0.0849 0.0039062 0.12753l3.06e-5 -1.53e-5zm-146.44 0.0015107c0.014465-2.0703 0.13303-4.1375 0.32024-6.1974l8.7745 1.3283c-0.11026 1.466-0.18193 2.9424-0.19186 4.434l-8.9004 0.56692c1.221e-4 -0.0439-0.0027618-0.087936-0.0025177-0.13184l1.52e-5 -1.52e-5zm11.406-7.63e-4c0-31.95 24.344-58.319 55.449-61.518 0.021515-0.0021362 0.042877-0.0056458 0.064362-0.0079041 1.0028-0.10202 2.0132-0.17787 3.0294-0.2312 0.035461-0.0018921 0.070648-0.0059204 0.10611-0.0076752 1.0496-0.05333 2.1057-0.080383 3.1682-0.080383 1.0247 0 2.0456 0.025284 3.0619 0.0746 0.60349 0.029556 1.2055 0.084518 1.8077 0.13144 0.40158 0.031067 0.80569 0.049683 1.2056 0.088425 0.82114 0.07988 1.6395 0.18643 2.4568 0.29851 0.18481 0.025406 0.37177 0.041382 0.55609 0.06842 0.64725 0.094711 1.29 0.21561 1.9339 0.33057 0.36136 0.064789 0.72598 0.11661 1.0854 0.18782 0.30692 0.060364 0.61005 0.13786 0.91592 0.2029 11.54 2.4641 22.144 8.186 30.687 16.731 11.675 11.681 18.104 27.212 18.104 43.731s-6.4289 32.05-18.104 43.731c-11.675 11.68-27.199 18.113-43.71 18.113-34.086 0-61.817-27.743-61.817-61.843l-5.799e-4 9.92e-4zm117.75-31.807l7.2809-4.8436c1.0603 1.8188 2.0535 3.6762 2.9522 5.58l-8.1593 3.1934c-0.64148-1.3337-1.3392-2.6411-2.0739-3.9299h1.525e-4zm-0.57861-1.021c-0.75549-1.2698-1.5664-2.5096-2.4121-3.7297l6.8231-5.4527c1.2129 1.7186 2.3546 3.4853 3.4155 5.3018l-7.8266 3.8807 1.221e-4 -1.526e-4zm-3.0892-4.6905c-0.8624-1.1973-1.7612-2.3725-2.7103-3.5158l6.3178-6.022c1.3565 1.6062 2.639 3.2727 3.8528 4.9893l-7.4602 4.5484-1.22e-4 1.22e-4zm-7.3159-8.5019c-1.0624-1.0393-2.1564-2.0332-3.2764-2.9894l5.1708-7.0201c1.6139 1.3448 3.1759 2.7519 4.6682 4.2312l-6.5625 5.7783-1.221e-4 -1.52e-5zm-4.1662-3.7582c-1.1474-0.94455-2.3315-1.831-3.5326-2.6885l4.5223-7.4188c1.7236 1.1995 3.4001 2.4651 5.0151 3.8082l-6.0049 6.2991zm-4.4929-3.3659c-1.2236-0.84015-2.4709-1.6379-3.7438-2.3877l3.8467-7.7616c1.8202 1.0447 3.5935 2.1674 5.3177 3.3646l-5.4206 6.7848zm-4.7644-2.9668c-1.2917-0.72919-2.5995-1.4267-3.9359-2.0623l3.1523-8.0538c1.9037 0.88103 3.7635 1.8533 5.5843 2.8959l-4.8007 7.2203v-1.373e-4zm-14.456-5.9506l1.7028-8.4669c2.0272 0.53372 4.0348 1.142 6.0086 1.8506l-3.4676 7.9278c-1.3963-0.48917-2.8135-0.92014-4.2438-1.3116v3.05e-5zm-1.1306-0.31232c-1.4315-0.36353-2.8812-0.66643-4.3414-0.93109l0.95679-8.5707c2.0649 0.35535 4.1136 0.79459 6.1403 1.3259l-2.7558 8.1758 3.05e-5 1.53e-5zm-5.4993-1.1313c-1.4557-0.23663-2.9218-0.43159-4.401-0.56857l0.20657-8.6138c2.0863 0.17572 4.1628 0.44528 6.2269 0.798l-2.0324 8.3845-3.05e-5 -1.221e-4zm-15.612-0.6282l-1.2961-8.5408c2.0856-0.18138 4.178-0.28278 6.2719-0.28491l-0.54654 8.6183c-1.4896 0.016861-2.9654 0.090195-4.4292 0.20731l-3.05e-5 9.15e-5zm-1.1727 0.089569c-1.482 0.14578-2.9453 0.35323-4.3965 0.59837l-2.0348-8.3961c2.0627-0.36127 4.1383-0.64291 6.2246-0.82669l0.20673 8.6245-6.11e-5 -6.1e-5zm-5.5539 0.80568c-1.4609 0.2746-2.9091 0.58542-4.3336 0.95724l-2.7611-8.1912c2.0253-0.54001 4.0719-0.99146 6.136-1.3555l0.95868 8.5895v-1.221e-4zm-5.4642 1.2791c-1.4292 0.4014-2.8415 0.84315-4.229 1.3393l-3.4782-7.9516c1.9708-0.71687 3.9743-1.3372 5.9994-1.8796l1.7078 8.4919zm-14.411 6.0312l-4.8237-7.2561c1.8171-1.0505 3.672-2.0341 5.5727-2.9231l3.1691 8.0984c-1.3353 0.64442-2.6356 1.3488-3.918 2.0807h-1.221e-4zm-1.021 0.58792c-1.2717 0.75711-2.5142 1.5574-3.7276 2.3978l-5.444-6.8142c1.7199-1.2047 3.4872-2.3381 5.3034-3.3903l3.8683 7.8067zm-4.6882 3.0816c-1.2007 0.86443-2.3791 1.7571-3.516 2.7001l-6.0255-6.3241c1.6094-1.3497 3.2783-2.6247 4.997-3.8311l4.5446 7.4551zm-14.932 15.01l-7.4943-4.571c1.2074-1.7223 2.4806-3.3969 3.8308-5.0091l6.3458 6.0499c-0.93704 1.1418-1.824 2.3251-2.6823 3.5302zm-0.68346 0.96089c-0.83434 1.218-1.6215 2.4696-2.3723 3.7455l-7.8696-3.902c1.0538-1.8214 2.1854-3.5955 3.3916-5.3196l6.8502 5.4761zm-2.96 4.767c-0.72531 1.2859-1.4153 2.5937-2.0528 3.9322l-8.1872-3.2042c0.8909-1.9079 1.8728-3.7708 2.9256-5.594l7.3145 4.8661h-1.221e-4zm-7.2085 19.92l-8.775-0.97838c0.37141-2.0763 0.82631-4.1357 1.372-6.1721l8.3361 2.8102c-0.36473 1.4267-0.6656 2.8775-0.93301 4.3402l-6.1e-5 3.05e-5zm-0.20721 1.1579c-0.23788 1.4519-0.42873 2.9188-0.56741 4.4015l-8.8597-0.20805c0.19261-2.103 0.47916-4.1947 0.84918-6.2724l8.5779 2.079-1.53e-5 -6.1e-5zm-0.84099 11.185c0.016968 1.491 0.090271 2.9678 0.20746 4.433l-8.8522 1.346c-0.17551-2.1097-0.2693-4.2256-0.26251-6.3419l8.9072 0.56305 1.221e-4 -1.068e-4zm0.29684 5.6059c0.14584 1.4827 0.3533 2.9469 0.59846 4.3987l-8.7265 2.1198c-0.3577-2.0893-0.6338-4.1911-0.81058-6.3028l8.9386-0.21573-3.06e-5 4.58e-5zm0.80579 5.5568c0.27448 1.4617 0.58539 2.9102 0.95706 4.3354l-8.5377 2.8819c-0.53889-2.0527-0.98761-4.1265-1.3468-6.2176l8.9274-0.99976 3.05e-5 -6.1e-5zm7.3078 19.883l-7.6242 5.0767c-1.0595-1.8489-2.0492-3.7365-2.9428-5.6701l8.4873-3.3253c0.6441 1.3357 1.348 2.6362 2.0796 3.9188l1.221e-4 -1.221e-4zm0.58791 1.0215c0.75713 1.273 1.5575 2.5164 2.3982 3.7309l-7.1806 5.742c-1.2168-1.7519-2.3602-3.5523-3.4204-5.4015l8.2029-4.0713h1.53e-5zm3.082 4.6921c0.86349 1.2001 1.7555 2.3784 2.6974 3.5149l-6.6809 6.376c-1.3652-1.6425-2.6543-3.3451-3.8724-5.0981l7.856-4.7928zm104.68-0.23372l7.8181 4.7692c-1.2101 1.7576-2.489 3.467-3.8467 5.1145l-6.6578-6.3496c0.94373-1.1479 1.8293-2.3323 2.6864-3.5341v1.53e-5zm0.67731-0.96089c0.8396-1.2242 1.6371-2.4723 2.3866-3.746l8.1567 4.0466c-1.0521 1.8533-2.1843 3.6598-3.3932 5.4164l-7.1501-5.717v1.52e-5zm2.9654-4.7674c0.72821-1.2917 1.4249-2.5993 2.0598-3.9355l8.4419 3.3044c-0.88461 1.9363-1.8627 3.8288-2.9136 5.6813l-7.5881-5.0503 3.06e-5 1.373e-4zm7.1884-19.936l8.9073 0.99626c-0.35037 2.0918-0.78653 4.1679-1.3166 6.2222l-8.521-2.8746c0.36343-1.4323 0.66599-2.8829 0.93039-4.3438l-6.1e-5 -3.04e-5zm0.20016-1.1585c0.23639-1.4566 0.43124-2.9232 0.56818-4.4028l8.9261 0.2141c-0.16797 2.1116-0.43164 4.2138-0.7804 6.3037l-8.7138-2.115v1.53e-5zm0.83548-11.186c-0.01648-1.4865-0.087799-2.9637-0.20383-4.4321l8.7646-1.3302c0.19977 2.1026 0.3197 4.2135 0.34021 6.3272l-8.901-0.56479v-6.1e-5zm-0.2897-5.6055c-0.14371-1.4793-0.35455-2.9434-0.59769-4.3993l8.5664-2.0783c0.37793 2.0755 0.67615 4.165 0.87744 6.2664l-8.8461 0.21121-6.1e-5 1.068e-4zm-0.79773-5.5579c-0.27173-1.4601-0.58957-2.907-0.95996-4.3381l8.317-2.8036c0.55334 2.0337 1.0197 4.0892 1.3988 6.1634l-8.756 0.97826 9.15e-5 9.15e-5zm-1.2724-5.4699c-0.39816-1.4292-0.82968-2.8472-1.3254-4.2419l8.025-3.5098c0.72656 1.9774 1.3583 3.9877 1.9132 6.0205l-8.6128 1.7314-6.1e-5 -1.221e-4zm6.6772-7.8099l-8.4192 2.4717c-0.52176-1.3865-1.0888-2.7548-1.7063-4.1016l7.6912-4.1992c0.47034 0.99812 0.92334 2.0046 1.3474 3.0235 0.38522 0.92618 0.74005 1.8644 1.0869 2.8058v-1.22e-4zm-12.8-21.927l-7.0403 5.1848c-0.96146-1.1163-1.9557-2.21-2.9996-3.2685l5.7761-6.5571c0.026886 0.026535 0.05545 0.051193 0.082092 0.077866 1.4617 1.4567 2.8483 2.9873 4.1818 4.563v-9.15e-5zm-25.155-19.148l-4.1511 7.6044c-1.3495-0.61171-2.7182-1.1784-4.1072-1.694l2.439-8.303c1.0335 0.37221 2.0605 0.76215 3.076 1.182 0.92447 0.38063 1.8357 0.7917 2.7432 1.2104l1.221e-4 1.373e-4zm-24.511-6.4358l-1.295 8.5339c-1.4687-0.10931-2.9456-0.17938-4.4322-0.18919l-0.54602-8.6119c0.036591 0 0.072784-0.002655 0.10901-0.002533 2.0576-0.0021362 4.1139 0.099625 6.1642 0.26982v-6.1e-5zm-34.098 5.2237c0.92271-0.38139 1.8573-0.7316 2.7948-1.0739l2.4475 8.3315c-1.3876 0.52516-2.7495 1.1015-4.0895 1.7183l-4.1722-7.6434c0.99716-0.46516 2.0024-0.91347 3.0195-1.3325l-1.373e-4 -4.58e-5zm-19.143 11.635l5.1894 7.0493c-1.1201 0.96404-2.2126 1.9588-3.2638 2.9964l-6.5811-5.7979c0.02803-0.028046 0.054047-0.057983 0.082092-0.085907 1.461-1.4558 2.9951-2.8355 4.5735-4.1619h-9.16e-5zm-4.7034 4.2979l5.8001 6.5875c-1.032 1.0562-2.0253 2.149-2.9832 3.2739l-7.0667-5.2049c1.3513-1.6107 2.765-3.1686 4.2499-4.6564zm-14.54 20.802l7.7274 4.2191c-0.61041 1.3444-1.1859 2.7074-1.7044 4.099l-8.4441-2.4808c0.37769-1.0384 0.77298-2.0706 1.1973-3.0908 0.38498-0.92569 0.80051-1.8378 1.2237-2.7464l7.63e-5 -1.22e-4zm-2.4429 5.8939l8.0729 3.5324c-0.48923 1.3907-0.92978 2.8036-1.3242 4.2359l-8.6354-1.7362c0.54716-2.0359 1.168-4.051 1.8867-6.0321h4.58e-5zm-2.0175 43.996l8.8508-1.7829c0.40144 1.4302 0.84314 2.8434 1.3391 4.2319l-8.3098 3.6392c-0.71904-2.0006-1.3398-4.0334-1.8801-6.0882l1.22e-4 -1.221e-4zm1.8896 6.1132l8.7078-2.5612c0.52493 1.3881 1.1013 2.7505 1.7176 4.0912l-8.0106 4.3779c-0.4682-1.0142-0.91844-2.0367-1.3389-3.0716-0.38246-0.93637-0.73351-1.8849-1.0757-2.8362h-1.373e-4zm16.868 26.782c-1.4644-1.4866-2.852-3.0456-4.1853-4.6492l7.4473-5.4912c0.96371 1.1205 1.9582 2.2135 2.9954 3.2653l-6.145 6.984c-0.036591-0.037079-0.075821-0.071808-0.1124-0.10892v-6.11e-5zm104.15-0.11697l-6.1269-6.9613c1.0388-1.063 2.0326-2.1578 2.9882-3.2783l7.4197 5.4671c-1.3595 1.6492-2.7831 3.2461-4.2811 4.7725h1.221e-4zm14.471-21.045l-7.971-4.3529c0.61118-1.3501 1.1775-2.7193 1.6927-4.1089l8.678 2.5507c-0.37268 1.0496-0.76367 2.093-1.185 3.1246-0.38159 0.93874-0.79388 1.8646-1.2145 2.7864l-1.22e-4 1.373e-4zm2.4091-5.9367l-8.285-3.6267c0.48871-1.3968 0.91934-2.8143 1.3105-4.2451l8.8245 1.7763c-0.53168 2.0562-1.14 4.0925-1.85 6.0955h9.16e-5z"/>
	<path d="m279.19 225.96c-4.4226-0.27034-8.6402-2.2004-11.515-5.3841-2.9279-3.1202-4.5022-7.3456-4.4048-11.52 0.10309-4.1742 1.8344-8.2477 4.8102-11.114 2.9339-2.8961 7.0002-4.5698 11.108-4.5346 4.107-0.032074 8.1752 1.6364 11.106 4.5359 2.9776 2.8644 4.7053 6.9382 4.8103 11.111 0.09729 4.173-1.4764 8.3978-4.4033 11.518-2.8728 3.1848-7.0894 5.1153-11.512 5.3875 4.4395 0.30188 9.013-1.4073 12.383-4.5157 3.3625-3.127 5.4261-7.6964 5.4935-12.39 0.13464-4.6935-1.7763-9.4139-5.0887-12.795-3.313-3.3928-8.0352-5.3641-12.79-5.3658-4.7535 0.0059052-9.4775 1.9726-12.787 5.3691-3.3136 3.3804-5.2203 8.1015-5.0862 12.794 0.06665 4.6919 2.1306 9.2613 5.4933 12.387 3.369 3.1082 7.9418 4.817 12.381 4.5171v3.05e-5z"/>
	<path d="m149.37 201.63c2.6563-3.7355 4.9683-7.7197 6.8957-11.88 5.3869 1.0342 10.12 0.73964 13.249 0.28014l1.1264-0.16566 0.37819-1.074c0.090027-0.25472 2.2091-6.275 2.9483-9.017 0.50607-1.877 1.4671-6.3735 1.5082-6.5643l0.24843-1.1648-0.94383-0.7258c-2.5064-1.9257-6.515-4.5094-11.808-6.326 0.4398-4.5591 0.45641-9.1669 0.04895-13.737 5.1502-1.7901 9.1112-4.408 11.603-6.3698l0.89645-0.7058-0.20872-1.1224c-0.04953-0.26604-1.2207-6.5421-1.9523-9.2822-0.49725-1.8796-1.9075-6.2565-1.9671-6.4421l-0.36563-1.1337-1.1802-0.15712c-3.1222-0.42089-7.8813-0.64995-13.397 0.42529-1.9067-4.1608-4.1966-8.1532-6.8253-11.902 3.6074-4.1748 5.7154-8.4183 6.8729-11.35l0.4178-1.0569-0.73878-0.86354c-0.17603-0.20503-4.3232-5.0475-6.3335-7.0665-1.3717-1.372-4.7786-4.4519-4.9232-4.5825l-0.88135-0.79624-1.0986 0.45157c-2.8934 1.1881-7.1141 3.3534-11.371 7.0586-3.731-2.6554-7.7149-4.9693-11.877-6.8993 1.0342-5.3943 0.73941-10.126 0.27776-13.251l-0.1665-1.1251-1.0717-0.37825c-0.25448-0.090065-6.2654-2.2088-9.0066-2.9485-1.8761-0.50567-6.3686-1.467-6.5594-1.5079l-1.1598-0.24818-0.72545 0.93877c-1.9148 2.476-4.4915 6.4637-6.3253 11.812-4.5606-0.44177-9.1685-0.4585-13.739-0.050446-1.7935-5.1882-4.411-9.1383-6.3713-11.613l-0.70722-0.89222-1.1182 0.20995c-0.26541 0.04956-6.5317 1.2281-9.2773 1.9583-1.8787 0.49736-6.2494 1.9112-6.4343 1.9708l-1.1289 0.36567-0.15955 1.1762c-0.42094 3.1082-0.65894 7.8574 0.42485 13.405-4.1662 1.9075-8.1584 4.1975-11.902 6.8285-4.1652-3.6058-8.4072-5.7154-11.34-6.8739l-1.0564-0.41736-0.863 0.73863c-0.20494 0.1761-5.0443 4.3241-7.0606 6.3307-1.372 1.3727-4.4506 4.7809-4.5808 4.9248l-0.79586 0.88115 0.44972 1.0984c1.1847 2.8969 3.3467 7.1225 7.0561 11.379-2.654 3.7321-4.9671 7.7192-6.8978 11.888-5.4079-1.0396-10.128-0.74606-13.242-0.28454l-1.1248 0.16718-0.37743 1.0723c-0.089895 0.2546-2.2091 6.275-2.9475 9.0146-0.50669 1.878-1.4727 6.3696-1.5136 6.5598l-0.24982 1.1653 0.94434 0.72707c2.5023 1.9253 6.5083 4.5093 11.807 6.3277-0.43892 4.5567-0.45502 9.1656-0.047903 13.74-5.179 1.8001-9.1297 4.4184-11.607 6.3787l-0.89292 0.70628 0.20836 1.1198c0.049636 0.26541 1.2215 6.5329 1.954 9.2782 0.50269 1.8801 1.9124 6.2552 1.9722 6.4401l0.3655 1.1339 1.1803 0.15761c3.1252 0.40327 7.8747 0.64679 13.393-0.43486 1.9155 4.1827 4.2039 8.1773 6.8226 11.909-3.5831 4.152-5.7013 8.4025-6.8719 11.346l-0.4217 1.06 0.74221 0.86642c0.17602 0.20441 4.329 5.0462 6.3333 7.0639 1.372 1.3732 4.7792 4.4527 4.9237 4.5832l0.88186 0.7975 1.0989-0.45296c2.9004-1.1915 7.1263-3.3598 11.37-7.0573 3.7303 2.6548 7.7138 4.9687 11.876 6.8993-1.0342 5.3949-0.73915 10.125-0.27736 13.248l0.1665 1.1251 1.0717 0.37811c0.2546 0.089447 6.2651 2.2107 9.0124 2.9524 1.8757 0.50505 6.3646 1.4714 6.5546 1.5129l1.1646 0.25006 0.72672-0.94441c1.92-2.4976 4.4998-6.5004 6.323-11.815 4.5668 0.44113 9.1742 0.45775 13.735 0.049423 1.7888 5.1564 4.4044 9.1171 6.3655 11.61l0.70673 0.89713 1.1225-0.21057c0.26541-0.049194 6.5365-1.2259 9.2818-1.9536 1.878-0.5029 6.2443-1.9149 6.4293-1.9751l1.1289-0.36552 0.15967-1.1763c0.42182-3.1113 0.66071-7.8621-0.42522-13.402 4.1743-1.9145 8.1666-4.2059 11.904-6.8313 4.1479 3.5884 8.3938 5.7073 11.334 6.8775l1.0579 0.42126 0.86588-0.74141c0.20485-0.17546 5.0525-4.33 7.057-6.3316 1.3807-1.3737 4.4612-4.7834 4.5916-4.9275l0.79576-0.88113-0.44963-1.099c-1.1847-2.8962-3.3483-7.1208-7.0626-11.381l9.16e-5 -5.038e-4zm-0.53716 15.614c-1.4118 1.4099-4.4643 4.0774-5.9713 5.3833-2.8443-1.2415-6.6497-3.341-10.256-6.7298l-1.1421-1.0728-1.2639 0.92793c-4.28 3.1399-8.9366 5.8115-13.84 7.941l-1.4463 0.62769 0.36159 1.5355c1.1684 4.9617 1.1372 9.3176 0.82767 12.389-1.4435 0.45999-3.8774 1.2265-5.0897 1.5509-1.9295 0.51108-5.9067 1.2967-7.8649 1.6738-1.8447-2.5045-4.09-6.2301-5.5097-10.942l-0.45326-1.5035-1.5594 0.17181c-5.2902 0.5863-10.674 0.57675-15.957-0.058121l-1.5702-0.18503-0.45614 1.5147c-1.4639 4.8577-3.6698 8.6242-5.4761 11.144-1.4813-0.32529-3.9687-0.88292-5.1815-1.2085-1.9336-0.52238-5.7675-1.8342-7.6481-2.4865-0.35216-3.0754-0.4408-7.4133 0.69013-12.237l0.35844-1.5291-1.4365-0.63033c-4.8866-2.145-9.5294-4.8419-13.799-8.0172l-1.2663-0.94177-1.1494 1.08c-3.7038 3.4805-7.4863 5.6314-10.298 6.9019-1.1206-1.0211-2.9998-2.7473-3.8854-3.6342-1.4096-1.4194-4.0782-4.4718-5.3838-5.9788 1.2412-2.8494 3.3412-6.6595 6.7235-10.269l1.0712-1.1442-0.92637-1.2632c-3.1316-4.2702-5.8001-8.9289-7.9313-13.844l-0.62738-1.4476-1.535 0.36177c-4.9433 1.1644-9.3042 1.1374-12.385 0.83347-0.4594-1.4474-1.2235-3.8847-1.5491-5.1013-0.51523-1.9304-1.2979-5.9037-1.6739-7.859 2.4912-1.8426 6.2061-4.0869 10.939-5.5181l1.5009-0.45372-0.17124-1.5588c-0.58363-5.3098-0.56388-10.681 0.058086-15.965l0.18509-1.5713-1.5154-0.45599c-4.8433-1.457-8.6118-3.6675-11.138-5.4792 0.32551-1.4819 0.88236-3.9711 1.2098-5.1854 0.51963-1.928 1.8291-5.7657 2.4815-7.649 2.7468-0.3087 7.2418-0.476 12.231 0.69611l1.5283 0.35924 0.63015-1.4386c2.1454-4.8938 4.8422-9.5405 8.0167-13.812l0.94258-1.2679-1.0817-1.151c-3.4915-3.7143-5.6371-7.4938-6.9001-10.3 1.0212-1.1205 2.7478-3.0016 3.6342-3.8876 1.4177-1.4118 4.47-4.0788 5.9747-5.3815 2.8352 1.2293 6.6338 3.3219 10.256 6.7253l1.1427 1.0736 1.2639-0.9273c4.289-3.1489 8.9442-5.8187 13.835-7.9367l1.4473-0.6263-0.36022-1.5359c-1.2033-5.1293-1.0962-9.6392-0.82515-12.396 1.4436-0.45989 3.8754-1.2235 5.0883-1.5448 1.9361-0.5146 5.9129-1.3014 7.8688-1.6792 1.8411 2.4875 4.0823 6.1994 5.5055 10.94l0.45199 1.5046 1.5612-0.1722c5.303-0.58428 10.664-0.5698 15.961 0.060509l1.5701 0.18516 0.45678-1.5141c1.5213-5.0455 3.8643-8.893 5.4743-11.141 1.4816 0.32378 3.9724 0.87826 5.1843 1.2049 1.929 0.52051 5.7619 1.8304 7.6419 2.4821 0.35265 3.0767 0.44102 7.4164-0.69065 12.24l-0.35834 1.5285 1.4372 0.63044c4.885 2.1437 9.5277 4.8411 13.799 8.0179l1.2651 0.94102 1.15-1.0793c3.8351-3.5985 7.7834-5.7581 10.3-6.9016 1.1211 1.0218 2.9998 2.7472 3.8848 3.6332 1.4139 1.42 4.0799 4.4726 5.3826 5.9788-1.1054 2.5352-3.2086 6.5181-6.7229 10.268l-1.071 1.1423 0.92514 1.263c3.1466 4.2978 5.8161 8.9533 7.9339 13.837l0.62691 1.4458 1.5334-0.35938c4.9415-1.1586 9.3065-1.1293 12.392-0.82365 0.45879 1.4467 1.2212 3.8819 1.5427 5.0981 0.51511 1.9297 1.2969 5.9061 1.6732 7.8645-2.5059 1.8466-6.2303 4.0935-10.939 5.5152l-1.5015 0.45309 0.17171 1.56c0.58424 5.3042 0.56413 10.674-0.058838 15.961l-0.18533 1.5726 1.5154 0.45535c4.8391 1.4555 8.6114 3.6675 11.141 5.4803-0.32364 1.482-0.87834 3.9734-1.2047 5.1848-0.52052 1.9304-1.8307 5.7695-2.4826 7.6526-3.0811 0.35033-7.4249 0.43887-12.241-0.69157l-1.5279-0.35849-0.63002 1.4379c-2.1396 4.882-4.8358 9.5263-8.0139 13.804l-0.94196 1.2674 1.0819 1.151c3.6066 3.8361 5.7641 7.7856 6.9046 10.304-1.0218 1.1199-2.7483 2.9997-3.6418 3.8876l-9.25e-5 6.866e-4z"/>
	<path d="m113.39 108.64c-6.4307-3.3638-13.535-5.4318-20.767-6.0786-7.2371-0.5902-14.589 0.23158-21.499 2.4508-6.9119 2.2091-13.372 5.7967-18.907 10.478-5.5295 4.6876-10.128 10.464-13.441 16.906-3.337 6.4328-5.3199 13.545-5.8867 20.749-0.54843 7.2063 0.30803 14.51 2.5463 21.36 2.2306 6.8505 5.8153 13.246 10.489 18.698 9.3682 10.901 23.108 17.833 37.314 18.718-7.0607-0.75487-13.948-2.8607-20.168-6.1881-3.1444-1.6828-6.1118-3.6824-8.8544-5.948l5.0034-5.2101c7.1553 5.402 15.832 8.7264 24.715 9.2492-6.0014-0.66191-11.847-2.4684-17.124-5.305-5.2767-2.8398-9.9656-6.7237-13.732-11.34-3.7794-4.6053-6.6577-9.9343-8.3908-15.61-1.7434-5.6723-2.3368-11.675-1.7846-17.565 0.57988-5.8881 2.2928-11.64 5.0126-16.868 2.7263-5.2252 6.4934-9.8995 11.007-13.681 4.5184-3.7761 9.777-6.654 15.385-8.4103 5.607-1.7642 11.555-2.3932 17.408-1.8822 5.8534 0.50014 11.607 2.1298 16.831 4.8253 5.2267 2.6866 9.918 6.419 13.727 10.91 3.8031 4.4958 6.7186 9.7438 8.5145 15.357 1.79 5.6147 2.491 11.575 2.0623 17.475-0.4588 5.8971-2.0655 11.71-4.749 17.003-2.6744 5.2964-6.4166 10.058-10.927 13.949-4.4975 3.9067-9.779 6.9344-15.461 8.8332-5.683 1.8957-11.751 2.6786-17.778 2.3086 9.4526 1.0705 19.218-1.0573 27.563-5.7823l4.2082 5.7848c-1.3234 0.82603-2.6806 1.5992-4.0719 2.3083l-2.6151-6.7693-1.1293 0.55321 3.7418 6.2176c-2.4032 1.2248-4.8982 2.2743-7.4637 3.1247-6.6966 2.2183-13.841 3.1188-20.927 2.6598 14.148 1.5509 28.87-2.9356 39.959-12.079 5.5331-4.5778 10.157-10.267 13.521-16.637 3.3731-6.3682 5.4618-13.42 6.1491-20.614 1.4415-14.42-3.2919-29.304-12.633-40.401-4.6564-5.5568-10.411-10.194-16.846-13.549l-0.0029603 2.442e-4zm4.0306 5.1752c1.2468 0.83284 2.4651 1.7087 3.6376 2.6441l-4.027 4.1887c-0.78306-0.61787-1.5882-1.2069-2.4087-1.7745l2.7979-5.0583h1.296e-4zm-3.7283 4.4152c-0.83506-0.54845-1.6927-1.0614-2.5612-1.5557l2.3334-5.255c1.3139 0.71963 2.598 1.4914 3.8463 2.3206l-3.6184 4.4902v-1.296e-4zm-13.121-11.818c1.4523 0.35432 2.8904 0.76516 4.3078 1.2399l-2.309 5.2213c-0.95164-0.31373-1.9127-0.59573-2.8823-0.84869l0.88361-5.6126-1.298e-4 5.34e-5zm-1.9712 5.3331c-0.97641-0.23032-1.9615-0.42128-2.9506-0.58957l0.3894-5.6395c1.4762 0.22844 2.9434 0.50995 4.3955 0.86027l-1.8343 5.3689-6.86e-5 -1.52e-5zm6.4107-4.052c1.3843 0.46768 2.7442 1.0039 4.0851 1.585l-2.5708 5.1002c-0.95126-0.4112-1.9133-0.79649-2.8899-1.1443l1.3756-5.541zm-13.707-2.6976l-0.86966 5.5788c-1.0029-0.049812-2.0067-0.077736-3.0107-0.064278l-0.5962-5.6298c1.4932-0.026421 2.9862 0.016853 4.4766 0.11522l-1.54e-5 2.29e-5zm-13.664 0.85045c1.4689-0.28416 2.9475-0.51762 4.4352-0.67674l0.1129 5.7044c-0.994 0.12289-1.9824 0.28239-2.9664 0.46806l-1.5816-5.4957-1.068e-4 5.35e-5zm0.47563 5.7046c-0.9788 0.20892-1.9479 0.459-2.9112 0.73045l-2.0616-5.3547c1.4391-0.41296 2.8932-0.76756 4.3616-1.0555l0.61117 5.6797 3.82e-5 9.15e-5zm4.0976-6.393c1.4864-0.15508 2.9791-0.24201 4.4734-0.27245l-0.38306 5.6634c-1.0015 0.036865-2.0012 0.10278-2.9983 0.20241l-1.0921-5.5934 5.35e-5 7.7e-6zm-21.771 7.2858c1.2865-0.7726 2.6028-1.4943 3.9492-2.1554l2.0935 5.4157c-0.88802 0.45472-1.7603 0.938-2.6178 1.4475l-3.425-4.7077zm2.452 5.2914c-0.84414 0.52921-1.6664 1.0919-2.4755 1.6729l-3.8358-4.4057c1.2157-0.8819 2.463-1.7184 3.7482-2.4944l2.563 5.2271 1.373e-4 1.297e-4zm1.6124-7.5064c1.3476-0.65762 2.7264-1.2478 4.1243-1.7886l1.605 5.5472c-0.92499 0.37587-1.8396 0.77524-2.7388 1.2088l-2.9903-4.9675-1.373e-4 1.52e-5zm-14.996 10.931l3.8787 4.4411c-0.67566 0.72831-1.3292 1.4762-1.9571 2.2459l-4.9114-3.3064c0.94699-1.1698 1.9475-2.295 2.9896-3.3807l1.336e-4 1.297e-4zm1.2082 7.5799c-0.60842 0.78392-1.1879 1.5893-1.7459 2.4099l-5.2023-2.8783c0.84263-1.2486 1.7287-2.4677 2.6738-3.6404 0 0 4.2744 4.1089 4.2744 4.1089zm-9.4248 3.5879l4.9613 3.3291c-0.46294 0.87535-0.90537 1.7611-1.3126 2.6633l-5.6622-1.9436c0.44773-1.0066 0.91468-2.0043 1.423-2.9816 0.18796-0.36064 0.39428-0.71121 0.59055-1.0673l4.2e-5 1.22e-4zm3.1988 7.0517c-0.3846 0.91093-0.74557 1.8309-1.0717 2.7639l-5.8527-1.4534c0.49399-1.427 1.0567-2.8284 1.6672-4.2088l5.2574 2.8985-1.641e-4 -1.221e-4zm-9.7578 15.017l6.1721 0.96342c-0.041588 0.97649-0.061985 1.9534-0.043377 2.93l-6.2699 0.66692c-0.019489-1.5218 0.03231-3.0429 0.14121-4.5603l3.05e-5 4.57e-5zm0.54589-4.6108l5.9673 1.4734c-0.11152 0.8571-0.20415 1.717-0.26451 2.5803-0.0088005 0.11661-0.0098343 0.23358-0.017601 0.35045l-6.2249 0.11446c0.024361-0.33182 0.036934-0.66454 0.06749-0.99599 0.11428-1.1803 0.28125-2.3535 0.47211-3.5225l1.145e-4 -1.222e-4zm5.6299 9.682c0.042469 0.97272 0.11263 1.9433 0.21484 2.9109l-6.2763 1.2286c-0.15088-1.5174-0.23109-3.0407-0.25296-4.5647 0-1e-7 6.3145 0.42529 6.3144 0.42529zm0.35189 4.0887c0.12588 0.96252 0.28577 1.9193 0.47073 2.8715l-6.2134 1.7887c-0.28265-1.5013-0.51146-3.0123-0.66473-4.5314l6.4074-0.1288v-6.11e-5zm0.69893 4.0406c0.20884 0.94516 0.45715 1.8804 0.72433 2.8103l-6.0991 2.3489c-0.41503-1.4746-0.76907-2.9644-1.0542-4.468l6.429-0.69107 4.19e-5 -6.1e-5zm-0.54063-17.487l-6.1233-0.42226c0.24696-1.4949 0.54804-2.9794 0.91769-4.4471l5.7511 1.9652c-0.21651 0.96126-0.39278 1.9305-0.54566 2.9042l1.106e-4 -7.62e-5zm-4.8162 22.71l6.4261-1.2651c0.051674 0.16367 0.094673 0.32994 0.14823 0.4931 0.24668 0.75372 0.51423 1.5002 0.79876 2.2402l-5.9353 2.9046c-0.39567-1.0458-0.77034-2.0993-1.0985-3.1679-0.12321-0.39888-0.2258-0.8033-0.33934-1.2048l3.82e-5 -9.16e-5zm5.4857 12.782c-0.78706-1.3257-1.5205-2.6821-2.1908-4.069l6.2643-2.4232c0.44194 0.84894 0.91052 1.6829 1.4032 2.5028l-5.4767 3.9894 3.8e-6 -1.52e-5zm6.1111-2.9493c0.51247 0.80453 1.055 1.5885 1.6156 2.3597l-5.1641 4.5003c-0.89984-1.2556-1.7511-2.5444-2.54-3.8708l6.0885-2.9891v-1.221e-4zm-8.3253-1.1654c-0.66785-1.3855-1.2665-2.8023-1.812-4.2393l6.3719-1.8453c0.36773 0.88704 0.75749 1.7644 1.1787 2.6269l-5.7386 3.4577v1.52e-5zm14.335 18.293c-1.2022-0.99335-2.356-2.0426-3.4667-3.135l5.3402-4.666c0.69742 0.62982 1.4119 1.2391 2.1455 1.8246 0 0-4.019 5.9764-4.019 5.9764zm0.95541-8.6401l-4.4364 5.4915c-1.1074-1.0898-2.1616-2.2303-3.1696-3.4106l5.6218-4.106c0.64256 0.69411 1.3005 1.3732 1.9841 2.0253l1.374e-4 -1.373e-4zm-2.8138-2.9376l-4.8125 4.9949c-0.22404-0.26277-0.45752-0.51787-0.67642-0.78481-0.76493-0.92868-1.4864-1.8909-2.1874-2.8677l5.8682-3.5469c0.51511 0.67056 1.0444 1.3301 1.5956 1.9709 0.068798 0.07962 0.14308 0.15433 0.21235 0.2336l6.1e-5 -1.068e-4zm-10.109-42.119l-6.0009-0.94405c0.37203-1.4655 0.80054-2.9158 1.292-4.3444l5.5231 2.4442c-0.30225 0.93925-0.57304 1.8878-0.81421 2.8442l-4.58e-5 -1.52e-5zm4.5616-11.434l-5.4551-2.4222c0.73048-1.3186 1.5131-2.6067 2.3535-3.8577l4.6254 3.729c-0.53734 0.83258-1.0395 1.6867-1.5239 2.551h1.335e-4zm7.3615-9.8809l-4.5731-3.6966c1.0435-1.0821 2.1372-2.1141 3.2687-3.104l3.461 4.74c-0.73901 0.66605-1.4626 1.3484-2.1566 2.0606zm3.2835-3.0606c-0.093918 0.079124-0.18231 0.16465-0.2756 0.24451l-4.2191-4.0668c0.24593-0.21421 0.48406-0.43748 0.73413-0.64719 0.90285-0.75523 1.8391-1.4682 2.7899-2.1614l3.0198 4.9999c-0.69678 0.5263-1.3828 1.0668-2.0491 1.6308l1.14e-5 2.06e-4zm13.833-8.1434l-2.5287-5.173c1.0223-0.39259 2.0523-0.7648 3.097-1.0926 0.38423-0.12101 0.7741-0.22203 1.161-0.33409l1.1099 5.6354c-0.17967 0.055359-0.36222 0.10165-0.54126 0.15913-0.77324 0.24756-1.5388 0.51775-2.2978 0.80516l-1.602e-4 3.82e-5zm20.27-2.9258l-0.10334-5.6333c0.32013 0.022018 0.64072 0.032204 0.9603 0.059883 1.1676 0.10037 2.3299 0.25271 3.4883 0.42881l-1.3524 5.4807c-0.8692-0.12691-1.7407-0.23635-2.6156-0.31485-0.12548-0.010185-0.25146-0.012077-0.37719-0.021256l-4.58e-5 3.06e-5zm16.008 4.1872l1.6628-5.4932c1.0336 0.45119 2.0582 0.92341 3.0608 1.4415 0.35883 0.18466 0.70798 0.38768 1.0625 0.58065l-3.2019 4.7727c-0.16521-0.088806-0.32577-0.18592-0.49197-0.27271-0.68874-0.36053-1.3864-0.70354-2.0923-1.0291l-2.28e-5 1.221e-4zm10.352 6.5372l3.2459-4.8207c1.1709 0.93863 2.2982 1.9308 3.3863 2.965l-4.3926 3.8365c-0.7262-0.68316-1.4719-1.3447-2.2396-1.981v1.296e-4zm3.0646 2.7612l3.6618-4.5299c1.0858 1.0369 2.1219 2.1245 3.1164 3.25l-4.7259 3.4506c-0.66347-0.7429-1.3432-1.4711-2.0523-2.1708v1.221e-4zm2.8039 3.0248l4.0584-4.2103c0.21399 0.24329 0.43694 0.47864 0.64638 0.72593 0.76077 0.90012 1.4796 1.8344 2.1787 2.7833l-5.0196 3.0327c-0.52244-0.69951-1.0597-1.388-1.6216-2.0565-0.078453-0.093582-0.16307-0.18214-0.24215-0.27509l-8.39e-5 -8.4e-5zm4.1819 5.7385c-0.52215-0.84628-1.0781-1.6704-1.6533-2.4816l4.4282-3.8571c0.88913 1.2127 1.7331 2.458 2.5168 3.7417l-5.2916 2.597zm5.3533-2.492c0.78142 1.2864 1.5123 2.6034 2.1826 3.9514l-5.5362 2.1393c-0.44545-0.88681-0.91945-1.7583-1.4197-2.6153-1e-7 2e-7 4.7734-3.4754 4.7734-3.4754zm-2.8486 7.1184l5.0859-3.0618c0.66753 1.35 1.2675 2.732 1.818 4.1339l-5.7241 1.6568c-0.36662-0.92102-0.75662-1.8324-1.1799-2.7288l6.11e-5 -1.373e-4zm10.53 23.824l-6.1075-0.95422c0.065384-0.98164 0.1075-1.9643 0.10712-2.9474l6.0658-0.64175c0.043243 1.5138 0.016846 3.0294-0.065384 4.5434zm-0.46848 4.6276l-6.0781-1.5014c0.12987-0.85297 0.2424-1.7086 0.32562-2.5678 0.01181-0.11598 0.015244-0.23245 0.026154-0.34856l6.1898-0.1127c-0.018478 0.33018-0.025391 0.66064-0.049912 0.99045-0.093918 1.1846-0.24152 2.3638-0.41364 3.54h4.58e-5zm-6.2763-0.34291l6.2626 0.43285c-0.22279 1.5054-0.50166 3.0021-0.8508 4.4839l-6.0035-2.053c0.22894-0.94745 0.42119-1.9035 0.59169-2.8637l4.58e-5 -9.16e-5zm0.71826-9.3453c-0.025894-0.98569-0.081848-1.9696-0.17198-2.9514l5.9398-1.1595c0.17059 1.5021 0.27344 3.0119 0.31944 4.5241l-6.0873-0.4131 1.53e-5 -1.53e-5zm-0.28955-4.1005c-0.11504-0.9809-0.26628-1.9568-0.4437-2.929l5.7747-1.6607c0.29684 1.4802 0.54301 2.9706 0.7164 4.4711l-6.0474 0.11848-3.04e-5 1.067e-4zm-0.65128-4.062c-0.20154-0.96806-0.44357-1.9272-0.70555-2.881l5.5806-2.1484c0.42181 1.4479 0.78656 2.9116 1.086 4.3899l-5.961 0.63951-7.64e-5 -1.52e-5zm-0.66925 21.514l6.283 0.99045c-0.35216 1.484-0.76292 2.9542-1.2401 4.4035l-5.8827-2.6037c0.30876-0.92102 0.58798-1.8513 0.83972-2.7903l6.09e-5 1.53e-5zm5.0207 5.4664c-0.48003 1.451-1.032 2.8775-1.6356 4.2827l-5.695-3.1397c0.38663-0.88768 0.75072-1.785 1.0818-2.6956l6.2489 1.5526-3.05e-5 -1.068e-4zm-9.7124 5.865l6.0159 2.674c-0.72816 1.3512-1.5117 2.6716-2.355 3.9552l-5.1735-4.1703c0.5321-0.80177 1.0305-1.6256 1.5126-2.4591l-1.53e-5 1.525e-4zm3.6291 6.6766c-0.84616 1.2852-1.7393 2.5399-2.6934 3.7489l-4.8581-4.6741c0.59682-0.7487 1.1669-1.5181 1.7169-2.3022l5.8345 3.2274zm-19.719 9.7809c0.80689-0.48605 1.5952-1.0028 2.3715-1.5381l4.6084 5.2943c-1.2426 0.93436-2.5215 1.8203-3.8415 2.6448l-3.1384-6.4008v-1.374e-4zm7.001 3.7403l-3.6155-5.9885c0.68047-0.49712 1.3504-1.0091 2.0027-1.5442 0.080963-0.066788 0.15728-0.13898 0.23788-0.2063l4.9643 4.7883c-0.25624 0.22894-0.5043 0.4668-0.76478 0.69083-0.9122 0.78845-1.8606 1.5342-2.8247 2.2598l9.16e-5 1.068e-4zm3.6164-2.9749l-4.0632-5.5691c0.71323-0.62958 1.4123-1.2749 2.0859-1.9475l5.2999 4.2861c-1.059 1.1248-2.1703 2.1993-3.3226 3.2305zm3.3515-3.2624l-4.483-5.1356c0.65781-0.69222 1.2956-1.403 1.9103-2.1345l5.5979 3.7726c-0.95604 1.2091-1.9688 2.3734-3.0252 3.4974l-7.6e-6 1.52e-5zm8.167-11.343l-5.4575-3.6654c0.081986-0.15057 0.17175-0.29674 0.25208-0.44818 0.37254-0.70114 0.7252-1.4127 1.0609-2.1324l6.1479 2.1105c-0.44095 1.0227-0.90236 2.0366-1.4079 3.03-0.18925 0.37335-0.39748 0.73676-0.59561 1.1054l1.221e-4 -1.52e-5zm4.1571-40.605l-5.8654 1.1542c-0.2854-0.94818-0.59291-1.8896-0.93706-2.8184l5.3458-2.6143c0.3996 1.0243 0.77876 2.0563 1.1134 3.1039 0.12386 0.38867 0.22807 0.78314 0.34312 1.1746l9.15e-5 3.05e-5z"/>
	<path d="m108.06 185.57c7.3957-5.3945 12.249-13.346 13.667-22.395 2.9259-18.674-9.8802-36.25-28.547-39.176-18.658-2.9237-36.232 9.8843-39.158 28.561-2.9254 18.673 9.8809 36.247 28.547 39.175 1.7975 0.28189 3.595 0.42139 5.3803 0.42139 7.1955 0 14.185-2.2646 20.111-6.5861l-2.594e-4 4.119e-4zm-25.102 3.6796c-17.296-2.7135-29.163-18.997-26.452-36.3 2.4514-15.646 15.991-26.85 31.35-26.85 1.6273 0 3.2776 0.12592 4.9352 0.38569 17.296 2.7124 29.163 18.997 26.452 36.302-1.3131 8.3833-5.8106 15.753-12.664 20.751-6.8525 4.9972-15.236 7.0253-23.62 5.7126l-0.0010757-6.866e-4z"/>
	<path class="clear" d="m89.686 146.31c-6.4954-1.0249-12.586 3.4427-13.604 9.9758-1.0182 6.5342 3.4222 12.66 9.9169 13.684 6.4947 1.0237 12.584-3.4415 13.603-9.9758 1.0176-6.533-3.4216-12.66-9.9157-13.684h1.296e-4z"/>
	<polygon points="61.484 196.23 57.964 202.59 62.527 196.93"/>
	<polygon points="61.975 205.03 66.025 198.99 64.925 198.39"/>
	<polygon points="66.183 207.11 69.692 200.73 68.543 200.23"/>
	<polygon points="70.553 208.82 73.496 202.16 72.307 201.75"/>
	<polygon points="75.059 210.14 77.409 203.26 76.189 202.95"/>
	<polygon points="79.66 211.05 81.401 203.99 80.16 203.79"/>
	<polygon points="84.325 211.57 85.445 204.38 84.191 204.3"/>
	<polygon points="89.507 204.42 88.25 204.44 89.018 211.67"/>
	<polygon points="93.556 204.1 92.306 204.23 93.699 211.37"/>
	<polygon points="97.562 203.42 96.327 203.67 98.338 210.66"/>
	<polygon points="101.49 202.4 100.28 202.75 102.9 209.54"/>
	<polygon points="105.32 201.05 104.15 201.51 107.34 208.03"/>
	<path d="m278.67 249.46c22.13 0 40.135-18.013 40.135-40.154 0-22.14-18.004-40.153-40.135-40.153-22.13 0-40.135 18.013-40.135 40.153s18.004 40.154 40.135 40.154zm0-79.049c21.438 0 38.878 17.448 38.878 38.895 0 21.448-17.44 38.896-38.878 38.896s-38.878-17.448-38.878-38.896 17.44-38.895 38.878-38.895z"/>
</svg>
