<?xml version="1.0" encoding="utf-8"?>
<svg enable-background="new 0 0 400 400" version="1.1" viewBox="0 0 400 400" xml:space="preserve" width="400px" height="400px" xmlns="http://www.w3.org/2000/svg">
	<style type="text/css">
		.clear{fill:#fff;}
		.dark-shade{fill:#bbbfc3;}
		.shade{fill:#dfe1e3;}
		svg{fill:#253746;}
	</style>
	<path class="clear" d="m399.73 330.65c-0.26669-0.93137-22.533-96.596-66.8-152.21l-0.39999-0.5322-40.667 13.305-30.8-1.7297v0.79832h-120.53v-0.93137l-32.133 1.7297-40.667-13.305-0.39999 0.5322c-44.667 55.882-66.933 151.41-67.067 152.35l-0.26667 0.93137 69.2 23.417 130.13-9.7129h1.2l130 9.7129h0.26666l69.2-23.417-0.26669-0.93137h6.1e-5z"/>
	<path class="dark-shade" d="m237.72 128.02c-3.1227 16.544-18.876 29.136-37.84 29.136s-34.715-12.592-37.841-29.137c-0.35626 1.9301-0.56848 3.9056-0.56848 5.928 0 19.446 17.196 35.21 38.409 35.21s38.409-15.764 38.409-35.21c0-2.0223-0.21101-3.998-0.56966-5.9268l7.935e-4 1.373e-4z"/>
	<path class="shade" d="m201.56 46.205h-1.6797c-42.755 0-80.612 26.95-77.419 70.954 0.14423 2.0365 0.09623 4.0729 0.28852 6.0615 0 0 1.7041 81.472 77.131 145.96l0.84042 0.67148 0.83925-0.67148c75.403-64.488 77.131-145.96 77.131-145.96 0.19229-1.9886 0.14548-4.025 0.2883-6.0615 3.1931-44.005-34.663-70.954-77.419-70.954l-7.783e-4 -1e-7zm-1.6797 122.96c-21.221 0-38.409-15.763-38.409-35.215s17.189-35.215 38.409-35.215c21.223 0 38.408 15.763 38.408 35.215s-17.187 35.215-38.408 35.215z"/>
	<path d="m263.91 69.627c-14.587-15.651-37.311-24.627-62.348-24.627h-1.674c-25.036 0-47.761 8.9763-62.347 24.627-11.977 12.851-17.603 29.32-16.269 47.625 0.066711 0.91701 0.091438 1.8319 0.11592 2.7431 0.03051 1.1204 0.060974 2.2353 0.15819 3.2574 0.017769 0.81998 2.6001 82.754 77.596 146.86l1.5824 1.2517 1.6176-1.2797c74.96-64.085 77.543-146.03 77.555-146.76 0.10324-1.1113 0.13373-2.232 0.16422-3.3583 0.025696-0.90648 0.049194-1.8154 0.11713-2.7267 1.3316-18.305-4.2946-34.775-16.269-47.625l0.0011901 0.0059662zm13.873 47.452c-0.068176 0.94742-0.093842 1.8925-0.11954 2.8342-0.030487 1.0737-0.058838 2.1428-0.1618 3.2879-0.016571 0.80945-2.5672 81.676-76.685 145.04l-0.092438 0.072571-0.055206-0.044525c-74.113-63.36-76.704-144.26-76.727-145.16-0.097229-1.0552-0.12553-2.1183-0.15484-3.1863-0.025696-0.94743-0.051376-1.8984-0.12171-2.8516-1.2824-17.626 4.1223-33.469 15.633-45.821 14.133-15.165 36.217-23.863 60.589-23.863h1.674c24.372 0 46.455 8.6979 60.589 23.862 11.511 12.352 16.917 28.197 15.632 45.822l-4.577e-4 0.0076217z"/>
	<path d="m243.83 74.43c-12.992-8.3483-28.515-12.574-43.933-12.643-15.461 0.073784-30.955 4.2904-43.955 12.644-6.4843 4.1665-12.355 9.277-17.275 15.172-4.8597 5.934-8.838 12.599-11.433 19.765 6.1421-13.953 16.795-25.609 29.68-33.38 12.877-7.8159 27.939-11.924 42.96-11.807 15.064-0.10972 30.095 3.9912 42.977 11.814 12.887 7.7702 23.537 19.427 29.681 33.379-2.593-7.1668-6.5712-13.832-11.429-19.768-4.9232-5.894-10.791-11.007-17.276-15.175l0.0018616-0.00132z"/>
	<path d="m199.88 97.543c-21.841 0-39.609 16.332-39.609 36.407 0 6.216 1.7113 12.069 4.7121 17.193l-0.12195 0.13104 0.14188-0.091263c6.6967 11.404 19.816 19.174 34.877 19.174 15.057 0 28.175-7.7656 34.875-19.166l0.14067 0.091278-0.12195-0.12984c3.0053-5.1267 4.7167-10.982 4.7167-17.201 0-20.074-17.769-36.407-39.609-36.407l-7.935e-4 -0.0012056zm33.016 44.547l2.7687 1.0727c-0.3073 0.99535-0.66594 1.9684-1.0668 2.9252l-2.7406-2.6154c0.35889-0.45132 0.70097-0.91461 1.0387-1.3824l-4.58e-5 -6.1e-5zm0.88368-1.2703c0.37039-0.56367 0.71512-1.1439 1.0526-1.7289l1.7091 0.45876c-0.18054 0.99174-0.41028 1.9662-0.68228 2.9276l-2.0793-1.6574-1.22e-4 1.53e-5zm1.6199-2.7267c0.60951-1.1381 1.1746-2.3006 1.6552-3.5066-0.030487 1.4832-0.18051 2.9369-0.41504 4.3688l-1.2402-0.86217 3.05e-5 -3.04e-5zm-35.519-38.154c18.304 0 33.528 12.155 36.607 28.093-3.1859 16.199-18.517 27.93-36.607 27.93-18.085 0-33.421-11.731-36.607-27.929 3.0768-15.938 18.301-28.094 36.607-28.094zm14.593 55.858l4.5645 7.2556c-1.1417 0.63051-2.3185 1.2071-3.5376 1.7241l-1.9716-8.6299c0.3212-0.1066 0.62823-0.23524 0.94463-0.34975l4.58e-5 -6.11e-5zm2.0468-0.78957c0.33057-0.13918 0.65393-0.2925 0.97992-0.43982l4.8691 6.4158c-1.0479 0.72992-2.138 1.406-3.2657 2.0331l-2.5833-8.009 7.63e-5 -4.58e-5zm2.9093-1.3722c0.33992-0.17775 0.67505-0.36125 1.0104-0.54858l5.0004 5.5153c-0.93771 0.81282-1.9224 1.5756-2.9469 2.2961l-3.0639-7.2628-4.58e-5 1.52e-5zm6.5337-4.2576l4.7025 3.6482c-0.68201 0.9194-1.4183 1.805-2.1941 2.6576l-3.5541-5.493c0.3541-0.26543 0.70097-0.53683 1.0457-0.81281h4.58e-5zm-51.121 0.81067l-3.5575 5.4906c-0.77588-0.85283-1.5097-1.7382-2.1941-2.6576l4.7073-3.6449c0.34448 0.27597 0.69041 0.54739 1.0443 0.81187l3.06e-5 1.52e-5zm5.4883 3.4458l-3.0711 7.258c-1.0246-0.72035-2.0079-1.4831-2.9445-2.2949l5.0076-5.5105c0.33392 0.18614 0.66809 0.37083 1.008 0.54739l-3.05e-5 -1.53e-5zm1.9317 0.93353c0.32457 0.14734 0.64577 0.29945 0.97514 0.43864l-2.5881 8.0054c-1.1288-0.62692-2.2176-1.3041-3.2645-2.0329l4.8775-6.4112 6.11e-5 3.05e-5zm3.0264 1.2294c0.31544 0.1145 0.62247 0.24219 0.9413 0.34854l-1.9797 8.6275c-1.2166-0.51814-2.3948-1.0948-3.5365-1.7265l4.5751-7.2496-9.15e-5 4.57e-5zm-20.492-16.939c0.35623 0.62811 0.71729 1.2505 1.11 1.8552l-2.042 1.6295c-0.27896-1.0013-0.5087-2.0166-0.68799-3.0508l1.6199-0.43384 1.068e-4 -6.1e-5zm-1.7032-0.068985c-0.21675-1.3767-0.35744-2.7746-0.38673-4.2003 0.46187 1.1578 0.99985 2.276 1.5801 3.371l-1.1933 0.82932h-7.63e-5zm3.6372 3.1077c0.36105 0.50665 0.72331 1.0119 1.11 1.5008l-2.7157 2.592c-0.41505-0.99533-0.77948-2.0094-1.0913-3.0469l2.6971-1.0459-6.1e-5 -3.05e-5zm-1.4557 4.4684l3.5809-1.7556c0.35406 0.40941 0.70792 0.81639 1.0807 1.2105l-3.2235 3.4647c-0.52742-0.94981-1.008-1.9217-1.4381-2.9194l-6.1e-5 -9.16e-5zm5.9921 0.78838c0.34113 0.32626 0.68344 0.64919 1.0373 0.96373l-3.5001 4.4892c-0.63519-0.88179-1.2308-1.7894-1.7769-2.7254l4.2396-2.7276 1.679e-4 1.22e-4zm0.27199 8.7796l4.9533-4.5769c0.34113 0.22804 0.68468 0.45251 1.0328 0.67122l-3.4005 6.4111c-0.90599-0.79652-1.7712-1.6295-2.5857-2.5055l1.831e-4 4.57e-5zm12.723 8.8442l4.1201-7.9985c0.30464 0.08432 0.59897 0.18948 0.90718 0.26686l-1.2471 8.9715 3.4778-8.5013c0.29431 0.057251 0.58382 0.1308 0.88031 0.1823l-0.46642 9.1821 2.7523-8.8685c0.28711 0.034973 0.57182 0.077133 0.86037 0.10637l0.34209 9.2827 1.9788-9.1261c0.2823 0.01294 0.56488 0.027069 0.84981 0.034012l1.1638 9.2641 1.1641-9.2641c0.2859-0.0069427 0.56845-0.021072 0.85341-0.034973l1.9656 9.1258 0.35049-9.2815c0.2895-0.02803 0.57448-0.071396 0.86276-0.10635l2.7393 8.8685-0.45708-9.1821c0.29887-0.051514 0.58838-0.12386 0.88367-0.18231l3.4675 8.5037-1.2402-8.9727c0.30945-0.078583 0.60472-0.18373 0.90959-0.26805l4.112 8.0033c-4.7544 2.0187-10.032 3.1792-15.611 3.1792-5.5831 0-10.862-1.1616-15.619-3.1839l-7.935e-4 1.51e-5zm41.369-6.3329l-3.3971-6.4158c0.3495-0.2187 0.69398-0.44316 1.0363-0.67241l4.9488 4.5805c-0.81573 0.87723-1.6809 1.71-2.5881 2.5076l1.069e-4 1.068e-4zm5.3216-5.832l-3.4976-4.4928c0.35384-0.31476 0.69856-0.63745 1.0385-0.96394l4.2385 2.7302c-0.54613 0.93692-1.1417 1.8445-1.7793 2.7267l-7.62e-5 -1.526e-4zm-1.13-6.789c0.32578-0.34399 0.63762-0.6983 0.94945-1.0538l3.6384 1.7837c-0.41026 0.93449-0.86971 1.8445-1.3643 2.7372l-3.2236-3.4671v3.04e-5z"/>
	<path d="m399.79 330.69c-0.21799-0.95917-22.483-96.55-66.816-152.2l-0.45468-0.56966-40.716 13.341-30.792-1.6667-0.11258 2.0868 31.187 1.6876 39.701-13.009c8.9015 11.267 16.899 24.158 24.001 37.55l-21.892 27.708-33.227-14.496c-1.6341-5.3735-3.3149-10.731-5.1293-16.049l3.8823 15.503-48.24-21.046-0.72186 1.6469 49.512 21.601 0.71249 2.8519-51.615-22.53-0.72209 1.6469 52.888 23.083 1.2966 5.1736c2.3348 9.3048 4.7707 18.581 6.9908 27.908 0.36105 1.4084 0.69379 2.8236 1.0455 4.2344l-6.0812 7.6965-81.032-35.392-0.72183 1.6469 82.307 35.948 6.0742-7.6873c0.23428 0.952 0.47339 1.9019 0.70554 2.854l-4.5739 5.7877 6.6674 2.9101c0.2204 0.94528 0.44073 1.8879 0.66113 2.8332l-8.8171-3.8484-37.231 47.118 36.504 15.948-7.026-0.52173-30.968-13.529-8.3785 10.602-2.7967-0.20816 8.9669-11.351-63.541-27.748c0.021088-0.83749 0.03743-1.675 0.054947-2.5125l64.976 28.366 37.233-47.141-83.071-36.256-0.72209 1.6469 80.937 35.326-34.931 44.221-64.379-28.106c0.0045471-0.30878 0.015106-0.61755 0.019898-0.92633 0.090271-9.1845 0.021118-18.369-0.6868-27.563-0.94849 9.1728-1.2567 18.352-1.4068 27.534v0.049377l-91.825-40.086c5.6523-4.3503 10.989-9.4116 15.473-14.772 9.2648-11.069 21.773-22.366 32.644-29.481l-0.98688-1.502c-11.009 7.2056-23.668 18.635-33.037 29.832-4.7155 5.6319-10.373 10.967-16.367 15.429-1.13 0.8504-2.2892 1.6714-3.4789 2.4703l-0.42323-0.18231-0.28951 0.66666c-3.4768 2.3173-7.0448 4.3338-10.634 6.0367 0.029282-0.1145 0.056183-0.23163 0.085464-0.34616 0.94847-3.9816 1.9471-7.9539 2.9493-11.924 6.1361-1.9181 10.69-4.5032 13.511-7.6977 5.6299-6.3575 25.981-27.123 45-38.757l-0.94008-1.5322c-19.301 11.807-39.323 32.228-45.408 39.1-2.4452 2.7686-6.3719 5.0602-11.654 6.8345 1.178-4.6438 2.3689-9.2839 3.5351-13.931l6.9932-27.932c-3.1004 9.0944-5.8725 18.289-8.5416 27.515-1.4431 4.9842-2.8039 9.9916-4.1331 15.007-10.534 2.9944-24.216 3.7864-37.477 4.1793-11.791 0.36725-25.021 6.8264-34.801 12.771 10.991-30.356 27.223-66.988 48.712-94.186l39.516 12.949 0.18748 0.060593 32.58-1.7591-0.11258-2.0868-32.189 1.7382-40.715-13.341-0.45372 0.56966c-44.335 55.647-66.599 151.24-66.819 152.2l-0.21101 0.92181 69.155 23.368 130.2-9.69 1.1933-0.0045471 130.07 9.678 0.211 0.01654 69.176-23.368-0.21103-0.92178-0.0012898 0.001892zm-85.871-50.219l21.8-27.594 43.863 19.15c7.9401 21.597 13.276 40.28 16.009 50.592l-80.044-34.944c-0.52982-2.4049-1.0714-4.8076-1.6271-7.2054l-8.851e-4 5.494e-4zm62.756-16.161l-37.163-16.243 19.261-24.389c6.8781 13.581 12.845 27.495 17.901 40.632v3.06e-5zm-65.119 6.1058c-2.396-9.3015-4.8036-18.599-7.4738-27.824-0.39154-1.3497-0.80658-2.6926-1.2027-4.0414l27.223 11.882-17.911 22.667c-0.211-0.89594-0.42203-1.7897-0.63519-2.6833l-3.662e-4 -1.526e-4zm1.165 4.915l20.236-25.611-30.748-13.421c-0.2883-0.97307-0.57663-1.9464-0.86972-2.9194l33.109 14.444 22.252-28.165c0.39392 0.7522 0.77826 1.5078 1.1652 2.262l-21.209 26.859 40.92 17.886c0.38452 1.0128 0.76193 2.0165 1.1347 3.02l-43.547-19.009-21.765 27.545c-0.22495-0.96371-0.45251-1.9253-0.67987-2.8892l0.001648-0.0015869zm-2.614 9.9635l2.2599-2.861c0.34714 1.4363 0.69885 2.8703 1.0388 4.3066l-3.2987-1.4457 6.1e-5 1.22e-4zm5.9124 4.5407l80.153 35c0.27655 1.0692 0.52283 2.0305 0.72665 2.8423l-80.284-35.039c-0.19467-0.93356-0.39395-1.8693-0.59558-2.8028l-3.967e-4 3.967e-4zm-48.429 49.284l25.003 10.922-31.771-2.3651 6.768-8.5574v1.221e-4zm-161.72-75.1l93.435 40.791c-0.0057526 0.84225-0.0081482 1.6867-0.010559 2.5313l-95.607-41.749c0.68826-0.47839 1.4113-0.99896 2.1827-1.5732l-9.91e-5 -1.221e-4zm-51.508-0.44342c12.965-0.3847 26.324-1.1649 36.903-3.9861-0.94822 3.606-1.8919 7.2147-2.8215 10.827-0.1546 0.64798-0.30704 1.296-0.46066 1.9464-8.8229 3.7921-17.175 5.2918-24.832 4.4167-14.889-1.7077-36.753 8.5763-49.816 15.711 1.5637-4.8028 3.2939-9.9048 5.1881-15.22 8.1172-5.1044 23.055-13.298 35.839-13.695l6.599e-4 4.883e-4zm144.92 79.628l-129.85 9.6617-66.953-22.627c0.85461-3.5464 4.2176-17.028 10.061-35.25 10.373-5.7784 34.848-18.216 50.413-16.423 7.6099 0.86096 15.86-0.51935 24.527-4.0564-1.8907 7.982-3.7311 15.981-5.29 24.037-1.8016 9.437-3.4343 18.932-4.1307 28.521 0.78763-4.7372 1.6447-9.4536 2.6539-14.142 0.94462-4.6977 1.968-9.3788 3.0536-14.048 1.9456-8.4733 3.9453-16.938 6.074-25.371 4.0839-1.8457 8.1455-4.1033 12.086-6.7221l97.367 42.513c0.010559 7.0182 0.17572 14.038 0.71272 21.064 0.6926-6.7351 1.0397-13.473 1.239-20.212l60.736 26.519-8.2804 10.478-53.068-3.9489-1.3479 0.0047913-7.769e-4 5.495e-4zm131.28 9.6617l-20.112-1.4973-39.061-17.061 34.928-44.203 8.7725 3.8298c0.38434 1.6491 0.77591 3.296 1.1556 4.9453 1.0832 4.6694 2.1077 9.3506 3.0524 14.048 1.0104 4.6881 1.8663 9.4044 2.6539 14.142-0.69641-9.5891-2.3303-19.085-4.1307-28.521-0.24152-1.2541-0.50653-2.5034-0.76196-3.7548l80.389 35.083c0.028076 0.11237 0.065491 0.26425 0.08902 0.36246l-66.975 22.627-1.831e-4 -4.274e-4z"/>
</svg>
