<?xml version="1.0" encoding="utf-8"?>
<svg enable-background="new 0 0 400 400" version="1.1" viewBox="0 0 400 400" xml:space="preserve" width="400px" height="400px" xmlns="http://www.w3.org/2000/svg">
	<style type="text/css">
		.clear{fill:#fff;}
		svg{fill:#253746;}
		.dark-shade{fill:#bbbfc3;}
	</style>
	<polygon class="clear" points="12.966 47.452 314.65 62.283 315.11 101.98 331.91 100.32 338.01 101.64 339.37 56.866 374.44 48.055 398.64 55.583 400 331.57 373.95 334.32 360.17 333.1 360.17 336.21 331.07 339.94 315.77 337.98 315.79 341.95 282.72 346.71 265 343.86 265.05 348.51 226.89 353.7 206.92 349.91 206.81 356.36 162.91 362.04 127.77 353.14 127.82 333.88 12.569 342.69"/>
	<rect transform="matrix(.99754 -.070158 .070158 .99754 -22.045 20.012)" x="264.99" y="322.7" width="17.76" height="2.2609"/>
	<rect transform="matrix(.99753 -.07018 .07018 .99753 -22.473 16.031)" x="206.89" y="326.71" width="20.025" height="2.2609"/>
	<rect transform="matrix(.99969 -.024955 .024955 .99969 -5.5023 5.4821)" x="206.91" y="222.07" width="19.983" height="2.2604"/>
	<rect transform="matrix(.99969 -.024955 .024955 .99969 -5.449 6.9032)" x="265" y="220.64" width="17.721" height="2.2604"/>
	<path d="m11.796 45.95v297.46l151.21-10.647-0.15927-2.2553-24.68 1.7378v-47.456l24.807-1.0117-0.092453-2.2588-24.713 1.0078v-56.226l24.788-0.62306-0.057083-2.2597-24.731 0.62167v-57.411l61.152-0.84441v36.125h2.2649v-36.157l56.623-0.78183v3.432h2.2649v-3.4632l22.261-0.30739-0.031006-2.2606-22.229 0.30693v-52.931l54.172 0.19731v210.93h2.2649v-260.76l-305.12-14.176 0.0023193 0.0060958zm60.695 290.93l-58.429 4.1139v-51.133l58.429-2.3828v49.402zm0-51.664l-58.429 2.3828v-58.168l58.429-1.4687v57.255-0.0011901zm0-59.516l-58.429 1.4688v-58.816l58.429-0.80675v58.155-6.561e-4zm0-60.416l-58.429 0.80679v-57.231l58.429 0.21285v56.212-2.441e-4zm0-58.473l-58.429-0.21281v-58.279l58.429 2.7144v55.777zm63.417 225.6l-61.152 4.3057v-49.334l61.152-2.4939v47.523-5.189e-4zm0-49.785l-61.152 2.4938v-57.219l61.152-1.5372v56.263zm0-58.523l-61.152 1.5372v-58.128l61.152-0.84442v57.436-7.629e-4zm0-59.697l-61.152 0.84438v-56.172l61.152 0.22276v55.106-0.0011597zm0-57.366l-61.152-0.22276v-55.68l61.152 2.841v53.061zm63.417 56.49l-61.152 0.84438v-55.066l61.152 0.22272v53.999zm0-56.26l-61.152-0.22271v-52.965l61.152 2.841v50.346zm58.887 55.447l-56.623 0.78185v-53.959l56.623 0.2063v52.971-6.866e-4zm0-55.231l-56.623-0.20625v-50.248l56.623 2.6306v47.825-9.537e-4zm56.436 0.20558l-54.172-0.19734v-47.728l54.172 2.5167v45.409z"/>
	<polygon points="74.543 347.39 73.623 342.2 72.68 347.52 2.2649 352.49 2.2649 290.18 8.6463 288.94 2.2649 288.25 2.2649 229.56 8.6463 228.43 2.2649 227.63 2.2649 168.34 8.6463 167.29 2.2649 166.43 2.2649 108.64 8.6463 107.71 2.2649 106.72 2.2649 46.871 8.6463 46.212 1.1852 44.735 0 44.499 0 45.863 0 353.7 0 354.91 1.2122 354.83 162.91 343.44 162.75 341.19"/>
	<rect transform="matrix(.99918 -.040541 .040541 .99918 -11.192 9.0241)" x="206.91" y="279.33" width="19.993" height="2.2606"/>
	<rect transform="matrix(.99916 -.04094 .04094 .99916 -11.157 11.445)" x="265" y="277" width="17.731" height="2.2608"/>
	<polygon class="dark-shade" points="128.06 353.02 162.93 361.52 162.93 199.78 128.06 203.48"/>
	<polygon class="dark-shade" points="226.89 164.99 226.89 353.7 206.92 349.91 206.92 202.29 189.67 201.31 189.67 170.66"/>
	<polygon class="dark-shade" points="282.72 147.48 282.72 346.71 265 343.86 265 169.01 240.85 166.47 240.85 154.52"/>
	<polygon class="dark-shade" points="331.07 99.48 331.07 339.94 315.77 337.98 315.77 152.01 291.13 148.63 291.13 107.46"/>
	<polygon class="dark-shade" points="373.76 47.134 373.76 334.61 360.17 333.1 360.17 105.74 338.69 101.09 338.69 56.343"/>
	<path d="m400 54.585l-25.56-7.9512v-0.38073l-0.66348 0.17429-0.6972-0.21688v0.39994l-35.068 9.2093v44.433l-6.2647-1.3545v-0.24614l-0.59146 0.11828-0.6091-0.13175v0.25346l-40.097 8.0158v40.948l-7.0485-0.96658v-0.21065l-0.69006 0.11603-0.66888-0.091736v0.20416l-41.873 7.0394v11.761l-12.598-1.3263v-0.17909l-0.69551 0.10585-0.66342-0.069855v0.17076l-37.229 5.6651v30.509l-25.371-1.446v-0.11461l-0.70212 0.074585-0.65773-0.03746v0.10732l-34.876 3.7046v150.67l0.50769 0.12378 34.368 8.9773v0.24988l0.63589-0.083771 0.72305 0.18884v-0.28412l43.984-5.7961v-6.2086l18.617 3.5392v0.21234l0.6599-0.086975 0.69904 0.13293v-0.22504l38.113-5.0229v-4.6091l17.716 2.8483v-0.57697l33.059-4.3584v-3.8241l14.088 1.8121v0.15665l0.60144-0.079254 0.59912 0.077026v-0.15604l29.108-3.8366v-2.8699l13.585 1.5143v-0.43542l25.56-3.3687v-276.98l-3.662e-4 0.010574zm-69.612 45.721v238.87l-13.929-1.7917v-185.95l-14.283-1.9595 5.4753-0.97559-8.024 0.62596-7.8195-1.0728v-4.1722l15.844-2.6149-15.844 1.7541v-6.2129l15.953-2.7751-15.953 1.9129v-6.2388l15.844-3.3949-15.844 2.5273v-6.1984l15.844-3.3948-15.844 2.5273v-6.1983l15.844-3.3949-15.844 2.5273v-6.6766l38.58-7.7127 1.525e-4 -0.00383zm-48.347 47.975v197.64l-16.357-2.6297v-174.89l-15.56-1.6396 7.5257-0.74179-10.955 0.38045-5.1679-0.54446v-4.6981l16.123-2.5863-16.123 1.7109v-5.1831l40.513-6.8109 0.0011901-8.545e-4zm-55.829 17.497v187.1l-18.617-3.5393v-147.69l-13.144-0.75092 12.465-1.118-16.575 0.59294v-6.4747l16.575-1.5513-16.575 0.65742v-6.4854l16.575-2.6587-16.575 1.7588v-6.468l16.575-2.6587-16.575 1.7588v-7.0095l35.871-5.458 9.156e-4 -5.188e-4zm-63.96 34.75v160.12l-33.517-8.1723v-7.81l20.639 3.6491-20.639-4.5416v-6.8688l20.639 3.0281-20.639-3.9159v-6.8641l20.639 2.66-20.639-3.5453v-6.8783l20.639 1.9563-20.639-2.8377v-6.8793l20.639 1.3201-20.639-2.1988v-6.8909l20.639 0.40915-20.639-1.2854v-6.8658l20.639 0.31436-20.639-1.1903v-6.8874l20.639-0.43771-20.639-0.43774v-6.8816l21.24-1.0367-21.24 0.16006v-6.8663l20.639-1.1381-20.639 0.2623v-6.8749l20.639-1.5219-20.639 0.64526v-6.862l20.639-1.5219-20.639 0.64532v-6.862l20.639-1.5219-20.639 0.64525v-6.862l20.639-1.5219-20.639 0.64522v-6.862l20.639-1.5219-20.639 0.64532v-6.862l20.639-1.5219-20.639 0.64526v-6.8954l20.639-2.6073-20.639 1.7271v-6.8584l20.639-2.6073-20.639 1.7271v-7.938l33.517-3.5602v0.0054016zm43.984 155.21l-42.624 5.6173v-160.85l26.011 1.4828v-6.1e-5l16.613 0.94908v152.82-0.011078zm58.089-7.659l-36.755 4.8444v-187.18l12.598 1.3263v4.58e-5l24.157 2.5454v178.46l-2.441e-4 6.104e-4zm50.775-6.6953l-31.7 4.179v-197.3l7.0486 0.96638v9.16e-5l24.651 3.3818v188.77l7.629e-4 0.0031432zm57.979-293.38v285.83l-12.224-1.3634v-227.29l-11.078-2.3965 10.23-2.2335-12.238 1.799-8.3986-1.8169v-3.4192l20.637-4.5503-20.637 3.6437v-7.318l20.637-4.7652-20.637 3.8569v-7.3241l20.637-5.6738-20.637 4.7567v-7.3048l20.637-5.6738-20.637 4.7567v-7.3048l20.637-5.6737-20.637 4.7567v-6.444l33.709-8.8522-7.019e-4 0.002407zm-13.583 287.52l-27.591 3.6372v-238.85l6.1064 1.32v1.297e-4l21.484 4.6477v229.24l2.441e-4 0.0033569zm39.144-5.1597l-24.201 3.1902v-285.51l24.201 7.5285v274.79z"/>
	<polygon points="309.31 53.876 306.21 37 289.31 40.089 296.84 45.287 250 121.58 216.4 87.902 157.83 179.8 114.66 152.52 12.224 337.41 12.928 342.2 16.024 342.69 116.79 160.82 159.64 187.91 217.41 97.253 251.11 131.02 301.69 48.633"/>
</svg>
