<?xml version="1.0" encoding="UTF-8"?>
<svg width="426px" height="168px" viewBox="0 0 426 168" version="1.1" xmlns="http://www.w3.org/2000/svg" xmlns:xlink="http://www.w3.org/1999/xlink">
    <!-- Generator: Sketch 60.1 (88133) - https://sketch.com -->
    <title>Group</title>
    <desc>Created with Sketch.</desc>
    <defs>
        <path d="M4.5674,0.9881 C8.6529,4.7596 12.7309,8.5504 16.8218,12.3185 C20.8708,16.0483 24.919,19.8209 28.9637,23.5709 C28.3648,29.0225 27.7162,34.5072 27.1139,39.9461 C26.5126,45.373 25.9018,50.8011 25.3079,56.1951 C21.1656,53.1201 17.0769,49.9799 12.9551,46.8578 C8.844,43.7431 4.704,40.602 0.655,37.4723 C1.2508,31.4268 1.9388,25.3794 2.5871,19.29 C3.2334,13.2295 3.9106,7.1042 4.5674,0.9881" id="path-1"></path>
        <path d="M24.13,56.6091 C20.1118,52.8569 16.1022,49.0981 12.1023,45.3383 C8.1085,41.5841 4.1182,37.7732 0.0485,33.9886 C0.7141,28.4699 1.4029,22.9403 2.0438,17.385 C2.6825,11.8438 3.3117,6.2533 3.9365,0.6747 C8.0723,3.9173 12.1567,7.1474 16.272,10.3763 C20.3916,13.6095 24.4814,16.8104 28.5818,20.0308 C27.8354,26.152 27.0695,32.251 26.341,38.3594 C25.6136,44.453 24.8616,50.5486 24.13,56.6091" id="path-3"></path>
        <path d="M48.8765,88.365 C40.9075,81.2611 32.8421,74.1368 24.8059,66.9901 C16.7288,59.8082 8.6402,52.5782 0.4906,45.3643 C1.2638,38.0543 1.9836,30.7656 2.7109,23.4309 C7.7824,19.6915 12.8366,15.9551 17.8579,12.2253 C22.895,8.4838 27.9781,4.7251 33.0793,0.925 C32.1544,8.8705 31.1963,16.7701 30.2864,24.6325 C29.3815,32.4511 28.4609,40.2886 27.5498,48.1017 C31.5231,51.1203 35.5115,54.129 39.4451,57.1306 C43.364,60.12 47.2818,63.1256 51.2157,66.1207 C50.4177,73.5407 49.6529,80.9706 48.8765,88.365" id="path-5"></path>
        <path d="M3.0731,0.633 C11.1062,7.9109 19.1693,15.1656 27.1908,22.3849 C35.1726,29.5688 43.1439,36.7401 51.1056,43.9081 C50.3045,51.0761 49.4861,58.254 48.7012,65.4293 C43.6938,69.0823 38.7207,72.779 33.7788,76.434 C28.8207,80.1017 23.8369,83.7848 18.8799,87.4108 C19.7995,79.7899 20.687,72.1125 21.6012,64.421 C22.5187,56.7071 23.4502,48.9572 24.3539,41.2058 C20.4682,38.2204 16.4948,35.2052 12.5725,32.2231 C8.6142,29.2122 4.7019,26.2012 0.7648,23.171 C1.52,15.6781 2.2763,8.1621 3.0731,0.633" id="path-7"></path>
        <path d="M88.0979,2.3236 L66.5475,2.3236 L61.2849,32.5196 L31.0892,32.5196 L36.3514,2.3236 L14.8007,2.3236 L0.2666,85.0178 L21.8173,85.0178 L27.5807,51.9401 L57.7768,51.9401 L52.0131,85.0178 L73.5638,85.0178 L88.0979,2.3236 Z M126.1873,2.3236 L104.6366,2.3236 L90.1025,85.0178 L111.6532,85.0178 L126.1873,2.3236 Z M194.4728,2.3236 L186.955,45.049 L149.8679,0.8201 L142.9766,0.8201 L128.1919,85.0178 L149.7426,85.0178 L157.3857,41.5409 L194.3475,86.5213 L201.2385,86.5213 L216.0231,2.3236 L194.4728,2.3236 Z M257.6207,2.3236 L232.5619,2.3236 L218.0278,85.0178 L250.6044,85.0178 C258.8739,85.0178 266.2244,83.6813 272.6563,81.0085 C279.0878,78.3354 284.1833,74.8063 287.9421,70.4211 C291.7008,66.0356 294.5409,61.3162 296.4622,56.2629 C298.3832,51.2093 299.3439,46.0514 299.3439,40.7889 C299.3439,29.596 295.4179,20.3871 287.5662,13.1615 C279.7142,5.9363 269.7326,2.3236 257.6207,2.3236 Z M251.9826,65.5971 L242.9614,65.7224 L250.7297,21.8696 L255.9919,21.8696 C262.4237,21.8696 267.5817,23.582 271.466,27.0065 C275.35,30.4313 277.292,35.3597 277.292,41.7915 C277.292,49.0584 274.9115,54.822 270.1501,59.082 C265.3891,63.3419 259.3331,65.5138 251.9826,65.5971 L251.9826,65.5971 Z" id="path-9"></path>
    </defs>
    <g id="Page-1" stroke="none" stroke-width="1" fill="none" fill-rule="evenodd">
        <g id="LOGO-PDF" transform="translate(-109.000000, -223.000000)">
            <g id="Group" transform="translate(109.000000, 222.000000)">
                <g id="Group-20">
                    <g id="Group-19">
                        <g id="Group-5" transform="translate(0.000000, 53.000000)">
                            <mask id="mask-2" fill="white">
                                <use xlink:href="#path-1"></use>
                            </mask>
                            <g id="Clip-4"></g>
                            <path d="M4.5674,0.9881 C8.6529,4.7596 12.7309,8.5504 16.8218,12.3185 C20.8708,16.0483 24.919,19.8209 28.9637,23.5709 C28.3648,29.0225 27.7162,34.5072 27.1139,39.9461 C26.5126,45.373 25.9018,50.8011 25.3079,56.1951 C21.1656,53.1201 17.0769,49.9799 12.9551,46.8578 C8.844,43.7431 4.704,40.602 0.655,37.4723 C1.2508,31.4268 1.9388,25.3794 2.5871,19.29 C3.2334,13.2295 3.9106,7.1042 4.5674,0.9881" id="Fill-3" fill="#000000" mask="url(#mask-2)"></path>
                        </g>
                        <g id="Group-8" transform="translate(65.000000, 1.000000)">
                            <mask id="mask-4" fill="white">
                                <use xlink:href="#path-3"></use>
                            </mask>
                            <g id="Clip-7"></g>
                            <path d="M24.13,56.6091 C20.1118,52.8569 16.1022,49.0981 12.1023,45.3383 C8.1085,41.5841 4.1182,37.7732 0.0485,33.9886 C0.7141,28.4699 1.4029,22.9403 2.0438,17.385 C2.6825,11.8438 3.3117,6.2533 3.9365,0.6747 C8.0723,3.9173 12.1567,7.1474 16.272,10.3763 C20.3916,13.6095 24.4814,16.8104 28.5818,20.0308 C27.8354,26.152 27.0695,32.251 26.341,38.3594 C25.6136,44.453 24.8616,50.5486 24.13,56.6091" id="Fill-6" fill="#000000" mask="url(#mask-4)"></path>
                        </g>
                        <g id="Group-11" transform="translate(4.000000, 0.000000)">
                            <mask id="mask-6" fill="white">
                                <use xlink:href="#path-5"></use>
                            </mask>
                            <g id="Clip-10"></g>
                            <path d="M48.8765,88.365 C40.9075,81.2611 32.8421,74.1368 24.8059,66.9901 C16.7288,59.8082 8.6402,52.5782 0.4906,45.3643 C1.2638,38.0543 1.9836,30.7656 2.7109,23.4309 C7.7824,19.6915 12.8366,15.9551 17.8579,12.2253 C22.895,8.4838 27.9781,4.7251 33.0793,0.925 C32.1544,8.8705 31.1963,16.7701 30.2864,24.6325 C29.3815,32.4511 28.4609,40.2886 27.5498,48.1017 C31.5231,51.1203 35.5115,54.129 39.4451,57.1306 C43.364,60.12 47.2818,63.1256 51.2157,66.1207 C50.4177,73.5407 49.6529,80.9706 48.8765,88.365" id="Fill-9" fill="#000000" mask="url(#mask-6)"></path>
                        </g>
                        <g id="Group-14" transform="translate(38.000000, 22.000000)">
                            <mask id="mask-8" fill="white">
                                <use xlink:href="#path-7"></use>
                            </mask>
                            <use id="Clip-13" fill="#000000" xlink:href="#path-7"></use>
                            <path d="M3.0731,0.633 C11.1062,7.9109 19.1693,15.1656 27.1908,22.3849 C35.1726,29.5688 43.1439,36.7401 51.1056,43.9081 C50.3045,51.0761 49.4861,58.254 48.7012,65.4293 C43.6938,69.0823 38.7207,72.779 33.7788,76.434 C28.8207,80.1017 23.8369,83.7848 18.8799,87.4108 C19.7995,79.7899 20.687,72.1125 21.6012,64.421 C22.5187,56.7071 23.4502,48.9572 24.3539,41.2058 C20.4682,38.2204 16.4948,35.2052 12.5725,32.2231 C8.6142,29.2122 4.7019,26.2012 0.7648,23.171 C1.52,15.6781 2.2763,8.1621 3.0731,0.633" id="Fill-12" fill="#000000" mask="url(#mask-8)"></path>
                        </g>
                        <g id="Group-17" transform="translate(126.000000, 13.000000)">
                            <mask id="mask-10" fill="white">
                                <use xlink:href="#path-9"></use>
                            </mask>
                            <g id="Clip-16"></g>
                            <path d="M88.0979,2.3236 L66.5475,2.3236 L61.2849,32.5196 L31.0892,32.5196 L36.3514,2.3236 L14.8007,2.3236 L0.2666,85.0178 L21.8173,85.0178 L27.5807,51.9401 L57.7768,51.9401 L52.0131,85.0178 L73.5638,85.0178 L88.0979,2.3236 Z M126.1873,2.3236 L104.6366,2.3236 L90.1025,85.0178 L111.6532,85.0178 L126.1873,2.3236 Z M194.4728,2.3236 L186.955,45.049 L149.8679,0.8201 L142.9766,0.8201 L128.1919,85.0178 L149.7426,85.0178 L157.3857,41.5409 L194.3475,86.5213 L201.2385,86.5213 L216.0231,2.3236 L194.4728,2.3236 Z M257.6207,2.3236 L232.5619,2.3236 L218.0278,85.0178 L250.6044,85.0178 C258.8739,85.0178 266.2244,83.6813 272.6563,81.0085 C279.0878,78.3354 284.1833,74.8063 287.9421,70.4211 C291.7008,66.0356 294.5409,61.3162 296.4622,56.2629 C298.3832,51.2093 299.3439,46.0514 299.3439,40.7889 C299.3439,29.596 295.4179,20.3871 287.5662,13.1615 C279.7142,5.9363 269.7326,2.3236 257.6207,2.3236 Z M251.9826,65.5971 L242.9614,65.7224 L250.7297,21.8696 L255.9919,21.8696 C262.4237,21.8696 267.5817,23.582 271.466,27.0065 C275.35,30.4313 277.292,35.3597 277.292,41.7915 C277.292,49.0584 274.9115,54.822 270.1501,59.082 C265.3891,63.3419 259.3331,65.5138 251.9826,65.5971 L251.9826,65.5971 Z" id="Fill-15" fill="#000000" mask="url(#mask-10)"></path>
                        </g>
                        <path d="M373.8812,110.0157 L367.872,110.0157 L363.819,133.075 L379.3665,133.075 L380.3099,127.6597 L370.7718,127.6597 L373.8812,110.0157 Z M399.3862,121.161 C400.7604,120.043 401.4475,118.5174 401.4475,116.5842 C401.4475,114.651 400.7777,113.0729 399.4386,111.85 C398.0992,110.6272 396.3466,110.0157 394.1803,110.0157 L386.5639,110.0157 L382.511,133.075 L393.7611,133.075 C396.1368,133.075 398.1284,132.4344 399.7354,131.1534 C401.3426,129.8724 402.1463,128.1955 402.1463,126.1222 C402.1463,123.9095 401.2261,122.2557 399.3862,121.161 Z M393.3767,115.047 C394.0522,115.047 394.5763,115.2275 394.9491,115.5884 C395.3216,115.9495 395.5081,116.4212 395.5081,117.0034 C395.5081,117.6557 395.2808,118.1739 394.8266,118.5582 C394.3725,118.9426 393.7727,119.1348 393.0275,119.1348 L390.7215,119.1348 L391.4551,115.047 L393.3767,115.047 Z M393.796,128.0089 L389.1491,128.0089 L389.883,124.026 L394.1455,124.026 C395.543,124.026 396.2417,124.6666 396.2417,125.9476 C396.2417,127.3218 395.4265,128.0089 393.796,128.0089 Z M425.3453,110.0157 L405.5002,110.0157 L404.5569,115.4313 L411.4748,115.4313 L408.3652,133.075 L414.3746,133.075 L417.484,115.4313 L424.4019,115.4313 L425.3453,110.0157 Z" id="Fill-18" fill="#000000"></path>
                    </g>
                </g>
                <text id="AN-ISO-CERTIFIED-COM" font-family="Arial-Black, Arial Black" font-size="19" font-weight="700" letter-spacing="-0.000225089147" fill="#000000">
                    <tspan x="117.811539" y="168">AN ISO CERTIFIED COMPANY</tspan>
                </text>
            </g>
        </g>
    </g>
</svg>