<?xml version="1.0" encoding="utf-8"?>
<svg class="mainstreethost-logo" width="300px" height="50px" enable-background="new 0 0 300 50" version="1.1" viewBox="0 0 300 50" xml:space="preserve" xmlns="http://www.w3.org/2000/svg">
	<path fill="#fff" d="M72.7,16.4L68,25.8h-2.3L61,16.4v10.9h-3.9V10h5.2l4.5,9.5l4.5-9.5h5.2v17.3h-3.9V16.4z"/>
	<path fill="#fff" d="m93.1 27.2l-1.6-3.7h-7.3l-1.6 3.7h-4.1l7.5-17.2h3.7l7.5 17.3h-4.1zm-5.2-12.1l-2.2 5h4.3l-2.1-5z"/>
	<path fill="#fff" d="M99.2,10h3.9v17.3h-3.9V10z"/>
	<path fill="#fff" d="M119.4,10h3.9v17.3h-3.9l-8.2-10.8v10.8h-3.9V10h3.6l8.5,11.1V10z"/>
	<path fill="#fff" d="m131.6 13.4c-0.4 0.3-0.6 0.7-0.6 1.2s0.2 0.9 0.7 1.2 1.5 0.6 3.1 1.1c1.6 0.4 2.9 1 3.8 1.8s1.4 2 1.4 3.5c0 1.6-0.6 2.8-1.7 3.8-1.2 1-2.7 1.4-4.6 1.4-2.7 0-5.2-1-7.4-3l2.3-2.8c1.9 1.6 3.6 2.4 5.2 2.4 0.7 0 1.3-0.2 1.7-0.5s0.6-0.7 0.6-1.2-0.2-0.9-0.6-1.2-1.3-0.6-2.5-0.9c-2-0.5-3.5-1.1-4.4-1.9s-1.4-2-1.4-3.6 0.6-2.9 1.8-3.8 2.7-1.3 4.4-1.3c1.2 0 2.3 0.2 3.5 0.6s2.2 1 3 1.7l-2 2.8c-1.5-1.1-3.1-1.7-4.7-1.7-0.7-0.1-1.2 0.1-1.6 0.4z"/>
	<path fill="#fff" d="M150.6,13.3v14h-3.9v-14h-4.9V10h13.7v3.3H150.6z"/>
	<path fill="#fff" d="m172.4 15.7c0 2.8-1.1 4.6-3.3 5.4l4.4 6.2h-4.8l-3.8-5.5h-2.7v5.5h-3.9v-17.3h6.6c2.7 0 4.6 0.5 5.8 1.4 1.1 0.8 1.7 2.3 1.7 4.3zm-4.7 2c0.5-0.4 0.7-1.1 0.7-2s-0.2-1.6-0.7-1.9-1.4-0.5-2.6-0.5h-2.9v5.1h2.8c1.4 0 2.3-0.2 2.7-0.7z"/>
	<path fill="#fff" d="M188.8,10v3.4h-8.6V17h7.7v3.3h-7.7v3.6h8.9v3.4h-12.7V10H188.8z"/>
	<path fill="#fff" d="M205,10v3.4h-8.6V17h7.7v3.3h-7.7v3.6h8.9v3.4h-12.7V10H205z"/>
	<path fill="#fff" d="M216,13.3v14h-3.9v-14h-4.9V10h13.7v3.3H216z"/>
	<path fill="#fff" d="M234.5,10h3.9v17.3h-3.9v-6.8h-6.9v6.8h-3.9V10h3.9v7.2h6.9V10z"/>
	<path fill="#fff" d="m257.2 24.9c-1.7 1.7-3.9 2.6-6.5 2.6s-4.7-0.9-6.5-2.6c-1.7-1.7-2.6-3.8-2.6-6.4 0-2.5 0.9-4.7 2.6-6.4s3.9-2.6 6.5-2.6 4.7 0.9 6.5 2.6c1.7 1.7 2.6 3.8 2.6 6.4 0 2.5-0.9 4.7-2.6 6.4zm-1.3-6.4c0-1.5-0.5-2.9-1.5-3.9-1-1.1-2.2-1.6-3.6-1.6s-2.7 0.5-3.6 1.6c-1 1.1-1.5 2.4-1.5 3.9s0.5 2.9 1.5 3.9c1 1.1 2.2 1.6 3.6 1.6s2.7-0.5 3.6-1.6c1-1 1.5-2.4 1.5-3.9z"/>
	<path fill="#fff" d="m267.1 13.4c-0.4 0.3-0.6 0.7-0.6 1.2s0.2 0.9 0.7 1.2 1.5 0.6 3.1 1.1c1.6 0.4 2.9 1 3.8 1.8s1.4 2 1.4 3.5c0 1.6-0.6 2.8-1.7 3.8-1.2 1-2.7 1.4-4.6 1.4-2.7 0-5.2-1-7.4-3l2.3-2.8c1.9 1.6 3.6 2.4 5.2 2.4 0.7 0 1.3-0.2 1.7-0.5s0.6-0.7 0.6-1.2-0.2-0.9-0.6-1.2-1.3-0.6-2.5-0.9c-2-0.5-3.5-1.1-4.4-1.9s-1.4-2-1.4-3.6 0.6-2.9 1.8-3.8 2.7-1.3 4.4-1.3c1.2 0 2.3 0.2 3.5 0.6s2.2 1 3 1.7l-2 2.8c-1.5-1.1-3.1-1.7-4.7-1.7-0.7-0.1-1.2 0.1-1.6 0.4z"/>
	<path fill="#fff" d="M286.2,13.3v14h-3.9v-14h-4.9V10h13.7v3.3H286.2z"/>
	<path fill="#fff" d="m63.7 32.5c0.8 0.8 1.2 1.8 1.2 3.1s-0.4 2.4-1.2 3.2-2 1.2-3.7 1.2h-2.9v-8.6h3c1.5 0 2.7 0.4 3.6 1.1zm-0.3 3.2c0-2-1.1-3-3.4-3h-1.5v5.9h1.6c1 0 1.8-0.2 2.4-0.7 0.7-0.5 0.9-1.2 0.9-2.2z"/>
	<path fill="#fff" d="M68.8,31.4h1.5V40h-1.5V31.4z"/>
	<path fill="#fff" d="m80.6 35.8h1.5v3c-0.8 0.9-2 1.3-3.5 1.3-1.3 0-2.3-0.4-3.2-1.3-0.9-0.8-1.3-1.9-1.3-3.2s0.4-2.4 1.3-3.2c0.9-0.9 1.9-1.3 3.2-1.3 1.2 0 2.3 0.4 3.1 1.1l-0.8 1.1c-0.3-0.3-0.7-0.5-1-0.6s-0.7-0.2-1.2-0.2c-0.9 0-1.6 0.3-2.2 0.8-0.6 0.6-0.9 1.3-0.9 2.2s0.3 1.7 0.9 2.2c0.6 0.6 1.3 0.8 2.1 0.8s1.5-0.2 2.1-0.5v-2.2z"/>
	<path fill="#fff" d="M86,31.4h1.5V40H86V31.4z"/>
	<path fill="#fff" d="M95.1,32.7V40h-1.5v-7.3H91v-1.3h6.7v1.3H95.1z"/>
	<path fill="#fff" d="m102.5 38.1l-0.9 2h-1.6l3.8-8.6h1.6l3.8 8.6h-1.6l-0.9-2h-4.2zm3.8-1.4l-1.6-3.6-1.6 3.6h3.2z"/>
	<path fill="#fff" d="m112.5 40v-8.6h1.5v7.3h3.9v1.3h-5.4z"/>
	<path fill="#fff" d="M128.3,40h-1.5v-8.6h2.3l2.6,5.4l2.6-5.4h2.3V40h-1.5v-6.8l-3,6h-0.8l-3-6V40z"/>
	<path fill="#fff" d="m142.2 38.1l-0.9 2h-1.6l3.8-8.6h1.6l3.9 8.5h-1.6l-0.9-2h-4.3zm3.8-1.4l-1.6-3.6-1.6 3.6h3.2z"/>
	<path fill="#fff" d="m159.1 34.2c0 1.4-0.6 2.3-1.9 2.7l2.3 3.1h-1.9l-2.1-2.9h-1.9v2.9h-1.5v-8.6h3.2c1.3 0 2.3 0.2 2.8 0.7s1 1.1 1 2.1zm-1.9 1.2c0.3-0.3 0.4-0.7 0.4-1.2s-0.2-1-0.5-1.2-0.8-0.3-1.6-0.3h-1.9v3.1h1.8c0.9 0 1.5-0.1 1.8-0.4z"/>
	<path fill="#fff" d="m163.2 31.4h1.5v4.2l4-4.2h1.9l-3.5 3.8 3.5 4.9h-1.7l-2.9-3.8-1.3 1.4v2.3h-1.5v-8.6z"/>
	<path fill="#fff" d="m180 31.4v1.4h-4.6v2.2h4.1v1.3h-4.1v2.3h4.8v1.4h-6.2v-8.6h6z"/>
	<path fill="#fff" d="m187.2 32.7v7.3h-1.5v-7.3h-2.6v-1.3h6.7v1.3h-2.6z"/>
	<path fill="#fff" d="M193.4,31.4h1.5V40h-1.5V31.4z"/>
	<path fill="#fff" d="M205.8,31.4h1.5V40h-1.6l-4.9-6.3V40h-1.5v-8.6h1.5l5,6.5V31.4z"/>
	<path fill="#fff" d="m217.6 35.8h1.5v3c-0.8 0.9-2 1.3-3.5 1.3-1.3 0-2.3-0.4-3.2-1.3-0.9-0.8-1.3-1.9-1.3-3.2s0.4-2.4 1.3-3.2c0.9-0.9 1.9-1.3 3.2-1.3 1.2 0 2.3 0.4 3.1 1.1l-0.8 1.1c-0.3-0.3-0.7-0.5-1-0.6s-0.7-0.2-1.2-0.2c-0.9 0-1.6 0.3-2.2 0.8-0.6 0.6-0.9 1.3-0.9 2.2s0.3 1.7 0.9 2.2c0.6 0.6 1.3 0.8 2.1 0.8s1.5-0.2 2.1-0.5v-2.2z"/>
	<path fill="#fff" d="m229.6 38.1l-0.9 2h-1.6l3.8-8.6h1.6l3.8 8.6h-1.6l-0.9-2h-4.2zm3.7-1.4l-1.6-3.6-1.6 3.6h3.2z"/>
	<path fill="#fff" d="m245.5 35.8h1.5v3c-0.8 0.9-2 1.3-3.5 1.3-1.3 0-2.3-0.4-3.2-1.3-0.9-0.8-1.3-1.9-1.3-3.2s0.4-2.4 1.3-3.2c0.9-0.9 1.9-1.3 3.2-1.3 1.2 0 2.3 0.4 3.1 1.1l-0.8 1.1c-0.3-0.3-0.7-0.5-1-0.6s-0.7-0.2-1.2-0.2c-0.9 0-1.6 0.3-2.2 0.8-0.6 0.6-0.9 1.3-0.9 2.2s0.3 1.7 0.9 2.2c0.6 0.6 1.3 0.8 2.1 0.8s1.5-0.2 2.1-0.5v-2.2z"/>
	<path fill="#fff" d="m257 31.4v1.4h-4.6v2.2h4.1v1.3h-4.1v2.3h4.8v1.4h-6.2v-8.6h6z"/>
	<path fill="#fff" d="M267.5,31.4h1.5V40h-1.6l-4.9-6.3V40H261v-8.6h1.5l5,6.5V31.4z"/>
	<path fill="#fff" d="m277.3 38.7c0.5 0 0.9-0.1 1.3-0.3s0.7-0.4 1.1-0.8l0.9 1c-0.9 1-2 1.5-3.3 1.5s-2.4-0.4-3.3-1.3c-0.9-0.8-1.3-1.9-1.3-3.2s0.4-2.4 1.3-3.2c0.9-0.9 2-1.3 3.3-1.3s2.5 0.5 3.4 1.5l-0.9 1c-0.4-0.4-0.8-0.7-1.2-0.8-0.4-0.2-0.8-0.2-1.3-0.2-0.9 0-1.6 0.3-2.2 0.8-0.6 0.6-0.9 1.3-0.9 2.2s0.3 1.6 0.9 2.2c0.7 0.6 1.4 0.9 2.2 0.9z"/>
	<path fill="#fff" d="M287.8,40h-1.5v-3.4l-3.2-5.2h1.6l2.4,3.9l2.4-3.9h1.6l-3.2,5.2V40z"/>
	<path fill="#fff" d="m299 11c0.7 0.7 1 1.5 1 2.5s-0.3 1.8-1 2.5-1.5 1.1-2.5 1.1-1.8-0.3-2.5-1-1-1.5-1-2.5 0.3-1.8 1-2.5 1.5-1.1 2.5-1.1c0.9-0.1 1.8 0.3 2.5 1zm-0.5 4.5c0.5-0.5 0.8-1.2 0.8-2s-0.3-1.4-0.8-2c-0.6-0.6-1.2-0.8-2-0.8s-1.5 0.3-2 0.8c-0.6 0.6-0.8 1.2-0.8 2s0.3 1.4 0.8 2 1.2 0.8 2 0.8c0.7 0.1 1.4-0.2 2-0.8h-1.2l-0.9-1.2h-0.4v1.2h-1.1v-4h1.6c0.6 0 1.1 0.1 1.4 0.3s0.4 0.6 0.4 1c0 0.6-0.3 1-0.8 1.2l1 1.5zm-1.4-2.3c0.1-0.1 0.1-0.2 0.1-0.4s0-0.3-0.1-0.4-0.3-0.1-0.5-0.1h-0.6v1h0.5c0.3 0.1 0.5 0 0.6-0.1z"/>
	<path fill="#fff" d="m41.4 34.3l-7.3-20c-0.3-0.8-1.1-1.4-2-1.4-0.2 0-0.5 0-0.7 0.1-0.5 0.2-0.9 0.6-1.2 1.1-0.2 0.5-0.3 1.1-0.1 1.6l7.3 20c0.3 0.8 1.1 1.4 2 1.4 0.2 0 0.5 0 0.7-0.1 0.5-0.2 0.9-0.6 1.2-1.1s0.3-1.1 0.1-1.6z"/>
	<path fill="#fff" d="m8 34.3c-0.2 0.5-0.2 1.1 0.1 1.6 0.2 0.5 0.7 0.9 1.2 1.1 0.2 0.1 0.5 0.1 0.7 0.1 0.9 0 1.7-0.6 2-1.4l4.2-11.5-2.2-6.1-6 16.2z"/>
	<path fill="#fff" d="m19.4 14.2c-0.3-0.8-1.1-1.4-2-1.4-0.2 0-0.5 0-0.7 0.1-0.5 0.2-0.9 0.6-1.2 1.1-0.2 0.5-0.3 1.1-0.1 1.6l5.8 15.9 2.2-6.1-4-11.2z"/>
	<path fill="#fff" d="m22.8 34.3c-0.2 0.5-0.2 1.1 0.1 1.6 0.2 0.5 0.7 0.9 1.2 1.1 0.2 0.1 0.5 0.1 0.7 0.1 0.9 0 1.7-0.6 2-1.4l4.2-11.5-2.2-6.1-6 16.2z"/>
	<path fill="#fff" d="m24.7 49.7c-6.6 0-12.8-2.6-17.5-7.2-4.6-4.7-7.2-10.9-7.2-17.5s2.6-12.8 7.2-17.5c4.7-4.7 10.9-7.2 17.5-7.2s12.8 2.6 17.5 7.2c4.7 4.7 7.2 10.9 7.2 17.5s-2.6 12.8-7.2 17.5-10.8 7.2-17.5 7.2zm0-45.4c-11.4 0-20.7 9.3-20.7 20.7s9.3 20.7 20.7 20.7 20.7-9.3 20.7-20.7c0.1-11.4-9.2-20.7-20.7-20.7z"/>
</svg>