<?xml version="1.0" encoding="UTF-8"?>
<svg enable-background="new 0 0 135 35" version="1.1" viewBox="0 0 135 35" xml:space="preserve" xmlns="http://www.w3.org/2000/svg">
	<path fill="#454545" d="m17.418 18.203l2.7354-0.17372c0.30163-0.01919 0.35918-0.19345 0.12736-0.38636l-6.6358-5.5422c-0.23235-0.19345-0.42153-0.10498-0.42153 0.19771l-0.0042629 8.6454c0 0.30217 0.17 0.36984 0.37783 0.15082l1.8774-1.975c0.2073-0.21902 0.48335-0.17478 0.61231 0.098602l1.2539 2.6512c0.12896 0.27338 0.4583 0.39116 0.73115 0.26219l0.02611-0.013319c0.27232-0.12843 0.39116-0.45724 0.26219-0.72954l-1.2555-2.6544c-0.12843-0.27231 0.012791-0.51105 0.31335-0.53131"/>
	<path fill="#454545" d="m21.329 20.197c-0.59633 1.0328-1.2417 1.9958-1.9147 2.8782-0.49401 0.64642-1.004 1.2444-1.5209 1.7986-0.62883 0.67254-1.2678 1.2785-1.9062 1.798-0.012789 0.010652-0.02558 0.01971-0.038901 0.029842-0.46043 0.3741-0.91927 0.70609-1.3706 0.99067-1.3786 0.87025-2.6853 1.3174-3.7325 1.3099-0.59206-5.36e-4 -1.0999-0.13002-1.5497-0.38795l-0.40981 0.71037 0.40981-0.71143c-1.1463-0.64589-1.8519-2.2254-1.8524-4.55 0-0.15453 0.014921-0.32188 0.020782-0.48174-0.56701-0.20251-1.1063-0.42473-1.6147-0.6656-0.031442 0.39116-0.049027 0.77485-0.049562 1.1473-0.0015979 2.6049 0.78124 4.8639 2.6752 5.9739 0.71996 0.41567 1.5342 0.6091 2.3704 0.60858 1.6478-0.009058 3.384-0.71196 5.1031-1.8998 0.35971-0.2478 0.71943-0.51053 1.077-0.7999 0.098051-0.080469 0.19557-0.16946 0.29416-0.25367 1.0184-0.8649 2.0181-1.8966 2.9667-3.0738 0.49507-0.61445 0.97522-1.2683 1.4367-1.9574 0.35385-0.52972 0.69917-1.0733 1.0285-1.643 0.32934-0.57181 0.63149-1.1447 0.91394-1.7176-0.22009-0.72156-0.49454-1.4628-0.80576-2.21-0.42793 1.028-0.93099 2.0698-1.5305 3.1063"/>
	<path fill="#454545" d="m7.6265 21.891c0.13109-0.82546 0.33147-1.693 0.60485-2.5899-0.36398-0.73968-0.68798-1.4783-0.97149-2.21-0.54676 1.4101-0.94165 2.793-1.1815 4.1098 0.082068 0.042625 0.16147 0.086323 0.24674 0.12843 0.40288 0.20143 0.84413 0.38582 1.3014 0.56168"/>
	<path fill="#454545" d="m23.421 4.1461c-0.71996-0.4178-1.5348-0.61017-2.3704-0.60964-1.6472 0.0090585-3.3834 0.71196-5.1026 1.8987-0.36024 0.24887-0.71996 0.51107-1.077 0.80044-0.098587 0.08047-0.19664 0.17-0.2947 0.25313-1.0184 0.86598-2.0176 1.8977-2.9656 3.0749-0.4956 0.61443-0.97522 1.2673-1.4362 1.9574-0.35438 0.52865-0.70024 1.0733-1.029 1.6424-0.32987 0.57181-0.63256 1.1447-0.915 1.7181 0.22009 0.72102 0.49507 1.4612 0.80629 2.2089 0.42793-1.0275 0.93152-2.0693 1.531-3.1058 0.59579-1.0333 1.2406-1.9957 1.9137-2.8772 0.49401-0.64748 1.004-1.2454 1.522-1.7991 0.6283-0.67306 1.2673-1.2784 1.9051-1.798 0.013322-0.010652 0.026645-0.01919 0.039434-0.030379 0.4599-0.3741 0.91927-0.70557 1.3706-0.99068 1.3664-0.86224 2.6635-1.3094 3.7058-1.3094h0.026112c0.59153 5.364e-4 1.0983 0.12897 1.5492 0.38903 1.1468 0.64535 1.8519 2.2265 1.8529 4.55 0 0.15455-0.014921 0.32188-0.021316 0.48176 0.56755 0.20249 1.1069 0.42419 1.6147 0.6656 0.031977-0.3917 0.049562-0.77485 0.050095-1.1474 0.0010642-2.6049-0.78231-4.8638-2.6752-5.9728"/>
	<path fill="#454545" d="m24.269 12.292c-0.1311 0.82494-0.33147 1.692-0.60379 2.5883 0.36344 0.7402 0.68692 1.4783 0.97096 2.2094 0.54623-1.409 0.94111-2.7919 1.1815-4.1087-0.082068-0.042642-0.16254-0.08634-0.24674-0.12845-0.40341-0.20143-0.84466-0.38582-1.3019-0.56062"/>
	<path fill="#b0cdec" d="m30.896 17.091v-0.10978c0.004261 0.025045-5.36e-4 0.057554-5.36e-4 0.08634 1e-7 0.0074481 5.36e-4 0.015449 5.36e-4 0.023436"/>
	<path fill="#b0cdec" d="m30.879 16.734c-0.19558-2.2665-2.0309-4.0837-4.5761-5.352-0.082068-0.041048-0.17213-0.076209-0.25633-0.11618-0.50733-0.24141-1.0472-0.46255-1.6142-0.66506-1.2614-0.44979-2.6512-0.80523-4.1466-1.0376 0.49507 0.61445 0.97469 1.2683 1.4362 1.9574 0.9134 0.2121 1.7666 0.47109 2.5468 0.77113 0.45724 0.17532 0.89849 0.35971 1.3019 0.5606 0.08473 0.042642 0.1652 0.085804 0.24673 0.12845 2.2729 1.1932 3.458 2.7098 3.4357 4.1098 0.023447 1.4016-1.1623 2.9171-3.4351 4.1098-0.082068 0.043163-0.16254 0.08634-0.24727 0.12897-0.40288 0.20091-0.84466 0.38477-1.3008 0.56062-0.78071 0.2995-1.6339 0.55849-2.5473 0.77111-0.4615 0.68905-0.94111 1.3429-1.4362 1.9574 1.4959-0.23181 2.8852-0.58726 4.1466-1.0376 0.56648-0.20251 1.1063-0.42367 1.6142-0.66508 0.084204-0.039959 0.17426-0.075134 0.2558-0.11617 2.6533-1.3216 4.535-3.2396 4.5926-5.6424-0.0015984 0.0095959-0.0031948 0.018654-0.0047932 0.028786 0.0026627-0.02132 0.0037289-0.042643 0.0047932-0.063946 0.0016022-0.019728 5.322e-4 -0.036251 5.322e-4 -0.054888-5.322e-4 -0.034121-0.0015965-0.068224-0.0026627-0.10179 0.0010662 0.004797 0.0021305 0.010132 0.0032005 0.015987v-0.23022l-0.01759-0.017044zm-0.71409 1.1735c0.062882-0.0074654 0.12577-0.022394 0.18545-0.043699-0.078339 0.029842-0.13802 0.039438-0.18545 0.043699m0.35385-0.12578c-0.0042648 0.0026665-0.0085297 0.0053329-0.012791 0.0080013 0.053824-0.033567 0.10445-0.073542 0.14975-0.11884 0.029842-0.029304 0.058088-0.061815 0.0826-0.095919-0.060217 0.092178-0.13536 0.16785-0.21955 0.20675"/>
	<path fill="#b0cdec" d="m15.948 9.2353c-0.66081 5.369e-4 -1.3067 0.030379-1.9446 0.073021-0.51692 0.55369-1.0274 1.1516-1.5215 1.7991 1.1074-0.14442 2.2649-0.22915 3.466-0.22807 1.2012-0.0010738 2.3586 0.083657 3.466 0.22807-0.49401-0.64748-1.0045-1.2454-1.5215-1.7991-0.63789-0.042642-1.2838-0.072484-1.9446-0.073021"/>
	<path fill="#b0cdec" d="m6.0781 12.981c0.082067-0.043161 0.162-0.086324 0.24673-0.12843 0.40341-0.20143 0.84413-0.38582 1.3019-0.56116 0.78071-0.30002 1.6344-0.55901 2.5484-0.77111 0.46096-0.68959 0.94058-1.3424 1.4357-1.9568-1.4959 0.23181-2.8862 0.58672-4.1476 1.037-0.56701 0.20251-1.1063 0.42367-1.6147 0.66561-0.083667 0.039422-0.17426 0.074598-0.2558 0.11563-2.6773 1.3349-4.5692 3.2758-4.5926 5.7096v0.023972c0.036771 2.421 1.9238 4.3539 4.5926 5.6845 0.081535 0.041048 0.17213 0.07621 0.25633 0.11618 0.50786 0.24087 1.0472 0.46309 1.6147 0.66506 1.2609 0.45031 2.6512 0.80523 4.1466 1.037-0.49454-0.61445-0.97469-1.2678-1.4362-1.9574-0.91394-0.2121-1.7671-0.47055-2.5473-0.77006-0.45777-0.17585-0.89848-0.36024-1.3019-0.56168-0.084732-0.042105-0.16467-0.085804-0.24673-0.12843-2.2718-1.1927-3.4586-2.7088-3.4351-4.1093v-0.076208c0.020252-1.3797 1.2044-2.8633 3.4351-4.0341m-4.5196 4.8884c0.073542 0.025045 0.15188 0.039438 0.23075 0.042625-0.097524-0.0015945-0.1732-0.021305-0.23075-0.042625m0.57874-0.019728c-0.002665 0.0010738-0.0053301 0.0021305-0.0074606 0.0026684 0.064481-0.026102 0.12523-0.060743 0.18119-0.10177-0.052227 0.039421-0.11031 0.074598-0.17373 0.099106m0.34-0.26432c0.037303-0.050612 0.069809-0.10498 0.094856-0.16253l0.0010653 5.36e-4c-0.019717 0.048496-0.052225 0.10551-0.095922 0.162"/>
	<path fill="#b0cdec" d="m30.896 17.113c0 0.0032024-5.36e-4 0.0064068-5.36e-4 0.0085373-0.0010662 0.012783 0.0016003 0.022377 0 0.03516 0-0.014914 0-0.029306 5.36e-4 -0.043697"/>
	<path fill="#b0cdec" d="m15.946 23.304c-1.2006 5.379e-4 -2.3576-0.08473-3.4644-0.22861 0.49401 0.64642 1.004 1.2443 1.5209 1.7986 0.63789 0.042625 1.2827 0.071947 1.9435 0.072468h0.0015974c0.66081-5.207e-4 1.3072-0.029842 1.9451-0.072468 0.51692-0.55423 1.0269-1.1521 1.5209-1.7986-1.1069 0.14388-2.2649 0.22915-3.466 0.22861h-0.0015973z"/>
	<path fill="#dee454" d="m14.003 24.874c-0.51745-0.55421-1.0274-1.1521-1.5209-1.7986-0.67306-0.88196-1.3179-1.8444-1.9137-2.8777-0.59952-1.0365-1.1031-2.0789-1.5316-3.1068-0.31069-0.7482-0.58567-1.4879-0.80576-2.2094-0.27285-0.89689-0.47376-1.7639-0.60432-2.5894-0.45724 0.17533-0.89848 0.35971-1.3014 0.56062-0.085265 0.042625-0.1652 0.085804-0.24674 0.12897 0.23981 1.3163 0.63469 2.6997 1.1815 4.1098 0.28351 0.73167 0.60698 1.4703 0.97096 2.2094 0.28191 0.5734 0.5846 1.1463 0.91394 1.7181 0.3288 0.56968 0.67466 1.1132 1.029 1.6424 0.4615 0.68959 0.94165 1.3429 1.4367 1.9574 0.94804 1.1772 1.9478 2.2089 2.9662 3.0743 0.45191-0.28457 0.91074-0.61657 1.3712-0.99067-0.013321-0.010668-0.026645-0.020264-0.039968-0.030916-0.63789-0.51905-1.2768-1.1255-1.9051-1.7975"/>
	<path fill="#dee454" d="m7.4417 10.118c0.0010653-2.3245 0.70663-3.9046 1.8535-4.5489l-0.4098-0.71196 0.41034 0.71037c0.44977-0.25847 0.95817-0.38797 1.5497-0.38849 1.0466-0.0074644 2.3533 0.43964 3.7314 1.3094 0.098054-0.083137 0.19557-0.17267 0.2947-0.25313 0.35705-0.28937 0.71676-0.55156 1.0765-0.80044-1.7192-1.1873-3.4548-1.8908-5.1026-1.8993-0.83667-5.367e-4 -1.6515 0.19291-2.372 0.60965h5.321e-4c-1.8929 1.1084-2.6763 3.3685-2.6752 5.9728 0 0.37304 0.018117 0.75674 0.04956 1.1479 0.50839-0.24141 1.0477-0.46311 1.6147-0.6656-0.0063934-0.15988-0.021315-0.32721-0.021315-0.4823"/>
	<path fill="#dee454" d="m26.047 22.915c-0.50839 0.24141-1.0477 0.46257-1.6147 0.66562 0.0063953 0.1604 0.021316 0.32827 0.021316 0.48334-0.0015984 2.323-0.70717 3.903-1.8535 4.5484-0.44924 0.25899-0.95764 0.38796-1.5502 0.38957-1.0472 0.0074482-2.3533-0.44019-3.7309-1.3094-0.098587 0.083656-0.19611 0.17318-0.29469 0.25312-0.35758 0.28991-0.71676 0.5521-1.0765 0.7999 1.7192 1.1868 3.4548 1.8902 5.1021 1.8993h0.0063953c0.83454 0 1.6467-0.19343 2.3661-0.60964 1.8924-1.1095 2.6752-3.3685 2.6741-5.9712-5.321e-4 -0.3741-0.018118-0.75726-0.049559-1.149"/>
	<path fill="#dee454" d="m17.892 9.3082c0.51745 0.55369 1.0274 1.1516 1.5214 1.7991 0.67306 0.8825 1.3184 1.8449 1.9142 2.8777 0.59952 1.036 1.1031 2.0784 1.531 3.1053 0.31122 0.74766 0.58566 1.4884 0.80522 2.21 0.27338 0.89689 0.47375 1.7645 0.60485 2.5894 0.4567-0.17532 0.89795-0.35917 1.3008-0.56062 0.085262-0.04209 0.1652-0.085789 0.2478-0.12897-0.24034-1.3163-0.63576-2.6997-1.182-4.1103-0.28351-0.73116-0.60752-1.4692-0.97149-2.2094-0.28191-0.57235-0.5846-1.1452-0.91393-1.717-0.32881-0.56968-0.67466-1.1138-1.029-1.6424-0.46096-0.68959-0.94058-1.3429-1.4362-1.9574-0.94751-1.1766-1.9472-2.2084-2.9656-3.0743-0.4519 0.28511-0.91074 0.61657-1.3712 0.99066 0.012792 0.010669 0.02558 0.01919 0.038371 0.030379 0.63842 0.51959 1.2774 1.1255 1.9057 1.798"/>
	<path fill="#454545" d="m37.052 23.692v-10.009h1.9542l0.29523 1.2577c1.1505-0.83826 2.2915-1.2577 3.4229-1.2577 1.2577 0 2.1508 0.45724 2.6779 1.3728 1.2779-0.91553 2.4759-1.3728 3.5939-1.3728 2.1103 0 3.1649 1.2678 3.1649 3.8039v6.2052h-2.526v-6.3011c0-1.1116-0.47003-1.668-1.4111-1.668-0.74927 0-1.5348 0.43219-2.3539 1.2966v6.6725h-2.5265v-6.2729c0-1.1308-0.46363-1.6962-1.3914-1.6962-0.80096 0-1.5923 0.43219-2.3741 1.2966v6.6725h-2.526z"/>
	<path fill="#454545" d="m53.73 18.687c0-3.4005 1.6845-5.1005 5.0525-5.1005 3.3685 0 5.053 1.7 5.053 5.1005 0 3.3936-1.6845 5.0903-5.053 5.0903-3.3552 0-5.0402-1.6968-5.0525-5.0903m5.0525 3.0983c1.684 0 2.5265-1.0456 2.5265-3.1367 0-2.0405-0.84253-3.0605-2.5265-3.0605-1.684 0-2.5265 1.02-2.5265 3.0605 0 2.0911 0.84253 3.1367 2.5265 3.1367"/>
	<path fill="#454545" d="m74.793 13.682v10.009h-1.9734l-0.30429-1.2779c-1.214 0.85266-2.4338 1.2779-3.6611 1.2779-2.3006 0-3.4506-1.2422-3.4506-3.7266v-6.2825h2.526v6.3102c0 1.1063 0.54623 1.6589 1.6398 1.6589 0.88356 0 1.7826-0.42206 2.6981-1.2673v-6.7019h2.5255z"/>
	<path fill="#454545" d="m76.981 23.215v-2.0975c1.1122 0.44497 2.3965 0.66827 3.8513 0.66827 1.0871 0 1.6302-0.35013 1.6302-1.0493 0-0.63523-0.36504-0.95391-1.0962-0.95391h-1.8108c-2.0336 0-3.0509-1.0163-3.0509-3.0498 0-2.097 1.4836-3.1458 4.4519-3.1458 1.2593 0 2.4429 0.19078 3.5556 0.57181v2.0975c-1.1127-0.44497-2.3197-0.66773-3.6216-0.66773-1.3664 0-2.0501 0.35011-2.0501 1.0493 0 0.6347 0.39702 0.95284 1.1921 0.95284h1.62c2.2249 0 3.3365 1.0168 3.3365 3.0498 0 2.0981-1.4175 3.1463-4.2515 3.1463-1.3925-1e-7 -2.6443-0.19078-3.7565-0.57183"/>
	<path fill="#454545" d="m95.013 19.669h-6.5494c0 1.3477 1.0989 2.0208 3.2982 2.0208 1.0104 0 2.0213-0.095936 3.0322-0.28564v2.0016c-0.88463 0.19024-2.0219 0.28563-3.4138 0.28563-3.6286 0-5.4426-1.7064-5.4426-5.1191 0-3.2598 1.6616-4.89 4.9848-4.89 3.3174 0 4.6811 1.9957 4.0906 5.9867m-6.5494-1.8492h4.1753c0.088463-1.4362-0.57874-2.1545-2.0032-2.1545-1.3339 0-2.0581 0.71837-2.1721 2.1545"/>
	<path fill="#454545" d="m96.714 23.739v-10.543c0-2.421 1.4996-3.6318 4.4999-3.6318 0.81961 0 1.5635 0.12683 2.2302 0.38104v2.0021c-0.62884-0.25473-1.376-0.3821-2.2398-0.3821-1.3094 0-1.9638 0.70665-1.9638 2.1167h3.0024v2.0016h-3.0024v8.0171l-2.5265 0.038364z"/>
	<rect fill="#454545" x="104.75" y="10.059" width="2.5254" height="13.632"/>
	<path fill="#454545" d="m108.85 18.687c0-3.4005 1.6845-5.1005 5.0536-5.1005 3.3669 0 5.0514 1.7 5.0514 5.1005 0 3.3936-1.6845 5.0903-5.0514 5.0903-3.3563 0-5.0413-1.6968-5.0536-5.0903m5.0536 3.0983c1.684 0 2.5255-1.0456 2.5255-3.1367 0-2.0405-0.84147-3.0605-2.5255-3.0605-1.6851 0-2.5276 1.02-2.5276 3.0605 0 2.0911 0.84253 3.1367 2.5276 3.1367"/>
	<polygon fill="#454545" points="119.57 13.682 122.11 13.682 123.6 20.46 125.82 13.682 127.98 13.682 130.39 20.46 131.7 13.682 134.33 13.682 131.63 23.692 129.25 23.692 126.9 16.781 124.52 23.692 122.1 23.692"/>
</svg> 
