<?xml version="1.0" encoding="utf-8"?>
<svg enable-background="new 0 0 400 400" version="1.1" viewBox="0 0 400 400" xml:space="preserve" width="400px" height="400px" xmlns="http://www.w3.org/2000/svg">
	<style type="text/css">
		.dark-shade{fill:#bbbfc3;}
		.clear{fill:#fff;}
		.shade{fill:#dfe1e3;}
		svg{fill:#253746;}
	</style>
	<polygon class="dark-shade" points="396.74 227.14 285.95 318 233.39 254.17 233.39 254.17 227.27 246.73 227.26 246.73 220.3 238.27 219.92 237.8 219.59 237.4 219.58 237.4 219.57 237.39 214.84 231.64 211.76 227.89 206.96 222.07 200.25 213.91 198.78 212.12 200.15 211 200.19 210.96 200.19 210.96 202.77 208.85 204.1 207.76 204.1 207.75 204.53 207.41 208.24 204.36 208.31 204.3 210.42 202.58 221.32 193.64 222.14 192.96 224.12 191.34 225.56 190.16 244.83 174.36 248.37 171.46 248.37 171.45 253.2 167.5 294.94 133.26 294.94 133.25 299.71 129.35 299.71 129.35 301.35 128.01 304.05 125.79 304.13 125.73 306.22 124.01 307.46 122.99 309.56 121.27 314.31 127.03 314.32 127.04 321.85 136.18 322.01 136.38 328.12 143.81 348.39 168.42 348.39 168.42 351.07 171.67 354.73 176.12 390.78 219.91 393.31 222.96"/>
	<path class="clear" d="m358.76 169.32l-3.6559-4.4418-2.6819-3.2571-5.5702-6.7641-6.1146-7.4254-0.16568-0.20256-7.5283-9.1434-21.164-25.703-4.5116 3.6993-4.8599 3.9861h-0.0033875l-0.78799 0.65144-0.45319 0.37133-2.0934 1.7146-0.071045 0.060692-2.6075 2.1366-0.10138 0.084389-44.216 36.261-4.8261 3.9592-3.5409 2.9027v0.0033569l-20.941 17.173-4.2444 3.4799-13.159 10.791-1.3934 1.1441-0.71024 0.5806-2.2659 1.8597 3.436 4.1719 0.1996 0.2464 0.43961 0.52989 1.0755 1.3096 0.36191 0.43881 2.1678 2.6327 4.772 5.7953 4.7957 5.8257 4.9816 6.0484 5.4552 6.6256 1.8263 2.2175 0.6933 0.84042 7.0143 8.519 0.33482 0.4084 13.474 16.363v0.0033569l0.0032959 0.0033569 36.143 43.896 105.04-86.15 5.746-4.7118-40.293-48.934-0.0023805-6.563e-4zm32.028 50.588l-99.749 53.138-1.2354 2.0841-16.281-19.773v-0.0033569l-7.3527-8.9245-11.411-13.862-1.3866-1.6809-4.0685-4.9448-0.67976-0.82358-4.9782-6.045-2.5264-3.0715-3.0438-3.6959-5.4889-6.6661-1.8769-2.2817-8.5629-10.395-0.91313-1.1104 1.9784-1.6202 1.6335-1.3433 19.71-16.164 3.5444-2.9061v-0.003418l4.8261-3.9558 42.43-34.799h0.003418l0.78467-0.64465 3.8824-3.1862 0.10144-0.081032v-0.0033569l2.6075-2.1365 0.070984-0.06076 3.338-2.734 0.49042-0.40169 4.5623-3.7432 11.41 13.859 7.5316 9.1434 0.0033569 0.0033569 0.16232 0.19919 6.1146 7.4254 0.0033569 0.0033569 13.755 16.708 2.6819 3.2571 3.6559 4.4418 36.816 44.712-2.5432 2.0859-0.0011901 1.983e-4z"/>
	<polygon class="shade" points="311.26 118.01 393.4 217.76 305.34 289.97 223.21 190.22"/>
	<polygon class="dark-shade" points="358.76 169.32 356.56 173.02 356.51 173.1 354.73 176.12 294.84 277.23 293.46 279.56 289.05 287 252.13 265.22 252.12 265.22 252.12 265.22 252.12 265.21 233.39 254.17 233.39 254.17 227.26 246.73 220.3 238.27 219.92 237.8 200.57 234.19 200.04 234.49 199.51 234.17 199.05 233.9 192.64 230.12 188.45 227.65 188.45 227.65 181.95 223.82 170.85 217.27 171.78 215.7 171.78 215.7 173.49 212.82 174.36 211.35 174.36 211.35 174.64 210.88 177.13 206.67 178.52 204.32 185.7 192.21 186.24 191.29 187.55 189.08 188.49 187.49 201.18 166.06 203.52 162.12 206.7 156.76 234.19 110.33 237.33 105.03 238.41 103.22 240.19 100.2 240.24 100.12 241.62 97.797 242.43 96.414 242.44 96.414 243.82 94.071 250.26 97.871 260.47 103.89 260.7 104.03 260.7 104.03 268.99 108.92 268.99 108.92 296.39 125.08 296.46 125.13 300.02 127.23 300.1 127.28 301.35 128.01 305.06 130.2 328.12 143.81 336.42 148.7 336.42 148.7 336.64 148.83 346.85 154.86 353.95 159.04 353.95 159.04 357.36 161.06 355.1 164.87"/>
	<path class="clear" d="m333.04 138.08h-0.0034485l-10.214-6.0282h-0.0033875l-0.2164-0.12823-8.2891-4.8908-0.0068054-0.0033569-6.8481-4.0402-0.94696-0.55691-0.27057-0.16207-0.10144-0.060684-3.6357-2.1467h-0.0033569l-0.9469-0.5569-3.6357-2.1466-7.5484-4.452-0.0034485-0.0033569h-0.0033569l-8.2857-4.8907h-0.0034485l-0.21976-0.13165-10.214-6.0248h-0.0067749l-0.0033875-0.0033646-28.682-16.923-2.9694 5.0157-3.2027 5.4071-0.81842 1.3805v0.0033493l-1.3799 2.3256-0.047348 0.081039-1.718 2.8993-0.067658 0.11474-29.119 49.164-3.179 5.3667-2.3336 3.9389-13.792 23.286-2.7969 4.722-8.6678 14.632-1.3866 2.3391-1.4915 2.5213 4.657 2.7474 0.27393 0.162 2.0528 1.2118 3.4293 2.0218 6.4731 3.8208 6.5035 3.8343 6.754 3.9861 7.3964 4.3642 3.4124 2.0116 8.6443 5.1 0.010147 0.0067749 0.84883 0.49951 0.45999 0.27344h0.0034332l17.407 10.271h0.0034332l0.37531 0.22275 0.47696 0.28352h0.0067139l49.011 28.916 1.62-2.734 1.3865-2.3391 59.888-101.12 1.7823-3.0108 0.047272-0.080978 2.1983-3.7095 2.2625-3.8174 3.7844-6.3927-28.108-16.583-7.017e-4 0.0028686zm19.379 23.536l-2.1983 3.7094-0.047241 0.081024-1.7823 3.0107-38.247 64.572-12.476 21.062-19.193-11.324-0.50055 2.6699-18.164-10.716-0.0067749-0.0067902h-0.0033875l-3.8993-2.2986-2.5331-1.4919-7.4334-4.3878-15.476-9.1266-1.8736-1.1072-5.5228-3.2571-0.91992-0.5434-0.0067902-0.003418-6.7405-3.9794-3.4294-2.0218-3.6525-2.1534-0.47345-0.28017-4.4845-2.6462-5.5058-3.247-11.607-6.8486-1.2411-0.73241 1.302-2.1973 1.0789-1.8226 12.98-21.916 2.3336-3.9389v-0.0033569l3.179-5.3633 12.165-20.535 15.784-26.644v-0.0067062l3.0742-5.1912 0.067612-0.11138v-0.0033569l0.37544-0.63115 1.3426-2.2648 0.047424-0.081032 2.1983-3.7127 0.32129-0.54012v-0.0033493l3.0065-5.073 15.465 9.1233 10.214 6.0249 0.0033569 0.0033493 0.22321 0.13166 8.2891 4.8907 18.655 11.006 1.9886 1.1712 1.647 0.97208 1.9886 1.1713 1.3189 0.77966 1.6538 0.97543 16.304 9.6194 8.2924 4.8908 0.2164 0.12823 10.217 6.0282 14.888 8.7822-1.6775 2.8285v0.0033569l-1.5252 2.5753v9.459e-4z"/>
	<polygon class="shade" points="244.3 90.433 355.67 156.13 297.67 254.05 186.3 188.35"/>
	<polygon class="dark-shade" points="306.51 122.43 306.51 122.44 306.22 124.01 305.72 126.67 305.71 126.76 305.06 130.2 283.43 245.65 282.94 248.33 281.35 256.81 277.43 256.09 273.52 255.35 273.52 255.35 239.17 248.94 239.16 248.94 238.64 248.85 227.27 246.73 227.26 246.73 220.3 238.27 219.92 237.8 200.57 234.19 200.04 234.49 199.51 234.17 179.57 237.48 179.57 237.48 179.1 237.74 178.58 237.64 171.25 236.27 146.38 231.63 147.32 226.56 147.64 224.87 147.64 224.87 147.74 224.33 148.64 219.52 149.14 216.85 151.93 201.96 152.4 199.45 157.33 173.17 158.17 168.67 159.32 162.53 169.25 109.53 169.25 109.53 170.39 103.46 170.39 103.46 170.77 101.4 171.41 97.958 171.43 97.864 171.93 95.206 172.22 93.628 172.72 90.963 180.07 92.332 180.07 92.332 191.73 94.508 191.99 94.555 201.46 96.32 232.75 102.16 232.83 102.17 232.83 102.17 232.84 102.17 236.9 102.93 236.99 102.95 238.41 103.22 242.65 104.01 268.99 108.92 268.99 108.92 278.46 110.69 278.71 110.73 290.36 112.9 290.37 112.9 290.37 112.91 298.47 114.42 302.38 115.15 301.56 119.51 302.5 120.07 302.5 120.07"/>
	<path class="clear" d="m271.64 101.86h-0.0068054l-2.0765-0.38812-9.578-1.7889h-0.0034485l-0.2536-0.047256-9.4663-1.7652-7.8188-1.4582h-0.0033569l-1.0823-0.20248-0.42271-0.080971-4.1531-0.77296-1.0822-0.20255-4.1531-0.77631h-0.0033569l-8.6174-1.6066-9.4663-1.7653-0.25362-0.047195h-0.0034332l-11.664-2.1771-32.765-6.1126-1.0721 5.7312-1.1566 6.17-0.29425 1.5729-0.50056 2.6631v0.0033569l-0.016876 0.091103-0.6189 3.3044v0.0033646l-0.023682 0.13165-10.514 56.137-1.1499 6.1328-0.8421 4.4992-9.1179 48.684-0.50049 2.6698-0.53777 2.8791 5.3165 0.99228 0.31448 0.057449 2.3403 0.43874h0.0033569l26.447 4.9346 8.4445 1.5728 3.896 0.72911 9.8652 1.8395 0.98082 0.1857h0.013519l0.52081 0.097824 19.348 3.6081 0.52081 0.097885 0.99097 0.18564h0.0033569l9.8619 1.8395h0.0033722l34.872 6.5075 3.9129 0.72905h0.003418l7.3083 1.3636 0.58505-3.1221 0.50058-2.6699 21.235-113.38v-0.0033569l0.38889-2.069 0.023682-0.1283v-0.0033646l0.6189-3.3078 0.020325-0.091103 0.49713-2.6563v-0.003418l0.29431-1.5762 0.81842-4.3608 1.3663-7.3005-32.098-5.9877 4.272e-4 -4.575e-4zm26.278 15.503l-0.79144 4.2359h-0.0033569l-0.016937 0.09446-0.6189 3.3078-0.023621 0.12824-1.1093 5.927v0.0033417h-0.003418l-0.40921 2.1973v0.0033722l-16.795 89.648-21.742-4.0874 0.27393 2.6799-9.1246-1.7011-3.9129-0.72905-7.7038-1.4379h-0.0033722l-4.4642-0.83369-2.8848-0.5367-8.4922-1.5863h-0.0034332l-11.32-2.1095-6.3479-1.1848h-0.0034332l-2.1408-0.40169-0.084549-0.016846h-0.0033722l-6.2127-1.1577-1.0586-0.19576h-0.0067444l-11.61-2.1703-4.17-0.77631-5.658-1.0565h-0.0034485l-6.287-1.1712-13.254-2.4741-1.4136-0.26324 0.47009-2.5113 5.0763-27.103 0.84216-4.4993 1.1499-6.1294 10.089-53.879v-0.0033569l1.1127-5.9269 0.023682-0.1283v-0.0067062l0.6189-3.301 0.016892-0.094521 0.79482-4.2359 0.11496-0.62102 1.0856-5.7953 17.664 3.2942h0.0034332l11.657 2.1771 0.25703 0.047272 9.4663 1.7652 21.3 3.9761h0.0033722l2.2693 0.42197 1.8838 0.35099 2.2659 0.42531h0.0033722l1.5051 0.28009 1.8871 0.35106 18.621 3.4765h0.0033875l9.4629 1.7653 0.25369 0.047195h0.0033569l11.654 2.1737h0.0034485l16.998 3.1728-0.60538 3.2301-0.55121 2.9432-0.0010681 0.0022584z"/>
	<rect class="shade" transform="matrix(.1834 -.98304 .98304 .1834 31.259 347.91)" x="168.16" y="90.46" width="113.75" height="129.36"/>
	<polygon class="dark-shade" points="263.76 231.08 259.83 231.73 259.83 231.73 257.67 232.08 255.9 232.37 254.76 232.57 228.78 236.86 221.43 238.08 221.42 238.08 220.9 238.17 220.9 238.17 220.3 238.27 219.92 237.8 200.57 234.19 200.04 234.49 199.51 234.17 179.57 237.48 179.57 237.48 179.1 237.74 161.81 247.47 161.49 247.65 161.49 247.65 161.15 248.05 160.62 248.14 160.62 248.14 128.29 253.49 127.45 248.39 127.08 246.16 125.83 238.65 123.35 223.71 122.93 221.19 107.94 130.94 107.94 130.94 106.93 124.85 106.59 122.78 106.01 119.33 105.99 119.23 105.56 116.57 105.56 116.57 105.29 114.98 104.84 112.3 112.22 111.08 112.22 111.08 123.93 109.14 123.93 109.14 124.18 109.1 124.18 109.1 133.69 107.53 165.08 102.34 165.17 102.32 165.18 102.32 169.26 101.64 169.35 101.63 170.77 101.4 175.03 100.69 201.46 96.32 210.96 94.749 211.22 94.709 211.22 94.709 222.92 92.769 231.05 91.426 231.05 91.426 234.97 90.775 235.7 95.152 236.77 95.354 241.36 96.206 241.62 97.797 242.06 100.46 242.06 100.46 242.08 100.55 242.65 104.01 252.17 161.34 252.92 165.85 253.2 167.5 261.89 219.88 262.34 222.56"/>
	<path class="clear" d="m256.85 221.5l-0.44305-2.6799-7.87-47.365v-0.0033722l-0.27055-1.637v-0.003418l-0.75073-4.5093-10.011-60.279-0.34497-2.0758-0.023666-0.12823v-0.0033569l-0.5513-3.3213-0.013504-0.091171-0.44304-2.6664v-0.0033493l-0.2637-1.583-0.72719-4.3743-1.2175-7.3273-32.217 5.3295-11.698 1.9374h-0.0033417l-0.25368 0.040482h-0.0033722l-9.5033 1.5729h-0.0033417l-7.8465 1.2995-1.0856 0.17886-0.42618 0.0709-4.17 0.68856-1.0822 0.17884-4.1699 0.68856v0.0033646l-8.6443 1.4278h-0.0033569l-9.51 1.5728-0.25026 0.043907-11.702 1.934-32.886 5.4409 0.95369 5.748 1.0315 6.197 0.2604 1.583 0.44304 2.6698 0.016892 0.091103 0.55128 3.3247 0.020309 0.12823 19.243 115.87 0.92665 5.5726 5.3368-0.88428 2.665-0.4388 38.934-6.4434 9.9056-1.637 0.98418-0.162 0.0033722-0.0033569 19.944-3.301 0.52087-0.084305h0.013443l0.98424-0.16542h0.0033722l9.8989-1.637 3.9129-0.64803 8.4754-1.4042 22.615-3.7397 3.3651-0.55696 0.56137-0.09111 2.3504-0.39154h0.0034485l4.985-0.82349-0.52078-3.1323-4.879e-4 8.235e-4zm-150.44-92.018v-0.0034332l-0.9909-5.9505-0.020325-0.13502-0.55128-3.3213-0.016884-0.087753-0.70682-4.2528-1.0687-6.44 17.728-2.9331 11.705-1.9374h0.0033722l0.24687-0.040482 9.5067-1.5729h0.0033569l21.374-3.5373h0.0033569l2.2727-0.37469 1.8972-0.31386 2.2727-0.37463 1.5118-0.24982 1.8939-0.31387 18.688-3.0917 9.5-1.5729 0.26041-0.040482h0.0067902l11.695-1.9374 17.055-2.8217 0.5377 3.2437 0.4904 2.9499 0.70688 4.2528 0.013474 0.094528h0.0034332l0.55127 3.3213 0.020264 0.12823v0.003418l0.98752 5.9506h0.0034332v0.0033493l0.36522 2.204 8.5158 51.26 1.0991 6.6121v0.0033722l0.74738 4.5093v0.003418l0.274 1.6369 4.3086 25.949-16.314 2.7002-5.8475 0.93832 1.505 2.3695-9.1549 1.5155h-0.0034332l-3.923 0.64801-7.7348 1.2792h-0.0034332l-1.0551 0.17557-3.426 0.56696-2.8983 0.47929-0.13528 0.023636-8.3839 1.3873-11.367 1.88-8.6073 1.4244h-0.0033417l-7.2948 1.2049-11.661 1.9306-4.1835 0.69192-5.6817 0.93831-19.612 3.2437-1.4204 0.23628-0.41936-2.5179-15.27-91.937 7.403e-4 -0.0010375z"/>
	<rect class="shade" transform="matrix(.98659 -.16321 .16321 .98659 -22.898 30.802)" x="111.32" y="97.882" width="129.36" height="113.75"/>
	<polygon class="dark-shade" points="238.41 212.9 234.94 214.85 233.03 215.92 231.47 216.8 230.46 217.37 218.34 224.19 211.76 227.89 207.52 230.28 201.03 233.92 201.03 233.92 200.57 234.19 200.04 234.49 199.51 234.17 179.57 237.48 179.57 237.48 179.1 237.74 161.81 247.47 161.49 247.65 161.49 247.65 161.15 248.05 147.34 264.14 147.34 264.14 118.8 280.2 115.14 273.72 115.14 273.72 111.4 267.09 102.68 251.68 53.603 164.78 51.881 161.73 51.834 161.65 49.714 157.89 48.378 155.53 54.882 151.87 54.885 151.87 65.223 146.05 65.45 145.92 73.839 141.2 73.839 141.2 101.57 125.6 101.65 125.56 105.25 123.53 105.33 123.48 106.59 122.78 110.35 120.66 133.69 107.53 142.08 102.81 142.08 102.81 142.3 102.68 142.3 102.68 152.64 96.864 152.65 96.864 159.82 92.829 159.82 92.829 163.27 90.889 165.46 94.749 166.54 94.568 171.14 93.809 171.93 95.206 173.26 97.562 173.3 97.65 175.03 100.69 203.63 151.33 205.88 155.31 206.7 156.76 222.86 185.38 224.84 188.88 224.84 188.89 225.56 190.16 230.83 199.49 230.84 199.5 230.84 199.5 232.82 203.01 234.16 205.38 238.07 212.31"/>
	<path class="clear" d="m228.48 206.32l-1.3359-2.3695-5.8237-10.308-2.6989-4.7759-15.104-26.742-0.81842-1.4446v-0.0033569l-2.249-3.9828-30.066-53.228v-0.0033646l-1.0349-1.826-0.067612-0.11481v-0.0067139l-1.6538-2.9264-0.047363-0.081032-1.3325-2.3626-0.78801-1.394-2.1847-3.8612-3.6525-6.4704-28.443 16.002-10.339 5.8155-0.0034332 0.0034256-0.22321 0.12488-8.3873 4.7186h-0.0034256l-6.9295 3.9018-0.96049 0.53999-0.37543 0.21268h-0.0033722l-3.6762 2.069-0.96049 0.54005-3.6829 2.0724-7.6366 4.2967-8.394 4.7219-0.22663 0.12831-10.335 5.8155-29.031 16.333 5.9557 10.545 2.1239 3.7566 0.043945 0.080963 1.7215 3.0479 57.794 102.32 2.78 4.9211 4.7111-2.6529h0.0033569l45.474-25.585 0.0067291-0.003418 0.86577-0.48935h0.0034485l0.31448-0.17894 17.292-9.7275 0.46327-0.25996 0.0033722-0.0033569 0.87593-0.4928 8.7425-4.9177 3.453-1.9442 7.4845-4.2089 6.8387-3.8478 6.5813-3.7026 6.5475-3.6857h0.003418l2.9694-1.6708 0.49715-0.28017 2.0765-1.1678 4.4034-2.4775-1.5625-2.7643-7.59e-5 -0.0031737zm-127.05 46.062l-48.826-86.439-1.7214-3.0445-0.047363-0.080963v-0.0033569l-2.1205-3.7533-3.2128-5.6873 15.655-8.809 10.339-5.8156 0.22656-0.12488 8.3907-4.7219 18.868-10.618h0.0033569l2.0123-1.1307 1.6707-0.94167 2.0089-1.1307 1.3359-0.74931 1.6673-0.94167 16.494-9.2783 0.0033722-0.0033569 8.3907-4.7186 0.22321-0.12488 0.0034332-0.0033493 10.335-5.8156 15.067-8.4754 1.6166 2.8656h0.003418l1.4711 2.6057v0.0033569l2.1205 3.7533 0.047363 0.081032 1.6538 2.9297v0.0033646l0.016892 0.026978 0.050705 0.087753 2.966 5.2519v0.0033646l1.1026 1.9475v0.003418l28.868 51.101 2.2491 3.9862 0.81842 1.448 12.943 22.911-13.7 7.7094h-0.0033569l-0.7001 0.3949h-0.003418l-1.8668 1.0531-3.1012 1.7449-0.047348 0.027069-9.9291 5.5861h-0.0033722l-3.4665 1.9509-6.3919 3.598-0.55127 0.3105-3.3549 1.8868-6.517 3.6655-14.089 7.9282h-0.0033569l-3.0708 1.7281-2.1881 1.232-19.304 10.861-5.0188 2.8216-18.127 10.2-1.2547 0.7054-0.0014344-0.0019229z"/>
	<polygon class="shade" points="45.462 153.29 158.16 89.89 214.12 188.97 101.43 252.38"/>
	<polygon class="dark-shade" points="208.36 204.46 205.77 207.49 205.16 208.18 204.34 209.14 203.18 210.5 202.43 211.38 202.42 211.38 200.25 213.91 193.37 221.93 188.45 227.65 188.45 227.65 185.29 231.34 180.44 236.99 179.57 237.48 179.57 237.48 179.1 237.74 121.11 305.21 17.077 215.51 52.602 165.94 52.605 165.94 53.603 164.78 73.839 141.2 73.839 141.2 80.115 133.9 80.276 133.71 80.276 133.7 87.999 124.71 93.36 118.47 95.944 115.46 99.314 118.34 100.28 117.8 103.96 115.74 103.96 115.74 104.33 115.52 105.56 116.57 105.56 116.57 107.62 118.33 107.68 118.38 110.35 120.66 154.57 158.48 158.05 161.46 159.32 162.53 184.32 183.91 187.38 186.53 188.49 187.49 196.65 194.45 196.65 194.46 199.72 197.08 199.72 197.08 204.07 200.8 207.84 204.02 208.24 204.36"/>
	<path class="clear" d="m194.7 199.91l-9.0028-7.6986-4.1733-3.5677-23.359-19.971-1.2615-1.0801-3.4835-2.9769-46.492-39.754-1.5996-1.3703-0.1015-0.087746-2.5601-2.1906-0.071053-0.057411-2.0596-1.7619-1.2209-1.0429-3.3752-2.8859-5.6513-4.8333-21.249 24.754-7.7146 8.9883-0.0033607 0.0033722-0.16569 0.18906-6.2736 7.3072-0.0033607 0.0033569-5.1677 6.0215-0.99769 1.1645h-0.0033607l-2.7461 3.1998-45.011 52.435 108.9 93.112 37.486-43.666 0.003418-0.0033569 13.805-16.083 0.34496-0.40503h0.0034332l7.1798-8.3673 2.5805-3.0039 5.5904-6.5109 5.1068-5.9472 4.914-5.7244 4.8937-5.7008 2.2185-2.5855 0.37206-0.43202 0.0033722-0.0033569 1.5489-1.8058 3.284-3.8275-4.4845-3.8343-0.0016638 9.917e-4zm-67.254 48.492l-16.051 18.696-3.7472 4.3642-14.478 16.866-86.483-73.945 41.446-48.283 2.7462-3.1998h0.0033684l0.99769-1.1644 13.568-15.806 6.2735-7.3038 0.16232-0.19235 7.718-8.9917 11.252-13.106 2.5026 2.1399 2.2761 1.9475 3.2805 2.8048 0.067619 0.057335h0.0033569l2.5635 2.194 0.098084 0.08432 4.5927 3.9254 1.7011 1.4547v0.003418l44.639 38.167 3.4834 2.977 1.2615 1.0801 20.014 17.113-10.231 11.918-1.9243 2.2412-9.767 11.378-2.5906 3.0175-4.772 5.5591-0.41257 0.47922-0.0034332 0.0034332-2.5026 2.9162-15.395 17.933-2.293 2.6732-0.0010834-0.0016786z"/>
	<path d="m109.92 308.76l-0.5136-0.43933-109.41-93.555 90.217-105.09 109.92 93.992-52.306 60.932-37.909 44.159 3.281e-4 0.0016174zm-108.02-94.14l107.87 92.233 50.854-59.24 0.55077-0.64108 37.05-43.16-107.87-92.233-88.454 103.04-4.825e-4 -0.0013886z"/>
	<polygon class="shade" points="6.6202 214.32 90.79 116.27 177.34 190.27 93.17 288.32"/>
	<path d="m93.226 289.04l-0.38525-0.32962-86.934-74.334 0.3301-0.38428 84.499-98.43 87.324 74.663-0.33009 0.38428-84.499 98.43-0.0049286 6.409e-4zm-85.891-74.777l85.783 73.347 83.51-97.275-85.783-73.347c5e-7 0-83.51 97.275-83.51 97.275z"/>
	<polygon points="162.14 248.06 161.48 246.88 229.12 208.82 199.86 157.02 169.71 103.64 159.37 85.337 99.65 118.93 98.984 117.76 159.88 83.497 230.96 209.34"/>
	<polygon points="195 200.32 194.5 199.44 213.43 188.78 157.96 90.58 102.83 121.6 102.33 120.71 158.34 89.197 214.82 189.17"/>
	<polygon points="179.68 238.14 179.57 237.48 179.08 237.01 179.24 236.85 179.46 236.81 256.42 224.08 233.2 84.229 165.57 95.414 165.35 94.078 234.31 82.671 257.98 225.19"/>
	<polygon points="227.11 204.46 226.95 203.46 248.55 199.89 230.08 88.673 167.9 98.966 167.73 97.965 230.92 87.512 249.72 200.73"/>
	<polygon points="278.56 223.5 256.14 219.32 256.33 218.32 277.74 222.32 298.5 111.51 236.29 99.899 236.48 98.905 299.69 110.69"/>
	<polygon points="277.93 249.31 199.92 234.76 200.04 234.13 200.03 233.41 200.17 233.43 231.42 239.26 276.85 247.73 277.81 242.61 299.05 129.22 302.95 108.38 271.58 102.54 271.37 102.54 271.32 102.48 235.57 95.817 235.82 94.487 271.96 101.23 304.53 107.3"/>
	<polygon points="288.42 278.79 220.09 238.48 220.78 237.31 221.24 237.59 287.94 276.94 290.6 272.45 352.32 168.24 360.22 154.9 301.21 120.09 301.9 118.93 323.17 131.47 362.07 154.43"/>
	<polygon points="297.85 254.74 278.25 243.18 278.76 242.31 297.49 253.36 354.97 156.31 300.55 124.2 301.06 123.33 356.36 155.96 356.11 156.39"/>
	<polygon points="305.27 290.69 290.82 273.14 291.61 272.5 305.41 289.27 392.68 217.69 352.51 168.9 353.29 168.26 394.11 217.83 393.72 218.15"/>
	<polygon points="288.17 310.06 237.78 248.87 238.83 248.01 239.17 248.42 288.36 308.16 398.1 218.16 354.58 165.3 355.63 164.44 400 218.34 393.74 223.48"/>
	<polygon points="45.377 162.58 39.09 151.45 68.713 134.79 69.372 135.96 40.932 151.97 46.556 161.93"/>
	<polygon points="48.083 159.41 44.663 153.35 60.951 144.2 61.449 145.08 46.045 153.74 48.967 158.91"/>
	<polygon points="99.886 117.8 97.733 105.2 131.25 99.489 131.48 100.82 99.294 106.3 101.22 117.57"/>
	<polygon points="103.5 115.72 102.33 108.87 120.77 105.73 120.94 106.73 103.5 109.69 104.51 115.55"/>
	<polygon points="167.2 94.696 165.88 94.447 168.21 82 201.65 88.116 201.41 89.446 169.29 83.571"/>
	<polygon points="171.26 93.695 170.26 93.514 171.51 86.874 189.67 90.258 189.48 91.258 172.32 88.056"/>
	<polygon points="271.28 102.44 243.19 85.854 237.48 95.495 236.32 94.81 242.71 84.007 271.98 101.28"/>
	<polygon points="260.53 100.27 244.48 91.124 241.37 96.387 240.49 95.871 244.12 89.748 261.04 99.395"/>
	<polygon points="332.52 138.51 311.78 113.33 302.93 120.58 302.07 119.54 311.97 111.43 333.56 137.66"/>
	<polygon points="322.43 132.37 311.19 118.72 306.46 122.6 305.82 121.82 311.33 117.3 323.22 131.74"/>
</svg>
