<?xml version="1.0" encoding="UTF-8"?>
<svg enable-background="new 0 0 600 338" version="1.1" width="600px" height="338px" viewBox="0 0 600 338" xml:space="preserve" xmlns="http://www.w3.org/2000/svg">

	<defs>
		<filter id="flame-blur" x="0" y="0">
			<feGaussianBlur in="SourceGraphic" stdDeviation="2" />
		</filter>
	</defs>

	<style type="text/css">
		.clear {fill:#fff;}
		.reflection {fill:#f1f2f3;}
		.shade {fill:#dfe1e3;}
		.dark-shade {fill:#bbbfc3;}
		.turquoise {fill:#00bfb3;}
		svg {fill:#253746;}

		#jet-flame {
			animation: jetFlameShake .33s both infinite;
			opacity: .95;
		}

		@keyframes jetFlameShake {
			from, to {transform: translate3d(0, 0, 0);}
			10%, 30%, 50%, 70%, 90% {transform: translate3d(-2px, 0, 0);}
			20%, 40%, 60%, 80% {transform: translate3d(2px, 0, 0);}
		}
	</style>
	<g id="jet-flame" filter="url(#flame-blur)">
		<path class="dark-shade" d="m243.6 242.1s-0.9 71.4-240.3 80h-0.5c178.1-160.9 228.2-110.2 228.2-110.2"/>
		<path class="dark-shade" d="m3.2 323.3l-3.2-0.3 2-1.8c40.7-36.7 78-65.4 111-85.2 26.4-15.9 50.1-26.1 70.5-30.5 35-7.5 47.9 5 48.4 5.6l-1.7 1.7c-0.1-0.1-12.7-12.2-46.7-4.8-31.3 6.8-87.4 32-177.5 112.9 121.6-4.6 179.5-25.9 206.6-42.9 29.3-18.4 29.8-35.6 29.8-35.8h2.4c0 0.8-0.6 18.7-30.9 37.8-17.6 11.1-41.8 20.2-71.7 27.2-37.5 8.7-84.2 14.2-139 16.1z"/>
		<path class="shade" d="m239.1 238.7s-0.7 54.6-183.9 61.2h-0.4c136.3-123.1 174.6-84.3 174.6-84.3"/>
		<path class="shade" d="m55.1 301.1l-3.1-0.3 2-1.8c55.9-50.5 103.9-81.1 139-88.6 26.9-5.8 36.9 3.9 37.3 4.3l-1.7 1.7c-0.1-0.1-9.7-9.3-35.6-3.6-23.8 5.2-66.5 24.4-135 85.8 177.2-6.9 179.9-59.4 179.9-59.9h2.4c0 0.6-0.4 14.5-23.8 29.1-30.4 19.1-86.2 30.6-161.4 33.3z"/>
		<path class="clear" d="m235.3 237.1s2.5 29.9-113.1 34.1h-0.2c80.1-77 106.1-51.5 106.1-51.5"/>
		<path class="clear" d="m122.2 272.4l-2.8-0.3 1.8-1.8c33.4-32.1 61.5-50.6 83.7-54.9 16.9-3.3 23.8 3.2 24.1 3.4l-1.6 1.7c-0.1-0.1-6.5-6-22.4-2.7-14.6 3-40.2 14.5-79.9 52.1 74.9-3 98.2-17.1 105.5-25.3 3.8-4.2 3.6-7.3 3.6-7.3l2.4-0.2c0 0.2 0.3 4-4.2 9.1-9.4 10.4-36 23.5-110.2 26.2z"/>
	</g>
	<path class="clear" d="m377.2 43.5c2.9-5.1 6.3-8.9 6.3-9 19.3-10.1 53.2-26.9 53.2-26.9s8.2-4.1 12.3-1.3c0 0 3.5-0.5 23.9-3.7 5.1-1.3 12.7 0.6 15 1.2l0.7 0.2s4.7-0.5 7.3 0.2l0.7-0.1c4.3-0.6 26.9-3.8 42-3.6h0.1c3.8 0.1 7.1 0.3 9.4 0.9l1.2 0.3s29.5 3.4 43.2 9.7c2 1.2 3.5 3.6 5.6 9.1 0.6 1.7 0.5 3.7-2.5 13.2s-16.3 58.4-42.1 79.4c-19.6 16-48.5 36.4-61.2 45.3l-0.8 0.6c0 0.1-0.7 2.2-1.8 4.3-2.3 2.3-23.6 13.8-23.6 13.8s0 0-1.6-1.2l-39.8 18.8s-2.6 18.2-20.3 26.2c-17.8 8-49.7 24.9-49.7 24.9l-11.5 27.5 1.7-1 18.5-10s7-4.3 11.1 3.6l2.2 4.2s3.6 6.4-3.9 10.5l-101.8 55.2s-3-4-6.3-9.1-1-10.3-1-10.3l15.9-8.6 0.1-0.2c-0.1-5.1-0.2-10.3-0.3-15.4l-0.1-7.7-0.1-7.7v-1.4l0.1-0.8c-3.1-2.1-6.2-4.4-9-7-2.8-2.5-5.4-5.3-7.8-8.3-3.3-4.2-6-8.9-7.9-13.8l-0.5-0.2c-2.5-0.3-9.8-1.4-17.7-3.5-13.6-15.7-7.4-32.2-7.4-32.2l15-15.3 0.8-0.9c-31.1-51.8-132.6-98.9-132.6-98.9l-18.4 2.5-14.7-3c36.4-14.6 66-26.5 112.3-43.9l4.3 0.1c69.4 68.1 167.5 2.9 179.9-5.9l1.6-0.8z"/>
	<path class="shade" d="m246 195.4c3.2 5.6 5.6 11.2 7 16.8l0.1-0.3c-1.8 8.8-2.5 20.2 1.6 32l0.8 2.2s-8.9-1-18.6-3.6c-13.6-15.7-7.4-32.2-7.4-32.2l15.9-16.1 0.6 1.2z"/>
	<path class="shade" d="m566.4 31.1c-5.2 13.5-39.3 29.5-39.3 29.5l-2.2 1.1-5.3 2.6-5.8 2.9-1.8 0.9-57.6 29-20.9 10.6-0.1-0.4-1.7-12.9 63.1-39.7 16.9 13.2 1.8-0.9-17.5-13 4-2.5 19.3 12.6 5.2-2.6c-5.2-2.7-16.5-8.7-22-11.6 0.7-1.1 8.1-12.6 8-24.4 26.7 1.3 48 4.4 55 5.5 0.6-1.5 0.8-2.9 0.5-4.3-0.5-2.9-1-5.6-1.6-8-15.2-3-43.4 0.1-54.6 1.5-0.4-1.9-1.1-3.8-2.1-5.6 9.3-1.3 39.7-5.2 53.9-3.4-1-1.8-2.3-3.4-4-4.7-12.8 0.6-40.4 2.2-51.8 5.4-2-2.6-4.9-4.9-8.8-6.9 0 0 25.1-3.8 41.8-3.7h0.1c4.2 0 7.8 0.3 10.3 1 0.6 0.2 1.2 0.3 1.7 0.5 3.1 0.9 5.5 2.1 7.4 3.7 1.7 1.4 3 3 4.1 4.9 1.2 2.2 2.1 4.7 2.8 7.6 0.6 2.3 1 4.9 1.5 7.8 0.5 1.2 0.3 2.7-0.3 4.3z"/>
	<polygon class="shade" points="343.5 274.3 368.6 214.3 365.2 207.4 339.6 276.1"/>
	<path class="shade" d="m449 10.4s-6.9-3.5-9.6 4.5-2.9 15.4 3.9 20.1c3.1-11 5.7-24.6 5.7-24.6z"/>
	<path class="shade" d="m328.3 181.3l-45.7 22.3c0.6-2 1.2-3.9 1.8-5.4l42.2-20.6 1.7 3.7z"/>
	<path class="shade" d="m330.9 186.7l-50.2 24.5c0.3-1.8 0.7-3.5 1.1-5l47.3-23.1 1.8 3.6z"/>
	<path class="shade" d="m333.6 192.2l-53.7 26.2c0.1-1.6 0.3-3.2 0.5-4.7l51.5-25.1 1.7 3.6z"/>
	<path class="shade" d="m336.2 197.7l-56.4 27.5c-0.1-1.5-0.1-3 0-4.5l54.7-26.7 1.7 3.7z"/>
	<path class="shade" d="m410.9 206.2s-6.5-3.8-10.4-7.4c-1.2-1.1-2.9-2.7-4.7-4.7-1.6-1.8-3.4-3.8-5.3-6.2-1.3-1.7-2.7-3.6-4-5.6-1.6-2.4-3.2-5.1-4.7-8-1.1-2.2-2.2-4.6-3.2-7-1.4-3.5-2.6-7.2-3.5-11.1-0.6-2.7-1.1-5.6-1.4-8.5-0.1-1-0.2-2-0.2-3l0.3-3c-15 16.6-5.4 43.4 14.6 62.3 8 7.5 12 9 16.9 7.7l1.2-0.4c1.9-1.7 3.4-3.7 4.6-5.5"/>
	<path d="m366.9 263.9c0 1.5 0.1 2.8 0.4 4s0.8 2.3 1.5 3.3c0.8 1.1 1.5 2.3 2.1 3.6 0.6 1.2 1.2 2.5 1.7 3.9-1.2-0.8-2.2-1.8-3.2-2.8-0.9-1-1.8-2.2-2.6-3.3-0.9-1.3-1.4-2.9-1.3-4.4 0-1.6 0.5-3.1 1.4-4.3z"/>
	<path d="m285.3 243.1c5.2-4.7 11-8.7 17-12.4s12.2-7 18.5-10c3.2-1.4 6.4-2.9 9.6-4.2 1.6-0.7 3.2-1.3 4.9-2l4.9-1.8 2.5-0.9 2.5-0.8 5-1.6c1.7-0.5 3.4-0.9 5.1-1.4s3.4-0.9 5.1-1.3c-3.3 1.2-6.6 2.3-9.9 3.5l-4.9 1.8-2.5 0.9-2.4 1-4.9 1.9-4.8 2.1c-3.2 1.3-6.4 2.8-9.5 4.3-6.3 3-12.5 6.2-18.5 9.7-1.5 0.9-3 1.7-4.5 2.6l-2.2 1.4-2.2 1.4c-3.1 1.8-6 3.7-8.8 5.8z"/>
	<path d="m443.7 36.3l-0.9-0.6c-6.1-4.3-7.5-11.2-4.2-21 0.9-2.7 2.4-4.5 4.4-5.3 3.1-1.3 6.2 0.3 6.3 0.3l0.5 0.3-0.1 0.6c0 0.1-2.6 13.8-5.7 24.8l-0.3 0.9zm1.9-25.9c-0.6 0-1.3 0.1-2 0.4-1.5 0.6-2.7 2.1-3.5 4.4-2.9 8.7-2.1 14.6 2.7 18.6 2.6-9.3 4.7-20.2 5.3-22.9-0.6-0.3-1.5-0.5-2.5-0.5z"/>
	<path d="m438.2 33.3c-4.5 2.6-9.1 5-13.7 7.4s-9.3 4.7-13.9 7c-4.7 2.3-9.4 4.5-14.1 6.7s-9.5 4.3-14.3 6.3c4.5-2.6 9.1-5 13.7-7.4s9.3-4.7 13.9-7c4.7-2.3 9.4-4.5 14.1-6.7s9.5-4.3 14.3-6.3z"/>
	<path d="m441.1 37.5c-4.9 2.7-9.8 5.4-14.8 7.9-5 2.6-10 5.1-15 7.5s-10.1 4.9-15.1 7.2c-5.1 2.4-10.2 4.6-15.3 6.8 4.9-2.7 9.8-5.4 14.8-7.9 5-2.6 10-5.1 15-7.5s10.1-4.9 15.1-7.2c5.1-2.4 10.2-4.6 15.3-6.8z"/>
	<path d="m492.4 44.8c1.5 0.4 2.9 1 4.3 1.7s2.7 1.4 4 2.4c-1.5-0.4-2.9-1-4.3-1.7-1.5-0.7-2.8-1.5-4-2.4z"/>
	<path d="m477.6 30c1.3-2.1 2.6-4.3 3.7-6.5 0.5-1.1 1-2.2 1.5-3.4 0.4-1.1 0.8-2.3 1-3.5 0.5-2.3 0.3-4.8-0.8-6.8-1.1-2.1-3.2-3.5-5.4-4.7 1.2 0.3 2.5 0.7 3.6 1.4s2.2 1.5 2.9 2.7c0.8 1.1 1.2 2.4 1.4 3.8 0.2 1.3 0.1 2.7-0.1 4-0.5 2.6-1.6 5-2.9 7.2-1.4 2.1-3 4.1-4.9 5.8z"/>
	<path d="m472.3 35.9c-3.3 3.1-7 5.7-10.7 8.1-3.8 2.5-7.6 4.7-11.5 6.9-2 1.1-4 2.1-5.9 3.2l-6 3c-2 1-4.1 1.9-6.1 2.8-2.1 0.9-4.1 1.8-6.2 2.6 3.9-2.2 7.8-4.4 11.7-6.5l11.8-6.4 2.9-1.6 2.9-1.6c1.9-1.1 3.9-2.2 5.8-3.3s3.8-2.3 5.7-3.4c1.9-1.3 3.7-2.5 5.6-3.8z"/>
	<path d="m391.3 129.2c3.2-2 6.4-3.9 9.7-5.7s6.5-3.6 9.9-5.3c3.3-1.7 6.6-3.4 10-5s6.8-3.2 10.2-4.6c-3.2 2-6.4 3.9-9.7 5.7s-6.5 3.6-9.9 5.3c-3.3 1.7-6.6 3.4-10 5s-6.8 3.2-10.2 4.6z"/>
	<path d="m265.1 190.5c4.5-3.1 9.2-6.1 13.8-9.1 4.7-3 9.4-5.9 14.1-8.7 9.4-5.7 19-11.2 28.8-16.5 9.8-5.2 19.6-10.2 29.7-14.7 10.1-4.4 20.4-8.6 31.1-11.4-2.6 0.9-5.2 1.8-7.8 2.7-2.6 1-5.1 2-7.7 3.1l-1.9 0.8-1.9 0.8-3.8 1.7-3.8 1.7-3.7 1.8-3.7 1.8c-1.2 0.6-2.5 1.2-3.7 1.8l-7.4 3.7c-4.9 2.6-9.8 5.1-14.6 7.7-4.9 2.6-9.7 5.3-14.5 7.9l-14.4 8.2c-4.8 2.7-9.5 5.5-14.3 8.4-4.9 2.6-9.6 5.5-14.3 8.3z"/>
	<path d="m259.4 188.5c-4-4.1-7.9-8.3-11.7-12.6-1.9-2.1-3.8-4.3-5.6-6.5-1.9-2.2-3.7-4.4-5.5-6.6s-3.6-4.5-5.3-6.8l-1.3-1.7-0.3-0.4v-0.1l-0.1-0.1c-0.1-0.1-0.1-0.1-0.1-0.2-0.1-0.1-0.1-0.2-0.2-0.4-0.2-0.5-0.2-0.9-0.2-1.3-0.1-1.6 0.3-3.1 0.8-4.5 1-2.8 2.3-5.4 4-7.8 1.6-2.4 3.4-4.7 5.3-6.8-1.7 2.3-3.3 4.7-4.7 7.2s-2.6 5.1-3.3 7.8c-0.4 1.3-0.6 2.7-0.5 4 0 0.3 0.1 0.6 0.2 0.8 0 0.1 0.1 0.1 0.1 0.1v0.1l0.4 0.4 1.4 1.6c1.9 2.1 3.8 4.3 5.7 6.5s3.7 4.4 5.5 6.6 3.6 4.5 5.3 6.8c3.4 4.6 6.8 9.2 10.1 13.9z"/>
	<path d="m364.4 111.6c-1.4-2.9-2.8-5.7-4.2-8.5-1.3-2.6-2.7-5.3-4-7.9 6.4-3.2 12.7-6.4 19-9.6-6.5 2.8-12.9 5.6-19.4 8.4v-0.2c0-0.4 0.1-0.8 0.2-1.2 0.2-0.8 0.4-1.7 0.7-2.5 0.6-1.7 1.2-3.4 2.1-5l1.2-2.5 1.3-2.5 2.3-4.5 10.2-5.1c-11.2 4.6-22.3 9.4-33.3 14.3-5.5 2.4-11 4.9-16.5 7.4l-16.5 7.5-16.4 7.6c-5.5 2.6-10.9 5.1-16.4 7.7-10.9 5.2-21.7 10.5-32.5 16 11.2-4.6 22.3-9.4 33.3-14.3 5.5-2.4 11-4.9 16.5-7.4l16.5-7.5 16.4-7.6c5.5-2.6 10.9-5.1 16.4-7.7l8.1-3.9c-1.2 1.2-2.2 2.4-3.3 3.8-1.2 1.5-2.3 3.1-3.3 4.8s-1.9 3.5-2.5 5.4c-0.3 0.9-0.6 1.9-0.7 3-0.1 0.5-0.1 1.1 0 1.7v0.1c-5.8 2.6-11.5 5.3-17.3 7.9l-17.5 8.2-17.5 8.3c-5.8 2.8-11.6 5.6-17.4 8.4-11.6 5.6-23.2 11.4-34.7 17.3 11.9-5.1 23.7-10.3 35.4-15.6 5.9-2.6 11.7-5.4 17.6-8.1l17.5-8.2 17.5-8.3c5.6-2.7 11.3-5.4 16.9-8.1 0.6 1.3 1.3 2.7 1.9 4l2.1 4.1 4.3 8.1c1.4 2.7 3 5.3 4.4 8 0.7 1.3 1.5 2.7 2.3 4s1.5 2.7 2.3 4h0.1l-1.8-4.2c-0.6-1.4-1.2-2.8-1.9-4.2-1.3-2.8-2.5-5.6-3.8-8.4l-3.9-8.3-2-4.1c-0.7-1.3-1.3-2.6-2-3.9 4-2 8-3.9 12-5.9 1.4 2.6 2.8 5.3 4.2 7.9 1.5 2.8 3 5.6 4.5 8.4s3.1 5.6 4.7 8.3c1.6 2.8 3.2 5.5 4.8 8.2l0.3-0.1c-1.3-2.9-2.6-5.8-4-8.7-1.4-3.1-2.8-6-4.2-8.8zm-22.4-14.5c0.5-1.8 1.1-3.5 1.9-5.3 0.8-1.7 1.7-3.4 2.7-5 0.9-1.5 1.8-2.9 2.8-4.3 4.5-2.2 9.1-4.4 13.6-6.7-1 1.1-2 2.3-2.9 3.5-0.6 0.7-1.1 1.5-1.6 2.3l-1.5 2.4c-0.5 0.8-1 1.7-1.4 2.5-0.4 0.9-0.8 1.8-1.1 2.7s-0.6 1.9-0.8 2.8c-0.1 0.5-0.2 1-0.2 1.6v0.9c0 0.1 0 0.3 0.1 0.4l-12 5.4v-0.6c0-0.8 0.2-1.7 0.4-2.6z"/>
	<path d="m235.2 207.3c-0.1 1.5-0.1 3 0 4.5s0.3 3 0.5 4.4l0.4 2.2c0.1 0.7 0.3 1.4 0.5 2.2 0.1 0.7 0.3 1.4 0.5 2.2l0.6 2.1 0.6 2.1 0.7 2.1c0.4 1.4 1.1 2.8 1.5 4.2 0.2 0.7 0.6 1.4 0.8 2.1l0.8 2.1c0.6 1.4 1.2 2.8 1.7 4.2-1-1.2-1.9-2.4-2.7-3.7s-1.6-2.6-2.3-4c-0.3-0.7-0.7-1.4-1-2.1l-0.5-1-0.4-1.1-0.8-2.2-0.7-2.2c-0.2-0.7-0.4-1.5-0.6-2.2-0.2-0.8-0.4-1.5-0.5-2.3-0.2-1.5-0.4-3.1-0.5-4.6 0-1.6 0-3.1 0.2-4.6 0.3-1.4 0.6-3 1.2-4.4z"/>
	<path d="m281.3 205.1l0.5-1.7c0.6-1.9 1.2-3.7 1.8-5.4l0.1-0.3 0.3-0.1 42.9-20.9 2.5 5.1-48.1 23.3zm3.7-6.3l-1.2 3.3 43.4-21.2-1.1-2.2-41.1 20.1z"/>
	<path d="m279.7 212.6l0.3-1.5c0.3-1.7 0.7-3.4 1.1-5.1l0.1-0.4 48.4-23.6 2.4 5.1-0.7 0.3-51.6 25.2zm2.8-5.8c-0.3 1-0.5 2.1-0.7 3.1l48.1-23.5-1.1-2.2-46.3 22.6z"/>
	<path d="m279 219.7l0.1-1.4c0.1-1.6 0.3-3.2 0.5-4.8l0.1-0.4 52.5-25.6 2.5 5.1-55.7 27.1zm2.1-5.5c-0.1 1-0.2 1.9-0.3 2.9l51.8-25.3-1.1-2.2-50.4 24.6z"/>
	<path d="m279.1 226.4l-0.1-1.2c-0.1-1.5-0.1-2.9 0-4.5v-0.5l55.8-27.3 2.5 5.1-58.2 28.4zm1.4-5.2v2.7l54.6-26.7-1.1-2.2-53.5 26.2z"/>
		<path d="m178.9 78.8c11.7-8.6 28.2-6.1 36.8 5.7s6.1 28.3-5.6 36.9-28.2 6.1-36.8-5.7c-8.6-11.7-6.1-28.3 5.6-36.9m-2-2.7c-6.4 4.7-10.5 11.6-11.7 19.5-1.2 7.8 0.7 15.7 5.4 22.1s11.6 10.6 19.4 11.8 15.6-0.7 22-5.4 10.5-11.6 11.7-19.5c1.2-7.8-0.7-15.7-5.4-22.1s-11.6-10.6-19.4-11.8-15.6 0.7-22 5.4z"/>
		<path d="m218.3 97.2c1 0.7 1.2 2.2 0.4 3.4s-2.3 1.6-3.3 1l-22.7-15.1c-1-0.7-1.2-2.2-0.4-3.4s2.3-1.6 3.3-1l22.7 15.1z"/>
		<path d="m193.1 89.8l6.7 4.5 4.5 15.2c0.3 1.2-0.5 2.4-1.9 2.9-0.8 0.2-1.6 0.1-2.2-0.3h-0.1c-0.1-0.1-0.2-0.2-0.3-0.2-0.2-0.2-0.4-0.5-0.5-0.8l-6.2-21.3z"/>
		<path d="m181.1 92.9l12.8 8.5 2.3 7.8-17.9-11.9c-1-0.7-1.2-2.2-0.4-3.4 0.4-0.6 1-1 1.6-1.2 0.5-0.2 1.1-0.2 1.6 0.2z"/>
		<path d="m184.6 121.8l-6.3-21.3 6.7 4.5 4.5 15.3c0.3 1.2-0.5 2.4-1.9 2.9-0.8 0.2-1.7 0.1-2.3-0.3-0.3-0.3-0.6-0.7-0.7-1.1z"/>
	<path d="m599.6 20.8c-2.2-5.7-3.8-8.3-6.1-9.7l-0.1-0.1c-13.5-6.3-41.5-9.6-43.5-9.8-0.4-0.1-0.7-0.2-1.1-0.3-2.3-0.6-5.6-0.9-9.7-1h-0.1c-15.7-0.2-40.1 3.3-42.6 3.7-2.5-0.6-6.2-0.3-7.2-0.2-1.6-0.4-10.2-2.8-16.1-1.3-16.7 2.6-22 3.4-23.4 3.6-4.7-2.6-12.7 1.3-13 1.5s-34.2 16.9-53.3 27l-0.4 0.2-0.1 0.3-0.1 0.1c-1.8 2.2-4.1 5.3-6.1 8.7-2.5 1.8-28.4 20.2-62.2 30.4-32.6 9.8-79.3 13.6-117.3-23.6l-0.3-0.3-4.3-0.1-0.2-0.2-0.7 0.3c-43.2 16-71.8 27.4-105 40.7l-11.2 4.5 18.8 3.8 18.3-2.5c3.4 1.6 33.3 15.9 64.4 36.4 32.4 21.4 55.1 42.2 66.8 61.2l-15.4 15.6-0.1 0.2c-0.3 0.7-6.3 17.3 7.6 33.4l0.2 0.3 0.4 0.1c7.9 2.1 15.3 3.2 17.9 3.5 1.9 4.7 4.5 9.2 7.7 13.2l1.8 2.2c0.6 0.8 1.3 1.4 1.9 2.1 0.7 0.7 1.3 1.4 2 2.1l2.1 2c0.4 0.3 0.7 0.7 1.1 1l1.1 0.9 2.2 1.8c1.4 1.1 2.8 2 4.2 3v2.1 7.7l0.1 7.7c0.1 4.9 0.2 9.8 0.4 14.7l-15.9 8.6-0.2 0.4c-0.1 0.2-2.5 5.9 1.1 11.5 3.3 5.1 6.3 9.1 6.4 9.2l0.6 0.8 102.7-55.6c2.7-1.5 4.4-3.4 5.1-5.8 1-3.3-0.7-6.2-0.7-6.3l-2.2-4.2c-1.4-2.7-3.3-4.5-5.7-5.1-3.6-1-6.9 0.9-7 1l-17.9 9.7 10.1-24.2 0.1 0.1c0.3-0.2 32.1-17 49.6-24.9 16.5-7.4 20.3-23 20.9-26.4l38.6-18.2 1.6 1.3 0.7-0.4c2.2-1.2 21.6-11.7 23.9-14.1l0.1-0.1 0.1-0.1c0.9-1.7 1.5-3.3 1.8-4.1 13.5-9.4 42.1-29.6 61.8-45.6 24.1-19.7 37.3-63 41.6-77.2 0.3-1.1 0.6-2 0.8-2.7 3.2-9.9 3.4-12.4 2.6-14.5zm-60.6-18.4h0.1c4 0.1 7 0.4 9.2 0.9l1.2 0.3c3.2 0.9 5.7 2.1 7.6 3.7 1.5 1.2 2.7 2.6 3.7 4.4 1.1 1.9 1.9 4.2 2.7 7.3 0.5 2 1 4.5 1.5 7.9 0.2 1.1 0 2.4-0.5 3.7-4.8 12.9-38.4 28.8-38.7 29l-71.7 36.1-20.5 10.3-1.5-11 70.3-44.2 0.1-0.2s0.1-0.2 0.3-0.5c1.3-2.1 8-13.3 8-24.8 0-1.9-0.2-3.7-0.6-5.4-0.5-2.1-1.2-4.1-2.2-6-0.5-1-1.1-1.9-1.8-2.7-1.7-2.1-3.8-4-6.3-5.7 7.6-1 26.2-3.3 39.1-3.1zm-343.1 49.8c11.5 11.2 24.4 19.3 38.5 24.4-13.5-4.7-26.9-12.4-39.4-24.5l0.9 0.1zm41.6 189.2c-11.8-13.9-7.7-28.6-7.1-30.5l14.6-14.8 1.8 3.3-9.3 7.7 10-6.4c0.8 1.6 1.5 3.2 2.1 4.7l-10.8 6.2 11.3-4.8c0.7 1.9 1.3 3.7 1.7 5.5 0 0.1-0.1 0.3-0.1 0.4l-12.4 4.5 12.1-2.9c-0.2 0.8-0.3 1.7-0.4 2.5-0.2 1.1-0.3 2.3-0.4 3.4l-9.9 2.6 9.8-1.2c-0.1 1.9-0.2 3.9-0.1 5.8l-8.4 1.6 8.4-0.1c0.1 1.7 0.2 3.3 0.5 5l-7.1 0.3 7.4 1c0.2 1.5 0.5 3 0.9 4.5 0.1 0.2 0.1 0.5 0.2 0.7l-7-0.3 7.4 1.7c0.3 0.9 0.6 1.9 0.9 2.8-3.3-0.4-9.5-1.4-16.1-3.2zm54.9 82.4l-4-4.5 2.9 5.1-2.3 1.3-4-4.5 2.8 5.1-2.4 1.3-4-4.5 2.8 5.1-2.4 1.3-4-4.5 2.8 5.1-2.1 1.2-3.8-4.4 2.8 5-2.6 1.4-3.9-4.5 2.8 5.1-2.2 1.2c-1-1.4-3.3-4.5-5.7-8.2-2.5-3.8-1.5-7.7-1.1-8.8l22.8-12.3c-0.3 2.2-0.2 5.4 1.9 8.5 2.3 3.6 4.5 6.6 5.6 8.1l-2.7 1.4zm5-2.7c-1-1.4-3.3-4.5-5.7-8.3-2.1-3.3-1.7-6.6-1.3-8.2-0.2 2.1 0.1 5 2 7.8 2.4 3.7 4.7 6.8 5.7 8.3l-0.7 0.4zm40.7-22.1l-3.9-4.4 2.8 5-2.4 1.3-3.9-4.4 2.8 5-2.4 1.3-3.8-4.4 2.8 5-2.4 1.3-3.8-4.4 2.8 5-2.4 1.3-3.8-4.4 2.7 4.9-2.4 1.3-3.8-4.3 2.7 4.9-2.4 1.3-3.8-4.3 2.7 4.9-2.4 1.3-3.8-4.3 2.7 4.9-2.4 1.3-3.8-4.3 2.7 4.9-2.4 1.3-3.8-4.3 2.7 4.9-2.4 1.3-3.8-4.3 2.7 4.9-2.2 1.2c-0.9-1.3-3.3-4.5-5.8-8.4-2.3-3.5-1.6-7-1.2-8.4l39.6-21.5c-0.4 2.2-0.4 5.6 1.8 9 2.2 3.3 4.2 6.2 5.4 7.8l-1.7 0.8zm3.9-2.1c-1.1-1.5-3.2-4.5-5.5-8-2.1-3.3-1.7-6.6-1.3-8.2-0.2 2.1 0.1 5 2 7.8 2.3 3.5 4.4 6.4 5.5 8l-0.7 0.4zm22.5-32.8s2.6-1.5 5.2-0.8c1.7 0.5 3.1 1.8 4.2 3.9l2.2 4.2s1.2 2.2 0.5 4.5c-0.5 1.7-1.8 3.1-4 4.3l-0.8 0.4-1.9-1.6 0.8 2.2-2.4 1.3-3.3-3.5 2.1 4.1-2.3 1.2-4.4-5 3.1 5.6-2.2 1.2-4.4-5 3.1 5.6-2.2 1.2-4.4-5 3.1 5.6-2.2 1.2-4.3-4.9 3.1 5.6-2.2 1.2-4.3-4.9 3.1 5.6-2.2 1.2-4.3-4.9 3.1 5.6-1.6 0.9c-1.1-1.4-3.3-4.5-5.6-8.1-2.6-3.9-1.4-7.9-1-8.9l26.4-14zm-17.1-6.6l1.4 2-1.1-2.7 0.9-2.3 1.3 2-1.1-2.7 0.9-2.3 1.3 1.9-1-2.6 0.9-2.4 1.5 2.2-1.2-3 0.9-2.5 1.7 2.7-6.2 14.8-1-2.6 0.8-2.5zm-1.1 3l1.3 1.9-1.2 2.8-1-2.4 0.9-2.3zm-1.1 3l1.2 1.8-1.2 2.8-0.9-2.3 0.9-2.3zm-1.1 3.1l1.1 1.7-1.1 2.7-0.8-2.1 0.8-2.3zm-1.2 3l1 1.5-0.7 1.7-0.6 0.3-0.5-1.3 0.8-2.2zm-1.1 3l0.5 0.7-1 0.5 0.5-1.2zm12.9-27.2c-0.1 0.1-0.2 0.1-0.2 0.1l0.1 0.1-0.8 1.9-1.4-3.4 1-2.6 1.8 2.7-1.5-3.5 1-2.6 1.7 2.6-1.4-3.3 0.9-2.5 2 3.1-1.7-3.9 0.9-2.5 1.9 3.1-1.7-3.9 0.9-2.5 1.9 3.1-1.7-3.8 0.9-2.5 2.2 3.6-6.8 16.7zm7.2-26.9l2.3 3.7-2-4.5 0.9-2.3 2.3 3.8-2-4.5 0.8-2.2 2.3 3.8-2-4.6 0.8-2.2 2.4 4.9-4.8 11.5-2-4.6 1-2.8zm-1.3 3.6l2.3 3.8-1.3 3.1-1.9-4.4 0.9-2.5zm100.1-44.8c-0.6-0.3-1.2-0.6-1.8-1l-2.7-2.6c0.4 1.1 1 2 1.8 2.9 0.4 0.5 0.8 0.9 1.3 1.3l-2.6 1.2c-0.6-0.3-1.2-0.6-1.8-1l-2.7-2.6c0.4 1.1 1 2 1.8 2.9 0.4 0.5 0.8 0.9 1.3 1.3l-2.6 1.2c-0.6-0.3-1.2-0.6-1.8-1l-2.7-2.6c0.4 1.1 1 2 1.8 2.9 0.4 0.5 0.9 0.9 1.3 1.4l-2.6 1.2c-0.6-0.3-1.3-0.6-1.9-1l-2.7-2.6c0.4 1.1 1 2 1.8 2.9 0.4 0.5 0.9 0.9 1.4 1.4l-2.6 1.2c-0.7-0.3-1.3-0.6-1.9-1.1l-2.7-2.6c0.4 1.1 1 2 1.8 2.9 0.4 0.5 0.9 1 1.4 1.4l-2.6 1.2c-0.7-0.3-1.3-0.7-1.9-1.1l-2.7-2.6c0.4 1.1 1 2 1.8 2.9 0.4 0.5 0.9 1 1.4 1.4l-2.5 1.2c-0.7-0.3-1.3-0.7-2-1.1l-2.7-2.6c0.4 1.1 1 2 1.8 2.9 0.4 0.5 0.9 1 1.4 1.4l-2.5 1.2c-0.7-0.3-1.4-0.7-2-1.1l-2.7-2.6c0.4 1.1 1 2 1.8 2.9 0.4 0.5 0.9 1 1.5 1.5l-2.5 1.2c-0.7-0.3-1.4-0.7-2-1.1l-2.7-2.6c0.4 1.1 1 2 1.8 2.9l1.5 1.5-2.5 1.2c-0.7-0.3-1.4-0.7-2.1-1.1l-2.7-2.6c0.4 1.1 1 2 1.8 2.9 0.6 0.7 1.3 1.3 2 1.9-0.1 0.6-2.9 17.7-19.7 25.2-14.8 6.6-39.7 19.6-47.4 23.7l12.6-30-4.4-8.9-25.9 70-47.9 26h-0.1v0.1l-9.7 5.3c0.1-4.5 0.1-8.9 0-13.4l-0.1-7.7-0.1-7.7c-0.1-5.1-0.2-10.3-0.5-15.4-0.2-5.1-0.6-10.2-1.1-15.4h-0.2c-0.4 5.1-0.7 10.3-0.8 15.4-0.1 3.4-0.1 6.9-0.1 10.3l-2.7-2.1-2.1-1.8-1.1-0.9c-0.3-0.3-0.7-0.6-1-0.9l-2-1.9c-0.7-0.6-1.3-1.3-1.9-2s-1.3-1.3-1.8-2.1l-1.7-2.1c-4.5-5.8-7.8-12.5-9.6-19.6s-2.2-14.6-1.3-21.9c0.4-3.7 1.2-7.3 2.2-10.9 0.9-3.6 2-7.2 3.1-10.8-1.2 1.5-2.1 3.2-2.9 4.9-0.4 0.9-0.8 1.7-1.2 2.6-0.3 0.9-0.7 1.8-1 2.7-0.2 0.7-0.4 1.3-0.6 2-7.7-23.4-32.8-49.2-74.7-76.9-33-21.7-64.7-36.5-65-36.7l-0.3-0.1-18.5 2.6-10.7-2.2 3.9-1.5c32.9-13.2 61.4-24.6 104.1-40.6 17.2 17.2 37.6 27.7 60.6 31.3 18.6 2.9 38.8 1.3 60.2-4.8 29.2-8.3 52.6-22.8 60.8-28.3-0.8 2.5-1.1 5-0.8 7.4 0.2 1.1 0.8 3.7 1.4 5.4-1.4 2.7-0.7 5.2 0.1 7.2 0.2 4.8 0.7 9.7 1.6 15 1.7 9.8 4.3 19 6.8 27.9 1.7 5.8 3.3 11.3 4.4 16.4-2.1 38.2 26.7 62.5 31.7 66.4-0.7 1.8-2.7 6.7-6.5 10.3 2.2-3.6 3.2-6.8 3.3-7l0.2-0.8-0.7-0.5s-0.9-0.6-2.3-1.8c-1.1-0.9-2.8-2.4-4.9-4.4-1.9-1.9-3.7-3.9-5.5-5.9-1.5-1.8-2.9-3.6-4.2-5.4-1.8-2.4-3.4-5-4.9-7.6-1.3-2.2-2.4-4.5-3.4-6.8-1.6-3.5-2.9-7.1-3.9-10.8-0.7-2.7-1.3-5.5-1.7-8.3-0.6-4-0.8-8.2-0.7-12.3l0.1-2.1-1.8 1.1c-9.4 5.5-15 13.6-16.1 23.5-1.7 14.8 6.8 33 22.1 47.4 6.3 6 10.4 8.5 14.7 8.5 1.5 0 3-0.3 4.6-0.8 10.3-3.5 14.1-15.8 14.2-16.3l0.2-0.8-0.7-0.5c-0.3-0.2-33.7-24.7-31.4-65v-0.2-0.2c-1.1-5.2-2.7-10.8-4.5-16.8-2.5-8.8-5.2-17.9-6.8-27.6-0.9-5.2-1.4-10.1-1.5-14.9v-0.2l-0.1-0.2c-1.1-2.5-1.1-4.2 0-5.8l0.3-0.6-0.3-0.6c-0.6-1.3-1.3-4.2-1.5-5.3-1.1-7.6 6.3-17.5 9.6-21.4l0.1-0.1c19.1-10 52.6-26.7 53-26.8 2.1-1 8.2-3.3 11.1-1.4l0.4 0.3 0.5-0.1s3.5-0.5 23.9-3.7h0.1c5.4-1.4 14 1.1 15 1.4 4 1.8 6.7 4.7 7.9 8.5 3.5 11-5.1 27-6.3 29.1-2.9 2-30.2 19.4-45.2 27.7-14 7.8-25.3-2.9-27-4.7h0.1c-0.4-0.4-0.6-1.2-0.7-1.9-0.1-0.8-0.1-1.6 0-2.4 0.2-1.7 0.5-3.4 1.3-4.9 1.5-3.1 3.3-6.1 5.3-8.9-2.1 2.8-4.1 5.6-5.7 8.7-0.4 0.8-0.7 1.6-1.2 2.4-0.4 0.8-0.7 1.6-1 2.5s-0.5 1.8-0.5 2.7c0 0.6 0 1.2 0.1 1.8-3.9 1.7-8.3 3.7-12.6 5.6v-0.5c0.1-0.8 0.2-1.5 0.4-2.3 0.4-1.5 1-3.1 1.6-4.6s1.3-3 2-4.5 1.5-2.9 2.4-4.3c-1.1 1.3-2 2.6-3 4-0.9 1.4-1.8 2.8-2.6 4.3s-1.6 3-2.2 4.6c-0.3 0.8-0.6 1.6-0.8 2.5-0.1 0.6-0.2 1.2-0.2 1.9-10.3 4.6-19.8 8.8-20.6 9l0.3 1.1 0.1 1.2c0.2 0 0.8-0.1 36-15.9 2.8 2.7 14.9 12.9 29.5 4.8 15.8-8.8 45.2-27.6 45.5-27.8l0.2-0.2 0.1-0.2c0.4-0.7 10.8-18.5 6.7-31.3-1-3.2-2.9-5.9-5.6-7.9 1 0 2 0.1 2.7 0.3 3.6 1.8 6.4 4.1 8.4 6.7 0.6 0.8 1.1 1.6 1.6 2.4 0.9 1.6 1.6 3.4 2 5.3 0.3 1.5 0.5 3.2 0.5 4.9 0.1 10.8-6.3 21.4-7.6 23.5 0 0.1-0.1 0.1-0.1 0.2l-71.1 44.7 1.9 14c-2 36.7 24.7 62.8 31.3 68.6l-1.8 0.9zm-86.9-23.7l0.6 2.7c0.3 1.1 0.5 2.2 0.9 3.4l-4.3 17.2c-0.8-2.1-1.5-4.3-2-6.4l4.8-16.9zm-5.6 13.6c-0.5-3.3-0.7-6.5-0.3-9.6 0.5-4.8 2.2-9.1 4.8-12.8 0.1 1 0.1 1.9 0.2 2.9 0.1 0.7 0.2 1.5 0.3 2.2l-5 17.3zm7.9-4.6c0.5 1.7 1.1 3.3 1.8 4.9 0.4 1 0.8 2 1.3 3l-3.7 15.5c-1.3-2.2-2.5-4.5-3.5-6.7l4.1-16.7zm4.1 10.3l0.9 1.8c0.6 1.2 1.2 2.3 1.9 3.4l-3.7 13.7c-0.9-1.3-1.8-2.5-2.6-3.8l3.5-15.1zm3.9 7c0.6 0.9 1.1 1.8 1.7 2.7 0.4 0.7 0.9 1.3 1.4 2l-3 13.2c-1.3-1.5-2.6-3-3.8-4.5l3.7-13.4zm4.3 6.5c0.5 0.7 1 1.3 1.5 2l1.2 1.5-2.5 12.6c-1.1-1-2.1-2-3.1-3.1l2.9-13zm3.9 5c0.9 1.1 1.9 2.2 2.8 3.2 0.7 0.8 1.4 1.4 2 2.1l-2.3 11.1c-1.5-1.1-3.1-2.4-5-4.2l2.5-12.2zm6.2 6.6c0.6 0.6 1.1 1 1.5 1.4s0.9 0.7 1.3 1.1l-1.7 9.9c-1-0.3-2.1-0.9-3.3-1.6l2.2-10.8zm4.2 3.6c2.6 1.9 5.3 3.7 6.8 4.6-1 1.4-2.1 2.8-3.5 4-1.7 0.5-3.2 0.8-4.8 0.5l1.5-9.1zm-1.7-3.4c-1-0.9-2.7-2.5-4.7-4.7-1.8-2-3.6-4-5.2-6.2-1.4-1.8-2.8-3.7-4-5.6-1.7-2.5-3.2-5.2-4.6-7.9-1.2-2.3-2.2-4.6-3.2-7-1.4-3.6-2.6-7.3-3.4-11-0.6-2.8-1.1-5.6-1.4-8.4-0.2-1.5-0.2-3.1-0.3-4.6 1.9-2.2 4.1-4.2 6.8-5.9 0 3.5 0.2 7 0.7 10.5 0.4 2.9 1 5.8 1.8 8.6 1 3.8 2.4 7.5 4 11.1 1.1 2.4 2.3 4.7 3.5 7 1.5 2.7 3.2 5.3 5.1 7.9 1.3 1.9 2.8 3.7 4.3 5.5 1.8 2.1 3.7 4.1 5.6 6.1 2.1 2.1 3.9 3.7 5 4.6 0.7 0.6 1.3 1.1 1.7 1.4-0.4 1-1.2 3-2.5 5.2-1.8-1.1-6.2-4-9.2-6.6zm88.2-34.9c-2 1.7-14.2 8.6-22.6 13.2l-1-0.7c-0.3-0.3-33.7-27.3-31.8-67.3l19.4-9.8c-1.7 41 32.1 65.7 32.4 65.9l0.7 0.5 0.7-0.5 2.4-1.6c-0.1 0.1-0.2 0.2-0.2 0.3zm105.7-129.2c-0.2 0.7-0.5 1.6-0.9 2.8-4.3 14.1-17.3 56.8-40.8 76.1-8.6 7-19 14.9-29 22.3-1-0.3-2-0.8-2.9-1.4-1.2-0.7-2.3-1.6-3.2-2.7 0.7 1.2 1.7 2.3 2.7 3.3 0.7 0.6 1.4 1.1 2.2 1.6-0.7 0.5-1.5 1.1-2.2 1.6-1-0.3-1.9-0.8-2.9-1.3-1.2-0.7-2.3-1.6-3.2-2.7 0.7 1.2 1.7 2.3 2.7 3.3 0.6 0.6 1.4 1.1 2.1 1.6-0.7 0.5-1.5 1.1-2.2 1.6-1-0.3-1.9-0.8-2.8-1.3-1.2-0.7-2.3-1.6-3.2-2.7 0.7 1.2 1.7 2.3 2.7 3.3 0.6 0.6 1.3 1.1 2 1.5-0.7 0.5-1.5 1.1-2.2 1.6-0.9-0.3-1.8-0.8-2.7-1.3-1.2-0.7-2.3-1.6-3.2-2.7 0.7 1.2 1.7 2.3 2.7 3.3 0.6 0.5 1.3 1 2 1.5-0.8 0.5-1.5 1.1-2.3 1.6-0.9-0.3-1.7-0.7-2.6-1.2-1.2-0.7-2.3-1.6-3.2-2.7 0.7 1.2 1.7 2.3 2.7 3.3 0.6 0.5 1.2 1 1.9 1.4-0.8 0.6-1.5 1.1-2.3 1.6-0.8-0.3-1.7-0.7-2.4-1.2-1.2-0.7-2.3-1.6-3.2-2.7 0.7 1.2 1.7 2.3 2.7 3.3 0.5 0.5 1.1 1 1.8 1.4-0.5 0.4-1 0.7-1.6 1.1-1.2-0.4-2.4-0.9-3.5-1.5-1.2-0.7-2.3-1.6-3.2-2.7 0.7 1.2 1.7 2.3 2.7 3.3 0.8 0.7 1.7 1.4 2.6 1.9l-2.1 1.5c-1.2-0.4-2.3-0.8-3.4-1.5-1.2-0.7-2.3-1.6-3.2-2.7 0.7 1.2 1.7 2.3 2.7 3.3 0.8 0.7 1.6 1.3 2.5 1.8l-2.1 1.5c-1.1-0.4-2.2-0.8-3.2-1.4-1.2-0.7-2.3-1.6-3.2-2.7 0.7 1.2 1.7 2.3 2.7 3.3 0.7 0.7 1.5 1.2 2.4 1.7-0.8 0.5-1.5 1-2.2 1.5-1-0.3-2.1-0.8-3-1.4-1.2-0.7-2.3-1.6-3.2-2.7 0.7 1.2 1.7 2.3 2.7 3.3 0.7 0.6 1.4 1.2 2.2 1.7-0.8 0.6-1.5 1.1-2.2 1.6-1-0.3-1.9-0.8-2.8-1.3-1.2-0.7-2.3-1.6-3.2-2.7 0.7 1.2 1.7 2.3 2.7 3.3 0.6 0.6 1.3 1.1 2.1 1.6-1.2 0.9-2.2 1.5-2.8 1.9-4.7-3.7-32.8-27.3-30.7-64.5v-0.3l71.1-35.8c1.4-0.7 34.7-16.5 39.9-30.3 0.6-1.7 0.8-3.4 0.6-4.9-0.6-3.5-1.1-5.9-1.6-8-0.8-3.3-1.7-5.8-2.9-7.9-1.1-2-2.5-3.7-4.3-5.1-0.3-0.2-0.6-0.5-0.9-0.7 9.7 1.5 25.8 4.3 34.8 8.5 0.2 0.1 0.3 0.2 0.5 0.3-0.4 6.7-1.8 13.3-4 19.6-2.3 6.5-5.4 12.8-9 18.7-7.2 11.9-16.3 22.6-26.2 32.5s-20.6 18.9-31.7 27.4c-5.6 4.2-11.3 8.3-17.1 12.2-2.9 2-5.8 3.9-8.8 5.8-1.5 0.9-3 1.9-4.5 2.8l-2.3 1.3-1.1 0.7-1.1 0.6 0.1 0.5c0.2-0.1 0.3-0.1 0.4-0.2l0.3-0.1 0.6-0.3 1.2-0.6 2.3-1.3c1.5-0.9 3.1-1.7 4.6-2.6 3-1.8 6-3.6 9-5.5 5.9-3.8 11.7-7.7 17.4-11.9 11.4-8.3 22.3-17.2 32.4-27.1 5-5 9.8-10.1 14.3-15.6s8.7-11.2 12.3-17.3c3.7-6.1 6.8-12.5 9.1-19.2 2-5.8 3.3-11.9 3.7-18 0.8 1.3 1.7 3.2 2.6 5.8 0.8 1.7 0.6 3.9-2.2 12.7z"/>
</svg>