<?xml version="1.0" encoding="utf-8"?>
<svg enable-background="new 0 0 400 400" version="1.1" viewBox="0 0 400 400" xml:space="preserve" width="400px" height="400px" xmlns="http://www.w3.org/2000/svg">
	<style type="text/css">
		.clear{fill:#fff;}
		.dark-shade{fill:#bbbfc3;}
		.shade{fill:#dfe1e3;}
		svg{fill:#253746;}
	</style>
	<path class="clear" d="m2.8742 363.26c2.1333 3.3261 5.3334 7.5173 9 11.708 3.6667 4.191 7.3334 7.9166 10.4 10.511 2.8 2.3948 4.6667 3.5257 6 3.5257 0.46668 0 0.86667-0.19955 1.2-0.4657l145.07-130.99 0.26666-0.26608-0.066681-0.066528c0.066681-0.066559 0.2-0.19958 0.26666-0.33264 0.66667-1.1309 0.33334-2.9935-1-5.7875l6.8667-5.9871c0.26668 0.13307 0.53334 0.26608 0.80002 0.33263l0.66666 0.26608 1.6-1.397 6.7334-5.854-0.19998-0.73178c0-0.2661-0.13333-0.5322-0.2-0.79829l15.133-13.172c21.667 17.362 48.267 26.21 75 26.21 27.933 0 56-9.6462 78.667-29.404 49.733-43.373 54.867-119.01 11.4-168.64-21.067-24.081-50.2-38.517-82.134-40.646-31.933-2.1287-62.734 8.1821-86.867 29.204-48.467 42.176-54.6 115.02-14.8 164.65l-13.8 11.974c-0.26666-0.13306-0.46667-0.26611-0.73334-0.33261l-0.66667-0.2661-0.13335 0.13304-8.2667 7.118 0.19998 0.73177c0.066681 0.26611 0.2 0.5322 0.26666 0.79831l-6.8667 5.9871c-2.4667-1.5966-4.2667-2.1953-5.5334-1.7296-0.13333 0-0.26666 0.13303-0.40001 0.19955l-0.066666-0.066528-150 125.93c-1.3333 1.0644-0.73334 3.2596 2.2 7.6504l7.57e-5 0.0040894zm211.07-308.6c41.933-36.455 105.73-32.131 142.33 9.6462 36.533 41.844 32.2 105.51-9.6667 142.03-19.067 16.565-42.733 24.747-66.267 24.747-28.133 0-56.134-11.641-76.067-34.393-36.533-41.777-32.2-105.51 9.6667-142.03l-3.06e-5 -1.14e-5z"/>
	<path class="dark-shade" d="m173.94 256.22l-145.33 131.25c-1.2667 1.1309-8.4-4.8561-15.933-13.437-7.4667-8.5148-12.533-16.431-11.2-17.562l150-125.86"/>
	<path class="shade" d="m156.34 236.2c-0.40001-0.79823-0.66667-1.53-0.93333-2.2618l1.3333-1.1309c-2.4-1.7296-4.2667-2.5279-5.2667-2.1287-0.066666 0-0.19998 0.066513-0.26666 0.13304-1.6667 1.4635 2 8.4483 8.2 15.5 6.2 7.0515 12.6 11.641 14.267 10.178 0.06665-0.066528 0.13333-0.19955 0.2-0.26608 0.53333-0.9313 0-2.927-1.4-5.5215l-1.3333 1.1974c-0.66666-0.33261-1.4-0.73177-2.1333-1.2639"/>
	<path d="m0.67415 355.61c-1.3333 1.0644-0.73334 3.2597 2.3334 7.5173 2.1333 3.3262 5.3333 7.5173 9 11.708 3.6667 4.191 7.3334 7.9166 10.4 10.511 2.8 2.3948 4.6667 3.5257 6 3.5257 0.46668 0 0.86667-0.19955 1.2-0.46564l145.07-130.99 0.26666-0.26608-0.066666-0.066498c0.066666-0.066528 0.2-0.19958 0.26666-0.33264 0.73334-1.1974 0.26666-3.3261-1.4667-6.5858l-0.73334-1.3305-1.8667 1.5966c-0.40001-0.2661-0.8-0.5322-1.2667-0.79829l-0.33334-0.19958h-0.39999v1.1974h-1.2667l0.73334 0.73177-0.19998 0.26608c0.73334 0.53218 1.5333 0.99789 2.2 1.3304l0.73332 0.39914 0.80002-0.66524c1 2.2618 0.73334 2.927 0.73334 2.927-0.93333 0.26611-6.0667-2.794-12.467-10.111-6.2667-7.0515-8.6667-12.44-8.3334-13.704 0.26666-0.066513 1.1333 0.13304 2.7333 1.1309l-0.73334 0.66524 0.26666 0.79829c0.26666 0.79831 0.60001 1.5966 1 2.3949l1.0667-0.53217h1.2667v-0.26608l-0.13333-0.2661c-0.2-0.46568-0.40001-0.93134-0.60001-1.3305l1.8-1.5966-1.2-0.93134c-2.8667-2.0622-4.9333-2.8605-6.3334-2.3283-0.13335 0-0.26666 0.13303-0.40001 0.19955l-0.066666-0.066528-150 125.93-5.65e-5 0.0017395zm12.867 17.695c-7.6667-8.8476-10.933-14.569-11.067-16.099l147.4-123.67c1 3.6588 4.8 9.1803 8.6667 13.571 3.2 3.6588 8.4 8.781 12.267 10.378l-142.8 128.99c-1.4667-0.39911-6.7334-4.3241-14.467-13.172l-1.52e-5 -0.0013122z"/>
	<path d="m208.41 48.404c-6.7334 6.6524-13.333 13.571-18.267 21.62-2.8 3.7919-4.8 8.1156-7.0667 12.24-1.0667 2.1287-1.8667 4.3905-2.8 6.5193-0.9334 2.1287-1.8667 4.324-2.4667 6.5858l-2.0667 6.7187c-0.59999 2.3283-1 4.6566-1.5333 6.9184l-0.73334 3.4592c-0.20001 1.1974-0.26666 2.3283-0.40001 3.5257l-0.8 6.9849-0.13335 7.0514-0.066666 3.5257 0.26666 3.5257 0.59999 6.9849 1.2667 6.9184c0.2 1.1309 0.33334 2.3283 0.60001 3.4592l0.93333 3.3927c0.59999 2.2618 1.1333 4.5236 1.8667 6.7852l2.5333 6.5858c0.40001 1.0644 0.73334 2.1952 1.2667 3.2597l1.6 3.1266c1.0667 2.1287 2.0667 4.2575 3.2 6.3197l3.7334 5.9871 1.8667 2.9935 2.2 2.794 4.3333 5.588c12.133 14.436 28.133 25.612 45.933 32.264-9.0667-2.8605-17.733-7.0515-25.733-12.24-7.9334-5.2554-15.267-11.575-21.6-18.759l-4.5333-5.588-2.2667-2.794-1.9333-2.9935-3.8667-6.0536c-1.1333-2.0622-2.1333-4.2575-3.2667-6.3862l-1.6-3.1931c-0.53333-1.0644-0.86665-2.1953-1.3333-3.3261l-2.6-6.7187c-0.73335-2.2618-1.3333-4.5901-2-6.9184l-1-3.4592c-0.26666-1.1309-0.46667-2.3283-0.66667-3.5257l-1.2-7.118-0.53333-7.1846-0.26666-3.5923 0.066666-3.5923 0.2-7.1846 0.86667-7.118c0.13333-1.1974 0.26668-2.3948 0.46667-3.5923l0.8-3.5257c0.53333-2.3283 0.93333-4.6566 1.6-6.9849l2.2667-6.8518c6.2-18.094 17.8-34.127 32.267-46.433l6.14e-5 -1.373e-4z"/>
	<path d="m352.87 211.99c7.6-7.4507 14.533-15.566 19.867-24.68 5.2667-9.1803 9.4667-18.959 12.133-29.137 2.4-10.244 3.6667-20.755 3.4-31.266-0.53339-10.577-2.4667-20.955-5.7334-30.934-3.4-9.9782-8.2667-19.358-14.2-28.073-3.2667-4.0579-6.3333-8.3817-10-12.174-3.6667-3.7253-7.5334-7.3842-11.667-10.644-16.467-13.105-36.933-21.221-58.134-23.35 10.667 0.59871 21.2 2.794 31.267 6.4528 10.067 3.7253 19.533 8.9141 28.067 15.433 4.2667 3.2597 8.2667 6.8518 12 10.71 3.8 3.8583 6.9334 8.1821 10.333 12.373 6.1334 8.8476 11.2 18.361 14.733 28.539 3.2667 10.244 5.1334 20.888 5.6 31.598 0.13333 10.777-1.0667 21.487-3.8 31.865-2.9333 10.311-7.3334 20.157-12.933 29.271-5.8001 8.9807-12.933 16.963-20.933 24.015l1.222e-4 -2.9e-4z"/>
	<ellipse class="shade" cx="280.27" cy="130.5" rx="99.6" ry="99.383"/>
	<path d="m280.34 231.08c-28.133 0-56.134-11.641-76-34.393-36.533-41.843-32.2-105.51 9.6667-142.03 41.867-36.455 105.67-32.131 142.27 9.6462 36.533 41.843 32.2 105.51-9.6667 142.03-19.067 16.564-42.733 24.747-66.267 24.747h-3.06e-5zm-0.13333-198.71c-22.933 0-46 7.9166-64.667 24.148-40.867 35.657-45.067 97.793-9.4 138.63 35.733 40.779 98 44.97 138.87 9.38s45.067-97.793 9.4-138.57c-19.467-22.219-46.733-33.594-74.2-33.594v1.52e-5z"/>
	<path d="m163.54 225.29l-9.5334 8.3152 0.26666 0.79831c0.26666 0.79829 0.59999 1.5966 1 2.3949 1.2667 2.6609 3.2 5.5215 5.6 8.2486 2.4 2.6609 4.9334 4.9893 7.4667 6.6524 0.73335 0.53217 1.5333 0.99782 2.2 1.3304l0.73334 0.39915 9.5334-8.3152c0.26668 0.13307 0.53334 0.2661 0.8 0.33263l0.66667 0.26608 1.6-1.397 6.7334-5.854-0.2-0.73178c0-0.2661-0.13332-0.53218-0.19998-0.79829l15.133-13.172c21.667 17.362 48.267 26.21 75 26.21 28 0 56.067-9.6462 78.734-29.404 49.733-43.373 54.867-119.01 11.4-168.64-21.067-24.081-50.2-38.517-82.134-40.646-31.933-2.1287-62.734 8.1821-86.867 29.204-48.467 42.176-54.6 115.02-14.8 164.65l-13.8 11.974c-0.26666-0.13306-0.46667-0.2661-0.73334-0.33261l-0.66667-0.2661-0.13335 0.13306-8.2667 7.118 0.19998 0.73177c0.066681 0.26611 0.2 0.5322 0.26666 0.79831l6.1e-5 0.0022259zm6.5334-4.1245c0.59999 1.5301 1.4667 3.1931 2.4667 4.9892l-4.2667 3.7253c-1.1333-1.8626-2-3.5922-2.4667-5.1888l0.53333-0.46565 3.6667-3.1931c0.066666 0.066528 0.066666 0.066528 0.066666 0.13307v-3.06e-5zm-0.33333 10.71l4.3333-3.7253c0.8 1.0644 1.6 2.1287 2.5333 3.1931 0.93333 1.0644 1.8667 2.0623 2.8667 2.9935l-4.3333 3.7919c-0.93333-0.93134-1.9333-1.9292-2.8667-2.9935-0.93333-1.0644-1.7333-2.1953-2.5333-3.2597h1.53e-5zm187.2-13.77c-48.4 42.176-122.2 37.186-164.47-11.176-42.267-48.296-37.267-121.94 11.133-164.11 21.4-18.627 48.267-28.672 76.467-28.672 2.6667 0 5.4 0.066524 8.0667 0.26609 31.067 2.1287 59.467 16.165 79.934 39.582 42.267 48.296 37.267 121.94-11.133 164.11v1.114e-4zm-167.47 16.165l-1.2 1.0644c-3-1.6631-5.7334-3.9914-8.1334-6.5193-2.5333-2.7274-4.8-5.7875-6.4-9.1803l14.533-12.706c0.53334 0.73178 1.1333 1.4635 1.7333 2.1287 4.2 4.7232 8.6667 9.1138 13.4 13.039l-2.4667 2.1287c-1.4-0.79831-2.8-1.6631-4.1333-2.6609-1.6-1.2639-3.1334-2.5944-4.5333-4.0579 1.2667 1.5966 2.6667 3.1266 4.1333 4.5236 1.1333 1.0644 2.3333 2.0622 3.6667 2.927l-1.2667 1.1309c-1.8667-0.99782-3.6667-2.3283-5.3333-3.7253-1.9333-1.5966-3.6667-3.5257-5.3334-5.4549 1.5333 2.0622 3.0667 4.1245 4.9333 5.9206 1.4667 1.4635 3.0667 2.794 4.8667 3.9914l-1.2667 1.1309c-2.1333-1.1309-4.2-2.6609-6.0667-4.3905-1-0.99789-2.1333-1.9957-3-3.1266l-2.8-3.3927 2.5333 3.5257c0.86665 1.2639 1.8667 2.3283 2.8667 3.3927 1.6667 1.7961 3.5333 3.3927 5.6 4.7897l-1.2 1.0644c-2.4667-1.3305-4.7334-3.1266-6.8-5.1223-2.3333-2.2618-4.4667-4.7232-6.2-7.4507 1.6 2.7939 3.5333 5.4549 5.7334 7.85 1.8667 1.9957 3.9333 3.9249 6.3333 5.4549l-1.2 1.0644c-2.6667-1.4635-5.1333-3.4592-7.3333-5.6545-2.4667-2.4614-4.6667-5.1888-6.4-8.2486 1.6 3.1931 3.6667 6.0536 6 8.7145 2 2.2618 4.2667 4.3905 6.8667 6.0536l-1.2 1.0644c-2.8667-1.5966-5.5334-3.8583-7.8667-6.2532-2.6-2.7275-4.9333-5.721-6.6-9.1138 1.4667 3.4592 3.6667 6.6523 6.1334 9.5131 2.1333 2.4614 4.5333 4.7897 7.4 6.5858v-4.731e-4zm-2.1333 1.8626l-0.66667 0.59872c-2.6667-1.5301-5.6-3.9914-8.2667-7.0515-2.6667-3.0601-4.7333-6.2532-5.8667-9.0472l1.1333-0.99789c1.4 3.5257 3.6 6.7187 6 9.5796 2.2 2.5944 4.7334 4.9892 7.6667 6.9184l-1.53e-5 -1.068e-4zm-5.5333 6.7187c-1.4667-0.66524-3.1333-1.7296-4.8667-3.0601l4.2667-3.7253c1.5333 1.2639 3.0667 2.3283 4.5333 3.1266 0.06665 0 0.13333 0.066528 0.2 0.066528l-4.1333 3.5923h1.53e-5zm-24.333-7.1845c-0.20003-0.46568-0.40001-0.86479-0.60001-1.4635l7.6-6.5858c1.2667 2.8605 3.3333 6.0536 5.9333 8.9807 2.6 2.9935 5.4667 5.4549 8.1334 7.118l-0.33333 0.2661c-1.4-0.73178-2.8-1.5966-4.1334-2.5944-1.6-1.2639-3.1333-2.5944-4.5333-4.0579 1.2667 1.5966 2.6667 3.1266 4.1333 4.5236 1.1333 1.0644 2.3333 2.0622 3.6667 2.927l-1.2667 1.1309c-1.8667-0.99782-3.6667-2.3283-5.3334-3.7253-1.9333-1.5966-3.6667-3.5257-5.3333-5.455 1.5333 2.0622 3.0667 4.1245 4.9333 5.9206 1.4667 1.4635 3.0667 2.794 4.8667 3.9914l-1.2667 1.1309c-2.1334-1.1309-4.2-2.6609-6.0668-4.3905-1-0.99789-2.1333-1.9957-3-3.1266l-2.8-3.3927 2.5333 3.5923c0.86668 1.2639 1.8667 2.3283 2.8667 3.3927 1.6667 1.7961 3.5333 3.3927 5.6 4.7897l-1.2 1.0644c-2.4667-1.3304-4.7334-3.1266-6.8-5.1223-2.3333-2.2618-4.4667-4.7232-6.2-7.4507 1.6 2.7939 3.5334 5.4549 5.7334 7.85 1.8667 1.9957 3.9333 3.9249 6.3333 5.455-0.39999-0.26611-0.8-0.5322-1.2667-0.79829-2.3333-1.53-4.7334-3.7253-6.9333-6.2532-2.2667-2.5944-4.0667-5.2553-5.2667-7.7169l4.57e-5 -6.13e-5z"/>
	<path class="clear" d="m223.94 61.908c11-9.0472 23.733-15.035 36.933-17.961l1.9333 12.506c-11.733 2.794-22.933 8.3152-32.6 16.764-0.33336 0.19956-0.60004 0.46566-0.86667 0.73177l-5.4-12.041v-4.006e-4z"/>
	<path class="clear" d="m200.81 90.648l10 8.5814c3.4-7.5838 8.0667-14.635 14-20.888l-5.8667-12.041c-7.6 7.1845-13.667 15.433-18.133 24.347z"/>
	<polygon class="clear" points="83.327 72.221 67.274 74.703 60.228 89.303 52.9 74.843 36.804 72.666 48.325 61.243 45.425 45.296 59.874 52.699 74.174 45.019 71.587 61.019"/>
	<path d="m60.25 91.559l-8.0054-15.8-17.582-2.3764 12.585-12.48-3.168-17.42 15.783 8.0869 15.625-8.3897-2.8307 17.478 12.824 12.235-17.533 2.7148-7.698 15.951-5.952e-4 -3.967e-4zm-21.303-19.611l14.608 1.9749 6.6514 13.127 6.3962-13.253 14.567-2.2556-10.655-10.166 2.3516-14.521-12.981 6.9703-13.114-6.7187 2.6322 14.474-10.457 10.369-6.87e-5 -1.374e-4z"/>
	<polygon class="clear" points="149.15 46.746 140.75 43.031 132.93 47.828 133.87 38.711 126.89 32.765 135.87 30.845 139.37 22.373 143.98 30.304 153.13 31.015 147 37.836"/>
	<path d="m131.73 49.736l1.0999-10.606-8.1327-6.917 10.449-2.2335 4.0801-9.8551 5.3575 9.2256 10.654 0.82666-7.138 7.9352 2.5046 10.366-9.7694-4.3218-9.1054 5.5801 6.103e-4 1.333e-4zm-2.6511-16.419l5.8487 4.9746-0.79134 7.6278 6.5489-4.0132 7.026 3.1082-1.8015-7.4547 5.1332-5.7071-7.662-0.5941-3.8529-6.6351-2.9343 7.088-7.5147 1.6059-7.64e-5 -3.129e-4z"/>
	<polygon class="clear" points="119.91 147.19 113.89 140.28 104.76 141.32 109.49 133.46 105.68 125.11 114.63 127.18 121.41 120.99 122.21 130.12 130.21 134.63 121.75 138.22"/>
	<path d="m120.49 149.38l-7.0134-8.0457-10.617 1.2038 5.5007-9.1417-4.4284-9.7041 10.413 2.3952 7.8807-7.2012 0.9346 10.622 9.2994 5.2536-9.8347 4.1697-2.1338 10.449-4.196e-4 -2.136e-4zm-6.1944-10.147l5.0439 5.786 1.5342-7.514 7.0734-2.9984-6.688-3.7783-0.6722-7.6391-5.6674 5.1789-7.4887-1.7222 3.1849 6.9789-3.9557 6.5744 7.636-0.866-4.655e-4 -2.594e-4z"/>
	<polygon class="clear" points="157.9 359.4 148.83 357.94 142.49 364.57 141.07 355.52 132.79 351.54 140.99 347.4 142.22 338.32 148.7 344.82 157.73 343.17 153.55 351.33"/>
	<path d="m141.81 366.72l-1.6452-10.537-9.6307-4.6202 9.5334-4.8177 1.4281-10.567 7.5374 7.5585 10.513-1.91-4.8754 9.4884 5.0694 9.3866-10.55-1.6942-7.38 7.7116-2.136e-4 7.936e-4zm-6.7567-15.204l6.926 3.3235 1.1829 7.5765 5.3077-5.546 7.5874 1.2188-3.6456-6.7506 3.5062-6.8239-7.5614 1.3734-5.42-5.4355-1.027 7.5998-6.8567 3.4639 3.358e-4 1.221e-4z"/>
	<polygon class="clear" points="315.99 375.35 309.93 368.47 300.81 369.56 305.49 361.67 301.64 353.35 310.61 355.36 317.35 349.13 318.2 358.26 326.21 362.73 317.78 366.36"/>
	<path d="m316.59 377.53l-7.0573-8.0064-10.611 1.2609 5.4506-9.171-4.4818-9.6794 10.426 2.3381 7.8413-7.2451 0.99286 10.617 9.328 5.203-9.8127 4.2234-2.0762 10.459-9.15e-5 9.15e-5zm-6.25-10.112l5.0756 5.7584 1.4929-7.5226 7.0573-3.0371-6.708-3.7413-0.71417-7.6351-5.6393 5.2101-7.4974-1.6819 3.2227 6.9616-3.9193 6.5958 7.63-0.9075-2.746e-4 -4.578e-4z"/>
	<polygon class="clear" points="70.974 218.25 55.582 213.08 42.589 222.81 42.756 206.61 29.472 197.28 44.97 192.43 49.752 176.94 59.164 190.15 75.407 189.9 65.722 202.91"/>
	<path d="m41.568 224.82l0.18294-17.702-14.512-10.187 16.93-5.2975 5.2244-16.919 10.281 14.43 17.741-0.27058-10.576 14.215 5.74 16.753-16.817-5.6441-14.193 10.624 1.219e-4 -5.34e-4zm-9.864-27.196l12.057 8.4636-0.1517 14.709 11.793-8.827 13.973 4.6891-4.7692-13.919 8.7874-11.811-14.74 0.22444-8.542-11.989-4.3409 14.058-14.067 4.4016 4.216e-4 2.29e-4z"/>
	<polygon class="clear" points="251.99 322.35 235.94 324.83 228.89 339.43 221.57 324.97 205.47 322.79 216.99 311.37 214.09 295.42 228.54 302.83 242.85 295.14 240.25 311.15"/>
	<path d="m228.91 341.69l-8.0047-15.8-17.582-2.3777 12.585-12.479-3.168-17.42 15.783 8.0876 15.625-8.3897-2.8307 17.478 12.824 12.236-17.533 2.7142-7.6987 15.952 6.1e-5 -4.577e-4zm-21.303-19.612l14.608 1.975 6.6517 13.127 6.3959-13.253 14.568-2.2556-10.655-10.166 2.3515-14.521-12.981 6.9709-13.114-6.7194 2.6315 14.474-10.457 10.369-3.05e-5 -2.44e-4z"/>
	<polygon class="clear" points="363.18 322.33 349.45 313.68 334.52 320.06 338.52 304.35 327.83 292.16 344.03 291.1 352.35 277.18 358.37 292.24 374.21 295.83 361.71 306.19"/>
	<path d="m364.36 324.25l-15.001-9.4552-16.309 6.9709 4.375-17.157-11.683-13.324 17.705-1.1492 9.0887-15.206 6.5671 16.447 17.3 3.9264-13.646 11.315 1.6035 17.632-2.441e-4 5.493e-4zm-14.821-11.703l12.463 7.8553-1.3327-14.649 11.339-9.4013-14.375-3.2625-5.4564-13.665-7.5507 12.633-14.711 0.95563 9.708 11.07-3.6355 14.256 13.551-5.7922-1.831e-4 2.136e-4z"/>
	<polygon points="111.25 70.77 112.37 75.967 116.11 79.741 110.91 80.852 107.12 84.592 106.01 79.394 102.26 75.621 107.47 74.51"/>
	<polygon points="53.309 122.19 56.844 126.16 61.971 127.61 57.987 131.14 56.54 136.25 53.004 132.28 47.878 130.84 51.862 127.3"/>
	<polygon points="130.97 177.54 134.84 181.2 140.07 182.2 136.4 186.06 135.39 191.28 131.53 187.62 126.3 186.61 129.97 182.76"/>
	<polygon points="59.643 252.34 61.11 257.45 65.108 260.96 59.987 262.42 56.467 266.41 55 261.3 51.002 257.79 56.123 256.33"/>
	<polygon points="169.34 300.06 171.79 304.77 176.41 307.42 171.69 309.88 169.03 314.48 166.57 309.77 161.96 307.12 166.69 304.67"/>
	<polygon points="232.14 363.09 236.3 366.41 241.6 366.97 238.27 371.12 237.71 376.41 233.55 373.09 228.25 372.53 231.58 368.37"/>
	<polygon points="290.04 279.98 291.15 285.18 294.9 288.95 289.69 290.07 285.91 293.81 284.79 288.62 281.05 284.84 286.25 283.72"/>
	<polygon points="364.61 348.94 366.86 353.75 371.36 356.59 366.53 358.84 363.69 363.34 361.43 358.52 356.93 355.68 361.76 353.43"/>
</svg>
