<?xml version="1.0" encoding="utf-8"?>
<!-- Generator: Adobe Illustrator 21.0.2, SVG Export Plug-In . SVG Version: 6.00 Build 0)  -->
<svg version="1.1" id="Layer_1" xmlns="http://www.w3.org/2000/svg" xmlns:xlink="http://www.w3.org/1999/xlink" x="0px" y="0px"
	 viewBox="0 0 262.2 33" style="enable-background:new 0 0 262.2 33;" xml:space="preserve">
<style type="text/css">
	.st0{fill:#FFFFFF;}
</style>
<g>
	<path class="st0" d="M16.8,7.3l-5,10.2H9.2l-5-10.2v11.8H0V0.4h5.6l4.8,10.3l4.8-10.3h5.6v18.7h-4.2V7.3z"/>
	<path class="st0" d="M38.8,19.1l-1.7-4h-7.8l-1.7,4h-4.4l8.1-18.7h4l8.1,18.7H38.8z M33.2,6l-2.4,5.4h4.7L33.2,6z"/>
	<path class="st0" d="M45.4,0.4h4.2v18.7h-4.2V0.4z"/>
	<path class="st0" d="M67.2,0.4h4.2v18.7h-4.2L58.4,7.4v11.7h-4.2V0.4h3.9l9.2,12V0.4z"/>
	<path class="st0" d="M80.4,4.2c-0.4,0.3-0.6,0.8-0.6,1.3c0,0.5,0.2,1,0.7,1.3c0.5,0.3,1.6,0.7,3.4,1.1c1.8,0.4,3.1,1.1,4.1,2
		c1,0.9,1.5,2.1,1.5,3.8c0,1.7-0.6,3-1.9,4.1c-1.3,1-2.9,1.6-5,1.6c-3,0-5.6-1.1-8-3.3l2.5-3c2,1.8,3.9,2.6,5.6,2.6
		c0.8,0,1.4-0.2,1.8-0.5c0.4-0.3,0.7-0.8,0.7-1.3c0-0.6-0.2-1-0.7-1.3c-0.5-0.3-1.4-0.7-2.8-1c-2.2-0.5-3.8-1.2-4.8-2
		c-1-0.8-1.5-2.1-1.5-3.9c0-1.8,0.6-3.1,1.9-4.1c1.3-1,2.9-1.4,4.8-1.4c1.2,0,2.5,0.2,3.7,0.6c1.2,0.4,2.3,1,3.3,1.8l-2.1,3
		c-1.6-1.2-3.3-1.8-5-1.8C81.3,3.7,80.8,3.8,80.4,4.2z"/>
	<path class="st0" d="M101,4v15.1h-4.2V4h-5.3V0.4h14.7V4H101z"/>
	<path class="st0" d="M124.4,6.6c0,3-1.2,4.9-3.6,5.8l4.7,6.7h-5.1l-4.1-6h-2.9v6h-4.2V0.4h7.1c2.9,0,5,0.5,6.2,1.5
		C123.8,2.9,124.4,4.5,124.4,6.6z M119.4,8.8c0.5-0.5,0.8-1.2,0.8-2.2c0-1-0.3-1.7-0.8-2.1c-0.5-0.4-1.5-0.6-2.8-0.6h-3.1v5.5h3
		C117.9,9.5,118.9,9.3,119.4,8.8z"/>
	<path class="st0" d="M142.2,0.4v3.7h-9.3V8h8.4v3.6h-8.4v3.9h9.6v3.7h-13.8V0.4H142.2z"/>
	<path class="st0" d="M159.6,0.4v3.7h-9.3V8h8.4v3.6h-8.4v3.9h9.6v3.7h-13.8V0.4H159.6z"/>
	<path class="st0" d="M171.6,4v15.1h-4.2V4h-5.3V0.4h14.7V4H171.6z"/>
	<path class="st0" d="M191.5,0.4h4.2v18.7h-4.2v-7.3h-7.4v7.3h-4.2V0.4h4.2v7.8h7.4V0.4z"/>
	<path class="st0" d="M216,16.5c-1.9,1.8-4.2,2.8-7,2.8s-5.1-0.9-7-2.8c-1.9-1.8-2.8-4.1-2.8-6.9c0-2.7,0.9-5,2.8-6.9
		c1.9-1.8,4.2-2.8,7-2.8s5.1,0.9,7,2.8c1.9,1.8,2.8,4.1,2.8,6.9C218.8,12.4,217.8,14.7,216,16.5z M214.5,9.7c0-1.7-0.5-3.1-1.6-4.3
		c-1.1-1.2-2.4-1.8-3.9-1.8c-1.6,0-2.9,0.6-3.9,1.8c-1.1,1.2-1.6,2.6-1.6,4.3c0,1.7,0.5,3.1,1.6,4.2c1.1,1.2,2.4,1.7,3.9,1.7
		c1.6,0,2.9-0.6,3.9-1.7C214,12.7,214.5,11.3,214.5,9.7z"/>
	<path class="st0" d="M226.7,4.2c-0.4,0.3-0.6,0.8-0.6,1.3c0,0.5,0.2,1,0.7,1.3c0.5,0.3,1.6,0.7,3.4,1.1c1.8,0.4,3.1,1.1,4.1,2
		c1,0.9,1.5,2.1,1.5,3.8c0,1.7-0.6,3-1.9,4.1c-1.3,1-2.9,1.6-5,1.6c-3,0-5.6-1.1-8-3.3l2.5-3c2,1.8,3.9,2.6,5.6,2.6
		c0.8,0,1.4-0.2,1.8-0.5c0.4-0.3,0.7-0.8,0.7-1.3c0-0.6-0.2-1-0.7-1.3c-0.5-0.3-1.4-0.7-2.8-1c-2.2-0.5-3.8-1.2-4.8-2
		c-1-0.8-1.5-2.1-1.5-3.9c0-1.8,0.6-3.1,1.9-4.1c1.3-1,2.9-1.4,4.8-1.4c1.2,0,2.5,0.2,3.7,0.6c1.2,0.4,2.3,1,3.3,1.8l-2.1,3
		c-1.6-1.2-3.3-1.8-5-1.8C227.6,3.7,227.1,3.8,226.7,4.2z"/>
	<path class="st0" d="M247.3,4v15.1h-4.2V4h-5.3V0.4h14.7V4H247.3z"/>
</g>
<g>
	<path class="st0" d="M7.1,24.8c0.9,0.8,1.3,1.9,1.3,3.4c0,1.5-0.4,2.6-1.3,3.4c-0.9,0.8-2.2,1.3-4,1.3H0v-9.3h3.2
		C4.9,23.6,6.2,24,7.1,24.8z M6.8,28.2c0-2.1-1.2-3.2-3.7-3.2H1.6v6.4h1.7c1.1,0,2-0.3,2.6-0.8C6.5,30.1,6.8,29.3,6.8,28.2z"/>
	<path class="st0" d="M12.6,23.6h1.6v9.3h-1.6V23.6z"/>
	<path class="st0" d="M25.4,28.4H27v3.2c-0.9,1-2.1,1.5-3.8,1.5c-1.4,0-2.5-0.5-3.5-1.4c-0.9-0.9-1.4-2.1-1.4-3.4
		c0-1.4,0.5-2.5,1.4-3.5c0.9-0.9,2.1-1.4,3.4-1.4c1.3,0,2.5,0.4,3.4,1.2l-0.8,1.2c-0.4-0.3-0.7-0.5-1.1-0.6
		c-0.4-0.1-0.8-0.2-1.3-0.2c-0.9,0-1.7,0.3-2.4,0.9c-0.6,0.6-1,1.4-1,2.4s0.3,1.8,0.9,2.4c0.6,0.6,1.4,0.9,2.3,0.9
		c0.9,0,1.6-0.2,2.2-0.6V28.4z"/>
	<path class="st0" d="M31.2,23.6h1.6v9.3h-1.6V23.6z"/>
	<path class="st0" d="M41,25v7.9h-1.6V25h-2.8v-1.4h7.2V25H41z"/>
	<path class="st0" d="M49,30.8l-0.9,2.1h-1.7l4.1-9.3h1.7l4.1,9.3h-1.7l-0.9-2.1H49z M53.1,29.3l-1.7-3.8l-1.7,3.8H53.1z"/>
	<path class="st0" d="M59.8,32.9v-9.3h1.6v7.8h4.3v1.5H59.8z"/>
	<path class="st0" d="M76.9,32.9h-1.6v-9.3h2.5l2.8,5.9l2.8-5.9h2.4v9.3h-1.6v-7.3L81,32.1h-0.9l-3.2-6.5V32.9z"/>
	<path class="st0" d="M91.9,30.8L91,32.9h-1.7l4.1-9.3h1.7l4.1,9.3h-1.7l-0.9-2.1H91.9z M95.9,29.3l-1.7-3.8l-1.7,3.8H95.9z"/>
	<path class="st0" d="M110.1,26.6c0,1.5-0.7,2.5-2,2.9l2.4,3.4h-2l-2.2-3.1h-2.1v3.1h-1.6v-9.3h3.5c1.4,0,2.4,0.2,3.1,0.7
		C109.8,24.8,110.1,25.5,110.1,26.6z M108,27.9c0.3-0.3,0.5-0.7,0.5-1.3c0-0.6-0.2-1-0.5-1.3c-0.3-0.2-0.9-0.3-1.8-0.3h-2v3.3h2
		C107.1,28.3,107.7,28.2,108,27.9z"/>
	<path class="st0" d="M114.5,23.6h1.6v4.6l4.3-4.6h2l-3.8,4.1l3.8,5.2h-1.9l-3.1-4.1l-1.4,1.5v2.6h-1.6V23.6z"/>
	<path class="st0" d="M132.6,23.6V25h-5v2.5h4.5v1.4h-4.5v2.5h5.1v1.5h-6.7v-9.3H132.6z"/>
	<path class="st0" d="M140.5,25v7.9h-1.6V25h-2.8v-1.4h7.2V25H140.5z"/>
	<path class="st0" d="M147.2,23.6h1.6v9.3h-1.6V23.6z"/>
	<path class="st0" d="M160.5,23.6h1.6v9.3h-1.7l-5.3-6.8v6.8h-1.6v-9.3h1.6l5.4,7V23.6z"/>
	<path class="st0" d="M173.3,28.4h1.6v3.2c-0.9,1-2.1,1.5-3.8,1.5c-1.4,0-2.5-0.5-3.5-1.4c-0.9-0.9-1.4-2.1-1.4-3.4
		c0-1.4,0.5-2.5,1.4-3.5c0.9-0.9,2.1-1.4,3.4-1.4c1.3,0,2.5,0.4,3.4,1.2l-0.8,1.2c-0.4-0.3-0.7-0.5-1.1-0.6
		c-0.4-0.1-0.8-0.2-1.3-0.2c-0.9,0-1.7,0.3-2.4,0.9c-0.6,0.6-1,1.4-1,2.4s0.3,1.8,0.9,2.4c0.6,0.6,1.4,0.9,2.3,0.9s1.6-0.2,2.2-0.6
		V28.4z"/>
	<path class="st0" d="M186.2,30.8l-0.9,2.1h-1.7l4.1-9.3h1.7l4.1,9.3h-1.7l-0.9-2.1H186.2z M190.2,29.3l-1.7-3.8l-1.7,3.8H190.2z"/>
	<path class="st0" d="M203.4,28.4h1.6v3.2c-0.9,1-2.1,1.5-3.8,1.5c-1.4,0-2.5-0.5-3.5-1.4c-0.9-0.9-1.4-2.1-1.4-3.4
		c0-1.4,0.5-2.5,1.4-3.5c0.9-0.9,2.1-1.4,3.4-1.4c1.3,0,2.5,0.4,3.4,1.2l-0.8,1.2c-0.4-0.3-0.7-0.5-1.1-0.6
		c-0.4-0.1-0.8-0.2-1.3-0.2c-0.9,0-1.7,0.3-2.4,0.9c-0.6,0.6-1,1.4-1,2.4s0.3,1.8,0.9,2.4c0.6,0.6,1.4,0.9,2.3,0.9s1.6-0.2,2.2-0.6
		V28.4z"/>
	<path class="st0" d="M215.7,23.6V25h-5v2.5h4.5v1.4h-4.5v2.5h5.1v1.5h-6.7v-9.3H215.7z"/>
	<path class="st0" d="M227.1,23.6h1.6v9.3h-1.7l-5.3-6.8v6.8h-1.6v-9.3h1.6l5.4,7V23.6z"/>
	<path class="st0" d="M237.6,31.5c0.5,0,1-0.1,1.4-0.3c0.4-0.2,0.8-0.5,1.2-0.9l1,1c-1,1.1-2.2,1.6-3.6,1.6s-2.6-0.5-3.5-1.4
		c-0.9-0.9-1.4-2.1-1.4-3.4c0-1.4,0.5-2.5,1.4-3.5c0.9-0.9,2.1-1.4,3.6-1.4c1.4,0,2.7,0.5,3.6,1.6l-1,1.1c-0.4-0.4-0.9-0.7-1.3-0.9
		c-0.4-0.2-0.9-0.3-1.4-0.3c-0.9,0-1.7,0.3-2.4,0.9c-0.6,0.6-1,1.4-1,2.3c0,0.9,0.3,1.7,1,2.4C236,31.1,236.8,31.5,237.6,31.5z"/>
	<path class="st0" d="M249,32.9h-1.6v-3.7l-3.5-5.7h1.7l2.6,4.2l2.6-4.2h1.7l-3.5,5.7V32.9z"/>
</g>
<g>
	<path class="st0" d="M261.1,1.5c0.8,0.8,1.1,1.7,1.1,2.7c0,1.1-0.4,2-1.1,2.7c-0.8,0.8-1.7,1.1-2.7,1.1s-2-0.4-2.7-1.1
		c-0.7-0.8-1.1-1.7-1.1-2.7c0-1.1,0.4-2,1.1-2.7c0.8-0.8,1.7-1.1,2.7-1.1C259.4,0.4,260.3,0.8,261.1,1.5z M260.5,6.4
		c0.6-0.6,0.9-1.3,0.9-2.1s-0.3-1.5-0.9-2.1c-0.6-0.6-1.3-0.9-2.2-0.9c-0.8,0-1.6,0.3-2.2,0.9c-0.6,0.6-0.9,1.3-0.9,2.2
		c0,0.8,0.3,1.6,0.9,2.2c0.6,0.6,1.3,0.9,2.2,0.9C259.2,7.3,259.9,7,260.5,6.4l-1.3,0l-0.9-1.3h-0.5v1.3h-1.2V2.1h1.7
		c0.7,0,1.2,0.1,1.5,0.4c0.3,0.2,0.4,0.6,0.4,1.1c0,0.6-0.3,1.1-0.9,1.3L260.5,6.4z M259,4c0.1-0.1,0.1-0.2,0.1-0.4
		c0-0.2-0.1-0.3-0.2-0.4c-0.1-0.1-0.3-0.1-0.5-0.1h-0.6v1.1h0.6C258.7,4.1,258.9,4.1,259,4z"/>
</g>
</svg>
