<?xml version="1.0" encoding="utf-8"?>
<svg enable-background="new 0 0 400 400" version="1.1" viewBox="0 0 400 400" xml:space="preserve" width="400px" height="400px" xmlns="http://www.w3.org/2000/svg">
<style type="text/css">
	.clear{fill:#fff;}
	svg{fill:#253746;}
</style>
<polygon class="clear" points="96.007 128.53 2.4521 207.52 96.007 286.67 117.67 264.65 48.815 207.25 117.67 150.54"/>
<polygon class="clear" points="137.53 313.42 170.43 313.42 267.45 86.586 234.42 86.586"/>
<polygon class="clear" points="303.99 127.79 282.47 149.8 351.19 207.07 282.47 263.92 303.99 285.93 397.55 206.79"/>
<path d="m96.107 126.37l-96.107 81.15 96.107 81.297 23.889-24.287-68.7-57.28 68.707-56.593-23.895-24.291-6.561e-4 0.0040207zm19.222 138.4l-19.419 19.742-8.994-7.6078 10.087-1.2228-13.325-1.5156-5.7244-4.8423 12.301-1.2457-15.493-1.4537-5.7138-4.8332 15.117-1.3164-18.408-1.4676-5.5986-4.7357 15.161-1.3205-18.463-1.4719-5.6879-4.8113 14.647-1.2755-17.835-1.4216-5.702-4.8237 15.481-1.3482-18.851-1.5028-5.6185-4.7523 14.966-1.3037-18.224-1.4527-5.6565-4.7846 15.168-1.3212-18.47-1.4724-5.563-4.7057 15.451-1.3459-18.815-1.4997-5.7436-4.8584 15.055-1.2003-15.08-1.3134 5.6044-4.7326 18.979-1.5127-15.581-1.3569 5.5458-4.6828 18.617-1.4842-15.283-1.331 5.6424-4.7643 18.353-1.4631-15.067-1.3125 5.6074-4.7345 18.963-1.5117-15.568-1.3559 5.6945-4.8085 17.93-1.4293-14.719-1.2819 5.6831-4.7989 18.54-1.4777-15.219-1.3258 5.5967-4.726 18.468-1.472-15.161-1.3205 5.7141-4.8249 15.537-1.4581-12.331-1.2485 5.7272-4.8363 13.352-1.5187-10.103-1.2244 9.0094-7.6078 19.413 19.737-68.987 56.822 68.994 57.528-0.0015182-3.357e-4z"/>
<path d="m135.13 315h36.333l98.387-230h-36.476l-98.24 230h-0.0033416zm100.33-226.83h29.597l-95.674 223.66h-29.461l1.8513-4.3344 13.704-1.5315-12.455-1.3915 2.4091-5.6404 12.967-1.4487-11.785-1.317 2.4135-5.6502 13.545-1.5135-12.311-1.3757 2.3723-5.5533 13.887-1.552-12.621-1.4103 2.3813-5.5748 13.385-1.4955-12.165-1.3595 2.3864-5.5875 13.727-1.5338-12.477-1.3941 2.3958-5.6088 13.226-1.478-12.021-1.343 2.4012-5.6214 13.568-1.5162-12.332-1.3782 2.4885-5.825v0.30768l14.187-1.5853-13.019-1.455 2.3866-5.5862v0.14552l14.187-1.5853-12.953-1.4477 2.3274-5.4486 14.179-1.5847-12.887-1.4399 2.3339-5.4644 14.107-1.5762-12.821-1.4326 2.3405-5.4802 14.035-1.5681-12.756-1.4255 2.3472-5.4952 13.962-1.5603-12.69-1.4179 2.3541-5.5107 13.889-1.552-12.624-1.4108 2.3603-5.5264 13.817-1.5436-12.558-1.4034 2.3671-5.5415 13.745-1.5361-12.492-1.3956 2.3733-5.5573 13.672-1.5276-12.426-1.3887 2.3804-5.5724 13.599-1.5197-12.36-1.3811 2.3867-5.5881 13.527-1.5117-12.295-1.3737 2.3935-5.6035 13.455-1.5032-12.229-1.3664 2.4003-5.6193 13.382-1.4951-12.163-1.3592 2.4066-5.6343 13.309-1.4874-12.097-1.3515 2.4135-5.6501 13.237-1.479-12.031-1.3444 2.4197-5.6653 13.165-1.4711-11.965-1.337 2.4265-5.6808 13.092-1.4631-11.899-1.3294 1.8986-4.4446 3.358e-4 0.0026703z"/>
<path d="m303.89 125.63l-23.743 24.291 61.754 51.466-4.272e-4 0.095413 0.10492-0.0081329 6.704 5.5872-68.567 56.727 23.745 24.298 96.114-81.297-96.114-81.157 0.0015259-0.0025634zm-19.081 138.4l2.3999-1.9853v0.0052185l19.001-1.6549-15.513-1.2366 5.6017-4.6347 18.176-1.5829-14.834-1.1828 5.7363-4.7453 18.721-1.6306-15.279-1.2182 5.7802-4.7821 18.296-1.5932-14.931-1.1905 5.7348-4.7444 18.645-1.6239-15.216-1.2127 5.7482-4.7558 18.257-1.5899-14.9-1.1878 5.7498-4.757 18.93-1.6488-15.449-1.2317 5.8701-4.856 17.579-1.4012-16.328-1.4221-6.0698-5.0589 14.397-1.1474-17.614-1.5343-5.6788-4.7326 14.897-1.1874-18.227-1.5872-5.7151-4.7637 15.152-1.2075-18.538-1.6145-5.7163-4.7641 14.805-1.1801-18.115-1.5779-5.8026-4.8359 14.797-1.1799-18.105-1.5768-5.7498-4.792 15.802-1.2596-19.001-1.6547-7.935e-4 0.2473-5.8231-4.8527 14.977-1.1938-18.323-1.5959-4.1296-3.4417 19.288-19.737 91 76.841-91 76.981-19.285-19.73h0.0015262z"/>
</svg>
