<?xml version="1.0" encoding="utf-8"?>
<svg enable-background="new 0 0 400 400" version="1.1" viewBox="0 0 400 400" xml:space="preserve" width="400px" height="400px" xmlns="http://www.w3.org/2000/svg">
	<style type="text/css">
		.dark-shade{fill:#bbbfc3;}
		svg{fill:#253746;}
		.clear{fill:#fff;}
		.shade{fill:#dfe1e3;}
		.reflection{fill:#f1f2f3;}
	</style>
	<path class="dark-shade" d="m350.1 301c-2.2-0.5-34.5-7-34.5-7l9 0.1s-0.7-1.5-3.9-1.6-12.1 0-12.1 0l-4.1-0.5v-56.6l-5.7-0.1v56.7l-26.2 2.3s-2.9-0.2-3.4 2.7c3.4-0.1 14.8-0.3 14.8-0.3l-19.2 3.3s-3.9 1-5.4 4.3c1.1 0.8 3.1 1.4 5.4 1 2.3-0.3 33.4-4.7 33.4-4.7s2.4 1.1 3.8 0.5c1.3 1.4 7.6 7.6 7.6 7.6s3.1 2.2 7.5 0.3c0.8-0.5 2-1.1 0.6-3-0.2-0.6-1.9-2.4-4.6-5 3.6 0.2 36.2 1.8 36.2 1.8s2.9 0.2 0.8-1.8z"/>
	<path d="m399.8 226.5l-1-149.5-57.6 3.5v-3.7l-3-0.9h-0.1l-78.9 5.3v4.3l-55.9 3.5v137.5l-9 2.2h-0.4l-0.1 6.2 104.4 0.5v56.2c-10.3 0.8-25.5 2.1-27 2.5-2.1 0.5-2.3 2.8-2.3 2.9v0.5h0.2c-0.3 0.4-0.6 0.9-0.6 1.5l-1.6 0.3-2.2 0.4-0.6 0.1c-0.2 0-0.4 0.1-0.6 0.2-0.4 0.2-0.7 0.4-1.1 0.6-0.6 0.5-1.2 1.1-1.7 1.6-0.5 0.6-1 1.2-1.4 1.9l-0.1 0.1v0.2c0 0.2 0.1 0.4 0.2 0.5l0.3 0.3 0.1 0.1c-1.2 0.7-2 1.9-2 3.4 0 2.1 1.7 3.9 3.9 3.9 0.3 0 0.6 0 1-0.1 0.7-0.1 1.3-0.3 1.9-0.5 0.7-0.2 1.3-0.5 1.9-0.8h0.1c1-0.8 1.6-2 1.5-3.3 0-0.6-0.2-1.3-0.5-1.8-0.1-0.1-0.2-0.3-0.2-0.4l13.6-1.9 8.7-1.2c2.9-0.4 5.7-0.8 8.5-1.3 0.6 0.4 1.3 0.5 1.9 0.6h1c0.3 0 0.5 0 0.8-0.1 1.2 1.3 2.3 2.5 3.5 3.7l1.9 1.9c0.6 0.6 1.3 1.3 2 1.8h0.1c0.3 0.1 0.6 0.3 0.9 0.4-0.7 0.7-1.2 1.7-1.2 2.8 0 2.1 1.7 3.9 3.9 3.9 0.3 0 0.7-0.1 1-0.1s0.5-0.1 0.8-0.2 0.7-0.2 1-0.3c0.7-0.2 1.3-0.5 2-0.8h0.1c1-0.8 1.6-2 1.5-3.3 0-0.6-0.2-1.3-0.5-1.8l-0.6-0.9c0.2-0.3 0.4-0.7 0.4-1.1 0-0.2 0-0.4-0.1-0.6s-0.1-0.3-0.2-0.5c-0.2-0.2-0.3-0.4-0.6-0.6v-0.2c0-0.2-0.1-0.4-0.2-0.6l-2.4-2.4c-0.6-0.6-1.2-1.1-1.7-1.7 2.9 0.4 5.8 0.6 8.7 0.8l9.3 0.5c3.1 0.2 6.2 0.3 9.3 0.5 0.7 0 1.4 0.1 2.1 0.1-0.7 0.7-1.2 1.7-1.2 2.7 0 2.1 1.7 3.9 3.9 3.9 0.5 0 1.1-0.1 1.6-0.4 1.1-0.3 2.1-0.6 3.2-1h0.1l0.1-0.1c1-0.8 1.5-2 1.5-3.3 0-0.6-0.2-1.2-0.5-1.8-0.1-0.3-0.3-0.5-0.5-0.7 0.1-0.2 0.1-0.4 0.1-0.6 0-0.3-0.1-0.5-0.2-0.8-0.1-0.1-0.1-0.2-0.2-0.3l-0.2-0.3-0.1-0.1h-0.1l-0.7-0.2-0.7-0.2-1.4-0.3-2.8-0.6-5.7-1.2-11.4-2.3-2.1-0.4c0-0.2-0.1-0.5-0.2-0.7h0.2l-0.4-0.7c-0.8-1.7-3.5-1.8-3.6-1.8l-14.5-0.3c-0.6-0.1-1.2-0.2-1.8-0.2l0.2-56.2 84.4 0.4h0.5v-0.2l9.7-4.1v-5.1l-0.3 0.3zm-61.6-149.4l2 0.6v5l-2 0.4v-6zm-78.1 5.2l77.1-5.2v6.2l-77.1 4.6v-5.6zm-54.9 8.6l53.8-3.3v1.3l78.9-4.7h0.2l3-0.7v-0.9l55.7-3.4 1 146.7-93.2-0.2h-5.7l-93.7-0.7v-134.1zm65.3 206.6h2.1c0.3 0.2 0.6 0.4 0.9 0.7l-4.1 0.7c0.2-0.6 0.6-1.1 1.1-1.4zm-12.3 11.2c0-1.4 0.8-2.6 2.1-3.1 0.3 0.1 0.6 0.2 0.9 0.3 0.7 0.2 1.4 0.3 2.1 0.3h0.1 0.3c0.7 0.6 1.2 1.6 1.2 2.6 0 1.3-0.8 2.5-1.9 3.1-0.4 0.2-0.9 0.3-1.4 0.3-1.9-0.2-3.4-1.7-3.4-3.5zm8.5 0.5c-0.2 0.4-0.4 0.8-0.8 1.1-0.4 0.2-0.8 0.4-1.3 0.7 0.5-0.7 0.8-1.5 0.8-2.3 0-1-0.4-1.9-1-2.6l1.7-0.2c0.2 0.2 0.4 0.5 0.5 0.7 0.2 0.4 0.3 0.9 0.3 1.3 0.1 0.4 0 0.9-0.2 1.3zm43 3.4c0-1 0.4-1.9 1.2-2.6 0.1 0.1 0.3 0.1 0.5 0.2 0.7 0.2 1.4 0.2 2.1 0.2s1.3-0.1 2-0.2c0.6 0.6 1 1.5 1 2.4 0 1.3-0.8 2.5-1.9 3.1-0.4 0.2-0.9 0.3-1.4 0.3-2 0-3.5-1.6-3.5-3.4zm8.4 0.5c-0.2 0.4-0.4 0.8-0.8 1.1l-1.2 0.6c0.5-0.6 0.7-1.4 0.7-2.2 0-0.9-0.3-1.8-0.9-2.5 0.5-0.1 0.9-0.2 1.3-0.3 0.1 0 0.2-0.1 0.3-0.1 0.2 0.2 0.4 0.5 0.5 0.8 0.2 0.4 0.3 0.9 0.3 1.3 0.1 0.4 0 0.9-0.2 1.3zm24.1-7c0-1.1 0.5-2.1 1.4-2.7 1.4 0.1 2.8 0.1 4.2 0.2 0.7 0.6 1.2 1.5 1.2 2.5 0 1.2-0.7 2.3-1.7 2.9l-0.6 0.3c-0.3 0.1-0.7 0.2-1 0.2-2-0.1-3.5-1.6-3.5-3.4zm8.1-2.5l0.1-0.1c0.4 0.5 0.6 1.1 0.6 1.7 0 0.9-0.4 1.9-1.1 2.5l-1.2 0.6c0.5-0.6 0.7-1.4 0.7-2.2 0-0.9-0.3-1.8-0.9-2.5 0.5 0 1.1 0 1.6 0.1l0.2-0.1zm-26-8.6v0.2l-1-0.2c-0.1-0.1-0.1-0.2-0.2-0.3h1c0.1 0.1 0.1 0.2 0.2 0.3zm-0.8-1.3h-6.5l-0.9-0.2c-0.9-0.2-1.9-0.4-2.8-0.6l8.1 0.1c0.5 0.1 1.4 0.3 2.1 0.7zm-0.8 1.2l-0.9-0.2h-0.2 0.9c0.1 0 0.2 0.1 0.2 0.2zm-16.1-2.1h0.3c1.1 0.2 2.2 0.3 3.3 0.5 1.9 0.3 3.8 0.7 5.7 1.1l2.8 0.6c1 0.2 1.9 0.4 2.9 0.6l5.7 1.1 11.4 2.3 5.7 1.2 2.8 0.6 1.4 0.3 0.7 0.2 0.5 0.1 0.1 0.1c0 0.1 0.1 0.1 0.1 0.2 0.1 0.1 0.1 0.3 0.1 0.4v0.2l-0.2 0.3c-3-0.2-6-0.4-9-0.5-3.1-0.2-6.2-0.3-9.3-0.5l-9.3-0.4c-3-0.1-6.1-0.2-9.1-0.1-0.1-0.1-0.3-0.2-0.4-0.4l-2.5-2.3c-0.8-0.7-1.7-1.5-2.5-2.2 0.8 0.8 1.5 1.6 2.3 2.4l2.4 2.4 2.4 2.4 1.2 1.2c0.4 0.4 0.8 0.8 1.2 1.1 0.1 0.2 0.1 0.3 0.1 0.5s0 0.3-0.1 0.4l-0.3 0.3c-0.1 0.1-0.3 0.1-0.4 0.2l-3.7 0.1c-0.6 0-1.2-0.1-1.8-0.3-0.5-0.2-1.1-0.5-1.5-0.8l-3.6-3.8c-0.6-0.6-1.2-1.3-1.9-1.9-0.6-0.6-1.3-1.2-1.9-1.8 0.5 0.7 1.1 1.4 1.7 2 0.6 0.7 1.2 1.3 1.8 2l3.6 3.8c0.5 0.5 1.1 0.8 1.7 1s1.3 0.3 1.9 0.3c1.2 0 2.5-0.1 3.7-0.1 0.2-0.1 0.4-0.1 0.6-0.3 0.1-0.1 0.2-0.1 0.3-0.2v0.2c0 0.2 0.1 0.3 0.1 0.4s0.1 0.2 0.1 0.3c0 0.2-0.1 0.3-0.2 0.5-0.1 0.1-0.4 0.3-0.5 0.3-0.6 0.2-1.2 0.3-1.8 0.4s-1.3 0.2-1.9 0.2-1.2 0-1.8-0.2c-0.5-0.1-1-0.4-1.6-0.7-0.7-0.5-1.3-1.1-1.9-1.8l-1.9-1.9c-1.2-1.3-2.5-2.6-3.7-3.9l-0.2-0.2h-0.3c-0.3 0-0.6 0.1-0.9 0.1h-0.9c-0.6-0.1-1.2-0.2-1.6-0.5l-0.1-0.1-0.2-3.4-0.2 3.3c-2.8 0.5-5.7 0.9-8.6 1.3l-8.7 1.2-14.3 2-0.1-0.1-0.1 0.2-2.8 0.4c-0.7-0.1-1.3-0.1-2-0.3-0.3-0.1-0.6-0.2-0.9-0.3-0.1-0.1-0.3-0.1-0.4-0.2 0.8-1.1 1.7-2.2 2.7-3 0.3-0.2 0.6-0.4 0.9-0.5 0.1-0.1 0.3-0.1 0.4-0.1l0.5-0.1 2.2-0.4 8.9-1.5c3-0.5 6-0.9 9-1.4s5.9-1.1 8.9-2c-2.9 0.1-5.7 0.4-8.6 0.8l-15.1 0.3c0.2-0.5 0.5-1.3 1.4-1.5 1.3-0.3 15.8-1.6 27-2.5v1.9l0.2 0.1c0.1 0.1 1.4 0.9 3.2 0.9 0.9 0 2-0.2 3-0.9l0.3-0.1v-1.9c0.7 0.3 1.2 0.3 1.6 0.4zm-32.5 4.6h1c0.1 0.1 0.2 0.3 0.3 0.4l-0.9 0.1c-0.1-0.1-0.2-0.3-0.4-0.5zm2.2 0h2.1l-2 0.3c0-0.1-0.1-0.2-0.1-0.3zm23.1-3.4v-58.6h4.8v58.6c-2.1 1.2-4.1 0.3-4.8 0zm89.9-59.1l-194.5-1v-4.3l194.5 1v4.3zm0.5-5.3l-191.3-1 6.6-1.6v-0.2l93.9 0.7h5.7l91 0.2-5.9 1.9zm9.2 1.3l-8.7 3.7v-4.2l8.7-2.7v3.2z"/>
	<path d="m288.5 297.6l-8.4 1.5-8.4 1.5c-1.4 0.3-2.8 0.5-4.2 0.8-1.4 0.2-2.8 0.8-3.8 1.9 1-1 2.4-1.5 3.8-1.7s2.8-0.4 4.2-0.6c2.8-0.4 5.6-1 8.4-1.4 2.8-0.5 5.6-1 8.4-1.6l4.2-0.8 4.2-0.9c-1.4 0.2-2.8 0.4-4.2 0.6l-4.2 0.7z"/>
	<path d="m320.8 297.1c1.7 0.2 3.4 0.5 5.1 0.7l2.6 0.3c0.9 0.1 1.7 0.2 2.6 0.2-0.8-0.2-1.7-0.3-2.5-0.5l-2.5-0.4c-1.7-0.3-3.4-0.5-5.1-0.8-1.7-0.2-3.4-0.5-5.1-0.7s-3.4-0.4-5.1-0.5c1.7 0.3 3.4 0.6 5.1 0.9 1.5 0.3 3.2 0.6 4.9 0.8z"/>
	<path class="clear" d="m290.9 147.1c-12.9 4.3-37.4 12.5-37.4 12.5s-0.7-1.3-1.2-1.4-1.1-0.3-1.1-0.3-5.1-8.5-11.6-8c-3.8-0.8-6.3 2.5-6.3 2.5l-6 1.9-16 6.9s-2.8 3-3.3 5c-2.2 0.8-4.4 1.6-4.4 1.6l-0.5 1.4-3.5 1-2.2-12.2s2.3-2 2.5-2.3c0.2-0.2 0.2-7-1.6-9.8s-3.6-4.9-7.2-6.3c0-2.1-1.9-10-4.2-13.3-3.4-2.9-15.1-6.8-28.3-8.2-1-0.1-3.3 0-3.3 0l-0.2-2.8v-13.4s-0.8-3.5-3-3.9c-2.1-0.4-7.3-1.6-7.3-1.6l-0.9-2.9s-0.7-1.1-1.7-1.1c-0.4 0-1.4 0.4-1.8 1.2-0.3 0.8-0.7 2-0.7 2l-1-0.1-0.4-3.8s-0.2-1.1-1.1-1.1h-2.2s-0.8 0-1 0.9c-0.1 1.1-0.4 4-0.4 4s-12.7-0.8-22.6 0.9c-0.3-0.7-0.6-2.6-4-2.4-0.2-1.1-1.5-12.2-1.5-12.2s-0.3-1.1-1.4-1.1-1.4 1.2-1.4 1.2l-0.2 12.6s-3.6-0.1-3.8 4.2c-1.9 0.6-8.1 2.1-8.4 4.6-0.2 2.5 1 15.8 1 15.8s1.2 4.5 3.4 4.6c-1.6 0.6-12.8 3.9-17 8.8-4 3.6-11.7 9.9-11.7 9.9s-2.4 3.6-2.9 7c-2.1-0.1-7.6-0.4-11.7 5.5s-3.2 13.2-3.2 13.2 2.3 3.2 4.9 3.9v18.9s-0.9-0.4-2-0.3c-1.2 0.1-24 7.4-24 7.4s-6.6 2.4-7.2 10.6c-2.2 0.2-13.4 1.4-13.4 1.4l-6.4 5.8 0.7 7.7 11.6-0.7 0.1 3.2-8.2 0.5-1 1.3 3.5 6.2 18.2-0.7 2.8-3.4s5.2 5 10.2 4.2 8.2-4.4 8.2-4.4l17.1-11.5s2.5-3.4 2.7-6.3c2.1-1.4 4-2.7 4-2.7l0.8-3.8 3.7-2.8s2.1-2.7-0.2-6.1c-1.5-2.5-2.2-3.8-5-4.2-1.6-0.6-1.4-0.6-1.4-0.6l0.1-16s5.9 13.5 10.8 18.8c4.9 5.4 17.5 16.9 31.9 19.9-2 3.7-1.1 8 1.3 11.5-2.2 2-6 3.8-6 3.8l-13.2-0.5s-5.2 0.1-5.3 8.1c-0.1 7.9 3.4 8.8 5.5 8.7s11.3-0.2 11.3-0.2l8.3 5.3-0.4 2.5-21.8-0.1s-4.6 0-7.8 2.3c-4.2 0-31.4 0.2-31.4 0.2s-9.9 0.1-14.5 6.3c-9.5 13.2-24.4 46.3-24.4 46.3s-3 9.5 0.8 12c2.6 1.5 4.2 2 11 1.8s113.3 0 113.3 0 11.4 0.2 15.8-0.8 21.9-3.1 21.9-3.1 4.2-2.8 5.1-4.6c3.5-0.1 12.8 0 12.8 0s12-1 16.5-1.7c4.6-0.6 14.2-2.4 14.2-2.4s8.4-1.3 8.1-14.1c-0.5-5.6-3.8-23.7-17.2-39.1-6.4-5.6-63-2.9-63-2.9s0.3-4.9-3.2-6.7c-4.2-0.1-7.6 0-7.6 0l-12.4-5.7s1.9-3.4 0.6-6.5c2-1.3 13.5-9.5 13.5-9.5l4.8-0.2s5.6-2.1 2.8-10.2c3-1.3 20.2-6.8 27.6-23.6 4.3-13.4 7-21.7 7-21.7l1.7 14s2 8.3 7.4 7.1c5.4-1.3 5.2-0.9 6.2-3.2s5.1-2.8 5.1-2.8l5.4 3.7 4-1.7s4.4 4 7.6 3.9c4.6-1.2 23.2-6.9 23.2-6.9s8.7-3.1 8.2-13.5c0 0 1.4-1.4 1.5-3.9"/>
	<path class="shade" d="m133.1 135.2c2.3-0.5 4.8-1 6.2-1l-1-4.7s-6.1 0.5-9.5 1.7l-1.7 5.6s0.9-0.3 2.1-0.6l3.9-1z"/>
	<path class="shade" d="m152.1 135.8c1.2 0.3 2.3 0.7 3.2 1.2-4.2-5.5-4.6-6.5-4.6-6.5s-5.5-1.8-8.8-0.8l2.3 4.6h0.1l7.8 1.5z"/>
	<path class="shade" d="m145 202.8c-9.1 0.9-17-1.5-17-1.5l2.9 5.9c6.2 2.7 20.4-1 20.4-1s2.7-2.4 5.3-6.8c-1.4 0.7-2.9 1.3-4.4 1.8l-7.2 1.6z"/>
	<path class="reflection" d="m129.3 136.1c-14 4.9-24.1 18.3-24.1 34 0 4.7 0.9 9.1 2.5 13.2l25.5-48.2-3.9 1z"/>
	<path class="reflection" d="m152.1 135.8l-7.8-1.6c-1-0.1-2.1-0.1-3.1-0.1h-1.8l-24.2 61c4.7 4.9 10.7 8.4 17.4 10.1l21.7-68.6c-0.7-0.3-1.4-0.6-2.2-0.8z"/>
	<path class="reflection" d="m157.2 139l-12.2 63.8 7.3-1.5 10.3-58.9c-1.7-1.3-3.5-2.4-5.4-3.4z"/>
	<path class="reflection" d="m164 144.3l-7.2 54.4c10.3-6 17.3-17.1 17.3-30 0-9.5-3.8-18.2-10.1-24.4z"/>
	<rect class="shade" x="217.3" y="198.7" width="8.9" height="11.7"/>
	<rect class="shade" x="228.7" y="192.6" width="8.9" height="17.8"/>
	<rect class="shade" x="240.5" y="196" width="8.9" height="14.3"/>
	<rect class="shade" x="251.9" y="187" width="8.9" height="23.3"/>
	<rect class="shade" x="263.7" y="174.8" width="8.9" height="35.5"/>
	<rect class="shade" x="275.1" y="165.8" width="8.9" height="44.6"/>
	<path class="dark-shade" d="m246.4 113c-1-2.5-2.4-4.6-4.2-6.4-2.9-2.8-6.6-4.5-10.8-4.5-9 0-16.3 8-16.3 18 0 9.9 7.3 18 16.3 18 7.1 0 13.1-4.9 15.3-11.8 0.6-1.9 1-4 1-6.1 0-2.6-0.4-4.9-1.3-7.2v0z"/>
	<path class="dark-shade" d="m270.9 125.6c2.5 0 4.8-0.9 6.6-2.5 1.6-1.4 2.8-3.2 3.5-5.3 0.4-1.3 0.6-2.6 0.6-4.1 0-1-0.1-1.9-0.3-2.8-0.1-0.6-0.3-1.2-0.5-1.8v-0.1c-0.6-1.4-1.4-2.7-2.3-3.8l-0.3-0.3-0.1-0.1c-1.9-1.8-4.4-3-7.1-3-6 0-10.8 5.3-10.8 11.9-0.1 6.6 4.8 11.9 10.7 11.9z"/>
	<path class="dark-shade" d="m251.8 172.9c-0.3 0.1-0.5 0.2-0.7 0.2-2.8 0.7-6-1.9-7-6-1.1-4.1 0.3-8 3.1-8.7 0.4-0.1 0.8-0.2 1.3-0.1h1.1c-3-3.6-5.9-4.5-8.6-3.8-4.9 1.3-7.5 7.8-5.7 14.6 1.7 6.8 7.1 11.3 12 10.1 2.5-0.6 4.7-2.6 5.5-7.1v-0.1c-0.5 0.5-1 0.9-1 0.9z"/>
	<path class="dark-shade" d="m27.1 203.8c-2.1 0.8-3.6 2.6-4.4 5l2.4-0.1 2.4 2.9 0.5-0.4 1.5-0.3 3 0.9 1.8 2 1.4 3.3 0.2 3.7-1.4 2.8-1.6 0.7h-1.4l-0.1 1.3-2 3.2c2.6 1.9 5.5 2.6 8 1.6 4.9-1.9 6.5-9.4 3.7-16.7-2.9-7.4-9.1-11.8-14-9.9z"/>
	<path class="dark-shade" d="m64 172.3c0.6-0.2 0.7-0.2 1.8-1.1v21.5s1.8-0.8 2.5-0.4v-16.3s9.8 26.2 29.1 33.9c4.5 2 11.7 4.8 18.4 6.3-3-0.5-4.8-0.7-4.8-0.7l-0.8 2.3 1.7 1s2.3-1.9 3.5 0.8l2.6 1.3 33.1-1.4s0.9 0.3-0.7-3.9c-3.6 0.6-15.6 2.8-30.1 1.2 1.4 0.1 2.7 0.2 3.9 0.1-14.9-1.4-26-9.7-33.8-20.6-28.6-39.9-16.5-60-16.5-60-1.5 1.3-1.9 1.4-4.8 4.2-1.7 1.7-3.4 3.6-4.5 5.5-0.6 0.9-1 1.9-1.3 2.8-0.1 0.2-0.1 0.4-0.2 0.7 1.3 0.2 2.3 0.5 2.4 0.5 6.2 18.7-1.5 22.3-1.5 22.3zm55.8 44.7h-0.1c0-0.1 0.1-0.1 0.1 0z"/>
	<path class="dark-shade" d="m112.9 226.7l-1 1.1 2.8 1.5 25.7-0.8 3.5-2.1s-23.8 0.5-27.3 0.7c-2.6 0.2-3.7-0.4-3.7-0.4z"/>
	<path class="dark-shade" d="m125.7 240.8l-28.5 0.7s-6.2 2.2-8.8-0.4c-0.3 2.4 1.4 4.5 2.3 5.1 1.6 0.8 15.2 0.5 15.2 0.5l0.3-2.9 24.9-0.7-5.4-2.3z"/>
	<path class="dark-shade" d="m120.8 251.5l-7.1-1.2-1.4 6.8 8.8-0.3s26.5 0.2 30.6 0.3c1.1-4.2-0.3-5.8-0.3-5.8l-30.6 0.2z"/>
	<path class="dark-shade" d="m195.2 188.5c-1.5 0.3-3.9 0-5.9-5.1-2-5 2.4-7.9 2.4-7.9-2.1-10-0.7-15.5-0.7-15.5s0 0 3.4-0.3c3.1-13-3.1-19.9-3.1-19.9l-0.4 9.6-5.8 21.9s1.3 11.7 2.6 16.3c2 3.5 6.9 4.8 9.9 3.1 3-1.6 2.8-3.5 2.8-3.5s-3.7 1-5.2 1.3z"/>
	<polygon class="shade" points="341 210.6 385.2 210.6 385.2 165 341 166.4"/>
	<path class="shade" d="m246.8 120.1c0-2.5-0.5-5-1.3-7.1-1-2.4-2.4-4.6-4.2-6.3-2.9-2.8-6.7-4.5-10.8-4.5v18l15.3 6.1c0.6-2 1-4 1-6.2z"/>
	<path class="shade" d="m271.4 113.7l6.6 9.4c1.6-1.4 2.8-3.2 3.5-5.3 0.4-1.3 0.6-2.6 0.6-4.1 0-1.6-0.3-3.2-0.9-4.6l-9.8 4.6z"/>
	<path class="shade" d="m271.4 101.8v11.9l7.1-8.9c-1.8-1.9-4.3-3-7.1-3z"/>
	<polygon class="shade" points="29.6 225.8 29.4 217.3 25.6 211.9 23.6 215.7 24.4 221.1 23 222.9 13 223.3 13 226.6 27.2 225.9 26.7 229.9"/>
	<path class="shade" d="m138.5 92.1c0-0.4-0.6-1-1.1-1h-2.2c-0.4 0-1.1 0.6-1.1 1l-0.4 3.9 5.1 0.2-0.3-4.1z"/>
	<path class="shade" d="m119.4 114.3c1.8 0.1 3.4-2 3.6-4.6v-0.4c0.1-2.8-1.3-5.2-3.2-5.3s-3.5 2.1-3.6 5v1c0.2 2.3 1.5 4.2 3.2 4.3z"/>
	<path class="shade" d="m149.3 112.1c1 0 1.9-1.7 2-3.8 0.1-2.2-0.6-3.9-1.6-4-1 0-1.9 1.7-2 3.8s0.6 3.9 1.6 4z"/>
	<path class="dark-shade" d="m96.8 100.4s-2.9 1.7-2.6 5.2c0.1 1.7 1.5 14.8 1.5 14.8s0.1 1.7 3.8 1.3-5.4 1.8-5.4 1.8-2.4-1.2-2.7-5.1c-0.2-3.9-0.9-12.4-0.9-12.4s0.2-3.8 2.3-4.5c1.6-0.5 4-1.1 4-1.1z"/>
	<path class="dark-shade" d="m192 263.6s-2.6-7.1-13.7-7.1h-26.5l0.2 0.6c8 0.5 11.4 1.4 13.1 3.4 19.1 25.9 20.4 43.8 16.4 52.4l-0.1 0.1h2.1s18.2 1.8 16.9-11.5c-1.3-13.1-8.4-37.9-8.4-37.9z"/>
	<path class="dark-shade" d="m104.9 172.2c0.9 9.2 5.3 17.6 12.5 23.5 3.6 3 7.7 5.1 12 6.5 4.3 1.3 8.8 1.8 13.4 1.3 5.6-0.5 10.9-2.4 15.5-5.4 3-1.9 5.7-4.3 8-7.1 5.2-6.3 7.9-14 7.9-22.1v-0.2-0.7c0-0.8-0.1-1.6-0.2-2.5-0.9-9.2-5.3-17.6-12.5-23.5-2.2-1.8-4.6-3.4-7.2-4.6-0.3-0.1-0.5-0.3-0.8-0.4-0.1 0-0.2-0.1-0.3-0.1-5.3-2.3-11.2-3.3-17.1-2.7-3.4 0.3-6.8 1.2-9.9 2.4-5.2 2.1-9.9 5.6-13.6 10.1-5.9 7.2-8.6 16.2-7.7 25.5zm31.7-32.3c15.9-1.5 30.2 10.2 31.7 26.2 1.3 13.7-7.1 26.1-19.6 30.4-2.1 0.7-4.3 1.2-6.6 1.4-0.3 0-0.5 0-0.8 0.1-15.6 1.1-29.4-10.5-30.9-26.3-1.4-16 10.3-30.3 26.2-31.8z"/>
	<path class="dark-shade" d="m139.9 267s-2.8-7.8-14.8-7.8h-69.2-10.7c-4.6 0-8.2 4-8.2 4s-18.8 31.5-24 45.3c-5.3 13.9 11 12.7 11 12.7s73.8 0.1 106.8 0c0 0 19.6 1.9 18.2-12.6-1.4-14.4-9.1-41.6-9.1-41.6z"/>
	<path class="dark-shade" d="m96.4 123.4l10.9-2.6c-7.7 0.7-13.2 1.5-13.2 2.1 0.1 0.2 0.8 0.4 2.3 0.5z"/>
	<path class="dark-shade" d="m159.5 181c0.5 1 1.6 1.6 2.8 1.5 0.3 0 0.6-0.1 0.9-0.3 0.7-0.3 1.2-0.9 1.4-1.6s0.2-1.4-0.1-2.1l-12.1-25.2c-0.5-1.1-1.6-1.7-2.8-1.6-0.3 0-0.7 0.1-1 0.2-0.7 0.3-1.2 0.9-1.5 1.6s-0.2 1.5 0.1 2.1l12.3 25.4z"/>
	<path class="dark-shade" d="m120.1 187.6c0.4 0.1 0.7 0.1 1.1 0 1.3-0.2 2.4-1.1 2.7-2.3l4.6-16.5-4.1-8.2-6.6 23.4c-0.2 0.8-0.1 1.6 0.3 2.2 0.5 0.7 1.2 1.2 2 1.4z"/>
	<path class="dark-shade" d="m136.9 178.2l2.4-8.6-7.3-14.7c-0.5-1.1-1.8-1.8-3-1.7-0.4 0-0.7 0.1-1 0.2-0.7 0.3-1.3 0.9-1.6 1.6s-0.2 1.5 0.1 2.2l10.4 21z"/>
	<path class="dark-shade" d="m139.6 183.7c0.4 0.6 1 1.1 1.8 1.3 0.3 0.1 0.7 0.1 1 0 1.2-0.2 2.2-1 2.6-2.2l4.2-15.9-3.8-7.9-6.1 22.5c-0.2 0.8-0.1 1.5 0.3 2.2z"/>
	<path d="m68.9 177.3c1-0.1 2-0.3 2.9-0.5 1-0.2 1.9-0.4 2.9-0.7s1.9-0.5 2.9-0.9c0.9-0.3 1.9-0.7 2.8-1.1-0.9 0.5-1.8 0.9-2.7 1.3s-1.9 0.8-2.8 1.1-1.9 0.6-2.9 0.9-1.9 0.5-2.9 0.7l-0.2-0.8z"/>
	<path d="m70.2 180.3c1.9-0.3 3.7-0.7 5.5-1.1 1.8-0.5 3.6-1.1 5.3-1.9-1.6 0.9-3.4 1.7-5.2 2.4s-3.6 1.2-5.5 1.6l-0.1-1z"/>
	<path d="m71.7 183.2c3.5-0.6 6.9-1.4 10.1-2.9-3.1 1.8-6.5 3-9.9 3.9l-0.2-1z"/>
	<path d="m73.3 186c3.4-0.6 6.9-1.4 10.1-2.9-3.1 1.7-6.4 3-9.9 3.9l-0.2-1z"/>
	<path d="m74.9 188.7c3.4-0.6 6.7-1.4 9.9-2.9-3 1.7-6.3 2.9-9.7 3.8l-0.2-0.9z"/>
	<path d="m76.6 191.3c3.3-0.6 6.5-1.4 9.6-2.8-2.9 1.7-6.1 2.9-9.4 3.8l-0.2-1z"/>
	<path d="m78.4 193.9c3.1-0.6 6.3-1.4 9.2-2.7-2.8 1.6-5.9 2.8-9 3.7l-0.2-1z"/>
	<path d="m80.4 196.4c2.9-0.5 5.9-1.3 8.6-2.6-2.6 1.5-5.5 2.6-8.4 3.5l-0.2-0.9z"/>
	<path d="m82.6 198.9c2.7-0.5 5.4-1.3 7.9-2.4-2.4 1.4-5 2.5-7.6 3.3l-0.3-0.9z"/>
	<path d="m91.9 199.2c-2.1 1.3-4.3 2.2-6.7 3.1l-0.3-1c2.4-0.5 4.8-1.1 7-2.1z"/>
	<path d="m93.6 201.8c-1.8 1.1-3.7 2-5.7 2.8l-0.3-0.9c2-0.5 4-1.1 6-1.9z"/>
	<path d="m95.5 204.4c-1.5 0.9-3 1.8-4.7 2.5l-0.3-0.9c1.7-0.5 3.4-1 5-1.6z"/>
	<path d="m97.6 206.6c-1.2 0.8-2.4 1.5-3.7 2.1l-0.3-0.9c1.4-0.3 2.7-0.7 4-1.2z"/>
	<path d="m100.4 208.8c-0.8 0.6-1.7 1.2-2.6 1.7l-0.4-0.9c1-0.2 2-0.4 3-0.8z"/>
	<polygon points="103.3 210.5 101.2 212 100.8 211.1"/>
	<polygon points="106.2 211.9 104.5 213.3 104.1 212.4"/>
	<polygon points="109 213 107.4 214.3 107 213.4"/>
	<polygon points="111.6 213.8 109.9 215.1 109.6 214.2"/>
	<polygon points="113.5 214.5 111.8 215.8 111.4 214.9"/>
	<polygon points="115.5 215.2 113.8 216.5 113.4 215.6"/>
	<path d="m68.9 173.7c0.8-0.1 1.7-0.2 2.6-0.4 0.9-0.1 1.7-0.3 2.6-0.5 1.7-0.4 3.4-0.9 4.9-1.7-1.5 1-3.1 1.6-4.8 2.2-0.8 0.3-1.7 0.5-2.5 0.8-0.9 0.2-1.7 0.4-2.6 0.6l-0.2-1z"/>
	<path d="m67.7 170.2c0.8-0.1 1.7-0.2 2.6-0.4 0.9-0.1 1.7-0.3 2.6-0.5 1.7-0.4 3.4-0.9 4.9-1.7-1.5 1-3.1 1.6-4.8 2.2-0.8 0.3-1.7 0.5-2.5 0.8-0.9 0.2-1.7 0.4-2.6 0.6l-0.2-1z"/>
	<path d="m76.7 164c-0.8 0.6-1.6 1-2.4 1.4-0.9 0.4-1.7 0.8-2.6 1.1l-0.3-1c0.9-0.2 1.8-0.4 2.7-0.7 0.8-0.1 1.7-0.4 2.6-0.8z"/>
	<path d="m76 160.2c-0.7 0.5-1.4 0.9-2.1 1.3s-1.4 0.8-2.2 1.1l-0.3-0.9c0.8-0.2 1.5-0.4 2.3-0.7 0.7-0.2 1.5-0.4 2.3-0.8z"/>
	<path d="m74.8 156.6c-0.5 0.4-1.1 0.8-1.7 1.2s-1.2 0.7-1.8 1.1l-0.4-0.9c0.6-0.2 1.3-0.4 1.9-0.6 0.7-0.3 1.4-0.5 2-0.8z"/>
	<path d="m73.7 153.3c-0.5 0.4-1.1 0.7-1.7 1s-1.2 0.6-1.7 0.9l-0.4-0.9c0.7-0.2 1.3-0.3 1.9-0.5 0.7-0.1 1.3-0.2 1.9-0.5z"/>
	<path d="m73 149.3l-2.4 1.5c-0.8 0.5-1.6 0.9-2.5 1.3l-0.3-0.9c0.9-0.2 1.8-0.5 2.7-0.9 0.7-0.3 1.6-0.6 2.5-1z"/>
	<path d="m73 145.4c-0.7 0.5-1.5 0.8-2.2 1.2-0.8 0.4-1.5 0.7-2.3 1s-1.5 0.7-2.3 1l-2.4 0.9-0.2-1 2.4-0.6c0.8-0.2 1.6-0.5 2.4-0.7 0.8-0.3 1.6-0.5 2.4-0.8 0.7-0.3 1.4-0.6 2.2-1z"/>
	<path d="m73.6 141.6c-0.6 0.4-1.3 0.8-1.9 1.1-0.7 0.3-1.3 0.7-2 1l-2.1 0.9c-0.7 0.3-1.4 0.6-2.1 0.8l-0.2-1c0.7-0.1 1.4-0.3 2.1-0.5l2.1-0.6c0.7-0.2 1.4-0.5 2.1-0.7 0.7-0.4 1.3-0.7 2-1z"/>
	<polygon points="34.1 224 32.1 222.5 34.5 223.1"/>
	<polygon points="36.1 219.9 33 219.6 36 218.9"/>
	<polygon points="35.2 215.6 32.4 216.4 34.8 214.7"/>
	<polygon points="31.9 211.8 30 213 31.1 211.1"/>
	<path class="clear" d="m193.3 295.3c0 0.5 0.1 0.9 0.1 1.4 0 6.5-3.3 11.8-7.4 11.8-1 0-2-0.3-2.9-0.9v-0.1c0.7-4.8 0.2-11.2-2.5-18.9 1.3-2.3 3.3-3.7 5.4-3.7 3.7 0 6.8 4.5 7.3 10.4"/>
	<path class="clear" d="m294.9 154.1l-47.4 15.9 3.6-1.6c-0.6-0.8-1.1-2.1-1.4-3.5-0.2-1.2-0.2-2.3-0.1-3.2l0.9-0.4 39.5-12.4 4.6-1.3c-0.6 0.6-0.6 1.6-0.2 2.6 0.6 1.8 1 3.5 1.9 3.3l-0.8 0.3-0.6 0.3z"/>
	<path d="m178.9 125.6c-0.7-0.6-1.6-1-2.6-1.1-0.9 0-1.9 0.1-2.8 0.2l-5.6 0.3-11.3 0.6-22.5 1.2-22.6 1.1-11.3 0.5-5.6 0.2c-0.9 0.1-1.9 0-2.8 0.1-0.5 0.1-0.9 0.2-1.4 0.3-0.4 0.2-0.9 0.4-1.2 0.7 0.3-0.4 0.7-0.6 1.2-0.7 0.4-0.2 0.9-0.3 1.4-0.4 0.9-0.1 1.9-0.1 2.8-0.2l5.6-0.3 11.3-0.6 22.6-1.2 22.6-1.1 11.3-0.5 5.6-0.2c0.9 0 1.9-0.1 2.8-0.1 0.9 0.2 1.8 0.6 2.5 1.2z"/>
	<ellipse class="clear" cx="44.1" cy="294.1" rx="16.8" ry="21.9"/>
	<ellipse class="clear" cx="104.1" cy="294.1" rx="16.6" ry="21.9"/>
	<ellipse class="clear" cx="74" cy="299.5" rx="7.4" ry="11.8"/>
	<ellipse class="clear" cx="133.3" cy="299.5" rx="7.4" ry="11.8"/>
	<path d="m76.8 303.1c-0.3 0.5-0.7 1-1.2 1.4s-1 0.5-1.6 0.5c-1.1-0.1-1.8-1.1-2.3-2.1s-0.6-2.2-0.6-3.4 0.2-2.3 0.6-3.4c0.4-1 1.2-2 2.3-2.1 0.5 0 1.1 0.1 1.6 0.5s0.9 0.8 1.2 1.4c0.6 1.1 0.9 2.4 0.9 3.6 0-1.3-0.2-2.5-0.7-3.7-0.3-0.6-0.6-1.2-1.1-1.6-0.5-0.5-1.1-0.8-1.9-0.9-0.7 0-1.5 0.2-2.1 0.7-0.6 0.4-1 1-1.4 1.6-0.7 1.2-1 2.6-1 3.9 0 1.4 0.3 2.7 1 3.9 0.3 0.6 0.8 1.2 1.4 1.6s1.3 0.7 2 0.7c0.7-0.1 1.4-0.4 1.9-0.9s0.8-1 1.1-1.6c0.5-1.2 0.7-2.4 0.7-3.7 0.1 1.2-0.2 2.5-0.8 3.6z"/>
	<path d="m51.5 274c-2.2-1.4-4.7-2.3-7.4-2.4-2.6-0.1-5.3 0.7-7.6 2-2.3 1.4-4.2 3.3-5.8 5.4-1.5 2.2-2.7 4.6-3.4 7.1s-1.1 5.2-1.1 7.8 0.4 5.3 1.1 7.8 1.9 5 3.4 7.1c1.5 2.2 3.5 4.1 5.7 5.4 2.3 1.3 5 2.1 7.6 2s5.2-0.9 7.4-2.4c2.2-1.4 4-3.3 5.4-5.5 2.8-4.3 4.1-9.5 4.1-14.5 0 2.5-0.4 5.1-1.1 7.5s-1.8 4.8-3.3 6.8c-1.5 2.1-3.3 3.9-5.5 5.1-2.2 1.3-4.6 1.9-7.1 1.9-2.5-0.1-4.8-0.9-6.9-2.2-2-1.3-3.7-3.2-5.1-5.2-1.3-2-2.3-4.3-3-6.7s-1-4.8-1-7.3c0-4.9 1.3-9.9 3.9-14 1.3-2 3-3.9 5.1-5.2 2-1.3 4.4-2.1 6.9-2.2s4.9 0.6 7.1 1.9 4 3.1 5.5 5.1c1.4 2.1 2.5 4.4 3.3 6.8 0.7 2.4 1 5 1.1 7.5 0-5.1-1.3-10.2-4.1-14.5-1.2-1.7-3-3.6-5.2-5.1z"/>
	<path d="m111.5 274.1c-2.1-1.4-4.7-2.3-7.3-2.4s-5.3 0.7-7.5 2.1c-2.3 1.4-4.2 3.3-5.7 5.5s-2.6 4.6-3.3 7.1-1.1 5.2-1.1 7.8 0.4 5.2 1.1 7.8c0.7 2.5 1.8 4.9 3.3 7.1s3.4 4.1 5.7 5.4c2.3 1.4 4.9 2.1 7.5 2s5.2-1 7.3-2.4c2.2-1.4 3.9-3.4 5.3-5.5 2.8-4.3 4-9.4 4-14.5 0 2.5-0.4 5.1-1 7.5-0.7 2.4-1.8 4.8-3.2 6.8-1.4 2.1-3.2 3.9-5.4 5.2-2.1 1.3-4.6 2-7 1.9s-4.8-0.9-6.8-2.2-3.7-3.2-5-5.2c-2.6-4.1-3.8-9.1-3.8-13.9 0-4.9 1.2-9.8 3.8-13.9 1.3-2 3-3.9 5-5.2s4.4-2.2 6.8-2.2c2.4-0.1 4.9 0.6 7 1.9s3.9 3.1 5.4 5.2c1.4 2.1 2.5 4.4 3.2 6.8s1 5 1 7.5c0-5.1-1.3-10.2-4-14.5-1.3-2.4-3.1-4.3-5.3-5.7z"/>
	<path d="m79.9 292c-0.5-1.2-1.2-2.3-2.2-3.2s-2.2-1.6-3.7-1.7c-1.4-0.1-2.8 0.5-3.9 1.4s-1.9 2-2.6 3.2c-1.3 2.4-1.8 5.1-1.9 7.8 0 2.7 0.6 5.4 1.9 7.8 0.6 1.2 1.5 2.3 2.6 3.2s2.5 1.4 3.9 1.4c1.4-0.1 2.7-0.8 3.7-1.7s1.7-2 2.2-3.2c0.6-1.2 0.9-2.4 1.1-3.7s0.4-2.5 0.4-3.8c0 2.5-0.5 5.1-1.7 7.3-0.6 1.1-1.4 2.1-2.3 2.9-1 0.7-2.1 1.2-3.3 1.1-1.1-0.1-2.2-0.6-3-1.4s-1.5-1.8-2-2.9-0.8-2.2-1.1-3.4c-0.2-1.2-0.3-2.4-0.3-3.6s0.1-2.4 0.3-3.6 0.6-2.3 1.1-3.4 1.1-2.1 2-2.9c0.8-0.8 1.9-1.3 3-1.4s2.3 0.4 3.3 1.1c1 0.8 1.7 1.8 2.3 2.9 1.2 2.2 1.7 4.8 1.7 7.3 0-1.3-0.1-2.6-0.4-3.8-0.2-1.3-0.5-2.5-1.1-3.7z"/>
	<path d="m138.9 306.8c-0.6 1.1-1.4 2.1-2.3 2.9-1 0.7-2.1 1.2-3.3 1.1-1.1-0.1-2.2-0.6-3-1.4s-1.5-1.8-2-2.9-0.8-2.2-1.1-3.4c-0.2-1.2-0.3-2.4-0.3-3.6s0.1-2.4 0.3-3.6 0.6-2.3 1.1-3.4 1.1-2.1 2-2.9c0.8-0.8 1.9-1.3 3-1.4s2.3 0.4 3.3 1.1c1 0.8 1.7 1.8 2.3 2.9 1.2 2.2 1.7 4.8 1.7 7.3 0-1.3-0.1-2.6-0.4-3.8-0.2-1.3-0.6-2.5-1.1-3.7s-1.2-2.3-2.2-3.2-2.2-1.6-3.7-1.7c-1.4-0.1-2.8 0.5-3.9 1.4s-1.9 2-2.6 3.2c-1.3 2.4-1.8 5.1-1.9 7.8 0 2.7 0.6 5.4 1.9 7.8 0.6 1.2 1.5 2.3 2.6 3.2s2.5 1.4 3.9 1.4c1.4-0.1 2.7-0.8 3.7-1.7s1.7-2 2.2-3.2c0.6-1.2 0.9-2.4 1.1-3.7s0.4-2.5 0.4-3.8c0 2.5-0.5 5.1-1.7 7.3z"/>
	<path d="m136 303.1c-0.3 0.5-0.7 1-1.2 1.4s-1 0.5-1.6 0.5c-1.1-0.1-1.8-1.1-2.3-2.1s-0.6-2.2-0.6-3.4 0.2-2.3 0.6-3.4c0.4-1 1.2-2 2.3-2.1 0.5 0 1.1 0.1 1.6 0.5s0.9 0.8 1.2 1.4c0.6 1.1 0.9 2.4 0.9 3.6 0-1.3-0.2-2.5-0.7-3.7-0.3-0.6-0.6-1.2-1.1-1.6-0.5-0.5-1.1-0.8-1.9-0.9-0.7 0-1.5 0.2-2.1 0.7-0.6 0.4-1 1-1.4 1.6-0.7 1.2-1 2.6-1 3.9 0 1.4 0.3 2.7 1 3.9 0.3 0.6 0.8 1.2 1.4 1.6s1.3 0.7 2 0.7c0.7-0.1 1.4-0.4 1.9-0.9s0.8-1 1.1-1.6c0.5-1.2 0.7-2.4 0.7-3.7 0.1 1.2-0.2 2.5-0.8 3.6z"/>
	<path d="m189 296.7c-0.1 0.8-0.2 1.6-0.5 2.4-0.3 0.7-0.7 1.5-1.2 2s-1.2 0.9-1.8 0.9-1.2-0.4-1.6-0.9l-1.1 1c0.4 0.3 0.8 0.6 1.2 0.8 0.5 0.2 1 0.3 1.5 0.2s1-0.3 1.3-0.6c0.4-0.3 0.7-0.6 0.9-1 0.5-0.7 0.8-1.5 1-2.4 0.3-0.7 0.3-1.6 0.3-2.4z"/>
	<path d="m188.6 293.6c-0.3-1-0.8-2-1.8-2.7-0.5-0.3-1.1-0.5-1.7-0.5s-1.2 0.2-1.7 0.6c-1 0.7-1.6 1.7-2 2.8l1.4 0.5c0.2-0.9 0.6-1.8 1.3-2.3 0.3-0.3 0.7-0.5 1.1-0.5 0.4-0.1 0.8 0 1.2 0.2 0.8 0.4 1.4 1.3 1.8 2.2s0.6 1.9 0.7 3c0.1-1.2 0.1-2.3-0.3-3.3z"/>
	<path d="m193.3 295.3c0.2 1.6 0.2 3.3-0.1 5-0.3 1.6-0.8 3.3-1.6 4.8-0.2 0.4-0.4 0.7-0.7 1.1-0.3 0.3-0.5 0.7-0.8 1-0.6 0.6-1.3 1.2-2.1 1.6s-1.8 0.6-2.7 0.5-1.8-0.4-2.6-0.9l0.8-1.2c0.6 0.4 1.2 0.7 1.9 0.9 0.7 0.1 1.4 0 2.1-0.2s1.3-0.7 1.9-1.2c0.3-0.2 0.5-0.6 0.8-0.8 0.2-0.3 0.5-0.6 0.7-1 0.9-1.4 1.5-2.9 1.8-4.5 0.5-1.8 0.6-3.5 0.6-5.1z"/>
	<path d="m180 288.2c0.5-0.8 1.1-1.5 1.8-2.1s1.5-1.1 2.4-1.4c0.5-0.1 0.9-0.2 1.4-0.3h0.7c0.2 0 0.5 0 0.7 0.1 0.9 0.2 1.8 0.7 2.5 1.3s1.3 1.3 1.7 2c0.5 0.7 0.8 1.6 1.2 2.4 0.6 1.6 0.9 3.4 1 5.1-0.2-1.7-0.6-3.4-1.3-5-0.4-0.8-0.8-1.5-1.3-2.2s-1.1-1.3-1.7-1.8c-1.3-1-3-1.3-4.4-0.7s-2.5 1.9-3.3 3.3l-1.4-0.7z"/>
	<path d="m237.4 187c-1.7-0.2-3.4-0.9-4.9-1.8s-2.9-2.1-4-3.4c-2.4-2.7-4.1-5.9-5-9.3-0.3-0.9-0.4-1.7-0.6-2.6-0.1-0.9-0.3-1.8-0.3-2.7-0.1-1.8 0.1-3.6 0.5-5.3s1.2-3.4 2.3-4.8 2.6-2.5 4.2-3.1c-1.6 0.7-2.9 1.9-3.8 3.4-0.9 1.4-1.6 3-1.9 4.7s-0.4 3.4-0.3 5.1c0 0.9 0.2 1.7 0.3 2.5 0.2 0.8 0.3 1.7 0.6 2.5 0.2 0.8 0.5 1.6 0.8 2.4l0.5 1.2 0.6 1.2c0.8 1.5 1.7 3 2.8 4.3s2.3 2.5 3.7 3.5c1.2 1 2.8 1.7 4.5 2.2z"/>
	<path d="m232.7 188.5c-1.7-0.2-3.4-0.9-5-1.7-1.5-0.9-2.9-2-4.2-3.3-1.2-1.3-2.3-2.7-3.2-4.2s-1.6-3.2-2.2-4.9c-1.1-3.4-1.4-7.1-0.5-10.6 0.5-1.7 1.3-3.4 2.5-4.7l0.5-0.5c0.2-0.2 0.3-0.3 0.5-0.4l0.5-0.4 0.3-0.2c0.1-0.1 0.2-0.1 0.3-0.2 0.4-0.2 0.8-0.5 1.2-0.6 0.4-0.2 0.8-0.3 1.3-0.4-1.6 0.6-3.1 1.7-4.1 3-1.1 1.3-1.7 2.9-2.1 4.6s-0.5 3.4-0.3 5.1c0.1 1.7 0.4 3.4 1 5 1 3.3 2.7 6.3 5 8.9 1.1 1.3 2.4 2.4 3.9 3.4 0.7 0.5 1.5 0.9 2.2 1.3 0.7 0.2 1.6 0.5 2.4 0.8z"/>
	<path d="m246.6 184.9c-0.9 0.6-1.9 0.7-2.9 1.1l-3 0.9-5.9 1.8-5.9 1.8c-2 0.6-4 1.2-5.9 1.8l-0.2 0.1h-0.2c-3.2-0.6-6-2.4-8.3-4.5s-4.2-4.7-5.5-7.6c-1.3-2.8-2.1-6-2.1-9.2 0-1.6 0.3-3.2 0.8-4.7s1.4-3 2.6-4.1l1.1-0.9 0.1-0.1h0.1l25-10.8 0.6 1.3-25 10.8 0.2-0.1-1.1 0.9 0.1-0.1c-1 1-1.7 2.2-2.2 3.6s-0.7 2.8-0.7 4.3c0 2.9 0.7 5.9 1.9 8.5 1.3 2.7 3 5.1 5.2 7.1s4.8 3.6 7.6 4.1h-0.3c2-0.7 3.9-1.2 5.9-1.8l5.9-1.8 5.9-1.8 3-0.9c1-0.3 2-0.7 3-0.7l0.2 1z"/>
	<polygon points="247.4 163.3 244.1 163.5 244.2 162.5"/>
	<polygon points="248.3 166.8 245 169.2 244.5 168.4"/>
	<path d="m294.2 154.5c-0.3-0.1-0.6-0.3-0.8-0.5s-0.4-0.5-0.6-0.7c-0.3-0.5-0.5-1.1-0.7-1.7-0.1-0.6-0.2-1.2-0.1-1.9 0.1-0.6 0.2-1.3 0.6-1.7-0.2 0.6-0.3 1.2-0.2 1.8 0 0.6 0.1 1.2 0.2 1.7 0.1 0.6 0.3 1.1 0.5 1.7 0.3 0.5 0.6 1 1.1 1.3z"/>
	<path d="m249.4 161.6l11.5-3.7 11.5-3.6 11.5-3.6 5.7-1.8 2.9-0.9c1-0.3 1.9-0.7 2.9-0.8l0.2 0.6c-0.9 0.5-1.9 0.7-2.8 1l-2.9 0.9-5.7 1.8-11.5 3.7-11.5 3.7-11.5 3.6-0.3-0.9z"/>
	<path d="m297.1 153.6c-0.4 0.3-0.9 0.4-1.4 0.6l-1.4 0.5-2.9 0.9-5.7 1.8-11.5 3.7-11.5 3.7-11.5 3.6-0.3-0.8 11.5-3.7 11.5-3.7 11.5-3.7 5.8-1.8 2.9-0.9 1.4-0.5c0.5-0.1 0.9-0.3 1.5-0.3l0.1 0.6z"/>
	<path d="m325.5 143c-0.4-0.1-0.7-0.4-1-0.8-0.2-0.4-0.4-0.8-0.5-1.2s-0.1-0.8-0.1-1.2c0.1-0.4 0.2-0.9 0.5-1.1-0.1 0.4-0.1 0.8-0.1 1.2s0.1 0.8 0.2 1.1c0.1 0.4 0.2 0.7 0.3 1.1 0.2 0.3 0.3 0.6 0.7 0.9z"/>
	<path d="m294.7 147.9l8.1-2.8 8.2-2.7 8.2-2.7 4.1-1.4 2-0.7c0.7-0.2 1.3-0.5 2.1-0.6l0.2 0.7c-0.6 0.4-1.3 0.5-2 0.8l-2 0.7-4.1 1.4-8.1 2.7-8.1 2.7-8.8 2.9 0.2-1z"/>
	<path d="m328.7 142.2c-0.3 0.3-0.6 0.4-1 0.5l-1 0.3-2 0.7-4.1 1.4-8.1 2.7-8.1 2.7-8.2 2.7-0.8-0.8 8.7-2.9 8.2-2.7 8.2-2.7 4.1-1.4 2-0.7 1-0.3c0.3-0.1 0.7-0.3 1.1-0.2v0.7z"/>
	<path d="m346.9 134.6c-0.3-0.1-0.4-0.3-0.6-0.5-0.1-0.2-0.2-0.5-0.3-0.7-0.1-0.3-0.1-0.5 0-0.8 0-0.3 0.1-0.5 0.3-0.7-0.1 0.2-0.1 0.5-0.1 0.7s0 0.5 0.1 0.7c0 0.2 0.1 0.5 0.2 0.7 0.1 0.3 0.2 0.5 0.4 0.6z"/>
	<path d="m327.2 137.9c3.4-1.1 6.7-2.3 10.1-3.4l5.1-1.7 2.5-0.8 1.3-0.4c0.4-0.1 0.8-0.3 1.3-0.3l0.2 0.5c-0.4 0.3-0.8 0.4-1.2 0.5l-1.3 0.4-2.5 0.9-5 1.7c-3.4 1.1-7.6 2.6-11 3.7l0.5-1.1z"/>
	<path d="m348.3 134.5c-0.2 0.2-0.4 0.2-0.6 0.3l-0.6 0.2-1.3 0.4-2.5 0.9-5 1.7-5 1.7-5.4 1.8-0.6-0.6 5.7-2 5.1-1.7 5.1-1.7 2.5-0.8 1.3-0.4 0.6-0.2c0.2-0.1 0.4-0.2 0.7-0.1v0.5z"/>
	<path d="m252.8 172.1c-0.1 1.1-0.4 2.2-0.9 3.3-0.4 1-1.1 2-2 2.8s-2 1.3-3.2 1.5-2.4 0.1-3.5-0.2-2.2-0.9-3.1-1.6-1.8-1.5-2.5-2.5c-1.4-1.8-2.4-4-2.9-6.3s-0.7-4.6-0.2-6.9c0.2-1.1 0.6-2.3 1.1-3.3 0.5-1.1 1.2-2 2.1-2.8 1.7-1.6 4.3-2.4 6.6-1.8 0.6 0.2 1.1 0.4 1.6 0.6 0.5 0.3 1 0.6 1.4 1 0.9 0.7 1.7 1.6 2.3 2.5-0.8-0.8-1.6-1.6-2.5-2.2-0.4-0.3-0.9-0.6-1.4-0.8s-1-0.4-1.6-0.5c-1.1-0.2-2.2-0.1-3.2 0.2s-2 0.9-2.7 1.6c-1.5 1.5-2.4 3.6-2.8 5.8s-0.2 4.4 0.3 6.5 1.4 4.2 2.7 5.9 3 3.2 5.1 3.9c2 0.7 4.4 0.4 6.1-0.9 0.9-0.6 1.6-1.5 2.1-2.5 0.5-1.2 0.9-2.2 1.1-3.3z"/>
	<path d="m254.6 170.2c0.3 0.4 0.3 0.9 0.4 1.3 0 0.4-0.1 0.9-0.1 1.3-0.1 0.9-0.3 1.8-0.5 2.6-0.5 1.7-1.2 3.4-2.2 4.9s-2.3 2.8-3.9 3.8l-0.6 0.3-0.6 0.3c-0.4 0.2-0.9 0.4-1.3 0.5-0.2 0.1-0.5 0.1-0.7 0.2l-0.7 0.1c-0.2 0-0.5 0.1-0.7 0.1h-0.7c-1.9 0-3.7-0.6-5.2-1.5-1.6-0.9-3-2.1-4.2-3.4s-2.1-2.9-3-4.4c-0.8-1.6-1.4-3.3-1.8-5s-0.6-3.5-0.7-5.3 0.1-3.6 0.5-5.3 1-3.5 1.9-5c0.9-1.6 2.1-3 3.6-4.1s3.3-1.8 5.1-2c0.9-0.1 1.9 0 2.8 0.2s1.8 0.5 2.6 0.9c1.7 0.7 3.1 1.8 4.4 3.1 0.7 0.6 1.2 1.3 1.8 2 0.3 0.4 0.5 0.7 0.8 1.1 0.2 0.4 0.4 0.8 0.5 1.2l-0.9 0.5c-0.3-0.3-0.6-0.6-0.8-0.9-0.3-0.3-0.5-0.7-0.7-1-0.5-0.6-1-1.3-1.6-1.8-1.2-1.1-2.5-2.1-4-2.7-0.7-0.4-1.5-0.6-2.3-0.8-0.8-0.1-1.6-0.2-2.3-0.2-1.5 0.1-3.1 0.7-4.3 1.7-1.3 0.9-2.3 2.2-3.1 3.6s-1.3 3-1.7 4.6c-0.3 1.6-0.5 3.3-0.4 4.9s0.2 3.3 0.7 4.9l0.1 0.6 0.2 0.6c0.1 0.4 0.2 0.8 0.4 1.2l0.5 1.2c0.1 0.4 0.3 0.7 0.5 1.1 0.7 1.5 1.6 2.9 2.7 4.1s2.3 2.3 3.7 3.1 2.9 1.3 4.5 1.3 3.1-0.3 4.5-1.2c1.3-0.8 2.5-2 3.4-3.3 0.9-1.4 1.6-2.9 2-4.4 0.2-0.8 0.4-1.6 0.5-2.4l0.1-1.2c0-0.4 0.1-0.8 0.4-1.2l0.4-0.2z"/>
	<path d="m94.5 238.7c0 0.7-0.1 1.4-0.3 2.1-0.1 0.3-0.3 0.7-0.6 1s-0.6 0.5-1.1 0.6c-0.5 0-0.9-0.1-1.3-0.4s-0.6-0.6-0.8-0.9c-0.4-0.7-0.6-1.5-0.6-2.3s0.2-1.6 0.6-2.3c0.2-0.4 0.5-0.7 0.8-0.9 0.4-0.3 0.8-0.4 1.3-0.4 0.5 0.1 0.8 0.3 1.1 0.6s0.4 0.6 0.6 1c0.2 0.5 0.3 1.2 0.3 1.9 0-0.7-0.2-1.4-0.5-2-0.2-0.3-0.4-0.5-0.7-0.7s-0.5-0.2-0.8-0.2c-0.5 0.1-0.8 0.6-1 1.1s-0.3 1.1-0.3 1.7 0.1 1.2 0.3 1.7 0.5 1 1 1.1c0.2 0 0.5 0 0.8-0.2s0.5-0.4 0.7-0.7c0.4-0.5 0.5-1.2 0.5-1.8z"/>
	<polygon points="118.5 227.8 102.3 237 117.8 226.5"/>
	<polygon points="245.8 158.6 248.6 159.5 245.7 159.5"/>
	<polygon points="248.5 172.8 251 170 249.3 173.3"/>
	<path d="m115.4 220.1c0 0.6-0.1 1.3-0.3 1.9-0.1 0.3-0.2 0.6-0.5 0.9-0.2 0.3-0.6 0.5-1 0.6-0.4 0-0.9-0.1-1.2-0.4s-0.6-0.6-0.8-0.9c-0.4-0.7-0.5-1.4-0.5-2.1s0.2-1.5 0.5-2.1c0.2-0.3 0.4-0.6 0.8-0.9 0.3-0.2 0.8-0.4 1.2-0.4 0.4 0.1 0.8 0.3 1 0.6s0.4 0.6 0.5 0.9c0.2 0.6 0.3 1.3 0.3 1.9 0-0.6-0.1-1.3-0.5-1.8-0.2-0.3-0.4-0.5-0.6-0.7s-0.5-0.2-0.7-0.2c-0.4 0.1-0.7 0.6-0.8 1.1-0.2 0.5-0.2 1-0.2 1.6 0 0.5 0.1 1.1 0.2 1.6 0.2 0.5 0.4 0.9 0.8 1.1 0.2 0 0.5 0 0.7-0.2s0.4-0.4 0.6-0.7c0.4-0.5 0.5-1.2 0.5-1.8z"/>
	<path d="m33.6 196.8c1.8-0.3 3.6 0 5.3 0.6s3.2 1.6 4.6 2.8c2.8 2.4 4.8 5.4 6.3 8.7 0.7 1.7 1.3 3.4 1.6 5.2s0.5 3.6 0.4 5.4-0.4 3.6-1 5.3-1.5 3.3-2.8 4.5c1.1-1.4 1.9-3 2.4-4.7s0.7-3.4 0.7-5.2c0-3.5-0.8-7-2.2-10.2-0.7-1.6-1.5-3.2-2.5-4.6s-2.1-2.8-3.4-4-2.7-2.2-4.3-2.9c-1.5-0.6-3.3-1-5.1-0.9z"/>
	<path d="m37.9 195.5c1.7-0.5 3.5-0.3 5.1 0.1 1.7 0.5 3.2 1.4 4.6 2.4 1.4 1.1 2.6 2.3 3.7 3.7s2 2.9 2.7 4.5c1.5 3.2 2.4 6.6 2.4 10.1 0 1.7-0.2 3.5-0.8 5.2s-1.4 3.2-2.6 4.5c1-1.4 1.7-3 2.1-4.6s0.5-3.3 0.4-5-0.3-3.4-0.8-5c-0.4-1.6-1-3.2-1.7-4.7-1.4-3-3.4-5.9-6-8-1.3-1.1-2.7-2-4.3-2.6-1.4-0.7-3.1-0.9-4.8-0.6z"/>
	<path d="m22.7 208.8c0.3-1.1 0.8-2.1 1.5-3s1.6-1.7 2.6-2.2 2.2-0.7 3.4-0.6c1.2 0 2.3 0.4 3.3 0.9 2.1 1 3.8 2.6 5.2 4.3 1.4 1.8 2.4 3.8 3.2 5.9 0.7 2.1 1.2 4.4 1.1 6.7 0 2.3-0.5 4.6-1.7 6.6s-3.3 3.5-5.6 3.6c-1.1 0.1-2.3-0.2-3.3-0.6s-2-1-2.9-1.7c0.9 0.6 1.9 1.1 3 1.4 1 0.3 2.1 0.5 3.2 0.3 0.5-0.1 1-0.2 1.5-0.4 0.3-0.1 0.5-0.2 0.7-0.3 0.1-0.1 0.2-0.1 0.3-0.2l0.3-0.2c0.8-0.6 1.6-1.4 2.1-2.3 1-1.9 1.5-4 1.4-6.2 0-2.2-0.4-4.3-1.1-6.3s-1.7-4-3-5.7-2.9-3.2-4.8-4.2c-0.9-0.5-2-0.9-3-0.9-1.1-0.1-2.1 0-3.1 0.4s-1.9 1-2.6 1.9c-0.7 0.8-1.3 1.8-1.7 2.8z"/>
	<path d="m27.6 211.6c0.6-0.7 1.6-1 2.5-0.9 1 0.1 1.9 0.5 2.6 1 1.5 1.1 2.6 2.8 3.2 4.5 0.6 1.8 0.8 3.7 0.1 5.5-0.3 0.9-0.9 1.7-1.7 2.2s-1.8 0.6-2.7 0.3c0.9 0.1 1.8-0.2 2.4-0.7 0.7-0.5 1-1.3 1.3-2.1 0.2-0.8 0.3-1.7 0.2-2.5s-0.2-1.7-0.5-2.5c-0.5-1.6-1.5-3.1-2.7-4.2-0.6-0.5-1.4-1-2.2-1.1-0.9-0.1-1.8 0-2.5 0.5z"/>
	<path d="m107.3 280.9c0 1-0.2 1.9-0.7 2.8-0.5 0.8-1.3 1.6-2.4 1.7-0.5 0-1.1-0.1-1.5-0.4-0.5-0.3-0.9-0.6-1.2-1.1-0.6-0.9-0.9-1.9-0.9-3 0-1 0.3-2.1 0.9-3 0.3-0.4 0.7-0.8 1.2-1.1s1-0.4 1.5-0.4c1.1 0.1 1.9 0.8 2.4 1.7 0.4 0.9 0.7 1.9 0.7 2.8 0-1-0.3-1.9-0.8-2.7s-1.4-1.3-2.3-1.2-1.6 0.7-2 1.4c-0.4 0.8-0.6 1.6-0.6 2.5s0.2 1.8 0.6 2.5 1.1 1.4 2 1.4c0.9 0.1 1.8-0.5 2.3-1.2s0.8-1.7 0.8-2.7z"/>
	<path d="m102.5 285.2c0.5 0.3 1.1 0.4 1.6 0.4 0.6-0.1 1.1-0.3 1.5-0.6s0.7-0.7 1-1.2c0.5-0.9 0.7-1.8 0.7-2.8 0 1-0.3 1.9-0.9 2.7-0.3 0.4-0.6 0.7-1 0.9s-0.8 0.3-1.2 0.2c-0.8-0.1-1.4-0.7-1.8-1.4s-0.6-1.6-0.6-2.4 0.2-1.7 0.6-2.4 1-1.3 1.8-1.4c0.4 0 0.8 0 1.2 0.2s0.8 0.5 1 0.9c0.6 0.8 0.8 1.7 0.9 2.7 0-1-0.2-1.9-0.7-2.8-0.2-0.4-0.6-0.8-1-1.2-0.4-0.3-0.9-0.6-1.5-0.6s-1.1 0.1-1.6 0.4-0.9 0.7-1.3 1.1c-0.7 0.9-1 2-1 3.1s0.3 2.2 1 3.1c0.4 0.4 0.8 0.8 1.3 1.1z"/>
	<path d="m116.7 296.9c-0.3 0.4-0.6 0.7-1 0.9s-0.8 0.3-1.2 0.2c-0.8-0.1-1.4-0.7-1.8-1.4s-0.6-1.6-0.6-2.4 0.2-1.7 0.6-2.4 1-1.3 1.8-1.4c0.4 0 0.8 0 1.2 0.2s0.8 0.5 1 0.9c0.6 0.8 0.8 1.7 0.9 2.7 0-1-0.2-1.9-0.7-2.8-0.2-0.4-0.6-0.8-1-1.2-0.4-0.3-0.9-0.6-1.5-0.6s-1.1 0.1-1.6 0.4-0.9 0.7-1.3 1.1c-0.7 0.9-1 2-1 3.1s0.3 2.2 1 3.1c0.3 0.4 0.8 0.8 1.3 1.1s1.1 0.4 1.6 0.4c0.6-0.1 1.1-0.3 1.5-0.6s0.7-0.7 1-1.2c0.5-0.9 0.7-1.8 0.7-2.8-0.1 1-0.4 1.9-0.9 2.7z"/>
	<path d="m105.6 304.1c-0.4-0.3-0.9-0.6-1.5-0.6s-1.1 0.1-1.6 0.4-0.9 0.7-1.3 1.1c-0.7 0.9-1 2-1 3.1s0.3 2.2 1 3.1c0.3 0.4 0.8 0.8 1.3 1.1s1.1 0.4 1.6 0.4c0.6-0.1 1.1-0.3 1.5-0.6s0.7-0.7 1-1.2c0.5-0.9 0.7-1.8 0.7-2.8 0 1-0.3 1.9-0.9 2.7-0.3 0.4-0.6 0.7-1 0.9s-0.8 0.3-1.2 0.2c-0.8-0.1-1.4-0.7-1.8-1.4s-0.6-1.6-0.6-2.4 0.2-1.7 0.6-2.4 1-1.3 1.8-1.4c0.4 0 0.8 0 1.2 0.2s0.8 0.5 1 0.9c0.6 0.8 0.8 1.7 0.9 2.7 0-1-0.2-1.9-0.7-2.8-0.2-0.5-0.5-0.9-1-1.2z"/>
	<path d="m95.5 290.5c-0.4-0.3-0.9-0.6-1.5-0.6s-1.1 0.1-1.6 0.4-0.9 0.7-1.3 1.1c-0.7 0.9-1 2-1 3.1s0.3 2.2 1 3.1c0.3 0.4 0.8 0.8 1.3 1.1s1.1 0.4 1.6 0.4c0.6-0.1 1.1-0.3 1.5-0.6s0.7-0.7 1-1.2c0.5-0.9 0.7-1.8 0.7-2.8 0 1-0.3 1.9-0.9 2.7-0.3 0.4-0.6 0.7-1 0.9s-0.8 0.3-1.2 0.2c-0.8-0.1-1.4-0.7-1.8-1.4s-0.6-1.6-0.6-2.4 0.2-1.7 0.6-2.4 1-1.3 1.8-1.4c0.4 0 0.8 0 1.2 0.2s0.8 0.5 1 0.9c0.6 0.8 0.8 1.7 0.9 2.7 0-1-0.2-1.9-0.7-2.8-0.2-0.4-0.6-0.8-1-1.2z"/>
	<path d="m42.8 285.2c0.5 0.3 1.1 0.4 1.6 0.4 0.6-0.1 1.1-0.3 1.5-0.6s0.7-0.7 1-1.2c0.5-0.9 0.7-1.8 0.7-2.8 0 1-0.3 1.9-0.9 2.7-0.3 0.4-0.6 0.7-1 0.9s-0.8 0.3-1.2 0.2c-0.8-0.1-1.4-0.7-1.8-1.4s-0.6-1.6-0.6-2.4 0.2-1.7 0.6-2.4 1-1.3 1.8-1.4c0.4 0 0.8 0 1.2 0.2s0.8 0.5 1 0.9c0.6 0.8 0.8 1.7 0.9 2.7 0-1-0.2-1.9-0.7-2.8-0.2-0.4-0.6-0.8-1-1.2-0.4-0.3-0.9-0.6-1.5-0.6s-1.1 0.1-1.6 0.4-0.9 0.7-1.3 1.1c-0.7 0.9-1 2-1 3.1s0.3 2.2 1 3.1c0.3 0.4 0.8 0.8 1.3 1.1z"/>
	<path d="m56.9 296.9c-0.3 0.4-0.6 0.7-1 0.9s-0.8 0.3-1.2 0.2c-0.8-0.1-1.4-0.7-1.8-1.4s-0.6-1.6-0.6-2.4 0.2-1.7 0.6-2.4 1-1.3 1.8-1.4c0.4 0 0.8 0 1.2 0.2s0.8 0.5 1 0.9c0.6 0.8 0.8 1.7 0.9 2.7 0-1-0.2-1.9-0.7-2.8-0.2-0.4-0.6-0.8-1-1.2-0.4-0.3-0.9-0.6-1.5-0.6s-1.1 0.1-1.6 0.4-0.9 0.7-1.3 1.1c-0.7 0.9-1 2-1 3.1s0.3 2.2 1 3.1c0.3 0.4 0.8 0.8 1.3 1.1s1.1 0.4 1.6 0.4c0.6-0.1 1.1-0.3 1.5-0.6s0.7-0.7 1-1.2c0.5-0.9 0.7-1.8 0.7-2.8 0 1-0.3 1.9-0.9 2.7z"/>
	<path d="m45.9 304.1c-0.4-0.3-0.9-0.6-1.5-0.6s-1.1 0.1-1.6 0.4-0.9 0.7-1.3 1.1c-0.7 0.9-1 2-1 3.1s0.3 2.2 1 3.1c0.3 0.4 0.8 0.8 1.3 1.1s1.1 0.4 1.6 0.4c0.6-0.1 1.1-0.3 1.5-0.6s0.7-0.7 1-1.2c0.5-0.9 0.7-1.8 0.7-2.8 0 1-0.3 1.9-0.9 2.7-0.3 0.4-0.6 0.7-1 0.9s-0.8 0.3-1.2 0.2c-0.8-0.1-1.4-0.7-1.8-1.4s-0.6-1.6-0.6-2.4 0.2-1.7 0.6-2.4 1-1.3 1.8-1.4c0.4 0 0.8 0 1.2 0.2s0.8 0.5 1 0.9c0.6 0.8 0.8 1.7 0.9 2.7 0-1-0.2-1.9-0.7-2.8-0.3-0.5-0.6-0.9-1-1.2z"/>
	<path d="m35.8 290.5c-0.4-0.3-0.9-0.6-1.5-0.6s-1.1 0.1-1.6 0.4-0.9 0.7-1.3 1.1c-0.7 0.9-1 2-1 3.1s0.3 2.2 1 3.1c0.3 0.4 0.8 0.8 1.3 1.1s1.1 0.4 1.6 0.4c0.6-0.1 1.1-0.3 1.5-0.6s0.7-0.7 1-1.2c0.5-0.9 0.7-1.8 0.7-2.8 0 1-0.3 1.9-0.9 2.7-0.3 0.4-0.6 0.7-1 0.9s-0.8 0.3-1.2 0.2c-0.8-0.1-1.4-0.7-1.8-1.4s-0.6-1.6-0.6-2.4 0.2-1.7 0.6-2.4 1-1.3 1.8-1.4c0.4 0 0.8 0 1.2 0.2s0.8 0.5 1 0.9c0.6 0.8 0.8 1.7 0.9 2.7 0-1-0.2-1.9-0.7-2.8-0.3-0.4-0.6-0.8-1-1.2z"/>
	<path d="m22.6 222.7c0.2-0.4 0.4-0.7 0.6-1.1s0.4-0.7 0.6-1l-0.1 0.3-0.6-5.5v-0.1l0.1-0.1 1.9-3.9 0.4-0.7 0.5 0.7 4 5.5 0.1 0.1v0.2l0.3 8.7v0.2l-0.1 0.1-2.8 3.8-1 1.4 0.1-1.7 0.2-3 0.7 0.5c-0.5 0.2-1 0.4-1.6 0.7l-0.3-0.5c0.5-0.3 0.9-0.7 1.4-1l0.8-0.5-0.1 1-0.2 3-0.9-0.3 2.8-3.8-0.1 0.3-0.3-8.7 0.1 0.3-4-5.5 0.8-0.1-1.9 3.9v-0.3l0.6 5.5v0.1l-0.1 0.2c-0.2 0.4-0.4 0.7-0.7 1-0.2 0.3-0.5 0.7-0.8 1l-0.4-0.7z"/>
	<path d="m2.8 216.1c1.4-0.2 2.9-0.4 4.3-0.5 1.4-0.2 2.9-0.3 4.3-0.4s2.9-0.2 4.3-0.3l2.2-0.1h2.2c-1.4 0.2-2.9 0.4-4.3 0.5-1.4 0.2-2.9 0.3-4.3 0.4s-2.9 0.2-4.3 0.3c-1.5 0-2.9 0.1-4.4 0.1z"/>
	<path d="m63.5 194.8c-0.1 0.2-0.3 0.2-0.3 0.2h-0.3c-0.2-0.1-0.4-0.1-0.5-0.2l-1.1-0.3h0.3l-1.8 0.6-0.3-0.9 1.8-0.6h0.1 0.1l1.1 0.3c0.2 0.1 0.4 0.1 0.6 0.1 0.1 0 0.2 0 0.3 0.1 0.1 0 0.2 0.1 0.2 0.4l-0.2 0.3z"/>
	<path d="m71.3 193.3c-0.4 0.1-0.7 0.2-1.1 0.1-0.4 0-0.7 0-1.1-0.1-0.7-0.1-1.4-0.2-2.1-0.3h0.2c-0.3 0.1-0.6 0.2-0.9 0.4-0.3 0.1-0.6 0.3-0.9 0.5-0.6 0.3-1.1 0.7-1.6 1.1l-0.6-0.8c0.6-0.5 1.1-0.9 1.8-1.2 0.3-0.2 0.6-0.3 0.9-0.5s0.6-0.3 1-0.4h0.1 0.2c0.7 0 1.4 0.1 2.1 0.2 0.4 0 0.7 0.1 1.1 0.2 0.3 0.1 0.7 0.2 1 0.4l-0.1 0.4z"/>
	<path d="m123 109.3c0 0.6-0.1 1.1-0.2 1.7-0.1 0.5-0.3 1.1-0.6 1.6s-0.6 1-1.1 1.3c-0.5 0.4-1.1 0.6-1.7 0.6s-1.3-0.2-1.7-0.6c-0.5-0.4-0.9-0.9-1.2-1.4s-0.5-1.1-0.6-1.7-0.1-1.2-0.1-1.8c0.1-1.2 0.4-2.4 1.1-3.4 0.3-0.5 0.8-1 1.3-1.3s1.2-0.5 1.8-0.5c0.6 0.1 1.2 0.4 1.6 0.8s0.7 0.9 1 1.4c0.3 1 0.4 2.2 0.4 3.3 0-1.1-0.2-2.3-0.7-3.3s-1.5-1.8-2.5-1.8-1.9 0.8-2.3 1.7c-0.5 0.9-0.7 2-0.8 3 0 1.1 0.1 2.1 0.5 3.1 0.4 0.9 1.1 1.8 2.2 1.9 0.5 0 1-0.1 1.5-0.4s0.8-0.7 1.2-1.2c0.5-0.7 0.8-1.9 0.9-3z"/>
	<path d="m151.3 108.2c0 0.8-0.1 1.5-0.4 2.3-0.1 0.4-0.3 0.7-0.5 1.1-0.1 0.2-0.3 0.3-0.4 0.5-0.2 0.1-0.4 0.2-0.7 0.2s-0.5-0.1-0.7-0.2-0.4-0.3-0.5-0.5c-0.3-0.4-0.4-0.7-0.6-1.1l-0.3-1.2c0-0.4-0.1-0.8 0-1.2 0-0.8 0.2-1.6 0.5-2.4 0.2-0.4 0.4-0.7 0.7-1.1 0.1-0.2 0.3-0.3 0.5-0.4s0.5-0.2 0.7-0.2c0.3 0 0.5 0.2 0.6 0.3 0.2 0.2 0.3 0.3 0.4 0.5 0.2 0.4 0.3 0.7 0.4 1.1 0.3 0.8 0.3 1.6 0.3 2.3v-1.2c0-0.4-0.1-0.8-0.3-1.1-0.1-0.4-0.3-0.7-0.5-1-0.1-0.1-0.2-0.3-0.4-0.4-0.1-0.1-0.3-0.1-0.4-0.1-0.3 0-0.5 0.2-0.7 0.5s-0.3 0.6-0.4 0.9c-0.2 0.7-0.3 1.4-0.3 2.1s0 1.5 0.1 2.2c0.1 0.3 0.2 0.7 0.3 1 0.2 0.3 0.4 0.5 0.6 0.6 0.3 0 0.6-0.1 0.8-0.4l0.6-0.9c0.1-0.4 0.3-0.7 0.4-1.1 0.1-0.3 0.1-0.7 0.2-1.1z"/>
	<path d="m155.6 270.6c-2.3 0.1-4.5 0.2-6.8 0.3s-4.5 0.3-6.8 0.6c2.3 0.1 4.5 0.2 6.8 0.2s4.5 0 6.8-0.1 4.5-0.2 6.8-0.3 4.5-0.3 6.8-0.6c-2.3-0.1-4.5-0.2-6.8-0.2s-4.6 0-6.8 0.1z"/>
	<path d="m151.4 280.2c2.4 0 4.7-0.1 7.1-0.3 2.4-0.1 4.7-0.3 7.1-0.5 2.3-0.2 4.7-0.4 7-0.7-2.4-0.1-4.7-0.1-7.1 0-2.4 0-4.7 0.1-7.1 0.3-2.4 0.1-4.7 0.3-7.1 0.5-2.3 0.2-4.7 0.4-7 0.7 2.4 0.1 4.8 0.1 7.1 0z"/>
	<path d="m162 317.1c-2.8 0.4-5.6 0.7-8.4 1.1s-5.6 0.9-8.3 1.4l8.4-0.6c2.8-0.3 5.6-0.6 8.4-0.9 2.8-0.4 5.6-0.7 8.4-1.1s5.6-0.9 8.3-1.4l-8.4 0.6c-2.8 0.2-5.6 0.6-8.4 0.9z"/>
	<path d="m165.7 312.6c-2.5 0.3-5 0.6-7.5 1l-7.5 1.2c2.5-0.1 5.1-0.3 7.6-0.5s5-0.5 7.6-0.8c2.5-0.3 5-0.6 7.5-1l7.5-1.2c-2.5 0.1-5.1 0.3-7.6 0.5-2.6 0.2-5.1 0.5-7.6 0.8z"/>
	<path d="m174.3 306.8c-2.6 0.2-5.2 0.5-7.8 0.8s-5.2 0.6-7.8 1-5.2 0.8-7.7 1.3c2.6-0.1 5.2-0.3 7.8-0.5s5.2-0.5 7.8-0.8 5.2-0.6 7.8-1 5.2-0.8 7.7-1.3c-2.6 0.1-5.2 0.3-7.8 0.5z"/>
	<path d="m166.1 303.4c-2.6 0.3-5.2 0.6-7.8 1s-5.2 0.8-7.7 1.3c2.6-0.1 5.2-0.3 7.8-0.5s5.2-0.5 7.8-0.8 5.2-0.6 7.8-1 5.2-0.8 7.7-1.3c-2.6 0.1-5.2 0.3-7.8 0.5-2.6 0.3-5.2 0.5-7.8 0.8z"/>
	<path d="m165.6 298.5c-2.6 0.3-5.2 0.6-7.8 0.9s-5.2 0.7-7.7 1.2c2.6-0.1 5.2-0.2 7.8-0.4s5.2-0.4 7.8-0.7 5.2-0.6 7.8-0.9 5.2-0.7 7.7-1.2c-2.6 0.1-5.2 0.2-7.8 0.4s-5.2 0.5-7.8 0.7z"/>
	<path d="m164.6 294.5c2.6-0.3 5.2-0.5 7.8-0.9 2.6-0.3 5.2-0.7 7.7-1.1-2.6 0-5.2 0.2-7.8 0.4l-7.8 0.6c-2.6 0.3-5.2 0.5-7.8 0.9-2.6 0.3-5.2 0.7-7.7 1.1 2.6 0 5.2-0.2 7.8-0.4 2.6-0.1 5.2-0.4 7.8-0.6z"/>
	<path d="m163.2 289.8c2.6-0.2 5.2-0.5 7.8-0.8s5.2-0.6 7.7-1.1c-2.6 0-5.2 0.1-7.8 0.3-2.6 0.1-5.2 0.3-7.8 0.6-2.6 0.2-5.2 0.5-7.8 0.8s-5.2 0.6-7.7 1.1c2.6 0 5.2-0.1 7.8-0.3 2.7-0.1 5.3-0.3 7.8-0.6z"/>
	<path d="m153.9 285.3c2.6-0.1 5.2-0.2 7.8-0.4s5.2-0.3 7.8-0.6c2.6-0.2 5.2-0.5 7.7-0.8-2.6-0.1-5.2 0-7.8 0.1s-5.2 0.2-7.8 0.4-5.2 0.3-7.8 0.6c-2.6 0.2-5.2 0.5-7.7 0.8 2.6 0.1 5.2 0 7.8-0.1z"/>
	<path d="m198.9 257.6c2 0 4 0 6-0.1s4-0.2 6-0.4c-2-0.2-4-0.3-6-0.4s-4-0.1-6-0.1-4 0-6 0.1-4 0.2-6 0.4c2 0.2 4 0.3 6 0.4 1.9 0 3.9 0.1 6 0.1z"/>
	<path d="m203 259.6c-2 0-4 0-6 0.1s-4 0.2-6 0.4c2 0.2 4 0.3 6 0.4s4 0.1 6 0.1 4 0 6-0.1 4-0.2 6-0.4c-2-0.2-4-0.3-6-0.4-2 0-4-0.1-6-0.1z"/>
	<path d="m204.8 262.7c-2 0-4 0-6 0.1s-4 0.2-6 0.4c2 0.2 4 0.3 6 0.4s4 0.1 6 0.1 4 0 6-0.1 4-0.2 6-0.4c-2-0.2-4-0.3-6-0.4s-4-0.1-6-0.1z"/>
	<path d="m206.6 266.4c-2 0.1-4.1 0.2-6.1 0.3s-4.1 0.3-6.1 0.6c2 0.1 4.1 0.2 6.1 0.2s4.1 0 6.1-0.1 4.1-0.2 6.1-0.3 4.1-0.3 6.1-0.6c-2-0.1-4.1-0.2-6.1-0.2-2.1 0-4.1 0.1-6.1 0.1z"/>
	<path d="m207.5 269.8c-2.1 0.1-4.3 0.2-6.4 0.3s-4.3 0.3-6.4 0.6c2.1 0.1 4.3 0.2 6.4 0.2s4.3 0 6.4-0.1 4.3-0.1 6.4-0.3c2.1-0.1 4.3-0.3 6.4-0.6-2.1-0.1-4.3-0.2-6.4-0.2s-4.2 0-6.4 0.1z"/>
	<path d="m215.4 273.9c-2.1 0-4.3 0.1-6.4 0.2s-4.3 0.2-6.4 0.4-4.3 0.4-6.4 0.7c2.1 0.1 4.3 0.1 6.4 0.1s4.3-0.1 6.4-0.2 4.3-0.2 6.4-0.4 4.3-0.4 6.4-0.7c-2.2-0.1-4.3-0.1-6.4-0.1z"/>
	<path d="m212.3 309.4c-2.5 0.3-5 0.7-7.5 1.1s-5 0.8-7.5 1.3c2.5-0.1 5.1-0.3 7.6-0.6 2.5-0.2 5-0.5 7.5-0.8s5-0.7 7.5-1.1 5-0.8 7.5-1.3c-2.5 0.1-5.1 0.3-7.6 0.6-2.5 0.2-5 0.5-7.5 0.8z"/>
	<path d="m215.6 305.2c-2.3 0.3-4.5 0.6-6.8 0.9-2.2 0.3-4.5 0.7-6.7 1.2 2.3-0.1 4.5-0.2 6.8-0.4s4.5-0.4 6.8-0.7 4.5-0.6 6.8-0.9c2.2-0.3 4.5-0.7 6.7-1.2-2.3 0.1-4.5 0.2-6.8 0.4s-4.5 0.5-6.8 0.7z"/>
	<path d="m216.4 300.6c-2.3 0.3-4.6 0.6-6.9 0.9s-4.6 0.7-6.9 1.2c2.3-0.1 4.7-0.2 7-0.4s4.6-0.4 7-0.7c2.3-0.3 4.6-0.6 6.9-0.9s4.6-0.7 6.9-1.2c-2.3 0.1-4.7 0.2-7 0.4-2.4 0.2-4.7 0.4-7 0.7z"/>
	<path d="m216 296.8c-2.3 0.3-4.6 0.6-6.9 0.9s-4.6 0.7-6.9 1.2c2.3-0.1 4.7-0.2 7-0.4s4.6-0.4 7-0.7c2.3-0.3 4.6-0.6 6.9-0.9s4.6-0.7 6.9-1.2c-2.3 0.1-4.7 0.2-7 0.4-2.4 0.2-4.7 0.4-7 0.7z"/>
	<path d="m215.5 292.3c-2.3 0.3-4.6 0.5-6.9 0.9-2.3 0.3-4.6 0.7-6.9 1.1 2.3 0 4.7-0.2 7-0.4s4.6-0.4 7-0.6c2.3-0.3 4.6-0.5 6.9-0.9 2.3-0.3 4.6-0.7 6.9-1.1-2.3 0-4.7 0.2-7 0.4-2.3 0.1-4.6 0.3-7 0.6z"/>
	<path d="m214.6 287.6c-2.3 0.2-4.6 0.5-6.9 0.8s-4.6 0.6-6.9 1.1c2.3 0 4.7-0.1 7-0.3s4.6-0.4 7-0.6c2.3-0.2 4.6-0.5 6.9-0.8s4.6-0.6 6.9-1.1c-2.3 0-4.7 0.1-7 0.3-2.4 0.2-4.7 0.4-7 0.6z"/>
	<path d="m213.4 283.3c-2.3 0.2-4.6 0.4-6.9 0.7s-4.6 0.6-6.9 1c2.3 0 4.7-0.1 7-0.2s4.6-0.3 7-0.5c2.3-0.2 4.6-0.4 6.9-0.7s4.6-0.6 6.9-1c-2.3 0-4.7 0.1-7 0.2-2.4 0.1-4.7 0.3-7 0.5z"/>
	<path d="m211.9 278.9c-2.3 0.2-4.6 0.3-6.9 0.5s-4.6 0.5-6.9 0.8c2.3 0.1 4.7 0 7 0 2.3-0.1 4.6-0.2 7-0.3 2.3-0.2 4.6-0.3 6.9-0.5s4.6-0.5 6.9-0.8c-2.3-0.1-4.7 0-7 0s-4.6 0.1-7 0.3z"/>
	<polygon points="339.5 158.5 358.8 128 370.2 139.4 387.2 111.6 390.2 113.7 388.9 106.5 381.7 107.8 384.8 109.9 369.6 134.7 358.3 123.4 338.6 154.4 324.1 145.2 288.2 210.4 291.5 210.4 325.2 149.4"/>
	<path d="m384.5 161.6l1.7 1.2-1.3 2.2-44.3 1.4v45.2h0.3 1.3 43.6v-44.3l2.1-3.4 1.7 1.2-0.8-4.2-4.3 0.7zm-2.3 4.5l2-0.1-2 3.3v-3.2zm-6.9 5.5l1.5 1.5h-1.5v-1.5zm-3.4-1.6l2.1-0.1-1.4 3.4h-0.6v-3.3h-0.1zm0 3.5h0.5l-0.5 1.3v-1.3zm-3.5 3.5l2.5-0.1-1.3 3.1h-1.2v-3zm0 3.3h1.1l-1.1 2.6v-2.6zm-3.4 3.6l3.1-0.1-1.4 3.2h-1.7v-3.1zm1.6 3.5l-0.6 1.5-1-1.4 1.6-0.1zm-5.1-1.4l0.8 1.2h-0.8v-1.2zm0 1.4h0.9l2 3h-3v-3h0.1zm-6.9-3.3h1.5l-1.5 2.7v-2.7zm-3.5 3.5l3-0.1-1.7 3h-1.4l0.1-2.9zm0 3.2h1.2l-1.2 2.2v-2.2zm-3.4 3.5h2.8l-1.8 3.3h-0.9l-0.1-3.3zm0 3.5h0.8l-0.8 1.4v-1.4zm-3.5 3.5h2.3l-1.8 3.2h-0.5v-3.2zm0 3.4h0.4l-0.4 0.7v-0.7zm-2.7 5.6v-2.1h1.2l-1.2 2.1zm2.5 0.3v-0.1 0.1zm0-4.7l-1.1 2h-1.3v-3.2h2.4v1.2zm0-1.4h-2.4v-3.2h2.4v3.2zm0-3.5h-2.4v-3.2h2.4v3.2zm0-3.4h-2.4v-3.2h2.4v3.2zm0-3.5h-2.4v-3.2h2.4v3.2zm0-3.5h-2.4v-2.9h2.4v2.9zm0-3.1h-2.4v-3.2h2.4v3.2zm0-3.5h-2.4v-3.3h2.4v3.3zm0-3.5h-2.4v-2.9l2.4-0.1v3zm0-3.2l-2.4 0.1v-3l2.4-0.1v3zm0-3.3l-2.4 0.1v-3.2l2.4-0.1v3.2zm0-3.4l-2.4 0.1v-3.3l2.4-0.1v3.3zm3.4 40h-3.2v-0.6l1-1.8h2.2v2.4zm0-2.6h-2l1.8-3.2h0.2v3.2zm0-3.5h-0.1l0.1-0.2v0.2zm0-4.8l-0.7 1.4h-2.5v-3.2h3.2v1.8zm0-2.1h-3.2v-3.3h3.2v3.3zm0-3.6h-3.2v-3.2h3.2v3.2zm0-3.4h-3.2v-2.9l3.2-0.1v3zm0-3.2l-3.2 0.1v-3.2l3.2-0.1v3.2zm0-3.4l-3.2 0.1v-3.3l3.2-0.1v3.3zm0-3.6l-3.2 0.1v-2.9l3.2-0.1v2.9zm0-3.2l-3.2 0.1v-3l3.2-0.1v3zm0-3.2l-3.2 0.1v-3.2l3.2-0.1v3.2zm0-3.5l-3.2 0.1v-3.3l3.2-0.1v3.3zm3.5 40.1h-3.2v-2.4h3.2v2.4zm0-2.7h-3.2v-3.2h3.2v3.2zm0-3.4h-3.2v-0.6l1.4-2.6h1.8v3.2zm0-3.5h-1.6l1.6-2.9v2.9zm0-7.6l-0.3 0.6h-2.9v-3.2h3.2v2.6zm0-2.8h-3.2v-2.9l3.2-0.1v3zm0-3.2l-3.2 0.1v-3.2l3.2-0.1v3.2zm0-3.5l-3.2 0.1v-3.3l3.2-0.1v3.3zm0-3.5l-3.2 0.1v-3l3.2-0.1v3zm0-3.2l-3.2 0.1v-3l3.2-0.1v3zm0-3.3l-3.2 0.1v-3.2l3.2-0.1v3.2zm0-3.5l-3.2 0.1v-3.3l3.2-0.1v3.3zm3.5 40.2h-3.2v-2.4h3.2v2.4zm0-2.7h-3.2v-3.2h3.2v3.2zm0-3.4h-3.2v-3.2h3.2v3.2zm0-3.5h-3.2v-3.2h3.2v3.2zm0-3.4h-3.2l1.9-3.3h1.3v3.3zm0-3.7h-1.2l1.2-2.1v2.1zm0-6.7l-0.1 0.1-3.1 0.1v-3.2l3.2-0.1v3.1zm0-3.4l-3.2 0.1v-3.3l3.2-0.1v3.3zm0-3.5l-3.2 0.1v-3l3.2-0.1v3zm0-3.2l-3.2 0.1v-3.1l3.2-0.1v3.1zm0-3.3l-3.2 0.1v-3.3l3.2-0.1v3.3zm0-3.5l-3.2 0.1v-3.3l3.2-0.1v3.3zm3.4 40.3h-3.2v-2.4h3.2v2.4zm0-2.7h-3.2v-3.2h3.2v3.2zm0-3.4h-3.2v-3.2h3.2v3.2zm0-3.5h-3.2v-3.2h3.2v3.2zm0-3.5h-3.2v-3.4h3.2v3.4zm0-3.6h-3.2v-2.5l0.4-0.7h2.8v3.2zm0-3.4h-2.7l1.7-3h1v3zm0-3.2h-0.9l0.9-1.6v1.6zm0-6.4l-1.6 2.9h-1.6v-3.3l3.2-0.1v0.5zm0-0.6l-3.2 0.1v-3l3.2-0.1v3zm0-3.3l-3.2 0.1v-3.1l3.2-0.1v3.1zm0-3.3l-3.2 0.1v-3.3l3.2-0.1v3.3zm0-3.6l-3.2 0.1v-3.2l3.2-0.1v3.2zm3.5 40.5h-3.2v-2.4h3.2v2.4zm0-2.7h-3.2v-3.2h3.2v3.2zm0-3.4h-3.2v-3.2h3.2v3.2zm0-3.5h-3.2v-3.2h3.2v3.2zm0-3.5h-3.2v-3.4h3.2v3.4zm0-3.6h-3.2v-3.2h3.2v3.2zm0-3.4h-3.2v-3l3.2-0.1v3.1zm0-3.3l-3.2 0.1v-2l0.7-1.2h1.5l1.1 1.6-0.1 1.5zm-2.4-3.4l0.5-1 0.6 0.9-1.1 0.1zm2.4-2l-0.9-1.3h0.9v1.3zm0-1.6h-1l-1.1-1.7-0.9 1.7h-0.1v-3l3.2-0.1-0.1 3.1zm0-3.3l-3.2 0.1v-3.1l3.2-0.1v3.1zm0-3.3l-3.2 0.1v-3.3l3.2-0.1v3.3zm0-3.6l-3.2 0.1v-3.3l3.2-0.1v3.3zm3.4 40.6h-3.2v-2.4h3.2v2.4zm0-2.7h-3.2v-3.2h3.2v3.2zm0-3.4h-3.2v-3.2h3.2v3.2zm0-3.5h-3.2v-3.2h3.2v3.2zm0-3.5h-3.2v-3.4h3.2v3.4zm0-3.7h-3.2v-3.2h3.1l0.1 0.1v3.1zm0-6.8l-2-3h2v3zm0-3.3h-2.2l-1-1.5v-1.7l3.2-0.1v3.3zm0-3.6l-3.2 0.1v-3l3.2-0.1v3zm0-3.2l-3.2 0.1v-3.1l3.2-0.1v3.1zm0-3.4l-3.2 0.1v-3.3l3.2-0.1v3.3zm0-3.6l-3.2 0.1v-3.3l3.2-0.1v3.3zm3.5 40.7h-3.2v-2.4h3.2v2.4zm0-2.7h-3.2v-3.2h3.2v3.2zm0-3.4h-3.2v-3.2h3.2v3.2zm0-3.5h-3.2v-3.2h3.2v3.2zm0-3.5h-3.2v-3.4h3.2v3.4zm0-3.7h-3.2v-2.6l1.2 1.8 1-2.3h1.1l-0.1 3.1zm0-3.4h-1l1-2.4v2.4zm0-6.9l-3.2 0.1v-3.3l3.2-0.1v3.3zm0-3.4l-3.2 0.1v-3l3.2-0.1v3zm0-3.3l-3.2 0.1v-3.1l3.2-0.1v3.1zm0-3.4l-3.2 0.1v-3.3l3.2-0.1v3.3zm0-3.6l-3.2 0.1v-3.3l3.2-0.1v3.3zm3.4 40.8h-3.2v-2.5h3.2v2.5zm0-2.7h-3.2v-3.2h3.2v3.2zm0-3.5h-3.2v-3.2h3.2v3.2zm0-3.4h-3.2v-3.2h3.2v3.2zm0-3.5h-3.2v-3.5h3.2v3.5zm0-3.7h-3.2v-3.1h3.2v3.1zm0-3.4h-3.2v-2.9l0.1-0.2 3.1-0.1v3.2zm0-3.4l-3 0.1 1.4-3.2h1.7v3.1h-0.1zm0-3.4h-1.6l1.4-3.3h0.2v3.3zm0-3.6h-0.1l0.1-0.2v0.2zm0-4.6l-0.6 1.4-2.6 0.1v-3.2l3.2-0.1v1.8zm0-2.1l-3.2 0.1v-3.3l3.2-0.1v3.3zm0-3.6l-3.2 0.1v-3.3l3.2-0.1v3.3zm3.5 40.9h-3.2v-2.5h3.2v2.5zm0-2.7h-3.2v-3.2h3.2v3.2zm0-3.5h-3.2v-3.2h3.2v3.2zm0-3.4h-3.2v-3.2h3.2v3.2zm0-3.5h-3.2v-3.5h3.2v3.5zm0-3.8h-3.2v-3.1h3.2v3.1zm0-3.3h-3.2v-3.1l3.2-0.1v3.2zm0-3.4l-3.2 0.1v-3.2l3.2-0.1v3.2zm0-3.5l-3.2 0.1v-3.3l3.2-0.1v3.3zm0-3.5l-3.2 0.1v-0.8l0.9-2.3h2.3v3zm0-3.4h-2.2l1.3-3.2h0.8l0.1 3.2zm0-3.4h-0.7l0.7-1.7v1.7zm0-4.5l-0.4-0.5-0.6 1.4-2.2 0.1v-3.3l3.2-0.1v2.4zm3.4 41.9h-3.2v-2.5h3.2v2.5zm0-2.7h-3.2v-3.2h3.2v3.2zm0-3.5h-3.2v-3.2h3.2v3.2zm0-3.4h-3.2v-3.2h3.2v3.2zm0-3.5h-3.2v-3.5h3.2v3.5zm0-3.8h-3.2v-3.1h3.2v3.1zm0-3.4h-3.2v-3.2l3.2-0.1v3.3zm0-3.4l-3.2 0.1v-3.2l3.2-0.1v3.2zm0-3.5l-3.2 0.1v-3.3l3.2-0.1v3.3zm0-3.5l-3.2 0.1v-3.1l3.2-0.1v3.1zm0-3.3l-3.2 0.1v-3.2h1.8l1.4 1.5v1.6zm0-4.4l-2.3-2.3 2.3-0.1v2.4zm0-2.7l-2.6 0.1-0.6-0.6v-2.6l3.2-0.1v3.2zm3.5 41.1h-3.2v-2.5h3.2v2.5zm0-2.7h-3.2v-3.2h3.2v3.2zm0-3.5h-3.2v-3.2h3.2v3.2zm0-3.4h-3.2v-3.2h3.2v3.2zm0-3.5h-3.2v-3.6h3.2v3.6zm0-3.8h-3.2v-3.1h3.2v3.1zm0-3.4h-3.2v-3.2l3.2-0.1v3.3zm0-3.5l-3.2 0.1v-3.2l3.2-0.1v3.2zm0-3.4l-3.2 0.1v-3.3l3.2-0.1v3.3zm0-3.5l-3.2 0.1v-3.1l3.2-0.1v3.1zm0-3.4l-3.2 0.1v-1.5l1.3 1.3 1.9-3.1v3.2zm-2.3-3.2h0.2-0.2zm2.3-3.6l-2 3.3h-0.5l-0.6-0.6v-2.7h3.1zm0-0.3l-3.2 0.1v-3.3l3.2-0.1v3.3zm2.7 41.2h-2.4v-2.5h2.4v2.5zm0-2.7h-2.4v-3.2h2.4v3.2zm0-3.5h-2.4v-3.2h2.4v3.2zm0-3.4h-2.4v-3.2h2.4v3.2zm0-3.5h-2.4v-3.6h2.4v3.6zm0-3.9h-2.4v-3.1h2.4v3.1zm0-3.3h-2.4v-3.2h2.4v3.2zm0-3.5h-2.4v-3.2h2.4v3.2zm0-3.5h-2.4v-3.3h2.4v3.3zm0-3.5h-2.4v-3.1l2.4-0.1v3.2zm0-3.4l-2.4 0.1v-3.3l2.4-0.1v3.3zm0-3.5l-2.4 0.1v-0.1l2-3.3h0.4v3.3zm0-3.6h-0.2l0.2-0.4v0.4z"/>
	<path d="m114.2 199.5c5 4.2 11 7 17.4 8.3 2.6 0.5 5.2 0.8 7.8 0.8 1.3 0 2.6-0.1 3.9-0.2 4.6-0.4 9-1.6 13.1-3.6 5.3-2.5 9.9-6.1 13.7-10.7 6.7-8.2 9.9-18.5 8.9-29.1s-6.1-20.1-14.3-26.9c-4.7-3.9-10-6.5-15.7-7.9-4.3-1.1-8.8-1.4-13.3-1-3.4 0.3-6.6 1.1-9.7 2.2-6.6 2.4-12.5 6.6-17.1 12.1-6.7 8.2-9.9 18.5-8.9 29.1 0.9 10.6 6 20.2 14.2 26.9zm-4.6-55.3c4.4-5.4 10.2-9.5 16.7-11.8 3-1.1 6.2-1.8 9.5-2.1 1.3-0.1 2.5-0.2 3.8-0.2 3.1 0 6.2 0.4 9.2 1.1 5.6 1.4 10.8 4 15.4 7.7 8 6.6 12.9 15.9 13.9 26.2s-2.1 20.4-8.7 28.4c-3.7 4.5-8.2 8-13.4 10.4-4 1.9-8.3 3.1-12.8 3.5-3.8 0.4-7.7 0.2-11.4-0.6-6.2-1.2-12-4-16.9-8.1-8-6.6-12.9-15.9-13.9-26.2-1.1-10.3 2-20.3 8.6-28.3z"/>
	<path d="m139.7 203.9c19.4 0 35.2-15.8 35.2-35.3s-15.8-35.3-35.2-35.3-35.2 15.8-35.2 35.3 15.7 35.3 35.2 35.3zm0-69c18.6 0 33.7 15.2 33.7 33.8s-15.1 33.8-33.7 33.8-33.7-15.2-33.7-33.8c-0.1-18.7 15.1-33.8 33.7-33.8z"/>
	<path d="m215.9 257.2c-3-3.3-9.9-3.7-35.8-3.7h-27.5c-0.4-3.8-2.4-6.6-5-6.6h-5.7l-12-5.2c0.3-1.1 0.5-2.2 0.5-3.4 0-0.7-0.1-1.5-0.2-2.2l13.8-9.5 3.2-0.1c2.6 0 4.7-3.1 4.7-7.1 0-1.2-0.2-2.4-0.6-3.4 12.7-3.9 22.8-12.8 28-25l0.5-1.6c0-0.1 0.9-2.4 4.6-14.7 0.2 2.8 0.4 4.7 0.8 6.9l0.8 4c0.8 3.8 4.3 6.5 8.1 6.5 3.1 0 6-1.8 7.4-4.6 1.8-0.5 3.4-0.9 4-1.1l4.6 3.2 5-1.6-0.4-1.4-4.3 1.3-4.6-3.2-0.3 0.1c-0.1 0-6.4 1.7-10.1 2.7l-0.4 0.1c-2.1 0.1-4.3-1.8-5.2-4.5-1-3-0.1-6 2-7l0.7-0.2c2.5-0.8 9.8-3.1 9.9-3.1l0.3-0.1 1.6-3.8 4.1-1.7-0.6-1.4-4.6 1.9-0.3 0.9-2.6 0.9-1.9-11.1c1.3-1 2.1-1.9 2.2-2l0.1-0.2v-0.2c0.9-6.4-2.3-14.5-9-16.8-0.1-0.6-0.1-1.2-0.2-1.8-0.2-1.4-0.5-2.8-0.9-4-0.6-2-1.3-3.8-2.2-5.4-0.2-0.4-0.4-0.8-0.7-1.1-0.4-1.2-3.8-5.5-29.2-9h-0.1s-1 0-2.7-0.1v-0.2l-0.1-14.8c0.1-3.4-2.4-4.8-3.7-5.1-2.3-0.6-4.6-1-7-1.4 0-0.1 0-0.2-0.1-0.2 0-0.1 0-0.1-0.1-0.2l-0.5-1.5c-0.4-1-1.2-1.6-2.1-1.6s-1.7 0.6-2.1 1.6l-0.4 1.4c-0.3 0-0.6 0-0.9-0.1l-0.4-3.4c0-0.6-0.8-1.2-1.3-1.2h-2.2c-0.5 0-1.3 0.7-1.3 1.2l-0.3 3.2c-1.9-0.1-3.8-0.1-6-0.1-5.9 0-11.5 0.3-16.5 0.9l-0.4-0.7-0.1-0.1c-0.2-0.3-0.9-1-2.5-1.1h-0.8l-0.9-12c0-0.4-0.2-0.8-0.5-1.1s-0.7-0.4-1.2-0.4c-0.4 0-0.8 0.2-1.1 0.5s-0.4 0.7-0.4 1.1l-0.2 12.2-1 0.2c-1.9 0.5-2.2 1.7-2.2 1.8l-0.4 1.8c-2.4 0.7-4.5 1.5-6.3 2.4-0.6 0.2-2.7 1-2.7 4.9 0 2.2 0.9 12.5 0.9 13 0 0.1 0.3 3.1 2 4.8 0.2 0.2 0.4 0.4 0.7 0.5-6.6 2-12.9 4.7-15.7 8.1-0.1 0.1-0.2 0.2-0.2 0.3l-11.4 9.7-0.1 0.1c-0.1 0.1-2.2 2.5-3.3 6.7-3.8-0.2-7.3 1.3-10.1 4.2-3.7 4-5.6 10.1-4.8 15.7v0.2l0.1 0.2c0.1 0.2 1.8 2.2 4.6 3.6v17.6h-1.7l-4.2 1.2-19.6 6.3h-0.1c-0.2 0.1-0.4 0.1-0.5 0.2-3.8 1.5-6.3 5.3-7 10.5l-13.1 1.4-6.6 6 0.6 8.2 11.9-0.6 0.1 2.6-8.1 0.5-1.1 1.3h-0.3l3.6 6.9 18.6-0.6h0.5l2.3-3.1c3 2.7 6.4 4.2 9.5 4.2 1.2 0 2.3-0.2 3.4-0.6 1-0.4 1.9-1 2.8-1.7l20.3-13.8 0.6-0.8c1-1.4 1.7-3.1 2.1-5l4.3-3.3 0.7-3.6c0.7-0.5 2.5-1.8 3-2.4 1-0.8 1.5-2 1.6-3.5 0.1-2.7-1.6-5.7-3.2-7.1-1.8-1.6-4-1.2-5.3-0.5l-1.5-0.5-0.1 0.2 1.3 0.5c-0.1 0.1-0.2 0.1-0.3 0.2l-1.6-0.6-0.1 0.2 1.4 0.5-0.4 0.3-1.7-0.7-0.1 0.2 1.6 0.7-0.3 0.3-1.8-0.8-0.1 0.2 1.7 0.8-0.3 0.3-2-1-2.5 1c-2-2.2-4.4-3.6-6.7-4.2v-17.2c1.3 0.5 2.7 0.8 4.3 0.8 1 0 2-0.1 3.1-0.4h0.1c1.2-0.3 2.4-0.8 3.5-1.4 0.1 0 0.1-0.1 0.2-0.1l0.1-0.1c0.1 0 0.2-0.1 0.2-0.1h0.1l0.1-0.1v-0.2c0.1-0.1 0.2-0.1 0.2-0.2l0.1-0.1c0.1 0 0.1-0.1 0.2-0.2l0.1-0.1c0.3-0.2 0.6-0.4 0.9-0.7v21.5h1.5v-12.5c4.2 9.7 10.4 18 17.9 24.1 6.7 5.5 14.4 9.3 23.3 11.6-0.6 1.3-0.9 2.9-0.9 4.5 0 2.9 1 5.4 2.5 6.8l-5.3 2.9-13.1-0.4h-0.3c-3.3 0-5.8 4-5.8 9.1s2.6 9.1 5.8 9.1h11.8 0.2l7.2 4.6c-0.1 0.5-0.2 0.9-0.2 1.4h-22-0.1c-1.6 0.2-6.9 0.8-8.1 2.5h-28.8c-0.5 0-12.7-0.1-16.7 6.7-0.3 0.4-18.9 31.7-24.1 45.5-0.8 2.2-1.2 4.1-1.1 5.8 0 0.1-0.2 0.9-0.2 2.1 0 0.7 0.1 1.4 0.3 2.2 0 0.2 0.1 0.4 0.2 0.6 0.1 0.4 0.3 0.8 0.5 1.2s0.5 0.8 0.8 1.1c1.4 1.7 3.6 2.6 6.6 2.6h124.7c0.2 0 21.5-2.2 31.3-4.5 0.2 0 0.4-0.1 0.7-0.2 0.1 0 0.1 0 0.2-0.1 0.2-0.1 0.3-0.1 0.5-0.2 0.1 0 0.1-0.1 0.2-0.1 0.2-0.1 0.4-0.2 0.5-0.3 0 0 0.1 0 0.1-0.1 0.4-0.2 0.9-0.5 1.3-0.8 0 0 0.1 0 0.1-0.1 0.2-0.1 0.4-0.3 0.5-0.5l0.1-0.1c0.4-0.4 0.8-0.8 1.1-1.2 0.1-0.1 0.2-0.3 0.3-0.4h14.9c0.2 0 19.9-2 29-4.1 3-0.6 5.5-3.1 6.9-6.8 1.9-4.8 4.3-19.9-15.9-47zm-13.7-86.7l-0.4 1.1c-0.2 0.1-0.6 0.2-1 0.3l-0.1-0.8 1.5-0.6zm-54.6 78c1.9 0 3.6 2.9 3.6 6.3 0 0.6 0 1.1-0.1 1.6-0.5 0-1 0-1.5-0.1 0.2-1.7-0.1-3.4-0.7-5 0.5 1.6 0.5 3.3 0.2 4.9-0.5 0-1 0-1.5-0.1 0.1-1.7-0.1-3.4-0.7-4.9 0.5 1.6 0.5 3.3 0.2 4.9h-1.5c0.1-1.7-0.1-3.3-0.7-4.8 0.5 1.6 0.5 3.2 0.2 4.8h-1.5c0.1-1.6-0.1-3.3-0.7-4.8 0.4 1.6 0.5 3.2 0.2 4.8h-1.5c0.1-1.6-0.1-3.3-0.7-4.8 0.4 1.6 0.5 3.2 0.2 4.8h-1.5c0.1-1.6-0.1-3.3-0.7-4.7 0.4 1.5 0.5 3.2 0.2 4.7h-1.5c0.1-1.6-0.1-3.2-0.7-4.7 0.4 1.5 0.5 3.2 0.2 4.7h-1.5c0.1-1.6-0.1-3.2-0.7-4.7 0.4 1.5 0.5 3.2 0.2 4.7h-1.5c0.1-1.6-0.1-3.2-0.7-4.7 0.4 1.5 0.5 3.2 0.2 4.7h-1.5c0.1-1.6-0.1-3.2-0.7-4.7 0.4 1.5 0.5 3.2 0.2 4.7h-1.5c0.1-1.6-0.1-3.2-0.7-4.7 0.4 1.5 0.5 3.2 0.2 4.7h-1.5c0.1-1.6-0.1-3.2-0.7-4.7 0.4 1.5 0.5 3.2 0.2 4.7h-0.4-1.2c0.1-1.6-0.1-3.2-0.7-4.7 0.4 1.5 0.5 3.2 0.2 4.7h-1.5c0.1-1.6-0.1-3.2-0.7-4.7 0.4 1.5 0.5 3.2 0.2 4.7h-1.5c0-0.4 0.1-0.9 0.1-1.3 0-2.6-0.8-4.9-2-6.3h28zm-29.5 7c0-0.4-0.1-0.9-0.3-1.3s-0.4-0.8-0.7-1.1-0.8-0.6-1.3-0.6-0.9 0.3-1.2 0.7c-0.3 0.3-0.4 0.7-0.6 1.1-0.2 0.6-0.2 1.2-0.1 1.8h-0.5c-0.1-0.4-0.1-0.9-0.1-1.3v-0.4c0.1-3.2 1.7-5.9 3.6-5.9s3.5 2.9 3.5 6.3c0 0.4 0 0.9-0.1 1.3h-2.3v-0.2l0.1-0.4zm-0.8 0v0.3 0.2h-3.2c0-0.6 0.1-1.1 0.3-1.7 0.1-0.4 0.3-0.7 0.6-1s0.6-0.4 0.9-0.4 0.6 0.2 0.8 0.5 0.4 0.6 0.5 1c0 0.4 0.1 0.8 0.1 1.1zm30.1-30.4c0.4-0.8 0.6-1.7 0.5-2.7-0.1 1-0.5 1.9-1 2.7h-1.1c0.4-0.9 0.6-1.8 0.6-2.7-0.1 1-0.5 1.9-1 2.7h-1.1c0.1-0.2 0.1-0.3 0.2-0.5 0.3-0.7 0.5-1.5 0.4-2.3-0.1 1-0.5 2-1 2.8h-1.2c0.1-0.2 0.2-0.4 0.2-0.5 0.3-0.7 0.5-1.5 0.4-2.3-0.1 1-0.5 2-1 2.9h-1.2l0.3-0.6c0.3-0.7 0.5-1.5 0.4-2.3-0.1 1.1-0.5 2-1.1 2.9h-1.2c0.1-0.2 0.2-0.4 0.3-0.7 0.3-0.7 0.5-1.5 0.4-2.3-0.1 1.1-0.5 2.1-1.1 3h-1.2c0.1-0.2 0.2-0.5 0.3-0.7 0.3-0.7 0.5-1.5 0.4-2.3-0.1 1.1-0.5 2.1-1.2 3h-1.1c0.1-0.3 0.3-0.5 0.4-0.8 0.3-0.7 0.5-1.5 0.4-2.3-0.1 1.1-0.6 2.2-1.2 3.1h-1.1c0.1-0.3 0.3-0.5 0.4-0.8 0.3-0.7 0.5-1.5 0.4-2.3-0.1 1.2-0.6 2.2-1.2 3.2h-1.1c0.2-0.3 0.3-0.6 0.4-0.9 0.3-0.7 0.5-1.5 0.4-2.3-0.1 1.2-0.6 2.3-1.3 3.2h-1.1c0.2-0.3 0.3-0.6 0.5-1 0.3-0.7 0.5-1.5 0.4-2.3-0.1 1.2-0.6 2.3-1.3 3.3h-1.1c0.2-0.3 0.3-0.7 0.5-1 0.3-0.7 0.5-1.5 0.4-2.3-0.1 1.2-0.6 2.4-1.4 3.3h-1.1c0.2-0.3 0.4-0.7 0.5-1.1 0.3-0.7 0.5-1.5 0.4-2.3-0.1 1.3-0.7 2.4-1.4 3.4h-1.1c0.2-0.4 0.4-0.7 0.5-1.1 0.3-0.7 0.5-1.5 0.4-2.3-0.1 1.3-0.7 2.5-1.5 3.4h-1.1l0.6-1.2c0.3-0.7 0.5-1.5 0.4-2.3-0.1 1.3-0.7 2.5-1.5 3.5h-1.1c0.2-0.4 0.5-0.8 0.6-1.2 0.3-0.7 0.5-1.5 0.4-2.3-0.1 1.3-0.7 2.6-1.6 3.6h-1c0.3-0.4 0.5-0.9 0.7-1.3 0.3-0.7 0.5-1.5 0.4-2.3-0.1 1.4-0.8 2.6-1.6 3.6h-1c0.3-0.4 0.5-0.9 0.7-1.4 0.3-0.7 0.5-1.5 0.4-2.3-0.1 1.4-0.8 2.6-1.7 3.7h-1c0.3-0.5 0.5-0.9 0.7-1.4 0.3-0.7 0.5-1.5 0.4-2.3-0.1 1.4-0.8 2.7-1.7 3.7l-1.6 0.1c1.2-1.4 1.9-3.6 1.9-6.1 0-0.9-0.1-1.9-0.3-2.8 3.8 0.5 7.7 0.8 11.8 0.8h1.6c1.4 0.1 2.8 0.1 3.9 0.1 3.3 0 5.5-0.3 5.8-0.3 2.7-0.3 5.3-0.8 7.8-1.4 0.3 0.9 0.5 1.9 0.5 3 0.6 3.6-0.7 6.1-2.4 6.3zm52-52.7c-2.4 0.7-5.6 1.7-7.2 2.2l-0.7 0.3h-0.1c-2.8 1.2-4 5.1-2.8 8.8 1.1 3.4 3.9 5.7 6.7 5.6l0.6-0.1h0.1c1.1-0.3 2.4-0.6 3.7-1-1.3 1.6-3.2 2.6-5.3 2.6-3.2 0-6-2.2-6.7-5.3l-0.8-4c-0.5-3-0.7-5.6-1-10.8 0.5-1.7 1.1-3.6 1.7-5.7 0.4-1.4 0.9-2.9 1.4-4.5h0.1 0.1c0.9 0.2 1.8 0.3 2.7 0.3 2.2 0 4-0.7 5.5-1.5l2 13.1zm-7.8-23.4c0.2-1.1 0.3-2.2 0.4-3.3 0.1-1.6 0.1-3.2 0.1-4.8 5.3 2.2 8.1 9.1 7.4 14.8-0.8 0.9-4.6 4.8-10.1 3.4l0.2-0.6c0.9-3.3 1.6-6.5 2-9.5zm-50.7-54.6c0.3-0.8 0.9-1.2 1.6-1.2s1.3 0.5 1.6 1.2l0.5 1.5c0 0.1 0.1 0.2 0.1 0.2-1.3-0.2-2.7-0.3-4.2-0.5l0.4-1.2zm-6.4-2.3c0-0.3 0.5-0.7 0.8-0.7h2.2c0.3 0 0.8 0.5 0.8 0.8l0.4 3.4c-1.4-0.1-2.9-0.2-4.4-0.2l0.2-3.3zm-31.2-9.6c0-0.3 0.1-0.6 0.3-0.8s0.5-0.3 0.8-0.4c0.3 0 0.6 0.1 0.8 0.3s0.4 0.5 0.4 0.8l1.3 11.8-3.8 0.5 0.2-12.2zm-3.5 14.4s0.3-1 1.9-1.4l1-0.3 4.4-0.5h1.1c1.4 0.1 2 0.7 2.1 0.9v0.1l0.3 0.6c-4.2 0.5-7.9 1.3-11.2 2.2l0.4-1.6zm-7.4 21.8c0-0.1-0.9-10.7-0.9-12.9 0-3.1 1.5-3.5 1.6-3.5h0.1l0.1-0.1c6.9-3.6 19.5-5.6 34.4-5.6 10.7 0 17.4 0.7 24.2 2.3 0.1 0 2.7 0.6 2.6 3.7l0.1 14.7c0 0.1 0 0.2-0.1 0.4-7.8-0.1-25.1-0.1-40.6 1.8-0.6 0.1-8.9 1.3-17.5 3.7-0.4 0-0.8 0-1-0.1-0.3 0-0.5-0.1-0.7-0.2-0.3-0.1-0.5-0.3-0.7-0.5-1.4-1.1-1.6-3.7-1.6-3.7zm-14.5 16.7c0.2-0.4 0.3-0.8 0.5-1.2l0.1-0.1v-0.2c0-0.1 0.1-0.2 0.2-0.4l0.3-0.3-0.1-0.1c6.5-7.8 34.8-12 35-12.1 20.2-2.5 43.5-1.8 44.6-1.7 24.7 3.4 27.7 7.6 27.9 8v0.1l0.1 0.2c0.2 0.4 0.5 0.7 0.7 1.1 0.9 1.5 1.6 3.3 2.1 5.1 0.4 1.2 0.6 2.5 0.8 3.8 0.4 2.5 0.4 5.1 0.2 7.9-0.1 1-0.2 2.1-0.3 3.2-0.4 2.9-1.1 6-2.1 9.2l-0.5 1.7c-0.5 1.7-1 3.3-1.5 4.9-0.9 3.1-1.8 5.9-2.5 8.3-4.2 13.6-5.1 16.1-5.1 16.2l-0.5 1.5c-6.2 14.5-19.7 24.2-36 25.9-0.1 0-14.9 1.7-27.1-4.1-9.1-4.3-15.6-10-19.9-17.2l-0.7-1.5s-1.2-2.4-7.1-15.2c-1-2.3-2.2-4.8-3.5-7.8-0.6-1.4-1.3-2.9-2-4.5l-0.8-1.7c-1.4-3-2.4-6-3.2-8.8-0.3-1-0.5-2.1-0.7-3.1-0.5-2.7-0.8-5.4-0.8-7.9 0-1.3 0.1-2.7 0.3-3.9 0.5-1.8 0.9-3.6 1.6-5.3zm-76.4 88l-0.5-6.8 6-5.4 17.3-1.8-2.9 5.5 0.8 7.5-20.7 1zm23.3 10.1l-17 0.5h-0.6l-2.6-5 20.6-1.3-0.4 5.8zm1-0.9l0.5-5.9-22.3 1.4 0.7-0.8 22.9-1.4v-0.5l-14.5 0.9-0.1-2.6 10.2-0.6-0.9-8.2 2.9-5.4 5.5 7.1 0.3 8.7-5.2 7.3zm14.6 0.9c-3.5 1.4-7.8 0.1-11.5-3.4l3.2-4.4-0.3-9.4-6.3-8.2-4.2 0.4c0.7-4.5 2.9-7.7 6-9 0.2-0.1 0.4-0.1 0.5-0.2 2.8-0.8 6-0.1 9 2 3.4 2.4 6.2 6.2 8 10.8s2.3 9.3 1.4 13.4-3 6.9-5.8 8zm23-37.9l2.3 1.1 2.4-2c0.3-0.2 2.4-1.4 4 0.1 1.4 1.2 2.8 3.8 2.7 6 0 1-0.4 1.9-1.1 2.4l-0.1 0.1c-0.3 0.4-2 1.6-3 2.3l-0.2 0.2-0.7 3.7-2.7 2.1c0.2-2.9-0.3-6.2-1.5-9.4-0.9-2.3-2.1-4.3-3.4-6l1.3-0.6zm0.7 7.1c2.2 5.6 2 11.5-0.6 15l-0.5 0.6-16.6 11.3c0.5-1.1 0.9-2.3 1.2-3.6 0.9-4.3 0.4-9.4-1.5-14.2s-4.9-8.9-8.6-11.4c-1.7-1.2-3.4-2-5.1-2.3l14.7-4.7 4-1.2c0.5-0.1 1-0.1 1.5 0h0.4c4.4 0.5 8.8 4.7 11.1 10.5zm3.7-33.9c-0.3 0.2-0.6 0.5-0.9 0.7l-1.2 0.9-0.1 0.1-0.1 0.1-0.1 0.1c-0.1 0.1-0.1 0.1-0.2 0.1l-0.3 0.2c-0.1 0-0.1 0.1-0.2 0.1l-0.1 0.1s-0.1 0-0.1 0.1c-1 0.6-2.1 1-3.1 1.3h-0.1c-6.5 1.7-11-3-11.8-4-0.6-5.1 1.1-10.7 4.5-14.3 1.8-1.9 4.8-4.1 9.2-3.8 0.8 0.1 1.6 0.2 2.2 0.5 6.1 2.3 5.6 11.9 5.4 15.6v0.2c-0.5 0.3-1 0.6-1.5 1-0.6 0.3-1 0.6-1.5 1zm1.2 7.1v-6.2c0.3-0.3 0.7-0.5 1-0.8 0.6-0.4 1.2-0.8 1.7-1.1l0.4-0.2v-0.4-0.6c0.2-3.9 0.8-14.4-6.3-17.1-0.5-0.2-0.9-0.3-1.4-0.4 0.9-3.5 2.6-5.6 2.9-5.8l9-7.6c-0.5 1.5-1 3.2-1.2 4.9-0.2 1.3-0.3 2.7-0.3 4.1 0 2.6 0.2 5.3 0.8 8.2 0.2 1.1 0.5 2.1 0.8 3.2 0.8 2.9 1.9 5.9 3.3 9l0.8 1.7c0.7 1.6 1.4 3.1 2 4.5 1.3 3 2.5 5.5 3.5 7.8 5.9 12.9 7.1 15.2 7.1 15.3l0.7 1.5v0.1c4.4 7.5 11.1 13.3 20.5 17.8 1.9 0.9 3.9 1.6 5.8 2.2-32.4-4.1-45.8-26.2-51.1-40.1zm41.7 44.2c0-1.5 0.3-3 0.9-4.1 1.9 0.4 3.8 0.8 5.8 1.1 0.3 0.9 0.5 1.9 0.5 3 0 3.3-1.5 6.1-3.4 6.3h-0.1-0.1c-2 0-3.6-2.9-3.6-6.3zm2.6 7.6c0.3 0.1 0.7 0.1 1 0.1l27-1-15.8 10.9h-23c-0.1-1.3-0.3-2.5-0.8-3.6l11.6-6.4zm-20.3 18.3c-2.4 0-4.4-3.5-4.4-7.6s2-7.6 4.4-7.6 4.3 3.5 4.3 7.6-2 7.6-4.3 7.6zm3.2 0c1.6-1.6 2.6-4.4 2.6-7.6 0-3.1-1-5.8-2.5-7.5l7.6 0.2-4.1 2.3 0.3 0.6c0.6 1.3 1 2.8 1 4.3v0.7h24.9l2.9-2c0 0.4 0.1 0.8 0.1 1.3 0 1-0.1 1.9-0.4 2.8l-2.7-1.2h-24.8v0.7c0 1.1-0.2 2-0.6 3l-0.2 0.5 1.1 0.8 1.4 0.9-6.6 0.2zm6-2.1l-0.2-0.1c0.2-0.7 0.4-1.4 0.5-2.2h23.1l12.6 5.4h-21.2c-1 0-1.9 0.4-2.7 1.2l-9.4-5.2 8.5 6.3c-0.3 0.4-0.5 0.9-0.7 1.4l-10.5-6.8zm-12.1 11.2h21.8c0 0.3 0 0.7 0.1 1h-27.3c1.4-0.5 3.5-0.9 5.4-1zm-76.5 53.7c5.1-13.3 22.9-43.4 23.9-45.2 0.4-0.5 3.8-3.7 7.6-3.7h79.9c11.1 0 13.9 6.7 14.1 7.2 0.3 1 7.7 27.5 9.1 41.6 0.3 3.3-0.5 6-2.4 7.9-4.8 4.8-14.9 3.9-15 3.9-32.6 0.1-106 0-106.8 0h-0.1c-0.1 0-7.4 0.5-10.2-3.3-1.4-1.9-1.5-4.8-0.1-8.4zm165.8 6.3c-0.2 0.2-0.3 0.4-0.5 0.6l-0.5 0.5h-0.1c-0.2 0.2-0.3 0.3-0.5 0.4-0.3 0.3-0.7 0.5-1.1 0.7 0 0-0.1 0-0.1 0.1-0.1 0.1-0.3 0.1-0.4 0.2-0.1 0-0.1 0-0.2 0.1s-0.3 0.1-0.4 0.2c-0.1 0-0.1 0-0.2 0.1-0.2 0.1-0.4 0.1-0.6 0.1-7.5 1.7-21.9 3.5-28.1 4.2h-0.4-0.4c-0.2 0-0.3 0-0.5 0.1h-0.3-0.4-0.4-0.2-0.3-124.5c-2.5 0-4.3-0.7-5.4-2.1l-0.6-0.9c-0.2-0.3-0.3-0.7-0.4-1v-0.1c3.4 4 10.6 3.7 11.2 3.6 1.7 0 74.3 0.1 106.7 0 0.2 0 1.1 0.1 2.3 0.1 3.5 0 10-0.6 13.8-4.4 2.3-2.3 3.2-5.3 2.9-9.1-0.9-9.4-4.5-24.3-6.9-33.5 2.2 0.1 4.5 0.2 6.7 0.2 2.4 0 4.8 0 7.2-0.1s4.8-0.2 7.1-0.3c2.4-0.1 4.8-0.3 7.1-0.6-2.4-0.1-4.8-0.2-7.2-0.2s-4.8 0-7.2 0.1-4.8 0.2-7.1 0.3c-2.2 0.1-4.5 0.3-6.7 0.5-1.1-4.1-1.9-7.1-2.1-8 2 0.2 4.1 0.3 6.1 0.3 2.2 0.1 4.5 0.1 6.7 0.1s4.5 0 6.7-0.1 4.5-0.2 6.7-0.4c-2.2-0.2-4.5-0.3-6.7-0.4s-4.5-0.1-6.7-0.1-4.5 0-6.7 0.1c-2.1 0.1-4.1 0.2-6.2 0.3 0-0.1-0.1-0.2-0.1-0.2 0-0.1-0.5-1.5-1.9-3 2.1 0.2 4.1 0.3 6.2 0.3 2.2 0.1 4.5 0.1 6.7 0.1s4.5 0 6.7-0.1 4.5-0.2 6.7-0.4c-2.2-0.2-4.5-0.3-6.7-0.4s-4.5-0.1-6.7-0.1-4.5 0-6.7 0.1c-2.1 0.1-4.2 0.2-6.2 0.3-1-1.1-2.3-2.2-4.2-3.2 1.9 0.2 3.9 0.2 5.8 0.3 2.2 0.1 4.5 0.1 6.7 0.1s4.5 0 6.7-0.1 4.5-0.2 6.7-0.4c-2.2-0.2-4.5-0.3-6.7-0.4s-4.5-0.1-6.7-0.1-4.5 0-6.7 0.1c-2 0.1-4.1 0.2-6.1 0.3-2.2-1.1-5.2-1.8-9.1-1.8h-79.4c3.8-1 7.3-0.9 7.3-0.9l74-0.1c27 0 34.8 0.4 37.5 3.5 22.1 29.9 18.4 46.3 16.8 50.6-0.4 1.7-1.1 2.9-1.8 3.9zm3-23.1c-2.7-9.7-8.3-20.4-16.7-31.9v-0.1c-1.1-1.3-2.8-2.1-5.6-2.7h18.3c10.3 0 12.8 6.1 13 6.5 0.3 1 7.1 25 8.4 37.8 0.3 3-0.4 5.3-2.2 7.1-4.4 4.4-13.8 3.6-13.9 3.6h-1c0-0.1 0-0.1 0.1-0.2 1.3-3.6 2.4-10.1-0.4-20.1zm47.9 12.1c-1.2 3.3-3.4 5.4-5.8 5.9-8.8 2-27.8 4-28.8 4.1h-13.9c0-0.1 0.1-0.2 0.1-0.3h1.6c0.2 0 1 0.1 2.1 0.1 3.3 0 9.3-0.5 12.9-4.1 2.1-2.1 2.9-4.9 2.6-8.3-1.3-13.1-8.4-37.9-8.5-38.1-0.1-0.3-2.9-7.5-14.4-7.5h-25.7v-0.8h27.4c24.9 0 32.1 0.4 34.7 3.2 20.4 27 17.2 41.9 15.7 45.8z"/>
	<path d="m214.4 174.3l3.9-1.7-0.2-0.5-3.9 1.7c-1.6 0.8-1.7 1.7-1.5 2.4 0.2 0.8 1 1.4 1.9 1.4 0.2 0 0.4 0 0.6-0.1l4.1-1-0.1-0.5-4.1 1c-0.9 0.2-1.7-0.2-1.9-1-0.3-0.7 0.1-1.3 1.2-1.7z"/>
	<path d="m216.2 183.4c0.3 0.7 0.9 1.1 1.7 1.1 0.3 0 0.6 0 0.9-0.1l4.3-1.6-0.2-0.5-4.2 1.6c-1.5 0.3-1.9-0.2-2.1-0.7s-0.3-1.2 1-2l3.1-2-0.3-0.4-3.1 2c-1.1 0.8-1.5 1.6-1.1 2.6z"/>
	<path d="m221.5 188.4c0.3 0.6 0.9 0.9 1.5 0.9 0.4 0 0.8-0.1 1.2-0.2l4.8-1.8-0.2-0.5-4.8 1.8c-1.4 0.5-1.9 0-2.1-0.5-0.3-0.5-0.4-1.2 0.8-2l2.4-1.6-0.3-0.4-2.4 1.6c-1.1 0.9-1.4 1.8-0.9 2.7z"/>
	<path d="m213.2 170.5c0.2 0.1 0.5 0.1 0.8 0.1s0.6 0 0.9-0.1l3-0.8-0.1-0.5-3 0.8c-0.4 0.1-1 0.2-1.4 0-0.3-0.1-0.7-0.3-0.9-0.7-0.2-0.6 0-1.1 1.5-1.9l3.8-1.6-0.2-0.5-3.8 1.6c-1.3 0.7-2.2 1.3-1.8 2.5 0.2 0.6 0.6 0.9 1.2 1.1z"/>
	<path d="m215.3 163.8c0.3 0 0.6 0 0.8-0.1h0.2l2-0.3-0.1-0.5-2 0.3h-0.2c-0.3 0.1-1.2 0.2-1.3-0.1v-0.3c0.1-0.4 0.6-0.7 1.2-1l4.2-2-0.2-0.4-4.2 2c-0.8 0.3-1.3 0.8-1.5 1.3-0.1 0.2-0.1 0.5 0 0.7 0.3 0.4 0.7 0.4 1.1 0.4z"/>
	<path d="m251 159.8c0.5-0.1 1 0.3 1.6 1l0.4-0.3c-0.6-0.9-1.4-1.3-2.1-1.2-0.8 0.1-1.3 1-1.6 2.3-0.2 1-0.2 2.2 0.1 3.4 0.3 1.4 0.8 2.7 1.4 3.6 0.6 0.8 1.2 1.2 1.8 1.2h0.2c0.8-0.1 1.3-1 1.6-2.2l-0.5-0.1c-0.2 1.1-0.6 1.7-1.2 1.8-0.5 0.1-1-0.3-1.6-1-0.6-0.8-1.1-2-1.3-3.4-0.2-1.2-0.2-2.3-0.1-3.2 0.3-1.1 0.7-1.8 1.3-1.9z"/>
	<path d="m295.3 147.9c0.2 0 0.3 0 0.7 0.5l0.9-0.3c-0.5-0.8-1.1-1.2-1.7-1.1-0.5 0.1-0.9 0.6-1.1 1.4-0.2 0.7-0.1 1.5 0 2.4 0.2 0.9 0.5 1.7 0.9 2.2 0.4 0.6 0.9 0.9 1.4 0.9h0.2c0.6-0.1 1.1-0.8 1.2-1.8l-0.9-0.1c-0.1 0.7-0.3 1-0.5 1.1-0.1 0-0.4-0.1-0.7-0.5-0.3-0.5-0.6-1.1-0.8-1.9-0.2-0.7-0.2-1.5 0-2 0.1-0.6 0.3-0.8 0.4-0.8z"/>
	<path d="m254.6 169l-0.1 0.2c0 0.1-0.1 0.3-0.4 0.6-0.4 0.5-0.9 1.1-1.6 1.8-0.4 0.4-0.8 0.7-0.9 0.9-0.2 0.1-0.4 0.2-0.6 0.2-2.5 0.7-5.4-1.9-6.4-5.6-0.6-2.3-0.4-4.6 0.5-6.3 0.6-1 1.3-1.6 2.3-1.8 0.3-0.1 0.7-0.1 1.2-0.1h1.1c1.9 0.1 2.9 0.5 3.1 0.8l0.1 0.2c0.2 0.2 0.4 0.5 0.6 0.8l0.8-0.5-0.6-0.9-0.1-0.2c-0.5-0.7-1.8-1.1-3.8-1.1h-1.1c-0.5 0-1 0-1.4 0.2-1.2 0.3-2.2 1.1-2.9 2.3-1.1 1.8-1.3 4.5-0.6 7 1 3.8 3.8 6.5 6.6 6.5 0.4 0 0.7 0 1.1-0.1 0.3-0.1 0.6-0.2 0.8-0.3h0.1l0.1-0.1s0.5-0.4 1-0.9 1.2-1.2 1.7-1.9c0.2-0.3 0.4-0.6 0.5-0.9l0.1-0.2c0.2-0.6 0.4-1.4 0.4-2.2l-1-0.1c-0.3 0.5-0.5 1.1-0.6 1.7z"/>
	<path d="m329.2 140.9l-1-0.1c-0.1 0.4-0.2 0.6-0.2 0.6-0.1 0-0.6-0.5-0.9-1.6-0.2-1.1 0-1.7 0.1-1.8 0 0 0.2 0.1 0.4 0.4l0.8-0.5c-0.4-0.6-0.9-1-1.4-0.8-0.3 0.1-0.7 0.3-0.9 1.2-0.1 0.5-0.1 1.2 0 1.8 0.3 1.2 0.9 2.4 1.8 2.4h0.2c0.6-0.2 1-0.8 1.1-1.6z"/>
	<path d="m194.4 177.4c-1.5 0.4-2.1 2.5-1.5 4.6 0.5 1.9 1.9 3.2 3.2 3.2 0.2 0 0.4 0 0.5-0.1 1.5-0.4 2.1-2.5 1.5-4.6-0.3-1-0.8-1.9-1.5-2.5s-1.5-0.8-2.2-0.6zm2.1 7.3c-1.2 0.3-2.6-0.9-3.1-2.8s0-3.7 1.2-4c0.1 0 0.2 0 0.3-0.1-0.5 1-0.5 2.3-0.1 3.6 0.5 1.4 1.5 2.4 2.5 2.7-0.3 0.3-0.5 0.5-0.8 0.6zm0.9-0.8c-1-0.2-2-1.2-2.4-2.6-0.4-1.2-0.4-2.6 0.2-3.5 0.4 0 0.8 0.2 1.2 0.6 0.6 0.5 1.1 1.3 1.4 2.2 0.2 1.3 0.1 2.5-0.4 3.3z"/>
	<path d="m348.1 134.5c0.3 0.3 0.6 0.5 0.9 0.5h0.2l1.4-0.4h0.1c0.6-0.3 0.9-1.4 0.5-2.6-0.2-0.6-0.4-1.1-0.7-1.5s-0.7-0.6-1-0.5h-0.1l-1.4 0.4c-0.4 0.1-0.6 0.5-0.7 1s0 1.1 0.1 1.7c0.2 0.5 0.4 1.1 0.7 1.4zm1.1-3.5c0.1-0.3 0.2-0.5 0.3-0.6h0.1c0.2 0 0.3 0.1 0.5 0.4 0.3 0.3 0.5 0.8 0.6 1.3 0.3 1 0.1 1.9-0.2 2.1h-0.1c-0.4 0.1-0.9-0.6-1.2-1.7v-1.5zm-1.4 0.5c0.1-0.3 0.2-0.6 0.3-0.6l0.7-0.2c0 0.1-0.1 0.2-0.1 0.3-0.1 0.5 0 1.1 0.1 1.7 0.2 0.8 0.6 1.4 1 1.7l-0.7 0.2c-0.2 0-0.4-0.1-0.6-0.3-0.3-0.3-0.5-0.8-0.6-1.3-0.2-0.6-0.2-1.1-0.1-1.5z"/>
	<path d="m71.2 202.1h0.4c0.6-0.1 1-0.6 1.2-1.3 0.2-0.6 0.2-1.4 0-2.2s-0.6-1.4-1.1-1.9-1.1-0.7-1.7-0.5c-0.6 0.1-1 0.6-1.2 1.3-0.2 0.6-0.2 1.4 0 2.2 0.4 1.4 1.4 2.4 2.4 2.4zm-1-5.3c0.4-0.1 0.8 0 1.2 0.4s0.8 1 0.9 1.6c0.2 0.7 0.2 1.3 0 1.9-0.2 0.5-0.5 0.8-0.9 0.9h-0.6c0.5-0.6 0.7-1.6 0.5-2.6-0.2-0.9-0.7-1.7-1.3-2.2h0.2zm-0.9 0.9c0.1-0.3 0.3-0.6 0.5-0.8 0.6 0.4 1.1 1.2 1.3 2.1 0.2 1 0 1.9-0.5 2.4-0.6-0.3-1.1-1-1.3-1.9-0.2-0.6-0.1-1.2 0-1.8z"/>
	<path d="m216.8 210.8h9.9v-12.7h-9.9v12.7zm1-11.6h7.9v10.7h-7.9v-10.7z"/>
	<path d="m228.2 210.8h9.9v-18.7h-9.9v18.7zm1-17.7h7.9v16.8h-7.9v-16.8z"/>
	<path d="m249.9 195.5h-9.9v15.3h9.9v-15.3zm-1 14.4h-7.9v-13.3h7.9v13.3z"/>
	<path d="m251.4 210.8h9.9v-24.3h-9.9v24.3zm1-23.3h7.9v22.4h-7.9v-22.4z"/>
	<path d="m263.2 210.8h9.9v-36.5h-9.9v36.5zm1-35.5h7.9v34.5h-7.9v-34.5z"/>
	<path d="m274.6 210.8h9.9v-45.6h-9.9v45.6zm1-44.5h7.9v43.6h-7.9v-43.6z"/>
	<path d="m247.2 126.4c0.7-2 1-4.1 1-6.3 0-2.5-0.4-4.9-1.3-7.1v-0.1c-1-2.5-2.5-4.8-4.3-6.6-3.1-3-7-4.6-11.1-4.6-9.3 0-16.8 8.3-16.8 18.5s7.5 18.5 16.8 18.5c7-0.1 13.3-5 15.7-12.3zm-31.6-6.3c0-9.6 7.1-17.5 15.8-17.5 3.8 0 7.6 1.5 10.4 4.3 1.8 1.7 3.2 3.9 4.1 6.2l0.5-0.2-0.4 0.3c0.8 2.2 1.3 4.5 1.3 6.8 0 2.1-0.3 4.1-1 6-2.3 6.9-8.2 11.5-14.9 11.5-8.7 0.1-15.8-7.7-15.8-17.4z"/>
	<path d="m270.9 126.1c4.7 0 9-3.3 10.6-8.2 0.4-1.3 0.7-2.8 0.7-4.2 0-1.7-0.3-3.3-0.9-4.8v-0.1c-0.7-1.7-1.7-3.2-2.9-4.4-2.1-2-4.7-3.1-7.5-3.1-6.2 0-11.3 5.6-11.3 12.4s5.1 12.4 11.3 12.4zm0-23.8c2.5 0 4.9 1 6.8 2.8 1.1 1.1 2.1 2.5 2.7 4l0.5-0.2-0.4 0.2c0.5 1.4 0.8 2.9 0.8 4.5 0 1.3-0.2 2.7-0.6 3.9-1.5 4.5-5.4 7.5-9.7 7.5-5.7 0-10.3-5.1-10.3-11.4-0.1-6.2 4.6-11.3 10.2-11.3z"/>
	<path d="m50.8 202.2l3.7-1.2c1.5-0.4 1.8 0.3 2 0.5 0.3 0.6 0 1.5-0.8 1.8l-2.9 1.6 0.2 0.4 2.9-1.6c1-0.5 1.4-1.6 1-2.5-0.3-0.6-1-1.2-2.5-0.8l-3.7 1.2 0.1 0.6z"/>
	<path d="m53.7 206.8l0.1 0.5 3.3-0.7c1.3-0.3 1.7 0.1 1.9 0.6 0.2 0.4 0.3 1.1-0.9 1.8l-3.2 1.4 0.2 0.5 3.2-1.4c1.1-0.7 1.5-1.5 1.1-2.4s-1.2-1.2-2.5-0.9l-3.2 0.6z"/>
	<path d="m57.9 212l-2.2 0.4 0.1 0.5 2.1-0.4c1.4-0.1 1.7 0.4 1.8 0.9s0.1 1.1-1.2 1.6l-2.6 1.1 0.2 0.5 2.6-1.1c1.2-0.5 1.7-1.2 1.5-2.2s-0.9-1.4-2.3-1.3z"/>
	<path d="m50 196.6l-3 1.2 0.2 0.5 3-1.2c1.2-0.6 2-0.3 2.3-0.1 0.1 0.1 0.2 0.3 0.2 0.5 0 0.5-0.4 1.1-0.9 1.5l-2.3 1.8 0.3 0.4 2.3-1.8c0.6-0.5 1.1-1.2 1.1-1.9 0-0.4-0.1-0.7-0.3-0.9-0.4-0.4-1.4-0.8-2.9 0z"/>
	<path d="m47.5 196c0.4-0.3 1.2-0.8 1-1.4-0.1-0.2-0.2-0.4-0.4-0.5-0.4-0.2-1.1-0.2-1.8 0l-4.3 1.2 0.1 0.5 4.3-1.2c0.6-0.2 1.2-0.2 1.5-0.1 0.1 0.1 0.2 0.1 0.2 0.2 0.1 0.3-0.6 0.7-0.8 0.9-0.1 0-0.1 0.1-0.2 0.1l-1.6 1.1 0.3 0.4 1.6-1.1s0-0.1 0.1-0.1z"/>
	<path d="m58.1 217.7h-0.2l-1.8 0.5 0.1 0.5 1.8-0.5s0.1 0 0.2-0.1c0.3-0.1 1-0.3 1.2 0 0.2 0.4-0.2 1.2-0.9 1.7l-3.7 2.7 0.3 0.4 3.7-2.7c1-0.7 1.5-1.6 1.1-2.3-0.3-0.6-1.3-0.3-1.8-0.2z"/>
</svg>
