<?xml version="1.0" encoding="utf-8"?>
<svg enable-background="new 0 0 400 400" version="1.1" viewBox="0 0 400 400" xml:space="preserve" width="400px" height="400px" xmlns="http://www.w3.org/2000/svg">
	<style type="text/css">
		.dark-shade{fill:#BBBFC3;}
		.shade{fill:#DFE1E3;}
		svg{fill:#253746;}
		.reflection{fill:#f1f2f3;}
		.st4{fill:#848C94;}
	</style>
	<path class="dark-shade" d="m400 163.2l-0.4585-2.9572-28.681-102.24c-3.662e-4 -0.0016289-0.0010986-0.0032539-0.0014648-0.0048752l-0.1217-0.43987c-0.0072021-0.026535-0.013733-0.053066-0.019836-0.079781-2.9397-13.493-15.075-23.292-28.854-23.301h-273.13c-8.2333 0.0051422-15.877 3.5081-21.326 9.2037l-0.5778 0.62325c-2.8411 3.1439-5.0321 6.9057-6.3212 11.088l-0.33351 1.1621c-0.10652 0.40432-0.2053 0.81205-0.29498 1.2234-0.0057602 0.026535-0.012245 0.052887-0.019447 0.079243l-0.12156 0.43986c-5.379e-4 0.0018082-0.0010796 0.0037918-0.0016174 0.0057755l-28.699 102.24-0.22691 2.9572c0.084459 2.7671 0.40645 5.4753 0.94426 8.1051l0.74033 3.0811c1.0093 3.6661 2.4456 7.1557 4.2518 10.413l1.5817 2.648c2.6964 4.198 6.032 7.9454 9.8679 11.105l0.59671 0.023865v163.79c0 7.5292 6.0897 13.633 13.602 13.633h316.16c7.512 0 13.602-6.1036 13.602-13.633v-157.27c16.001-7.3234 27.273-23.282 27.841-41.898l0.0043679 5.34e-4zm-49.833 155.05c-2.5817 8.9718-7.5092 17.418-14.384 23.758-6.5894 5.9872-14.611 10.165-23.286 12.128-9.5486 2.1736-19.621 2.2364-29.096-0.30676-28.984-7.8018-46.936-36.828-41.016-66.317 0.9984-4.98 2.6633-9.8017 4.9495-14.335 6.4742-12.808 17.505-22.716 30.914-27.769 0.42776-0.16019 0.85806-0.31421 1.2908-0.46207 12.429-4.2715 25.942-4.1528 38.294 0.33638 6.7873 2.5473 13.008 6.4085 18.308 11.363-1.774 1.9296-3.6881 3.7372-5.5322 5.604l-10.452 10.476c-3.4622-3.341-7.6606-5.8181-12.256-7.2305-11.983-3.621-24.98-0.22867-33.68 8.7907-3.7083 3.8007-6.5198 8.3858-8.2279 13.419-2.4254 7.1743-2.4189 14.95 0.018433 22.12l-0.047974 0.036926v0.055481c0.18079 0.51013 0.35782 1.0128 0.54962 1.5119 2.5112 6.4111 6.8346 11.948 12.44 15.932 3.7976 2.682 8.1046 4.553 12.654 5.4968 4.4801 0.86191 9.0813 0.88196 13.569 0.059174 4.4759-0.73883 8.748-2.4099 12.54-4.9053 0.022156 0.0036926 0.022156 0.13306 0.022156 0.13306 5.9304-4.0356 10.012-10.273 11.341-17.334h-30.98c0.029419-7.5005 0.029419-15.681 0.029419-23.178h53.478c0.40942 2.7281 0.69714 4.8647 0.87048 7.2044 0.63168 7.8793-0.15027 15.808-2.3087 23.41l-2.138e-4 3.053e-4z"/>
	<path class="shade" d="m350.95 111.45h-316.16c-7.5119 0-13.602 6.1037-13.602 13.633v230.06c0 7.5292 6.0898 13.633 13.602 13.633h316.16c7.512 0 13.602-6.1037 13.602-13.633v-230.06c0-7.5292-6.0898-13.633-13.602-13.633v1.52e-5zm-8.3906 199.6c-2.5817 8.9718-7.5093 17.418-14.384 23.758-6.5894 5.9872-14.611 10.165-23.286 12.128-9.5486 2.1736-19.621 2.2364-29.096-0.30679-28.984-7.8018-46.936-36.828-41.016-66.317 0.99838-4.98 2.6633-9.8017 4.9494-14.335 6.4742-12.808 17.505-22.716 30.914-27.769 0.42783-0.16022 0.85812-0.31424 1.2909-0.46208 12.429-4.2715 25.942-4.1528 38.294 0.33638 6.7873 2.5473 13.008 6.4084 18.308 11.363-1.774 1.9296-3.6881 3.7372-5.5322 5.604l-10.452 10.476c-3.4622-3.341-7.6606-5.8181-12.256-7.2305-11.983-3.621-24.98-0.22864-33.68 8.7907-3.7083 3.8008-6.5198 8.3858-8.228 13.419-2.4254 7.1744-2.4189 14.95 0.018463 22.12l-0.047943 0.036987v0.05545c0.18069 0.51013 0.35773 1.0128 0.5495 1.5119 2.5113 6.4111 6.8346 11.948 12.44 15.932 3.7976 2.682 8.1046 4.553 12.654 5.4968 4.4802 0.86191 9.0813 0.88193 13.569 0.059174 4.4759-0.73883 8.748-2.4099 12.54-4.9054 0.022125 0.0037231 0.022125 0.13309 0.022125 0.13309 5.9304-4.0356 10.012-10.273 11.341-17.334h-30.98c0.02945-7.5004 0.02945-15.681 0.02945-23.178h53.478c0.40942 2.7281 0.69714 4.8647 0.87048 7.2044 0.63165 7.8793-0.15027 15.808-2.3087 23.41l-1.527e-4 4.579e-4z"/>
	<path d="m290.71 350.02c-5.2466 0-10.397-0.65775-15.292-1.9714-14.382-3.8717-26.623-12.99-34.469-25.675-7.8453-12.686-10.549-27.73-7.6113-42.361 1.0243-5.1088 2.7333-10.058 5.0791-14.711 6.6595-13.173 17.921-23.29 31.712-28.486 0.44373-0.16641 0.88715-0.32489 1.3337-0.47758 12.7-4.3648 26.648-4.242 39.272 0.34581 7.0179 2.6338 13.342 6.5592 18.811 11.673 0.5932 0.55449 0.62814 1.4851 0.078522 2.0833-1.2116 1.318-2.4963 2.5887-3.7382 3.8175-0.61301 0.60609-1.2256 1.2118-1.8304 1.8244l-10.457 10.481c-0.5687 0.56967-1.4874 0.57831-2.0662 0.019867-3.279-3.1645-7.3126-5.5441-11.665-6.8824-11.499-3.4734-23.834-0.25522-32.186 8.4045-3.5379 3.6258-6.2647 8.0731-7.8919 12.867-2.308 6.8256-2.3018 14.343 0.018005 21.167 0.050415 0.14767 0.075989 0.29929 0.078888 0.44943 0.1311 0.37003 0.26291 0.73642 0.40302 1.1006 2.4092 6.1502 6.5313 11.429 11.917 15.257 3.6499 2.5779 7.7219 4.3467 12.099 5.255 4.2975 0.82629 8.6793 0.84583 13.004 0.052734 4.3256-0.71445 8.3526-2.2898 11.995-4.6872 0.15848-0.10434 0.33423-0.17618 0.51718-0.21338 4.8051-3.4504 8.3026-8.5562 9.8099-14.273h-29.134c-0.39221 0-0.76825-0.15668-1.0452-0.435-0.27695-0.27869-0.43146-0.65631-0.43002-1.0494 0.029541-7.4978 0.029541-15.825 0.029541-23.172 0-0.81653 0.66052-1.4786 1.4753-1.4786h53.478c0.73004 0 1.3503 0.53537 1.4586 1.2588 0.42642 2.8421 0.70731 4.9496 0.88239 7.3113 0.64722 8.0804-0.14691 16.131-2.3605 23.928-2.7261 9.473-7.9826 18.151-14.804 24.442-6.7719 6.1535-15.055 10.467-23.961 12.482-4.8363 1.1011-9.7139 1.6508-14.511 1.6508l2.747e-4 7.322e-4zm-0.099762-113.91c-6.1564 0-12.315 1.0086-18.193 3.0291-0.42175 0.14406-0.83847 0.29314-1.253 0.44835-13.095 4.9341-23.79 14.542-30.114 27.052-2.2255 4.4135-3.8473 9.1101-4.819 13.958-5.7508 28.645 11.799 57.019 39.952 64.597 8.9073 2.3909 18.724 2.4923 28.386 0.29315 8.4119-1.9036 16.234-5.9777 22.622-11.782 6.4207-5.9214 11.38-14.118 13.957-23.072 2.116-7.453 2.8756-15.153 2.2557-22.882-3.357e-4 -0.0028992-3.357e-4 -0.006134-7.019e-4 -0.0090332-0.14154-1.9129-0.35837-3.6698-0.67172-5.8351h-50.73c0 6.486-0.0018005 13.62-0.024139 20.22h29.5c0.43909 0 0.85541 0.19601 1.1356 0.535 0.28058 0.33896 0.39548 0.7851 0.31409 1.218-1.3921 7.3929-5.7519 14.056-11.962 18.282-0.18225 0.12381-0.38574 0.20288-0.5957 0.23682-3.8423 2.4252-8.0626 4.0294-12.555 4.7713-4.6599 0.85449-9.4073 0.83389-14.087-0.06604-4.797-0.99527-9.2399-2.9251-13.225-5.7406-5.8588-4.1644-10.341-9.9039-12.964-16.601-0.19159-0.4996-0.36664-0.99377-0.54385-1.4945l-0.022675-0.063538c-0.05545-0.15738-0.08429-0.32269-0.084625-0.4895-2.4013-7.3361-2.3656-15.377 0.10767-22.692 1.7688-5.2113 4.7322-10.044 8.5706-13.978 9.1172-9.4529 22.592-12.97 35.16-9.1722 4.3375 1.3335 8.3826 3.602 11.787 6.5986l9.452-9.4736c0.60757-0.61548 1.2285-1.2295 1.8491-1.8436 0.86871-0.8595 1.7587-1.7396 2.6202-2.6338-4.9264-4.3611-10.544-7.7423-16.719-10.06-6.1441-2.2328-12.623-3.3514-19.105-3.3514l4.272e-4 -4.886e-4z"/>
	<polygon class="dark-shade" points="101.25 153.03 196.22 153.03 196.22 26.964 115.6 26.964"/>
	<polygon class="reflection" points="199.17 153.03 294.13 153.03 279.9 27.914 279.79 26.964 199.17 26.964"/>
	<path class="dark-shade" d="m334.26 26.96h-51.496l14.339 126.07h94.833l-28.681-102.24c-3.662e-4 -0.0016289-0.0010681-0.0032501-0.0014343-0.0048752l-0.12173-0.43987c-0.0072021-0.026527-0.013672-0.053062-0.019806-0.079777-2.9396-13.493-15.075-23.292-28.854-23.301l0.0023193-0.0020142z"/>
	<path class="reflection" d="m39.225 36.788c-2.8411 3.1439-5.0321 6.9058-6.3212 11.088l-26.696 95.271-2.7742 9.8832h94.833l14.36-126.07h-51.5c-8.2333 0.0051422-15.877 3.5081-21.326 9.2037l-0.57777 0.62326 0.0026435-0.0011865z"/>
	<path class="st4" d="m148.78 202.17c25.726 0 46.746-20.581 47.526-46.179h-95.053c0.7812 25.598 21.801 46.179 47.526 46.179h1.53e-5z"/>
	<path class="shade" d="m246.83 202.17c25.726 0 46.745-20.581 47.526-46.179h-95.053c0.78119 25.598 21.801 46.179 47.526 46.179h-1.52e-5z"/>
	<path class="st4" d="m392.39 155.99h-95.053c0.78119 25.598 21.801 46.179 47.526 46.179s46.745-20.581 47.526-46.179h3.04e-5z"/>
	<path class="shade" d="m10.724 180.24c2.6964 4.198 6.032 7.9454 9.8679 11.105l2.1958 1.7073c7.8499 5.7335 17.51 9.1201 27.944 9.1201 25.726 0 46.746-20.581 47.526-46.179h-95.053c0.084439 2.7671 0.40642 5.4753 0.94419 8.1051l0.74033 3.081c1.0093 3.6661 2.4456 7.1556 4.2519 10.413l1.5817 2.6481 6.59e-5 -6.1e-5z"/>
	<path d="m395.37 154.5c0-0.0067444-0.0019226-0.01294-0.0020142-0.019669-4.272e-4 -0.011932-0.0028687-0.023712-0.0035706-0.035644-0.0058289-0.15523-0.036285-0.30319-0.086304-0.4426l-29.18-104.02-0.10947-0.39583c-1.5822-7.2158-5.6132-13.741-11.354-18.377-5.7511-4.6445-12.986-7.2051-20.373-7.2098h-53.15c-0.012054 0-0.02359 0.003521-0.035614 0.0037899h-166.76c-0.012009-2.689e-4 -0.023514-0.0037899-0.035584-0.0037899h-53.154c-7.3859 0.0046921-14.621 2.5651-20.372 7.2098-5.7407 4.636-9.7719 11.161-11.354 18.377l-0.10913 0.39492-29.236 104.16c-0.11481 0.40936-0.040136 0.84273 0.18771 1.1972 0.25601 15.861 7.8246 29.972 19.47 39.084v160.73c0 8.3323 6.7633 15.112 15.077 15.112h316.16c8.3133 0 15.077-6.7788 15.077-15.112v-154.69c17.305-8.0377 29.339-25.611 29.339-45.951l0.0046123-0.0054474zm-334.24-127.54h51.5l-14.36 126.07h-94.833l2.7742-9.8832 40.844-1.634-39.937-1.5978 2.8669-10.213 37.07-1.483-36.247-1.4501 2.9507-10.512 33.296-1.3321-32.557-1.3025 3.0346-10.811 29.522-1.1811-28.866-1.1548 3.1184-11.109 25.748-1.03-25.176-1.0073 3.2022-11.408 21.974-0.87914-21.486-0.8597 3.286-11.707 18.2-0.72806-17.796-0.71209 2.876-10.246c5.379e-4 -0.0019913 0.0010796-0.0039711 0.0016212-0.0057793l0.12156-0.43987c0.0072021-0.026352 0.013683-0.052708 0.019447-0.079239 0.089638-0.41135 0.18846-0.81907 0.29498-1.2234l14.482-0.58779-14.149-0.57434c1.2891-4.1822 3.4801-7.9441 6.3212-11.088l7.8273-0.32359-7.25-0.29967c5.4484-5.6959 13.093-9.199 21.326-9.2037l-0.00214-0.0012073zm302 23.381l0.12173 0.43987c3.662e-4 0.0016251 0.0010681 0.0032463 0.0014343 0.0048714l28.681 102.24h-94.833l-14.339-126.07h51.496c13.779 0.0086632 25.914 9.8084 28.854 23.301 0.006134 0.026714 0.012604 0.053249 0.019806 0.079777l-0.0023193 0.0020104zm-261.88 105.65h95.053c-0.7812 25.598-21.8 46.179-47.526 46.179s-46.745-20.581-47.526-46.179v-1.53e-5zm98.046 0h95.053c-0.78122 25.598-21.801 46.179-47.526 46.179s-46.746-20.581-47.526-46.179v-1.53e-5zm80.486-129.02l0.10809 0.94983 14.23 125.11h-94.959v-126.07h80.619l0.0018921 0.0056687zm-83.573 126.07h-94.973l14.349-126.07h80.619v126.07h0.004013zm-187.08 24.557c-1.8063-3.2572-3.2426-6.7467-4.2519-10.413l38.137-1.5258-38.877-1.5553c-0.5378-2.6302-0.85979-5.3384-0.94419-8.1052h95.053c-0.7812 25.598-21.801 46.179-47.526 46.179-10.435 0-20.095-3.3864-27.944-9.1201l20.24-0.80971-22.435-0.89758c-3.836-3.1592-7.1719-6.9064-9.8679-11.105l32.303-1.2924-33.885-1.3557-5.326e-4 1.22e-4zm335.72 24.58c-25.726 0-46.745-20.581-47.526-46.179h95.053c-0.78119 25.598-21.8 46.179-47.526 46.179zm18.21 152.98c0 6.702-5.4399 12.154-12.127 12.154h-316.16c-4.713 0-8.8039-2.7105-10.81-6.6563l43.538-1.7418-44.694-1.788c-0.10463-0.64102-0.16138-1.298-0.16138-1.9682v-7.7437l44.855-1.7945-44.855-1.7945v-9.7055l44.855-1.7946-44.855-1.7945v-9.7055l44.855-1.7944-44.855-1.7946v-9.7055l44.855-1.7944-44.855-1.7946v-9.7054l44.855-1.7945-44.855-1.7946v-9.7055l44.855-1.7945-44.855-1.7946v-9.6794l44.855-1.8206-44.855-1.8207v-10.899l44.855-1.8542-44.855-1.8541v-9.6453l44.855-1.7943-44.855-1.7946v-9.7055l44.855-1.7945-44.855-1.7946v-9.7055l44.855-1.7945-44.855-1.7946v-13.028c8.0326 5.403 17.689 8.5595 28.068 8.5595 23.667 0 43.58-16.403 49.024-38.462 5.445 22.058 25.358 38.462 49.024 38.462s43.58-16.403 49.024-38.462c5.445 22.058 25.358 38.462 49.024 38.462 23.659 0 43.566-16.392 49.019-38.438 5.4531 22.047 25.36 38.438 49.018 38.438 6.4175 0 12.558-1.2086 18.21-3.4064v153.43l-0.0013103 8.24e-4z"/>
</svg>
