<?xml version="1.0" encoding="utf-8"?>
<svg enable-background="new 0 0 400 400" version="1.1" viewBox="0 0 400 400" xml:space="preserve" width="400px" height="400px" xmlns="http://www.w3.org/2000/svg">
	<style type="text/css">
		.dark-shade{fill:#bbbfc3;}
		.shade{fill:#dfe1e3;}
		svg{fill:#253746;}
		.clear{fill:#fff;}
	</style>
	<path class="dark-shade" d="m248.56 230.68l150.03 125.89c1.3098 1.1409-3.7092 9.017-11.21 17.591-7.5006 8.5739-14.643 14.601-15.953 13.46l-145.33-131.26"/>
	<path class="shade" d="m231.02 250.71c0 0.024414-0.024475 0.024414-0.024475 0.024414-0.73434 0.48851-1.4442 0.92818-2.1051 1.2701l-1.3463-1.1724c-1.3952 2.6135-1.9581 4.5921-1.4197 5.4957 0.04895 0.097687 0.12238 0.19534 0.19582 0.26862 1.6889 1.4412 8.0773-3.1264 14.27-10.21 6.2173-7.0837 9.8887-14.02 8.2-15.486-0.073441-0.073273-0.17137-0.12215-0.29376-0.14656-0.97906-0.41522-2.8883 0.41525-5.2381 2.1494l1.3217 1.1481c-0.24474 0.70836-0.56296 1.4655-0.95462 2.2471v0.024429"/>
	<path d="m399.36 355.65l-150.03-125.89-0.057663 0.06839c-0.13629-0.078384-0.25264-0.1868-0.40849-0.22821-1.4271-0.53194-3.4972 0.24329-6.332 2.3329l-1.2263 0.90642 1.831 1.5886c-0.17685 0.43175-0.37769 0.88014-0.60718 1.3334l-0.12904 0.28625v0.28862l1.2501-0.014298 1.0685 0.53668c0.39915-0.79912 0.74341-1.6053 1.0183-2.3949l0.27014-0.78001-0.75534-0.65593c1.6015-1.0114 2.4812-1.2094 2.725-1.145 0.31073 1.2404-2.0844 6.6194-8.3114 13.713-6.3941 7.3159-11.521 10.359-12.487 10.123-0.0023804-0.0071106-0.25098-0.67265 0.75774-2.9125l0.77928 0.67984 0.74101-0.38643c0.69559-0.36255 1.4438-0.82292 2.2159-1.3382l-0.18884-0.28381 0.76013-0.75615h-1.2502v-1.1975h-0.37047l-0.30838 0.20514c-0.43506 0.28859-0.85818 0.56053-1.2693 0.80145l-1.8573-1.6196-0.72427 1.3572c-1.7354 3.2512-2.1776 5.3789-1.439 6.6051 0.071243 0.14743 0.17805 0.2439 0.27081 0.35944l-0.046143 0.050812 0.26411 0.23853c0.0042114 0.0040588 0.0066071 0.010284 0.010788 0.014343 0.0039978 0.003418 0.0095825 0.0041504 0.01358 0.0075684l145.06 131c0.33945 0.29581 0.73865 0.44849 1.2167 0.44849 1.3027 0 3.1911-1.1211 6.0333-3.5209 3.0597-2.5786 6.7627-6.3091 10.432-10.501 3.6669-4.1932 6.8674-8.3604 9.0167-11.733 2.7346-4.289 3.3346-6.4855 2.0581-7.5973l0.0019226 0.0025635-6.1e-5 4.576e-4zm-12.92 17.723c-7.7234 8.8281-13.025 12.792-14.435 13.153l-142.78-128.95c3.856-1.5943 9.0853-6.7018 12.289-10.367 3.8752-4.4137 7.6707-9.9117 8.6434-13.56l147.39 123.68c-0.16736 1.4432-3.3896 7.2201-11.111 16.049l-0.001709-0.0010986 0.0017395 0.0023803z"/>
	<path d="m191.59 48.421c14.452 12.287 26.083 28.311 32.298 46.456l2.2559 6.8216c0.64177 2.3053 1.0608 4.6701 1.6013 7.0032l0.76694 3.5117c0.22197 1.1761 0.30836 2.3747 0.46895 3.5614l0.85648 7.1389 0.1924 7.1875 0.083435 3.5958-0.25703 3.5873-0.53821 7.1749-1.2043 7.0957c-0.22005 1.1788-0.38455 2.3701-0.66307 3.5355l-0.97008 3.4664c-0.66628 2.3043-1.2518 4.6347-1.9861 6.9147l-2.6107 6.7065c-0.45457 1.1089-0.82834 2.2533-1.3495 3.3324l-1.6309 3.2071c-1.1013 2.1297-2.1443 4.292-3.295 6.3926l-3.8871 6.0523-1.9513 3.0193-2.2417 2.8119-4.5199 5.5877c-6.3473 7.1742-13.643 13.499-21.621 18.762-8.0207 5.1929-16.685 9.3902-25.765 12.242 17.807-6.6806 33.798-17.842 45.963-32.234l4.3086-5.5955 2.1723-2.7801 1.8894-2.9785 3.7662-5.9624c1.111-2.0686 2.1146-4.1967 3.1779-6.2911l1.5743-3.1521c0.50255-1.0603 0.8582-2.1856 1.2946-3.2747l2.5058-6.5833c0.70059-2.2381 1.2535-4.524 1.8885-6.7823l0.92429-3.3964c0.26605-1.1414 0.40802-2.3104 0.62517-3.4626l1.2341-6.9314 0.57889-7.0172 0.28146-3.5107-0.056793-3.5212-0.13165-7.0438-0.78674-7.0032c-0.14832-1.1646-0.22229-2.3417-0.43129-3.4967l-0.727-3.449c-0.50645-2.2938-0.9194-4.6129-1.5009-6.8881l-2.0583-6.7484c-0.5985-2.284-1.5401-4.4426-2.4521-6.614-0.93652-2.1585-1.7286-4.3891-2.7839-6.4937-2.2903-4.1139-4.2444-8.4415-7.0487-12.257-4.8994-8.1242-11.527-14.99-18.241-21.696l2.594e-4 3.624e-4 4.882e-4 -0.0012437z"/>
	<path d="m47.143 212.05c-7.9767-7.0378-15.133-15.049-20.96-24.031-5.5739-9.1161-10.026-18.933-12.953-29.258-2.7547-10.367-3.9577-21.101-3.815-31.837 0.44695-10.733 2.3618-21.366 5.6183-31.612 3.5409-10.165 8.6207-19.708 14.711-28.554 3.3899-4.1636 6.5289-8.5373 10.316-12.356 3.7601-3.8285 7.73-7.4629 12.025-10.684 8.5434-6.4941 18.029-11.717 28.058-15.457 10.06-3.6538 20.62-5.8707 31.259-6.4443-21.189 2.1048-41.642 10.245-58.159 23.383-4.1434 3.266-7.9713 6.9001-11.653 10.661-3.6905 3.7712-6.7333 8.0876-10.031 12.186-5.906 8.7123-10.804 18.086-14.208 28.043-3.2499 9.9949-5.1995 20.389-5.7131 30.905-0.24403 10.528 0.98353 21.03 3.4043 31.287 2.6602 10.208 6.8553 19.967 12.157 29.113 5.4288 9.1021 12.341 17.212 19.945 24.655l-9.651e-4 -2.594e-4 5.075e-4 1.983e-4z"/>
	<ellipse class="shade" cx="119.74" cy="130.54" rx="99.633" ry="99.423"/>
	<path d="m119.67 231.16c-23.541 0-47.175-8.1535-66.262-24.779-41.895-36.496-46.223-100.2-9.6513-142.01 36.57-41.806 100.41-46.132 142.3-9.6323 41.895 36.496 46.226 100.2 9.6527 142.01-19.912 22.759-47.909 34.412-76.047 34.412l0.0020752-6.714e-4 0.0052605 1.53e-5zm0.12789-198.75c-27.453 0-54.766 11.366-74.2 33.576-35.686 40.791-31.459 102.95 9.4167 138.56 40.877 35.607 103.16 31.391 138.85-9.3982 35.683-40.791 31.459-102.95-9.418-138.56-18.621-16.22-41.687-24.178-64.655-24.178h0.0010376 0.0016441z"/>
	<path d="m236.48 225.37c0.081238-0.27048 0.17296-0.54655 0.23451-0.80597l0.17215-0.71562-8.242-7.1795-0.0014496 0.0060883-0.14673-0.12776-0.68607 0.26714c-0.23833 0.091675-0.49515 0.22708-0.74287 0.33995l-13.769-11.995c39.795-49.644 33.66-122.47-14.785-164.67-24.103-20.997-54.947-31.36-86.887-29.212-31.923 2.1611-61.095 16.597-82.133 40.652-43.437 49.654-38.294 125.32 11.464 168.66 22.668 19.748 50.742 29.433 78.7 29.433 26.718-0.0019226 53.319-8.8726 75.007-26.238l15.104 13.16c-0.07724 0.26314-0.17259 0.53911-0.23293 0.78914l-0.17213 0.71802 6.7194 5.8561 0.002533-0.0028534 1.6301 1.4197 0.68369-0.26002c0.24979-0.094391 0.51228-0.22124 0.77046-0.33694l9.556 8.3324 0.741-0.38643c0.6956-0.36256 1.4438-0.82294 2.2184-1.3406 2.5003-1.6697 5.0725-3.9811 7.4387-6.6812 2.3952-2.7384 4.3363-5.5887 5.6053-8.22 0.39917-0.79906 0.74341-1.6053 1.0183-2.3949l0.27017-0.78-9.5354-8.2892-1.068e-4 -0.0022278-0.0015259-0.0022735zm-6.559-4.1647c0.016251-0.04422 0.032547-0.088669 0.051208-0.13492l3.642 3.1739 0.0023956-0.0027008 0.52588 0.45828c-0.47223 1.5646-1.3315 3.3443-2.4701 5.1885l-4.2932-3.7402c1.0769-1.7017 1.9444-3.3766 2.5419-4.943v9.16e-5l-3.05e-5 3.05e-5zm0.37213 10.727c-0.77408 1.0829-1.6055 2.1669-2.5355 3.2298-0.93672 1.0707-1.9062 2.0631-2.8811 2.9786l-4.3244-3.7661c0.979-0.9285 1.9496-1.9064 2.8859-2.9767 0.92566-1.0593 1.7585-2.1402 2.5421-3.2232l4.3127 3.7576 1.678e-4 4.58e-5 -1.52e-5 -1.52e-5zm-187.22-13.758c-48.421-42.181-53.425-115.81-11.156-164.13 20.477-23.406 48.861-37.457 79.927-39.559 2.6964-0.18248 5.3821-0.27312 8.058-0.27312 28.167 0 55.07 10.039 76.493 28.699 48.424 42.181 53.428 115.81 11.159 164.13-42.277 48.319-116.06 53.315-164.48 11.133l-0.0016899-3.05e-5 0.0010185 4.005e-4zm167.45 16.19c2.8378-1.8291 5.2479-4.1299 7.4207-6.6129 2.4597-2.8829 4.6349-6.0394 6.1176-9.5126-1.6677 3.3853-3.9932 6.3915-6.571 9.1021-2.3473 2.4189-4.9796 4.6371-7.8773 6.2304l-1.2029-1.048c2.6122-1.6907 4.8568-3.7849 6.8927-6.0468 2.339-2.6507 4.4107-5.5462 5.9685-8.6996-1.7376 3.0562-3.9588 5.8033-6.4146 8.2818-2.2109 2.1978-4.6717 4.2062-7.354 5.6739l-1.2052-1.0499c2.3764-1.5448 4.4407-3.4282 6.3266-5.4617 2.2038-2.4116 4.1611-5.0424 5.7415-7.8781-1.7547 2.73-3.8608 5.2137-6.1798 7.4516-2.0612 1.9693-4.3373 3.7658-6.7927 5.1003l-1.2083-1.0526c2.0893-1.3673 3.9256-3.0006 5.6214-4.7621 0.99719-1.0776 2.0076-2.1465 2.8349-3.3599l2.5552-3.5591-2.7901 3.3636c-0.89865 1.1397-1.9751 2.1295-3.0281 3.1191-1.8699 1.6966-3.9144 3.2428-6.0921 4.415l-1.2619-1.0995c1.7808-1.1774 3.4137-2.5073 4.894-3.9871 1.8519-1.8086 3.4201-3.8622 4.9325-5.9287-1.6752 1.9436-3.3867 3.8485-5.3493 5.4814-1.6523 1.4139-3.4409 2.6971-5.322 3.6987l-1.2641-1.1013c1.3111-0.8866 2.5411-1.8515 3.6761-2.9154 1.4893-1.4044 2.8554-2.9209 4.1154-4.5114-1.4133 1.4564-2.9165 2.8195-4.5127 4.0471-1.3075 1.0035-2.7061 1.886-4.1413 2.6287l-2.4697-2.1516c4.7247-3.948 9.2153-8.2885 13.393-13.064 0.60638-0.69321 1.1683-1.4099 1.756-2.1131l14.565 12.687c-1.6004 3.4065-3.8857 6.4375-6.4327 9.1646-2.4095 2.5369-5.1309 4.8605-8.138 6.5176l-1.2028-1.0479 2.136e-4 2.136e-4 -3.966e-4 -4.576e-4zm2.114 1.8418c2.9525-1.8989 5.4483-4.3043 7.6833-6.9048 2.4317-2.8921 4.5708-6.0676 5.9924-9.5565l1.1371 0.99051c-1.1493 2.8262-3.2003 6.0179-5.8592 9.0562-2.6751 3.0588-5.5797 5.5264-8.238 7.0378l-0.71574-0.62346 1.984e-4 -2.136e-4 -6.1e-5 3.662e-4zm5.5572 6.6999l-4.1513-3.6135-0.022232-0.019363c0.057327-0.031052 0.11232-0.059631 0.16734-0.090652 1.4653-0.79359 3.0013-1.8689 4.5366-3.1522l4.2994 3.7446c-1.6853 1.3801-3.3405 2.4629-4.8298 3.1311l-4.57e-5 4.58e-5zm24.331-7.1489c-1.1809 2.4569-2.9975 5.1166-5.2493 7.6904-2.2279 2.5427-4.6325 4.7062-6.956 6.259-0.43504 0.29099-0.86293 0.56291-1.2741 0.80624l-0.015839-0.013733c2.38-1.5457 4.4465-3.431 6.3347-5.4671 2.2039-2.4114 4.1615-5.0424 5.7419-7.878-1.7547 2.7302-3.8608 5.2141-6.1798 7.4523-2.0633 1.971-4.342 3.7692-6.8 5.104l-1.2061-1.0533c2.0909-1.3676 3.9297-3.0027 5.6265-4.7655 0.99713-1.0775 2.0076-2.1465 2.835-3.3599l2.5551-3.5594-2.79 3.3636c-0.89867 1.1399-1.9753 2.1297-3.0284 3.1193-1.8712 1.6978-3.9161 3.244-6.0965 4.417l-1.2597-1.1002c1.7818-1.1779 3.4153-2.5082 4.8964-3.9888 1.8519-1.8083 3.4201-3.8622 4.9325-5.9286-1.6751 1.9438-3.3866 3.8485-5.3493 5.4818-1.6527 1.4142-3.4424 2.6975-5.323 3.6994l-1.2621-1.1024c1.3111-0.8866 2.5402-1.851 3.6754-2.9149 1.4893-1.4045 2.8553-2.921 4.1154-4.5117-1.4133 1.4565-2.9165 2.8195-4.5127 4.0471-1.3067 1.0027-2.705 1.8853-4.1389 2.6272l-0.3297-0.28787c2.6567-1.6546 5.5296-4.1456 8.134-7.1223 2.5827-2.9551 4.6619-6.1194 5.9521-8.9657l7.5893 6.5993c-0.17685 0.43414-0.38008 0.88733-0.6167 1.3525l1.373e-4 3.357e-4 -2.442e-4 -6.11e-5z"/>
	<path class="clear" d="m176.1 61.977l-5.3851 12.042c-0.26927-0.24427-0.56296-0.51295-0.85674-0.7572-9.6687-8.4269-20.879-13.996-32.579-16.732l1.9337-12.53c13.145 2.9311 25.823 8.8912 36.887 17.977l2.594e-4 5.72e-5 -6.1e-5 7.62e-5z"/>
	<path class="clear" d="m199.17 90.69c-4.4551-8.8912-10.525-17.147-18.113-24.353l-5.8992 12.017c5.948 6.2774 10.623 13.337 14.025 20.884l9.9867-8.5493 5.341e-4 6.638e-4z"/>
</svg>
