<?xml version="1.0" encoding="utf-8"?>
<svg enable-background="new 0 0 400 400" version="1.1" viewBox="0 0 400 400" xml:space="preserve" width="400px" height="400px" xmlns="http://www.w3.org/2000/svg">
	<style type="text/css">
		svg{fill:#253746;}
		.dark-shade{fill:#bbbfc3;}
	</style>
	<path d="m29.678 237.19l1.1245-4.3394c3.5776-13.8 12.438-52.44 13.146-55.529-0.13641-1.5612-0.62208-10.665 5.6652-18.031 4.86-5.6929 12.448-8.8073 22.553-9.2569l4.3839-0.19513-3.65 2.4332c-0.14655 0.097931-14.658 9.9972-15.058 29.858l-0.032875 0.25781c-2.1629 9.0953-11.389 38.104-24.954 51.634l-3.1768 3.1691-3.433e-4 1.983e-4zm38.701-84.385c-7.4557 0.94893-13.13 3.656-16.9 8.0718-6.0714 7.1121-5.0856 16.292-5.0754 16.383l0.024506 0.2083-0.046631 0.2047c-0.085556 0.373-7.762 33.904-11.984 50.95 11.319-14.092 19.01-38.393 20.998-46.675 0.35471-15.317 8.3746-24.888 12.984-29.144l-2.135e-4 6.256e-4z"/>
	<path class="dark-shade" d="m45.187 177.39s-9.4427 41.268-13.198 55.756c12.952-12.918 22.171-40.72 24.628-51.052 0.42067-20.784 15.604-30.85 15.604-30.85-29.913 1.3309-27.034 26.146-27.034 26.146z"/>
	<path class="dark-shade" d="m225.92 101.56c0.38481 4.4152 1.5084 10.978 7.1031 10.66 5.5945-0.31718 12.066-0.68411 12.066-0.68411s4.304 0.77397 3.9191-6.7127c-0.17793-3.463-1.9252-11.732-5.9553-20.17 4.9215 3.7898 8.6721 9.1075 9.9641 16.578 0.40834 4.6854 1.6007 11.649 7.5374 11.313 5.9367-0.3366 12.805-0.72595 12.805-0.72595s4.5673 0.82124 4.1589-7.1237c-0.40833-7.9448-8.5754-39.723-32.259-45.631-15.477-3.8605-44.902-5.9206-67.825-0.72785-20.273 0.80358-40.728 5.4145-49.062 17.116-9.1806 12.889-12.891 22.46-12.891 36.858 0 0 1.1704 7.9584 9.6197 7.4796 8.4495-0.47908 11.16 0.020851 11.16 0.020851s1.6208-0.0064468 3.0928-1.1229c1.516 1.2016 3.6481 2.0606 6.6778 1.8888 8.9662-0.50828 11.842 0.022133 11.842 0.022133s5.3742-0.014259 5.7497-6.533c0.32742-5.6837 4.3787-29.946 26.469-36.474 13.389 0.8738 32.619 5.4132 35.828 23.969l4.58e-5 6.71e-4z"/>
	<path class="dark-shade" d="m118.44 124.31l-0.686 0.036674c-1.3475 0.048897-2.401 1.1978-2.352 2.5423l0.51447 12.149 5.5739-0.47668-0.50221-11.905c-0.049019-1.3445-1.2006-2.3956-2.5481-2.3468h-1.54e-5z"/>
	<path class="dark-shade" d="m228.03 117.36h-0.11026c-1.3107 0.061134-2.3275 1.1856-2.2663 2.4934l0.44095 9.4478 4.7531-0.42781-0.4287-9.2399c-0.061264-1.2711-1.1271-2.2734-2.3889-2.2734h-1.53e-5z"/>
	<path class="dark-shade" d="m247.69 116.52h-0.11032c-1.3107 0.06105-2.3275 1.1855-2.2663 2.4933l0.44102 9.4478 4.7531-0.42781-0.42876-9.2399c-0.061203-1.2711-1.127-2.2733-2.3888-2.2733h-3.06e-5z"/>
	<path class="dark-shade" d="m139.16 125.62l-1.0317 0.043671c-1.3464 0.056976-2.4011 1.2027-2.344 2.5459l0.83093 19.539c0.057037 1.3432 1.2054 2.3957 2.5517 2.3386l1.0317-0.043594c1.3463-0.056992 2.4011-1.2027 2.344-2.546l-0.83087-19.539c-0.057098-1.3432-1.2054-2.3957-2.5517-2.3387v6.11e-5z"/>
	<path class="dark-shade" d="m163.64 124.59l-1.0317 0.043663c-1.3463 0.056976-2.4012 1.2027-2.3441 2.546l0.62964 14.804 6.084 3.4302-0.78615-18.486c-0.057114-1.3432-1.2054-2.3957-2.5517-2.3387l1.53e-5 5.341e-4z"/>
	<path class="dark-shade" d="m255.23 118.25l-0.1601 0.0074768c-1.3461 0.063019-2.3957 1.2134-2.3326 2.5564l0.74963 15.945c0.063095 1.343 1.2161 2.3903 2.5622 2.3273l0.16016-0.0074768c1.3461-0.063019 2.3957-1.2133 2.3326-2.5563l-0.74963-15.945c-0.06308-1.343-1.2161-2.3903-2.5622-2.3273v-7.62e-5z"/>
	<path class="dark-shade" d="m275.59 117.3c-1.1516 0.06105-2.0458 1.0388-1.9969 2.1878l0.2695 5.5491 0.25729 5.5856 0.061218 1.2834 0.012238 0.20775 5.1942 2.8967-0.22046-4.8401-0.2695-5.5735-0.24503-5.3535c-0.049042-1.1367-1.0413-2.0289-2.1805-1.9801l-0.88199 0.036751-3.05e-5 7.7e-6z"/>
	<path class="dark-shade" d="m227.41 179.35c-27.821 1.6746-49.161 25.007-46.379 52.032 2.7809 27.037 28.408 45.566 55.996 41.569 26.289-3.8012 44.653-26.829 42.104-51.591-2.5481-24.775-25.199-43.61-51.721-42.009zm18.878 57.959l2.2418 21.817-27.233 3.6302-2.3031-22.343-24.145 2.7501-2.7808-26.988 24.219-2.1878-2.3031-22.343 27.417-1.9312 2.2418 21.805 22.136-1.9923 2.5971 25.276-22.087 2.5056-3.05e-5 5.188e-4z"/>
	<path d="m79.615 159.78c-0.58614-0.66978-1.4143-1.1913-2.3037-1.3804-0.88947-0.1935-1.7729-0.11885-2.5948 0.098892-1.6762 0.46555-2.9917 1.6658-3.8856 2.9904-0.9007 1.3424-1.4913 2.8214-1.9394 4.3181-0.8783 3.0042-1.2199 6.1103-1.2338 9.1951 0.2748-3.0681 0.84087-6.121 1.8474-8.9948 0.51937-1.4267 1.1769-2.8073 2.0721-3.9822 0.89376-1.1658 2.0773-2.0829 3.4315-2.3719 1.3743-0.30208 2.7486-0.01181 3.5441 1.037 0.82923 1.019 1.1844 2.4848 1.3534 3.9223 0.31194 2.9235-0.04673 5.9665-0.62359 8.9221-0.59582 2.9644-1.456 5.8835-2.5022 8.7265-1.0345 2.8406-2.3581 5.5825-3.7329 8.3326-2.7256 5.4901-5.695 10.87-8.8777 16.117-3.1282 5.2811-6.521 10.403-10.093 15.393-3.4921 5.0537-7.3985 9.7928-11.307 14.528-8.0568 9.2549-16.951 17.841-27.018 25.034 10.594-6.398 20.069-14.626 28.451-23.773 8.3093-9.227 15.677-19.29 22.066-29.925 3.1763-5.3291 6.1693-10.767 8.8586-16.366 2.7285-5.5455 5.0305-11.527 6.028-17.727 0.49184-3.0996 0.81602-6.2719 0.33325-9.4803-0.26827-1.5803-0.6892-3.2523-1.8745-4.6158l5.033e-4 5.493e-4z"/>
	<path d="m399.9 234.32c-0.16187-1.5401-0.45224-3.1178-1.3219-4.7371-1.5908-2.5313-3.0799-4.7335-4.6595-7.0605-1.5676-2.2959-3.1641-4.5749-4.8115-6.8262-1.5744-2.138-3.1259-4.2087-4.901-6.3126-2.2829-8.6029-4.8462-17.065-7.6756-25.481-2.9041-8.5397-6.0694-17.007-9.909-25.245-1.9445-4.1073-4.0161-8.177-6.573-12.041-2.5553-3.9058-5.6034-7.3967-9.0165-10.563-3.4258-3.142-7.2862-5.8397-11.475-7.9237-2.0915-1.0472-4.2703-1.9287-6.5139-2.6332-1.1223-0.352-2.2615-0.65756-3.4216-0.90593-1.1856-0.24613-2.2803-0.44913-3.6349-0.5438l-0.10577-0.0074005-0.14426 0.013237-14.245 1.3076c-10.161-5.3203-27.004-3.4048-31.454-2.7746l-0.15842-3.3962c-0.077179-1.8148-1.6294-3.2442-3.4556-3.1493l-0.89545 0.037567c-0.33017 0.017456-0.64001 0.097382-0.93704 0.20374l-0.11783-3.285c0.64368-0.10961 1.4304-0.38256 2.1771-1.0384 1.5683-1.3769 2.2724-3.841 2.0936-7.324-0.51386-9.9897-9.6809-40.891-33.185-46.755-13.848-3.4534-42.905-6.0569-66.423-1.2446l-0.32083-0.2921-0.4796 0.45531c-0.049301 0.010456-0.09932 0.019764-0.14854 0.030292-14.924 0.51331-40.762 3.5238-50.854 17.667-9.6911 13.601-13.126 23.433-13.126 37.571l0.013138 0.17787c0.32919 2.2329 1.8864 5.8166 5.4871 7.5448l0.13512 3.5438c-0.45832-0.1725-0.95203-0.25692-1.4632-0.24014l-0.66396 0.035797c-2.0218 0.07341-3.6057 1.782-3.5315 3.8154l0.43429 10.256-44.96 3.6908-16.585 1.4089-4.1461 0.35226c-0.66266 0.047073-1.4437 0.14201-2.2001 0.23242-0.75911 0.060303-1.5115 0.25284-2.2645 0.41835-1.5069 0.34177-2.9693 0.92616-4.3742 1.6201-1.3651 0.76949-2.6909 1.64-3.8176 2.7227-2.3119 2.1146-4.002 4.7447-5.1902 7.4762-1.2111 2.7348-1.9831 5.5824-2.4784 8.4351-0.4978 2.8569-0.72528 5.7253-0.7747 8.5839-0.038664 2.7687 0.061943 5.4605 0.38814 8.2796-0.48793 3.8541-1.6395 7.8388-2.7764 11.745-1.1905 3.9822-2.56 7.936-3.9705 11.873-2.8357 7.8741-5.9619 15.666-9.2466 23.381-1.635 3.8616-3.3439 7.6901-5.1008 11.485-0.88198 1.8959-1.7887 3.7745-2.7271 5.615-0.91615 1.6784-2.0751 3.8889-2.7127 6.0103-0.62182 2.139-1.0789 4.2986-1.2979 6.4531-0.28079 2.1523-0.35968 4.3053-0.38153 6.4459-0.0029949 4.226 0.33906 8.41 1.0786 12.554-0.69874 2.7279-0.89859 5.5594-0.80159 8.3652 0.048874 1.4175 0.18243 2.8313 0.37792 4.2418 0.10095 0.70529 0.21708 1.4087 0.36172 2.1143 0.085496 0.3783 0.12348 0.65063 0.27228 1.1325l0.34341 1.0174c1.7759 5.2717 3.8656 10.412 6.1827 15.454 2.3068 5.0456 4.7175 10.045 7.2597 14.986 1.2924 2.4846 2.5262 4.8915 3.959 7.3947 1.4751 2.5021 3.2399 4.8785 5.3725 6.9172 4.2135 4.1422 9.781 6.8629 15.551 7.8667 2.8911 0.51498 5.8193 0.66202 8.7701 0.39993 1.5729-0.16885 2.8328-0.40115 4.2051-0.58215l4.1033-0.59134 16.429-2.3658 131.45-18.811c43.821-6.2057 87.647-12.478 131.5-18.335l8.2154-1.0609 8.276-0.98837c5.6988-0.80475 11.323-2.6306 16.314-5.5959 5.0095-2.9304 9.3726-6.9077 12.813-11.562 0.8591-1.1671 1.6569-2.3801 2.3911-3.6479 0.36502-0.64154 0.71301-1.2764 1.0439-1.9932l0.8981-1.8211c1.2175-2.5097 2.3829-5.0357 3.5086-7.5828 2.2447-5.0959 4.3371-10.266 6.1387-15.572 1.7508-5.3222 3.3473-10.737 3.8834-16.556 0.1127-1.4603 0.16373-2.9458 0.01001-4.4857l-0.0058824 7.632e-4zm-97.599-108.12l-22 2.0195-0.091217-1.9551c2.6665-0.38332 13.134-1.6886 22.091-0.064461zm-42.642 7.8837l-0.0077515-0.16504-0.006073-0.12843c0.50339-0.04686 1.0086-0.096024 1.5074-0.14044l0.38229-0.033417c3.9146-0.34813 7.7007-0.69621 11.376-1.0444 13.47 7.9584 13.732 9.7079 15.601 22.337 0.77881 5.2638 0.66574 8.0976-0.37683 9.4749-1.1234 1.483-3.8498 1.8387-7.9771 2.3777-0.8649 0.11281-1.7921 0.2339-2.7814 0.37537-2.3334 0.33183-4.2152-0.090118-5.7507-1.2921-4.2966-3.3612-5.1699-12.129-5.8722-19.174l-0.053223-0.53416c-0.82248-8.2246-4.3911-11.135-6.0414-12.053l1.833e-4 -4.73e-4zm-137.02 2.4548l-0.18678-4.4276 12.227-1.2461 0.19849 4.669-12.24 1.0047h5.493e-4zm12.897-10.908c-0.41101 0.44613-0.68233 0.97826-0.83276 1.546l-10.992 1.1199-0.26022-6.8187 2.6738-0.15458c0.30564-0.021462 0.60113-0.032799 0.97919-0.047127l8.8716-0.51012c0.010071 0.001564 0.021042 0.0032578 0.02179 0.0033875l8.85e-4 -0.0047455 0.64095-0.03688v4.0871c-0.40964 0.19899-0.78497 0.47059-1.103 0.81615l-2.134e-4 -3.51e-4zm4.9283-4.8465l0.037369 0.76839c-0.064041 0.0047531-0.12448 0.020042-0.18759 0.027573v-0.86586c0.049011 0.024254 0.10048 0.046326 0.15022 0.069893zm91.316-40.593c3.7761 1.2872 7.3897 3.0541 10.509 5.4452 3.7079 8.0113 5.3217 15.729 5.4976 18.998 0.12621 2.4213-0.27696 4.1884-1.1359 4.9762-0.6221 0.57049-1.3387 0.47982-1.3453 0.47921l-0.14171-0.025063-1.7456 0.10072-12.756 0.09787c-1.0695-0.60703-1.8932-1.7815-2.4943-3.5466 1.702-0.0031967 3.4005-0.024048 5.0997-0.0849 2.2004-0.08448 4.4075-0.19817 6.5837-0.52091-2.1951 0.11967-4.3883 0.028732-6.5773-0.090126-1.8158-0.10336-3.6315-0.25088-5.4397-0.41978-0.22252-0.87054-0.40161-1.8601-0.54176-2.9623 1.9962 0.0063858 3.9845-0.016228 5.9752-0.087471 2.2004-0.08448 4.4075-0.19817 6.5837-0.52091-2.1951 0.11967-4.3883 0.028725-6.5773-0.090118-2.0406-0.11621-4.0825-0.28281-6.1117-0.48037-0.011581-0.12184-0.025864-0.23588-0.036636-0.3603-0.15211-0.88039-0.3483-1.7213-0.56586-2.5428 1.8307 6.714e-4 3.656-0.020584 5.4828-0.08606 2.2004-0.08448 4.4075-0.19817 6.5837-0.52091-2.1951 0.11967-4.3883 0.028725-6.5773-0.090118-1.9417-0.11057-3.8839-0.26895-5.816-0.45367-0.37825-1.2162-0.83051-2.3633-1.3459-3.4493 1.9934 0.006424 3.9789-0.016258 5.9668-0.087357 2.2004-0.084526 4.4075-0.19821 6.5837-0.52094-2.1951 0.11966-4.3883 0.028725-6.5773-0.090195-2.1876-0.12451-4.3781-0.30287-6.5513-0.51988l-0.0038605 0.067131c-0.52353-0.97044-1.101-1.8871-1.7276-2.7526 1.3701-0.010818 2.7388-0.03305 4.1082-0.082062 2.2004-0.084518 4.4075-0.19821 6.5837-0.52094-2.1951 0.11959-4.3884 0.028725-6.5774-0.090187-1.6459-0.093697-3.2912-0.22581-4.9317-0.37397-0.61337-0.75726-1.2651-1.4727-1.9525-2.1477 1.2373-0.012833 2.4735-0.036697 3.7106-0.08094 2.2004-0.084526 4.4075-0.19821 6.5837-0.52094-2.195 0.11967-4.3883 0.028725-6.5773-0.090187-1.6223-0.092362-3.2437-0.22224-4.8609-0.36764-1.1184-0.97724-2.3128-1.8627-3.5696-2.6627 1.2619-0.012528 2.5229-0.036026 3.7845-0.081162 2.2003-0.084526 4.4075-0.19821 6.5837-0.52094-2.1951 0.11966-4.3883 0.028717-6.5774-0.090195-1.9052-0.10847-3.8107-0.26371-5.7069-0.44379-1.2393-0.67745-2.524-1.2856-3.8438-1.8269 0.69778-0.014671 1.3955-0.025536 2.0936-0.050537 2.2004-0.084549 4.4075-0.19824 6.5837-0.52097-2.1951 0.1196-4.3883 0.028656-6.5773-0.090195-1.6273-0.092567-3.254-0.22297-4.876-0.36893-2.3267-0.77933-4.7233-1.3834-7.1208-1.8462 0.57866-0.033272 1.1447-0.080406 1.7428-0.092087 0.27161-0.032463 16.494-1.7956 30.583 3.0013l-3.204e-4 0.0062485c0.0059204 6.87e-5 0.011704-1.297e-4 0.017624-6.87e-5l-6.408e-4 -7.3e-6zm-4.5424 47.163l-0.3528-7.5624c-0.029953-0.64038 0.46356-1.1858 1.1526-1.2145 0.6131 0 1.1359 0.4983 1.1652 1.1083l0.34627 7.4605c-0.53041 0.048012-1.057 0.096642-1.5935 0.14404l-0.71786 0.06398v5.33e-5zm15.665-13.519l0.08374 5.0459-9.9164 0.57655-0.23273-5.5449 10.065-0.077568h-7.62e-5zm-10.91 13.093l-0.1729-3.7246 12.453-0.72318 0.15881 3.3447c-3.9138 0.3503-8.0649 0.71773-12.439 1.103h-2.289e-4zm14.882-1.3205l-0.15527-3.2693h7.63e-5l-0.070862-4.276c0.12593-0.21217 0.3456-0.36708 0.62236-0.37972l0.80273-0.047745c0.44266-0.019699 0.76088 0.30379 0.77939 0.71855l0.32831 7.0456c-0.64659 0.058952-1.2863 0.11838-1.9505 0.17686l-0.35628 0.031647 1.53e-5 1.375e-4zm-55.796-46.987c13.806 1.0926 30.707 5.9686 33.619 22.79 0.20129 2.3428 0.73317 8.3862 4.3889 10.786l0.175 4.159c-0.3837-0.13799-0.79288-0.2233-1.2238-0.2233l-0.16745 0.0012283c-1.9853 0.093109-3.5256 1.785-3.4328 3.7712l0.35765 7.6663-17.98 1.6009c-12.488 1.1123-25.773 2.295-39.148 3.4756l-0.24553-5.7739c-0.041244-0.97643-0.46294-1.8794-1.1873-2.5436-0.72379-0.66367-1.6521-1.0092-2.6403-0.96509l-1.0318 0.043594c-0.39223 0.016647-0.7598 0.1103-1.1096 0.23955l-0.05275-2.9154c1.7028-1.0803 3.2474-3.0931 3.4497-6.6003 0.018662-0.32274 1.9845-28.758 26.229-35.512l3.06e-5 4.198e-4zm-47.686 59.847l16.073-1.4124 0.088425 2.0783c-0.046967 0.0033264-0.087814 0.0072632-0.13763 0.01033-3.2288 0.29543-6.4086 0.57654-9.5257 0.85165l-3.4024 0.30373-3.0117 0.12747-0.083404-1.9591h-1.831e-4zm15.917-5.0798l-16.073 1.4127-0.036362-0.85519 16.063-1.6392 0.045944 1.0818h-6.1e-5zm-1.9001-11.622c0.15683 0.018883 0.2415 0.032257 0.24512 0.033012l0.089844 0.016769 0.12553 6.9464-13.272 1.3548-0.36908-7.6038 13.181-0.74734-1.984e-4 2.061e-4zm-20.069 5.5188c0.22252-0.24171 0.524-0.38257 0.84883-0.39629l1.0306-0.04422c0.017914-5.417e-4 0.035263-0.001152 0.052628-0.001152 0.65196 0 1.1957 0.51501 1.2238 1.1709l0.83086 19.539c0.013748 0.32341-0.10109 0.6344-0.32422 0.87611-0.22252 0.24226-0.524 0.38312-0.84821 0.39684l-1.0306 0.043594c-0.70343 0.02385-1.2478-0.49652-1.2765-1.1698l-0.83086-19.539c-0.013748-0.32347 0.10115-0.63439 0.32361-0.8761v6.09e-5zm6.2979 16.951l6.5763-0.58707c3.1212-0.27574 6.3046-0.55678 9.4781-0.84807 0.16617-0.0097809 0.33409-0.027237 0.50105-0.042038 15.148 9.0993 15.477 11.323 17.582 26.005 0.90561 6.3202 0.75128 9.5836-0.53293 11.263-1.3776 1.8029-4.4372 2.1885-9.506 2.8277-1.0139 0.12776-2.1002 0.26439-3.26 0.42433-2.7958 0.38672-5.0532-0.13373-6.8955-1.5881-5.0898-4.0183-6.0725-14.351-6.8621-22.654l-0.059845-0.6272c-0.93132-9.7534-5.1848-13.07-7.016-14.057l-0.0049744-0.11661 9.17e-5 1.527e-4zm18.448-3.1901l-0.55482-13.055-0.017914-0.98505c0.036362-0.61775 0.5202-1.1269 1.1529-1.1538l1.0318-0.04361c0.32361-0.019074 0.63646 0.10093 0.87872 0.32349 0.24225 0.22202 0.38342 0.52221 0.39719 0.84629l0.69328 16.305c-1.0954-0.70891-2.2857-1.4516-3.5812-2.2378l1.52e-5 -4.57e-5zm5.737-4.7297c13.434-1.1855 26.777-2.3735 39.319-3.491l21.139-1.8817c0.92535-0.081787 1.8429-0.16354 2.7366-0.2477 5.2806-0.46434 10.255-0.90416 14.888-1.3195l1.6491-0.14684c0.61549-0.054062 3.4335-0.31099 4.0309-0.36511v2.1308c-6.015 0.54375-14.334 1.1453-20.617 1.7191-1.5719 0.13489-3.1565 0.28227-4.7375 0.42911-19.35 1.7559-39.462 3.569-58.319 5.2482l-0.088211-2.0754-1.982e-4 -1.53e-5zm83.692-15.444l0.20224 4.3029-0.093735 0.0081558-0.32626-6.941c-0.079498-1.7606-1.5833-3.135-3.355-3.0472l-0.80273 0.047752c-0.1842 0.0082092-0.36328 0.03878-0.53986 0.076874l-0.048767-2.9388c0.53008-0.14439 1.1209-0.40959 1.688-0.90932 1.4948-1.3159 2.1648-3.659 1.9919-6.9661-0.14662-2.7192-1.2197-8.3142-3.5408-14.626 2.4863 3.0652 4.3061 6.8276 5.1074 11.457 0.2162 2.4838 0.78975 8.9051 4.6941 11.407l0.12155 4.5057c-0.44675-0.16422-0.93262-0.24354-1.4366-0.21869l-0.16267 0.0072021c-2.0248 0.095482-3.5938 1.8155-3.4987 3.8351v5.34e-5zm9.6966 9.0919l-0.38998 0.034027c-0.4476 0.040131-0.90131 0.08461-1.3526 0.12631l-0.091766-1.9514c5.1812-0.46101 9.5305-0.85336 12.831-1.1506l0.51398-0.046318 0.091034 1.9226c-3.7451 0.35506-7.6116 0.71094-11.601 1.0653zm11.336-6.6542l-0.6712 0.060715c-3.2661 0.29428-7.5605 0.68134-12.672 1.1364l-0.04834-1.0289 13.356-0.91116 0.035187 0.743h2.746e-4zm-12.334-8.8426l10.625-0.19872 0.16983 4.7255-10.653 0.7269-0.1423-5.2537h3.968e-4zm-5.088 5.012l0.16267-0.0071945c0.019745-0.0011597 0.038879-0.00177 0.058624-0.00177 0.64897 0 1.1921 0.51147 1.2227 1.165l0.47644 10.136h-3.357e-4l0.14041 2.9806 0.13293 2.8275c0.031708 0.67325-0.49106 1.2467-1.1652 1.279l-0.1609 0.0071259c-0.67412 0.036408-1.2495-0.48993-1.2812-1.1632l-0.74951-15.945c-0.031723-0.67318 0.49112-1.2467 1.1635-1.2783v1.602e-4zm20.516-0.96326l0.88287-0.037003c0.44202-0.013107 0.8847 0.35091 0.90445 0.81525l0.63229 13.561c-0.83142-0.52832-1.7233-1.0785-2.6843-1.6565l-0.5596-11.768c-0.020386-0.47921 0.35532-0.88982 0.82425-0.91489v-4.806e-4zm-30.68-58.268c23.997 5.9854 31.036 38.732 31.333 44.508 0.17044 3.3236-0.57785 4.7362-1.2352 5.3366-0.26364 0.24028-0.54156 0.3719-0.7854 0.44424l-16.193 0.30325c-1.2393-0.66959-2.1778-2.0302-2.8408-4.1232 1.6603-0.0044174 3.3172-0.025269 4.975-0.084625 2.2004-0.08448 4.4075-0.19817 6.5837-0.52091-2.195 0.11967-4.3883 0.028725-6.5773-0.090126-1.7649-0.10044-3.5292-0.24348-5.2871-0.40607-0.21672-0.88406-0.39304-1.8783-0.5334-2.9765 1.942 0.0044785 3.8771-0.017601 5.8141-0.086937 2.2004-0.08448 4.4075-0.19817 6.5837-0.52091-2.195 0.11967-4.3883 0.028725-6.5773-0.090118-1.9868-0.11316-3.9743-0.27527-5.9505-0.46577-0.014893-0.15253-0.032806-0.29631-0.046494-0.45245-0.14743-0.85254-0.33934-1.6662-0.54646-2.4658 1.7732-0.0010834 3.542-0.022072 5.3121-0.085503 2.2004-0.08448 4.4075-0.19817 6.5836-0.52091-2.195 0.11967-4.3882 0.028725-6.5773-0.090118-1.8859-0.10744-3.7718-0.26093-5.6489-0.43867-0.36934-1.2177-0.80881-2.3706-1.3103-3.4649 1.9251 0.0038757 3.8437-0.018051 5.7641-0.086769 2.2004-0.084518 4.4075-0.1982 6.5837-0.52094-2.1951 0.11967-4.3883 0.028725-6.5773-0.090187-2.1173-0.12048-4.2367-0.29326-6.3411-0.50095-0.49617-0.95251-1.05-1.8472-1.6399-2.7051 1.2694-0.01239 2.5376-0.035805 3.8065-0.081245 2.2004-0.084518 4.4075-0.19821 6.5837-0.52094-2.1951 0.11959-4.3883 0.028725-6.5774-0.090187-1.5142-0.086166-3.0278-0.20575-4.5381-0.33854-0.58275-0.76547-1.1965-1.4975-1.8488-2.1865 1.0714-0.014549 2.1418-0.039246 3.2132-0.077583 2.2004-0.084526 4.4075-0.19821 6.5837-0.52094-2.1951 0.11966-4.3884 0.028717-6.5773-0.090187-1.417-0.080643-2.8335-0.19061-4.2474-0.31236-1.0398-0.99055-2.1462-1.8991-3.3123-2.7289 0.9713-0.015068 1.9421-0.035584 2.9137-0.070343 2.2004-0.084518 4.4075-0.19821 6.5837-0.52094-2.1951 0.11967-4.3883 0.028725-6.5773-0.090187-1.4666-0.083481-2.9323-0.19844-4.3953-0.32571-1.1483-0.72778-2.3441-1.3832-3.5698-1.9833 0.16936-0.0054398 0.33864-0.0061874 0.50807-0.01223 2.2004-0.084557 4.4075-0.19825 6.5837-0.52098-2.1951 0.1196-4.3884 0.028656-6.5774-0.090195-0.73299-0.041695-1.4659-0.097732-2.1987-0.15098-15.44-6.7314-34.942-4.6221-35.172-4.5924-35.977 0.69227-38.589 38.86-38.611 39.245-0.10823 1.8799-0.68437 3.0999-1.3921 3.8959l-18.606 1.0549c-4.2825-1.3906-5.2306-5.7258-5.3538-6.4071 6.104e-4 -0.52043 0.016068-1.0237 0.026001-1.5333 1.87 0.3074 3.7385 0.57722 5.6198 0.77187 2.3287 0.23119 4.6821 0.40594 7.0132 0.21339-2.3364-0.011742-4.6405-0.3882-6.9234-0.81798-1.9106-0.36783-3.8097-0.81499-5.6891-1.2995 0.044312-1.3064 0.13293-2.5707 0.24547-3.8163 1.7814 0.28816 3.562 0.54394 5.3543 0.72928 2.3287 0.23112 4.6821 0.40594 7.0132 0.21339-2.3364-0.011742-4.6405-0.3882-6.9234-0.81798-1.7947-0.34556-3.578-0.76392-5.3461-1.2133 0.14008-1.2925 0.33054-2.5528 0.55286-3.7983 1.5647 0.24287 3.1297 0.46217 4.7039 0.62503 2.3287 0.23118 4.6821 0.406 7.0132 0.21333-2.3364-0.011681-4.6405-0.38814-6.9234-0.81791-1.5476-0.29795-3.0858-0.6528-4.6153-1.0295 0.25119-1.2642 0.55954-2.508 0.90431-3.7442 1.5182 0.20762 3.0387 0.39302 4.5648 0.52097 2.0186 0.16069 4.0563 0.27051 6.0699 0.079605-2.0199-0.013313-4.0129-0.32532-5.9886-0.68527-1.4619-0.27289-2.9125-0.60024-4.3576-0.94776 0.3707-1.2276 0.80084-2.4484 1.2722-3.6698 1.313 0.14621 2.6276 0.27445 3.946 0.35167 1.709 0.093842 3.4305 0.14092 5.1281-0.039986-1.705-0.023209-3.3871-0.27312-5.0558-0.56689-1.2145-0.21858-2.4197-0.48244-3.6212-0.76154 0.49657-1.2137 1.0515-2.4328 1.6546-3.6618 2.3418 0.16776 4.6984 0.26514 7.0228-9.689e-4 -2.2185-0.080795-4.391-0.48625-6.5437-0.96413 0.62794-1.228 1.3162-2.4725 2.0566-3.7362 1.5049-0.0018692 3.0112-0.05983 4.4871-0.29073-1.3451-0.085037-2.6643-0.31038-3.9711-0.58733 0.81923-1.3608 1.7098-2.7518 2.6655-4.1768l1.3056-0.22704-1.0083-0.22405c0.57616-0.85051 1.1763-1.7141 1.8026-2.5936 5.4048-7.5875 16.024-12.322 28.547-14.99l0.27029-0.0082855 0.068619-0.065132c21.968-4.6033 49.694-2.8825 65.575 1.0785l-0.0018311 6.09e-5zm-128.31 51.714c4.807e-4 -0.36864 0.013069-0.7233 0.018524-1.0861 2.1374 0.36797 4.2698 0.6776 6.4193 0.90002 2.3286 0.23118 4.682 0.40594 7.0132 0.21339-2.3364-0.011742-4.6405-0.3882-6.9234-0.81798-2.1807-0.41986-4.3514-0.93201-6.4879-1.5002 0.039879-1.2829 0.12109-2.5256 0.23034-3.746 2.0533 0.34841 4.103 0.64602 6.1682 0.85967 2.3286 0.23112 4.682 0.40594 7.0132 0.21339-2.3364-0.011742-4.6405-0.3882-6.9234-0.81798-2.0675-0.39812-4.1242-0.88332-6.1532-1.4161 0.13934-1.2683 0.33-2.5038 0.55389-3.7246 1.8334 0.29937 3.6655 0.56335 5.51 0.7542 2.3286 0.23118 4.682 0.406 7.0133 0.21333-2.3364-0.011681-4.6405-0.38814-6.9234-0.81791-1.8113-0.34875-3.6111-0.77132-5.3954-1.2257 0.25459-1.2324 0.55756-2.4476 0.90798-3.6538 1.7757 0.25549 3.555 0.47704 5.3412 0.62672 2.0187 0.16069 4.0563 0.27051 6.0699 0.079598-2.0198-0.013306-4.0129-0.32532-5.9885-0.68527-1.7071-0.31859-3.4-0.70538-5.0839-1.1226 0.3784-1.1938 0.79505-2.3832 1.2761-3.5743 1.5526 0.18398 3.1082 0.33966 4.6683 0.43105 1.709 0.093842 3.4305 0.14092 5.1281-0.039986-1.7049-0.023209-3.3871-0.27312-5.0558-0.56689-1.4342-0.25804-2.8567-0.57427-4.273-0.9134 0.50616-1.1764 1.0586-2.3594 1.6723-3.5555 2.5496 0.19516 5.1226 0.33488 7.6565 0.044685-2.4109-0.087799-4.7676-0.55891-7.1031-1.0905 0.63522-1.1851 1.3234-2.3876 2.0701-3.6128 1.686 0.012016 3.3786-0.029083 5.0332-0.28788-1.5026-0.094955-2.9727-0.36465-4.4297-0.68676 0.81439-1.2981 1.6951-2.6283 2.6399-3.9931l1.7898-0.31126-1.3625-0.30283c0.19705-0.28104 0.38112-0.5546 0.58376-0.83896 7.2814-10.203 23.699-14.253 37.481-15.81-7.7777 2.9149-14.253 7.03-18.304 12.719-10.268 14.414-13.907 24.835-13.907 39.82l0.013138 0.17725c0.17644 1.1988 0.69751 2.7678 1.6615 4.2604l-9.3937 0.53979c-0.33558 0.012497-0.67171 0.025597-0.99416 0.048889l-4.2982 0.24803c-3.9295-1.3229-4.8147-5.3139-4.9308-5.9505l-0.0022967-2.519e-4zm-0.025108 14.884c-0.025131-0.67977 0.50064-1.2527 1.1939-1.2778l0.66396-0.03579c0.66994-0.029816 1.2549 0.49952 1.28 1.1769l0.42333 10.03-3.1318 0.25714-0.42952-10.151v4.12e-4zm279.3 111.63c-0.48648 5.1954-2.0212 10.466-3.7404 15.606-1.7406 5.1558-3.773 10.242-5.9667 15.26-1.0988 2.5075-2.2397 5.0007-3.4254 7.4639l-0.92703 1.8973c-0.2464 0.53781-0.55988 1.1167-0.8775 1.6751-0.64896 1.1228-1.369 2.2225-2.1467 3.2807-3.1212 4.2313-7.0902 7.8578-11.628 10.517-4.5245 2.695-9.6278 4.3624-14.873 5.1113l-8.2051 0.98471-8.246 1.0695c-43.897 5.8891-87.701 12.184-131.53 18.416l-131.44 18.886-16.428 2.3751-4.111 0.59488c-1.3697 0.18399-2.8356 0.43988-4.0142 0.56158-2.5606 0.23016-5.2086 0.1033-7.7627-0.35342-5.1236-0.89581-9.9341-3.2538-13.624-6.8703-1.8689-1.7813-3.4328-3.8831-4.761-6.1318-1.3135-2.2891-2.6074-4.7962-3.8634-7.2106-5.0847-9.7425-9.3712-19.88-14.176-29.782l-0.42673-0.90491c-0.084135-0.16754-0.21047-0.56744-0.30822-0.85403-0.20632-0.62939-0.39018-1.274-0.56015-1.922-0.3396-1.2975-0.6046-2.6193-0.78982-3.9524-0.36533-2.6641-0.39242-5.3901 0.10299-8.0324 0.47111-2.6424 1.5623-5.1876 3.3106-7.265 1.7488-2.0877 4.1767-3.5564 6.7762-4.4868-2.6491 0.76895-5.2022 2.0919-7.1807 4.119-1.2016 1.2333-2.1444 2.7003-2.8779 4.2693 0.079846-3.0958 0.22218-6.1873 0.49814-9.2386 0.36792-4.1163 1.0138-8.2063 2.2216-11.976 0.64387-1.9007 1.5029-3.406 2.596-5.4233 0.98804-1.9028 1.9249-3.8091 2.8328-5.7234 1.8086-3.832 3.5595-7.6792 5.2357-11.558 3.3678-7.7512 6.5719-15.569 9.4998-23.514 1.4572-3.9758 2.874-7.9692 4.1254-12.043 1.217-4.0978 2.4594-8.1546 3.0435-12.611l0.027023-0.20564-0.031856-0.3015c-0.55076-5.2118-0.4756-10.745 0.44763-15.921 0.44838-2.6014 1.1468-5.1376 2.1815-7.4714 1.0153-2.3427 2.4067-4.4612 4.1976-6.0956 1.7643-1.6662 3.9461-2.7987 6.3437-3.3564 0.60263-0.12891 1.1954-0.29292 1.8244-0.33652 0.62188-0.071732 1.2174-0.15526 1.9395-0.20688l4.1504-0.35411 16.602-1.4168 33.196-2.9198 31.864-2.9089 0.088699 2.0852c-24.705 2.1765-42.169 3.6366-49.213 4.1131-5.0777 0.33842-9.6646 1.5858-13.641 3.7092-10.411 0.53716-18.216 3.7963-23.204 9.6895-6.3626 7.5169-5.8913 16.716-5.7292 18.512-2.7151 14.904-9.6169 42.331-13.617 57.214l-2.3322 8.6789 5.5534-7.0727c20.565-26.19 25.285-51.53 25.476-52.596l0.032943-0.18147-0.0048332-0.18501c-0.0041504-0.16469-0.28112-16.585 9.7721-26.559 1.5935-1.5786 3.3593-2.9148 5.2513-3.9741l0.20155-0.11165c3.5878-1.9861 7.7886-3.1517 12.488-3.4651 7.0527-0.47717 24.481-1.9336 49.121-4.1044l0.1207 2.8381c0.083176 1.9677 1.7143 3.5122 3.6703 3.5122 0.052002 0 0.10469-0.0012207 0.1573-0.0036011l1.0312-0.04361c0.97803-0.041763 1.883-0.46249 2.5488-1.1852 0.66573-0.72275 1.0091-1.6579 0.96721-2.6337l-0.0013733-0.031036c1.5905 1.4261 3.8105 4.5641 4.4463 11.223l0.05983 0.62665c0.83386 8.7652 1.8717 19.674 7.7811 24.34 1.8848 1.4878 4.141 2.2368 6.7275 2.2368 0.65381 0 1.3285-0.048355 2.0236-0.14384 1.1503-0.15871 2.227-0.2942 3.2319-0.42136 5.5078-0.69405 9.1472-1.1524 11.147-3.77 1.7496-2.2881 2.0326-5.9591 1.0097-13.092-1.8008-12.562-2.4009-16.722-12.008-23.441l-0.12402-2.9171c18.908-1.6836 39.087-3.5023 58.5-5.2646 1.5755-0.14684 3.1517-0.29306 4.7255-0.42795 6.688-0.6111 13.253-1.2097 19.615-1.7833l1.2498-0.11401 0.11043 2.3473c0.092697 1.9617 1.7215 3.4949 3.6667 3.4949 0.057999 0 0.11601-0.0012207 0.17467-0.0042114l0.16208-0.0071259c1.7815-0.084091 3.2079-1.4272 3.4607-3.1246 1.307 1.2812 3.001 3.9155 3.53 9.2039l0.053253 0.53354c0.74829 7.5081 1.679 16.851 6.7981 20.856 1.6335 1.2778 3.58 1.9205 5.8051 1.9205 0.58203 0 1.1837-0.044144 1.8041-0.13251 0.9798-0.13963 1.8968-0.25903 2.7533-0.37122 4.7398-0.61887 7.8716-1.0277 9.6135-3.3277 1.5157-2.0017 1.7532-5.1713 0.84576-11.305-1.5904-10.748-2.121-14.319-10.34-20.024l-0.12314-2.6413 30.649-2.8136 0.010223 0.0043335v-0.0052185l14.783-1.357c0.87485 0.067169 1.9565 0.24613 2.9365 0.45707 1.0381 0.22209 2.0723 0.49905 3.0944 0.81975 2.0444 0.64221 4.0468 1.4505 5.9731 2.4158 3.8596 1.9204 7.4394 4.4166 10.633 7.3457 3.1687 2.9361 6.0736 6.2642 8.4297 9.8763 2.4024 3.6262 4.421 7.5774 6.3131 11.578 3.7549 8.0344 6.8342 16.427 9.6857 24.882 2.8151 8.4644 5.3838 17.057 7.6259 25.665l0.11249 0.43181 0.31134 0.36708c1.6757 1.9755 3.352 4.2207 4.9489 6.414 1.6064 2.214 3.1712 4.4668 4.7095 6.7395 1.518 2.2464 3.1019 4.6395 4.4491 6.7823 0.44736 0.81989 0.72549 2.0069 0.83087 3.202 0.11972 1.2091 0.07727 2.4949-0.027374 3.7838l0.0022273-0.0020448zm-341.17-55.412c-0.39181 1.976-4.5329 21.484-19.009 42.971 3.9808-15.384 9.0363-36.118 11.24-48.315l0.049622-0.27512-0.034645-0.2769c-0.010822-0.089508-1.0474-9.0131 4.8594-15.991 3.2689-3.8626 8.0472-6.4193 14.252-7.6385-0.16807 0.15878-0.33375 0.31927-0.49828 0.48219-10.65 10.565-10.876 26.922-10.859 29.043l6.86e-5 5.34e-4z"/>
	<path d="m229.63 274.16c-11.369 0-22.484-3.7042-31.343-10.595-10.255-7.9767-16.625-19.383-17.935-32.117-1.3089-12.721 2.6045-25.17 11.019-35.055 8.8709-10.42 21.991-16.88 35.997-17.723 12.945-0.78165 25.487 3.22 35.323 11.266 9.781 8.0018 15.86 19.136 17.116 31.352 1.2564 12.209-2.432 24.337-10.385 34.153-7.9976 9.8681-19.467 16.325-32.298 18.18-2.4958 0.36145-5.0009 0.53955-7.4931 0.53955v-3.053e-4zm0.95425-94.226c-1.038 0-2.0827 0.031174-3.1336 0.094513-13.637 0.82111-26.409 7.1074-35.041 17.247-8.1725 9.6006-11.974 21.689-10.703 34.037 1.2717 12.362 7.4577 23.437 17.418 31.184 10.51 8.175 24.289 11.742 37.804 9.7819 25.835-3.7357 44.075-26.071 41.525-50.85-2.4466-23.787-23.177-41.495-47.869-41.495l3.204e-4 -1.068e-4z"/>
	<path d="m220.69 263.53l-2.3044-22.356-24.146 2.7501-2.9216-28.355 24.219-2.1877-2.3047-22.357 28.775-2.0269 2.2405 21.792 22.136-1.9924 2.7344 26.612-22.087 2.5054 2.2402 21.804-28.582 3.8103 3.205e-4 -3.359e-4zm-1.0912-23.862l2.3016 22.329 25.882-3.4502-2.2428-21.83 22.087-2.5054-2.4599-23.94-22.136 1.992-2.2432-21.818-26.057 1.8351 2.3014 22.329-24.219 2.1877 2.6397 25.621 24.146-2.7501v1.54e-5z"/>
</svg>
