<?xml version="1.0" encoding="utf-8"?>
<svg enable-background="new 0 0 400 400" version="1.1" viewBox="0 0 400 400" xml:space="preserve" width="400px" height="400px" xmlns="http://www.w3.org/2000/svg">
	<style type="text/css">
		.clear{fill:#fff;}
		.dark-shade{fill:#bbbfc3;}
		.reflection{fill:#f1f2f3;}
		svg{fill:#253746;}
	</style>
	<path class="clear" d="m137.88 329.9l-11.678 45.787s-1.584 10.025 9.9239 13.202c11.508 3.1767 36.887 10.035 36.887 10.035l126.54-6.1352 0.12631-3.9863-65.206-7.5235s-14.083-1.7746-15.867-21.158c2.8696-19.977 4.2172-30.22 4.2172-30.22"/>
	<path class="dark-shade" d="m19.25 308.57s-11.263-274.5-12.511-294.53c-0.0285-10.788 8.3526-12.722 14.801-12.608-5.5851-0.8063-20.528-1.6411-20.486 12.608 1.2483 20.021 12.511 294.53 12.511 294.53s-1.2555 21.277 21.684 21.277h3.3383l-0.0071945-0.085571c-20.5-1.3986-19.33-21.192-19.33-21.192l-4.741e-4 2.394e-4z"/>
	<polygon class="dark-shade" points="137.88 329.9 133.02 347.87 139.2 350.82 219.44 348.82 222.82 329.9"/>
	<path class="clear" d="m40.935 329.84h344.48s15.431 1.6685 13.346-13.35c-2.0851-15.018-27.942-231.53-27.942-231.53s0-15.018-17.099-17.938c-17.099-2.9206-324.88-64.662-324.88-64.662s-22.152-5.8401-22.104 11.681c1.2513 20.025 12.511 294.53 12.511 294.53s-1.2507 21.276 21.686 21.276l0.0013923-0.0053406z"/>
	<polygon class="reflection" points="357.06 83.712 300.21 73.089 366.94 167.94"/>
	<polygon class="reflection" points="369.54 190.12 292.66 71.682 261.3 65.816 374.85 235.37"/>
	<polygon class="reflection" points="125.95 40.526 255.83 262.74 357.6 267.53 235.36 60.971"/>
	<polygon class="reflection" points="66.192 29.361 195.02 259.89 232.92 261.67 103.68 36.367"/>
	<polygon class="reflection" points="28.844 22.384 40.938 252.67 138.34 257.24 38.055 24.107"/>
	<path d="m399.8 316.35c-2.0493-14.762-27.425-227.21-27.934-231.46-0.036163-1.1973-0.84042-15.97-17.968-18.895-16.889-2.8848-321.77-64.039-324.79-64.642-0.25581-0.06764-3.51-0.90146-7.5206-0.97102-3.8993-0.56104-11.932-1.0776-17.059 3.0029-3.0152 2.3996-4.5379 5.988-4.5229 10.728 1.231 19.701 12.304 289.47 12.509 294.45-0.040936 0.85986-0.30184 9.6529 5.6895 16.009 3.9536 4.194 9.6886 6.321 17.046 6.321h3.3362v-0.08078c0.76479 0.050659 1.5455 0.08078 2.3491 0.08078h95.612c-1.7267 6.7626-7.1679 28.08-11.359 44.535-2.0315 7.9757 6.0513 12.944 10.661 14.472l36.432 10.057 0.16173 0.044367 127.17-6.1655 0.96597-0.046387 0.15692-4.9534-0.20337-0.0065308 0.030334-0.8205-62.797-7.2368c-2.5717-0.26587-5.0337-0.85303-7.3199-1.8853-2.2701-1.037-4.3074-2.5381-5.8801-4.4562-1.5823-1.9103-2.7003-4.1964-3.4082-6.613-0.70912-2.4203-1.0229-4.9725-1.0354-7.5215-0.001236-1.2667 0.064362-2.57 0.239-3.7804l0.51727-3.9283 0.81686-6.2093 0.15744 0.0067444v-1.2035l0.057358-0.43622 1.8222-13.852h161.64c0.17868 0.017059 0.68628 0.058014 1.4121 0.058014 2.3937 0 7.1586-0.44772 10.297-3.6843 2.4621-2.5392 3.3796-6.2118 2.726-10.915l-7.935e-4 -0.0030821zm-378.78-313.87c0.14725 0 0.29164 0.0035636 0.43715 0.0057998 1.162 0.16896 1.8854 0.33254 1.9136 0.33918l0.057491-0.24625c2.9347 0.23066 5.131 0.79097 5.2066 0.8099 3.078 0.61757 307.99 61.778 324.91 64.668 15.988 2.7306 16.225 16.329 16.227 16.905l0.0074768 0.12424c0.20502 1.7167 16.355 136.93 24.065 200.28l-375.03-12.846c-3.1014-75.182-10.067-243.12-11.028-258.48-0.010897-4.0336 1.2355-7.0481 3.705-8.9593 2.6268-2.0325 6.2737-2.5999 9.5299-2.5999l-0.0021649-0.002753zm-1.2785 320.66c-5.5515-5.8754-5.1372-14.434-5.1323-14.52l0.0030737-0.051849-0.0024452-0.051178c-0.11254-2.7453-11.275-274.74-12.511-294.48-0.010967-4.0022 1.2439-7.0354 3.7302-9.016 1.6045-1.2778 3.5893-2.0298 5.6398-2.4498-0.43402 0.25463-0.85466 0.53435-1.2568 0.84518-3.0142 2.33-4.5362 5.9054-4.5212 10.689 1.2313 19.701 12.303 289.47 12.508 294.45-0.040936 0.85986-0.30184 9.6542 5.6894 16.009 1.2813 1.3589 2.7525 2.4972 4.4023 3.4201-3.4783-0.88739-6.3401-2.5061-8.5499-4.8443l6.389e-4 -0.0044585zm278.8 68.64l-124.71 6.0467 0.1942-2.6493 124.57-5.0666-0.052734 1.6692h-0.0014648zm-77.326-57.43l-29.227 1.0259 28.958 1.0165-0.38966 2.9615-25.674 0.99789 25.412 0.98776-0.39767 3.0236-22.545 0.96469 22.292 0.9538-0.39728 3.0209-19.17 1.0013 18.908 0.98764-0.13043 0.99191-0.26314 1.9998-16.505 0.99655 16.245 0.98096c-0.14424 1.0267-0.21529 2.0213-0.24178 3.0194l-13.582 0.97562 13.587 0.97604c0.033112 1.0184 0.11301 2.0368 0.24574 3.0502l-10.654 0.94974 10.975 0.97836c0.14734 0.72961 0.32204 1.455 0.53224 2.1733 0.092056 0.31451 0.19167 0.62747 0.29715 0.939l-7.6879 0.88528 8.4093 0.96835c0.49458 1.1218 1.0899 2.2023 1.7859 3.2204l-5.6441 0.7872 7.0173 0.97876c1.7179 1.9529 3.878 3.505 6.2219 4.5728 2.5194 1.1437 5.2528 1.7786 7.9159 2.054l49.789 5.7375-114.32 4.6472-21.727-6.1052c-1.8236-0.51151-3.6478-1.0201-5.478-1.5077l-2.7428-0.74039c-0.84825-0.21835-1.6868-0.54019-2.5054-0.90878-1.6261-0.74551-3.1753-1.6838-4.3845-2.9164-1.223-1.216-2.0275-2.7573-2.1767-4.4264-0.080627-0.83951 6.1e-5 -1.6754 0.18678-2.5515l0.62115-2.7598 1.3087-5.5227 2.659-11.048 5.3284-22.104c-2.1868 7.2588-4.3119 14.535-6.3773 21.828-1.0311 3.6472-2.0814 7.2895-3.066 10.952l-1.4669 5.4993-0.70467 2.7665c-0.23717 0.96823-0.37932 2.0337-0.30478 3.0849 0.12001 2.1266 1.1362 4.1655 2.5585 5.6491 1.4163 1.5109 3.1293 2.6295 4.9326 3.4725 0.90179 0.42044 1.8335 0.79315 2.8161 1.0623l2.7327 0.77652c1.8202 0.52374 3.6461 1.0263 5.4729 1.526l21.274 5.8097-0.19176 2.6156-35.286-9.7395c-0.11324-0.037537-11.301-3.8515-9.2379-11.949 4.3042-16.9 9.9279-38.931 11.491-45.052h82.959l-0.45587 3.4659 9.151e-4 -2.137e-4zm174.36-8.5592c-3.5255 3.6453-9.9839 3.0087-10.049 3.0031l-0.055908-0.006073h-163.51l-0.019486-0.002594-3.662e-4 0.002594h-84.552l-0.28845-0.07373s-0.0070496 0.027405-0.01886 0.07373h-96.146c-6.7479 0-11.966-1.9005-15.508-5.6489-5.5516-5.8754-5.1372-14.434-5.1324-14.52l0.0030746-0.05188-0.0023746-0.051148c-0.02417-0.58997-0.55899-13.622-1.3956-33.905l375.2 12.852c1.8793 15.427 3.2146 26.222 3.6235 29.167 0.55869 4.0275-0.16376 7.1094-2.1483 9.1607h0.0051766z"/>
	<path d="m225.05 172.07l0.032761 0.60115 121.71 11.317-6.2153-60.2-0.056671-0.5442-119.11-16.766 3.6408 65.591 0.0050811-2.746e-4zm120.18 10.369l-118.81-11.048-3.512-63.291 116.35 16.376 5.9841 57.963-0.0054627-1.53e-5z"/>
	<polygon points="338.31 115.7 335.93 92.855 65.202 44.371 66.718 73.223"/>
	<polygon points="142.86 164.24 217.6 171.26 216.85 149.63 141.65 141.24"/>
	<polygon points="138.08 163.78 136.88 140.88 69.845 133.39 71.145 157.49"/>
	<path d="m74.652 236.04l279.98 14.522 0.82611 0.042343-7.1739-61.132-277.45-26.114 3.8176 72.681-0.0030899 3.357e-4zm279.22 13.083l-277.9-14.414-3.666-69.807 274.72 25.857 6.8493 58.365-0.0032577-6.713e-4z"/>
	<path d="m228.59 239.28l116.57 6.2391-5.4145-52.041-0.058685-0.56979-114.16-10.742 3.033 56.487 0.034103 0.62645-4.883e-4 9.15e-5zm109.83-45.088l5.1852 49.843-113.68-6.0835-2.9129-54.243 111.41 10.483 0.0010376 3.358e-4z"/>
	<path d="m221.3 238.91l0.77151 0.039627-2.8188-57.368-139.62-13.144 3.4253 63.302 138.24 7.1708 0.0020066-2.747e-4zm-3.383-56.05l2.6837 54.615-136.21-7.0654-3.2697-60.428 136.8 12.878-6.866e-4 -3.05e-5z"/>
	<path d="m218.26 105.94l-151.71-22.437 2.3887 45.958 150.43 16.84-1.114-40.361 0.0052872-1.53e-5zm-147.98 22.264l-2.2386-43.069 148.85 22.016 1.0376 37.582-147.65-16.53 9.46e-4 6.714e-4z"/>
	<path d="m166.99 382.21c3.212 1.831e-4 6.4217-0.078491 9.6326-0.1174l9.6292-0.23685 9.6259-0.34961c3.2074-0.15421 6.4159-0.27289 9.6219-0.46667 6.4137-0.34869 12.825-0.77002 19.23-1.3981-6.4314-0.23901-12.857-0.27121-19.28-0.23068-3.2121 7.019e-4 -6.4219 0.076538-9.6326 0.11703l-9.6292 0.23404-9.6259 0.34686c-3.2074 0.15567-6.4159 0.27161-9.6219 0.46637-6.4137 0.34796-12.825 0.77039-19.23 1.4013 6.4315 0.24152 12.857 0.27487 19.28 0.2338v-3.05e-5z"/>
	<path d="m380.64 269.62l-21.831-186.03-0.089447-0.76636-328.97-61.466-1.3087-0.24429 12.214 232.55 339.99 15.955-0.0044441 0.0016728zm-23.822-185.02l21.452 182.81-335.62-15.751-11.975-228 326.14 60.938 0.0019951-6.867e-4z"/>
	<path d="m218.63 51.052c0.25105 0.13206 0.52461 0.1979 0.79613 0.1979 0.28304 0 0.56548-0.071274 0.82001-0.21389 0.69099-0.38691 1.114-1.2993 1.0294-2.2188-0.085236-0.91914-0.6692-1.738-1.4196-1.9916-0.54579-0.18462-1.1378-0.077423-1.5923 0.28181-0.56345 0.44596-0.84045 1.1965-0.76065 2.0598 0.080551 0.86352 0.49123 1.5504 1.127 1.8847l-1.52e-5 6.86e-5zm0.066849-3.3962c0.1842-0.1457 0.39908-0.22074 0.61879-0.22074 0.1057 0 0.21214 0.017399 0.3165 0.052544 0.48985 0.16547 0.8882 0.75169 0.94752 1.3937 0.059387 0.64314-0.22444 1.2924-0.67465 1.5449-0.29744 0.16581-0.64331 0.16826-0.95027 0.0071945-0.42227-0.22214-0.69792-0.70728-0.75594-1.331-0.057953-0.62302 0.12352-1.1505 0.498-1.4466l4.58e-5 -4.18e-5z"/>
</svg>
