<?xml version="1.0" encoding="utf-8"?>
<svg enable-background="new 0 0 400 400" version="1.1" viewBox="0 0 400 400" xml:space="preserve" width="400px" height="400px" xmlns="http://www.w3.org/2000/svg">
<style type="text/css">
	.dark-shade{fill:#bbbfc3;}
	.clear{fill:#fff;}
	svg{fill:#253746;}
	.shade{fill:#dfe1e3;}
</style>
<path class="dark-shade" d="m8.2499 243.11l-1.7654 0.84418s-4.5059 4.2831 1.6197 8.9744c6.1257 4.6913 143.33 96.004 143.33 96.004s14.007 8.064 20.675 3.8567c6.6687-4.2073 113.18-67.78 113.18-67.78s1.3157 5.5074 6.6664 2.7448c9.4901-4.8998 27.902-13.847 26.34-13.148 0 0 5.2224-2.9625 0.87747-5.9603 8.9928-5.4521 70.261-29.517 70.261-29.517s9.9467-5.4941 2.7118-11.636"/>
<path class="clear" d="m325.65 84.722l8.9574-10.898s2.6937-3.5764 1.1615-7.0784c-1.8386-3.6294-5.1542-7.7084-9.5194-11.419l-1.3964-1.1388c-4.4325-3.4723-9.0054-5.8722-12.871-6.9512-3.7367-0.81979-6.7241 2.5157-6.7241 2.5157l-9.3994 11.435-1.7411 2.078c4.483-0.37087 11.556 2.6025 18.169 8.0267l0.10324 0.08477c6.4617 5.2997 10.711 11.484 11.377 15.93l1.8815-2.5854 6.104e-4 7.324e-4z"/>
<path d="m323.55 88.212l-0.12677-0.84743c-0.67261-4.4883-5.0893-10.655-11.253-15.711l-0.10355-0.084915c-6.3451-5.2043-13.384-8.3251-17.918-7.9481l-0.8371 0.069141 2.28-2.7216 9.3981-11.433c0.13779-0.15371 3.1808-3.491 7.0707-2.6354 4.0664 1.1347 8.6807 3.6252 13.012 7.0178l1.4019 1.1432c4.2701 3.629 7.6814 7.723 9.6107 11.532 1.6041 3.6653-1.079 7.2948-1.1942 7.4473l-8.9601 10.902-2.3795 3.2705-8.545e-4 -2.748e-4zm-28.654-25.322c4.7054 0.0014 11.496 3.1182 17.615 8.1373l0.10355 0.084915c5.9338 4.8667 10.287 10.782 11.347 15.341l1.4183-1.9482 8.9574-10.898c0.016418-0.022232 2.5412-3.4468 1.1112-6.7155-1.8803-3.7102-5.2305-7.727-9.4261-11.293l-1.3909-1.1344c-4.2543-3.3328-8.7821-5.7795-12.743-6.8853-3.4756-0.75905-6.3383 2.38-6.3671 2.4118l-10.625 12.898 9.156e-4 4.578e-4z"/>
<path class="clear" d="m288.68 69.073l0.037842-0.0017548c4.6405 0.040955 11.459 3.067 17.861 8.3177 6.3939 5.2441 10.709 11.37 11.659 15.908l-0.30573 0.372-0.81741 1.4155c2.3504 0.52381 5.6165-4.2502 5.6165-4.2502 3.1132-3.7876-1.5916-12.787-10.509-20.1l-0.10318-0.084709c-8.9174-7.3135-18.669-10.172-21.783-6.3842 0 0-4.052 4.1293-3.0801 6.3303l1.4236-1.5214-7.936e-4 -4.502e-4z"/>
<path class="clear" d="m270.38 92.368l0.037842-0.0018234c4.6406 0.041023 11.459 3.0671 17.861 8.3177 6.3939 5.244 10.709 11.37 11.659 15.908l-0.30573 0.37199-0.81735 1.4155c2.3504 0.52381 5.6164-4.2502 5.6164-4.2502 3.1133-3.7877-1.5916-12.787-10.509-20.1l-0.10321-0.084633c-8.9174-7.3135-18.669-10.172-21.783-6.3842 0 0-4.052 4.1293-3.0801 6.3302l1.4236-1.5213-8.546e-4 -5.19e-4z"/>
<path class="shade" d="m398.75 224.34s-0.31674-2.6019-3.4651-2.3356l-0.52197 0.36581c-6.2844 4.3414-23.326 14.085-46.168 11.043-29.12-3.8784-46.592 25.487-46.592 25.487l-12.48 6.802s-2.5502-0.4917-8.4434-2.7771c-27.456-6.3717-29.828 5.9481-47.854 26.448-18.026 20.5-71.554 44.048-71.554 44.048l-145.6-97.788-0.77941-1.7967-0.10094-0.69658c-5.9774 0.64182-6.6045 2.318-6.6045 2.318s-3.4111 4.6513-0.27202 7.0671c3.1392 2.4154 145.82 98.767 145.82 98.767s7.2494 5.787 15.944 0.90823c9.8881-5.5489 118.33-66.118 118.33-66.118s-0.18491 3.6937 6.1013 1.4775 18.628-8.9571 18.628-8.9571 7.6801-3.3415 4.8027-6.4932c8.8748-4.4324 76.407-30.721 76.407-30.721s5.4772-1.6392 4.3962-7.0411l0.008358-0.0072632z"/>
<path class="shade" d="m293.28 94.419l0.10318 0.084633c6.549 5.3713 10.826 11.652 11.403 16.109l1.3274-1.715 11.986-14.583 0.30563-0.37179c-0.95065-4.5373-5.2653-10.663-11.659-15.908-6.4019-5.2506-13.221-8.2764-17.861-8.3177l-0.03775 0.0016861-12.223 14.871-1.5087 1.8001c4.4834-0.36884 11.554 2.6046 18.165 8.0274l3.051e-4 5.723e-4z"/>
<path class="shade" d="m206.24 187.92l15.039-5.8154-2.783 15.866 14.023-8.2125-3.108 8.7572-3.1796 8.4383 73.287-89.158 0.47348-0.57683-0.054199-0.26022c-1.014-4.8431-5.5542-11.059-11.849-16.222-6.2973-5.1646-13.275-8.4003-18.283-8.4409l-0.24271 0.013534-73.614 89.557 15.63-9.2854-5.3354 15.338-0.0033417 7.173e-4z"/>
<path class="clear" d="m226.8 204.1l34.694-42.209c43.59 13.759 112.57 34.743 128.73 37.523l2.8161 0.015976-0.65781 3.8786-3.8571 3.142 3.8571-0.37172v4.4325l-3.0507 2.2163 4.992 0.55403 1.9413 7.2029s-19.69 16.899-48.81 13.021c-29.12-3.8778-46.592 25.487-46.592 25.487l-12.48 6.802s-2.5502-0.49161-8.4434-2.7771c-27.456-6.3716-29.828 5.9482-47.854 26.448-18.026 20.5-71.554 44.048-71.554 44.048l-145.6-97.795-3.6054-8.3111 2.2187-1.6622-3.8826-2.2163-3.8826-9.6962 3.8826-1.3852-4.16-1.9392-3.6052-13.298s56.575-3.0473 79.041-19.115c22.464-16.068 37.44-17.453 57.684-10.25 8.3167 5.2351 0 0 0 0s19.135-21.885 61.29-13.021c3.6311 0.80608 12.545 0.43953 19.269-1.6329l-21.933 26.67-16.22 43.868s-9.6821 13.093 3.0751 1.46l42.694-21.093 0.0056542 0.0039063z"/>
<path d="m219.49 209.3l21.819 10.756 17.116 8.343 17.193 8.1846 0.038605 0.01831 0.03418 0.012253c1.2466 0.44989 2.5087 0.98688 3.7393 1.5372 1.244 0.53677 2.4515 1.1458 3.653 1.7652 1.1894 0.63922 2.3608 1.3146 3.462 2.0937 1.1158 0.76192 2.1419 1.6507 2.9755 2.7544-0.52817-1.2924-1.4908-2.3677-2.4744-3.3604-1.0218-0.96443-2.141-1.8181-3.3102-2.5842-2.3444-1.5398-4.8318-2.7707-7.4487-3.8194l0.072601 0.030502-17.142-8.2778-17.178-8.2045-17.18-8.2019-3.7604-1.8276-1.6097 0.78082 2.291e-4 -7.477e-4z"/>
<path d="m16.349 214.02c12.149 8.349 24.306 16.687 36.401 25.113l36.27 25.299 36.176 25.432c12.058 8.4782 24.074 17.017 36.082 25.567l-0.22552-0.056366c2.7371-0.38953 5.4658-1.0789 8.1307-1.8956 2.6703-0.81604 5.3-1.7827 7.8474-2.9372 2.5497-1.1456 5.0493-2.4191 7.4294-3.8941 2.414-1.4233 4.6704-3.0919 6.8847-4.81-2.1764 1.7643-4.401 3.4843-6.79 4.9626-2.3552 1.5299-4.8363 2.8619-7.3747 4.0682-2.5359 1.215-5.1608 2.2443-7.8347 3.1245-2.6814 0.86932-5.4016 1.5856-8.2141 2.0234l-0.11778 0.018433-0.10803-0.074829c-12.116-8.3963-24.224-16.804-36.29-25.272l-36.195-25.406-36.102-25.539c-12.029-8.5195-23.996-17.128-35.97-25.725l0.0013581 4.273e-4z"/>
<path d="m18.013 225.65c12.042 7.7304 24.078 15.47 36.061 23.29 12.014 7.773 23.949 15.666 35.922 23.5 11.98 7.8236 23.877 15.774 35.82 23.655 11.935 7.8929 23.819 15.862 35.704 23.83l-0.17935-0.032044c3.1335-0.72855 6.2388-1.6383 9.2901-2.6846 3.0514-1.0499 6.0501-2.2666 8.9274-3.7393-2.8412 1.5408-5.8161 2.8317-8.8494 3.9567-3.0362 1.1223-6.1194 2.1065-9.2634 2.9169l-0.093155 0.023926-0.086609-0.05603c-12.011-7.777-24.024-15.553-35.986-23.404-11.954-7.8636-23.954-15.658-35.87-23.578-11.923-7.9102-23.885-15.762-35.768-23.734-11.913-7.9248-23.774-15.93-35.629-23.944l-2.135e-4 -6.258e-4z"/>
<path d="m18.013 233.14c12.047 7.6418 24.108 15.26 36.108 22.975 12.025 7.6751 24.011 15.411 35.991 23.155l17.977 11.607 17.933 11.673 35.828 23.406-0.30809-0.041992c6.4666-2.0949 12.771-4.7544 18.882-7.7623 3.0518-1.5188 6.0208-3.198 8.9174-4.9966 2.879-1.8279 5.6357-3.8443 8.2434-6.0489-2.5598 2.2585-5.2783 4.3373-8.1254 6.2307-2.8643 1.8637-5.8077 3.6115-8.8374 5.2001-3.0299 1.5865-6.1205 3.0592-9.2688 4.3986-3.1504 1.3392-6.3324 2.5863-9.5921 3.6745l-0.15985 0.053467-0.14839-0.095459-35.991-23.155-17.976-11.608-17.933-11.674c-11.959-7.7763-23.914-15.561-35.828-23.406-11.941-7.8056-23.818-15.707-35.711-23.586h-0.0016479z"/>
<path d="m292.02 269.56c1.6939-0.7095 3.3403-1.4836 4.991-2.2392 1.6417-0.77518 3.279-1.5518 4.8941-2.3751 1.6164-0.81931 3.2299-1.6475 4.8289-2.5107l4.8379-2.571c-1.3914 1.1975-2.8492 2.3246-4.3961 3.3147-1.5264 1.0251-3.1413 1.908-4.7719 2.7561-3.2934 1.6173-6.7467 3.0066-10.383 3.6252l-3.051e-4 -6.1e-5z"/>
<path d="m240.43 252.21c3.5745-2.69 7.6887-4.6799 12.022-5.9039 4.3379-1.2162 8.8521-1.7658 13.356-1.7889 4.5059 0.020767 9.0034 0.48308 13.421 1.3356 4.4268 0.83864 8.7567 2.0591 12.979 3.7054l-0.68781 0.33286c0.84235-2.6649 1.9623-5.1708 3.2654-7.6045 1.3134-2.4223 2.8697-4.7145 4.6448-6.822 1.7815-2.0977 3.7895-4.0279 6.0812-5.5583 2.2715-1.5533 4.7977-2.725 7.4394-3.4221-2.584 0.88445-5.027 2.1384-7.1861 3.7776-2.1625 1.6287-4.0959 3.5455-5.7757 5.6607-1.6859 2.1124-3.1217 4.4146-4.3702 6.808-1.2501 2.3845-2.3367 4.8955-3.114 7.4407l-0.16315 0.53426-0.52487-0.20125c-4.1186-1.5782-8.4541-2.702-12.794-3.6006-4.3528-0.88104-8.7841-1.3764-13.22-1.4371-4.4319-0.041779-8.8867 0.33546-13.194 1.4291-2.1545 0.53606-4.2594 1.2596-6.3101 2.1228-2.0457 0.8812-3.9855 1.9873-5.8699 3.1917l9.155e-4 1.53e-5z"/>
<path d="m251.29 252.94c3.076-1.9163 6.5819-3.0939 10.151-3.7696 3.5816-0.65628 7.24-0.81659 10.873-0.685 3.6388 0.11002 7.2534 0.59814 10.825 1.2603 3.5742 0.68207 7.0967 1.5391 10.579 2.6792l-0.67581 0.28328c1.6286-3.3133 3.6213-6.3688 5.8052-9.3027 2.2037-2.9114 4.6389-5.6666 7.4001-8.0733 2.7631-2.3979 5.825-4.4751 9.1681-5.9755 3.3549-1.4612 6.98-2.3087 10.615-2.3186-1.8083 0.15819-3.5995 0.43083-5.3417 0.9041-1.7341 0.49527-3.4256 1.1248-5.0379 1.9213-3.2377 1.5681-6.1781 3.6908-8.8194 6.1208-2.63 2.444-5.0368 5.1317-7.1654 8.0307-2.1284 2.8892-4.0392 5.9777-5.6343 9.1575l-0.21957 0.4375-0.45679-0.15413c-3.3779-1.1394-6.8867-2.0295-10.405-2.7321-3.5273-0.68634-7.0934-1.1806-10.677-1.4126-3.5826-0.23183-7.192-0.15282-10.745 0.37451-3.5561 0.49876-7.0441 1.5497-10.237 3.2551l1.07e-4 -6.408e-4z"/>
<path d="m314.62 234.24c-2.2839 1.1161-4.4005 2.5074-6.3207 4.1423-1.8747 1.6857-3.6128 3.5098-5.1906 5.4715-1.5513 1.9827-2.9644 4.0698-4.2435 6.2357-1.2902 2.152-2.4857 4.3913-3.4673 6.6748l-0.17966 0.41772-0.44147-0.12866c-3.893-1.1349-7.9441-1.8532-11.977-2.4288-4.0453-0.54842-8.1288-0.80266-12.208-0.7348-4.0774 0.11758-8.1434 0.56462-12.125 1.4759-3.9724 0.96568-7.7794 2.4966-11.376 4.4994 3.4464-2.2354 7.2314-3.9842 11.221-5.0993 4.0031-1.0284 8.114-1.6686 12.252-1.8311 4.1366-0.11113 8.2761 0.10504 12.378 0.6189 4.1062 0.51637 8.1501 1.3538 12.141 2.5348l-0.62076 0.28882c1.0442-2.3633 2.2675-4.5931 3.6037-6.7747 1.3634-2.1599 2.8627-4.233 4.4971-6.1959 1.6633-1.939 3.4719-3.757 5.4676-5.351 2.0269-1.5553 4.2307-2.8732 6.59-3.8162l-0.0015562 6.103e-4z"/>
<path d="m260.95 259.17c1.0807-1.0966 2.5842-1.6735 4.0577-2.0605 1.4904-0.38327 3.02-0.59232 4.55-0.69357 3.0617-0.19742 6.1324-0.12769 9.1794 0.12619 3.0479 0.25534 6.0806 0.63959 9.0994 1.1011 3.0226 0.45419 6.0098 1.0655 9.0001 1.7277l-0.56647 0.2746c1.6479-3.2972 3.5588-6.4241 5.7284-9.3852 2.1598-2.9488 4.6224-5.7516 7.6227-7.8502-2.799 2.3546-5.0128 5.2603-7.0494 8.2518-1.0112 1.504-1.9457 3.0585-2.8375 4.6353-0.90201 1.567-1.7759 3.1663-2.5537 4.7832l-0.17282 0.35922-0.39389-0.084656c-2.958-0.63593-5.9606-1.1308-8.9494-1.6426-2.9926-0.49954-5.9988-0.92249-9.0147-1.2167-3.014-0.29004-6.0399-0.54675-9.0627-0.45819-1.5079 0.054291-3.0196 0.14081-4.502 0.41827-1.4692 0.28799-2.9541 0.73761-4.1359 1.715l8.546e-4 -5.798e-4z"/>
<path d="m385.47 208.62c-1.2352 1.2128-2.8151 1.9957-4.3538 2.7509-1.5598 0.73581-3.1782 1.3298-4.7976 1.9104-1.639 0.52332-3.2826 1.0294-4.9489 1.45-1.6658 0.42239-3.344 0.79002-5.0355 1.0915l4.9201-1.5018c1.6363-0.5036 3.2721-1.0028 4.8864-1.5638 1.6235-0.533 3.2239-1.1295 4.8035-1.7742 0.78809-0.32535 1.5724-0.66409 2.3306-1.0529 0.76486-0.37543 1.5222-0.77824 2.1952-1.31l-3.04e-5 -1.53e-5z"/>
<path d="m388.25 215.82c-1.7883 1.2517-3.7322 2.2673-5.706 3.1996-1.9787 0.92728-4.0218 1.71-6.0823 2.4375-2.0836 0.65619-4.1734 1.3026-6.3089 1.7641-1.0607 0.25887-2.1394 0.43649-3.2086 0.65063-1.0767 0.17657-2.1575 0.32747-3.2378 0.46687 2.1252-0.49077 4.2487-0.95477 6.3437-1.5312 2.1027-0.54433 4.1787-1.1821 6.2343-1.8747 2.0611-0.67879 4.0851-1.4631 6.087-2.3008 1.9981-0.84615 3.9728-1.7564 5.8786-2.8119l1.221e-4 -3.05e-5z"/>
<path d="m395.63 221.35l-0.33151 1.0573c1.8004 0.56383 2.8286 1.2802 2.8947 2.0177 0.11041 1.2299-2.1764 2.7178-2.9326 3.1172-0.71396 0.28079-71.487 28.132-80.287 32.525l-0.6554 0.32785 0.49396 0.54108c0.7312 0.80133 1.0303 1.5285 0.88834 2.1616-0.23947 1.067-1.6444 1.6556-1.7149 1.6887-0.12238 0.067108-12.375 6.7448-18.546 8.9204-2.8632 1.0091-4.1664 0.70935-4.7568 0.27917-0.6218-0.45398-0.60663-1.1812-0.60663-1.2066l0.049805-0.98856-0.86993 0.47504c-1.0941 0.5979-109.58 59.854-119.43 65.208-8.5101 4.6284-13.991 0.24887-14.263 0.028107-0.06662-0.044983-0.43904-0.29645-1.0879-0.73474l4.535-1.7348-5.6295 0.99564c-0.92714-0.6261-2.1303-1.4387-3.5835-2.4203l4.5136-1.7265-5.6028 0.99078c-1.1962-0.80792-2.5285-1.7079-3.9902-2.6952l4.3802-1.6756-5.4371 0.96167c-1.2099-0.81726-2.4962-1.6862-3.8546-2.6038l4.5422-1.7376-5.6383 0.99713c-1.2361-0.83496-2.5272-1.7073-3.8668-2.6123l4.613-1.7646-5.7259 1.0128c-1.2807-0.86526-2.6043-1.7596-3.9655-2.6793l4.4789-1.7133-5.5594 0.98328c-1.2468-0.84244-2.5256-1.7065-3.8302-2.588l4.6402-1.775-5.7432 1.0159 0.0047073 0.016937c-1.1109-0.7507-2.2388-1.5128-3.3858-2.2879l4.4107-1.6871-5.4746 0.96814c-1.3172-0.89011-2.6558-1.7948-4.0137-2.7124l4.2756-1.6357-5.3069 0.93866c-1.2769-0.86307-2.5715-1.7379-3.8785-2.6213l4.4361-1.6971-5.506 0.97388c-1.2594-0.8512-2.5315-1.711-3.8138-2.5777l4.6424-1.7758-5.7432 1.0157 0.0054855 0.019775c-1.3175-0.8905-2.6451-1.7881-3.9814-2.6914l4.5064-1.7239-5.5932 0.98929c-1.2677-0.85696-2.542-1.7186-3.8222-2.5841l4.6661-1.7849-5.7432 1.0158 0.013969 0.050324c-1.3607-0.92007-2.7269-1.8438-4.097-2.7701l4.3807-1.6758-5.4368 0.96158c-1.3375-0.90442-2.6778-1.8107-4.0195-2.7181l4.2436-1.6234-5.2666 0.93155c-1.2949-0.87567-2.5902-1.7517-3.8848-2.6274l4.4021-1.684-5.4632 0.96628c-1.3088-0.88525-2.6161-1.7694-3.9203-2.6517l4.429-1.6942-5.4966 0.97208c-1.3298-0.89957-2.6557-1.7966-3.9762-2.6901l4.5908-1.7562-5.6971 1.0077c-1.1745-0.79474-2.3441-1.5861-3.5078-2.3735l4.2602-1.6296-5.2866 0.93494c-1.2938-0.87555-2.5788-1.7452-3.8548-2.6088l4.3149-1.6506-5.3543 0.94699c-1.2442-0.84216-2.4777-1.6771-3.7005-2.505l4.6176-1.7664-5.7299 1.0134c-1.3583-0.91962-2.7014-1.829-4.0274-2.7269l4.2107-1.6107-5.2247 0.92401c-1.258-0.85193-2.5011-1.6938-3.7243-2.5225l4.5116-1.7259-5.5979 0.99002c-1.28-0.86719-2.5387-1.72-3.774-2.5572l4.5936-1.7573-5.6992 1.0079c-1.3323-0.90295-2.6359-1.7866-3.9073-2.6487l4.401-1.6836-5.4598 0.96562c-1.2596-0.85414-2.4852-1.6855-3.6753-2.4929l4.6978-1.7971-5.7432 1.0158 0.024639 0.088715c-1.4268-0.96817-2.8006-1.9008-4.1107-2.7905l4.2826-1.6383-5.3116 0.93933c-1.3009-0.88371-2.5344-1.722-3.699-2.5142l4.5734-1.7495-5.6709 1.0029c-1.4722-1.0017-2.8182-1.9184-4.0236-2.7406l4.1479-1.5867-5.1406 0.90916c-1.5069-1.0289-2.758-1.8856-3.7139-2.5437l4.4173-1.6898-5.4645 0.96643c-0.60612-0.42062-0.99094-0.69225-1.1219-0.79295-0.79741-0.61357-1.1938-1.2375-1.1787-1.8532 0.021722-0.8662 0.83147-1.5642 1.0817-1.7601l5.3137-1.3148-0.26654-1.0756-5.422 1.3418-0.18042 0.080643c-0.064439 0.044388-1.5903 1.106-1.6352 2.6924-0.027678 0.99234 0.51406 1.923 1.6103 2.7665 0.36722 0.28255 2.5924 1.8157 6.2398 4.3056l0.014225 0.051315 0.039031-0.014938c27.399 18.703 134.41 90.969 139.51 94.412 0.041138 0.033569 2.8194 2.279 7.3987 2.279 2.2793 0 5.0044-0.55621 8.0607-2.2184 9.4374-5.1316 109.47-59.772 118.75-64.838 0.13437 0.4064 0.39441 0.88034 0.89914 1.2558 1.1679 0.87067 3.1168 0.83224 5.8002-0.11304 6.2572-2.206 18.586-8.9264 18.653-8.9664 0.08017-0.031921 1.95-0.8067 2.3216-2.4391 0.18848-0.83224-0.042297-1.7017-0.68689-2.5912 11.04-5.2144 78.874-31.908 79.621-32.207 0.38678-0.20186 3.7721-2.0356 3.5772-4.2215-0.11371-1.2656-1.313-2.2395-3.6681-2.977l1.251e-4 -0.0022892z"/>
<path d="m282.5 85.042c-0.35101 0-0.68903-0.11955-0.96201-0.34464-0.31308-0.2565-0.50809-0.6212-0.54816-1.0264-0.0401-0.40475 0.080139-0.80021 0.33798-1.1129l3.042-3.7026c0.53189-0.64658 1.4917-0.74287 2.1428-0.21043 0.64783 0.53187 0.74313 1.4917 0.21127 2.1399v5.569e-4l-3.043 3.7026c-0.25784 0.31323-0.62292 0.50697-1.0281 0.54701-0.050903 0.0048447-0.10178 0.0070114-0.15274 0.0070114l-3.05e-5 -4.57e-5zm3.0474-5.6337c-0.12027 0-0.23831 0.051399-0.32065 0.15041l-3.042 3.7026c-0.069305 0.084427-0.10181 0.19101-0.091003 0.30082 0.010803 0.11037 0.063965 0.20939 0.14841 0.27866 0.084503 0.070335 0.19397 0.10553 0.30228 0.090881 0.1105-0.010239 0.20905-0.062759 0.27841-0.14719l3.043-3.702c0.1441-0.17586 0.11917-0.43665-0.057434-0.58109-0.076935-0.062271-0.16895-0.093124-0.26105-0.093124l3.05e-5 -2.29e-5z"/>
<path d="m286.34 86.267c-0.34009 0-0.6814-0.11253-0.96414-0.34464-0.6478-0.53188-0.74207-1.4923-0.21008-2.14l3.0429-3.702c0.25677-0.31274 0.62189-0.50705 1.0281-0.54709 0.41061-0.040527 0.8017 0.080643 1.1147 0.33659 0.31308 0.25755 0.50696 0.62225 0.54706 1.0269 0.04007 0.4053-0.08017 0.80081-0.33688 1.1135l-3.043 3.7021c-0.30118 0.3652-0.73782 0.55459-1.1787 0.55459v-4.57e-5zm3.0474-5.6325c-0.014099 0-0.028137 5.569e-4 -0.042236 0.0016098-0.11047 0.010796-0.20905 0.063316-0.27841 0.14719l-3.043 3.7026c-0.14514 0.17587-0.11914 0.43616 0.056366 0.58061 0.17551 0.14339 0.43542 0.11794 0.5806-0.057365l3.0442-3.7021c0.068237-0.084358 0.10074-0.1915 0.089905-0.30187-0.010864-0.11044-0.062805-0.20944-0.14731-0.27866-0.0737-0.060089-0.1647-0.092003-0.26004-0.092003l-6.11e-5 2.29e-5z"/>
<path d="m289.72 88.039c-0.35208 0-0.68893-0.11962-0.96307-0.34471-0.31308-0.25644-0.50803-0.62114-0.5481-1.0264-0.039032-0.40475 0.081207-0.80028 0.33792-1.1135l3.043-3.7021c0.25677-0.31274 0.62189-0.50697 1.0281-0.54701 0.41162-0.039474 0.80167 0.080643 1.1147 0.33651 0.64777 0.53355 0.74207 1.4934 0.21017 2.1405l-3.043 3.702c-0.25784 0.31323-0.62292 0.50748-1.0281 0.54751-0.050903 0.0049133-0.10181 0.0070877-0.15164 0.0070877l-3.06e-5 9.16e-5zm3.0485-5.6326c-0.01413 0-0.028168 4.883e-4 -0.042267 0.0016098-0.11047 0.010803-0.20905 0.063255-0.27838 0.14712l-3.0431 3.7026c-0.070404 0.084419-0.10184 0.19206-0.090942 0.30243 0.010803 0.10987 0.062805 0.20889 0.14725 0.27761 0.084503 0.069771 0.19284 0.10441 0.30228 0.090874 0.1105-0.010796 0.20914-0.063316 0.27841-0.14774l3.0441-3.702c0.14404-0.17587 0.1181-0.43608-0.057404-0.5806-0.0737-0.060028-0.16467-0.091927-0.26001-0.091927v-3.81e-5z"/>
<path d="m292.88 90.083c-0.35205 0-0.68903-0.11955-0.96301-0.34464-0.64786-0.53027-0.74313-1.4901-0.21127-2.1394l3.043-3.7026c0.25784-0.31331 0.62296-0.5081 1.0291-0.54758 0.41275-0.037369 0.8028 0.080574 1.1137 0.33765 0.31305 0.25643 0.50809 0.62113 0.54816 1.0259 0.04007 0.40524-0.08017 0.8008-0.33694 1.114l-3.043 3.7021c-0.25784 0.3133-0.62292 0.50754-1.0281 0.54758-0.050964 0.004837-0.10187 0.0070114-0.1517 0.0070114l3.06e-5 -7.7e-6zm3.0474-5.6331c-0.01413 0-0.028168 5.646e-4 -0.041229 0.0021744-0.11154 0.010307-0.21017 0.063324-0.27945 0.14775l-3.043 3.702c-0.1441 0.17529-0.1192 0.43616 0.057434 0.58004 0.084503 0.070328 0.19604 0.10715 0.30219 0.090874 0.11057-0.010796 0.20911-0.06324 0.27847-0.14767l3.043-3.7021c0.069336-0.084358 0.10187-0.1915 0.091034-0.30187-0.010803-0.11044-0.063934-0.20889-0.14838-0.27818-0.0737-0.061142-0.1647-0.09304-0.26001-0.09304v-1.52e-5z"/>
<path d="m296.04 92.121c-0.34012 0-0.6814-0.11255-0.96414-0.34465-0.31311-0.25706-0.50803-0.6217-0.5481-1.0264-0.0401-0.40531 0.080139-0.80081 0.33688-1.1135l3.043-3.7026c0.53186-0.64715 1.4917-0.7424 2.1428-0.2105 0.64783 0.53187 0.74319 1.4918 0.2113 2.14v4.883e-4l-3.0431 3.7026c-0.30115 0.36575-0.73877 0.55459-1.1787 0.55459v1.52e-5zm3.0452-5.6342c-0.12027 0-0.23831 0.051392-0.31955 0.15041l-3.043 3.7026c-0.069366 0.084427-0.10184 0.191-0.091034 0.30138 0.010864 0.11037 0.063934 0.20937 0.14844 0.27922 0.17334 0.14171 0.43979 0.11521 0.58063-0.057358l3.043-3.7021c0.1441-0.17587 0.11917-0.43665-0.057434-0.5811-0.076874-0.062271-0.16898-0.093048-0.26105-0.093048v2.29e-5z"/>
<path d="m305.64 104.02c-0.33905 0-0.6814-0.11311-0.96414-0.34415-0.6478-0.53188-0.74313-1.4917-0.21121-2.1399l3.043-3.7026c0.25784-0.31323 0.62292-0.50803 1.0291-0.54758 0.40842-0.0373 0.80167 0.080643 1.1136 0.33764 0.31308 0.2565 0.50809 0.6212 0.54819 1.0264 0.04007 0.40474-0.0802 0.8002-0.33801 1.1129l-3.042 3.7026c-0.30115 0.36519-0.73779 0.55459-1.1787 0.55459l3.05e-5 3.05e-5zm3.0463-5.6331c-0.014038 0-0.027008 5.569e-4 -0.041138 0.0021744-0.1116 0.010231-0.21017 0.063316-0.27954 0.14767l-3.0429 3.7021c-0.14413 0.17531-0.1192 0.43609 0.057342 0.58054 0.17767 0.14452 0.43665 0.118 0.58179-0.057289l3.042-3.7026c0.069336-0.084351 0.10187-0.19101 0.091064-0.30081-0.010895-0.11037-0.063965-0.20938-0.1485-0.27866-0.073608-0.06115-0.16458-0.093048-0.26001-0.093048l-3.06e-5 -3.05e-5z"/>
<path d="m303.68 100.5c-0.35211 0-0.68893-0.11955-0.96298-0.34409-0.64899-0.53355-0.74216-1.4934-0.20911-2.1405l3.042-3.7021c0.25775-0.31325 0.62289-0.50748 1.0281-0.54752 0.40945-0.038422 0.80267 0.080574 1.1147 0.33764 0.31308 0.257 0.50696 0.62114 0.54706 1.0259 0.04007 0.40524-0.08017 0.8008-0.33688 1.1135l-3.043 3.7026c-0.25671 0.31274-0.62183 0.50698-1.0281 0.54702-0.050964 0.004837-0.10187 0.0075684-0.1517 0.0075684l-9.16e-5 -3.06e-5zm3.0474-5.6337c-0.12024 0-0.23831 0.050911-0.31958 0.15047l-3.0431 3.702c-0.14514 0.17585-0.11911 0.43608 0.056366 0.5806 0.085571 0.069214 0.19611 0.10118 0.30222 0.090317 0.1105-0.010796 0.20911-0.063255 0.27841-0.14719l3.043-3.7031c0.069336-0.084358 0.10184-0.19151 0.091034-0.30131-0.010895-0.11045-0.062836-0.20945-0.14734-0.27866-0.076935-0.062759-0.16904-0.093124-0.26108-0.093124v-4.57e-5z"/>
<path d="m301.29 97.522c-0.35098 0-0.68793-0.11957-0.96194-0.34466-0.31308-0.257-0.50705-0.6217-0.54715-1.0264-0.04007-0.40524 0.0802-0.80081 0.33801-1.1135l3.042-3.7021c0.53302-0.64659 1.4928-0.74393 2.1428-0.20994 0.31308 0.25706 0.50705 0.62168 0.54712 1.0264 0.04007 0.4053-0.08017 0.80081-0.33694 1.1135l-3.043 3.7021c-0.25671 0.31274-0.6218 0.50697-1.027 0.54701-0.052002 0.0048447-0.10291 0.0075836-0.15381 0.0075836h-3.03e-5zm2.7288-5.4833l-3.043 3.7021c-0.069305 0.084434-0.10181 0.19157-0.091003 0.30194 0.010803 0.11037 0.062836 0.20938 0.14734 0.27866 0.084534 0.069206 0.19608 0.10546 0.30228 0.090317 0.1105-0.010796 0.20905-0.063316 0.27841-0.14719l3.043-3.7026c0.069305-0.084434 0.10178-0.19151 0.090973-0.30195-0.010803-0.11037-0.062805-0.20938-0.14734-0.2786-0.17767-0.14452-0.43655-0.11906-0.58069 0.057289l3.05e-5 -1.52e-5z"/>
<path d="m298.66 94.825c-0.33908 0-0.68143-0.11311-0.96414-0.34415-0.64893-0.53131-0.74313-1.4912-0.21124-2.14l3.0441-3.7026c0.25677-0.31331 0.62189-0.50754 1.027-0.54758 0.40518-0.040031 0.8017 0.080086 1.1147 0.33765 0.31305 0.25649 0.50806 0.62119 0.54816 1.0264 0.0401 0.40474-0.08017 0.80021-0.33688 1.1129l-3.043 3.7026c-0.30115 0.36519-0.73779 0.55459-1.1787 0.55459l-3.06e-5 2.28e-5zm3.0463-5.6331c-0.014038 0-0.028137 5.569e-4 -0.041138 0.0021744-0.11047 0.010796-0.20905 0.062759-0.27838 0.14718v4.883e-4l-3.0441 3.7021c-0.14194 0.17258-0.11597 0.43826 0.057373 0.58005 0.17557 0.1455 0.43765 0.11851 0.58066-0.056862l3.043-3.7026c0.069366-0.084427 0.10187-0.19102 0.091064-0.30082-0.010864-0.11037-0.063934-0.20938-0.14847-0.27866-0.073639-0.06115-0.16461-0.093048-0.26001-0.093048l-3.06e-5 -2.29e-5z"/>
<path class="clear" d="m286.29 80.434l-3.043 3.7024c-0.33759 0.41077-0.95047 0.47093-1.3617 0.13364-0.41122-0.33728-0.47153-0.94944-0.13379-1.3602l3.0429-3.7024c0.3378-0.41077 0.95047-0.47093 1.3618-0.13365 0.41122 0.33743 0.4715 0.94945 0.13379 1.3602h3.05e-5z"/>
<path class="clear" d="m290.13 81.659l-3.043 3.7023c-0.33774 0.41077-0.95047 0.47102-1.3617 0.13358-0.41129-0.33728-0.4715-0.94938-0.13379-1.3602l3.043-3.7022c0.3378-0.41077 0.95047-0.47093 1.3617-0.13365 0.41125 0.33736 0.4715 0.94945 0.13385 1.3602l-6.1e-5 1.52e-5z"/>
<path class="clear" d="m293.52 83.43l-3.0431 3.7022c-0.33759 0.41077-0.95035 0.47108-1.3617 0.13364-0.41119-0.33728-0.47144-0.94945-0.13379-1.3602l3.0431-3.7023c0.33768-0.41077 0.95047-0.47093 1.3617-0.13357 0.41122 0.33728 0.47144 0.94944 0.13379 1.3602v-1.52e-5z"/>
<path class="clear" d="m296.68 85.475l-3.0431 3.7024c-0.33765 0.41084-0.95035 0.47092-1.3615 0.13358-0.41147-0.33729-0.47156-0.94932-0.13379-1.3602l3.043-3.7024c0.33765-0.41077 0.95047-0.4708 1.3617-0.13358 0.41135 0.33743 0.47144 0.94945 0.13379 1.3602z"/>
<path class="clear" d="m299.84 87.513l-3.043 3.7023c-0.33759 0.41085-0.95047 0.47102-1.3617 0.13359-0.41122-0.33714-0.47144-0.94932-0.13379-1.3601l3.043-3.7023c0.33765-0.41077 0.95047-0.47087 1.3618-0.13366 0.41122 0.33736 0.47131 0.94946 0.13373 1.3602h-6.1e-5z"/>
<path class="clear" d="m307.94 98.188l-3.043 3.7022c-0.3378 0.41092-0.27744 1.023 0.13379 1.3603 0.41122 0.33714 1.0239 0.27712 1.3617-0.13365l3.0431-3.7023c0.33752-0.41084 0.27744-1.023-0.13379-1.3602-0.41135-0.33742-1.0242-0.27726-1.3618 0.13365z"/>
<path class="clear" d="m305.99 94.665l-3.0431 3.7023c-0.33749 0.41077-0.2774 1.0228 0.13394 1.3602 0.41122 0.33728 1.0239 0.27712 1.3617-0.13365l3.043-3.7022c0.3378-0.41077 0.2774-1.0229-0.13379-1.3602-0.41122-0.33743-1.0239-0.27719-1.3617 0.13358h-9.16e-5z"/>
<path class="clear" d="m303.59 91.688l-3.043 3.7023c-0.33765 0.41077-0.27756 1.023 0.13382 1.3602 0.41122 0.33729 1.0239 0.27711 1.3617-0.13365l3.0431-3.7022c0.33771-0.41077 0.27753-1.0231-0.13373-1.3602-0.41138-0.33736-1.024-0.27719-1.3618 0.13358h-3.05e-5z"/>
<path class="clear" d="m300.96 88.991l-3.043 3.7024c-0.33771 0.4109-0.2775 1.0229 0.13379 1.3602 0.41119 0.33729 1.0239 0.27726 1.3617-0.13365l3.0431-3.7024c0.33765-0.41077 0.27756-1.0228-0.13388-1.3602-0.41129-0.33723-1.0239-0.27713-1.3616 0.13364v7.6e-6z"/>
<polygon class="clear" points="227.94 204.01 180.8 227.33 198.39 179.77 212.6 171.33 207.16 186.97 220.88 181.66 222 181.23 219.25 196.88 233.55 188.51 228.1 203.87"/>
<path d="m213.01 179.85c5.3301-6.8447 10.754-13.613 16.192-20.369l16.421-20.181 16.619-20.018 8.3801-9.9513 8.4707-9.8774-8.0501 10.222-8.1407 10.148-16.422 20.18-16.621 20.017c-5.5755 6.6435-11.165 13.276-16.849 19.83v6.409e-4z"/>
<path d="m225.87 190.4c5.3301-6.8446 10.754-13.613 16.193-20.368l16.421-20.181 16.619-20.018 8.3801-9.9513 8.4707-9.8774-8.0501 10.222-8.1407 10.148-16.422 20.18-16.621 20.017c-5.5754 6.6435-11.165 13.275-16.849 19.83l-6.714e-4 -3.04e-5z"/>
<path d="m303.14 62.78c1.4602-2.0084 2.9716-3.9749 4.5301-5.9027 1.5407-1.9424 3.1383-3.8381 4.7344-5.7352l0.06842 0.35194c-0.8208-0.44422-1.7454-0.78475-2.6856-0.90789-0.47101-0.053993-0.95013-0.073067-1.4214 0.012978-0.4675 0.096977-0.9122 0.29163-1.3142 0.57331 0.35709-0.33441 0.79538-0.58747 1.2761-0.73162 0.48199-0.13253 0.98807-0.17733 1.4876-0.14676 1.0029 0.074959 1.9619 0.36204 2.8809 0.79135l0.25543 0.11934-0.18698 0.2328c-1.5521 1.9331-3.1028 3.8673-4.7101 5.7551-1.5896 1.9022-3.2266 3.7659-4.9145 5.5873v-3.82e-5z"/>
<path d="m305.4 53.189c-0.93127 1.3127-1.9445 2.5583-2.9514 3.8089-1.0319 1.2302-2.0571 2.466-3.1657 3.6333 0.93054-1.3133 1.9443-2.5584 2.9515-3.8088 1.032-1.2301 2.0578-2.4655 3.1656-3.6334z"/>
<path d="m399.85 224.3c-0.093079-0.76546-0.64645-2.1101-2.013-2.8333 0.1727-0.13805 0.27597-0.2242 0.28876-0.23511l0.52969-0.45557-2.3194-8.6061-2.899-0.32147 1.1928-0.86674v-6.2159l-1.4257 0.13644 1.3402-1.0919 0.67618-3.9843 1.4377-0.94066-3.0569-0.37674c-2.6589-0.32776-5.4445-0.94833-8.1841-1.5974-2.7497-0.64622-5.493-1.3477-8.2334-2.0714-5.4821-1.4372-10.948-2.9622-16.409-4.5018-10.919-3.0967-21.81-6.3086-32.688-9.5604-21.755-6.5099-43.458-13.211-65.12-20.03l-0.66821 2.1134c21.673 6.8227 43.382 13.525 65.152 20.04 10.886 3.2536 21.784 6.4678 32.72 9.569 5.4706 1.5424 10.946 3.07 16.451 4.5131 2.7506 0.72641 5.5094 1.4319 8.2887 2.0852 1.8895 0.44386 3.774 0.87167 5.7181 1.2182-3.3984 2.4661-6.5309 5.058-10.172 6.7747-4.3951 2.1712-9.2801 3.2828-14.206 3.9553-2.4633 0.3703-4.9667 0.50221-7.4601 0.69106-2.5081 0.053024-5.0097 0.20964-7.5254 0.14175-5.0496 0.071762-9.9927-0.41946-15.165-0.39442-2.5628-0.13628-5.1262 0.14349-7.6894 0.30626-1.2864 0.037201-2.551 0.31816-3.8224 0.51576-1.2651 0.23883-2.5511 0.36534-3.7979 0.6982-5.0315 1.1468-9.8948 3.092-14.299 5.8082-4.3967 2.7184-8.2807 6.3448-11.073 10.695-2.7414 4.3263-4.7101 9.3473-4.5077 14.46 0.51648-5.0533 2.7827-9.6696 5.6768-13.655 2.9252-3.9911 6.6694-7.3441 10.916-9.8534 1.0107-0.71158 2.1691-1.1729 3.2653-1.7368l1.661-0.81592 1.7428-0.63615 1.7393-0.64081c0.57486-0.22716 1.1559-0.43652 1.7632-0.56955l3.5949-0.93811c4.8591-0.96378 9.8267-1.5331 14.818-1.4146 4.9498-0.033737 10.099 0.46419 15.171 0.3895 2.5433 0.067261 5.096-0.091232 7.644-0.14618 2.5494-0.19191 5.1019-0.32747 7.6447-0.70816 5.0685-0.69292 10.191-1.8454 14.887-4.1625 2.3646-1.1158 4.5334-2.59 6.6037-4.0891 1.5795-1.155 3.0977-2.3359 4.6441-3.4305l-0.18451 1.0893-6.3732 5.1911 6.2876-0.606v2.649l-4.9085 3.5658 7.0847 0.78662 1.5567 5.7744c-3.3193 2.582-21.712 15.752-47.405 12.332-28-3.7379-45.644 22.78-47.525 25.752l-11.855 6.4615c-0.89481-0.2186-3.4189-0.90689-7.8787-2.6371l-0.1507-0.045441c-23.028-5.3501-29.154 2.3461-40.274 16.309-2.4969 3.1371-5.3288 6.6922-8.6654 10.487-16.681 18.969-64.875 40.944-70.607 43.517l-144.82-97.269-3.1276-7.2116 2.8688-2.1491-5.0126-2.8612-3.3106-8.2684 5.3408-1.9057-6.1402-2.8623-2.6792-9.8807 154.77 110.97 0.30972 0.22192 0.36707-0.026489 0.0035858-2.136e-4c1.8225-0.16852 3.3758-0.5748 4.9952-1.0427 1.5955-0.47519 3.154-1.0409 4.6794-1.6776 3.0441-1.2855 5.9754-2.8006 8.7887-4.495 5.638-3.3777 10.857-7.3774 15.735-11.723 4.859-4.3682 9.4434-9.0257 13.741-13.923 2.1458-2.4513 4.2452-4.9416 6.2769-7.4846 2.0515-2.5594 3.9679-5.0916 6.0738-7.4873 4.2003-4.79 8.9121-9.1475 14.205-12.654 5.2717-3.5245 11.131-6.1658 17.293-7.6198 6.1632-1.467 12.587-1.685 18.899-0.92642 3.1579 0.38582 6.2987 0.99879 9.3888 1.8491 3.0863 0.86014 6.1519 1.8763 9.0941 3.2494-10.891-7.1603-25.014-9.4219-37.903-6.4179-6.4607 1.4667-12.615 4.1837-18.131 7.8063-5.5393 3.6053-10.452 8.0787-14.818 12.975-2.1951 2.4429-4.2016 5.0641-6.1822 7.5652-2.002 2.5175-4.0692 4.9805-6.1803 7.4041-4.2276 4.8414-8.7301 9.4345-13.487 13.731-4.792 4.2502-9.8194 8.2518-15.259 11.592-2.7112 1.6794-5.5282 3.1776-8.4334 4.4472-1.4567 0.62225-2.9295 1.2034-4.4282 1.6818-1.3614 0.43506-2.8203 0.81799-4.1409 1.0013l-154.55-110.81c11.028-0.83818 21.975-2.2217 32.852-4.1822 5.9124-1.0743 11.793-2.3553 17.605-3.9355 5.8049-1.591 11.559-3.4683 17.074-5.9851 2.7632-1.2401 5.4496-2.6882 7.9894-4.3911 2.5204-1.7085 4.884-3.4304 7.4214-5.0031 5.0177-3.1619 10.307-5.9144 15.91-7.749 2.798-0.91835 5.6773-1.5627 8.5887-1.9425 2.9147-0.35249 5.8641-0.43077 8.7981-0.20538 5.856 0.42978 11.605 1.9628 17.183 3.9209 2.7218 1.6063 5.4436 3.2102 8.2194 4.677 2.7843 1.5397 5.6 3.0089 8.4161 4.478 5.6272 2.9479 11.287 5.8235 16.959 8.6773 6.2521 3.1553 12.522 6.2724 18.801 9.3719l0.20821-1.4353c-6.2483-3.1127-12.131-6.0686-18.351-9.2334-5.6564-2.8716-11.302-5.7653-16.907-8.7273-2.8054-1.4765-5.6107-2.9532-8.3747-4.4946-2.4004-1.2795-4.7295-2.6499-7.0527-4.0283 2.1449-2.0761 4.7132-3.9212 7.3247-5.5234 1.5113-0.83423 2.9961-1.716 4.5798-2.4147 1.5387-0.78995 3.1611-1.3949 4.7728-2.0239 6.4835-2.4317 13.401-3.6888 20.345-3.9497l1.3009-0.084473c0.43433-0.0090027 0.8698 0.0091095 1.3047 0.012314l2.6102 0.039429 2.6103 0.038345 2.6027 0.23988c1.7321 0.188 3.4777 0.2681 5.1988 0.54282l5.1544 0.89024 2.6643 0.46231c0.93622 0.14496 1.8454 0.18126 2.7584 0.21031 1.8173 0.040314 3.6161-0.048309 5.401-0.25555 3.5553-0.37119 7.1427-1.1098 10.322-2.8457-3.5768 0.31631-7.0027 0.68254-10.475 0.88025-1.7321 0.06308-3.4644 0.097763-5.1743 0.029526-0.84842-0.054855-1.7045-0.101-2.5138-0.22011l-2.55-0.44002-5.2766-0.90576c-1.7616-0.28333-3.55-0.37175-5.3244-0.56619l-2.6666-0.24899-2.6812-0.045792-2.6815-0.044601c-0.44678-0.0039368-0.89395-0.022629-1.3407-0.014084l-1.34 0.083466c-7.1474 0.25696-14.303 1.5389-21.043 4.0521-6.6035 2.4893-12.863 5.9107-17.998 11.067-5.429-1.8855-11.059-3.3729-16.86-3.8205-3.0348-0.244-6.1009-0.17491-9.1301 0.18108-3.0262 0.38301-6.0173 1.0427-8.9114 1.981-5.7962 1.8755-11.218 4.6791-16.329 7.8742-2.5592 1.5721-5.0447 3.366-7.4841 5.0058-2.4363 1.6209-5.043 3.0179-7.7447 4.2177-5.389 2.4365-11.067 4.2704-16.808 5.8211-5.7495 1.5415-11.584 2.791-17.456 3.8363-11.741 2.0748-23.643 3.4862-35.526 4.2406l-7.284e-4 1.373e-4 -2.9782 0.16887 2.0444 1.466 3.6598 13.499 2.1796 1.0161-2.4246 0.86452 4.4547 11.123 2.7527 1.5714-1.5685 1.1751 2.34 5.3932c-4.2233 0.68938-5.4576 1.9554-5.8124 2.632-1.391 1.9501-3.1037 6.1147 0.0097685 8.5109 3.1308 2.4083 140.05 94.871 145.81 98.754 0.055267 0.044373 3.9596 3.0895 9.4861 3.0895 2.3312 0 4.9523-0.54324 7.6934-2.081 9.2108-5.1694 105.17-58.768 117.11-65.44 0.18521 0.31757 0.44952 0.63629 0.8222 0.91388 1.3239 0.98688 3.4493 0.97549 6.3169-0.035187 6.2984-2.2206 18.284-8.7526 18.702-8.9857 0.55243-0.24069 5.4177-2.4343 6.0439-5.3636 0.095306-0.44528 0.12131-1.0307-0.1073-1.6697 12.096-5.5774 74.581-29.91 75.147-30.136 2.2295-0.66714 6.1771-3.2643 5.1794-8.2358l0.004427-0.0012971zm-5.9008 6.1418c-2.7593 1.074-67.681 26.358-76.501 30.762l-1.3119 0.6553 0.98807 1.0827c0.38348 0.42035 0.38025 0.7207 0.33472 0.93546-0.27841 1.3057-2.951 3.0057-4.8489 3.8389-0.12241 0.067108-12.335 6.7228-18.466 8.8845-2.8611 1.0091-3.9119 0.58868-4.2347 0.36142-0.37921-0.26941-0.38898-0.71204-0.38898-0.73856l0.09967-1.9993-1.7495 0.97659c-1.0844 0.60605-108.55 60.632-118.33 66.119-7.9114 4.4411-14.435-0.59195-14.779-0.85916-1.4267-0.96423-142.69-96.356-145.77-98.727-2.2403-1.7244 0.46362-5.4979 0.48968-5.5341l0.10831-0.17047c0.14413-0.16281 1.0655-1.0372 4.5744-1.5555l0.15814 5.493e-4 0.86074 1.9847 145.87 97.975 0.50697 0.33972 0.55896-0.24561c2.1949-0.96536 53.956-23.881 71.934-44.33 3.3734-3.8362 6.2226-7.414 8.7361-10.57 7.5767-9.5125 12.533-15.727 22.123-16.949l23.636 6.8853-21.006-7.0904c3.6557-0.11649 7.9507 0.39084 13.206 1.6055 5.8662 2.2708 8.4521 2.7833 8.5607 2.8038l0.39102 0.075256 13.097-7.1377 0.15494-0.26077c0.039032-0.065521 0.97061-1.5956 2.714-3.8706l7.2874 2.6554-6.6821-3.4331c6.2937-7.9608 21.23-23.091 42.172-20.306 23.29 3.1008 40.548-6.7541 47.178-11.39l0.61307 0.013519c1.1776 0.20514 1.3823 1.1639 1.4236 1.4231 0.8515 4.2534-3.1697 5.6218-3.7114 5.7917l0.0011541-0.0013883z"/>
<path d="m336.76 66.248c-1.9748-3.8974-5.4512-8.0747-9.8074-11.777l-1.4137-1.1531c-4.408-3.4526-9.1161-5.9902-13.317-7.161-4.3268-0.94798-7.6494 2.7032-7.8194 2.8942l-9.3927 11.428-0.85007 1.014c-2.0287 0.10148-3.6124 0.7737-4.611 1.9927-0.76477 0.77916-4.5164 4.8053-3.3031 7.5532l0.029205 0.066162-11.701 14.236c-1.6455 0.20706-2.9771 0.83418-3.8669 1.9177-0.71625 0.72968-4.0508 4.3064-3.4754 7.0151l-69.574 84.642-0.1714 0.10182-16.671 45.088c-4.58e-5 9.16e-5 -1.068e-4 1.678e-4 -1.526e-4 2.441e-4 -1.8826 3.2684-3.1633 6.7301-2.8584 6.9798 0.27591 0.22636 4.0974-2.3217 7.4887-4.8159l42.986-21.272 0.61092-0.45995 0.081177-0.22876 69.314-84.329c0.065552 0.0044937 0.13046 0.021187 0.19629 0.021187 2.7581 0 5.5942-3.9266 6.1131-4.6933 0.93838-1.1412 1.3251-2.6447 1.1763-4.4145l12.078-14.712c2.584-0.44048 5.1021-3.9289 5.588-4.6469 0.81967-0.99673 1.2177-2.2704 1.2074-3.7554l1.7285-2.376 8.9654-10.91c0.12564-0.16717 3.0636-4.1397 1.2653-8.2451l0.0045167-3.051e-4zm-137.46 114.28l11.264-6.6922-5.2292 15.034 15.239-5.8934-2.8198 16.079 13.744-8.0494-4.3095 12.142-35.88 17.755c0.2003-1.2329-0.70328-3.2759-1.8158-4.125-1.1786-0.89957-2.6033-0.60146-3.503-0.25349l13.309-35.997 5.493e-4 -3.357e-4zm36.322 5.4947l-14.855 8.7 2.6725-15.228-14.435 5.5806 5.6516-16.248-11.383 6.7627 67.087-81.619c0.13492 0.0071869 0.2756 0.023491 0.4136 0.035606 0.14709 0.012924 0.29126 0.021187 0.44174 0.039635 0.13348 0.016304 0.27243 0.041946 0.40845 0.062569 0.16797 0.025505 0.33359 0.046989 0.50519 0.078918 0.1243 0.023117 0.25317 0.054703 0.37936 0.081192 0.18881 0.039627 0.37595 0.076141 0.56873 0.12314 0.1149 0.027985 0.2337 0.063759 0.34998 0.094368 0.20914 0.055115 0.41714 0.10789 0.63034 0.17127 0.10236 0.030396 0.20782 0.067627 0.31104 0.099945 0.23105 0.072327 0.46164 0.14341 0.69687 0.22507 0.090057 0.03128 0.18262 0.068428 0.27325 0.10105 0.25214 0.090683 0.50427 0.18134 0.76056 0.28234 0.074463 0.029358 0.15063 0.063545 0.22543 0.093727 0.27405 0.11067 0.54868 0.22264 0.82675 0.34465 0.081421 0.035744 0.16437 0.076485 0.24606 0.11312 0.27438 0.12318 0.54907 0.24712 0.82669 0.38095 0.065613 0.03167 0.13239 0.067368 0.19824 0.099594 0.29495 0.14445 0.59042 0.29104 0.88828 0.44707 0.060364 0.031624 0.12146 0.066856 0.18188 0.098946 0.30423 0.16153 0.60913 0.32566 0.91553 0.4989 0.062042 0.035103 0.1246 0.073708 0.18671 0.10927 0.30566 0.17493 0.61169 0.35223 0.91876 0.53841 0.061859 0.037529 0.12399 0.078491 0.18591 0.11646 0.30786 0.18878 0.61606 0.37988 0.92453 0.57962 0.063294 0.040955 0.12659 0.085388 0.18985 0.12682 0.30682 0.20081 0.61368 0.40368 0.92035 0.61493 0.10663 0.073486 0.21292 0.15207 0.31949 0.22675 0.26379 0.18489 0.52762 0.3691 0.79068 0.56144 0.13144 0.096077 0.26193 0.19798 0.39307 0.29591 0.23685 0.1768 0.47403 0.35172 0.70981 0.53439 0.367 0.28436 0.73251 0.57568 1.0961 0.87379 0.35635 0.29223 0.70728 0.58862 1.0523 0.88851 5.1761 4.4984 9.0341 9.7902 10.105 13.883l-66.887 81.379 4.3112-12.147-0.0013729-0.0019078zm67.361-72.036c-0.70636 1.0318-1.6379 2.0847-2.5014 2.8211-0.032776-0.154-0.079163-0.31307-0.11874-0.46964-0.038269-0.15133-0.070221-0.30032-0.11478-0.45392-0.05426-0.18725-0.12201-0.37907-0.18549-0.56944-0.044769-0.13435-0.082855-0.26642-0.13214-0.40222-0.07605-0.2098-0.16559-0.42367-0.25217-0.63667-0.04895-0.12035-0.091248-0.23865-0.14346-0.35993-0.099304-0.23069-0.21194-0.46498-0.32297-0.69884-0.050781-0.10691-0.095215-0.21223-0.14841-0.31971-0.12173-0.24613-0.25644-0.49522-0.39053-0.74419-0.052673-0.097832-0.099518-0.19443-0.15411-0.29266-0.14798-0.26637-0.30869-0.53515-0.47021-0.804-0.0495-0.082298-0.093658-0.16367-0.14435-0.24618-0.16983-0.27644-0.35193-0.55455-0.53549-0.83283-0.050568-0.076652-0.096314-0.15276-0.14789-0.22953-0.18723-0.27866-0.38617-0.5584-0.58655-0.83817-0.055267-0.077156-0.10587-0.15394-0.16214-0.23119-0.19757-0.27126-0.40646-0.5429-0.61588-0.81453-0.066498-0.086319-0.1283-0.17252-0.19598-0.2588-0.2052-0.26154-0.4212-0.52278-0.63693-0.78409-0.079376-0.096168-0.15393-0.1925-0.23471-0.28855-0.20856-0.24802-0.42752-0.49513-0.6452-0.74233-0.095703-0.10867-0.18655-0.21798-0.28397-0.32643-0.2088-0.23244-0.42728-0.4633-0.64377-0.69452-0.11417-0.12193-0.22354-0.24476-0.33984-0.36632-0.22131-0.23141-0.452-0.46055-0.68073-0.69012-0.11887-0.11932-0.23318-0.2398-0.35397-0.35861-0.23206-0.22816-0.47308-0.45328-0.71207-0.67914-0.12509-0.11817-0.24579-0.23784-0.37274-0.35532-0.22467-0.20792-0.45761-0.41232-0.68793-0.61784-0.14853-0.13247-0.29285-0.26682-0.44366-0.39825-0.38428-0.33481-0.77585-0.66602-1.1744-0.99293-0.39639-0.32501-0.79559-0.64236-1.1969-0.95204-0.15286-0.11796-0.30719-0.22932-0.46063-0.34496-0.24905-0.18777-0.49759-0.37779-0.74792-0.55939-0.20776-0.15073-0.41663-0.29339-0.62506-0.4398-0.19611-0.13773-0.39166-0.27922-0.5882-0.41301-0.26511-0.18052-0.53076-0.35201-0.79633-0.52531-0.13931-0.090813-0.27829-0.18587-0.41763-0.27467-0.33487-0.21352-0.66959-0.41746-1.0043-0.61905-0.068085-0.040947-0.13617-0.084908-0.20419-0.12539-4.444-2.645-8.8207-4.2086-12.281-4.3048-0.026978-8.926e-4 -0.055603-0.0044479-0.08252-0.0051651 0.56012-0.97395 1.4094-2.0739 2.314-3.0014 2.0403-2.4797 9.0781-1.2753 16.833 3.9988 0.040894 0.027901 0.081665 0.057777 0.12265 0.085854 0.45151 0.30926 0.90576 0.63599 1.3611 0.97289 0.13391 0.099159 0.26773 0.1985 0.40137 0.29963 0.49969 0.378 1.0004 0.76651 1.502 1.1779l0.10507 0.087174c0.46213 0.3789 0.90979 0.76558 1.351 1.1549 0.15195 0.13431 0.30115 0.26968 0.45044 0.40505 0.29047 0.26291 0.57455 0.52813 0.85471 0.79475 0.16031 0.15279 0.32294 0.30486 0.47968 0.45863 0.37015 0.36259 0.73099 0.72768 1.0808 1.0952 0.16803 0.17659 0.3273 0.35433 0.49026 0.5316 0.21301 0.23164 0.42361 0.46355 0.62799 0.69632 0.16144 0.18374 0.32034 0.36752 0.47604 0.55146 0.2511 0.29711 0.49478 0.59464 0.73096 0.89257 0.081512 0.10259 0.16806 0.20531 0.24771 0.30778 0.32794 0.42331 0.6391 0.84676 0.93506 1.2695 0.047607 0.067703 0.092743 0.13502 0.13943 0.20265 0.61719 0.89696 1.1644 1.7899 1.6237 2.6683 0.21506 0.41138 0.40756 0.81339 0.57886 1.2056 0.0042419 0.0097961 0.0084534 0.0196 0.012665 0.029396 0.16476 0.37916 0.30786 0.7482 0.43109 1.107 0.0056152 0.016472 0.012238 0.033249 0.017761 0.049644 0.75882 2.2383 0.70209 4.0584-0.22998 5.198l-9.16e-5 1.522e-4zm2.1663-6.37c-1.2984-3.4916-4.0793-7.4214-7.8667-11.109-0.020203-0.019646-0.039551-0.039497-0.059784-0.059097-0.45007-0.43672-0.91562-0.86913-1.393-1.2977-0.090393-0.081284-0.18182-0.16178-0.27313-0.24263-0.4762-0.42131-0.96048-0.83956-1.4613-1.2504l-0.1051-0.087135c-0.33725-0.27661-0.67551-0.54509-1.0142-0.80887-0.053589-0.041641-0.10751-0.082039-0.16116-0.12339-0.31012-0.23949-0.62045-0.4734-0.93115-0.70204-0.014954-0.010956-0.029846-0.02179-0.0448-0.032745-3.9931-2.9314-8.0121-4.9581-11.522-5.9437-0.034973-0.0099335-0.070312-0.020592-0.10522-0.030342-0.242-0.066734-0.48111-0.12763-0.71799-0.18434-0.70886-0.17214-1.3974-0.30396-2.0556-0.38369l11.929-14.512c4.5445 0.24292 10.874 3.2881 16.681 8.0507 5.438 4.4602 9.6081 9.8774 10.973 14.157l-1.6133 2.7851 0.01236 0.0027313-10.086 12.275c-0.042938-0.12827-0.095428-0.25941-0.14249-0.38895-0.013977-0.038216-0.027649-0.076317-0.041992-0.11471l-1.833e-4 6.11e-5zm16.676-17.404c-0.72018 1.0495-1.6429 2.0982-2.4985 2.8286-0.02533-0.094757-0.044495-0.18716-0.072205-0.28277-1.1625-4.9122-5.7072-11.091-11.962-16.221-6.2983-5.1646-13.294-8.4283-18.405-8.5635 0.56009-0.97395 1.4094-2.074 2.3139-3.0014 0.11533-0.14017 0.2576-0.2588 0.40161-0.3759l2.6111-0.21601c4.3452-0.36413 11.173 2.6929 17.374 7.779l0.10291 0.084396c5.4557 4.4745 9.4954 9.7961 10.694 13.965 0.37054 1.6905 0.19916 3.0751-0.56052 4.0035l3.664e-4 2.594e-4zm11.931-17.082l-1.7916 2.1796c-0.21237-0.38831-0.43884-0.76571-0.68146-1.1288-0.53906-0.79041-1.1389-1.5256-1.7883-2.2044 0.504 0.79261 0.94058 1.62 1.3007 2.4683 0.17603 0.4261 0.3345 0.85654 0.46552 1.2909 0.031555 0.10558 0.057556 0.21566 0.086853 0.32441l-2.2527 2.7407c-0.078583-0.17484-0.15247-0.35147-0.23618-0.52583-0.32043-0.66141-0.67294-1.3039-1.0649-1.9198-0.77328-1.2371-1.6902-2.3744-2.7108-3.3878 0.88278 1.1368 1.6318 2.3626 2.2234 3.6521 0.30081 0.64194 0.55865 1.3019 0.78186 1.9691 0.11539 0.3456 0.22156 0.70058 0.31482 1.0538l-2.4104 2.9326c-0.14896-0.39491-0.30353-0.78556-0.47327-1.1742-0.39902-0.90349-0.85834-1.7776-1.3699-2.6168-0.5054-0.84277-1.0836-1.6401-1.7133-2.3876-0.61508-0.76112-1.3378-1.4249-2.0687-2.0597 0.66907 0.70351 1.3159 1.4231 1.8484 2.228 0.54697 0.79155 1.0349 1.6205 1.4469 2.4851 0.41809 0.86081 0.7804 1.7464 1.0807 2.6503 0.19388 0.58806 0.35562 1.1909 0.49661 1.7905l-0.44208 0.53785-0.50739 0.69392c-0.3038-0.9888-0.73862-2.0335-1.3093-3.1255-2.0529-3.926-5.6203-8.0866-10.045-11.717l-0.10291-0.084351c-4.4254-3.6296-9.2047-6.3154-13.46-7.5619-0.86102-0.25251-1.6844-0.44023-2.4656-0.56499l9.1808-11.166c0.024902-0.028679 2.6282-2.8427 5.6008-2.1897 3.8674 1.0794 8.3014 3.4791 12.468 6.7421l1.3791 1.1249c4.1198 3.5013 7.4047 7.434 9.2221 11.019 1.2458 2.8477-1.0042 5.9312-1.0021 5.9307l-6.09e-5 2.441e-4z"/>
</svg>
