<?xml version="1.0" encoding="utf-8"?>
<svg enable-background="new 0 0 400 400" version="1.1" viewBox="0 0 400 400" xml:space="preserve" width="400px" height="400px" xmlns="http://www.w3.org/2000/svg">
	<style type="text/css">
		.clear{fill:#fff;}
		.darl-shade{fill:#bbbfc3;}
		.shade{fill:#dfe1e3;}
		svg{fill:#253746;}
	</style>
	<rect class="clear" x="93.54" y="377.34" width="213.14" height="11.776"/>
	<path class="clear" d="m277.48 376.86h-143.5l-40.318 0.48462c54.837-5.2027 58.299-10.978 58.299-10.978l10.199-45.961 0.19075-0.86673h75.681l10.39 46.828s3.4612 5.7755 58.282 10.978l-29.22-0.48462 2.441e-4 -1.831e-4 -0.0029602 1.22e-4z"/>
	<path class="clear" d="m296.97 88.372h78.367c5.7066 0 10.383 4.663 10.383 10.4v191.64c0 5.7159-4.6768 10.4-10.383 10.4h-352.36c-1.7163 0-3.3038-0.40833-4.7411-1.1818h-0.021395c-3.3253-1.7192-5.6208-5.2217-5.6208-9.2188v-191.64c0-5.7374 4.6767-10.4 10.383-10.4h26.258"/>
	<path class="clear" d="m388.29 77.974h-376.56c-5.7201 0-10.371 4.6856-10.371 10.415v221.12c0 2.7176 1.0425 5.2075 2.7666 7.0552 1.8844 2.035 4.611 3.3468 7.6047 3.3468h376.56c5.7337 0 10.385-4.6855 10.385-10.401v-221.12c0-5.7297-4.6512-10.415-10.385-10.415l2.441e-4 -7.63e-5 -1.144e-4 -4.806e-4zm-2.5928 212.46c0 5.7165-4.6777 10.402-10.384 10.402h-352.36c-1.7241 0-3.3145-0.41501-4.7446-1.178h-0.02673c-3.3278-1.727-5.6132-5.221-5.6132-9.2235v-191.64c0-5.7297 4.6778-10.401 10.384-10.401h352.36c5.7066 0 10.384 4.6721 10.384 10.401v191.64l6.1e-5 6.1e-5 3.625e-4 -6.408e-4z"/>
	<path class="darl-shade" d="m77.167 88.305l-0.25768 0.9884c0.064949-0.34417 0.1509-0.64525 0.21584-0.92442 0.020973-0.021004 0.020973-0.042969 0.04184-0.063965v-1.53e-5z"/>
	<path class="clear" d="m49.23 88.372h-26.258c-5.7066 0-10.383 4.663-10.383 10.4v191.64c0 3.9969 2.2954 7.4999 5.6208 9.2188h0.021395c1.4374 0.7735 3.0248 1.1818 4.7411 1.1818h352.36c5.7066 0 10.383-4.6845 10.383-10.4v-191.64c0-5.7374-4.6767-10.4-10.383-10.4h-198.83"/>
	<path class="clear" d="m375.31 302.16h-352.36c-1.8032 0-3.5128-0.40137-5.0876-1.1924l-0.28774-0.13858c-3.9134-2.0224-6.3443-6.0113-6.3443-10.407v-191.64c0-6.4735 5.2573-11.739 11.719-11.739h26.258v2.6774h-26.258c-4.9883 0-9.0467 4.0652-9.0467 9.0619v191.64c0 3.2854 1.7619 6.2766 4.6203 7.8792l0.31779 0.15942c1.2595 0.67847 2.6424 1.0224 4.1086 1.0224h352.36c4.9883 0 9.0461-4.0645 9.0461-9.0612v-191.64c0-4.9967-4.0577-9.0619-9.0461-9.0619h-198.83v-2.6775h198.83c6.4621 0 11.719 5.2658 11.719 11.739v191.64c0 6.4729-5.2573 11.738-11.719 11.738h9.16e-5l2.136e-4 3.433e-4z"/>
	<path class="shade" d="m376.7 299.94c4.3627 0 7.9307-3.5746 7.9307-7.9433v-69.73l-49.364 77.67h41.432l7.019e-4 0.0021057-3.05e-5 0.0012208z"/>
	<path class="shade" d="m194.25 88.372l-176.04 211.27c1.4372 0.7731 3.0462 1.1815 4.7619 1.1815h150.53l169.97-212.46h-149.23l-0.0017395 0.001091-1.526e-4 0.0061188z"/>
	<path class="shade" d="m67.16 122.64l-3.8988-4.2642-6.0144-8.4876-5.69-12.388-2.3368-9.124h-26.258c-5.7066 0-10.383 4.663-10.383 10.4v87.5l60.476-58.427-5.8942-5.211-7.935e-4 0.0010834 1.897e-4 8.544e-4z"/>
	<polygon class="shade" points="94.307 139.7 85.547 135.54 12.589 211.62 12.589 247.41 112.51 141.61"/>
	<polygon class="shade" points="242.37 300.81 270.07 300.81 385.7 150.1 385.7 111.19"/>
	<path d="m375.31 302.16h-352.36c-1.8032 0-3.5128-0.40137-5.0876-1.1924l-0.28774-0.13858c-3.9134-2.0224-6.3443-6.0113-6.3443-10.407v-191.64c0-6.4735 5.2573-11.739 11.719-11.739h26.258v2.6774h-26.258c-4.9883 0-9.0467 4.0652-9.0467 9.0619v191.64c0 3.2854 1.7619 6.2766 4.6203 7.8792l0.31779 0.15942c1.2595 0.67847 2.6424 1.0224 4.1086 1.0224h352.36c4.9883 0 9.0461-4.0645 9.0461-9.0612v-191.64c0-4.9967-4.0577-9.0619-9.0461-9.0619h-198.14l0.11145-2.6775h198.03c6.4619 0 11.719 5.2658 11.719 11.739v191.64c0 6.4729-5.2573 11.738-11.719 11.738h-6.104e-4l-0.0039062 3.433e-4z"/>
	<path d="m270.07 271.4l-38.15-35.721-10.393 23.579-19.272-64.361 65.437 14.886-23.441 12.333 38.324 35.88-12.507 13.403 0.0023804-6.1e-5 2.747e-4 7.325e-4z"/>
	<path d="m148.83 179.58l22.64 9.8933c0.69493 0.29451 1.43 0.45514 2.1651 0.45514 0.68167 0 1.3499-0.13387 1.9914-0.38821 1.3632-0.52209 2.4324-1.5529 3.0072-2.8917 0.57468-1.3253 0.60141-2.8113 0.080185-4.1634-0.53459-1.3655-1.5638-2.4231-2.8868-3.0121l-22.64-9.8933c-1.3365-0.57565-2.8066-0.60243-4.1699-0.06694-1.3498 0.53549-2.4191 1.5529-2.9937 2.8916-0.58806 1.3253-0.61478 2.8113-0.080185 4.1634 0.53458 1.3655 1.5637 2.4231 2.8868 3.0121l4.58e-5 4.58e-5 -4.58e-5 -3.06e-5zm25.942 4.4581c0.12028 0.29456 0.10692 0.62924-0.013367 0.92375-0.13365 0.29451-0.37421 0.52209-0.66827 0.64258-0.3074 0.1205-0.64151 0.10712-0.93553-0.013367l-22.627-9.8933c-0.29402-0.13387-0.52122-0.37483-0.64151-0.66931-0.12028-0.30789-0.12028-0.64258 0.013367-0.9371 0.12028-0.29449 0.36084-0.52208 0.66827-0.64258 0.14702-0.053543 0.29402-0.080307 0.45439-0.080307s0.32076 0.026764 0.46776 0.093689l22.64 9.8933c0.29407 0.13387 0.52126 0.37483 0.64154 0.68274l1.678e-4 -6.1e-5 -1.525e-4 -3.06e-5z"/>
	<path d="m178.12 212.97c0.30746-0.70952 0.45445-1.4458 0.45445-2.1956 0-0.66933-0.12028-1.3387-0.37421-1.9813-1.0959-2.798-4.2634-4.1769-7.0567-3.0791l-22.988 9.0365c-1.3498 0.53549-2.4191 1.5529-2.9937 2.8917-0.58804 1.3387-0.61478 2.8248-0.080185 4.1769 0.82861 2.142 2.8868 3.4539 5.0652 3.4539 0.66827 0 1.3365-0.12048 1.978-0.37483l23.001-9.0365c1.3498-0.52216 2.4056-1.5529 2.9937-2.8916l1.373e-4 -6.1e-5 6.1e-5 7.62e-5zm-3.8756-1.7002c-0.13371 0.29449-0.37428 0.53552-0.66829 0.64262l-22.988 9.0499c-0.61482 0.2276-1.3365-0.080322-1.5771-0.69609-0.12028-0.29453-0.10692-0.6292 0.026733-0.92375 0.13365-0.30789 0.36084-0.53548 0.65488-0.64258l23.001-9.0499c0.13365-0.053528 0.28065-0.080307 0.42766-0.080307 0.17374 0 0.33412 0.040161 0.49451 0.10709 0.29401 0.13388 0.53458 0.37485 0.64154 0.66933 0.12028 0.29451 0.12028 0.62918-0.013367 0.92369h-3.05e-5l1.221e-4 1.52e-5z"/>
	<path d="m193.56 224.73c-1.3231-0.57564-2.8066-0.60242-4.1564-0.066925-1.3632 0.52209-2.4324 1.5529-3.0071 2.8916l-9.8767 22.665c-1.2028 2.7578 0.066803 5.9707 2.8066 7.1887 0.70834 0.30792 1.4434 0.4418 2.1784 0.4418 2.0983 0 4.103-1.2183 4.9852-3.2665l9.8901-22.678c0.57468-1.3254 0.60141-2.8113 0.066818-4.1634-0.53458-1.3656-1.5503-2.4231-2.8868-3.0121l-2.594e-4 -2.594e-4 2.442e-4 3.509e-4zm-12.536 28.796c-0.60139-0.26775-0.8954-1.004-0.62813-1.6064l9.8767-22.678c0.13362-0.29449 0.37421-0.52209 0.6682-0.64258 0.14702-0.053528 0.30739-0.080307 0.45441-0.080307 0.16039 0 0.32074 0.026779 0.48112 0.093704 0.60141 0.26773 0.88206 1.004 0.62814 1.6064l-9.8901 22.678c-0.25392 0.60242-0.989 0.88354-1.5905 0.6292h1.678e-4 -9.14e-5z"/>
	<path d="m189.51 139.11c-0.53458-1.3521-1.5503-2.4231-2.8867-2.9988-1.3365-0.58902-2.82-0.6158-4.1699-0.080322-1.3499 0.52209-2.4057 1.5529-2.9938 2.8917-0.58806 1.3387-0.61479 2.8247-0.0802 4.1769l9.0214 23.026c0.53459 1.3521 1.5503 2.4097 2.8868 2.9988 0.70833 0.30789 1.4434 0.45515 2.1784 0.45515 0.68166 0 1.3499-0.12048 1.9914-0.37483 1.3498-0.52209 2.4057-1.5529 2.9937-2.8917 0.58806-1.3387 0.61479-2.8247 0.0802-4.1769l-9.0214-23.026zm5.0655 25.503c-0.13364 0.30789-0.36086 0.53548-0.66827 0.65596-0.29401 0.1071-0.62813 0.1071-0.92215-0.026764-0.30737-0.13388-0.53456-0.37485-0.64149-0.66934l-9.0347-23.026c-0.10692-0.29453-0.10692-0.6292 0.026733-0.92369 0.13364-0.30794 0.36084-0.53554 0.6682-0.65601 0.13364-0.053558 0.28065-0.080338 0.42767-0.080338 0.17372 0 0.33411 0.040176 0.49449 0.1071 0.30737 0.13387 0.53456 0.36145 0.64149 0.6694l9.0347 23.026c0.1069 0.29451 0.1069 0.62924-0.026749 0.92375l6.1e-5 -4.58e-5v-3.05e-5z"/>
	<path d="m234.69 139.97c-0.53458-1.3521-1.5504-2.4231-2.8868-2.9987-1.3231-0.5757-2.8066-0.61588-4.1564-0.080338-1.3633 0.53549-2.4192 1.5663-3.0071 2.8916l-9.8767 22.678c-0.3074 0.70953-0.45442 1.4458-0.45442 2.1688 0 2.1018 1.2296 4.11 3.2744 5.0067 0.69493 0.30791 1.4434 0.45515 2.1651 0.45515 2.0983 0 4.103-1.2182 4.9984-3.2665l9.8767-22.678c0.57457-1.3253 0.6013-2.8112 0.066711-4.1769l1.984e-4 1.526e-4 -3.05e-5 -1.53e-5zm-15.423 25.784c-0.60139-0.26773-0.88206-0.99066-0.62813-1.5931l9.8767-22.678c0.13379-0.29453 0.37421-0.52211 0.6682-0.64259 0.30745-0.12047 0.64156-0.12047 0.93541 0.013397 0.29402 0.13387 0.52148 0.37483 0.64149 0.66933 0.12045 0.30791 0.10709 0.64258-0.013367 0.92368l-9.8767 22.678c-0.26729 0.60243-0.98901 0.89691-1.6038 0.6292l1.068e-4 4.58e-5 3.06e-5 9.15e-5z"/>
	<path d="m265.15 174.62c-1.0958-2.798-4.2502-4.19-7.0434-3.0925l-23.001 9.0365c-2.793 1.0977-4.1696 4.2705-3.0738 7.0685 0.53459 1.3521 1.5503 2.4231 2.8868 3.0121 0.70848 0.29451 1.4434 0.45515 2.1783 0.45515 0.68161 0 1.3498-0.13387 1.9915-0.37483l22.987-9.0365c2.7931-1.1111 4.1699-4.2705 3.0739-7.0685l-6.1e-5 3.662e-4 -6.12e-5 -3.508e-4zm-4.6244 3.1192l-22.988 9.0365c-0.29408 0.12048-0.6282 0.10709-0.92221-0.026779-0.29387-0.12048-0.53459-0.36145-0.64134-0.65598-0.24072-0.6158 0.066681-1.3387 0.68161-1.5797l22.987-9.0365c0.147-0.053543 0.29404-0.080322 0.44104-0.080322 0.16037 0 0.33411 0.026779 0.48114 0.09372 0.30737 0.13385 0.53461 0.37483 0.65491 0.6694 0.24057 0.6158-0.0802 1.3387-0.69513 1.5797v-6.1e-5 1.52e-5z"/>
	<ellipse class="clear" cx="112.86" cy="76.803" rx="64.676" ry="64.784"/>
	<path d="m100.85 59.558c0 4.4044 3.1942 7.0285 9.5961 7.8719v-15.824c-2.7264 0.026772-5.0118 0.70953-6.8427 2.0482-1.831 1.3253-2.7532 3.2933-2.7532 5.9038l-8.39e-5 -1.831e-4 -1.069e-4 1.831e-4z"/>
	<path d="m116.77 79.637v18.046c2.9536-0.040169 5.4262-0.8969 7.4174-2.5971 1.9913-1.7002 2.9804-3.9092 2.9804-6.64 0-4.592-3.4616-7.5233-10.398-8.8088v-2.06e-4l3.281e-4 -1.908e-4z"/>
	<path d="m112.86 26.476c-27.746 0-50.24 22.531-50.24 50.324s22.493 50.31 50.24 50.31c27.732 0 50.226-22.517 50.226-50.31s-22.493-50.324-50.226-50.324zm19.352 73.751c-3.5551 3.4539-8.6867 5.4752-15.436 6.0779v8.7153h-6.3481v-8.7153c-11.667-0.9773-19.125-6.6269-22.386-16.962l10.104-2.3562c1.831 6.6269 5.9206 10.188 12.282 10.697v-18.622c-8.3134-1.9144-13.712-4.3374-16.225-7.2829-2.5126-2.9318-3.769-6.4392-3.769-10.522 0-10.589 6.6694-16.694 19.993-18.327v-6.7874h6.3482v6.7874c9.7561 1.2584 15.917 6.0779 18.483 14.458l-9.5427 2.0349c-1.6305-4.8461-4.611-7.4432-8.9414-7.8178v16.44c6.1477 1.7537 10.291 3.1059 12.416 4.0431 2.1384 0.95053 4.0629 2.7845 5.7738 5.5154 1.6974 2.731 2.5526 5.9441 2.5526 9.6121 0 5.221-1.7641 9.5587-5.3057 13.013l1.526e-4 -1.602e-4 9.15e-5 1.602e-4z"/>
	<path d="m112.86 143.58c-36.769 0-66.68-29.963-66.68-66.792 3.8e-6 -36.831 29.913-66.792 66.68-66.792 36.769 0 66.68 29.963 66.68 66.792 0 36.831-29.913 66.792-66.68 66.792zm0-129.57c-34.558 0-62.671 28.161-62.671 62.776 0 34.615 28.115 62.776 62.671 62.776 34.557 0 62.671-28.161 62.671-62.776 0-34.615-28.114-62.776-62.671-62.776h-7.6e-6z"/>
	<path class="clear" d="m116.81 115.01h-6.3523v-8.7166c-11.666-0.97163-19.129-6.6265-22.39-16.961l10.112-2.3569c1.8203 6.6296 5.9116 10.194 12.277 10.697v-18.613c-8.3094-1.9157-13.719-4.3412-16.229-7.2796-2.5068-2.9351-3.76-6.4451-3.76-10.53 0-10.584 6.6632-16.694 19.989-18.329v-6.7834h6.3523v6.7834c9.7507 1.2588 15.911 6.0789 18.483 14.467l-9.5487 2.0252c-1.629-4.8371-4.6072-7.4438-8.9341-7.8205v16.441c6.1438 1.7619 10.283 3.1098 12.417 4.0537 2.1311 0.94085 4.0504 2.7812 5.7613 5.5113 1.7076 2.7334 2.5649 5.9388 2.5649 9.6128 0 5.2134-1.7726 9.5514-5.3175 13.007-3.545 3.4551-8.6847 5.4804-15.426 6.0758v8.7166l-2.975e-4 2.594e-4 2.06e-4 -2.747e-4zm-6.3523-63.418c-2.7287 0.030796-5.0101 0.71152-6.8441 2.0492-1.8339 1.3342-2.7526 3.3045-2.7526 5.9114 0 4.3992 3.2001 7.0198 9.5967 7.8679v-15.829l3.05e-5 -8.39e-5 -9.15e-5 2.212e-4zm6.3523 46.079c2.9474-0.030792 5.4165-0.89624 7.4074-2.5931 1.9911-1.6968 2.9849-3.9102 2.9849-6.6435 0-4.584-3.463-7.5226-10.392-8.8088v18.046l-3.05e-5 -6.1e-5 -1.754e-4 -2.06e-4z"/>
	<path d="m169.39 366.39c-3.5952 0.11111-7.1901 0.17645-10.785 0.32812 3.5949 0.1517 7.19 0.21698 10.785 0.32809l10.785 0.18692c7.1894 0.10672 14.38 0.10104 21.569 0.15369 7.1901-0.056 14.38-0.046082 21.57-0.15598 7.1901-0.10718 14.38-0.23651 21.57-0.51273-7.19-0.27615-14.38-0.40524-21.57-0.51248-7.19-0.11017-14.38-0.10001-21.57-0.15619-7.19 0.052582-14.38 0.047241-21.569 0.15393l-10.785 0.18662h1.53e-5z"/>
	<path d="m388.29 76.619h-210.77v2.6774h210.77c4.9883 0 9.0474 4.0749 9.0474 9.0833v221.12c0 4.9966-4.0591 9.0612-9.0474 9.0612h-149.19l-6.714e-4 -0.0026245h-77.827l-6.714e-4 0.0026245h-149.55c-2.5 0-4.9184-1.0655-6.6379-2.9259-1.5531-1.6707-2.4086-3.8503-2.4086-6.1354v-221.12c0-5.0084 4.0584-9.0833 9.0467-9.0833h36.468v-2.6774h-36.468c-6.4624 0-11.719 5.2758-11.719 11.761v221.12c0 2.9638 1.1099 5.7915 3.1226 7.958 2.222 2.4029 5.3549 3.7809 8.5967 3.7809h148.95l-9.9381 44.803c-1.2084 0.91666-9.6714 5.7838-56.672 10.275h-1.77v13.686h215.64v-13.686h-1.6581c-46.989-4.4907-55.446-9.3577-56.651-10.275l-9.9407-44.803h148.59c6.463 0 11.72-5.2661 11.72-11.738v-221.12c0-6.4854-5.2573-11.761-11.72-11.761l0.0024414 1.526e-4 0.0069274-5.341e-4zm-83.014 310.7h-210.3v-8.3307h210.3v8.3307zm-58.112-20.097l0.11226 0.18564c0.52174 0.8714 4.578 4.7646 35.212 8.903h-164.6c30.643-4.1384 34.702-8.0322 35.225-8.903l0.11162-0.18564 2.2395-10.093 43.682-1.3456-43.09-1.3275 1.5219-6.8589 41.568-1.3519-40.972-1.3328 1.5316-6.903 39.442-1.3022-38.867-1.2832 1.5434-6.9557 37.323-1.301-36.752-1.2811 1.0325-4.653h73.534l10.202 45.989 0.0014648-2.441e-4 4.578e-4 -1.527e-4z"/>
</svg>
