<?xml version="1.0" encoding="utf-8"?>
<svg enable-background="new 0 0 400 400" version="1.1" viewBox="0 0 400 400" xml:space="preserve" width="400px" height="400px" xmlns="http://www.w3.org/2000/svg">
<style type="text/css">
	.clear{fill:#fff;}
	.reflection{fill:#f1f2f3;}
	.dark-shade{fill:#bbbfc3;}
	svg{fill:#253746;}
</style>
<ellipse class="clear" cx="190.81" cy="200.31" rx="188.97" ry="189.34"/>
<path class="reflection" d="m134.49 35.001c-0.78999 0.26655-1.5636 0.56695-2.3484 0.84456l1.8438-4.5412c-69.047 23.312-118.77 88.731-118.77 165.77 0 9.004 0.67987 17.849 1.9881 26.488 2.6301 20.263 8.7034 39.443 17.642 56.91l4.4343-10.911 0.38947-0.9523 77.6-191.18 17.225-42.426-5.493e-4 -0.0027237z"/>
<path class="reflection" d="m271.33 45.865l1.041-2.8915c-24.583-13.28-52.723-20.798-82.594-20.798-4.7024 0-9.3801 0.19536-13.985 0.56158l-100.77 306.11c0.44254 0.38715 0.89948 0.75732 1.346 1.14l-0.84134 2.5565c22.414 19.601 49.872 33.565 80.154 39.667l117.19-325.54c-0.51053-0.27591-1.0316-0.534-1.5453-0.80502l0.0043944 1.983e-4z"/>
<path class="reflection" d="m323.27 87.583l0.69614-2.3302c-8.6494-10.448-18.516-19.846-29.333-27.999l-86.494 313.72c0.5305-0.054565 1.0501-0.14227 1.5792-0.20154l-1.0745 3.8978c11.158-1.1471 21.976-3.3687 32.404-6.5662l83.42-279.16c-0.3866-0.46727-0.80893-0.90308-1.2005-1.3661l0.0030517-0.0011063z"/>
<path class="reflection" d="m362.95 175.2c-2.9234-23.478-10.471-45.512-21.726-65.148l-68.874 241.13c0.6254-0.33716 1.2366-0.69702 1.8578-1.0414l-1.3531 4.7379c54.745-29.489 91.974-87.442 91.974-154.1 0-8.6894-0.65414-17.223-1.8748-25.572l-0.0039063-0.0040207z"/>
<path class="dark-shade" d="m263.14 73.743l-11.517 20.005 0.052475-0.091202c9.3047 5.3718 17.84 11.932 25.398 19.474l-0.098297 0.098968 16.267-16.295 1.0403-0.86286c-9.2447-9.2472-19.714-17.266-31.142-23.792l-6.104e-4 1.4631-5.187e-4 5.111e-4z"/>
<path class="dark-shade" d="m263.14 73.743l-11.517 20.005 0.052475-0.091202c-9.1774-5.2983-19.103-9.4402-29.58-12.228l-0.0090485 0.033958 5.9445-22.292 3.815e-4 -1.264c12.423 3.2778 24.203 8.1457 35.11 14.373l-6.104e-4 1.4631-3.356e-4 4.654e-4z"/>
<path class="dark-shade" d="m228.03 59.169l-5.9445 22.292 0.0090485-0.033958c-10.071-2.6794-20.649-4.1073-31.561-4.1073l-0.1571-0.018318v-23.078l0.1571-1.1578c12.96 0 25.527 1.682 37.498 4.8401l-3.815e-4 1.264-2.136e-4 1.755e-4z"/>
<path class="dark-shade" d="m152.95 57.905c11.97-3.158 24.538-4.8401 37.498-4.8401l0.1571 1.1578v23.078l-0.1571 0.018318c-10.912 0-21.491 1.4278-31.561 4.1073l0.0090485 0.033958-5.9445-22.292-3.967e-4 -1.264-1.832e-4 -1.755e-4z"/>
<path class="dark-shade" d="m117.85 72.28c10.906-6.2275 22.686-11.095 35.11-14.373l3.967e-4 1.264 5.9445 22.292-0.0090332-0.033958c-10.477 2.7876-20.403 6.93-29.58 12.228l0.052475 0.091202-11.517-20.005-5.951e-4 -1.4631-3.662e-4 -4.807e-4z"/>
<path class="dark-shade" d="m117.85 72.28c-11.429 6.5258-21.897 14.545-31.142 23.792l1.0403 0.86285 16.267 16.295-0.098282-0.098961c7.5587-7.5419 16.093-14.103 25.398-19.474l0.052475 0.091194-11.517-20.005-6.027e-4 -1.4631-5.875e-4 -5.188e-4z"/>
<path class="dark-shade" d="m63.248 126.63c6.4694-11.205 14.371-21.476 23.455-30.562l1.0403 0.86286 16.267 16.295-0.09829-0.098968c-7.5634 7.5465-14.149 16.076-19.551 25.381l0.20482 0.11928-19.966-11.539-1.3515-0.45902h-6.637e-4z"/>
<path class="dark-shade" d="m48.528 162.27c3.3531-12.626 8.34-24.585 14.72-35.636l1.3515 0.45902 19.966 11.539-0.20483-0.11928c-5.3344 9.1897-9.5134 19.136-12.338 29.638l0.27767 0.074982-22.245-5.9559-1.5279-3.052e-4 1.527e-4 1.832e-4z"/>
<path class="dark-shade" d="m43.602 200.2c0-13.116 1.7128-25.83 4.9266-37.932l1.5279 3.052e-4 21.211 5.6793 0.75547 0.20163c-2.7479 10.218-4.2138 20.963-4.2138 32.051l-0.5766-0.20491h-22.114l-1.5172 0.20491 3.319e-4 -6.102e-4z"/>
<path d="m286.32 186.27l-12.955-5.2389c-0.27454-1.6646-1.7054-2.9379-3.4444-2.9379-1.9349 0-3.5054 1.573-3.5054 3.5122 0 1.9353 1.5705 3.5084 3.5054 3.5084 1.0543 0 1.988-0.47647 2.6298-1.2143l13.769 2.3704-6.11e-5 7.63e-5z"/>
<path d="m225.01 129.54c-1.8334 0-3.3193 1.4854-3.3193 3.3219 0 0.56107 0.1523 1.0818 0.39807 1.5455l-6.2335 11.31 8.6481-9.5858c0.16644 0.025711 0.33328 0.051224 0.50696 0.051224 1.8291 0 3.3117-1.4887 3.3117-3.3219 0-1.8365-1.4825-3.3219-3.3117-3.3219l-3.051e-4 4.729e-4z"/>
<path d="m164.97 116.6l-7.2394 12.604c-0.023651-4.272e-4 -0.045608-0.0069885-0.069336-0.0069885-2.0229 0-3.6588 1.639-3.6588 3.6658 0 2.0234 1.6359 3.6658 3.6588 3.6658 2.0192 0 3.6588-1.6424 3.6588-3.6658 0-0.9803-0.38924-1.8647-1.0137-2.522l4.6638-13.741-7.63e-5 5.34e-5z"/>
<path d="m112.41 177.72c-0.46905 0.042358-0.90401 0.17879-1.3063 0.3692l-10.813-8.1183 8.852 10.229c-0.21163 0.54367-0.31869 1.1361-0.26373 1.7561 0.19374 2.1478 2.0887 3.7317 4.2324 3.5381 2.1396-0.19788 3.7207-2.0927 3.5271-4.2405-0.19332-2.1437-2.0849-3.7279-4.2281-3.5339l6.09e-5 2.441e-4z"/>
<polygon points="273.91 112.28 291.88 94.521 293.73 96.398 275.76 114.16"/>
<path d="m190.65 377.26c-97.56 0-176.93-79.52-176.93-177.27 0-97.728 79.374-177.23 176.93-177.23 97.54 0 176.89 79.507 176.89 177.23 0 47.049-18.173 91.343-51.174 124.71-33.471 33.89-78.12 52.555-125.72 52.555h3.05e-5zm0-351.52c-95.914 0-173.95 78.171-173.95 174.25 0 96.099 78.034 174.28 173.95 174.28 46.799 0 90.694-18.349 123.6-51.669 32.444-32.812 50.311-76.354 50.311-122.61 0-96.079-78.02-174.25-173.91-174.25l0.0026702-0.0040283z"/>
<ellipse class="dark-shade" cx="190.77" cy="199.69" rx="17.837" ry="17.872"/>
<path d="m195.49 38.114c0 2.5977-2.1033 4.7013-4.6923 4.7013-2.5927 0-4.6922-2.1037-4.6922-4.7013 0-2.5977 2.0995-4.7013 4.6922-4.7013 2.589 0 4.6923 2.1035 4.6923 4.7013z"/>
<path d="m153.56 42.405c0.67188 2.5025-0.81441 5.0819-3.3193 5.7513-2.5011 0.6733-5.0755-0.81224-5.7436-3.3219-0.672-2.51 0.81061-5.0857 3.3155-5.7589 2.5049-0.67283 5.0755 0.81978 5.7474 3.3294v6.48e-5z"/>
<path d="m114.17 57.42c1.296 2.2429 0.52572 5.122-1.7237 6.4172-2.2383 1.2951-5.1122 0.53419-6.4048-1.7196-1.2959-2.2534-0.52939-5.122 1.7163-6.4242 2.2457-1.2989 5.1122-0.51966 6.4122 1.7267l6.11e-5 -6.49e-5z"/>
<path d="m79.994 82.139c1.8329 1.8294 1.8329 4.8144-0.0071564 6.6475-1.8258 1.8331-4.798 1.8403-6.6276 0-1.8366-1.8401-1.8366-4.8111-0.0037766-6.655 1.8333-1.8289 4.8056-1.8218 6.6386 0.0074768v1.53e-5z"/>
<path d="m308.08 82.139c1.8329 1.8294 1.8329 4.8144-0.0070801 6.6475-1.8258 1.8331-4.7982 1.8403-6.6276 0-1.8367-1.8401-1.8367-4.8111-0.0037537-6.655 1.8332-1.8289 4.8055-1.8218 6.6384 0.0074768l3.06e-5 1.53e-5z"/>
<path d="m53.368 114.88c2.242 1.2951 3.016 4.1779 1.7088 6.4242-1.2889 2.2463-4.1592 3.0222-6.401 1.7196-2.2491-1.3026-3.0161-4.1708-1.7197-6.4242 1.296-2.2467 4.1699-3.0077 6.4118-1.7196h6.49e-5z"/>
<path d="m36.107 153.4c2.5011 0.67323 3.9945 3.2559 3.3118 5.7657-0.66445 2.5026-3.2351 3.9951-5.74 3.3223-2.5086-0.67323-3.9874-3.2489-3.3193-5.7589 0.6682-2.5097 3.2497-3.9876 5.7475-3.329z"/>
<path d="m29.388 195.09c2.589 0.0037994 4.6994 2.1111 4.6848 4.7084 0.0074501 2.5903-2.0887 4.7051-4.6848 4.6975-2.5961 0.0037689-4.6885-2.0998-4.6922-4.6975-0.0033799-2.5973 2.1107-4.6975 4.6922-4.7084z"/>
<path d="m352.16 204.55c-2.589-0.018326-4.696-2.1181-4.6777-4.7121-0.01123-2.5977 2.0774-4.7088 4.681-4.7013 2.5965-0.010834 4.6852 2.0927 4.6924 4.6975-0.0037842 2.6011-2.1179 4.705-4.6956 4.7159l-1.221e-4 -3.05e-5z"/>
<path d="m347.89 162.54c-2.5049 0.6515-5.0831-0.82686-5.7367-3.3403-0.67892-2.5059 0.79248-5.0891 3.3084-5.7548 2.5049-0.68063 5.0647 0.80475 5.7475 3.3219 0.66812 2.5134-0.83279 5.0928-3.3193 5.7732l3.05e-5 6.1e-5z"/>
<path d="m332.91 123.06c-2.2532 1.2768-5.1234 0.52294-6.4048-1.7379-1.3039-2.2463-0.54779-5.122 1.7088-6.4171 2.2457-1.3097 5.1012-0.5339 6.4085 1.7196 1.296 2.2538 0.51489 5.1366-1.7126 6.4355z"/>
<path d="m275.56 62.146c-1.3109 2.2321-4.1736 3.0223-6.4118 1.705-2.2495-1.2951-3.0309-4.1634-1.7201-6.4172 1.289-2.261 4.1482-3.0219 6.4048-1.7192 2.2458 1.3022 3.0127 4.1926 1.7271 6.4313l9.16e-5 6.49e-5z"/>
<path d="m237.11 44.85c-0.68985 2.4988-3.2497 4.0022-5.7546 3.3106-2.5052-0.66573-4.0024-3.2376-3.3193-5.751 0.66068-2.5209 3.2243-3.9951 5.7438-3.3219 2.5049 0.67657 3.9911 3.2668 3.3301 5.7622h1.53e-5z"/>
<path d="m284.93 274.64c-10.56 14.668-25.153 26.44-41.518 34.458-16.412 7.9794-34.648 12.228-52.965 12.42-9.1574-0.0052795-18.319-0.99625-27.263-2.9879-8.9294-2.058-17.623-5.1082-25.87-9.0735-16.477-7.9219-31.073-19.922-41.35-34.816 12.664 12.849 27.139 23.472 43.202 30.88 16.041 7.3943 33.646 11.232 51.282 11.302 17.641 0.18359 35.347-3.5312 51.45-10.944 16.173-7.3108 30.653-18.162 43.033-31.238l3.04e-5 9.15e-5z"/>
<path d="m333.41 234.02c-2.5009 16.308-8.8434 31.991-17.504 46.14-8.8547 14.045-20.009 26.697-33.06 37.007-26 20.793-59.191 32.155-92.387 32.04-33.195 0.1347-66.402-11.204-92.42-31.993-13.062-10.305-24.221-22.963-33.085-37.012-8.66-14.158-15.004-29.853-17.458-46.174l0.023556-0.0054779c5.0635 15.642 11.641 30.625 20.615 44.148 8.764 13.636 19.889 25.667 32.526 35.73 25.282 20.174 57.398 31.53 89.8 31.561 32.404-0.012054 64.535-11.348 89.834-31.519 12.647-10.06 23.777-22.097 32.548-35.738 8.9721-13.533 15.55-28.528 20.566-44.184l0.001831-5.492e-4z"/>
<path d="m339.17 199.99c-0.10956-82.045-66.827-148.8-148.72-148.8s-148.61 66.752-148.72 148.8l-0.0017624 1.8769h27.945l0.0036469-1.8695c0.10954-66.613 54.289-120.81 120.77-120.81 66.487 0 120.67 54.192 120.77 120.81l0.0036011 1.8255 3.4215 0.080582h20.244l4.2795-0.065918-0.0036316-1.8476 0.0018615-3.04e-5zm-9.0601-38.795l-19.767 5.3188c-2.7278-9.7247-6.6043-18.972-11.475-27.587l17.724-10.243c5.7533 10.144 10.323 21.043 13.519 32.511v1.526e-4zm-175.71-101.7c11.173-2.8773 22.862-4.4418 34.893-4.5368v20.508c-10.204 0.093956-20.123 1.4167-29.609 3.8439l-5.2842-19.815 1.984e-4 -4.006e-4zm2.7437 20.499c-9.7254 2.7112-18.976 6.5795-27.595 11.446l-10.227-17.764c10.153-5.7544 21.063-10.315 32.539-13.496l5.284 19.814h1.53e-5zm34.778-25.032c12.037 0.12087 23.73 1.7147 34.904 4.6206l-5.3174 19.806c-9.4774-2.4495-19.388-3.7986-29.587-3.918v-20.508l1.53e-5 -3.9e-6zm37.446 5.3054c11.455 3.2044 22.344 7.7843 32.476 13.555l-10.25 17.749c-8.6014-4.8809-17.834-8.7676-27.543-11.5l5.3172-19.804h1.831e-4zm-142.12 38.042l14.47 14.495c-6.982 7.1144-13.122 15.059-18.255 23.673l-17.731-10.247c6.0344-10.17 13.274-19.542 21.517-27.92l-6.713e-4 1.52e-5zm-5.109 40.445c-4.9004 8.632-8.8014 17.902-11.547 27.653l-19.779-5.2959c3.2143-11.503 7.81-22.434 13.597-32.603l17.729 10.246-6.639e-4 3.357e-4zm-16.186 59.371h-20.47c0.16674-11.886 1.7771-23.429 4.6453-34.47l19.778 5.2957c-2.4188 9.35-3.7879 19.118-3.953 29.174l-2.671e-4 5.34e-4zm37.628-87.181l-14.472-14.497c8.3887-8.2259 17.767-15.438 27.936-21.448l10.225 17.762c-8.614 5.1064-16.565 11.22-23.689 18.182l1.52e-5 6.637e-4zm150.29-18.045l10.248-17.746c21.045 12.497 38.686 30.168 51.158 51.256l-17.727 10.244c-10.675-17.982-25.731-33.062-43.68-43.755l6.713e-4 -7.6e-6zm61.081 105.26c-0.16141-10.029-1.5202-19.771-3.9234-29.098l19.767-5.3188c2.856 11.023 4.4587 22.544 4.6229 34.409l-20.467 0.007431-1.831e-4 4.578e-4z"/>
<path d="m314.65 202.15h-0.0058289l-3.6627-0.086548-0.0048523-2.0682c-0.10577-66.475-54.174-120.56-120.53-120.56-66.349 0-120.41 54.082-120.53 120.56l-0.004364 2.1178h-28.442l0.0024261-2.1261c0.11161-82.185 66.94-149.05 148.97-149.05 82.034 0 148.86 66.862 148.97 149.05l0.0028992 2.093-4.5235 0.070023h-20.249l0.0064774-3.05e-5zm0.0029297-0.49785h20.241l4.0305-0.062225-0.0028992-1.6019c-0.10965-81.911-66.714-148.55-148.47-148.55-81.754 0-148.36 66.639-148.47 148.55l-0.0014572 1.6273h27.448l0.0033951-1.6209c0.10918-66.749 54.4-121.05 121.02-121.05 66.626 0 120.91 54.305 121.02 121.05l0.0029297 1.5831 3.1765 0.074875 0.0084304-9.16e-5zm0.052399-3.2486l-0.0038757-0.24504c-1.0869-67.53-56.825-122.47-124.25-122.47-67.4 0-123.14 54.922-124.25 122.43l-0.0038757 0.24504h-20.967l0.0033913-0.25233c0.53815-38.359 15.905-74.383 43.269-101.44 27.388-27.078 63.593-41.99 101.95-41.99 38.357 0 74.567 14.915 101.95 42 27.365 27.061 42.73 63.092 43.26 101.46l0.0038757 0.25233-20.964 0.007309-0.004181 0.0034027zm-124.25-123.21c32.899 0 63.971 12.781 87.487 35.99 23.437 23.127 36.661 53.918 37.253 86.72l19.97-0.0072784c-1.2229-78.718-66.089-142.72-144.71-142.72-78.614 0-143.48 63.981-144.71 142.68h19.974c0.6022-32.795 13.831-63.577 37.266-86.694 23.517-23.201 54.584-35.978 87.474-35.978l0.0047035 0.0019531z"/>
<path d="m190.71 226.54c-14.417 0-26.145-11.751-26.145-26.196 0-14.445 11.729-26.196 26.145-26.196 14.417 0 26.146 11.751 26.146 26.196 0 14.445-11.729 26.196-26.146 26.196zm0-50.4c-13.321 0-24.157 10.858-24.157 24.204 0 13.346 10.837 24.204 24.157 24.204 13.321 0 24.158-10.858 24.158-24.204 0-13.346-10.837-24.204-24.158-24.204z"/>
<path d="m328.95 166.34c0.68436 2.3982 1.287 4.8238 1.7682 7.274 0.48099 2.4499 0.92514 4.9115 1.235 7.3922 0.64923 4.957 0.96387 9.9605 0.94214 14.959l-0.0020142 0.45325-0.44342-0.0030823c-2.4525-0.016907-4.9049-0.10324-7.3574-0.15622-2.4525-0.055359-4.9049-0.1633-7.3574-0.28995 2.4525-0.12665 4.9048-0.23459 7.3574-0.28995 2.4525-0.052978 4.9049-0.1393 7.3574-0.15622l-0.44522 0.44994c-0.1106-4.9657-0.42096-9.9231-0.93875-14.863-0.27359-2.4677-0.54819-4.9382-0.92068-7.3969-0.37225-2.4584-0.75787-4.918-1.1952-7.3742l-3.07e-5 2.442e-4z"/>
<path d="m315.81 131.79c1.3197 2.1571 2.5654 4.364 3.7026 6.6264 1.1317 2.2644 2.2451 4.5443 3.2057 6.8906 0.9783 2.3382 1.8919 4.7042 2.7391 7.0943 0.81473 2.4016 1.5534 4.8284 2.2287 7.272l0.11887 0.43015-0.42703 0.1143c-2.4686 0.66136-4.9601 1.2372-7.4427 1.8472-2.482 0.61148-4.9794 1.1654-7.4807 1.7049 2.4353-0.78592 4.8746-1.5574 7.3294-2.2713 2.4542-0.71524 4.8992-1.4648 7.3674-2.1289l-0.30798 0.54425c-0.707-2.4176-1.4861-4.8129-2.3222-7.1872-0.80365-2.3858-1.6739-4.7498-2.6092-7.0883-0.95306-2.3306-1.8832-4.6738-2.9212-6.9728-1.0323-2.3006-2.0825-4.5966-3.1805-6.8752l-9.15e-5 -4.884e-4z"/>
<path d="m292.78 100.78c1.9623 1.8142 3.8629 3.7011 5.6694 5.6756 1.8019 1.9777 3.5855 3.9801 5.2352 6.0915 1.6646 2.0991 3.2694 4.2464 4.8115 6.4387 1.5133 2.2126 2.9555 4.473 4.3347 6.7704l0.22647 0.37717-0.37265 0.22682c-2.3042 1.402-4.6546 2.7281-6.986 4.0853-2.331 1.3578-4.6928 2.6653-7.0627 3.9597 2.2374-1.5123 4.4827-3.0116 6.7587-4.4603 2.2754-1.4495 4.532-2.9303 6.8347-4.3347l-0.14609 0.60369c-1.4028-2.2632-2.8747-4.4826-4.4019-6.662-1.4985-2.1994-3.0606-4.3561-4.6836-6.4665-1.6378-2.0982-3.2624-4.2106-4.9829-6.2471-1.7161-2.0396-3.4524-4.066-5.235-6.0584l1.219e-4 1.223e-4z"/>
<path d="m264.55 78.585c2.1471 1.138 4.2572 2.3523 6.3095 3.6589 2.0478 1.3123 4.0872 2.6465 6.0477 4.0917 3.942 2.8615 7.6967 5.9842 11.242 9.3266l0.34744 0.32748-0.33432 0.32909c-1.8248 1.7959-3.6894 3.5519-5.5439 5.318-1.848 1.7727-3.7408 3.5004-5.6439 5.2177 1.7193-1.902 3.4492-3.7934 5.2235-5.64 1.7679-1.8531 3.5258-3.7164 5.3235-5.5396l0.013092 0.65628c-3.5956-3.2412-7.3207-6.3325-11.157-9.2846-1.9283-1.4617-3.8525-2.9343-5.8372-4.3251-1.9806-1.3966-3.9722-2.7818-5.9907-4.1364l-6.1e-5 -2.593e-4z"/>
<path d="m230.91 63.981c2.4148 0.56258 4.8147 1.2057 7.178 1.9645 2.3635 0.75806 4.72 1.5513 7.03 2.4679 4.6301 1.8059 9.1454 3.9142 13.501 6.3102l0.39105 0.21518-0.20642 0.38593c-1.1461 2.1439-2.3544 4.2549-3.5318 6.3822-1.1806 2.1256-2.4063 4.2275-3.6492 6.3202 1.0196-2.2107 2.0565-4.4121 3.1385-6.5898 1.0852-2.176 2.1394-4.3684 3.2559-6.5278l0.18466 0.60081c-4.3908-2.2624-8.8647-4.3539-13.419-6.2663-2.2818-0.94275-4.5655-1.8884-6.8847-2.747-2.3187-0.85779-4.6434-1.7088-6.9887-2.516l6.865e-4 -7.23e-5z"/>
<path d="m195.06 58.452c2.3869-0.06213 4.779-0.048687 7.1654 0.079159 2.3861 0.12785 4.7749 0.28468 7.1507 0.56756 4.7545 0.53609 9.4774 1.3726 14.126 2.5076l0.43459 0.10614-0.099686 0.42727c-0.53496 2.2935-1.1375 4.5718-1.7076 6.8572-0.57243 2.2851-1.1957 4.5585-1.8375 6.8278 0.39514-2.3252 0.80869-4.6463 1.2731-6.9554 0.46698-2.3089 0.90126-4.6252 1.4032-6.926l0.33482 0.5331c-4.649-0.99859-9.33-1.8291-14.039-2.4892-2.356-0.31534-4.7138-0.63914-7.0827-0.87475-2.3688-0.23558-4.7409-0.46828-7.1214-0.66015l-3.052e-4 -2.977e-4z"/>
<path d="m158.9 62.012c2.2831-0.65229 4.5903-1.233 6.9207-1.6993 2.3297-0.46798 4.6696-0.90608 7.0274-1.221 4.7118-0.65737 9.4667-1.0209 14.223-1.0824l0.45874-0.0058784-0.0032958 0.44996c-0.016373 2.304-0.10515 4.6082-0.15593 6.912-0.056732 2.304-0.16138 4.6082-0.28729 6.912-0.12592-2.304-0.23058-4.6082-0.28741-6.912-0.050674-2.304-0.13953-4.6082-0.15582-6.912l0.45515 0.44389c-4.7239 0.19825-9.4374 0.55561-14.135 1.0846-2.347 0.2781-4.6977 0.54933-7.038 0.90661-2.3395 0.35885-4.682 0.71939-7.022 1.1236l-1.219e-4 -5.72e-5z"/>
<path d="m123.61 75.199c2.0107-1.2207 4.0622-2.3819 6.1686-3.4334 2.1025-1.0589 4.2266-2.0827 6.3974-2.999 2.1631-0.93507 4.3656-1.7772 6.5836-2.5726 2.2226-0.78271 4.4662-1.5065 6.7334-2.1463l0.4321-0.12188 0.11099 0.42199c0.53804 2.0456 1.0297 4.104 1.547 6.1555 0.50464 2.0548 0.98207 4.1173 1.4287 6.1883-0.68474-2.0047-1.3385-4.018-1.9651-6.0388-0.61406-2.0245-1.2537-4.0416-1.8469-6.0719l0.54291 0.29991c-2.2299 0.7135-4.4504 1.4543-6.6526 2.2461-2.207 0.77904-4.3908 1.621-6.5695 2.4779-2.1709 0.87562-4.3443 1.7516-6.4896 2.698-2.1415 0.95377-4.2884 1.9034-6.4211 2.8964l2.366e-4 -1.298e-4z"/>
<path d="m93.347 96.914c1.6985-1.7717 3.4552-3.4931 5.2968-5.119 1.8369-1.6308 3.7049-3.2323 5.6505-4.7356 3.8776-3.0236 7.948-5.8041 12.186-8.2953l0.38659-0.22732 0.21784 0.37966c1.1297 1.969 2.2081 3.9683 3.3146 5.9509 1.0973 1.9882 2.1637 3.9946 3.2061 6.0151-1.2569-1.8941-2.4898-3.8023-3.6917-5.7286-1.1927-1.932-2.4136-3.8472-3.5831-5.7927l0.60413 0.15224c-4.1338 2.6041-8.172 5.3533-12.095 8.2653-1.9549 1.4643-3.9107 2.9318-5.8154 4.4673-1.9002 1.5404-3.803 3.0828-5.6768 4.6682l-1.296e-4 -1.374e-4z"/>
<path d="m70.254 125.11c1.1269-2.0572 2.3232-4.0802 3.615-6.0406 1.292-1.9598 2.6101-3.9073 4.0302-5.7793 2.8159-3.7624 5.8738-7.3455 9.146-10.717l0.31205-0.32151 0.31731 0.30259c1.6799 1.6022 3.3131 3.2543 4.9682 4.8831 1.6541 1.6297 3.2715 3.2988 4.8764 4.981-1.7783-1.4971-3.5441-3.0075-5.2733-4.5572-1.7283-1.5505-3.4783-3.0778-5.1816-4.655l0.62907-0.018921c-3.1564 3.4397-6.1874 6.9895-9.0874 10.649-1.4378 1.8385-2.8844 3.674-4.2599 5.5646-1.3757 1.89-2.7496 3.7851-4.092 5.7088l3.81e-5 5.721e-4z"/>
<path d="m55.005 159.45c0.54202-2.3466 1.1645-4.6784 1.9003-6.9741 0.73607-2.2954 1.5053-4.5846 2.3972-6.8271 1.7556-4.4956 3.8099-8.8764 6.1432-13.1l0.22192-0.40178 0.38976 0.22354c2.062 1.1825 4.0905 2.4248 6.1348 3.639 2.0434 1.2155 4.0608 2.4777 6.0691 3.7558-2.1325-1.0572-4.256-2.1302-6.3534-3.2498-2.0965-1.1211-4.209-2.2139-6.2878-3.3667l0.61138-0.17822c-2.2023 4.2581-4.2386 8.5979-6.1019 13.016-0.91754 2.2141-1.8401 4.4293-2.6753 6.6802-0.8354 2.2505-1.6635 4.5069-2.4494 6.7838l7.64e-5 -3.814e-4z"/>
<path d="m49.716 197c-0.12631-2.5159-0.16954-5.0401-0.080498-7.5606 0.079811-2.5207 0.21446-5.0432 0.47483-7.5546 0.50534-5.0231 1.3365-10.018 2.5266-14.924l0.10793-0.44487 0.42614 0.12297c2.1215 0.61206 4.2328 1.2622 6.3496 1.8913 2.113 0.64334 4.2202 1.3084 6.3182 2.0075-2.1624-0.46152-4.3156-0.95705-6.4628-1.4742-2.1434-0.53142-4.2925-1.042-6.4313-1.5905l0.53376-0.32162c-1.0225 4.9105-1.8579 9.8557-2.4661 14.835-0.29665 2.4897-0.58097 4.9835-0.7826 7.4871-0.1923 2.5036-0.37953 5.011-0.5136 7.5272l-1.106e-4 -1.372e-4z"/>
<path d="m140.42 255.03c0.031403-0.15784 0.047211-0.3735 0.047211-0.64722 0-0.15793-0.010635-0.31294-0.031403-0.46568-0.021362-0.15245-0.057938-0.28935-0.11041-0.41045-0.052566-0.12088-0.13148-0.21556-0.23622-0.28407-0.10515-0.068405-0.24188-0.10265-0.40964-0.10265-0.18912 0-0.36244 0.042099-0.51985 0.12625-0.15771 0.084427-0.29706 0.19217-0.4176 0.3237-0.12094 0.13162-0.21545 0.28409-0.28363 0.45773-0.068573 0.17363-0.10255 0.35516-0.10255 0.54456 0 0.27382 0.070953 0.48421 0.21288 0.63138 0.14171 0.14757 0.32805 0.26845 0.5592 0.36313 0.23106 0.094788 0.49371 0.17364 0.78795 0.23688 0.29376 0.06311 0.59856 0.13681 0.91367 0.22095 0.26245 0.073669 0.52512 0.16846 0.78767 0.28409 0.26247 0.11597 0.4964 0.27103 0.70113 0.46567 0.20493 0.19485 0.37039 0.44748 0.4962 0.75772 0.12613 0.31058 0.18913 0.6973 0.18913 1.1602 0 0.66306-0.13139 1.221-0.39384 1.6733-0.26256 0.45255-0.625 0.8208-1.087 1.1051-0.46242 0.28409-1.011 0.48941-1.6465 0.61557-0.63554 0.12634-1.3262 0.18945-2.0717 0.18945-0.75627 0-1.3734-0.050079-1.8513-0.14984-0.4781-0.099945-0.85353-0.2077-1.1267-0.32379-0.32567-0.13654-0.56715-0.29456-0.72469-0.47357l0.53577-2.1626h2.773c-0.010727 0.094666-0.021164 0.22372-0.031708 0.38663-0.010437 0.16339-0.015594 0.29202-0.015594 0.38681 0 0.12637 0.015594 0.258 0.047302 0.39471 0.031403 0.13672 0.081192 0.26306 0.14957 0.37888 0.068176 0.11578 0.16537 0.21048 0.29147 0.28406 0.12602 0.0737 0.28354 0.11053 0.47266 0.11053 0.21008 0 0.39642-0.047302 0.55931-0.14218 0.16278-0.094604 0.29932-0.21298 0.40964-0.35498 0.11021-0.14218 0.19418-0.30008 0.25212-0.47375 0.057541-0.17364 0.086563-0.34442 0.086563-0.513 0-0.23129-0.05516-0.42615-0.16536-0.58408-0.11032-0.15781-0.25989-0.29202-0.44901-0.40244-0.18912-0.11053-0.40706-0.20523-0.65392-0.28418-0.24686-0.078888-0.50157-0.16034-0.76393-0.24478-0.25223-0.073364-0.51758-0.16299-0.79581-0.26822-0.27846-0.10513-0.53317-0.25259-0.76421-0.44199-0.23096-0.18951-0.42287-0.42877-0.575-0.71832-0.15236-0.28937-0.22849-0.66025-0.22849-1.1129 0-0.67329 0.17073-1.2392 0.51199-1.697 0.34128-0.45772 0.77208-0.82872 1.292-1.1128 0.51997-0.28426 1.0896-0.48669 1.7096-0.60777 0.61943-0.12088 1.2075-0.1815 1.7645-0.1815 0.73514 0 1.3681 0.086822 1.8985 0.26047 0.53041 0.17366 0.93207 0.37637 1.2055 0.60768l-0.58296 2.1942h-2.6155l3.03e-5 6.11e-5z"/>
<path d="m147.41 258.83l-0.70906 3.315h-3.403l2.1269-10.024h3.6394c0.59886 0 1.1449 0.031555 1.6387 0.094696 0.49362 0.063126 0.91907 0.18948 1.2762 0.37886 0.35707 0.18948 0.63524 0.46053 0.83507 0.81303 0.19936 0.35266 0.29933 0.82352 0.29933 1.4127 0 0.54745-0.086762 1.0657-0.25998 1.555-0.17331 0.48941-0.45178 0.91559-0.83521 1.2787-0.38332 0.36295-0.87981 0.6499-1.4888 0.86032-0.60919 0.21057-1.3497 0.31561-2.2213 0.31561h-0.89821l6.1e-5 9.16e-5zm0.9454-1.0103c0.31494 0 0.58018-0.13141 0.79555-0.39459 0.21524-0.26297 0.39384-0.58408 0.53575-0.96292 0.14172-0.37888 0.24408-0.77357 0.30708-1.1839 0.063095-0.41045 0.094711-0.76808 0.094711-1.0735 0-0.28418-0.047211-0.52335-0.14192-0.71832-0.094406-0.19446-0.29942-0.29204-0.61436-0.29204h-0.70906l-0.99261 4.6252h0.72487v-3.04e-5z"/>
<path d="m154.73 252.12h6.6331l-0.25212 1.1997h-3.214l-0.66177 3.0466h2.6943l-0.25223 1.184h-2.6943l-0.72461 3.3781h3.2139l-0.23631 1.2155h-6.6329l2.1269-10.024-4.57e-5 9.15e-5z"/>
<path d="m162.49 252.12h6.6331l-0.25223 1.1997h-3.214l-0.66185 3.0466h2.6943l-0.25212 1.184h-2.6943l-0.72467 3.3781h3.214l-0.23631 1.2155h-6.6329l2.1269-10.024v9.15e-5z"/>
<path d="m168.13 262.15l2.1269-10.024h4.2382c0.65112 0 1.2211 0.065903 1.7096 0.19734 0.48825 0.13174 0.89261 0.34999 1.2132 0.65506 0.3201 0.3053 0.56178 0.70515 0.72467 1.1997 0.16278 0.49487 0.24428 1.0998 0.24428 1.8154 0 0.7683-0.09729 1.5209-0.29147 2.2573-0.19449 0.73669-0.51756 1.3946-0.96895 1.9732-0.45178 0.57901-1.0426 1.0447-1.7726 1.3971-0.73015 0.35287-1.6307 0.52881-2.7019 0.52881h-4.5217l-7.63e-5 9.16e-5zm4.3168-1.1049c0.34665 0 0.65392-0.14459 0.92189-0.43402 0.26782-0.28946 0.49878-0.65768 0.69325-1.1052 0.19418-0.44714 0.35687-0.94174 0.48825-1.4839 0.13129-0.54187 0.23633-1.0655 0.31522-1.5706 0.078613-0.50513 0.13637-0.95746 0.17332-1.3576 0.036591-0.39986 0.05516-0.68391 0.05516-0.85231 0-0.32611-0.065872-0.58151-0.19707-0.76567-0.13139-0.18402-0.35986-0.27632-0.68535-0.27632h-0.75627l-1.6859 7.8458h0.67748v-2.136e-4z"/>
<path d="m179.19 258.1h4.9631l-0.31523 1.4366h-4.9786l0.33073-1.4366h1.52e-5z"/>
<path d="m191.15 251.96c0.81927 0 1.4914 0.11588 2.0167 0.34729 0.52524 0.23151 0.94002 0.58937 1.2448 1.0734 0.20987 0.32629 0.37265 0.69728 0.48824 1.1129 0.11566 0.4158 0.17332 0.88672 0.17332 1.4128 0 0.44199-0.042053 0.89453-0.12582 1.3575-0.084183 0.46323-0.20493 0.91037-0.36244 1.3419-0.15752 0.43164-0.34424 0.83929-0.55949 1.2234-0.21538 0.38425-0.45427 0.71832-0.71674 1.0022-0.47264 0.52652-1.0137 0.89752-1.6228 1.113-0.60927 0.21555-1.3499 0.3237-2.2216 0.3237-0.84048 0-1.5204-0.09491-2.0403-0.28436-0.51987-0.1893-0.93208-0.49438-1.2366-0.91544-0.25224-0.3049-0.43877-0.6918-0.55951-1.1602-0.12076-0.46808-0.18097-1.0128-0.18097-1.6339 0-0.55759 0.052368-1.1021 0.1575-1.6338 0.10484-0.53128 0.2598-1.0286 0.46471-1.4917 0.20471-0.463 0.45416-0.88397 0.7484-1.2628 0.29376-0.37886 0.63017-0.69981 1.0084-0.963 0.44104-0.31573 0.93201-0.55501 1.473-0.71832 0.54092-0.16299 1.1581-0.24463 1.8512-0.24463v-4.58e-5zm-1.7173 9.203c0.2099 0 0.41202-0.11041 0.60651-0.33166 0.19429-0.22095 0.37547-0.51288 0.54359-0.87601 0.16797-0.36295 0.31763-0.77856 0.44901-1.247 0.13118-0.46817 0.24428-0.95218 0.33868-1.4523 0.094711-0.49976 0.16795-0.98911 0.22054-1.468 0.052551-0.47874 0.078903-0.91803 0.078903-1.3181 0-0.53668-0.047195-0.90755-0.14172-1.1128-0.094604-0.20532-0.23114-0.30797-0.40964-0.30797-0.22072 0-0.4308 0.10803-0.63016 0.3237-0.19986 0.21577-0.38362 0.49994-0.55156 0.85245-0.16815 0.35278-0.32288 0.76041-0.46481 1.2234-0.14169 0.4632-0.26265 0.93669-0.36243 1.4207-0.099777 0.48413-0.1759 0.96298-0.22847 1.4364-0.052582 0.47366-0.078613 0.90527-0.078613 1.2945 0 0.58945 0.057556 0.99731 0.17331 1.2234 0.11539 0.22632 0.26775 0.33936 0.45686 0.33936v-6.11e-5z"/>
<path d="m195.94 258.1h4.9631l-0.31523 1.4366h-4.9787l0.33083-1.4366h-1.52e-5z"/>
<path d="m213.1 262.15h-3.4976l1.4495-6.8192-3.7342 6.8191h-2.1427l-0.70901-7.0562-1.5123 7.0562h-1.4181l2.1269-10.024h4.0176l0.48834 5.6514 3.025-5.6514h4.0491l-2.1427 10.024 1.374e-4 3.05e-5z"/>
<path d="m216.8 252.12h6.6332l-0.25223 1.1997h-3.2139l-0.66187 3.0466h2.6943l-0.25212 1.184h-2.6943l-0.72467 3.3781h3.214l-0.23642 1.2155h-6.6329l2.127-10.024 1.53e-5 9.15e-5z"/>
<path d="m232.04 253.32h-2.5365l-1.8748 8.8243h-3.4034l1.875-8.8243h-2.5051l0.28363-1.1997h8.4294l-0.26793 1.1997h-2.442e-4z"/>
<path d="m233.15 252.12h6.6332l-0.25221 1.1997h-3.2139l-0.66188 3.0466h2.6943l-0.25212 1.184h-2.6943l-0.72469 3.3781h3.214l-0.23631 1.2155h-6.633l2.1269-10.024-4.57e-5 9.15e-5z"/>
<path d="m248.61 254.5c0 0.62112-0.17332 1.1946-0.51994 1.7206-0.34653 0.52631-0.91927 0.92618-1.7175 1.1997l1.8278 4.7198h-3.5135l-1.3865-4.3726h-0.17332l-0.92961 4.3726h-3.4032l2.1269-10.024h4.1438c0.48286 0 0.9398 0.029068 1.3706 0.086807 0.4306 0.057953 0.80608 0.17355 1.1265 0.34721 0.3201 0.17366 0.5751 0.41591 0.76393 0.7262 0.18912 0.31055 0.28381 0.71832 0.28381 1.2234l6.1e-5 1.526e-4zm-4.5376 2.2575c0.27289 0 0.50664-0.092102 0.70113-0.27631 0.1942-0.18411 0.35172-0.40771 0.47266-0.6709 0.12054-0.26295 0.20731-0.54465 0.25987-0.84456 0.052582-0.29991 0.078827-0.56038 0.078827-0.78143 0-0.27353-0.047211-0.50752-0.14183-0.70248-0.094513-0.19444-0.29942-0.29202-0.61436-0.29202h-0.70908l-0.78766 3.5677h0.74046l-1.53e-5 3.05e-5z"/>
<path d="m252.15 261.48l0.22359 4.1805c0.08458 1.5011-0.9122 3.0165-2.3938 3.5556-0.36771 0.13394-0.75726 0.21268-1.1529 0.23328l-1.0437 0.041229-2.0861 0.076782-4.1722 0.15353c-5.563 0.17166-11.126 0.33215-16.689 0.43164-5.563 0.1376-11.126 0.16827-16.689 0.24921l-16.689 0.082458-16.689-0.078461c-5.563-0.083252-11.126-0.10971-16.689-0.24872-5.563-0.10007-11.126-0.25989-16.689-0.43216l-4.1722-0.15454-2.0861-0.07724-1.0438-0.040924c-0.39583-0.020813-0.7856-0.099762-1.1536-0.2338-1.4825-0.53979-2.4789-2.0561-2.3944-3.5579l0.22498-4.1805 0.2254 4.18c0.051178 1.3131 1.017 2.4623 2.2018 2.7715 0.29475 0.077087 0.59706 0.10944 0.89719 0.098999l1.0424-0.040527 2.0861-0.07727 4.1722-0.15454c5.563-0.17224 11.126-0.33206 16.689-0.43213 5.563-0.13901 11.126-0.1655 16.689-0.24872l16.689-0.078461 16.689 0.082428c5.563 0.080933 11.126 0.11163 16.689 0.24924 5.5628 0.099457 11.126 0.25995 16.689 0.43164l4.1722 0.15353 2.0861 0.076752 1.0424 0.040649c0.30032 0.010437 0.60295-0.022034 0.898-0.099274 1.1858-0.30997 2.1512-1.4602 2.2024-2.7738l0.224-4.18h4.57e-5z"/>
<path d="m130.77 251.57l-0.037262-2.0657c0.0089417-0.68872-0.080399-1.3744 0.039444-2.0763 0.26447-1.3933 1.483-2.549 2.9133-2.7254 2.7781-0.091598 5.5061-0.089401 8.2614-0.13869l16.494-0.13861 32.988-0.116 32.988 0.1143 16.494 0.1389c2.7547 0.045303 5.4852 0.057053 8.26 0.12984 1.4354 0.14867 2.6731 1.2853 2.9631 2.6721 0.14511 0.69829 0.04393 1.3888 0.055649 2.0757l-0.037552 2.0657-0.037567-2.0657c-0.035477-0.68471 0.036179-1.39-0.12671-2.0413-0.31613-1.3166-1.5165-2.345-2.8434-2.444l-8.2334 0.095688-16.494 0.1389-32.988 0.11432-32.988-0.11601-16.494-0.1386c-2.7415-0.025803-5.5148-0.099579-8.23-0.086044-1.3234 0.12495-2.5065 1.1725-2.7988 2.4963-0.13853 0.65538-0.07811 1.3604-0.11081 2.0449l-0.037277 2.0657-1.984e-4 4.56e-5z"/>
<path d="m326.05 334.4h0.0066528-0.0066528z"/>
<path d="m190.65 9.0052c-105.13 0-190.65 85.672-190.65 190.98 0 54.946 23.284 104.53 60.474 139.42l-0.026325 0.44373h0.502c11.803 10.995 24.987 20.518 39.27 28.261l-0.020325 0.28226h0.55355c26.799 14.418 57.411 22.611 89.9 22.611 31.995 0 62.762-7.8384 90.14-22.611h0.27533l-0.010437-0.14484c10.481-5.6765 20.457-12.379 29.821-20.039h0.0032349l-1.831e-4 -0.002533c5.2581-4.3022 10.327-8.8991 15.173-13.802 35.605-35.945 55.212-83.681 55.212-134.42-1e-7 -105.31-85.507-190.98-190.61-190.98l-1.22e-4 0.0051804zm133.29 323.3c-1.089 1.1019-2.1898 2.1876-3.3009 3.2589l-0.81152-12.427-0.91794 14.056c-2.6952 2.5353-5.448 4.9875-8.2634 7.3448l-0.75653-11.715-0.84155 13.032c-2.708 2.2171-5.4696 4.3495-8.2801 6.4011l-0.81647-11.1-0.90933 12.362c-2.6905 1.9173-5.4282 3.7534-8.2047 5.5185l-0.82401-10.824-0.90607 11.902c-2.7237 1.69-5.4856 3.3078-8.2854 4.8505l-0.74673-10.373-0.80859 11.232c-2.7346 1.4731-5.5041 2.8744-8.3047 4.206l-0.8244-10.085-0.88916 10.877c-2.71 1.2545-5.4488 2.4429-8.2154 3.5642l-0.83334-9.8496-0.89233 10.546c-2.7108 1.067-5.448 2.067-8.2081 3.0052l-0.83752-9.692-0.88774 10.272c-2.7151 0.89325-5.4505 1.7301-8.2087 2.4979l-0.84134-9.5511-0.88159 10.008c-2.7191 0.72873-5.4566 1.3997-8.2134 2.0056l-0.84288-9.4329-0.87553 9.7982c-2.7224 0.57153-5.4618 1.0824-8.2167 1.5331l-0.84546-9.3627-0.87041 9.6399c-2.7434 0.42273-5.5027 0.78094-8.2747 1.0829l-0.7928-9.3354-0.80795 9.513c-2.7527 0.27625-5.5201 0.48438-8.2974 0.6405l-0.83255-9.332-0.841 9.4262c-2.7363 0.1297-5.4842 0.19617-8.2407 0.20819l-0.8562-9.36-0.85606 9.3587c-2.7545-0.012695-5.4958-0.082092-8.2214-0.21313l-0.86047-9.4208-0.85182 9.3253c-2.7535-0.15744-5.4939-0.36523-8.2147-0.64093l-0.87135-10.08-0.85452 9.8857c-2.7542-0.30487-5.493-0.66144-8.2107-1.0849l-0.873-10.015-0.84801 9.7288c-2.7596-0.45666-5.4999-0.96988-8.218-1.5462l-0.87215-9.7942-0.83879 9.4202c-2.7648-0.61346-5.5062-1.2885-8.224-2.023l-0.87514-9.9345-0.8342 9.4702c-2.7684-0.77664-5.5094-1.6188-8.2247-2.5182l-0.87888-10.158-0.82986 9.5912c-2.7881-0.95337-5.5485-1.967-8.276-3.0467l-0.83201-10.418-0.77927 9.7574c-2.7913-1.1352-5.5494-2.3352-8.272-3.5994l-0.88634-10.749-0.82047 9.9499c-2.8119-1.3401-5.5862-2.7467-8.3194-4.2208l-0.79807-11.098-0.73773 10.26c-2.8128-1.5511-5.5797-3.1747-8.3027-4.8637l-0.89761-12.07-0.81773 10.996c-2.7894-1.7722-5.5335-3.6097-8.2214-5.5225l-0.89907-12.236-0.80767 10.993c-2.8012-2.0413-5.5455-4.1559-8.2274-6.3455l-0.90314-12.98-0.805 11.57c-2.8423-2.3768-5.6118-4.8375-8.3087-7.3755l-0.82447-13.882-0.73653 12.402c-2.8506-2.7446-5.6139-5.5791-8.288-8.4977l-0.91367-15.292-0.80008 13.39c-2.8521-3.1986-5.5991-6.4925-8.2307-9.8817l-0.90714-16.943-0.78854 14.728c-2.884-3.8291-5.6308-7.767-8.222-11.815l-0.9276-20.297-0.80094 17.526c-2.9467-4.7845-5.6824-9.7114-8.2007-14.766l-0.9364-26.412-0.80901 22.816c-3.12-6.6126-5.8709-13.433-8.216-20.438l-0.91314-23.506-0.71414 18.383c-5.2316-17.266-8.0567-35.571-8.0567-54.526 0-103.66 84.187-188 187.67-188 103.46 0 187.63 84.336 187.63 188 0 18.749-2.7212 37.082-7.974 54.541l-0.79694-18.896-0.9938 23.565h0.31497c-2.3802 7.2179-5.1989 14.276-8.4413 21.142l-0.81778-23.054-0.94696 26.699c-2.4968 5.0018-5.2325 9.8904-8.1807 14.664l-0.81018-17.707-0.93692 20.479c-2.5753 4.0103-5.3105 7.9306-8.2021 11.755l-0.79901-15.099-0.91791 17.346c-2.6167 3.3551-5.3532 6.6342-8.212 9.8289l-0.80768-13.499-0.92081 15.39c-1.6023 1.7427-3.2292 3.468-4.9037 5.1586l-9.766e-4 9.766e-4 -9.55e-5 0.0028073z"/>
<path d="m190.61 200.03s88.887-116.14 146.18-161.72l63.212-22.789s-64.336 81.657-202.97 182.42c-2.9694 2.1581-4.9552 2.1035-6.4231 2.0928l-0.0015869-0.0033998z"/>
<path class="clear" d="m377.42 31.362c-9.6914 10.84-19.948 21.139-30.315 31.31-10.371 10.174-21.08 19.983-31.743 29.843-10.867 9.6332-21.708 19.292-32.823 28.636l-16.771 13.895c-5.6966 4.5073-11.323 9.0915-17.122 13.475 5.2508-5.0268 10.637-9.8891 15.924-14.865l16.074-14.674 32.214-29.243 64.562-58.376 7.017e-4 -6.732e-4z"/>
<path d="m157.09 150.2c-9.7134 0-17.615-7.9153-17.615-17.645 0-9.7314 7.902-17.649 17.615-17.649 9.7107 0 17.611 7.9173 17.611 17.649 0 9.7301-7.9 17.645-17.611 17.645zm0-34.299c-9.1654 0-16.622 7.4704-16.622 16.653 0 9.1804 7.4567 16.65 16.622 16.65 9.1627 0 16.617-7.4691 16.617-16.65 0-9.1824-7.4547-16.653-16.617-16.653z"/>
<path d="m157.09 155.09c-12.406 0-22.499-10.11-22.499-22.537 0-12.429 10.093-22.541 22.499-22.541 12.403 0 22.493 10.112 22.493 22.541 0 12.427-10.09 22.537-22.493 22.537zm0-43.087c-11.31 0-20.511 9.2184-20.511 20.55 0 11.329 9.2014 20.546 20.511 20.546 11.307 0 20.505-9.2164 20.505-20.546 0-11.332-9.1987-20.55-20.505-20.55z"/>
<path d="m111.99 199.1c-4.1116 0-8.0574-1.4269-11.253-4.0986-3.6136-3.0202-5.836-7.268-6.2592-11.962-0.42316-4.6936 1.0039-9.2725 4.0179-12.893 3.0139-3.6201 7.254-5.8474 11.939-6.2713 4.6875-0.42159 9.2567 1.0063 12.869 4.026 3.6122 3.0197 5.8347 7.2687 6.2578 11.964 0.42316 4.6922-1.004 9.2699-4.0178 12.89-3.0143 3.6202-7.254 5.8469-11.939 6.2709-0.54013 0.048569-1.0787 0.072861-1.6144 0.072861l-2.67e-4 7.172e-4zm0.039757-34.3c-0.4984 0-1.0005 0.022293-1.5067 0.067993-4.4202 0.40018-8.4207 2.5015-11.265 5.9174-2.844 3.416-4.1906 7.7362-3.7912 12.165 0.3989 4.4286 2.4961 8.4369 5.906 11.286 3.4093 2.8496 7.7214 4.1957 12.142 3.7985 4.4202-0.39967 8.4207-2.5009 11.265-5.9169 2.844-3.4155 4.1906-7.7349 3.7912-12.162-0.77833-8.6387-8.0454-15.157-16.541-15.157v-2.746e-4z"/>
<path d="m111.99 203.79c-5.2029 0-10.195-1.8058-14.241-5.1867-4.5726-3.8219-7.386-9.1984-7.9214-15.138-1.1054-12.265 7.9527-23.145 20.193-24.253 12.237-1.1094 23.101 7.9714 24.206 20.237 0.53526 5.9382-1.2703 11.731-5.085 16.311-3.8145 4.5814-9.1807 7.3996-15.109 7.936-0.6832 0.061722-1.3655 0.092407-2.0434 0.092407l2.67e-4 4.273e-4zm0.049492-42.676c-0.60899 0-1.2219 0.027298-1.8401 0.08316-11.149 1.0089-19.399 10.918-18.392 22.09 0.48716 5.4098 3.0498 10.307 7.2147 13.787 4.1645 3.4806 9.4294 5.1268 14.833 4.6401 5.3994-0.48808 10.287-3.0552 13.761-7.228 3.4744-4.1719 5.119-9.4482 4.6312-14.857-0.95055-10.552-9.8294-18.516-20.207-18.516l-3.968e-4 -9.16e-5z"/>
<path d="m269.73 199.1c-9.7127 0-17.615-7.9159-17.615-17.645 0-9.7314 7.9027-17.649 17.615-17.649 9.7107 0 17.611 7.9173 17.611 17.649 0 9.7301-7.9007 17.645-17.611 17.645zm0-34.299c-9.1654 0-16.622 7.4704-16.622 16.653 0 9.1804 7.456 16.65 16.622 16.65 9.1634 0 16.618-7.4691 16.618-16.65 0-9.1824-7.4547-16.653-16.618-16.653z"/>
<path d="m269.73 203.59c-12.179 0-22.087-9.9251-22.087-22.125 0-12.202 9.908-22.129 22.087-22.129 12.177 0 22.083 9.9271 22.083 22.129-1e-7 12.2-9.906 22.125-22.083 22.125zm0-42.262c-11.083 0-20.099 9.0341-20.099 20.137 0 11.101 9.016 20.133 20.099 20.133 11.08 0 20.095-9.0314 20.095-20.133 0-11.104-9.0147-20.137-20.095-20.137v-1.53e-5z"/>
<path d="m224.67 150.2c-9.7127 0-17.615-7.9153-17.615-17.645 0-9.7314 7.9027-17.649 17.615-17.649 9.7107 0 17.611 7.9173 17.611 17.649 0 9.7301-7.9007 17.645-17.611 17.645zm0-34.299c-9.1654 0-16.622 7.4704-16.622 16.653 0 9.1804 7.456 16.65 16.622 16.65 9.1634 0 16.618-7.4691 16.618-16.65 0-9.1824-7.4547-16.653-16.618-16.653z"/>
<path d="m224.67 154.52c-12.097 0-21.939-9.859-21.939-21.976 0-12.12 9.8421-21.981 21.939-21.981 12.094 0 21.933 9.861 21.933 21.981 0 12.117-9.8387 21.976-21.933 21.976zm0-41.966c-11.001 0-19.951 8.9673-19.951 19.99 0 11.02 8.95 19.985 19.951 19.985 10.997 0 19.945-8.9653 19.945-19.985 0-11.023-8.948-19.99-19.945-19.99z"/>
</svg>
