<?xml version="1.0" encoding="utf-8"?>
<svg enable-background="new 0 0 400 400" version="1.1" viewBox="0 0 400 400" xml:space="preserve" width="400px" height="400px" xmlns="http://www.w3.org/2000/svg">
	<style type="text/css">
		.clear{fill:#fff;}
		.dark-shade{fill:#bbbfc3;}
		svg{fill:#253746;}
	</style>
	<path class="clear" d="m354.5 262.6l1.8-1.9c26.5-16.2 43.3-40.8 43.3-68.4 0-48.7-52.6-88.2-117.5-88.2-31.5 0-60.2 9.3-81.4 24.6-21.1-15.2-49.8-24.5-81.4-24.5-4.4 0-8.8 0.2-13 0.5 0 0-3.2-4.5-3.1-6.7 0.1-2.1-1-2.9-1.6-3.4 0.4-2.6-2.8-11.4-2.8-11.4s0 0-0.4 0.1c-1.5-3.2-5.3-1.7-6.7-1.2-10.2 3.9-7.5 25.9-7.5 25.9-47.7 11.2-82.4 44.6-82.4 84.2 0 27.6 16.9 52.2 43.4 68.4l1.8 1.9s5.5 21.4-30 38.7c36.1-7.7 55-12.3 65.7-22.9l2-1.9c11 2.6 22.7 3.9 34.9 3.9 31.6 0 60.2-9.3 81.4-24.5 18.6 13.4 43 22.2 70 24.1 0 0 0.9 1.6 2.5 3.3-1.5 1.1 0.5 2.3 2.1 3.3-1.2-0.1-0.1 2.3 1.5 3.2-1.2-0.1-0.8 2.8 0 4.3s1.4 3.3 2.2 6.2c-0.4 3.4 0.8 4.2 1.3 4.6-0.5 2.9 0.8 11.6 0.8 11.6s0.6 0 1-0.1c4.7 4.9 9.6 0.5 11-0.7 12.2-15.9 3.2-36 3.2-36 7.1-0.6 14-1.7 20.6-3.3l2 1.9c10.7 10.6 29.6 15.2 65.7 22.9-35.8-17.1-30.4-38.5-30.4-38.5z"/>
	<path class="dark-shade" d="m90.4 124.6c-4.6-8.4-5.8-13.7-7.3-28.4 0.9-15.6 12.2-15.6 12.2-15.6-2-3.4-6.3-4-8.5-3.4-13.4 6.3-10.2 32.4-10.2 32.4 2.3 8.9 6.1 13.9 7.4 17.2-0.4 3.8 10.5 15.2 10.5 15.2l-6.3 3s-11.3 5.1-15.3 4-13.4 5.6-15.4 6.2-7.1 2.9-11.1 10.4-3.1 13.3-2.4 16.1 7.6 7 7.6 7 0 0-1.9 2.2-3 8.5-2.6 11.9 2.9 7.1 7.1 11.4c-4 6.3 5.3 17.6 8 21.1-2.4 2.6 0.9 11.4 3.2 14.1s17 3.3 17 3.3-6.9-2.6-8.2-3.5-5.3-5-6.2-9.6 2.7-6.9 2.7-6.9c-6 0.4-7.6-4.6-9.9-9.5s0.3-9 1.3-10.6c-4.6-0.7-7-5.8-8.2-9.4-1.7-7.8 2-12.3 2.2-12.7 0.2-0.3 2.7-2.7 2.7-2.7s-5.2-1.5-8.2-6.9c-3.1-5.4 1.7-12.4 2.9-15.3 1.2-2.8 5.2-4.9 8.3-6.6 3-1.7 9.6-3.1 9.6-3.1s7 0 9.1-1.3 6.5-2.9 7.6-3.2c1.3-0.7 5.1-1.8 5.1-1.8s8-3.2 10.6-4c-0.7-1.8-7.3-10.8-8.7-12.6-1.5-1.9-4.5-7.2-4.7-8.4z"/>
	<path class="dark-shade" d="m281.9 316.2l-1.1-1s-2-9.4-1.2-11.2c-0.8-1.1-1.5-2-1.2-3.4s-2-6.9-2.6-8.1-2.1-2.5-0.6-3.4c-0.3-0.6-1.5-1.9-1.1-3.3-0.9-0.8-2.2-2-1.7-3.4-1.5-1.6-2.9-3.5-2.9-3.5s-7.3-11.1-11.3-14.8-9.8-13.6-10.7-15.4c-0.8-1.8-5.3-10.2-5.3-10.2l-11.9-19.9-3.9 7.9s10 16.1 11.3 20 4.4 12.9 9.8 17.6c5.3 4.7 17.2 15.7 17.9 18.1 0.7 2.5 2.5 3.3 3.5 3.6-0.4 2-0.8 4.4 0 4.7 0.8 0.2-1.1 1.7 0.6 2.9s2.5 6.9 2.8 8.8c0.3 1.8 0.3 3.8 2.1 4.3 1.1 0.7 1.5 9.2 1.5 9.2s3 8.5 8.5 7.2c5.6-1.2 10-3.4 10.3-9.9-2.3 1.9-6.7 7.9-12.8 3.2z"/>
	<path class="dark-shade" d="m334.3 246.2c-3.1 1.4-8.5 4.6-8.5 4.6s-5.8 3.2-9.4 3.1c-3.2 1.6-8.2 3.9-12.1 4.1-4 0.2-7.4 0.5-9.3-0.7-2.1 2.5-4.9 6.5-4.9 6.5l2.1 4.6 3.9-5.1s4.4 0.5 6 0 7-0.2 8.2-0.9c1.1-0.7 6.9-2.9 8.4-4 4.9-0.4 10.5-2.3 12.5-4.5s3.8-1.8 4.8-2.3c4.3-1.9 5.5-7.9 7.7-14.7-2.6 2.5-6.3 7.8-9.4 9.3z"/>
	<path class="dark-shade" d="m338.1 220.1c3 2.4 3.5 3.1 3.5 3.1s3.3-5.3 3.1-9.6c-1.5 1.8-6.2 6.3-6.6 6.5z"/>
	<path class="dark-shade" d="m342.8 198.1s1.3-4 0-8c-1.9 5.3-3 5.4 0 8z"/>
	<path class="dark-shade" d="m339.4 168.4c-1.8 2.9-3.4 5.3-3.4 5.3l2.8 2.1s1.2-5.1 0.6-7.4z"/>
	<path d="m101.3 168c0.6 0.5 1.1 1.2 1.5 1.9s0.7 1.5 0.9 2.3 0.3 1.6 0.3 2.4-0.2 1.6-0.4 2.4c0-0.8-0.1-1.6-0.2-2.4s-0.2-1.5-0.4-2.3c-0.3-1.5-0.9-2.9-1.7-4.3z"/>
	<path d="m104.5 184.9c0.7 0.3 1.3 0.8 1.8 1.4s0.8 1.4 1 2.1 0.2 1.5 0.2 2.3c0 0.4-0.1 0.8-0.1 1.1-0.1 0.4-0.2 0.7-0.3 1.1 0-0.4 0-0.7-0.1-1.1l-0.1-1.1c-0.1-0.7-0.2-1.4-0.4-2.1-0.3-1.4-0.9-2.7-2-3.7z"/>
	<path d="m97.6 212.9c0.4 0.7 0.6 1.5 0.8 2.2 0.2 0.8 0.4 1.5 0.5 2.3 0.2 1.6 0.2 3.2-0.2 4.7l-0.3-2.3c-0.1-0.8-0.2-1.5-0.3-2.3-0.1-1.5-0.4-3-0.5-4.6z"/>
	<path d="m100 210.4c0.7 0.7 1.1 1.6 1.5 2.5s0.6 1.9 0.7 2.8c0.2 1 0.2 1.9 0.2 2.9 0 0.5-0.1 1-0.1 1.4-0.1 0.5-0.1 1-0.2 1.4l-0.2-2.8c-0.1-0.9-0.2-1.9-0.3-2.8s-0.3-1.8-0.6-2.7-0.6-1.8-1-2.7z"/>
	<path d="m110 221.5c1.1 0.1 2.2 0.8 2.9 1.7 0.3 0.5 0.6 1 0.7 1.6 0.1 0.3 0.1 0.6 0.1 0.8 0 0.3 0 0.6-0.1 0.8-0.1-0.5-0.3-1.1-0.5-1.6s-0.4-1-0.7-1.4-0.7-0.8-1.1-1.1c-0.3-0.3-0.8-0.6-1.3-0.8z"/>
	<path d="m115.5 225.4z"/>
	<path d="m112.2 202.4c0.1 0 0.1 0 0 0 0.1 0 0.1 0 0 0z"/>
	<path d="m354.8 262.2l1.4-1.6c27.8-17 43.7-42.2 43.7-69.2 0-49.2-53.2-89.3-118.6-89.3-30.5 0-59.3 8.6-81.4 24.3-21.3-15.1-49.9-24.3-81.3-24.3-4.4 0-8.8 0.2-13.1 0.5v0.1c-0.4-0.7-0.8-1.4-1.2-2.2-0.6-1.3-1.1-2.6-1.3-3.9-0.1-0.7-0.3-1.5-0.7-2.2-0.2-0.4-0.5-0.8-0.9-1-0.1 0-0.1-0.1-0.2-0.1 0-0.9-0.2-1.7-0.3-2.6-0.2-1-0.4-1.9-0.7-2.9s-0.5-1.9-0.8-2.8-0.6-1.9-1-2.8l-0.1-0.3h-0.1c-1.3-1.6-3-2.3-5.1-2-3.1 0.4-6.5 3-8 6.2-3.1 6.9-3.3 14-2.3 20.2-23.4 5.6-44.5 16.8-59.3 31.7-15.3 15.4-23.5 33.9-23.5 53.4 0 27 15.9 52.2 43.7 69.2l1.4 1.6c0.4 2.4 2.7 21.5-29.5 37.2l-8 3.9 8.7-1.8c34.8-7.4 55-12.1 66.2-23.2l1.5-1.5c11.1 2.5 22.8 3.8 34.5 3.8 31.4 0 60.1-9.3 81.3-24.3 19 13.5 43.7 22 69.6 23.9v-0.4c0.1 0.2 0.3 0.3 0.4 0.5 0.3 0.3 0.6 0.7 0.9 1 0.4 0.4 0.9 0.8 1.5 1.2h-0.2c0 0.3-0.1 0.6-0.1 0.9s0 0.6 0.2 0.9c0.1 0.6 0.6 1.2 1.2 1.5 0.1 0.1 0.3 0.2 0.4 0.2 0 0.4 0 2.1 0.9 2.9 0.1 0.1 0.2 0.2 0.4 0.3-0.1 0.1-0.2 0.3-0.3 0.5-0.2 0.4-0.2 0.8-0.1 1.2s0.2 0.8 0.4 1.1l0.5 1c0.6 1.3 1.2 2.6 1.6 3.9 0.5 1.3 0.8 2.7 0.8 4.1 0 0.7 0.1 1.5 0.4 2.3 0.1 0.4 0.4 0.8 0.8 1.1 0 0 0.1 0.1 0.2 0.1-0.1 0.9 0 1.7 0 2.6 0.1 1 0.2 2 0.3 2.9 0.1 1 0.3 1.9 0.5 2.9s0.3 1.9 0.6 2.9l0.1 0.3h0.1c1.1 1.7 2.7 2.6 4.8 2.7h0.1c3.1 0 6.8-2.1 8.6-5.1 7.8-12.9 4.6-26.9 2.3-33.7 6.5-0.6 13-1.7 19.2-3.1l1.5 1.4c11.1 11.1 31.4 15.8 66.2 23.2l8.7 1.9-8-3.9c-32.2-15.8-29.9-34.9-29.5-37.3zm-257-179.2c0.1 0 0.1-0.1 0 0 0.4 0.7 0.6 1.5 0.9 2.2 0.3 0.9 0.6 1.9 0.8 2.8 0.3 0.9 0.5 1.9 0.7 2.8 0.1 0.8 0.3 1.5 0.3 2.3h-0.2c-0.4-0.6-0.7-1.3-1-2.1s-0.6-1.6-0.9-2.3c-0.6-1.5-1.1-3-1.7-4.6 0.2-0.3 0.5-0.5 0.7-0.8 0.2 0 0.3-0.2 0.4-0.3zm20.9 195.4c-11.8 0-23.4-1.3-34.6-3.9l-0.6-0.1-2.4 2.3c-9.5 9.4-25.3 14-57.6 21 28.4-16.7 24-35.4 23.8-36.3l-0.1-0.3-2-2.2-0.1-0.1c-27.2-16.6-42.8-41.2-42.8-67.5 0-38.1 32.6-71.4 81.1-83 2 9.5 6.4 16.5 6.5 16.6 0 1 0.4 1.7 0.7 2.4s0.7 1.3 1.1 2c0.8 1.3 1.6 2.5 2.4 3.7s1.7 2.4 2.5 3.6l2.6 3.5c0.9 1.2 1.8 2.3 2.5 3.5 0.3 0.5 0.6 0.9 0.8 1.4-0.7 0.2-1.6 0.5-2.4 0.9-1.2 0.6-7.6 3.2-9.3 3.5-1.5 0.3-2.3 0.8-2.8 1-0.1 0.1-0.2 0.1-0.2 0.1-2 0.4-4.7 1.7-6.6 2.7-0.4 0.2-0.8 0.4-1.1 0.6-1.5 0.7-5.6 1.1-7.1 1.2-5.6-0.3-10.3 2.4-14.4 4.8l-1.1 0.6c-4.7 2.6-7.7 12.1-7.8 12.6-0.1 0.6-1.2 5.8 0.4 8.1 1.4 2.1 3.8 5.4 7.4 6.7-1 0.9-1.8 1.8-2.5 2.9-0.9 1.4-1.6 3-1.9 4.7-0.2 0.8-0.2 1.7-0.2 2.5s0 1.6 0.1 2.5c0.1 1.6 0.3 3.3 0.9 4.9s1.5 3.1 2.7 4.3c0.6 0.6 1.2 1.2 1.9 1.7 0.8 0.6 1.6 0.9 2.4 1.2 0.1 0 0.2 0 0.3 0.1-0.8 1.3-1.3 2.7-1.6 4.2-0.2 1-0.2 2.1-0.1 3.1 0.1 1.1 0.4 2 0.6 3 0.6 1.9 1.3 3.9 2.5 5.5 1.2 1.7 2.7 3.1 4.5 4.2h0.1c0.1 0 0.2 0.1 0.3 0.1l0.2 0.1c0.2 0 0.3 0.1 0.5 0.1s0.3 0 0.5 0.1c-0.6 1.2-1.1 2.6-1.3 4-0.3 1.7-0.1 3.6 0.8 5.2 0.4 0.8 0.9 1.5 1.4 2.1l0.3 0.3c0.3 1.1 1 1.9 1.6 2.6 0.8 0.9 1.6 1.7 2.5 2.5s1.8 1.6 2.9 2.2c0.3 0.2 0.6 0.3 0.8 0.4 0.3 0.1 0.6 0.2 0.9 0.3l0.4 0.4c0.2 0 0.3 0.1 0.5 0.1 0.3 0.1 0.7 0.1 0.9 0.1 1.2 0.1 2.3 0.2 3.5 0.2 0.5 0 1.1 0 1.7-0.1 0.6 0.3 1.3 0.4 1.9 0.5 0.8 0.1 1.5 0.2 2.3 0.2 1.5 0.1 2.9 0.1 4.4 0l0.2 0.1c0.1 0.1 0.3 0.2 0.4 0.2 0.3 0.2 0.5 0.4 0.8 0.6 0.1 0.1 0.3 0.2 0.5 0.3s0.4 0.2 0.5 0.3c0.4 0.1 0.7 0.2 1.1 0.3 0.7 0.1 1.4 0.2 2.1 0.3l2.1 0.1 0.2 0.1c0.5 0.1 0.9 0.2 1.3 0.2 0.9 0.1 1.7 0.1 2.6 0.2 1.7 0.1 3.4 0.1 5.1 0 3.4 0 6.8-0.1 10.2-0.3 3.4-0.3 6.8-0.7 10.1-1.4s6.7-1.5 9.9-2.9c1.5-0.7 3.1-1.4 4.6-2.1 1.6-0.7 3.1-1.3 4.7-2.1 0.8-0.4 1.5-0.8 2.2-1.1s1.5-0.6 2.3-0.9l4.8-1.6c1.6-0.5 3.4-1.2 4.6-2.5 0.6-0.7 1-1.6 1-2.5s-0.3-1.8-0.7-2.5h-0.1c0.1 0.5 0.2 0.8 0.3 1.3 0.1 0.4 0.1 0.8 0 1.2-0.1 0.8-0.5 1.5-1.1 2s-1.3 0.9-2 1.2c-0.4 0.2-0.8 0.3-1.1 0.4-0.4 0.1-0.8 0.2-1.2 0.4-1.6 0.5-3.2 1-4.9 1.5-0.8 0.3-1.6 0.5-2.4 0.9-0.8 0.3-1.6 0.8-2.3 1.1-3 1.4-6.2 2.6-9.3 4.1-3 1.3-6.3 2.2-9.6 2.9s-6.6 1.2-10 1.4c-3.3 0.3-6.7 0.4-10.1 0.4h-5.1c-0.8 0-1.7-0.1-2.5-0.1-0.4 0-0.8-0.1-1.2-0.2l-0.2-0.1c-0.1 0-0.1-0.1-0.2-0.1-0.1-0.1 0 0-0.1-0.2 0-0.1 0-0.4-0.1-0.6s-0.1-0.4-0.1-0.6c0-0.4-0.1-0.8-0.1-1.3-0.1-0.8-0.1-1.7-0.1-2.5 0-1.7-0.1-3.4 0.2-5-0.3 0.8-0.4 1.7-0.5 2.5s-0.2 1.7-0.2 2.5c-0.1 0.8-0.1 1.7-0.1 2.5v1.3c0 0.2 0 0.4-0.1 0.7 0 0.2 0 0.4 0.1 0.6-0.3 0-0.6 0-0.9-0.1-0.7-0.1-1.3-0.2-1.9-0.4-0.3-0.1-0.6-0.2-0.9-0.3-0.1-0.1-0.3-0.1-0.4-0.2s-0.2-0.1-0.4-0.3l-0.9-0.6c-0.1-0.1-0.2-0.1-0.3-0.2 0.1-0.1 0.3-0.2 0.4-0.4l1.1-1.1c0.7-0.8 1.4-1.5 2-2.3-0.7 0.7-1.5 1.4-2.3 2-0.4 0.3-0.8 0.6-1.2 1-0.2 0.2-0.4 0.3-0.7 0.5h-0.1-0.1-0.1-0.1-0.2 0.1c-1.4 0.1-2.9 0.1-4.4 0-0.5 0-1-0.1-1.5-0.1 0.3-0.2 0.6-0.4 0.9-0.7 0.5-0.5 0.8-1 1.1-1.5 0.6-1.1 1-2.2 1.1-3.4-0.5 1.1-1.2 2-1.9 2.8-0.8 0.8-1.6 1.4-2.5 1.7-1.9 0.5-4.2 0.1-6.5 0-0.3 0-0.5-0.1-0.8-0.1-0.1 0-0.2 0-0.4-0.1l-0.4-0.1c-0.5-0.1-0.9-0.4-1.4-0.6-1-0.5-1.9-1.1-2.7-1.8l-0.1-0.1c0.2 0.1 0.4 0.2 0.7 0.3-0.7-0.4-1.4-0.9-2.1-1.5-0.3-0.3-0.7-0.6-1-0.9l-0.6-0.6-0.1-0.1c-1-1.2-1.9-2.6-2.5-4s-0.7-2.9-0.4-4.4c0.1-0.8 0.3-1.5 0.6-2.2 0.2-0.6 0.5-1.3 0.8-1.8h0.5 1.8v1.8c0.1 0.8 0.2 1.7 0.5 2.5 0.2 0.8 0.6 1.6 1 2.3s0.9 1.4 1.5 2c-0.5-0.7-1-1.3-1.3-2.1-0.4-0.7-0.6-1.5-0.8-2.3s-0.3-1.6-0.3-2.4c0-0.6 0-1.2 0.1-1.8h0.9c0.6 0 1.2-0.1 1.8-0.2 0.3 0 0.6-0.1 0.9-0.2l0.8-0.3 3.2-1.2 12.6-4.6 3.2-1.1 1.6-0.5 0.8-0.2 0.3-0.1h0.1 0.2c0.1 0 0.2 0 0.3-0.1 1.2-0.4 2.1-0.9 3.2-1.5 1-0.5 2-1.1 3-1.7 0.5-0.3 1-0.7 1.6-1 0.7 0 1.4 0 2 0.1-1.3 0.8-2.6 1.8-3.5 3-0.2-0.2-0.4-0.3-0.5-0.5 0.8 1.3 1.7 2.5 2.5 3.8s1.6 2.5 2.1 4c0-0.8-0.2-1.5-0.4-2.3-0.3-0.7-0.7-1.4-1.1-2.1-0.4-0.6-0.9-1.3-1.4-1.8-0.3-0.4-0.7-0.8-1.1-1.1 0.6-0.6 1.2-1.1 1.8-1.5 0.7-0.5 1.4-0.9 2.2-1.3 0.1 0 0.2-0.1 0.2-0.1 0.6 0.2 1.2 0.4 1.7 0.8 0.6 0.4 1.1 1.1 1.5 1.8s0.6 1.5 0.6 2.3v0.1c0 0.5 0.1 1.1 0.1 1.7-0.5 0.7-1.1 1.2-1.8 1.7s-1.4 0.9-2.3 1c0.9 0 1.7-0.4 2.4-0.8 0.6-0.3 1.1-0.7 1.6-1.2 0 0.5 0 1-0.1 1.5 0 0.7-0.3 1.4-0.8 2s-1 1.2-1.7 1.8c-1.3 1.1-2.7 2-4.3 2.8-1.5 0.8-3.1 1.6-4.7 2.2l-2.4 0.9c-0.4 0.1-0.8 0.3-1.2 0.4-0.2 0.1-0.5 0.1-0.7 0.2v-1.5c-0.1-0.8-0.2-1.6-0.3-2.3-0.2-0.8-0.4-1.5-0.7-2.2s-0.7-1.4-1.2-2c0.4 0.7 0.7 1.4 1 2.1 0.2 0.7 0.4 1.5 0.5 2.2 0.1 0.8 0.1 1.5 0.1 2.3 0 0.5 0 1.1-0.1 1.6h-0.1l-0.2 0.3c-0.7 1.2-2 2.2-3.2 3.1-1.3 0.9-2.6 1.8-4 2.6l-4.2 2.4c-1.4 0.8-2.8 1.5-4.3 2.3 1.5-0.5 3.1-1.1 4.5-1.7 1.5-0.6 3-1.3 4.4-2 1.5-0.7 2.9-1.5 4.3-2.4 0.7-0.4 1.4-0.9 2-1.5 0.6-0.5 1.1-1 1.5-1.7 0.4-0.1 0.7-0.2 1.1-0.3s0.9-0.3 1.3-0.4c0.8-0.3 1.7-0.6 2.5-1 1.6-0.7 3.3-1.4 4.8-2.3 1.6-0.9 3.1-1.8 4.5-3 0.7-0.6 1.4-1.3 1.9-2.1s1-1.8 1-2.8v0.1c0.1-0.7 0.1-1.4 0.1-2.1s0-1.3-0.1-2c0-1.1-0.3-2-0.7-2.9s-1.1-1.7-2-2.3c-0.8-0.6-1.8-0.9-2.7-1.1-0.2 0-0.5-0.1-0.7-0.1 0.7-0.5 1.4-1.1 2-1.7 0.8-0.8 1.5-1.6 2.1-2.6 1.8 1.7 3.7 3.3 5.7 4.7 2.2 1.5 4.5 2.9 7 3.7-2.5-0.9-4.7-2.4-6.7-4-2-1.5-3.8-3.2-5.5-5.1 0.3-0.7 0.6-1.4 0.6-2.2v-0.1c0.2-0.6 0.3-1.2 0.3-1.8v-0.2c0.1-0.4 0.1-0.7 0.1-1.1 0-0.8-0.1-1.5-0.3-2.3-0.2-0.7-0.5-1.5-0.9-2.1-0.4-0.7-0.8-1.3-1.4-1.9-0.7-0.6-1.4-1.1-2.2-1.4s-1.6-0.6-2.5-0.7-1.7 0-2.5 0.1c-0.2 0-0.4 0.1-0.6 0.1 0.3-0.4 0.6-0.9 0.9-1.4 0.7-0.6 1.3-1.4 1.8-2.1 0.5-0.8 1-1.7 1.3-2.6 0.3-0.7 0.4-1.5 0.5-2.3 0.5 1.9 1.1 3.7 1.7 5.6-0.2-1.4-0.5-2.9-0.7-4.3l-0.8-4.3-0.9-4.3c-0.3-1.4-0.6-2.8-1-4.2-0.2-0.7-0.5-1.4-0.7-2.1l-0.6-2.1c-0.1-0.4-0.2-0.9-0.3-1.3 0.4-1.2 0.5-2.4 0.3-3.7-0.1-0.9-0.3-1.8-0.7-2.7v-0.9c-0.1-1.4-0.3-2.9-0.7-4.3-0.2 1.2-0.3 2.4-0.3 3.5 0-0.1-0.1-0.1-0.1-0.2l-0.4-0.4-0.5-0.5c-0.3-0.3-0.6-0.5-1-0.8-0.7-0.5-1.4-0.9-2.2-1.1-0.7-0.3-1.5-0.4-2.2-0.5 0.1-1.3 0.3-2.6 0.5-3.9 0.3-1.3 0.6-2.7 1-4s1-2.5 1.7-3.7 1.5-2.3 2.6-3.2c-1.1 0.9-2 1.9-2.7 3.1s-1.3 2.4-1.8 3.7-0.9 2.6-1.2 4c-0.3 1.3-0.5 2.6-0.7 4h-0.7c-0.4 0-0.7-0.1-1.1-0.1-0.8-0.1-1.7-0.2-2.6-0.2-0.5-1.8-1.2-3.5-1.9-5.2-0.8-1.8-1.7-3.5-2.6-5.2 0.8 1.8 1.6 3.5 2.2 5.3 0.6 1.7 1.2 3.4 1.5 5.1h-1.4c-3.2 0.1-6.2 1-9 2.2l-0.1-0.1c-0.1-0.8-0.3-1.5-0.6-2.2-0.3-0.8-0.6-1.5-0.9-2.2-0.4-0.7-0.8-1.4-1.4-2s-1.2-1.1-1.9-1.4c0.7 0.4 1.3 0.9 1.8 1.5s0.9 1.3 1.2 2 0.6 1.5 0.7 2.2l0.3 1.5c-0.1-0.1-0.2-0.1-0.3-0.2-0.4-0.2-0.8-0.5-1.3-0.7s-0.9-0.3-1.3-0.4c-1.7-0.5-3.4-0.9-5.1-1.3-3.5-0.6-7-0.8-10.4-0.1 3.5-0.3 6.9 0.2 10.2 1.1 1.7 0.4 3.3 1 4.9 1.6 0.4 0.2 0.9 0.3 1.2 0.4 0.3 0.2 0.7 0.3 1 0.6 0.7 0.4 1.3 1 2 1.5l0.6-0.6v0.1c2.8-1.2 5.7-2 8.6-2.1 1.5-0.1 3 0.1 4.5 0.2 0.4 0 0.8 0.1 1.2 0.1l1.2 0.1c0.7 0 1.4 0.2 2 0.4 0.7 0.2 1.3 0.6 1.9 1 0.1 0.1 0.2 0.1 0.2 0.2-0.7 0.3-1.3 0.7-1.8 1.1-0.5 0.5-1 1-1.4 1.5s-0.8 1.1-1.1 1.7c-0.3 0.5-0.6 1.1-0.8 1.7 0-0.1-0.1-0.2-0.1-0.2 0 0.1 0 0.3 0.1 0.4 0.2 1.2 0.5 2.4 0.7 3.5 0.1 0.6 0.2 1.3 0.2 1.9s-0.1 1.3-0.3 1.9c0.5-0.5 0.7-1.2 0.8-1.9s0.1-1.4 0-2.1-0.3-1.3-0.5-2c-0.2-0.5-0.4-1.1-0.7-1.6 0.7-1.1 1.4-2.2 2.2-3.2 0.8-0.9 1.8-1.8 2.9-2.2 1 1.1 1.6 2.5 1.9 4 0.3 1.2 0.5 2.4 0.5 3.6l-0.3 0.9c-0.2 0.3-0.3 0.7-0.6 1-0.2 0.1-0.4 0.3-0.5 0.4-0.6 0.4-1.2 0.8-1.8 1.1-1.3 0.7-2.6 1.3-3.9 1.9 1.4-0.4 2.7-1 4.1-1.6 0.4-0.2 0.7-0.4 1.1-0.5-0.3 0.3-0.7 0.6-1 0.9l-0.2 0.2c-0.1 0.2-0.4 0.5-0.6 0.7l-0.8 0.8-0.8 0.8-0.4 0.4-0.2 0.2-0.1 0.1c-0.7 0.3-1.4 0.6-2 1-2 1.1-3.7 2.3-5.6 3.1-0.9 0.4-1.9 0.8-2.9 0.9-0.2 0-0.4 0.1-0.6 0.1 0.2-1.2 0.2-2.3 0.2-3.5 0-1.3-0.2-2.7-0.3-4-0.3-2.6-0.8-5.3-1.4-7.8 0.5 2.6 0.8 5.2 1 7.9 0.1 1.3 0.2 2.6 0.1 4 0 1.2-0.1 2.4-0.4 3.5h-0.1-1.6-1.7c0.1-0.8 0.2-1.5 0.2-2.3v-2.7c0-1.8-0.1-3.6-0.3-5.4 0 1.8 0 3.6-0.1 5.4 0 0.9-0.1 1.8-0.2 2.7-0.1 0.8-0.2 1.6-0.4 2.3h-10.5l-6.4-0.1-3.2-0.1-1.6-0.1c-0.5 0-1.1-0.1-1.5-0.1h-0.3l-0.1 0.1 0.1-0.3c-0.4-0.1-0.8-0.2-1.2-0.4-0.7-1.2-1.3-2.6-1.6-4-0.3-1.5-0.5-3-0.4-4.6 0-1.5 0.2-3.1 0.5-4.6s0.7-3 1.3-4.4c-0.6 1.4-1.1 2.9-1.4 4.4-0.4 1.5-0.6 3-0.7 4.6s0 3.1 0.3 4.7c0.2 1.1 0.6 2.3 1 3.3-2.4-1.4-4-3.8-5.1-5.4-1-1.5-0.4-5.5-0.1-6.9 0-0.1 2.9-9.3 7.1-11.7l1.1-0.6c4.2-2.4 8.5-4.9 13.7-4.6v-0.7 0.7c0.2 0 5.6-0.4 7.7-1.4 0.3-0.2 0.7-0.4 1.1-0.6 1.9-1 4.5-2.3 6.3-2.6h0.1l0.6-0.3c0.4-0.2 1-0.6 2.3-0.9 2.1-0.4 8.7-3.2 9.7-3.6 0.8-0.4 1.7-0.7 2.4-0.9 0.1 0.3 0.2 0.6 0.3 1 0.9 2.7 1.4 5.5 2 8.4 0.4-2.9 0.3-5.9-0.4-8.9-0.1-0.4-0.2-0.7-0.3-1.1s-0.2-0.7-0.4-1.1c-0.3-0.7-0.7-1.4-1.1-2.1-0.8-1.3-1.7-2.5-2.5-3.6l-2.6-3.5-2.7-3.5c-0.9-1.2-1.7-2.3-2.5-3.5-0.4-0.6-0.8-1.2-1.1-1.8s-0.7-1.3-0.7-1.7c0-0.7 0.1-1.4 0.2-2.1s0.2-1.4 0.3-2.2c-0.4 0.6-0.7 1.3-1 2 0 0.1-0.1 0.2-0.1 0.3-2.5-4.3-10.8-20.7-3.8-36.4 1.3-2.7 4.2-5 6.8-5.3 1.5-0.2 2.8 0.3 3.7 1.4l-0.2 0.2c-0.3 0.3-0.6 0.6-0.9 1l-0.1 0.2 0.1 0.2c0.6 1.6 1.1 3.2 1.7 4.8 0.3 0.8 0.6 1.6 1 2.4s0.7 1.6 1.2 2.3h0.1c0.4 0.2 0.5 0.2 0.6 0.3s0.2 0.1 0.3 0.2c0.2 0.1 0.4 0.3 0.5 0.6 0.3 0.5 0.5 1.2 0.6 1.9 0.2 1.5 0.8 2.9 1.5 4.2s1.4 2.5 2.3 3.7v0.1h0.1l0.6 0.8c0.2 0.3 0.4 0.5 0.5 0.8 0.2 0.6 0.2 1.2-0.3 1.6-0.3 0-0.6 0.1-0.8 0.2v0.1c0.3 0 0.7 0 0.9 0.1 0.3 0.1 0.4 0.4 0.6 0.6 0.2 0.3 0.3 0.6 0.4 0.9 0.1 0.2 0.1 0.5 0.2 0.7-0.2 0-0.4 0-0.6 0.1-0.6 0.1-1.1 0.4-1.5 0.8 0.6-0.1 1.1-0.1 1.6-0.1s1 0.1 1.4 0.3 0.7 0.5 0.9 0.9l0.3 0.6c0 0.1 0.1 0.2 0.1 0.3-0.9-0.2-1.8-0.1-2.5 0.3l0.1 0.1c1.1-0.2 2.1 0.2 3.1 0.7 0.9 0.5 1.7 1.2 2.5 2 1.5 1.6 3.2 3.2 4.9 4.8 3.4 3.1 6.8 6 10.4 8.8 1.7 1.3 3.4 2.9 5 4.4 1.6 1.6 3.2 3.1 4.7 4.8s2.9 3.3 4.1 5.2c1.4 1.9 2.9 3.6 4.3 5.3 3 3.4 6.1 6.7 9.1 10.1 1.5 1.7 3.1 3.3 4.5 5 0.7 0.8 1.5 1.7 2.2 2.5s1.2 1.8 1.5 2.7c0.3 1 0.5 2 0.4 3s-0.4 2.1-0.7 3.2c-0.6 2.1-1.5 4.2-2.5 6.1-0.5 1-1.1 1.9-1.7 2.9s-1.3 1.8-1.9 2.8c-1.3 1.9-2.2 4.2-2.3 6.4 0.5-2.2 1.6-4.2 3-5.9 0.7-0.8 1.5-1.7 2.2-2.6s1.3-1.9 1.9-2.9c1.1-2 2.1-4.1 2.8-6.3 0.2-0.8 0.4-1.5 0.6-2.3 0.1 0.3 0.2 0.6 0.2 0.9 0.3 1.6 0.2 3.3-0.2 4.9-0.4 1.7-0.8 3.3-1.1 5s-0.7 3.3-0.9 5c0.4-1.7 0.8-3.3 1.3-5 0.5-1.6 1-3.3 1.5-4.9 0.6-1.7 0.7-3.5 0.5-5.2-0.2-1.6-0.6-3.2-1.3-4.7-0.1-0.2-0.1-0.5-0.2-0.7 0.9 0.4 1.7 0.9 2.2 1.6 0.2 0.2 0.3 0.5 0.3 0.8v0.4 0.6 2.2c-0.1 3-0.2 5.9-0.5 8.8s-0.7 5.9-1.2 8.8l-0.8 4.4c-0.3 1.4-0.5 2.9-1 4.3 0.5-1.4 0.8-2.9 1.1-4.3l1-4.3c0.7-2.9 1.2-5.8 1.6-8.8 0.4-2.9 0.7-5.9 0.9-8.9l0.1-2.2v-0.2c0.2 0.1 0.3 0.2 0.5 0.3 0.4 0.3 0.8 0.7 1.2 1.2 0.3 0.5 0.6 1 0.8 1.5 0.1 0.3 0.2 0.5 0.3 0.8l0.2 0.9-0.1-0.9c0-0.3-0.1-0.6-0.1-0.9-0.1-0.6-0.3-1.2-0.6-1.8s-0.6-1.1-1-1.6c-0.4-0.4-0.8-0.8-1.4-1.2-0.1-0.3-0.2-0.5-0.3-0.7-0.5-0.8-1.1-1.3-1.8-1.7s-1.4-0.7-2.1-0.9c-0.3-0.6-0.7-1.1-1.1-1.7-0.7-0.9-1.5-1.8-2.2-2.6-1.5-1.7-3-3.4-4.5-5.1-3-3.3-6.1-6.7-9.1-10.1-1.5-1.7-3-3.4-4.2-5.2-1.3-1.9-2.8-3.7-4.3-5.4-1.6-1.7-3.2-3.3-4.9-4.8s-3.4-3.1-5.2-4.5c-3.6-2.7-7-5.6-10.4-8.6-1.7-1.5-3.3-3-4.9-4.7-0.8-0.8-1.8-1.6-2.9-2.1h-0.1c0-0.3 0-0.5-0.1-0.8s-0.1-0.6-0.3-0.9c-0.3-0.6-0.8-1.1-1.4-1.3-0.2-0.1-0.3-0.1-0.5-0.1 0-0.3-0.1-0.7-0.2-1s-0.3-0.7-0.5-1c-0.2-0.2-0.3-0.4-0.5-0.5 0.2-0.3 0.3-0.6 0.4-0.9 0.1-0.4 0-0.9-0.1-1.3s-0.3-0.8-0.5-1.1l-0.3-0.4c3.9-0.3 7.9-0.5 11.8-0.5 64.2 0 116.5 39.1 116.5 87.1s-52.8 87.9-117 87.8zm-14.4-107.3c-0.3-1.2-0.7-2.3-1.5-3.3l0.1 0.1c0.8 0.9 1.2 2.2 1.4 3.5 0.1-0.1 0.1-0.2 0-0.3zm-0.5 7.4c0.5-0.6 1-1.3 1.3-2.1 0.1-0.2 0.2-0.3 0.2-0.5 0 0.2 0 0.4 0.1 0.7l0.3 2.2c0.1 0.7 0.1 1.5 0.3 2.2 0.1 0.6 0.2 1.3 0.4 1.9l-0.6-0.6c-0.4-0.4-0.9-0.7-1.5-1-0.3-0.1-0.6-0.2-1-0.3h-0.3-0.2-0.4c-0.4 0-0.8 0.1-1.2 0.1 0.1 0 0.1-0.1 0.2-0.1 0.3-0.2 0.5-0.5 0.8-0.8 0.6-0.6 1.1-1.1 1.6-1.7zm-1.4 3.8c0.6 0 0.8 0 1.2 0.2s0.8 0.5 1.1 0.8l0.1 0.1h-0.1c-0.2 0-0.5 0-0.7 0.1h-0.1c-0.4 0.4-0.8 0.8-1.1 1.3s-0.6 0.9-0.9 1.4-0.5 1-0.6 1.6c-0.2 0.5-0.2 1.1-0.3 1.6 0.1-0.5 0.2-1.1 0.5-1.6 0.2-0.5 0.5-1 0.7-1.4 0.3-0.5 0.6-0.9 1-1.3 0.3-0.4 0.7-0.8 1.1-1.1 0.2-0.1 0.5 0 0.8 0.1s0.6 0.3 0.8 0.5c0.5 0.4 0.8 1 1.1 1.6 0.5 1.3 0.6 2.7 0.5 4.1 0 1.4 0 2.8-0.8 4-0.4 0.6-0.7 1.3-1.1 1.8-0.4 0.6-0.8 1.1-1.4 1.6 1-0.5 1.7-1.4 2.3-2.4-0.2 0.3-0.3 0.5-0.5 0.8-0.5 0.7-1.1 1.4-1.7 1.9l-0.1 0.1-0.1 0.1c-0.7 1.3-1.8 2.6-2.8 3.7-0.8 1-1.7 1.9-2.7 2.6 0.1-0.7 0.1-1.4 0.2-2.1 0-1.2 0-2.4-0.2-3.5-0.2-1.2-0.4-2.3-0.8-3.4s-0.8-2.2-1.4-3.2c0.5 1 0.9 2.1 1.2 3.3 0.3 1.1 0.5 2.3 0.6 3.4s0.1 2.3 0 3.4c-0.1 0.9-0.2 1.8-0.4 2.8-1 0.7-2.1 1.4-3.3 2 0.2-2.2 0-4.5-0.3-6.6-0.4-2.3-0.9-4.6-1.5-6.8 0.5 2.3 0.9 4.5 1.1 6.8s0.3 4.6-0.1 6.9h0.1s-0.1 0-0.1 0.1c-0.7 0.3-1.4 0.6-2.2 0.8-0.7 0.2-1.5 0.4-2.3 0.6-3.1 0.6-6.3 1-9.5 1.4l-9.6 0.9-4.8 0.3h-0.6c-0.5-0.5-1-1.1-1.4-1.8-0.5-0.9-0.8-1.9-1.1-2.9-0.5-2-0.8-4.1-0.8-6.2-0.1 2.1 0.1 4.2 0.5 6.3 0.2 1 0.5 2.1 1 3 0.3 0.5 0.6 1.1 0.9 1.5-0.6 0-1.2-0.1-1.8-0.2l-0.3-0.3c-0.1 0.1-0.1 0.1-0.1 0.2-0.3-0.1-0.6-0.1-0.8-0.2-0.7-0.2-1.4-0.5-1.9-0.9-0.4-0.4-0.9-0.8-1.3-1.2-0.5-1-0.8-2-0.9-3.1-0.2-1.1-0.2-2.2-0.2-3.3s0.1-2.2 0.2-3.3 0.3-2.2 0.6-3.3c-0.3 1.1-0.6 2.2-0.8 3.3s-0.4 2.2-0.4 3.4c-0.1 1.1-0.1 2.3 0 3.4l0.3 1.8c-0.7-0.9-1.3-1.9-1.6-2.9-0.5-1.4-0.7-3-0.8-4.5-0.1-0.8-0.1-1.6-0.1-2.4s0.1-1.5 0.2-2.3c0.5-2.9 2.3-5.6 4.6-7.4 1.1 0.1 2 0.1 3 0.2l3.2 0.1 6.4 0.1c4.3 0 8.6 0.1 12.9 0h1.6c0.6 0 1.1-0.1 1.7-0.2 1.1-0.2 2.2-0.6 3.2-1 2-0.9 3.8-2.2 5.7-3.2 2.1-1 4-1.9 6-2zm9.3 32.2l1.3-0.8-0.3 0.3c-0.7 0.8-1.5 1.6-2.3 2.3-0.4 0.3-0.8 0.7-1.2 1 0.1-0.6 0.1-1.2 0-1.8 0.1 0.2 0.2 0.5 0.2 0.7l-0.3-0.9c0-0.3-0.1-0.7-0.1-1-0.2-1.1-0.5-2.1-0.9-3.1-0.1-0.2-0.2-0.5-0.3-0.7l-0.2-0.9-0.4-1.7c-0.1-0.5-0.2-1.1 0-1.6 0.3-1 1.2-1.7 2-2.6l0.3-0.3c0-0.1 0.1-0.1 0.1-0.1h0.1c0.2 0 0.4 0 0.7 0.1 0.5 0.1 1 0.4 1.4 0.7 0.9 0.6 1.6 1.5 1.8 2.5 0.3 1.1 0.5 2.2 0.5 3.3s-0.3 2.1-0.7 3.2l-1.8 1.2c-0.6 0.4-1.3 0.8-1.9 1.1 0.7-0.2 1.3-0.5 2-0.9zm-1.1-11.7c-0.3-0.1-0.6-0.1-1 0-0.1 0-0.2 0.1-0.3 0.1-0.1 0.1-0.1 0.2-0.2 0.2l-0.3 0.3c-0.7 0.8-1.7 1.6-2.1 2.9-0.2 0.6-0.1 1.2 0.1 1.8l0.1 0.3c-0.5-1-1.2-1.9-1.8-2.7 0.5 1 0.9 1.9 1.3 2.9s0.9 1.9 1.2 2.9c0.4 1 0.7 2 1 3s0.5 2 0.6 3c-1.3 1-2.7 1.9-4.1 2.8-0.9 0.6-1.9 1.1-2.9 1.7-1 0.5-2 1-2.9 1.4h-0.1-0.2c-0.2 0-0.4 0.1-0.5 0.1l-0.8 0.3-1.6 0.5-3.2 1.1-12.6 4.6-3.2 1.2-0.8 0.3c-0.2 0.1-0.4 0.1-0.7 0.2-0.5 0.1-1.1 0.1-1.6 0.2-1.1 0.1-2.2 0.1-3.3 0h-0.5c-0.3-0.2-0.6-0.3-0.9-0.5-0.7-0.5-1.3-1-1.9-1.6-1.2-1.2-2.2-2.6-3-4.1 0.8 1.5 1.7 3 2.8 4.3 0.6 0.7 1.1 1.3 1.8 1.8-0.2 0-0.5 0-0.7-0.1-0.1 0-0.3 0-0.4-0.1h-0.2c-1.6-1-2.9-2.3-4-3.8s-1.8-3.3-2.3-5.1c-0.2-0.9-0.5-1.9-0.6-2.8s-0.1-1.8 0-2.7 0.4-1.8 0.8-2.6c0.2-0.5 0.5-1 0.9-1.5 1.1 0.2 2.2 0.2 3.2 0.1 1.6-0.1 3.2-0.2 4.9-0.3 3.2-0.2 6.5-0.5 9.7-0.9s6.4-0.8 9.6-1.4c0.8-0.2 1.6-0.3 2.4-0.6 0.8-0.2 1.6-0.6 2.4-0.9 1.5-0.7 2.9-1.6 4.3-2.6 1.3-1 2.6-2.2 3.6-3.5 0.4-0.5 0.7-0.9 1.1-1.4l0.5-0.1c0.4 0 0.8-0.1 1.1-0.1 0.8-0.1 1.5 0 2.3 0 0.7 0.1 1.5 0.3 2.1 0.6 0.6 0.2 1.2 0.6 1.7 0.9-0.3 0-0.6-0.1-0.8-0.1zm-2.4-12.6v-0.5 0.5zm93.6 64.7c13.2-9.7 23.3-21.8 29.3-35.2 0.1 0.4 0.3 0.8 0.5 1.2 0.3 0.8 0.7 1.5 1 2.3 0.7 1.5 1.5 3 2.4 4.4l5 8.6c1.6 2.9 3.3 5.7 4.8 8.6 0.4 0.7 0.7 1.4 1 2.2l0.5 1.2 0.6 1.2c0.8 1.5 1.6 3 2.5 4.4 1.8 2.8 3.7 5.6 5.8 8.2 0.5 0.7 1.1 1.3 1.6 1.9 0.6 0.6 1.1 1.2 1.6 1.8 1.1 1.2 2.1 2.5 3.2 3.8 2.1 2.6 4.1 5.1 6.1 7.8 0.1 0.2 0.3 0.4 0.4 0.6-24.6-2.1-48-10.2-66.3-23zm79.6 60.1s-0.1 0-0.1 0.1c-0.2-0.8-0.3-1.6-0.5-2.4-0.2-1-0.3-1.9-0.5-2.9-0.1-1-0.2-1.9-0.3-2.9 0-0.8-0.1-1.6 0-2.3h0.2c0.3 0.6 0.5 1.4 0.8 2.2l0.6 2.4c0.4 1.6 0.7 3.2 1.1 4.7-0.3 0.2-0.5 0.5-0.8 0.7-0.2 0.2-0.4 0.3-0.5 0.4zm11.7-2.2c-1.6 2.5-4.7 4.4-7.4 4.4h-0.1c-1.5 0-2.7-0.7-3.5-1.9 0.1 0 0.1-0.1 0.2-0.1 0.3-0.3 0.7-0.6 1-0.9l0.2-0.1v-0.2c-0.3-1.7-0.7-3.3-1.1-5-0.2-0.8-0.4-1.7-0.6-2.5-0.3-0.8-0.5-1.6-0.9-2.5l-0.1-0.1c-0.3-0.3-0.4-0.3-0.6-0.4-0.1-0.1-0.2-0.1-0.3-0.2-0.2-0.1-0.3-0.4-0.4-0.7-0.2-0.6-0.3-1.3-0.3-2-0.1-1.5-0.4-3-0.9-4.4s-1.1-2.7-1.8-4l-0.5-0.9c-0.2-0.3-0.3-0.6-0.4-0.9-0.1-0.5-0.1-0.9 0.1-1.4 0.1 0 0.3 0.1 0.4 0.1h0.3l-0.1-0.7c-0.4 0.1-0.7 0-0.9-0.2-0.5-0.5-0.7-1.6-0.7-2.2h0.6c0.6 0 1.1-0.2 1.6-0.5-0.6 0-1.1-0.1-1.6-0.2s-1-0.3-1.3-0.5c-0.3-0.3-0.6-0.6-0.7-1-0.1-0.2-0.1-0.5-0.2-0.7 0-0.2 0-0.3-0.1-0.5h0.1c0.8 0.3 1.7 0.5 2.5 0.3-0.8 0.1-1.6-0.2-2.3-0.7-0.7-0.4-1.2-1-1.7-1.6-0.3-0.3-0.5-0.6-0.7-1l-0.6-1.1c-0.4-0.7-0.8-1.4-1.3-2.2-1.8-2.8-3.8-5.5-5.8-8.1-1-1.3-2.1-2.6-3.1-3.9-0.5-0.6-1.1-1.3-1.6-1.9s-1-1.2-1.5-1.9c-2-2.6-3.9-5.3-5.6-8.1-0.9-1.4-1.7-2.8-2.4-4.2-0.2-0.4-0.4-0.7-0.5-1.1l-0.5-1.1c-0.3-0.8-0.7-1.6-1.1-2.3-1.6-3-3.3-5.8-5.1-8.6l-5.3-8.4c-0.9-1.4-1.8-2.8-2.7-4.2-0.7-1.1-1.5-2.2-2.3-3.4 3.9-8.8 6-18.2 6-28 0-14.4-4.6-28.1-12.7-40.1 1.1 0.2 2.3 0.2 3.5 0.2 3.3 0 6.6-0.4 8.4-0.7 0 0.1-0.1 0.1-0.1 0.2-1.1 1.9-1.8 4-2.4 6 0.8-2 1.8-3.9 3-5.6 0.2-0.3 0.4-0.5 0.6-0.8h0.2v-0.1c0.4-0.5 0.9-0.9 1.4-1.3 0.4-0.3 0.8-0.4 1.2-0.4 0.3 0 0.5 0.1 0.7 0.3-0.5 0.7-1 1.4-1.3 2.2-0.4 0.9-0.6 1.9-0.7 2.8 0 0.5 0 1-0.1 1.5l0.1 1.4v-1.4c0.1-0.5 0.1-1 0.2-1.4 0.2-0.9 0.4-1.9 0.8-2.7 0.4-0.9 0.9-1.6 1.6-2.3 0.3-0.3 0.6-0.6 1-0.8-0.1 0.3-0.1 0.5-0.1 0.8 0 0.8 0.2 1.6 0.5 2.2 0.1-0.8 0.1-1.5 0.3-2.1s0.6-1.1 1-1.5c1-0.8 2.3-1.1 3.6-1.3 0.7-0.1 1.4-0.2 2.1-0.2l2.2-0.2c1.5-0.2 2.9-0.3 4.4-0.6 0.8-0.1 1.5-0.3 2.2-0.5s1.4-0.4 2.1-0.5l4.2-0.9c1.4-0.3 2.9-0.6 4.3-1 1.4-0.3 2.8-0.5 4.2-0.6 5.7-0.5 11.5-0.3 17.2 0.4 2.8 0.4 5.7 0.9 8.6 1.4 1.4 0.3 2.8 0.5 4.3 0.8 1.4 0.3 2.8 0.6 4 1.1l0.4 0.2 0.1 0.1h0.1c0.6 0.1 1.3 0.3 1.9 0.5s1.2 0.4 1.8 0.7c0.3 0.1 0.5 0.3 0.8 0.4l0.3 0.3 0.3 0.3c0.2 0.3 0.5 0.5 0.7 0.8l0.4 0.4 0.2 0.2 0.2 0.1 0.1 0.1h0.1 0.1 0.1 0.2-0.1c1.4 0.2 2.9 0.5 4.3 0.8l2.1 0.6c0.5 0.2 1 0.4 1.4 0.6l-0.1 0.4 0.8 0.1c1.4 0.2 3 0.6 4.5 1l0.6 0.2 0.5 0.2c0.3 0.1 0.6 0.3 0.9 0.5l0.9 0.6c0.3 0.2 0.6 0.5 0.8 0.7 0.8 0.8 1.6 1.7 2.4 2.6-0.4-0.3-0.9-0.7-1.4-1 1.2 1.1 2.3 2.4 3 3.8 0.8 1.4 1.4 2.9 1.7 4.4s0.1 3-0.4 4.4c-0.3 0.7-0.6 1.4-1 2.1s-0.9 1.3-1.3 1.9l0.8 0.7 0.9 0.6 0.4 0.3c0.1 0.1 0.3 0.2 0.3 0.2l-0.1-0.1c0.6 0.7 1.2 1.4 1.7 2.1s1 1.5 1.4 2.3c0.7 1.7 1.1 3.5 1.2 5.3s0.1 3.7-0.2 5.5c-0.2 0.9-0.4 1.8-0.6 2.6s-0.6 1.7-1 2.4c-0.2 0-0.4-0.1-0.5-0.1 1 0.9 1.9 1.7 2.5 2.6 0.7 1 1.3 2 1.8 3.1 0.5 1 0.8 2.1 0.9 3.3s0.1 2.4 0 3.6l-0.3 1.8-0.2 0.9-0.2 0.8c-0.3 1.1-0.8 2.2-1.4 3.2s-1.3 1.9-2.2 2.8c-0.8 0.9-1.7 1.7-2.7 2.6 0.1 0 0.3-0.1 0.4-0.1 1.1 1.2 1.8 2.3 2.6 3.5s1.5 2.5 2.1 3.9l0.4 1.1 0.1 0.3c0 0.1 0.1 0.2 0.1 0.2 0 0.1 0.1 0.2 0.1 0.4 0.1 0.5 0 1.2-0.1 1.9-0.3 1.4-0.7 2.8-1.3 4.1-1.2 2.1-2.7 4.3-4.3 6.1-0.8 0.9-1.7 1.8-2.6 2.5-0.5 0.4-1 0.7-1.4 0.9-0.3 0.1-0.5 0.2-0.8 0.3s-0.7 0.2-1 0.4c-2.6 1.2-4.6 2.8-6.8 4.1-2.1 1.4-4.4 2.4-6.8 2.7h-0.1c-0.3 0.1-0.6 0.2-1 0.2-0.3 0.1-0.7 0.1-1 0.2h-0.2l-0.1 0.1-0.1 0.1c-1.6 0.9-3.3 1.6-4.9 2.3-1.7 0.7-3.5 1.3-5.2 1.5-0.4 0.1-0.9 0.1-1.3 0.1h-1.4c-1 0-1.9 0.1-2.9 0.2-0.9 0.1-1.8 0.2-2.7 0.1-0.6 0-1.1-0.2-1.5-0.4 1.7-1.9 3.5-3.6 5.6-4.9 1.1-0.7 2.3-1.2 3.6-1.4l4.1-0.5 1.1-0.1v0.1s0.1 0 0.1 0.1c0.1 0.2 0.2 0.4 0.2 0.6 0.1 0.3 0.1 0.7 0.1 1.1s-0.1 0.7-0.2 1.1-0.2 0.7-0.4 1.1c0.2-0.3 0.4-0.6 0.6-1s0.3-0.7 0.3-1.1c0.1-0.4 0.1-0.8 0.1-1.2v-0.1c0.6 0.3 1.2 0.7 1.8 1 0.9 0.4 1.8 0.9 2.7 1.1-0.9-0.5-1.6-1.1-2.3-1.7-0.4-0.4-0.8-0.8-1.3-1.2l1.3-0.2c1.3-0.2 2.7-0.3 4-0.7 0 0 0.1 0 0.1 0.1 0.6 0.2 1.2 0.5 1.9 0.7 0.6 0.2 1.3 0.4 2 0.5l-1.8-0.9c-0.6-0.3-1.2-0.7-1.7-1.1h-0.1-0.2-0.1c-1.4-0.1-2.8 0-4.2 0.2l-2.9 0.3c0.4-0.3 0.8-0.5 1.2-0.8l3.9-2.1c1.3-0.7 2.7-1.1 4.1-1.8 0.7-0.3 1.3-0.7 1.9-1.3 0.3-0.3 0.5-0.6 0.7-0.9s0.2-0.7 0.4-1c-0.2 0.3-0.3 0.7-0.5 1s-0.4 0.6-0.7 0.8c-0.6 0.5-1.2 0.8-1.9 1.1-1.3 0.6-2.8 0.9-4.2 1.5-1.4 0.5-2.8 1.1-4.1 1.8-1.3 0.6-2.6 1.3-3.9 2l-2.1 0.2c0.6-0.4 1.2-0.9 1.8-1.3 1.1-0.8 2.2-1.5 3.3-2.3 1.1-0.7 2.2-1.4 3.5-2-1.3 0.5-2.5 1.1-3.6 1.7-1.2 0.6-2.3 1.3-3.5 2-1.8 1.1-3.6 2.2-5.3 3.3-0.1 0.1-0.3 0.1-0.4 0.2-2.5 1.5-4.5 3.5-6.4 5.6s-3.5 4.4-5.1 6.7l-0.2 0.3 0.2 0.4c0.4 1 0.9 1.9 1.3 2.9l1.3 2.9c0.4 1 0.8 1.9 1.2 2.9 0.2 0.5 0.4 1 0.5 1.4 0.1 0.5 0.2 1 0.2 1.3l-1.2 4.1c0.6-0.5 1-1.1 1.4-1.7 0-0.1 0.1-0.1 0.1-0.2 1.6 4.8 7.4 21.1-1.4 35.6zm25.8-36.1l-2.4-2.3-0.6 0.1c-6.5 1.5-13.3 2.6-20.1 3.2-0.4-0.9-0.7-1.5-0.8-1.8 0-0.1 0.1-0.1 0.1-0.2 0.2-0.8 0-1.3-0.1-1.9s-0.3-1.1-0.4-1.6c-0.3-1-0.7-2.1-1.1-3-0.4-1-0.8-2-1.3-2.9-0.4-0.8-0.8-1.7-1.3-2.5 1.3-1.9 2.7-3.8 4.2-5.5 0.2 0.2 0.5 0.3 0.8 0.4 0.5 0.2 1.1 0.3 1.6 0.4 1 0.1 2-0.1 2.9-0.2s1.8-0.2 2.7-0.2h1.4c0.5 0 1 0 1.5-0.1 2-0.3 3.8-0.9 5.5-1.6 1.8-0.7 3.5-1.5 5.2-2.4h0.1l0.1-0.1c0.3 0 0.6-0.1 0.8-0.1 0.3 0 0.6-0.1 1-0.2 2.8-0.2 5.4-1.2 7.7-2.6 2.3-1.3 4.4-2.9 6.6-3.8 0.3-0.1 0.6-0.2 0.8-0.3 0.3-0.1 0.7-0.2 1-0.4 0.7-0.3 1.3-0.7 1.9-1.1 1.1-0.8 2.1-1.8 3-2.8 1.8-2.1 3.2-4.2 4.6-6.6 0.6-1.5 1.1-3 1.4-4.7 0.1-0.8 0.2-1.7 0-2.7 0-0.2-0.1-0.5-0.2-0.8-0.1-0.1-0.1-0.2-0.1-0.3l-0.1-0.3-0.5-1.1c-0.7-1.4-1.4-2.9-2.4-4.2-0.5-0.6-1.2-1.2-1.9-1.7-0.7-0.4-1.4-0.7-2.2-0.7 2.3-0.6 4.3-2.3 5.7-4.3 0.7-1.1 1.3-2.4 1.6-3.7l0.2-1 0.2-0.9c0.1-0.6 0.2-1.3 0.2-1.9 0.2-1.3 0.2-2.6 0.1-3.9s-0.4-2.7-1-3.9-1.4-2.3-2.3-3.2c-0.5-0.5-1.1-0.9-1.7-1.2 0.5-0.7 0.8-1.5 1.2-2.2 0.4-0.9 0.7-1.9 0.8-2.9 0.3-2 0.3-4 0.2-5.9-0.2-2-0.7-3.9-1.5-5.8-0.4-0.9-1-1.8-1.5-2.6-0.6-0.8-1.3-1.6-2-2.2l-0.1-0.1c-0.3-0.2-0.4-0.2-0.6-0.2s-0.4-0.1-0.5-0.1h-0.5c1-1.2 1.8-2.5 2.3-4 0.6-1.6 0.8-3.5 0.3-5.2-0.3-0.8-0.6-1.6-1-2.4-0.2-0.5-0.5-0.9-0.7-1.3-0.4-1-0.9-2-1.4-2.9-0.8-1.4-1.7-2.7-2.9-3.8-0.3-0.3-0.6-0.6-0.9-0.8s-0.7-0.5-1-0.7c-0.4-0.2-0.7-0.5-1.1-0.6l-0.6-0.2-0.6-0.2c-1.4-0.4-2.8-0.9-4.4-1.1-0.7-0.5-1.4-0.8-2.1-1.1s-1.5-0.5-2.2-0.7c-1.4-0.4-2.8-0.6-4.3-0.9l-0.1-0.1-0.3-0.3-0.7-0.7-0.4-0.4c-0.2-0.1-0.3-0.3-0.5-0.4-0.3-0.2-0.7-0.4-1-0.6-0.7-0.3-1.4-0.5-2.1-0.7-0.6-0.2-1.3-0.3-2-0.4l-0.3-0.2c-0.8-0.3-1.5-0.6-2.2-0.8s-1.4-0.4-2.1-0.5c-1.4-0.3-2.9-0.6-4.3-0.9-2.9-0.5-5.7-1.1-8.6-1.5-5.8-0.7-11.7-1-17.6-0.4-1.5 0.2-2.9 0.4-4.4 0.7-1.4 0.4-2.8 0.7-4.2 1s-2.8 0.6-4.3 1l-2.1 0.6c-0.7 0.2-1.4 0.4-2 0.5-1.4 0.3-2.8 0.4-4.2 0.6l-2.2 0.2c-0.7 0.1-1.4 0.1-2.2 0.3-0.4 0.1-0.8 0.1-1.1 0.2-0.4 0.1-0.8 0.2-1.1 0.4-0.7 0.3-1.5 0.7-2 1.3-0.1 0.1-0.2 0.3-0.3 0.4-0.4 0.2-0.8 0.5-1.2 0.8-0.5-0.3-1.1-0.6-1.8-0.5s-1.3 0.4-1.8 0.8c-0.4 0.3-0.6 0.6-0.9 1v-0.1c-0.1 0-9.3 1.6-14.1 0.4-5.7-8.1-13-15.4-21.6-21.8 21.6-15.2 49.8-23.5 79.5-23.5 64.2 0 116.5 39.1 116.5 87.1 0 26.2-15.6 50.8-42.8 67.5l-0.1 0.1-2 2.2-0.1 0.3c-0.2 0.8-4.6 19.6 23.8 36.3-30.6-6.9-48.5-11.6-58.4-21.4z"/>
	<path d="m317.7 249.1s-0.1 0 0 0z"/>
	<path d="m101.4 191c0.4 0.7 0.9 1.5 1.2 2.2 0.4 0.8 0.7 1.5 1 2.3 0.2 0.8 0.4 1.6 0.5 2.5 0.3-0.8 0.2-1.8 0.1-2.6-0.2-0.9-0.5-1.7-0.9-2.5s-0.9-1.5-1.4-2.2c-0.3-0.3-0.6-0.7-0.9-1s-0.6-0.6-1-0.9c0.2 0.4 0.5 0.7 0.7 1.1l0.7 1.1z"/>
	<path d="m95.8 119.4c-1.6 1.5-3.1 3.2-4.2 5.1l2.3-2.3c0.8-0.8 1.6-1.5 2.4-2.3 0.8-0.7 1.6-1.4 2.5-2.1s1.8-1.3 2.7-1.9c-1.1 0.3-2.1 0.8-3 1.4-1 0.7-1.9 1.4-2.7 2.1z"/>
	<path d="m115.8 151.7c2-0.3 4-0.5 6-0.6s4 0 6 0.1l3 0.1h3c-1-0.1-2-0.3-3-0.4l-3-0.3c-1-0.1-2-0.2-3-0.2-1-0.1-2 0-3.1 0-2 0.1-4 0.4-6 0.8s-3.9 0.9-5.8 1.7l3-0.6c0.9-0.2 1.9-0.4 2.9-0.6z"/>
	<path d="m108.8 141.8c-0.5 0-1.1 0.1-1.6 0.2s-1 0.3-1.5 0.5-0.9 0.5-1.2 1c0.5-0.2 1-0.3 1.4-0.5l1.5-0.3 1.5-0.3c0.5-0.1 1-0.2 1.5-0.4-0.5-0.2-1-0.2-1.6-0.2z"/>
	<path d="m150 203.6l0.6-0.4c0.8-0.5 1.4-1.2 2.1-1.9-0.8 0.5-1.4 1.2-2.3 1.6l-0.6 0.4-0.6 0.3c-0.4 0.2-0.8 0.4-1.3 0.5-1.7 0.6-3.5 1-5.3 1.3s-3.7 0.4-5.5 0.5h-2.8c-0.9 0-1.9-0.1-2.8-0.1 1.8 0.4 3.7 0.6 5.6 0.7s3.7 0 5.6-0.3 3.7-0.7 5.4-1.5c0.4-0.2 0.8-0.4 1.3-0.6 0.1-0.3 0.4-0.4 0.6-0.5z"/>
	<path d="m162.3 220l-0.6-1.8c-0.3-0.6-0.5-1.1-0.8-1.7-1.2-2.1-3.1-3.9-5.2-5.1-1.1-0.6-2.2-1.1-3.4-1.5-1.2-0.3-2.4-0.6-3.6-0.7 2.4 0.4 4.6 1.3 6.6 2.6s3.7 3 4.9 5c0.3 0.5 0.5 1 0.8 1.6l0.6 1.7c0.3 1.1 0.5 2.3 0.7 3.5s0.4 2.4 0.5 3.6 0.2 2.4 0.2 3.6c0.3-2.4 0.2-4.8-0.1-7.2-0.1-1.2-0.3-2.4-0.6-3.6z"/>
	<path d="m136.8 215.2c-0.2-0.3-0.4-0.5-0.6-0.8-0.4-0.5-0.9-0.9-1.5-1.3-1.1-0.7-2.3-1.3-3.6-1.7-0.6-0.2-1.3-0.4-1.9-0.5s-1.3-0.3-1.9-0.4c-0.6-0.2-1.2-0.3-1.8-0.5l-0.9-0.3c-0.3-0.1-0.6-0.3-0.9-0.4-2.4-1-4.5-2.4-6.5-4-1-0.8-2-1.6-2.9-2.5-1-0.9-1.9-1.8-2.7-2.8 1.5 2.1 3.4 4 5.3 5.7 2 1.7 4.2 3.1 6.6 4.2 0.3 0.1 0.6 0.3 0.9 0.4l0.9 0.3c0.6 0.2 1.3 0.3 1.9 0.5 0.6 0.1 1.3 0.2 1.9 0.4s1.3 0.3 1.9 0.5c1.2 0.3 2.4 0.8 3.5 1.5 0.6 0.3 1.1 0.7 1.5 1.1 0.3 0.2 0.5 0.4 0.8 0.6 0.1 0.3 0.3 0.6 0.6 0.8-0.3-0.2-0.4-0.5-0.6-0.8z"/>
	<path d="m111.6 205.6c0.5 0.6 0.8 1.2 1.1 1.9 0.1 0.3 0.3 0.7 0.4 1.1l0.1 0.5c0 0.2 0.1 0.4 0.1 0.6 0.1 0.4 0.1 0.8 0.1 1.1 0 0.4 0 0.8 0.1 1.2l0.3-1.2c0-0.4 0.1-0.8 0-1.2 0-0.8-0.2-1.6-0.5-2.4s-0.8-1.4-1.3-2c-0.6-0.6-1.2-1.1-2-1.3 0.6 0.6 1.2 1.1 1.6 1.7z"/>
	<path d="m290.6 277.6c-0.9 0.6-1.8 1.2-2.8 1.8-0.9 0.6-1.9 1.1-2.9 1.6s-2 0.9-3 1.3c1.1-0.1 2.2-0.4 3.3-0.8 1-0.4 2-0.9 3-1.5 1.9-1.2 3.7-2.6 5.1-4.2l-2.7 1.8z"/>
	<path d="m279.7 257.6h-3.8c-2.6-0.2-5.1-0.5-7.6-1.1s-4.9-1.4-7.2-2.6c-0.6-0.3-1.1-0.6-1.7-0.9l-1.6-1c-0.3-0.2-0.6-0.3-0.8-0.5l-0.8-0.6c-0.5-0.4-1-0.8-1.6-1.2 1.9 1.8 3.9 3.4 6.2 4.6l0.9 0.5 0.9 0.4c0.6 0.3 1.2 0.5 1.8 0.8l1.8 0.6c0.6 0.2 1.3 0.3 1.9 0.5 2.5 0.6 5.1 0.9 7.7 1 2.6 0 5.2-0.2 7.7-0.8-1.2 0.2-2.5 0.3-3.8 0.3z"/>
</svg>