<?xml version="1.0" encoding="utf-8"?>
<svg enable-background="new 0 0 400 400" version="1.1" viewBox="0 0 400 400" xml:space="preserve" width="400px" height="400px" xmlns="http://www.w3.org/2000/svg">
	<style type="text/css">
		.shade{fill:#dfe1e3;}
		svg{fill:#253746;}
	</style>
	<path class="shade" d="m129 116.1h143.7c6.2 0 11.2-5 11.2-11.2v-37.5c0-6.2-5.1-11.2-11.2-11.2h-143.7c-6.2 0-11.2 5-11.2 11.2v37.5c-0.1 6.2 4.9 11.2 11.2 11.2z"/>
	<path class="shade" d="m25.1 234.6h97.1c6.2 0 11.2-5 11.2-11.2v-20.6c0-6.2-5.1-11.2-11.2-11.2h-97.1c-6.2 0-11.2 5-11.2 11.2v20.6c-0.2 6.2 5 11.2 11.2 11.2z"/>
	<path class="shade" d="m152.6 191.5c-6.2 0-11.2 5-11.2 11.2v20.6c0 6.2 5.1 11.2 11.2 11.2h97.1c6.2 0 11.2-5 11.2-11.2v-20.6c0-6.2-5.1-11.2-11.2-11.2h-97.1z"/>
	<path class="shade" d="m268.8 202.8v20.6c0 6.2 5.1 11.2 11.2 11.2h97.1c6.2 0 11.2-5 11.2-11.2v-20.6c0-6.2-5.1-11.2-11.2-11.2h-97c-6.1-0.1-11.3 4.9-11.3 11.2z"/>
	<path class="shade" d="m83 306.4h-71.3c-5.8 0-10.5 4.7-10.5 10.5v16.5c0 5.8 4.7 10.5 10.5 10.5h71.3c5.8 0 10.5-4.7 10.5-10.5v-16.5c0.1-5.8-4.7-10.5-10.5-10.5z"/>
	<path class="shade" d="m184.8 306.4h-71.3c-5.8 0-10.5 4.7-10.5 10.5v16.5c0 5.8 4.7 10.5 10.5 10.5h71.3c5.8 0 10.5-4.7 10.5-10.5v-16.5c0.1-5.8-4.7-10.5-10.5-10.5z"/>
	<path class="shade" d="m286.6 306.4h-71.3c-5.8 0-10.5 4.7-10.5 10.5v16.5c0 5.8 4.7 10.5 10.5 10.5h71.3c5.8 0 10.5-4.7 10.5-10.5v-16.5c0-5.8-4.7-10.5-10.5-10.5z"/>
	<path class="shade" d="m388.4 306.4h-71.3c-5.8 0-10.5 4.7-10.5 10.5v16.5c0 5.8 4.7 10.5 10.5 10.5h71.3c5.8 0 10.5-4.7 10.5-10.5v-16.5c0-5.8-4.7-10.5-10.5-10.5z"/>
	<path d="m388.4 305.3h-25v-16.5h-26.2v-52.9h40c6.9 0 12.4-5.6 12.4-12.4v-20.6c0-6.9-5.6-12.4-12.4-12.4h-46.5v-34.2h-127.7v-38.9h69.7c6.9 0 12.4-5.6 12.4-12.4v-37.6c0-6.9-5.6-12.4-12.4-12.4h-143.7c-6.9 0-12.4 5.6-12.4 12.4v37.5c0 6.9 5.6 12.4 12.4 12.4h69.5v38.9h-127.2v34.2h-46.2c-6.9 0-12.4 5.6-12.4 12.4v20.6c0 6.9 5.6 12.4 12.4 12.4h46.3v52.9h-26.3v16.5h-33.4c-6.4 0-11.7 5.2-11.7 11.6v16.5c0 6.4 5.3 11.6 11.7 11.6h71.3c6.4 0 11.7-5.2 11.7-11.6v-16.5c0-6.4-5.3-11.6-11.7-11.6h-33.4v-12h81.5v12h-17.6c-6.4 0-11.7 5.2-11.7 11.6v16.5c0 6.4 5.3 11.6 11.7 11.6h71.3c6.4 0 11.7-5.2 11.7-11.6v-16.5c0-6.4-5.3-11.6-11.7-11.6h-25v-12h81.5v12h-26.1c-6.4 0-11.7 5.2-11.7 11.6v16.5c0 6.4 5.3 11.6 11.7 11.6h71.3c6.4 0 11.7-5.2 11.7-11.6v-16.5c0-6.4-5.3-11.6-11.7-11.6h-9.2v-12h81.5v12h-41.8c-6.4 0-11.7 5.2-11.7 11.6v16.5c0 6.4 5.3 11.6 11.7 11.6h71.3c6.4 0 11.7-5.2 11.7-11.6v-16.5c0.1-6.3-5.2-11.5-11.6-11.5zm-269.6-200.4v-37.5c0-5.6 4.6-10.2 10.2-10.2h143.7c5.6 0 10.2 4.6 10.2 10.2v37.5c0 5.6-4.6 10.2-10.2 10.2h-143.7c-5.7-0.1-10.2-4.6-10.2-10.2zm-26.4 212v16.5c0 5.2-4.2 9.4-9.4 9.4h-71.3c-5.2 0-9.4-4.2-9.4-9.4v-16.5c0-5.2 4.2-9.4 9.4-9.4h71.3c5.2 0 9.4 4.2 9.4 9.4zm294.9-114.1v20.6c0 5.6-4.6 10.2-10.2 10.2h-97c-5.6 0-10.2-4.6-10.2-10.2v-20.6c0-5.6 4.6-10.2 10.2-10.2h97.1c5.6 0 10.1 4.5 10.1 10.2zm-234.7 30.7c-5.6 0-10.2-4.6-10.2-10.2v-20.6c0-5.6 4.6-10.2 10.2-10.2h97.1c5.6 0 10.2 4.6 10.2 10.2v20.6c0 5.6-4.6 10.2-10.2 10.2h-97.1zm-137.7-10.1v-20.6c0-5.6 4.6-10.2 10.2-10.2h97.1c5.6 0 10.2 4.6 10.2 10.2v20.6c0 5.6-4.6 10.2-10.2 10.2h-97.1c-5.6-0.1-10.2-4.6-10.2-10.2zm179.3 93.5v16.5c0 5.2-4.2 9.4-9.4 9.4h-71.3c-5.2 0-9.4-4.2-9.4-9.4v-16.5c0-5.2 4.2-9.4 9.4-9.4h71.3c5.2 0 9.4 4.2 9.4 9.4zm-38.9-28.2v16.5h-19.7v-16.5h-59.8v-52.9h46.3c6.9 0 12.4-5.6 12.4-12.4v-20.6c0-6.9-5.6-12.4-12.4-12.4h-46.3v-29.7h122.7v29.7h-45.9c-6.9 0-12.4 5.6-12.4 12.4v20.6c0 6.9 5.6 12.4 12.4 12.4h45.7v52.9h-43zm140.7 28.2v16.5c0 5.2-4.2 9.4-9.4 9.4h-71.3c-5.2 0-9.4-4.2-9.4-9.4v-16.5c0-5.2 4.2-9.4 9.4-9.4h71.3c5.2 0 9.4 4.2 9.4 9.4zm-23.1-28.2v16.5h-27v-16.5h-43v-52.9h46.8c6.9 0 12.4-5.6 12.4-12.4v-20.6c0-6.9-5.6-12.4-12.4-12.4h-46.7v-29.7h123.2v29.7h-46c-6.9 0-12.4 5.6-12.4 12.4v20.6c0 6.9 5.6 12.4 12.4 12.4h52.5v52.9h-59.8zm124.9 44.7c0 5.2-4.2 9.4-9.4 9.4h-71.3c-5.2 0-9.4-4.2-9.4-9.4v-16.5c0-5.2 4.2-9.4 9.4-9.4h71.3c5.2 0 9.4 4.2 9.4 9.4v16.5z"/>
</svg>
