<?xml version="1.0" encoding="utf-8"?>
<svg enable-background="new 0 0 400 400" version="1.1" viewBox="0 0 400 400" xml:space="preserve" width="400px" height="400px" xmlns="http://www.w3.org/2000/svg">
	<style type="text/css">
		.clear{fill:#fff;}
		.shade{fill:#dfe1e3;}
		.dark-shade{fill:#bbbfc3;}
		svg{fill:#253746;}
	</style>
	<path class="clear" d="m200 281.9l-42.4 0.1v-3.5h20.6l0.1-13.5-27.2 0.3-3.4-12h55.5s11.9 0.8 13.8-9.4c0.3-10.6 6.1-163.2 6.1-163.2s2.4-11.9-14.3-9.5c-16.7 2.3-178.2 35.1-178.2 35.1s-10.6 1.1-11.6 10.7-15.5 128.6-15.5 128.6-2.5 7.6 8.2 7.7 90.2 0.1 90.2 0.1l2 11.8h-56.5v7l-28.5 0.6v16.9l6.5-0.3-24.6 8.2v11.4l55-0.4s-0.2 1.6 2.6 2c1.8-0.2 5.7-0.7 5.7-0.7l2.8-1.2 25.8-0.1s0.2 1.9 2.3 1.9h5.1s2-0.6 2.3-0.8c0.3-0.3 2.1-1 2.1-1l54.3-0.1-0.2-11 41.4-15.7z"/>
	<path class="clear" d="m399.1 296.3c-2.2-4.7-14.7-21.6-18.9-26.4-2.4-2.1-5-5.2-16.8-5s-33.5 0-33.5 0-1.3-3.8-4.1-5.6c-3.7-0.6-15.5-2.9-15.5-2.9l-5.1 0.8-28.9-4.8 0.8-1.2 23.2-3.2s3.8 4.9 8 4.4 17-4 17-4 2.7-1.5 2.8-2.1c1.8 0.5 10.9 3.5 19.5 0.4 7-3.5 12.3-5.7 17.9-13.4 0.2-2.7 2.4-5.1 4.6-5.6 0.8 0.7 2.1 2.8 4.3 2.9 0.9 1.2 6.1 6.9 6.1 6.9s5.7 3 6.8-0.9c0.6-1.9-0.1-3.5-0.1-3.5l1.3-0.9 1.7 2s2.4 0.5 2.7-1.5c0.5-1.2-0.8-3.3-4.4-9-2.2-6-5.7-17.3-5.7-17.3s0.5 0.2 1.7-0.3 2.7-1.1 2.7-1.1 4.1-6.5 0.9-11.9c-0.6-2.9-2.4-11.8-4.6-15.6 1.5-0.5 2.7-2 3.5-3.3 0.9-1.3 7.2-9.6 8.8-14.5 0 0-1.1-4.8-8.3-9.9 0.5-0.2 1.5-3.9-1.2-3.7l-0.9 1.2-14.5-9.8 5.2-8.5s0.2-2.6-1.9-1.8l-6 8s-13.3-8.8-18.7-8c-2.8 0.8-3 0.7-4.1 2.2s-8 11.1-8 11.1-1.7 3.3 0.4 5.6c-3 0.4-29.8 2-29.8 2s-13.7 2.1-18.3 10.8c0 0-5.3 11.7-3.9 33.8l-1.9 3.8s-4.8 0.6-5.6 6.1 5.1 7.8 8.2 6.4c0.2 2.5 3 19.3 13.7 25.9-0.7 1.2-1.8 2.9-1.8 5.4-3.3 0.5-21.3 3.4-21.3 3.4s-3.1-3.5-5.8-4.1-14.4-3.5-14.4-3.5-11.4-1.1-13.7 9.1c-0.6 2.3-2.3 12.7 10.4 15.6 3.8-0.1 17.1-3.1 17.1-3.1l28.9 4.6-1.2 2.5-18.7-0.3-9.9 1.9 28.5 0.3s0 4.3 1.2 6.4h-55.8s-12 2.1-14.6 3.6c-2.6 1.4-3.9 1.3-13.6 16-9.8 14.9-18.5 26.2-17.3 31.3 0.8 1.1 1.7 2.9 11.5 2.7s136.6 0 136.6 0 8.7-0.6 11.8-2.7c3.8-1.5 12.8-5.9 12.8-5.9s3.6-2.6 3.4-5.4c3.2 0 7.6-1.1 10.5-2.4 2.8-1.3 10-4.2 10-4.2s7.1-3.3 4.3-9.8z"/>
	<path class="shade" d="m382.8 235.6c-1.4-2.1-4-5.5-4-5.5s-2 0.9-4.3 0.7l6.1 6.7s5.5 3.4 6.8-0.9c-0.5-0.4-1.6 0.6-4.6-1z"/>
	<path class="shade" d="m385 220.8s-0.2 2.3-1.4 5l6.6 8.5s2.7 0.1 2.7-1.5c-1.3-1.9-7.9-12-7.9-12z"/>
	<path class="shade" d="m345.9 239.4s-6.1 1.5-13.1-5.3l-1.8 4.8s5.9 4.6 9.5 4.2c4.2-2 5.4-3.7 5.4-3.7z"/>
	<path class="shade" d="m343.3 243.2c2.4-0.3 5.4-1 5.4-1s5-3.5 6.5-6.1c-2.4 1-4 2.4-5.5 2.6 0.1 0-3.8 3.2-6.4 4.5z"/>
	<path class="shade" d="m379.9 166.3c0.1-0.1 0.1-0.2 0.2-0.3 1.7-2.1 2.1-4.8 0.8-6s-3.8-0.4-5.6 1.7c-0.2 0.2-0.4 0.5-0.5 0.8-1.3 2-1.4 4.2-0.2 5.2 1.3 1.2 3.6 0.5 5.3-1.4z"/>
	<path class="shade" d="m388.9 170.1c0.8-1.2 1.1-2.5 0.6-2.9s-1.6 0.3-2.5 1.5c-0.8 1.2-1.1 2.5-0.6 2.9s1.6-0.3 2.5-1.5z"/>
	<path class="dark-shade" d="m296.4 211.3l4.6 3.2 7.2-0.2s3.4 2.8 5.8 2.9c2.8-0.5 10.2-1.5 14.6-2.2-1.1 10.7 2.6 20.1 10.2 23.3 7.7 3.2 17.2-0.9 24.1-9.4 0 0 2.2-2.6 2.7-4.6v-1.2l-0.9-1.3c0 0.1-0.1 0.2-0.1 0.3l-3.1-2.8s-0.2-0.1-0.4-0.4v-0.3l-2.1-4.7c-0.2-1.3-0.2-2.7 0-4.5-2.5-1.9-6.6-4.8-6.6-4.8l-0.3-1.4 0.1-1.1c0-0.3 0-0.6-0.1-0.9h-0.4l-0.6-2h-2.1l2.3-5.4 0.3 0.2v0.1c0 0.1-0.2 1.4 0.6 1.7-0.5 0-1 0.1-1.3 0.4l12.1 8.8 2-0.6-10-7.4v-0.3l0.1 0.1 4.2 3.1c0.2 0.2 0.5 0.2 0.7 0.2 0.3 0 0.6-0.1 0.8-0.4l0.1-0.2-6-4.4-0.1 0.2c-0.1 0.1-0.1 0.2-0.1 0.3l-1.2-0.9c0.2-0.1 0.3-0.2 0.4-0.3l0.1-0.2-2.1-1.6v-0.1l-0.7-0.5 2-1.8 2.5-6.1 7.7 0.1 0.8 1 2.7 0.1-2.1-3-1.4-0.5-9.1-0.6-8.9 20-1.4-1.8s0.1 1.6-0.6 3.4l1.7 1.4h1.1l-10.8 14.2c-0.4 0.5-0.6 1.1-0.5 1.7 0 0.6 0.3 1.1 0.7 1.4l0.6 0.3c0.8 0.2 1.8-0.2 2.3-1l7.8-10.4 0.3-6.2h2l-0.8 14.7 3.8-5.2 0.4-6.4 4.1 3.1-8.1 11.6c-0.3 0.5-0.5 1-0.5 1.5s0.2 1 0.5 1.2c0.1 0.1 0.3 0.2 0.5 0.2 0.7 0.2 1.4-0.2 1.9-0.9l6-8.5c0.3 1.3 0.8 2.8 1.8 4.2l-0.5 6.1c-0.1 0.7 0.3 1.3 0.8 1.5h0.5c0.4-0.1 0.7-0.3 1-0.7s0.5-0.8 0.5-1.3l0.3-3c0.1 0.1 0.2 0.2 0.3 0.2 1 0.6 1.8 1.1 2.3 1.4-5.8 8.8-14.8 13.3-21.9 10.4-6.5-2.7-9.6-10.8-8.5-20 1.5-0.3 4.7-1.4 7.6-5.8-2.4 1.1-4.3 2.3-11.1 3.1s-15.5 2.6-15.5 2.6-3.3-1.6-5.4-3.9c-2 0.1-7.1 0.5-7.1 0.5l-3.2-3.4-11.7 1.4 0.3 2.9 9.5-0.4z"/>
	<path class="dark-shade" d="m319.7 245.8l8.6 0.5c18.1 5.3 27.3-2.9 33.9-9.7-17.4 16.6-39.2 6.9-39.2 6.9-7.9-3.7-25.2-12.2-31.1-18.3 1.9 3.2 4.1 6.5 8.5 9.7 0 0-0.9 1.3-1.2 2.5 4.3 2.1 6.1 3 6.1 3l0.4-1 8.1 3.2-0.4 0.7 6.3 2.5z"/>
	<path class="dark-shade" d="m291.9 225.2c-0.6-1-1.3-2.1-1.9-3.1 0.1 0.9 0.8 2 1.9 3.1z"/>
	<path class="dark-shade" d="m364.6 234.1c-0.8 0.8-1.6 1.7-2.5 2.6 0.9-0.9 1.7-1.7 2.5-2.6z"/>
	<path class="dark-shade" d="m366 273.2c-6.5-7.7-13.8-6.7-13.8-6.7h-20.3-1.3v0.4c0 1.6-0.4 3.2-1.2 4.5 0 0-0.6 0.8-1.3 1.3 1.3-1 1.9-4 1.9-4l-9.8 1.1-6.9-0.2-0.9 1.3h-5.9l-0.8-1-7.1-0.4c-0.1-0.6-0.2-1.3-0.2-1.9v-0.9h-26.5s-7.7-0.4-12.4 6.4h1.1 38.9s25.8 0.3 28.1-0.4l-0.4 0.1h11.6s9.9-0.3 15.8 7.4c6.8 9 15.6 20.7 15.6 20.7s4.1 5.2 4.1 10.2l1.1-0.2c2.2 0 3.9-0.3 5.2-0.8 9.9-3.7-0.7-19.2-0.7-19.2s-7.5-10-13.9-17.7z"/>
	<path class="dark-shade" d="m337.7 282.8c-6.9-8.2-15-7.4-15-7.4h-86.8s-8.7-0.5-13.8 7.4l-17.5 26.6c-10.3 14.1-2 15.2-2 15.2s5.8 0 15 0h130.3c19.8 0 4.9-22.1 4.9-22.1s-8-11.3-15.1-19.7z"/>
	<polygon class="dark-shade" points="377.9 194.7 370.9 195.3 363.6 202.5 366.1 204.3 371.7 198.7 375.7 198.4 374.8 201.7 371.1 205.4 372.7 207.1 377.1 202.6 379.3 195.7"/>
	<path class="dark-shade" d="m361.8 211.2l0.4 1 3.5-1.2s0.1-0.9 1.1-0.9h1.2l-2.7-2.4-0.6 0.2 0.4-3.3-2.6 0.9-0.7 5.7z"/>
	<path class="dark-shade" d="m365.2 204.5l0.1 0.9s1 0.6 1.2 0.4c0.3-0.2 0.8-1.2-0.1-1.7l-0.4 0.2-2.3-0.9 1.5 1.1z"/>
	<path class="dark-shade" d="m300 192l1-0.3 3.9-7.5s-2.3 1.2-6 0l-6.1 11.1 5.4-0.3 1.8-3z"/>
	<path class="dark-shade" d="m313.1 181.8s2.5-7.7 3.2-10.9c0.2-4.1-2.2-7.1-4.5-8.2 1.6 4.4-3.3 13.3-3.8 14.3-0.5 1.1-1.5 6.3-1.5 6.3 0.4-0.6 6.6-1.5 6.6-1.5z"/>
	<path class="dark-shade" d="m387.4 193.1s0.4 6.6-4.6 12.7c2.3-0.1 2.3 0 2.9-0.2 1.4-3.4 3.5-5.7 1.7-12.5z"/>
	<path class="dark-shade" d="m344.8 154.4c-3.9-4.8-6.4-8.2-6.4-8.2l-0.5 0.2c1.1 1.9 3.7 4.8 6.9 8z"/>
	<path class="dark-shade" d="m383.7 178.1l-0.2-0.6s-10.4 0.1-18.1-5.9c-4.7-3.1-14-10.8-20.6-17.3 11 13.6 32.8 37.5 38.9 23.8z"/>
	<path class="dark-shade" d="m300.8 248.2s0.7 0.8 4.1 3.4c3.7 1.8 8.9 0 8.9 0s9.6-2.5 10.7-2.8c1.2-0.3 2.5-1.6 2.6-1.7-0.1 0-0.9 0.4-9.5 1.8-9.7 5.7-18.6-3.7-18.6-3.7 0 0.1-28.9 4.4-28.9 4.4l-0.2 1.5 6.9 0.1 24-3z"/>
	<path class="dark-shade" d="m260.4 260l9.7-2.4 29.7 4.8 1-1.6-32.9-5.2-3.1 0.6c-12.7 5.6-20.3-1.7-20.3-1.7s0 0 1.4 2c5.5 6.9 14.5 3.5 14.5 3.5z"/>
	<path class="dark-shade" d="m336.6 206.6c1.7-0.2 3.3-1.4 4.4-3 0 0 0.4-0.6 0.5-1.3l-0.5 0.3-2.1 0.6-2.9-1.6-1.7-3.2-0.3-5.2 1-2.7 2.1-1.6 1.4-0.2 1.4-1.5c-1.7-2-3.9-3.1-6.1-2.9-4.3 0.5-7.1 5.9-6.3 12.1s4.8 10.7 9.1 10.2z"/>
	<path class="dark-shade" d="m367.9 218.7v-0.7h-1.3s-1-0.4-1-1.6 0.1-2.4 0.1-2.4-1.9-1.2-2.1-2.1c-1.4 0.3-1.4 0.5-1.4 0.5l-0.4-1.1-2.4-1.4c0.1-0.1-0.5 7.9 8.5 8.8z"/>
	<path class="dark-shade" d="m368.8 214.4c0.5-0.1 0.8 1.4 0.9 1.9 0.9-0.1 0.5-1.9 0.6-2.5-0.7 0.3-3.1 0.4-3.1 0.4-0.2 2.2 0.4 2.1 0.8 2.1-0.4-1.6 0.3-1.8 0.8-1.9z"/>
	<path class="dark-shade" d="m371.4 213l0.1 4.2s8.4-5.3 4.9-13.6l-2.1 1.8c0.1 0 1.4 4.4-2.9 7.6z"/>
	<path class="dark-shade" d="m365.3 143.1c2.7 2 5.6 2.7 6.4 1.4 0.4-0.5 0.3-1.3-0.1-2.2l-0.3 1c-0.7 1-3.2 0.4-5.5-1.3l-0.3-0.2c-2.2-1.6-3.5-3.7-3.1-4.8-0.1 0.1-0.3 0.2-0.4 0.4-0.9 1.1 0.6 3.7 3.3 5.7z"/>
	<path class="dark-shade" d="m381.8 149.4c0.9 0.5 1.8 0.7 2.3 0.5 0.4 0.5 1 1.1 2.1 1.5 3.1 1.1 1.3-1.5 1.3-1.5-0.8 1-1.8 0.6-2.7 0-0.1-0.1-0.2-0.1-0.3-0.2 0.1-0.2 0.1-0.4 0-0.6l2.1-3.9c0.2-0.4 0.1-1.2-0.3-1.5l-0.7-0.6-0.3-0.2-0.7-0.6c-0.3-0.2-1.2-0.1-1.4 0.2l-2.9 3.4c-0.2 0.3-0.2 0.6 0 0.8v0.1l-0.4-0.4c0.2 0.8 0.6 2.2 1.9 3z"/>
	<path class="dark-shade" d="m361.5 202c0.6 0.4 1.7 1 1.7 1l0.7-1-2.1-1.4c0-0.1-0.8 1-0.3 1.4z"/>
	<path class="clear" d="m360.7 288.2c1.1-0.5 2.3-0.8 3.6-0.8 5 0 9 4 9 9 0 2.3-0.9 4.4-2.3 6"/>
	<path class="clear" d="m252.6 301.6c0 8.8-7.1 15.9-15.9 15.9s-15.9-7.1-15.9-15.9 7.1-15.9 15.9-15.9c8.8 0.1 15.9 7.2 15.9 15.9z"/>
	<path class="clear" d="m319.9 301.5c0 8.8-7.1 15.9-15.9 15.9s-15.9-7.1-15.9-15.9 7.1-15.9 15.9-15.9 15.9 7.1 15.9 15.9z"/>
	<ellipse class="clear" cx="271.6" cy="308" rx="9.9" ry="9.9"/>
	<ellipse class="clear" cx="335.9" cy="307.8" rx="9.9" ry="9.9"/>
	<path d="m373.5 296.6c0-1-0.1-2-0.4-3s-0.8-1.9-1.4-2.7-1.3-1.5-2.2-2.1c-0.8-0.6-1.8-1-2.8-1.3s-2-0.3-3-0.3c-1 0.1-2 0.3-2.9 0.8 0.9-0.3 1.9-0.4 2.9-0.4s1.9 0.2 2.8 0.5c1.8 0.6 3.4 1.7 4.5 3.3 1.1 1.5 1.7 3.4 1.8 5.2 0.1 1.9-0.5 3.8-1.5 5.5 1.4-1.5 2.1-3.4 2.2-5.5z"/>
	<path d="m242.9 286.7c-1.9-0.9-4-1.3-6.2-1.4-4.3-0.1-8.6 1.5-11.7 4.6-1.6 1.5-2.8 3.3-3.7 5.3-0.8 2-1.3 4.2-1.3 6.4s0.5 4.4 1.3 6.4 2.1 3.8 3.7 5.3 3.4 2.7 5.4 3.5 4.2 1.2 6.3 1.1 4.2-0.5 6.2-1.4c1.9-0.8 3.7-2.1 5.1-3.6 2.9-3 4.6-7.1 4.6-11.3 0 2.1-0.4 4.2-1.2 6.1s-2 3.6-3.5 5.1c-3 2.9-7.1 4.5-11.2 4.3-2-0.1-4-0.5-5.9-1.3-1.8-0.8-3.5-2-4.9-3.4-2.8-2.9-4.4-6.8-4.4-10.8s1.6-7.9 4.4-10.8c1.4-1.4 3-2.6 4.9-3.4 1.8-0.8 3.8-1.3 5.9-1.3 4.1-0.1 8.2 1.5 11.2 4.3 1.5 1.4 2.7 3.2 3.5 5.1s1.2 4 1.2 6.1c0-4.2-1.7-8.3-4.6-11.3-1.4-1.5-3.1-2.7-5.1-3.6z"/>
	<path d="m310.2 286.6c-1.9-0.9-4-1.3-6.2-1.4-4.3-0.1-8.6 1.5-11.7 4.6-1.6 1.5-2.8 3.3-3.7 5.3-0.8 2-1.3 4.2-1.3 6.4s0.5 4.4 1.3 6.4 2.1 3.8 3.7 5.3 3.4 2.7 5.4 3.5 4.2 1.2 6.3 1.1 4.2-0.5 6.2-1.4c1.9-0.8 3.7-2.1 5.1-3.6 2.9-3 4.6-7.1 4.6-11.3 0 2.1-0.4 4.2-1.2 6.1s-2 3.6-3.5 5.1c-3 2.9-7.1 4.5-11.2 4.3-2-0.1-4-0.5-5.9-1.3-1.8-0.8-3.5-2-4.9-3.4-2.8-2.9-4.4-6.8-4.4-10.8s1.6-7.9 4.4-10.8c1.4-1.4 3-2.6 4.9-3.4 1.8-0.8 3.8-1.3 5.9-1.3 4.1-0.1 8.2 1.5 11.2 4.3 1.5 1.4 2.7 3.2 3.5 5.1s1.2 4 1.2 6.1c0-4.2-1.7-8.3-4.6-11.3-1.4-1.5-3.2-2.8-5.1-3.6z"/>
	<path d="m271.6 297.7c-1.3 0-2.7 0.2-4 0.6-1.3 0.5-2.5 1.2-3.5 2.2s-1.8 2.1-2.4 3.4c-0.5 1.3-0.8 2.7-0.8 4.1s0.3 2.8 0.8 4.1 1.4 2.4 2.4 3.4 2.2 1.7 3.5 2.2 2.7 0.7 4 0.6c2.7-0.1 5.3-1.3 7.1-3.2s2.9-4.5 2.8-7.1c0 1.3-0.3 2.6-0.8 3.8s-1.3 2.3-2.2 3.2-2 1.6-3.2 2-2.5 0.6-3.7 0.6c-2.5-0.1-4.9-1.2-6.5-3-0.8-0.9-1.5-1.9-1.9-3-0.5-1.1-0.7-2.3-0.7-3.5 0-2.4 0.9-4.8 2.6-6.5 1.7-1.8 4-2.9 6.5-3 1.2 0 2.5 0.1 3.7 0.6 1.2 0.4 2.3 1.1 3.2 2s1.7 2 2.2 3.2 0.8 2.5 0.8 3.8c0-2.6-1-5.2-2.8-7.1-1.8-2.1-4.4-3.3-7.1-3.4z"/>
	<path d="m272.1 302.9c-1.3-0.1-2.7 0.4-3.8 1.4-0.5 0.5-0.9 1.1-1.2 1.7s-0.4 1.4-0.4 2.1 0.1 1.4 0.4 2.1c0.3 0.6 0.7 1.2 1.2 1.7 1 1 2.4 1.4 3.8 1.4 1.3-0.1 2.6-0.7 3.5-1.6s1.4-2.2 1.4-3.5c0 0.6-0.1 1.3-0.4 1.8-0.3 0.6-0.6 1.1-1.1 1.5-0.9 0.8-2.2 1.3-3.4 1.2s-2.3-0.6-3.1-1.5c-0.8-0.8-1.2-1.9-1.2-3.1 0-1.1 0.4-2.2 1.2-3.1 0.8-0.8 1.9-1.4 3.1-1.5s2.4 0.3 3.4 1.2c0.5 0.4 0.8 0.9 1.1 1.5s0.4 1.2 0.4 1.8c0-1.3-0.5-2.5-1.4-3.5-0.9-0.9-2.2-1.6-3.5-1.6z"/>
	<path d="m335.9 302.9c-1.3-0.1-2.7 0.4-3.8 1.4-0.5 0.5-0.9 1.1-1.2 1.7s-0.4 1.4-0.4 2.1 0.1 1.4 0.4 2.1c0.3 0.6 0.7 1.2 1.2 1.7 1 1 2.4 1.4 3.8 1.4 1.3-0.1 2.6-0.7 3.5-1.6s1.4-2.2 1.4-3.5c0 0.6-0.1 1.3-0.4 1.8-0.3 0.6-0.6 1.1-1.1 1.5-0.9 0.8-2.2 1.3-3.4 1.2s-2.3-0.6-3.1-1.5c-0.8-0.8-1.2-1.9-1.2-3.1 0-1.1 0.4-2.2 1.2-3.1 0.8-0.8 1.9-1.4 3.1-1.5s2.4 0.3 3.4 1.2c0.5 0.4 0.8 0.9 1.1 1.5s0.4 1.2 0.4 1.8c0-1.3-0.5-2.5-1.4-3.5-0.9-0.9-2.1-1.6-3.5-1.6z"/>
	<path d="m335.9 297.5c-1.3 0-2.7 0.2-4 0.6-1.3 0.5-2.5 1.2-3.5 2.2s-1.8 2.1-2.4 3.4c-0.5 1.3-0.8 2.7-0.8 4.1s0.3 2.8 0.8 4.1 1.4 2.4 2.4 3.4 2.2 1.7 3.5 2.2 2.7 0.7 4 0.6c2.7-0.1 5.3-1.3 7.1-3.2s2.9-4.5 2.8-7.1c0 1.3-0.3 2.6-0.8 3.8s-1.3 2.3-2.2 3.2-2 1.6-3.2 2-2.5 0.6-3.7 0.6c-2.5-0.1-4.9-1.2-6.5-3-0.8-0.9-1.5-1.9-1.9-3-0.5-1.1-0.7-2.3-0.7-3.5 0-2.4 0.9-4.8 2.6-6.5 1.7-1.8 4-2.9 6.5-3 1.2 0 2.5 0.1 3.7 0.6 1.2 0.4 2.3 1.1 3.2 2s1.7 2 2.2 3.2 0.8 2.5 0.8 3.8c0-2.6-1-5.2-2.8-7.1-1.8-2.1-4.4-3.3-7.1-3.4z"/>
	<path d="m301.8 294.4c0.6 0.6 1.5 0.9 2.3 0.8s1.6-0.4 2.2-1c0.5-0.6 0.8-1.4 0.8-2.1 0 0.8-0.3 1.6-0.9 2.1s-1.3 0.8-2.1 0.7c-0.7-0.1-1.4-0.4-1.9-0.9s-0.7-1.2-0.7-1.9 0.3-1.4 0.7-1.9c0.5-0.5 1.1-0.9 1.9-0.9 0.7-0.1 1.5 0.2 2.1 0.7 0.3 0.3 0.5 0.6 0.7 0.9 0.2 0.4 0.2 0.7 0.2 1.1 0-0.8-0.3-1.6-0.8-2.2s-1.3-1-2.2-1c-0.8-0.1-1.7 0.2-2.4 0.8-0.6 0.6-1 1.5-1 2.3 0 0.4 0.1 0.9 0.3 1.3 0.2 0.5 0.5 0.9 0.8 1.2z"/>
	<path d="m296.7 303.6c-0.5 0.5-1.3 0.8-2 0.8s-1.4-0.3-1.9-0.8-0.8-1.2-0.8-1.8c0-0.7 0.2-1.4 0.6-1.9s1.1-0.9 1.8-1 1.5 0.1 2.1 0.6c0.3 0.2 0.5 0.6 0.7 0.9s0.3 0.7 0.3 1.1c0-0.8-0.4-1.5-0.9-2.1-0.6-0.6-1.4-0.9-2.2-0.9s-1.7 0.3-2.3 0.9-1 1.5-0.9 2.4c0 0.4 0.1 0.9 0.3 1.3s0.5 0.7 0.8 1c0.7 0.6 1.6 0.8 2.4 0.7s1.6-0.5 2-1.2c0.6-0.5 0.9-1.3 0.8-2.1 0 0.8-0.3 1.6-0.8 2.1z"/>
	<path d="m304.4 308.1c-0.8-0.1-1.7 0.1-2.4 0.7-0.7 0.5-1.1 1.4-1.2 2.3 0 0.4 0 0.9 0.2 1.3 0.1 0.4 0.4 0.8 0.7 1.1 0.6 0.6 1.5 1 2.3 1s1.6-0.3 2.2-0.9c0.6-0.5 0.9-1.3 1-2.1-0.1 0.8-0.4 1.5-1.1 2-0.6 0.5-1.4 0.7-2.1 0.6s-1.4-0.5-1.8-1-0.6-1.2-0.6-1.9 0.4-1.3 0.9-1.8 1.2-0.8 1.9-0.8 1.5 0.3 2 0.9c0.3 0.3 0.5 0.6 0.6 1s0.2 0.8 0.2 1.2c0.1-0.8-0.2-1.6-0.7-2.2-0.5-0.8-1.3-1.3-2.1-1.4z"/>
	<path d="m315.9 303.7c-0.6 0.5-1.3 0.8-2.1 0.7-0.7-0.1-1.4-0.4-1.9-0.9s-0.7-1.2-0.7-1.9 0.3-1.4 0.7-1.9c0.5-0.5 1.1-0.9 1.9-0.9 0.7-0.1 1.5 0.2 2.1 0.7 0.3 0.3 0.5 0.6 0.7 0.9 0.2 0.4 0.2 0.7 0.2 1.1 0-0.8-0.3-1.6-0.8-2.2s-1.3-1-2.2-1c-0.8-0.1-1.7 0.2-2.4 0.8-0.6 0.6-1 1.5-1 2.3 0 0.4 0.1 0.9 0.3 1.3s0.4 0.8 0.8 1.1c0.6 0.6 1.5 0.9 2.3 0.8 0.9 0.2 1.6-0.2 2.1-0.9 0.6-0.5 0.9-1.3 0.9-2.1 0 0.8-0.3 1.6-0.9 2.1z"/>
	<path d="m234.9 294.4c0.6 0.6 1.5 0.9 2.3 0.8s1.6-0.4 2.2-1c0.5-0.6 0.8-1.4 0.8-2.1 0 0.8-0.3 1.6-0.9 2.1s-1.3 0.8-2.1 0.7c-0.7-0.1-1.4-0.4-1.9-0.9s-0.7-1.2-0.7-1.9 0.3-1.4 0.7-1.9c0.5-0.5 1.1-0.9 1.9-0.9 0.7-0.1 1.5 0.2 2.1 0.7 0.3 0.3 0.5 0.6 0.7 0.9 0.2 0.4 0.2 0.7 0.2 1.1 0-0.8-0.3-1.6-0.8-2.2s-1.3-1-2.2-1c-0.8-0.1-1.7 0.2-2.4 0.8-0.6 0.6-1 1.5-1 2.3 0 0.4 0.1 0.9 0.3 1.3 0.2 0.5 0.5 0.9 0.8 1.2z"/>
	<path d="m229.8 303.6c-0.5 0.5-1.3 0.8-2 0.8s-1.4-0.3-1.9-0.8-0.8-1.2-0.8-1.8c0-0.7 0.2-1.4 0.6-1.9s1.1-0.9 1.8-1 1.5 0.1 2.1 0.6c0.3 0.2 0.5 0.6 0.7 0.9s0.3 0.7 0.3 1.1c0-0.8-0.4-1.5-0.9-2.1-0.6-0.6-1.4-0.9-2.2-0.9s-1.7 0.3-2.3 0.9-1 1.5-0.9 2.4c0 0.4 0.1 0.9 0.3 1.3s0.5 0.7 0.8 1c0.7 0.6 1.6 0.8 2.4 0.7s1.5-0.5 2-1.2c0.6-0.5 0.9-1.3 0.8-2.1 0 0.8-0.3 1.6-0.8 2.1z"/>
	<path d="m237.5 308.1c-0.8-0.1-1.7 0.1-2.4 0.7-0.7 0.5-1.1 1.4-1.2 2.3 0 0.4 0 0.9 0.2 1.3 0.1 0.4 0.4 0.8 0.7 1.1 0.6 0.6 1.5 1 2.3 1s1.6-0.3 2.2-0.9c0.6-0.5 0.9-1.3 1-2.1-0.1 0.8-0.4 1.5-1.1 2-0.6 0.5-1.4 0.7-2.1 0.6s-1.4-0.5-1.8-1-0.6-1.2-0.6-1.9 0.4-1.3 0.9-1.8 1.2-0.8 1.9-0.8 1.5 0.3 2 0.9c0.3 0.3 0.5 0.6 0.6 1s0.2 0.8 0.2 1.2c0.1-0.8-0.2-1.6-0.7-2.2-0.5-0.8-1.3-1.3-2.1-1.4z"/>
	<path d="m246.9 298.5c-0.8-0.1-1.7 0.2-2.4 0.8-0.6 0.6-1 1.5-1 2.3 0 0.4 0.1 0.9 0.3 1.3s0.4 0.8 0.8 1.1c0.6 0.6 1.5 0.9 2.3 0.8s1.6-0.4 2.2-1c0.5-0.6 0.8-1.4 0.8-2.1 0 0.8-0.3 1.6-0.9 2.1s-1.3 0.8-2.1 0.7c-0.7-0.1-1.4-0.4-1.9-0.9s-0.7-1.2-0.7-1.9 0.3-1.4 0.7-1.9c0.5-0.5 1.1-0.9 1.9-0.9 0.7-0.1 1.5 0.2 2.1 0.7 0.3 0.3 0.5 0.6 0.7 0.9 0.2 0.4 0.2 0.7 0.2 1.1 0-0.8-0.3-1.6-0.8-2.2-0.6-0.5-1.4-0.9-2.2-0.9z"/>
	<path d="m396.3 289.8c-0.1-0.1-7.7-10.5-14-18.5-4.4-5.7-10.7-6.8-13.2-7.1l-0.1 1.2c1 0.1 2.8 0.4 4.7 1.1l-2.6-0.1 0.1 0.8 3-0.5c1.2 0.5 2.5 1.1 3.7 2l-6.7 0.5 0.1 0.8 6.7-1.2c1 0.7 1.9 1.5 2.8 2.5-1.6 0.2-3.2 0.3-4.8 0.5l-2.7 0.3c-0.9 0.1-1.8 0.2-2.7 0.5l0.1 0.4c0.9 0.1 1.8-0.2 2.7-0.3l2.7-0.5 4.8-0.9c0.2 0.2 0.4 0.5 0.6 0.7 0.6 0.8 1.2 1.6 1.8 2.4-0.9 0-1.8 0.1-2.7 0.2-1.1 0.1-2.2 0.3-3.3 0.5s-2.2 0.4-3.2 0.6c-1.1 0.2-2.1 0.5-3.2 0.9 1.1 0 2.2-0.1 3.3-0.3 1.1-0.1 2.2-0.3 3.3-0.5s2.2-0.4 3.2-0.6c0.9-0.2 1.8-0.4 2.7-0.7 0.7 0.9 1.4 1.9 2.2 2.8-1 0-1.9 0.1-2.9 0.2-1.1 0.1-2.3 0.3-3.4 0.5s-2.3 0.4-3.4 0.7c-1.1 0.2-2.2 0.5-3.3 0.9 1.2 0 2.3-0.1 3.4-0.3 1.1-0.1 2.3-0.3 3.4-0.5s2.3-0.4 3.4-0.7c1-0.2 1.9-0.4 2.9-0.7 0.6 0.8 1.3 1.7 1.9 2.5-0.9 0.1-1.9 0.1-2.8 0.3-1.2 0.1-2.3 0.3-3.5 0.5s-2.3 0.4-3.4 0.7-2.3 0.5-3.4 0.9c1.2 0 2.3-0.1 3.5-0.3 1.2-0.1 2.3-0.3 3.5-0.5s2.3-0.4 3.4-0.7c0.9-0.2 1.9-0.4 2.8-0.7 0.6 0.8 1.3 1.7 1.9 2.5-1 0-1.9 0.1-2.9 0.3-1.1 0.1-2.3 0.3-3.4 0.5s-2.3 0.4-3.4 0.7c-1.1 0.2-2.2 0.5-3.3 0.9 1.2 0 2.3-0.1 3.4-0.3 1.1-0.1 2.3-0.3 3.4-0.5s2.3-0.4 3.4-0.7c1-0.2 1.9-0.5 2.9-0.7 0.7 0.9 1.4 1.8 2 2.6l-3 0.3c-1.2 0.2-2.3 0.4-3.5 0.6-1.1 0.2-2.3 0.5-3.4 0.7-1.1 0.3-2.3 0.6-3.4 0.9 1.2-0.1 2.3-0.2 3.5-0.3 1.2-0.2 2.3-0.4 3.5-0.6s2.3-0.5 3.4-0.7c1-0.2 2-0.5 2.9-0.8 0.7 0.9 1.3 1.7 1.8 2.4-0.9 0.1-1.8 0.2-2.7 0.4-1.2 0.2-2.3 0.4-3.5 0.6s-2.3 0.5-3.5 0.8-2.3 0.6-3.4 1c1.2-0.1 2.4-0.2 3.6-0.4s2.3-0.4 3.5-0.6 2.3-0.5 3.5-0.8c0.9-0.2 1.8-0.5 2.7-0.8 0.9 1.3 1.6 2.1 1.8 2.4-1 0.1-2 0.3-3 0.5-1.2 0.2-2.3 0.5-3.5 0.8-1.1 0.3-2.3 0.6-3.4 0.9s-2.3 0.7-3.4 1.2c1.2-0.1 2.4-0.3 3.5-0.6 1.2-0.2 2.3-0.5 3.5-0.8 1.1-0.3 2.3-0.6 3.4-0.9 1-0.3 2-0.6 2.9-1 0 0.1 0.9 1.1 1.7 2.7-1 0.1-1.9 0.3-2.8 0.5-1.2 0.2-2.3 0.5-3.4 0.8s-2.3 0.6-3.4 1-2.2 0.8-3.3 1.2c1.2-0.2 2.3-0.4 3.5-0.6s2.3-0.5 3.4-0.8 2.3-0.6 3.4-1c0.9-0.3 1.8-0.6 2.7-1 0.4 0.9 0.9 1.8 1.2 2.9l-3 0.6c-1.2 0.3-2.3 0.6-3.4 0.9s-2.3 0.7-3.4 1.1-2.2 0.8-3.3 1.3c1.2-0.2 2.3-0.4 3.5-0.7s2.3-0.6 3.4-0.9 2.3-0.7 3.4-1.1c1-0.3 1.9-0.7 2.8-1.1 0.3 1 0.4 2 0.4 2.9-1 0.2-2 0.4-2.9 0.7-1.2 0.3-2.3 0.6-3.4 1s-2.3 0.7-3.4 1.2c-1.1 0.4-2.2 0.8-3.3 1.4 1.2-0.2 2.4-0.5 3.5-0.8 1.2-0.3 2.3-0.6 3.5-1 1.1-0.4 2.3-0.7 3.4-1.2 0.9-0.3 1.8-0.7 2.7-1.1 0 0.4-0.1 0.8-0.2 1.2-0.1 0.5-0.3 1-0.6 1.5-0.9 0.2-1.7 0.5-2.6 0.8-1.1 0.4-2.2 0.8-3.3 1.2s-2.2 0.9-3.3 1.3c-1.1 0.5-2.1 1-3.2 1.5 1.2-0.3 2.3-0.6 3.4-1s2.2-0.8 3.3-1.2 2.2-0.9 3.3-1.3c0.7-0.3 1.4-0.6 2.2-1-0.8 1.3-2.1 2.3-3.8 3.2-9.9 4.6-13.5 5.7-13.9 5.8h-0.1c-0.3 0.1-2.1 0.7-5.2 0.6v-0.3h0.3c2.1 0 3.9-0.3 5.3-0.8h0.1l0.1-0.1c2.1-0.8 3.5-2.2 4.1-4.2 1.9-6.1-4.4-15.5-4.7-15.9-0.1-0.1-7.5-10.3-14-17.9-6.4-7.6-13.6-7-14.3-6.9h-21.1v-0.2l10.9-0.9h3l-6.4 1 11.6-1h2.9l-6.5 1 11.7-1h0.2 2.8l-6.5 1 11.8-1h1.4v-0.7h-1.3v-0.1l-0.4 0.1h-7.7v-0.1l-0.4 0.1h-7.7v-0.1l-0.5 0.1h-7.6v-0.1l-0.5 0.1h-11c-0.7-2.4-2.4-4.4-4.6-5.6h-0.1l-14-2.5c-0.2 0-0.4-0.1-0.6-0.1h-0.2c-0.5-0.1-1-0.1-1.5-0.1-0.8 0-1.7 0.1-2.5 0.3-0.5-0.1-0.9-0.3-1.4-0.4-0.4-0.1-0.8-0.1-1.2-0.1s-0.8-0.1-1.2-0.1l-4.8-0.6-9.6-1.2-9.6-1.2-2.1-0.3c0.1-0.1 0.2-0.3 0.4-0.5l23-3.1c2.2 2.8 5.5 4.4 9.1 4.4 1.4 0 2.8-0.2 4-0.7l11.3-3c1.4-0.5 2.6-1.3 3.6-2.4l0.6 0.2c0.2 0.1 0.4 0.1 0.6 0.1l2.4 0.5c3.2 0.6 6.5 0.8 9.7 0.5s6.4-1.2 9.4-2.5 5.7-3.2 8.2-5.3c2.4-2.1 4.7-4.5 6.6-7.1l-0.7-0.6c-0.6 0.6-1.1 1.1-1.6 1.7l-0.8 0.9c-0.3 0.3-0.5 0.6-0.8 0.9-0.5 0.6-1.1 1.1-1.7 1.7-0.6 0.5-1.2 1.1-1.8 1.6-2.4 2-5 3.8-7.9 5.1s-5.9 2.1-9 2.4-6.3 0.1-9.4-0.5l-2.3-0.5c-0.2 0-0.4-0.1-0.6-0.1l-0.5-0.2c-0.4-0.1-0.7-0.3-1.1-0.4-1.4-0.6-2.8-1.4-4.1-2.3-2.6-1.8-4.8-4-6.7-6.5s-3.4-5.3-4.6-8.2c-0.3-0.7-0.6-1.5-0.8-2.2-0.3-0.7-0.5-1.5-0.7-2.3l-0.4-1.1-0.3-1.2c-0.2-0.8-0.4-1.5-0.6-2.3l0.3 2.4c0 0.4 0.1 0.8 0.2 1.2l0.3 1.2c0.2 0.8 0.3 1.6 0.6 2.4 0.2 0.8 0.5 1.5 0.8 2.3 1.1 3 2.6 5.9 4.6 8.5 1.9 2.6 4.2 4.9 6.7 6.7-9.7-3.1-17.1-6-22.4-10 1.1 0.5 2.2 1.1 3.4 1.6s2.4 1 3.6 1.4 2.5 0.8 3.7 1c-1.3-0.3-2.5-0.7-3.7-1.2s-2.4-1-3.5-1.6c-2.1-1-4.1-2.2-6.1-3.4-1.3-1.2-2.5-2.6-3.5-4.1v-0.1c1.9 1 3.9 2 5.8 2.9 1.3 0.6 2.6 1.1 3.9 1.6s2.7 0.9 4 1.2c-1.4-0.3-2.7-0.8-4-1.3s-2.6-1.1-3.8-1.8c-2.3-1.2-4.6-2.5-6.8-3.8-0.8-1.3-1.6-2.9-2.4-4.5 2.3 1.3 4.6 2.5 6.9 3.6 1.4 0.7 2.8 1.3 4.3 1.8s3 1 4.5 1.3c-1.5-0.4-3-0.9-4.4-1.5s-2.8-1.3-4.2-2c-2.6-1.4-5.2-2.8-7.7-4.4-0.6-1.4-1.2-2.8-1.7-4.3 2.6 1.5 5.3 3 8 4.3 1.6 0.8 3.1 1.5 4.8 2.1 1.6 0.6 3.3 1.2 5 1.5-1.7-0.4-3.3-1-4.9-1.7s-3.1-1.5-4.7-2.3c-2.9-1.5-5.7-3.2-8.5-5-0.4-1.2-0.7-2.5-0.9-3.6l3.6 2.1c1.6 0.9 3.2 1.7 4.8 2.5s3.3 1.5 4.9 2.2c1.7 0.7 3.4 1.2 5.1 1.6-1.8-0.4-3.4-1.1-5.1-1.8-1.6-0.7-3.2-1.5-4.8-2.4-1.6-0.8-3.1-1.7-4.7-2.7-1.4-0.8-2.7-1.7-4.1-2.6-0.1-0.5-0.1-1-0.1-1.5 1-0.1 2.2-0.3 3.1-0.4 2.6 1.5 5.2 2.8 7.9 4.1 1.4 0.6 2.7 1.2 4.2 1.7 1.4 0.5 2.8 1 4.3 1.3-1.5-0.4-2.9-0.9-4.2-1.4-1.4-0.6-2.7-1.2-4.1-1.9-2.3-1.2-4.6-2.5-6.8-3.9h0.3l6.3-0.8 3.1 3.2 6.9-0.4c1.6 1.7 3.5 3.1 5.7 3.8h0.1 0.1l1.9-0.3 1.9-0.3 3.8-0.6 3-0.5c-2.2 13.8 2.4 25.6 11.6 29.4 2.1 0.9 4.3 1.3 6.5 1.3 6.6 0 13.8-3.6 19.8-10.3 0 0 1.4-1.5 3.3-3.8l-0.6-0.5c-1.9 2.3-3.3 3.8-3.3 3.8-7.9 8.7-17.7 12-25.5 8.8-8.9-3.7-13.4-15.3-11.1-28.9l1.9-0.3c0.4-0.1 0.8-0.1 1.2-0.2-0.4 2.4-0.6 4.9-0.5 7.4 0.1 2.7 0.5 5.4 1.3 7.9 0.8 2.6 2.1 5 3.9 7.1 0.9 1 1.9 1.9 3.1 2.7 1.1 0.8 2.4 1.3 3.7 1.8 1.3 0.4 2.7 0.6 4 0.7 1.4 0 2.7-0.1 4.1-0.4 2.7-0.6 5.2-1.7 7.4-3.1 2.3-1.4 4.3-3.2 6.2-5.2 0.9-1 1.8-2 2.6-3.1 0.4-0.5 0.8-1.1 1.1-1.7s0.6-1.3 0.6-2l-0.6-0.1c-0.6 1.1-1.4 2.1-2.1 3.2l-1.2 1.5c-0.4 0.5-0.8 1-1.3 1.5-1.8 1.9-3.8 3.6-6 5s-4.6 2.5-7.1 3-5.1 0.5-7.6-0.2c-1.2-0.4-2.4-0.9-3.4-1.6-1.1-0.7-2-1.6-2.9-2.5-1.7-1.9-2.9-4.3-3.7-6.7-0.8-2.5-1.2-5-1.3-7.6-0.1-2.5 0.1-5.1 0.6-7.6l2.2-0.3c0.6-0.1 1.2-0.2 1.9-0.3l0.7-0.1c0.4 0 0.7 0 1.1-0.1 0.7-0.1 1.3-0.3 2-0.6 1.3-0.5 2.4-1.3 3.4-2.2s1.8-2.1 2.2-3.5c0.2-0.5 0.3-1 0.5-1.5 0.1-0.5 0.3-1 0.4-1.5s0.2-1 0.2-1.6v-0.2l1 1.5 6.5-0.2 0.6 2.8 6.8 5.4c-0.7 3.3-0.1 6.7 1.8 9.1l0.3-0.2-0.3 0.2c0.4 0.5 0.8 0.9 1.3 1.3 0.2 0.3 0.5 0.6 0.8 0.9s0.5 0.6 0.8 0.8l0.8 0.8c0.3 0.3 0.5 0.6 1 0.7l0.4-0.4c-0.1-0.5-0.4-0.7-0.6-1-0.1-0.1-0.2-0.2-0.3-0.4 0.2 0.1 0.5 0.1 0.8 0.1l0.1-0.9c-0.6 0-1.4-0.4-1.4-0.4-0.3-0.1-0.6-0.3-0.9-0.5-0.7-0.5-1.4-1-1.9-1.7-1.1-1.4-1.8-3.3-1.9-5.2 0.5 1.9 1.7 3.4 3.2 4.5 1.2 0.8 2.6 1.2 4.1 1.2v-0.8c-1.3 0-2.6-0.4-3.7-1.1-2-1.3-3.2-3.6-3.2-6.3l1.6 1.2 0.2 0.5 0.1 0.4 0.4-0.1c0.3-0.1 0.6-0.2 0.9-0.3 0 0 0.1 0 0.1-0.1 0.4 0.6 0.9 1.1 1.5 1.5 0 0 0.1 0.1 0.2 0.1 0.2 0.1 0.3 0.2 0.4 0.3l0.4-0.7c-0.1 0-0.2-0.2-0.3-0.2l0.6-2.1-1.1 1.7-0.9-0.9c0.3-0.1 0.6-0.2 0.8-0.3 0.3-0.1 0.6-0.3 0.8-0.5l-0.2-0.4c-0.3 0-0.6 0.1-0.9 0.1-0.3 0.1-0.6 0.2-0.9 0.3s-0.6 0.2-0.9 0.3c-0.2 0.1-0.3 0.1-0.5 0.2l-0.2-0.4 0.8-5.7 1.7-0.6-0.2 2.7v0.6l0.6-0.1 0.5-0.1-0.1-0.5 0.3-3.1 0.2 0.1 0.3 0.2 0.2-0.2 4.6-4.4c0.7 0.4 1.3 0.7 2 1.1l1.2 0.6-3.3 3.3 0.6 0.6 3.6-3.6h0.1l0.2-0.4 0.9-3.3 0.2-0.6h-0.6l-4 0.3h-0.2l-0.1 0.1-5.4 5.2-1.4-0.9 6.8-6.7 6.9-0.6 0.6 0.4-2.1 6.6-2.1 2.1-1.1 1.1c-0.3 0.4-0.7 0.7-1 1.3l0.3 0.3c0.5-0.2 0.9-0.6 1.2-1l0.2-0.2c0.1 1 0 2-0.3 3l-1-0.4 0.8 0.9c-0.2 0.4-0.4 0.8-0.6 1.1-0.4 0.6-1.1 1.4-1.8 1.9l0.5 0.6c0.8-0.6 1.5-1.4 2-2.1 1.1-1.8 1.5-3.9 1.1-5.8l0.2-0.2 0.9-0.9c1.2 2.7 0.8 6-1.1 9.1-1.1 1.6-2 2.7-3.6 3.5l0.3 0.7c1.8-0.9 2.7-2.1 3.9-3.8 2.2-3.4 2.6-7.2 1-10.1l0.4-0.4c0.4 0.5 0.7 1 1 1.5l0.6 1.5c0.9 3 0.4 6.5-1.6 9.6-1.4 2.1-3.4 3.8-5.6 4.7l0.3 0.8c2.4-1 4.5-2.8 6-5.1 1.4-2.2 2.1-4.5 2.2-6.8l1.5 3.6c-0.2 0.6-0.4 1.3-0.7 1.9-0.3 0.8-0.7 1.6-1.1 2.3-0.9 1.5-1.9 2.8-3.2 4-0.6 0.6-1.3 1.1-2.1 1.5-0.7 0.4-1.5 0.8-2.3 1.1s-1.6 0.5-2.5 0.7c-0.4 0.1-0.8 0.1-1.3 0.2-0.4 0-0.9 0.1-1.3 0.1 0.9 0 1.7 0 2.6-0.1s1.7-0.3 2.5-0.6 1.6-0.6 2.4-1.1c0.8-0.4 1.5-1 2.1-1.5 1.3-1.2 2.4-2.6 3.2-4.1 0.7-1.3 1.3-2.7 1.6-4.2l1.2 2.9c-0.2 0.7-0.4 1.4-0.7 2-0.3 0.7-0.6 1.4-1 2.1-0.7 1.3-1.6 2.6-2.7 3.6-0.5 0.5-1.1 1-1.7 1.5-0.6 0.4-1.3 0.8-2 1.1s-1.4 0.6-2.2 0.7c-0.6 0.2-1.1 0.3-1.7 0.3l-1-1-0.6 0.6 2.8 2.7 0.1 0.1c0.7 0.4 1.4 0.7 2.1 0.9l6.3 6.9c0.7 0.4 1.4 0.8 2.1 1.1s1.6 0.4 2.4 0.3c0.9-0.1 1.7-0.6 2.1-1.3 0.3-0.5 0.5-1.1 0.6-1.6 0.4-0.6 0.4-1.6 0.1-3.1 0.2-0.2 0.5-0.3 0.7-0.5l1.5 1.8 0.1 0.1h0.2c0.2 0 0.4 0.1 0.6 0.1h0.6c0.4-0.1 0.8-0.2 1.1-0.5 0.3-0.2 0.6-0.6 0.7-1 0.1-0.2 0.1-0.4 0.1-0.6v-0.1l0.1-0.1c0.3-0.5 0.4-1.9-3.3-7.2-0.4-0.5-0.7-1-1-1.5l-5.7-17.3c2.4-0.1 4.2-1 4.3-1.1l0.1-0.1 0.1-0.1c2.4-4.1 2.6-9.4 0.5-13.1-0.1-4.6-1.8-8.5-1.9-8.7l-2.1-5.5c0.1 0 0.3-0.1 0.4-0.2 0.3-0.1 0.5-0.3 0.8-0.5l0.6-0.6c0.8-1.1 1.5-2.2 2.3-3.3l2.3-3.3c0.8-1.1 1.5-2.2 2.2-3.3l2.2-3.3c0.3-0.7 0.7-1.5 0.9-2.3 0.1-0.4 0.2-0.8 0.1-1.3 0-0.1 0-0.1 0.1-0.2 0.1-0.4 0-0.7-0.1-0.9-0.1-0.3-0.2-0.5-0.3-0.7-0.5-0.9-1.1-1.7-1.7-2.4s-1.3-1.4-2-2.1c-1.3-1.3-2.7-2.6-4.1-3.8l0.4-1.2c0.3-1 0-2-0.7-2.5l-0.6-0.3h-0.3l0.2-0.4c0.3-0.4 0.1-1.4-0.3-1.7l-1.7-1.3c-0.2-0.2-0.6-0.2-0.9-0.2-0.3 0.1-0.6 0.2-0.8 0.4l-1.6 1.8c-2-1.5-4.1-3.1-6.3-4.6-1.3-0.9-2.6-1.8-3.8-2.6l4.8-8c0.5-0.7 0.3-1.6-0.3-2.1-0.3-0.2-0.7-0.3-1.1-0.3-0.4 0.1-0.7 0.3-0.9 0.6l-6 7.7-0.9-0.6c-0.4-0.2-0.8-0.5-1.2-0.7-0.8-0.5-1.7-1-2.5-1.5-1.7-1-3.4-1.9-5.1-2.8s-3.5-1.7-5.4-2.3c-0.5-0.1-0.9-0.3-1.4-0.4s-1-0.2-1.6 0c-0.2-0.1-0.5-0.1-0.8-0.1-0.5 0-0.9 0.1-1.3 0.3-0.8 0.3-1.5 0.9-2.1 1.5-0.1 0.2-0.3 0.3-0.4 0.5s-0.2 0.3-0.4 0.5l-0.7 1-1.3 1.9-5.4 7.8-0.6 0.9c-0.2 0.3-0.3 0.6-0.4 1-0.2 0.7-0.3 1.5-0.1 2.3 0.1 0.4 0.3 0.8 0.5 1l0.3 0.4-25.1 1.7c-1.2 0-17.7 0.2-23 11.8l1.1 0.5c0.5-1.1 1.1-2.1 1.9-3l2.6 1.7 0.4-0.7-2.6-1.5c1.2-1.4 2.6-2.5 4.1-3.4 1 0.7 2.1 1.3 3.1 2 1.2 0.7 2.4 1.4 3.5 2.1l0.4-0.7c-1.2-0.6-2.4-1.3-3.6-2-1-0.6-2-1.1-2.9-1.7 6.6-3.8 14.8-3.8 15-3.8l25.8-1.8c0.2 0.3 0.4 0.6 0.6 0.8 1.6 2.1 3.3 4.1 5 6.1 3.5 3.9 7.2 7.6 11.1 11.1 2 1.7 4 3.3 6.2 4.9 2.1 1.5 4.4 2.9 6.7 4.2 2.3 1.2 4.8 2.3 7.3 3.1s5.1 1.3 7.8 1.5h0.1 0.1 0.1l2.1 5.7c0 0.1 3.2 7.4 1.1 13.3-0.8 2.4-2.9 6.7-5.6 11.6l-1.2-2.9c-0.2-0.5-0.4-1.1-0.6-1.6-0.4-0.7-0.8-1.3-1.3-1.9h-0.1l2.1-6.7 0.1-0.3-0.2-0.2-1.3-1-6.2-4.9c-2.1-4.6-5.4-7.9-9.5-9.7-2.2-0.9-4.6-1.3-7.1-1.3l-4.4-1.8-6.4 0.6-4.2 8c-0.5-0.8-1.1-1.6-1.8-2.3-0.5-0.5-1-0.9-1.6-1.3s-1.2-0.7-1.8-0.9c-1.3-0.5-2.7-0.6-4.1-0.4-0.9 0.1-1.7 0.4-2.5 0.8l-20.7 6h-0.1l-1.1 0.6c-0.3 0.2-0.6 0.5-0.8 0.7l-2-0.9 1.4-2.7h0.1c0.1 0 0.2 0 0.3-0.1h0.1 0.1 0.1c0.1 0 0.2-0.1 0.3-0.1h0.1l3.7 0.9-2.7-1.2c0.3-0.1 0.6-0.2 0.9-0.3 0.4-0.1 0.7-0.3 1.1-0.4 0.6-0.2 1.1-0.4 1.7-0.6 0.7-0.2 1.5-0.4 2.1-0.5-0.1 0.2-0.2 0.5-0.2 0.7-0.2 0.8-0.4 1.5-0.5 2.3 0.3-0.7 0.6-1.4 0.9-2.2 0.1-0.4 0.3-0.7 0.5-1.1l0.5-1.1c0.7-1.4 1.3-2.8 1.9-4.2s1.2-2.9 1.8-4.3l0.4-1.1 0.5-1.1c0.3-0.7 0.6-1.4 0.9-2.2-0.4 0.7-0.8 1.3-1.2 2l-0.6 1c-0.2 0.3-0.3 0.7-0.5 1.1-0.7 1.4-1.3 2.8-1.9 4.2 1.3-4.6 2.1-10.7-2.3-14.1-0.7-0.6-1.5-1-2.4-1.4-3.8-1.6-7.8-1.3-11.7 0.7-1.4 0.8-2.7 1.7-3.9 2.9-0.3-0.2-0.7-0.4-1-0.6l-0.4 0.7c0.3 0.2 0.5 0.3 0.8 0.5-0.7 0.7-1.3 1.5-1.9 2.3-1.5-0.8-3-1.7-4.5-2.6l-0.4 0.7c1.4 1 2.9 1.9 4.4 2.8-0.7 1.1-1.4 2.3-1.9 3.5-0.4-0.3-0.9-0.5-1.3-0.8-0.6-0.3-1.1-0.7-1.7-1 0.2-1.2 0.4-2.4 0.7-3.6l-1.1-0.3c-1.4 6.1-1.4 12.3-1.4 19.4v7.3h0.1l-1.9 3.6c-1.4 0.1-4.1 0.9-5.3 4.9-0.7 2.3-0.3 4.6 1.1 6.2s3.6 2.5 5.8 2.2c0.1 0 0.4-0.1 0.8-0.1 0.3 5.7 3.8 14.1 7.2 19 1.7 2.5 3.9 4.6 6.4 6.5-1 1.5-1.6 3.3-1.9 5.1l-20.5 3.1c-1.2-1.7-2.9-2.9-4.8-3.5l-13.3-3.4c-0.5-0.2-1-0.3-1.6-0.4l-0.9-0.2v0.1h-0.2c-0.4 0-0.9-0.1-1.4-0.1-7.1 0-13 5.8-13 12.9s5.8 12.9 13 12.9c0.5 0 0.9 0 1.4-0.1s1-0.1 1.4-0.2l13.2-2.7 27.7 4.5c-0.2 0.5-0.4 0.9-0.5 1.4-0.3-0.1-0.5-0.1-0.8-0.1h-1.2-2.4-4.9-9.7-0.1c-1.1 0.2-2.3 0.4-3.4 0.6s-2.3 0.5-3.4 0.7c-1.1 0.3-2.2 0.5-3.4 0.8-0.3 0.1-0.6 0.2-0.9 0.2-2.7 0.6-6.2 2.2-9 6h-15.3-0.1c-2.5 0.5-4.9 1-7.3 1.5-1.3 0.3-2.6 0.6-3.9 1-0.9 0.2-2 0.5-3.1 0.9-0.1 0-0.1 0-0.2 0.1-2.6 1.1-5.4 3-7.6 6.4l-17.5 26.6c-2.3 3.1-3.8 5.8-4.6 8.1l-0.9 1.8c-0.4 0.9-0.7 1.7-0.8 2.7-0.1 0.5-0.1 1-0.1 1.5s0.2 1 0.5 1.5 0.7 0.8 1.1 1.1 0.9 0.5 1.3 0.6c0.9 0.3 1.8 0.5 2.8 0.6 0.5 0 0.9 0.1 1.4 0.1h1.4 2.7 21.6l43.3 0.1h43.3 21.6 5.4 2.7c0.9 0 1.8-0.1 2.7-0.2 1.8-0.2 3.6-0.6 5.4-1.1 0.9-0.3 1.8-0.6 2.6-0.9s1.6-0.7 2.5-1.2c1.6-0.7 3.2-1.4 4.8-2.2l2.4-1.1c0.8-0.4 1.6-0.7 2.4-1.2 1.6-0.9 3.1-2.2 4.1-3.8 0.4-0.7 0.7-1.4 0.8-2.2h1.1c2.8 0 4.4-0.6 4.7-0.7h0.1l0.1-0.1c0.8-0.2 4.7-1.5 13.9-5.8 2.9-1.4 4.7-3.3 5.2-5.8 0.8-4.8-3.7-10.5-3.9-10.7zm-24.4-90.7l3.2-0.3-0.7 2.5c-0.4-0.2-0.9-0.4-1.4-0.6-0.7-0.3-1.4-0.6-2.1-0.8l1-0.8zm14.9-53c0.2 0 0.3 0.1 0.4 0.2 0.5 0.4 0.7 1.1 0.5 1.9l-0.4 1.4c-0.6 0.7-1.2 0.6-2.2-0.1-0.1-0.1-0.2-0.2-0.3-0.2l-0.2-0.1 0.1-0.1 1.6-3h0.5zm-3.3-3.6c0.1-0.1 0.3-0.2 0.5-0.2h0.2c0.2 0 0.3 0 0.4 0.1l1.7 1.3c0.3 0.2 0.4 1 0.2 1.2l-2.2 3.9c-0.1 0.2-0.3 0.3-0.5 0.2 0 0-1.1-0.3-1.9-0.9l-0.1-0.1c-0.8-0.6-1.4-1.6-1.4-1.6-0.1-0.2-0.1-0.5 0-0.6l3.1-3.3zm-12.2-4.1c0.8 0.9 0.7 1.7 0.6 2v0.1l-0.9 2.8c-0.1 0.2-0.3 0.3-0.6 0.3-1.1 0.2-2.8-0.5-4.5-1.7l-0.3-0.2c-2.3-1.7-3.3-3.7-3-4.5 0 0 0-0.1 0.1-0.1l1.3-1.1 0.9-0.7s0.8-0.6 2 0l0.5 0.3-0.1 0.2c-0.4 0.6 0 1.4 1.1 2.2 0.5 0.3 1.1 0.7 1.6 0.7h0.2c0.2 0 0.4-0.2 0.6-0.3l0.1-0.1h0.1l0.3 0.1zm3.1-10.9c0.1-0.2 0.3-0.3 0.6-0.4h0.1c0.2 0 0.4 0.1 0.5 0.2 0.4 0.3 0.5 0.9 0.2 1.3l-5.5 9.1c0 0.1-0.1 0.1-0.2 0.1-0.3 0-0.8-0.2-1.4-0.6-0.8-0.6-1.1-1.1-1-1.4l6.7-8.3zm-21.8 0.3c1.8 0.6 3.6 1.4 5.3 2.2l5.1 2.7c0.8 0.5 1.7 1 2.5 1.5 0 0 0.1 0 0.1 0.1-0.6 0.1-1 0.4-1 0.4l-0.6 0.5-1.7 1.4-0.1 0.1c-0.1 0.1-0.1 0.2-0.1 0.3-0.5 1.3 0.8 3.4 3.2 5.2l0.3 0.2c1.6 1.2 3.3 1.9 4.5 1.9h0.4c0.5-0.1 0.8-0.3 1-0.6l0.4-1.2 0.6-1.7v-0.1c0.1-0.3 0.1-0.9-0.2-1.5 0.8 0.5 1.5 1.1 2.3 1.6 2.1 1.5 4.2 3 6.2 4.5l-0.6 0.7c-0.2 0.3-0.2 0.7-0.1 1.1 0 0 0.6 1 1.5 1.7l0.1 0.1c0.9 0.7 2 0.9 2 0.9h0.2 0.1l0.4 0.3 0.3 0.3c0.3 0.2 0.9 0.7 1.7 0.7 0.4 0 0.8-0.1 1.1-0.5 1.4 1.2 2.7 2.4 4 3.7 0.7 0.7 1.3 1.4 1.9 2.1s1.2 1.5 1.6 2.3c0.1 0.1 0.1 0.3 0.2 0.4 0.1 0.3 0 0.6 0 0.9-0.1 0.1-0.3 0.1-0.5 0.1-0.9 0-1.8-0.3-2.7-0.6-1.8-0.6-3.5-1.5-5.2-2.3-3.4-1.7-6.7-3.7-10-5.8-3.2-2.1-6.4-4.3-9.5-6.5-3.1-2.3-6.2-4.6-9.1-7.1-1.5-1.2-2.9-2.5-4.3-3.9-0.7-0.7-1.3-1.4-2-2.1-0.6-0.7-1.2-1.4-1.7-2.2-0.2-0.4-0.5-0.8-0.5-1.2v-0.4c0-0.1 0.1-0.1 0.3-0.2 0.4-0.1 0.8 0 1.3 0 0.4-0.3 0.8-0.2 1.3 0zm30.2 49.3c-5.1-0.3-10-2.1-14.5-4.5-4.5-2.5-8.7-5.5-12.6-8.9s-7.6-7.1-11-10.9c-1.7-1.9-3.4-3.9-5-6l-1.2-1.5-0.6-0.8c-0.2-0.2-0.3-0.4-0.4-0.7-0.3-0.9 0.2-2.2 0.8-3.1l5.3-7.8 1.3-2 0.7-1c0.1-0.2 0.2-0.3 0.3-0.5 0.1-0.1 0.2-0.3 0.3-0.4 0.5-0.5 1-1 1.7-1.3 0.2-0.1 0.5-0.2 0.7-0.2v0.6c0.1 0.6 0.4 1 0.6 1.4 0.5 0.9 1.2 1.6 1.8 2.4 0.6 0.7 1.3 1.4 2 2.1 1.4 1.4 2.8 2.7 4.3 3.9 2.9 2.5 6 4.9 9.1 7.2s6.3 4.5 9.6 6.6 6.6 4.1 10.1 5.8c1.7 0.9 3.5 1.7 5.4 2.3 0.5 0.2 0.9 0.3 1.4 0.4s1 0.2 1.5 0.2h0.3c0 0.1 0 0.1-0.1 0.2-0.2 0.7-0.5 1.4-0.8 2l-2.3 3.2c-0.8 1.1-1.5 2.2-2.3 3.3l-2.3 3.3c-0.7 1.1-1.5 2.2-2.2 3.3l-0.5 0.5c-0.2 0.1-0.3 0.3-0.5 0.4 0 0.2-0.4 0.3-0.9 0.5zm-1.5 43.3c0.3-0.5 0.5-1 0.7-1.6 0.1 0.4 0.3 0.7 0.4 1.1 0.2 0.4 0.4 0.8 0.5 1.3 0.1 0.4 0.1 0.8 0 1.2 0 0.1-0.1 0.1-0.1 0.2h-0.1-0.1c-0.2 0-0.4 0-0.5-0.1-0.4-0.4-0.9-0.8-1.3-1.2 0.2-0.3 0.4-0.6 0.5-0.9zm-2.7 3.8c0.4-0.4 0.7-0.8 1.1-1.2 0.4 0.7 1 2 1 2.4 0 0.5-0.3 0.7-0.4 0.8-0.6 0.5-1.5-0.1-1.5-0.1l-1.2-1c0.4-0.3 0.7-0.6 1-0.9zm-3.9 2.5c0.3-0.1 0.7-0.3 1-0.5l0.6 1.4s0.2 0.7-0.2 1c-0.2 0.1-0.9 0.5-1.4 0-0.5-0.4-1.1-1.1-1.4-1.5 0.5 0 1-0.2 1.4-0.4zm-3.9 0.9c0.7 0 1.3-0.1 2-0.3 0.1 0.1 1 1.1 1.6 1.6 0.3 0.2 0.6 0.3 0.9 0.3 0.4 0 0.7-0.1 1-0.3 0.6-0.4 0.5-1.1 0.4-1.4l-0.6-1.5c0.4-0.2 0.8-0.5 1.2-0.8l1.2 1s0.6 0.4 1.2 0.4c0.3 0 0.5-0.1 0.8-0.3 0.2-0.1 0.6-0.5 0.6-1.2 0-0.6-0.9-2.3-1.1-2.7l0.6-0.9 1.2 1.2c0.3 0.2 0.5 0.2 0.8 0.2h0.2c0.1 0 0.2-0.1 0.2-0.1 0.1-0.1 0.2-0.2 0.3-0.4 0.1-0.3 0.1-0.5 0.1-0.8s-0.1-0.5-0.1-0.8c-0.2-0.5-0.4-0.9-0.6-1.3s-0.4-0.8-0.7-1.2c0.3-0.8 0.5-1.5 0.6-2.3l1.3 3.2c0.6 2.3 0.2 4.8-1.2 6.9-1.2 1.8-2.9 3.2-4.9 3.7-1.9 0.5-3.9 0.3-5.5-0.7l-1.5-1.5zm15.5-4.1l-1.7 1.4c0.4-1 0.6-2 0.7-3l1 1.6zm5.1 7.8l-1.9 1.5-0.6-0.8 2-1.5 0.5 0.8zm-2.7 0.5l-0.7-0.8 2.1-1.6 0.6 1-2 1.4zm-0.8-1l-0.7-0.9 2.2-1.7 0.6 1-2.1 1.6zm-0.8-1l-0.7-0.9 2.3-1.8 0.6 1-2.2 1.7zm-0.9-1.1l-0.7-0.9 2.4-1.9 0.6 1-2.3 1.8zm-0.8-1l-0.7-0.9 2.5-2 0.6 1-2.4 1.9zm-0.9-1l-0.5-0.7c0.1-0.3 0.3-0.5 0.4-0.8l2-1.6 0.7 1-2.6 2.1zm-0.3 11.7c-0.4 0-0.9-0.1-1.3-0.3l1.9-1.5c0.4 0.1 0.8 0.3 1.3 0.3l-1.9 1.5zm-1.6-0.3c-0.4-0.1-0.7-0.3-1-0.4l1.9-1.5c0.3 0.2 0.6 0.3 1 0.5l-1.9 1.4zm-1.2-0.6l-0.6-0.3-0.4-0.4 1.9-1.5 0.2 0.3h0.1c0.1 0.1 0.3 0.2 0.6 0.4l-1.8 1.5zm-1-0.8l-0.8-0.8 2-1.5 0.7 0.9-1.9 1.4zm-0.9-1l-0.8-0.8 2-1.6 0.7 0.9-1.9 1.5zm1.1-2.6l-2.1 1.6-0.8-0.8 2.1-1.7 0.1 0.1 0.7 0.8zm-2.4-2.3c0.1 0 0.2-0.1 0.4-0.1 0.1 0.1 0.2 0.2 0.3 0.4l-2.1 1.6-0.8-0.9 1.1-0.7c0.3-0.1 0.7-0.2 1.1-0.3zm0.8 0.4l0.8 0.8-2.1 1.6-0.8-0.8 2.1-1.6zm-3.1-0.1h0.6l-0.8 0.5-0.5-0.5h0.7zm10.6 6.4c-0.4 0.5-1 0.8-1.7 0.9h-0.3l1.8-1.4c0.2 0 0.4 0 0.6-0.1-0.1 0.2-0.3 0.4-0.4 0.6zm0.3-1.4c-0.7 0.5-2.6-0.3-3.7-1l-1.1-1.4c0.5 0.3 1.1 0.5 1.8 0.5h0.7c0.8 0 1.7-0.2 2.5-0.6 0.3 1.3 0.3 2.2-0.2 2.5zm-2.9-2.7c-1.4-0.2-2.6-1-3.4-1.7l-1.1-1.3c1.6-0.7 3.1-2 4.1-3.6l4.4 5.4c-1.3 0.9-2.6 1.4-4 1.2zm5.7-0.5l1.9-1.5 0.5 0.8-1.8 1.4-0.6-0.7zm2.8 0c-0.1 0.2-0.3 0.4-0.5 0.6-0.2 0.1-0.5 0.2-0.7 0.3-0.1 0-0.3 0-0.4 0.1h-0.3l1.8-1.4 0.2 0.3-0.1 0.1c0.1-0.1 0 0 0 0zm0.3-1.1l-7.5-11.3c0-0.3-0.1-0.7-0.2-1 1 1.4 2.4 3.4 4.3 6.3 2.8 3.9 3.3 5.4 3.4 6zm-5.3-34.2c0.4-1.2 0.7-2.4 0.8-3.7 1.2 3.3 0.9 7.6-1 10.9-0.4 0.2-1.7 0.8-3.4 0.9 1.7-3.5 3-6.3 3.6-8.1zm-4.6 9.9l4.6 14.1c-2.2-3.1-3.2-4.6-3.6-5.2l-2.5-6.1c0.5-1 1-2 1.5-2.8zm-63.9 3.1c0.2 0.1 0.4 0.3 0.5 0.4l-3.9 0.9c-1.3 0.3-1.7-0.2-1.8-0.6-0.2-0.5-0.2-1 0.9-1.7l2.1-1c0.7 0.7 1.4 1.4 2.2 2zm0.3-0.3c-1.1-1-2.1-2.1-3-3.4-1.7-2.5-2.8-5.3-3.3-8.3-0.3-1.5-0.4-3-0.3-4.4 0.1-1.5 0.4-3 0.9-4.3 0.5-1.4 1.3-2.7 2.4-3.7l0.4-0.4 0.4-0.4 0.5-0.3 0.1-0.1 3.9-1.1c-0.3 0.2-0.6 0.5-0.9 0.8-1.1 1.1-1.9 2.5-2.5 3.9s-0.9 3-1.1 4.5c-0.1 0.8-0.1 1.6-0.1 2.3 0 0.8 0.1 1.6 0.2 2.3 0.4 3.1 1.5 6.1 3.2 8.6 0.9 1.3 1.9 2.5 3.1 3.4 0.3 0.2 0.6 0.5 0.9 0.7s0.6 0.4 1 0.6c0.5 0.3 0.9 0.5 1.4 0.6l-1.2 0.2-2.9 0.5c-0.5-0.2-1-0.5-1.4-0.7-0.6-0.3-1.2-0.8-1.7-1.3zm-5.7-6.8c0.4 1 0.9 1.9 1.5 2.8l-3.6 0.8c-1.3 0.1-1.6-0.4-1.7-0.9s-0.1-1.1 1.1-1.6l2.7-1.1zm-1.7-9.1l-2.2 0.3c-0.8 0.1-1.8-0.2-1.9-0.8s0.1-1 1.5-1.5l3-0.8c-0.2 0.9-0.4 1.8-0.4 2.7v0.1zm0.3 4.5c0.1 0.5 0.2 1.1 0.4 1.6l-3.4 0.3c-0.8 0.1-1.5-0.4-1.6-1.1s0.3-1.1 1.3-1.4l3.1-0.9c0 0.5 0.1 1 0.2 1.5zm1.1-9.8h-1.5-0.2c-0.3 0-1 0-1.1-0.3v-0.3c0.2-0.3 0.6-0.6 1.2-0.7l3.1-1c-0.6 0.7-1.1 1.4-1.5 2.3zm14 22.6l-0.5 0.1c-1.2-0.6-2.3-1.3-3.2-2.2-1.1-1-2-2.2-2.8-3.5s-1.4-2.6-1.9-4l-0.3-1.1-0.3-1.1c-0.1-0.7-0.3-1.5-0.4-2.2s-0.2-1.5-0.2-2.2 0-1.5 0.1-2.2c0.1-1.5 0.4-3 0.9-4.4s1.2-2.7 2.2-3.9c0.4-0.5 0.9-0.9 1.4-1.3l4.4-1.3c-0.8 0.7-1.4 1.5-1.9 2.3-0.7 1.1-1.3 2.4-1.7 3.7-0.8 2.6-1 5.3-0.8 8s1 5.3 2.2 7.7c0.6 1.2 1.3 2.3 2.2 3.4 0.9 1 1.9 2 3.1 2.7 0.6 0.4 1.3 0.6 1.9 0.9l-2.8 0.4c-0.7 0-1.2 0.1-1.6 0.2zm18.7-10.6l8.6-19.2 9.9 0.6 0.8 1.1s0 0.1 0.1 0.1l0.6 0.9c0.1 0.2 0.2 0.3 0.3 0.5l-1.8-0.1-0.8-1-8.2-0.1-2.9 6.6-0.5 0.5-1.4-0.1-0.1 0.8 0.7 0.1-0.5 0.6 0.7 0.5-3 6.8 2.8-0.1 0.3 1.3-5.6 0.2zm25-6.3l-11.5-8.5 10.8 8.9-6.4 6.3-11.9-9.3 0.3-0.4 1.1 0.1 11.4 8.6 0.5-0.7-11.6-8.7-0.7-0.1 5.3-5.6 8 0.5 10.5 8.3-5.8 0.6zm-8.9 6.9c-0.2-0.2-0.3-0.4-0.2-0.6l1.4 1.1-0.3 0.3-0.9-0.8zm-8-12.8l1.8-4.2h2.1l-3.9 4.2zm5.5-4.2h3.6l0.1 0.2-3.7-0.2zm-8.9 11.8l0.4 2.3h-1.5l1.1-2.3zm1.1 1.2l10.2 7.4h-0.1v0.2l-0.7 5-8.2-6.4-1.2-6.2zm8.1 12.9v-0.2l0.2 0.2h-0.2zm3-5.9l-12-8.7 1.1-2.6 9.4 7.3c-0.2 0.4-0.1 1 0.3 1.4l1.1 1.1 0.4-0.4 0.1 0.1 1.6 1-2 0.8zm7.7-16.5l-3-2.4c-0.3-0.6-0.7-1.1-1.1-1.7l-0.6-0.9c-0.1-0.1-0.1-0.2-0.2-0.3l-0.1-0.1s0-0.1-0.1-0.1c0-0.1-0.1-0.1-0.2-0.2l-0.1-0.1-7.9-3.2c1.7 0.1 3.3 0.5 4.8 1.2 3.6 1.5 6.5 4.2 8.5 7.8zm-25.5-10.3l5.8-0.5 4.3 1.8 5.5 2.3-6.3-0.4-8-2.7 7.4 3.3-8.5 19-6.9-10.1 1-1.8 1.5-2.8 0.1 0.1s0-0.1-0.1-0.1l4.2-8.1zm-2.4 23.2c-0.6 0.8-1.4 1.4-2.3 1.6-0.1 0-0.2 0.1-0.4 0.1l0.4-2.1-1.2 2.1c-0.5-0.1-1.1-0.3-1.6-0.5-0.8-0.5-1.4-1.2-2-2-0.3-0.5-0.6-1.1-0.8-1.7l2.9-1-3.1 0.2c0-0.1 0-0.2-0.1-0.2-0.5-1.9-0.4-3.9 0.3-5.7l0.3-0.6 2.6 0.7-2.2-1.4c0.3-0.4 0.6-0.7 1-1 0.5-0.4 1.2-0.7 1.9-0.7l-1 1.9 1.6 2.4c-0.5 0.8-0.8 2-0.6 3.2 0.1 1 0.5 2 1.2 2.7 0.6 0.6 1.2 0.9 1.9 0.9h0.3l1.5-0.4c0 0.3-0.1 0.5-0.2 0.8-0.1 0.1-0.3 0.4-0.4 0.7zm-8.3-9.5c-0.5 1-0.7 2-0.8 3s0 2.1 0.2 3.1 0.6 2 1.2 2.9 1.3 1.7 2.3 2.2c0.7 0.4 1.6 0.6 2.4 0.5h0.1v-0.1c0.2 0 0.4-0.1 0.7-0.1 0.4-0.1 0.7-0.3 1.1-0.6-0.1 0.3-0.3 0.6-0.5 0.9-0.3 0.4-0.6 0.7-0.9 1-0.7 0.6-1.4 1.1-2.2 1.5-0.4 0.2-0.8 0.3-1.3 0.3h-1.3c-0.9-0.1-1.7-0.5-2.4-0.9-1.5-1-2.6-2.4-3.4-4s-1.3-3.3-1.5-5.1-0.1-3.6 0.3-5.3 1.2-3.4 2.4-4.6c0.6-0.6 1.3-1.1 2.2-1.4 0.8-0.3 1.7-0.4 2.6-0.3s1.7 0.4 2.5 0.9c0.6 0.4 1.1 0.8 1.6 1.3l-1 1.9c-0.7 0-1.5 0.1-2.2 0.6-1 0.5-1.7 1.3-2.1 2.3zm7.4 7.8c-0.6 0.1-1.3-0.2-1.8-0.8-0.6-0.6-0.9-1.5-1-2.4-0.1-1 0-2 0.5-2.7l3.8 5.5-1.5 0.4zm-10.5-18.2c0.6-0.1 1.2-0.1 1.8 0s1.2 0.2 1.8 0.4c1.2 0.4 2.3 1 3.2 1.8 0.8 0.6 1.5 1.3 2.1 2l-0.7 1.3-0.5-0.5c-0.3-0.3-0.7-0.6-1.1-0.9-0.8-0.5-1.6-0.9-2.6-1.1-0.9-0.2-1.9-0.1-2.8 0.2s-1.7 0.8-2.4 1.5c-1.4 1.3-2.2 3.1-2.7 4.9s-0.6 3.7-0.3 5.6c0.2 1.9 0.8 3.7 1.7 5.4 0.9 1.6 2.1 3.2 3.8 4.2 1.6 1 3.8 1.3 5.5 0.5 0.9-0.4 1.6-1 2.2-1.7 0.3-0.3 0.6-0.7 0.9-1.1 0.2-0.3 0.3-0.6 0.4-1 0.5-0.4 1-0.9 1.3-1.4 0.1-0.3 0.3-0.7 0.3-1 0.1-0.3 0.1-0.5 0.1-0.8h0.1l0.5 0.7c0 0.2 0 0.3-0.1 0.5-0.1 0.5-0.2 1-0.4 1.5-0.1 0.5-0.3 1-0.5 1.4-0.2 0.5-0.4 1-0.6 1.4-0.4 1.2-1.2 2.2-2.1 3s-2 1.5-3.2 2c-2.3 1-5 0.7-7.1-0.6-1.1-0.6-2-1.5-2.8-2.5s-1.5-2-2-3.2c-1.1-2.3-1.8-4.8-2-7.3s0-5.1 0.7-7.5c0.4-1.2 0.9-2.4 1.5-3.4 0.7-1.1 1.5-2 2.5-2.7 1.1-0.9 2.3-1.4 3.5-1.6zm-24.1 7.1l1-0.6 8.2-2.4c-0.1 0.1-0.2 0.1-0.2 0.2l-0.5 0.4-0.3 0.3-3.8 1.2c-0.7 0.2-1.2 0.5-1.4 0.9-0.1 0.2-0.1 0.4-0.1 0.6 0.2 0.6 1.1 0.6 1.6 0.6h0.2 1.3c0 0.1-0.1 0.1-0.1 0.2-0.2 0.5-0.4 0.9-0.5 1.4l-3.2 0.9c-1.2 0.4-2 0.9-1.8 1.9 0.1 0.8 1.1 1.2 1.9 1.2h0.4l2.1-0.3v2.2l-3.2 0.9c-1.4 0.5-1.7 1.3-1.6 1.9 0.1 0.8 0.9 1.4 1.8 1.4h0.3l3.4-0.3c0.2 0.8 0.5 1.5 0.8 2.3l-2.7 1.2c-1.1 0.5-1.6 1.2-1.4 2.1 0.2 0.8 0.8 1.2 1.8 1.2h0.4l3.8-0.9c0.1 0.2 0.3 0.4 0.4 0.6 0.2 0.3 0.5 0.6 0.7 0.9l-2 0.9c-1.1 0.6-1.4 1.3-1.1 2.2 0.3 0.7 0.8 1 1.5 1 0.2 0 0.5 0 0.8-0.1l4.3-1c0.7 0.4 1.5 0.8 2.3 1.1l-0.7 0.1-3.8 0.6-1.9 0.3-1.8 0.3c-1.2-0.4-2.3-1-3.3-1.8-0.8-0.6-1.5-1.2-2.1-1.9v-0.1c-0.2-0.2-0.4-0.5-0.6-0.7-1.7-2-2.9-4.3-3.7-6.8s-1.1-5.1-0.7-7.7c0.2-1.3 0.6-2.5 1.1-3.7 0.6-0.9 1.4-2 2.4-2.7zm-1.6 0.3c-0.5 0.6-1 1.2-1.4 1.9l-2.3 0.6 1.7-3.1 2 0.6zm-5.9-26.1c2.5-1.3 6.4-2.6 10.9-0.7 0.8 0.3 1.6 0.8 2.2 1.3 5.6 4.5 1.7 14.3 0.2 18-0.1 0.1-0.1 0.3-0.2 0.4-0.6 0.1-1.3 0.3-2 0.5-0.6 0.2-1.2 0.4-1.7 0.6-0.4 0.1-0.7 0.3-1.1 0.4-0.5 0.2-1 0.4-1.5 0.5h-0.1c-0.1 0-0.1 0-0.2 0.1h-0.1c-0.1 0-0.2 0.1-0.2 0.1h-0.1-0.1-0.1c-0.1 0-0.2 0-0.2 0.1h-0.1-0.2c-1.3 0.2-2.5 0.3-3.7 0.3h-0.1c-7.4-0.5-10.6-7.4-11-8.4 1-5.5 4.7-10.7 9.4-13.2zm-11 24.4l-1-0.5c-0.3-0.2-0.7-0.4-1-0.6v-0.4-4.1c0.5 0.3 1 0.7 1.5 1 0.7 0.5 1.5 0.9 2.2 1.3l-1.7 3.3zm2.2-4.2c-0.7-0.4-1.5-0.8-2.2-1.2s-1.3-0.8-2-1.2c0-1.5 0.1-3 0.1-4.4l3.4 2.1c0.4 0.7 1 1.6 1.8 2.5l-1.1 2.2zm-2.2-11.1c0.5 0.3 1 0.6 1.4 0.8-0.4 1-0.7 2.1-0.9 3.2v0.1 0.1s0.1 0.3 0.4 0.8l-2.7-1.7c0.1-1.4 0.2-2.9 0.4-4.3 0.4 0.5 0.9 0.7 1.4 1zm-2 15c0.2 0.1 0.4 0.3 0.6 0.4l1 0.6-1.6 3.1v-4.1zm0 6.1v-0.3l6-11.4c1.9 1.9 4.6 3.7 8.4 4h0.1 0.9c0.8 0 1.5-0.1 2.3-0.2l-3.5 6.5-1 0.3-1.8 3.1-13.4 1.5 1.9-3.6 0.1 0.1zm-1.4 16.1c-1.9 0.3-3.8-0.4-5.1-1.9s-1.6-3.4-1-5.5c1.5-4.9 5.3-4.4 5.4-4.4h0.1l13.9-1.5 1.8-3.2 3.4-0.9c-0.5 1.1-0.8 2.2-0.9 3.3-0.4 2.7-0.1 5.5 0.7 8.1s2.1 5 3.9 7.1l0.2 0.2-5.9 0.3-3.1-3.3-6.7 0.8c-0.3 0.1-6.1 0.8-6.7 0.9zm66.7 58.5c0.1 0 7.2-0.8 13.4 6.5 6.4 7.6 13.8 17.7 13.9 17.8s6.3 9.3 4.5 14.9c-0.5 1.7-1.7 2.8-3.6 3.5h-0.1c-1.3 0.5-3 0.7-4.9 0.7h-0.3c0-0.2 0-0.5-0.1-0.7-0.2-1.9-0.8-3.6-1.6-5.2-0.4-0.8-0.8-1.6-1.3-2.4-0.2-0.4-0.5-0.8-0.8-1.1-0.1-0.2-0.3-0.3-0.4-0.5l-0.4-0.5c-2.1-2.9-4.2-5.7-6.3-8.6s-4.2-5.7-6.3-8.5l-1.6-2.1c-0.3-0.4-0.5-0.7-0.8-1.1-0.3-0.3-0.6-0.7-0.9-1-1.3-1.3-2.7-2.5-4.3-3.4s-3.3-1.6-5-2.1l-2.7-0.6c-0.5-0.1-0.9-0.1-1.4-0.2h-0.7-0.7-10.6c0.3-0.3 0.4-0.5 0.5-0.6 0.8-1.4 1.2-3 1.3-4.6l21.2-0.2zm-21.1-1.3c0-0.2-0.1-0.5-0.1-0.7l1.2-0.1h4.6l-5.7 0.8zm-1.4-1.1l0.3 1.5v0.7c0 1.5-0.4 2.9-1.1 4.2-0.3 0.5-1 1.1-1.5 1.3h-4.7c0.6-1.1 1.1-2.4 1.3-3.7 0.1-0.7 0.1-1.4 0.1-2.1s-0.1-1.4-0.3-2.1c-0.4-1.4-1-2.7-1.9-3.9-0.5-0.7-1.2-1.3-1.9-1.9l5.7 1c1.9 1 3.4 2.9 4 5zm-11.5-6.4c2.4 1.3 4.4 3.5 5.2 6.2 0.2 0.7 0.3 1.4 0.4 2.1s0.1 1.4 0 2.1c-0.1 1.3-0.5 2.5-1.1 3.7h-2.3c0.7-1.5 1.1-3.2 1.1-4.9v-0.9c-0.1-0.7-0.2-1.4-0.4-2.1-0.7-2.6-2.3-4.8-4.4-6.4l1.5 0.2zm-6.9-1.2l0.6 0.1c3.8 0.8 7 3.6 8.1 7.5 0.2 0.6 0.3 1.3 0.3 1.9v0.9c0 1.7-0.4 3.4-1.2 4.9h-18.5c-0.8-1.5-1.2-3.2-1.2-4.9v-0.9c0-0.7 0.2-1.3 0.3-1.9 1.2-4.5 5.4-7.7 10.1-7.7 0.5 0 1 0 1.5 0.1zm-38.7-12.3l0.6 3.4-0.3-3.5 1.7-0.3 0.6 3.4-0.3-3.4 1.4-0.2 0.6 3.4-0.3-3.5 1.4-0.2 0.6 3.5-0.3-3.5 1.4-0.2 0.6 3.5-0.3-3.6 1.5-0.2 0.6 3.4-0.3-3.5 1.5-0.2 0.6 3.3-0.3-3.4 1.5-0.2 0.6 3.2-0.3-3.3 1.2-0.2 0.6 3.3-0.3-3.4 1.4-0.2 0.6 3.4-0.3-3.4 1.4-0.2 0.6 3.4-0.3-3.5 1.4-0.2 0.6 3.5-0.3-3.5 1.5-0.2 0.6 3.4-0.3-3.4 1.5-0.2 0.6 3.3-0.3-3.3 1.6-0.2 0.6 3.2-0.3-3.2h0.2v0.2c0 1.7 0.4 3.4 1.1 4.9l-28 4.2h-0.3c0.1-0.7 0.2-1.4 0.2-2.1 0-0.5 0-0.9-0.1-1.2-0.1-0.6-0.2-1.3-0.3-1.9l2.3-0.4zm3.3 7c-0.4 0-0.8-0.1-1.2-0.1-0.8-0.1-1.6 0-2.4 0-0.5 0-1 0-1.6 0.1l-0.7-0.1h6.8l-0.2 0.2c-0.3 0-0.5-0.1-0.7-0.1zm23.9-4.6l0.1 0.1-12.6 1.7 12.5-1.8zm-29.9 4.4l-0.4-0.1 0.4 0.1zm33.5 6.1l-1.2 0.9 0.2-1.1 1 0.2zm21.4-9.7l-7.3 1.9c1.7-1.5 2.9-3.4 3.5-5.6 2.1 0.7 4.2 1.4 6.5 2.1-0.8 0.7-1.7 1.3-2.7 1.6zm-10.7-6.1c-0.1 0.5-0.3 1-0.6 1.4-0.4 0.6-0.9 1-1.5 1.4-1.2 0.7-2.6 0.8-3.8 0.2-1.2-0.5-2.1-1.6-2.4-2.9-0.3-1.1-0.1-2.4 0.6-3.4 2.3 1.1 4.8 2.2 7.7 3.3zm-14.8-1.5c0.1-1.8 0.7-3.5 1.7-5 1.6 1.1 3.3 2.1 5.2 3.1-0.4 0.4-0.6 0.8-0.8 1.3-0.1 0.4-0.2 0.7-0.3 1.1v1.1c0.1 0.8 0.4 1.5 0.9 2.1s1.1 1.1 1.8 1.4 1.5 0.4 2.3 0.4c0.8-0.1 1.5-0.4 2.1-0.8s1.1-1 1.5-1.7c0.2-0.5 0.4-1 0.4-1.5 1.8 0.7 3.7 1.4 5.7 2-0.9 3.3-3.3 5.9-6.4 7.1-1.2 0.4-2.4 0.7-3.6 0.7-3.3 0-6.4-1.5-8.4-4.2l-0.1-0.1c-0.2-0.3-0.5-0.7-0.7-1-0.9-1.5-1.3-3.3-1.3-5.1v-0.9zm-42.5 19.5c-0.4 0-0.8 0.1-1.2 0.1-6.5 0-11.8-5.3-11.8-11.8s5.3-11.8 11.8-11.8c0.4 0 0.9 0 1.3 0.1 0.4 0 0.7 0.1 0.9 0.1l1.5 0.4c4.4 1.5 7.6 5.4 8 10.1 0 0.3 0.1 0.7 0.1 1.1 0 1.3-0.2 2.6-0.6 3.8-1.6 4.4-5.5 7.5-10 7.9zm6.3-1.2c2.1-1.5 3.8-3.7 4.7-6.3 0.5-1.3 0.7-2.7 0.7-4.2 0-0.5 0-0.9-0.1-1.2-0.3-3.5-2.1-6.6-4.7-8.8l8.8 2.3c1.5 0.5 2.8 1.4 3.8 2.6l-7.2 1.1 0.2 0.6c0.2 0.7 0.4 1.5 0.5 2.3 0 0.3 0.1 0.7 0.1 1.1 0 0.9-0.1 1.7-0.3 2.6l-0.2 0.8-0.2 0.5c-0.6 1.6-1.5 3.2-2.7 4.4l-0.8 0.8 2.4 0.4-5 1zm5-2.2c0.9-1.1 1.6-2.3 2.1-3.6l1.7 0.2-0.2 2.7 0.5-2.7 1.7 0.2-0.2 2.7 0.5-2.7 1.4 0.2-0.2 2.8 0.5-2.7 1.4 0.2-0.3 2.8 0.6-2.8 1.4 0.2-0.3 2.9 0.6-2.9 1.5 0.2-0.3 2.9 0.6-2.8 1.6 0.2-0.2 2.8 0.6-2.8 1.6 0.2-0.2 2.8 0.5-2.7 1.2 0.2-0.3 2.8 0.6-2.8 1.4 0.2-0.3 2.9 0.6-2.9 1.4 0.2-0.3 3 0.6-2.9 1.4 0.2-0.3 3 0.6-3 1.5 0.2-0.3 3 0.6-2.9 1.5 0.2-0.3 2.9 0.6-2.9 1.5 0.2-0.3 2.9 0.6-2.8 1.6 0.2-0.2 2.8 0.5-2.7 1.4 0.2-0.3 2.8 0.6-2.8 1.4 0.2-0.1 1.3c-0.9 0.8-1.6 1.7-2.3 2.8l-31.5-4.8zm11.6 8.6h1.8l-3.2 0.8 5.7-0.7h4.8l-3.7 0.7 6.6-0.7h2.5 1.8l-4 0.8 6.3-0.5c0 0.2-0.1 0.4-0.1 0.6h-22.9c1.5-0.4 2.9-0.7 4.4-1zm-7.5 2h25.9v0.3c0 1.7 0.4 3.4 1.1 4.9h-38.2c4.5-5.5 11.1-5.2 11.2-5.2zm-66.8 42.4l17.5-26.6c2.4-3.7 5.7-5.5 8.4-6.4h0.1c0.1 0 0.2-0.1 0.4-0.1 0.1 0 0.2 0 0.2-0.1 2.4-0.6 4.2-0.6 4.2-0.6h86.8 0.1c0.1 0 7.9-0.6 14.5 7.2 7 8.3 15 19.6 15.1 19.7s7.7 11.5 4.5 17.5c-1.3 2.4-4.3 3.7-8.9 3.7h-145.3c-0.2 0-1.7-0.3-2.3-1.8-0.8-1.7-0.5-5.3 4.7-12.5zm164.1 8.6c-0.7 0.4-1.6 0.8-2.3 1.2l-2.4 1.1c-1.6 0.7-3.2 1.5-4.8 2.2-0.7 0.4-1.5 0.8-2.4 1.1-0.8 0.3-1.6 0.6-2.5 0.9-1.7 0.5-3.4 0.9-5.2 1.1-0.9 0.1-1.8 0.2-2.6 0.2h-2.7-5.4-21.6-43.3-43.3-21.6-2.7-1.3c-0.4 0-0.9 0-1.3-0.1-0.9-0.1-1.7-0.2-2.5-0.5s-1.5-0.7-1.9-1.3-0.4-1.4-0.3-2.2v-0.1l0.3 0.9c1 2.2 3.2 2.5 3.3 2.5h145.3c5.1 0 8.4-1.4 10-4.3 3.5-6.6-4.2-18.2-4.6-18.7-0.1-0.1-8.1-11.4-15.2-19.8-6.8-8.1-14.8-7.7-15.5-7.6h-83.8c1.7-0.4 3.4-0.7 5.1-1h1.8l-3.7 0.9 6.4-0.9h5.3l-4.3 0.9 7.4-0.9h5l-4.9 0.9 8.4-0.9h4.6l-5.4 0.9 9.2-0.9h4.5l-4.5 0.7 8.3-0.7h4.7l-5.8 0.8 9.9-0.8h4.6l-5.8 0.8 9.8-0.8h4.6l-5.7 0.8 9.8-0.8h4.7l-5.7 0.8 9.7-0.8h4.7l-5.6 0.8 9.7-0.8h3.3 1.5l-5.6 0.8 9.6-0.8h5.1c1.7 0 3.4 0.3 5.1 0.7 0.4 0.1 0.8 0.2 1.2 0.4h-2c-1.3 0-2.6 0.1-3.9 0.2s-2.6 0.2-3.9 0.4-2.6 0.4-3.9 0.6c1.3 0.1 2.6 0 3.9 0s2.6-0.1 3.9-0.2 2.6-0.2 3.9-0.4c0.9-0.1 1.8-0.2 2.6-0.4 1 0.4 1.9 0.8 2.8 1.4 0.4 0.2 0.8 0.5 1.1 0.7-0.9 0-1.9 0.1-2.8 0.2-1.3 0.1-2.7 0.3-4 0.4-1.3 0.2-2.6 0.4-4 0.6-1.3 0.2-2.6 0.5-3.9 0.8 1.3 0 2.7-0.1 4-0.2s2.7-0.3 4-0.4c1.3-0.2 2.6-0.4 4-0.6l3-0.6c0.9 0.7 1.8 1.4 2.6 2.3 0.1 0.1 0.2 0.2 0.3 0.4-1 0.1-2 0.1-3.1 0.3-1.3 0.1-2.7 0.3-4 0.5s-2.6 0.4-4 0.7c-1.3 0.3-2.6 0.5-3.9 0.9 1.3 0 2.7-0.2 4-0.3s2.7-0.3 4-0.5 2.6-0.4 4-0.7c1-0.2 2.1-0.4 3.1-0.7 0.4 0.5 0.8 0.9 1.2 1.4l1.4 1.8c-0.9 0.1-1.8 0.2-2.6 0.3-1.2 0.1-2.4 0.3-3.5 0.5-1.2 0.2-2.3 0.4-3.5 0.7s-2.3 0.5-3.5 0.9c1.2 0 2.4-0.2 3.6-0.3s2.4-0.3 3.5-0.5c1.2-0.2 2.3-0.4 3.5-0.7 0.9-0.2 1.8-0.4 2.7-0.7l0.1 0.1c0.7 1 1.4 1.9 2.2 2.9-0.9 0.1-1.8 0.2-2.7 0.3-1.2 0.1-2.5 0.3-3.7 0.5s-2.4 0.4-3.7 0.7l-3.6 0.9c1.3 0 2.5-0.2 3.7-0.3s2.5-0.3 3.7-0.5 2.4-0.4 3.7-0.7c0.9-0.2 1.9-0.4 2.8-0.7 0.6 0.9 1.3 1.7 1.9 2.6-0.9 0.1-1.8 0.2-2.6 0.3-1.3 0.1-2.5 0.3-3.8 0.5-1.2 0.2-2.5 0.4-3.7 0.7s-2.5 0.6-3.7 0.9c1.3-0.1 2.5-0.2 3.8-0.3s2.5-0.3 3.8-0.5c1.2-0.2 2.5-0.4 3.7-0.7l2.7-0.6c0.6 0.9 1.3 1.7 1.9 2.6-0.9 0.1-1.8 0.2-2.7 0.3-1.2 0.1-2.5 0.3-3.7 0.5s-2.4 0.4-3.7 0.7l-3.6 0.9c1.3-0.1 2.5-0.2 3.7-0.3s2.5-0.3 3.7-0.5 2.5-0.4 3.7-0.7c0.9-0.2 1.8-0.4 2.7-0.7 0.7 0.9 1.3 1.9 2 2.8-0.9 0.1-1.8 0.2-2.7 0.3-1.3 0.2-2.5 0.4-3.8 0.6-1.2 0.2-2.5 0.5-3.7 0.8s-2.5 0.6-3.7 1c1.3-0.1 2.5-0.2 3.8-0.4s2.5-0.4 3.8-0.6c1.2-0.2 2.5-0.5 3.7-0.8 0.9-0.2 1.8-0.4 2.7-0.7 0.6 0.9 1.3 1.8 1.9 2.6-1 0.1-2 0.2-3 0.4-1.2 0.2-2.4 0.4-3.6 0.7s-2.4 0.5-3.6 0.8-2.4 0.6-3.5 1c1.2-0.1 2.4-0.3 3.7-0.4 1.2-0.2 2.4-0.4 3.6-0.7s2.4-0.5 3.6-0.8c1-0.3 2-0.5 2.9-0.8 0.6 0.9 1.3 1.7 1.9 2.6-0.9 0.1-1.8 0.3-2.7 0.5-1.3 0.3-2.5 0.5-3.7 0.8s-2.5 0.6-3.7 1-2.4 0.8-3.7 1.2c1.3-0.2 2.5-0.4 3.8-0.6 1.3-0.3 2.5-0.5 3.7-0.8s2.5-0.6 3.7-1c0.9-0.3 1.8-0.6 2.7-0.9l0.2 0.3c0.1 0.2 0.3 0.4 0.4 0.5 0.3 0.3 0.5 0.7 0.7 1.1l0.6 0.9c-0.9 0.2-1.7 0.3-2.6 0.5-1.2 0.3-2.5 0.6-3.7 0.9s-2.5 0.7-3.7 1.1-2.4 0.8-3.6 1.3c1.3-0.2 2.5-0.4 3.8-0.7 1.2-0.3 2.5-0.6 3.7-0.9s2.5-0.7 3.7-1.1c0.9-0.3 1.7-0.6 2.6-0.9 0.2 0.4 0.4 0.7 0.6 1.1 0.3 0.6 0.6 1.3 0.8 1.9-1 0.2-2 0.4-2.9 0.6-1.2 0.3-2.5 0.6-3.7 1s-2.5 0.7-3.7 1.1-2.4 0.8-3.6 1.3c1.3-0.2 2.5-0.5 3.8-0.8 1.2-0.3 2.5-0.6 3.7-1s2.5-0.7 3.7-1.1c0.9-0.3 1.9-0.6 2.8-1 0.3 0.9 0.5 1.8 0.6 2.7v0.4c-1.1 0.2-2.1 0.5-3.1 0.7-1.3 0.3-2.5 0.7-3.7 1.1s-2.5 0.8-3.7 1.2-2.4 0.9-3.6 1.4c1.3-0.2 2.5-0.5 3.8-0.9 1.3-0.3 2.5-0.7 3.7-1.1s2.5-0.8 3.7-1.2c1-0.4 2-0.7 3-1.2 0.1 1 0 2-0.3 2.9-1.1 0.3-2.2 0.6-3.3 1-1.2 0.4-2.4 0.8-3.6 1.3s-2.4 0.9-3.5 1.4c-1.2 0.5-2.3 1-3.4 1.6 1.3-0.3 2.5-0.7 3.7-1.1s2.4-0.8 3.6-1.3 2.4-0.9 3.5-1.4c1-0.4 2-0.9 3-1.4-0.1 0.4-0.3 0.9-0.5 1.3-0.7 1.5-2 2.7-3.5 3.5z"/>
	<rect transform="matrix(.9967 -.081502 .081502 .9967 -20.53 30.99)" x="369" y="266.6" width=".8" height=".8"/>
	<polygon points="365.3 266.9 360.5 267.7 365.4 267.7"/>
	<rect transform="matrix(.9966 -.082311 .082311 .9966 -20.742 31.139)" x="366.8" y="266.8" width="1" height=".8"/>
	<rect transform="matrix(.9925 -.1225 .1225 .9925 -30.288 47.148)" x="366.8" y="269.5" width="3" height=".8"/>
	<polygon points="365.3 270.6 365.3 269.9 364 270.4"/>
	<path d="m368.5 273.5c0.5 0 1 0 1.5-0.2l-0.1-0.4c-0.5 0-1 0.2-1.5 0.3s-1 0.3-1.5 0.5c0.6-0.1 1.1-0.2 1.6-0.2z"/>
	<polygon points="291.2 162.1 290.8 162.8 292.1 163.5 292.5 162.9"/>
	<polygon points="296 158.3 295.7 158.7 296.8 159.5 297.2 158.8"/>
	<path d="m367.7 230.6c0.1-0.2 0.2-0.3 0.2-0.6l-0.4-0.3c-0.2 0.1-0.3 0.2-0.4 0.4s-0.2 0.3-0.2 0.5l0.4 0.3c0.1 0 0.3-0.2 0.4-0.3z"/>
	<path d="m288.5 163.7l-0.7-0.2c0 0.1-0.1 0.2-0.1 0.3l0.8 0.2c-0.1-0.1-0.1-0.2 0-0.3z"/>
	<path d="m329 163.8l0.5 0.1c0.3 0.1 0.7 0.1 1 0.2 1.3 0.3 2.6 0.7 3.9 1.2 2.6 0.9 5 2 7.5 3.1l15 6.3c5 2 10 4.1 15.1 6.1l7.6 3 1.9 0.7c0.6 0.3 1.3 0.5 1.9 0.8s1.2 0.6 1.7 1 1.1 0.9 1.4 1.5c-0.3-0.6-0.8-1.1-1.3-1.6-0.5-0.4-1.1-0.8-1.7-1.1s-1.2-0.6-1.9-0.8l-1.9-0.8-7.5-3.2-15-6.3c-5-2-10-4.1-15.1-6.1-2.5-1-5-2.1-7.6-2.9-1.3-0.4-2.6-0.8-3.9-1.1s-2.7-0.5-4.1-0.3c0.7 0 1.4 0 2 0.1l0.5 0.1z"/>
	<path d="m380 166.1l-0.4 0.4c0.2-0.1 0.3-0.2 0.4-0.4z"/>
	<path d="m381.3 160.1c-0.4-0.5-1-0.7-1.6-0.8s-1.2 0-1.7 0.2c-1.1 0.4-2 1.1-2.8 1.9-0.4 0.4-0.7 0.9-1 1.4s-0.5 1-0.6 1.6-0.2 1.1-0.1 1.7c0 0.3 0.1 0.6 0.2 0.8 0.1 0.3 0.3 0.5 0.5 0.7 0.4 0.4 1 0.6 1.6 0.7 0.6 0 1.1-0.1 1.6-0.3s1-0.5 1.4-0.8c0.3-0.2 0.6-0.5 0.8-0.7-0.7 0.6-1.4 1.1-2.3 1.4-0.5 0.2-1.1 0.2-1.6 0.2-0.5-0.1-1-0.3-1.3-0.7s-0.5-0.9-0.5-1.4 0.1-1 0.2-1.5c0.3-1 0.9-1.9 1.5-2.7 0.7-0.8 1.5-1.4 2.5-1.8 0.5-0.2 1-0.3 1.5-0.3s1 0.2 1.3 0.5c0.4 0.3 0.6 0.8 0.7 1.3s0 1.1-0.1 1.6c-0.2 0.9-0.7 1.7-1.2 2.5 0.2-0.3 0.5-0.6 0.7-0.9 0.3-0.5 0.5-1 0.7-1.5s0.3-1.1 0.2-1.6c0-0.5-0.2-1.1-0.6-1.5z"/>
	<path d="m380.3 165.8c-0.1 0.1-0.2 0.3-0.3 0.4 0.2-0.2 0.3-0.3 0.3-0.4z"/>
	<path d="m388.9 170.1l-0.3 0.3 0.3-0.3z"/>
	<path d="m386.7 171.8c0.1 0 0.3 0 0.4-0.1 0.3-0.1 0.5-0.3 0.7-0.4 0.3-0.2 0.5-0.5 0.8-0.8-0.2 0.3-0.5 0.6-0.8 0.8-0.2 0.2-0.4 0.3-0.7 0.3-0.2 0.1-0.5 0.1-0.6-0.1-0.1-0.1-0.2-0.4-0.1-0.6 0-0.2 0.1-0.5 0.2-0.7 0.2-0.5 0.4-0.9 0.7-1.3s0.6-0.8 1-1.1c0.2-0.2 0.4-0.3 0.6-0.4s0.4-0.1 0.6 0 0.2 0.4 0.2 0.6c0 0.3 0 0.5-0.1 0.8-0.1 0.5-0.4 1-0.7 1.4 0.3-0.4 0.6-0.9 0.7-1.4 0.1-0.2 0.2-0.5 0.2-0.8s0-0.6-0.2-0.8c-0.1-0.1-0.3-0.2-0.4-0.2-0.2 0-0.3 0-0.5 0.1-0.3 0.1-0.5 0.2-0.8 0.4-0.5 0.3-0.8 0.7-1.1 1.2s-0.6 1-0.7 1.5c-0.1 0.3-0.1 0.5-0.1 0.8s0.1 0.6 0.3 0.8c0.1-0.1 0.3 0 0.4 0z"/>
	<path d="m368.3 137.7c-0.8-0.6-1.6-1.4-2.3-2.2 0.2 0.5 0.5 1 0.8 1.5s0.7 0.9 1.2 1.2c0.4 0.4 0.9 0.6 1.5 0.8 0.5 0.2 1.1 0.3 1.7 0.3-0.5-0.2-1-0.4-1.5-0.7-0.6-0.3-1-0.6-1.4-0.9z"/>
	<path d="m367.5 226.3c-0.5 0.6-0.9 1.2-1.3 1.7l0.6 0.5c0.4-0.5 0.9-1.1 1.4-1.7l-0.7-0.5z"/>
	<rect transform="matrix(.9638 -.2667 .2667 .9638 -41.921 105.5)" x="366.7" y="206.7" width="1.4" height=".8"/>
	<polygon points="369.9 206 369.4 206.1 369.6 207 370.3 206.8 370.5 206.6 370.2 206.3 370.5 206.6 370.7 206.4 370.1 205.8"/>
	<path d="m285.2 199.7c-0.3-0.2-0.7-0.4-1.1-0.3-0.4 0-0.8 0.2-1.1 0.4s-0.6 0.5-0.8 0.9c-0.4 0.7-0.6 1.4-0.7 2.2 0 0.8 0.1 1.5 0.5 2.2 0.2 0.3 0.4 0.7 0.8 0.9 0.2 0.1 0.4 0.2 0.5 0.3 0.2 0 0.4 0.1 0.6 0 0.4 0 0.8-0.2 1.1-0.5 0.3-0.2 0.5-0.5 0.7-0.9 0.4-0.7 0.5-1.4 0.5-2.1-0.1 0.7-0.3 1.4-0.7 2-0.2 0.3-0.5 0.6-0.8 0.8-0.8-0.5-1.3-1.6-1.2-2.9 0.1-1.2 0.6-2.3 1.4-2.9 0.3 0.2 0.6 0.5 0.8 0.8 0.4 0.6 0.5 1.4 0.5 2.1 0.1-0.7 0-1.5-0.4-2.2 0-0.3-0.3-0.6-0.6-0.8zm-1.8 3c-0.1 1.3 0.4 2.5 1.2 3.1-0.2 0.1-0.4 0.2-0.7 0.2-0.7 0.1-1.3-0.4-1.6-1s-0.4-1.3-0.4-2 0.2-1.4 0.6-2 0.9-1.1 1.6-1.2c0.2 0 0.4 0 0.6 0.1-0.7 0.5-1.2 1.6-1.3 2.8z"/>
	<path d="m367.2 221.3l-0.1 0.9c0.3 0 0.7 0.1 1.1 0.1 0.7 0 1.6-0.1 2.2-0.4l-0.4-0.8c-0.6 0.3-1.6 0.3-2.8 0.2z"/>
	<path d="m372 209c0.2-0.3 0.5-0.9 0.7-1.3l-0.4-0.1c-0.1 0.3-0.5 0.9-0.6 1.2-0.3 0.4-0.6 0.8-1 1.1l0.3 0.3c0.3-0.4 0.7-0.8 1-1.2z"/>
	<path d="m370.3 214.3l-0.3-0.7c-0.8 0.3-1.9 0.6-2.9 0.4l-0.1 0.8c0.3 0.1 0.6 0.1 0.8 0.1 1-0.2 1.9-0.4 2.5-0.6z"/>
	<path d="m255.2 243.5c-1.3-0.1-2.6 0.4-3.6 1.4-0.5 0.5-0.9 1-1.1 1.6-0.3 0.6-0.4 1.3-0.4 2s0.1 1.4 0.4 2 0.7 1.2 1.1 1.6c1 0.9 2.3 1.4 3.6 1.4s2.6-0.6 3.4-1.6c0.9-0.9 1.4-2.2 1.4-3.4 0 0.6-0.1 1.2-0.4 1.8-0.2 0.6-0.6 1.1-1.1 1.5-0.9 0.9-2.1 1.3-3.3 1.2-1.2 0-2.4-0.6-3.1-1.4-0.8-0.8-1.3-2-1.2-3.1 0-1.2 0.4-2.3 1.2-3.1 0.8-0.9 1.9-1.4 3.1-1.4 1.2-0.1 2.4 0.4 3.3 1.2 0.4 0.4 0.8 0.9 1.1 1.5 0.2 0.6 0.4 1.2 0.4 1.8 0-1.3-0.5-2.5-1.4-3.4-0.8-1-2.1-1.6-3.4-1.6z"/>
	<path d="m306.1 271c0.9 0.9 2.1 1.3 3.3 1.2 1.2 0 2.4-0.6 3.1-1.4 0.8-0.8 1.3-2 1.2-3.1 0 0.6-0.1 1.1-0.3 1.7-0.2 0.5-0.6 1-1 1.4-0.8 0.8-2 1.2-3.1 1.1-1.1 0-2.2-0.5-2.9-1.3s-1.1-1.8-1.1-2.9 0.4-2.1 1.1-2.9 1.8-1.3 2.9-1.3c1.1-0.1 2.2 0.3 3.1 1.1 0.4 0.4 0.8 0.9 1 1.4s0.3 1.1 0.3 1.7c0-1.2-0.4-2.3-1.2-3.1-0.8-0.9-1.9-1.4-3.1-1.4-1.2-0.1-2.4 0.4-3.3 1.2-0.4 0.4-0.8 0.9-1.1 1.5-0.2 0.6-0.4 1.2-0.4 1.8s0.1 1.2 0.4 1.8c0.3 0.5 0.7 1.1 1.1 1.5z"/>
	<path class="dark-shade" d="m340.8 178.5l-0.6 0.8-1.4-1 0.7-0.9c0.7-1-0.7-1.6-0.7-1.6s-2.6-2-3.8-2.9-1.8-0.2-1.8-0.2l-0.7 0.9-0.9-0.7 0.7-0.9c0.7-0.9-0.7-1.6-0.7-1.6s-1.9-1.6-3.5-2.7c-1.6-1.2-2.1-0.4-2.1-0.4l-0.7 0.9s-0.9-0.7-1.5-1.2c0.6-1.1-1-1.9-1-1.9s-1-0.6-3-1.9c-1.9-1.3-3.2-0.4-3.2-0.4s-0.4-0.2-0.9-0.6c0.7-1.2-0.8-2.3-0.8-2.3s-2.4-1.2-4.6-2.2-2.6 0.9-2.6 0.9l-1.7-0.3-0.2-0.9c-0.5-1.5-3.9-0.4-3.9-0.4l-3.2 0.7c-2.4 0.5-1.3 2.3-1.3 2.3l-1.2 0.3s-0.1-0.3-0.1-0.8c-0.6-1.9-2-1-2-1l-4.8 1.3c-1.3 0.3-1 1.3-1 1.3l0.3 1.1-1.1 0.3-0.3-0.9c-0.3-0.9-1.7-0.7-1.7-0.7s-3.7 1-4.9 1.4c-1.2 0.3-1.1 1.3-1.1 1.3l0.3 1.1-1.1 0.4s0-0.1-0.2-1c-0.3-0.9-1.5-0.8-1.5-0.8s-3.6 1.2-5.1 1.4-1.1 1-1.1 1l0.4 1.4-1.2-0.1s-0.1-0.3-0.3-1.1-1.6-0.5-1.6-0.5-3.5 0.9-4.8 1.3-1.2 1.3-1.2 1.3l0.3 1.1-1.7 0.5s-0.1-0.3-0.3-1.1-1.3-0.6-1.3-0.6-4 1.1-5.1 1.4-1.1 1.3-1.1 1.3l0.5 1.1-1.4 0.4s-0.1-0.5-0.3-0.9c-0.4-1.2-1.8-0.7-1.8-0.7s-3.2 0.9-4.6 1.3-1.2 1.4-1.2 1.4l0.3 1.1-1.1 0.3-0.3-0.9c-0.5-1.2-1.7-0.7-1.7-0.7s-4.2 1.2-5.3 1.5c-1 0.3-0.7 1.2-0.7 1.2l0.3 1.1-1.1 0.3s-0.1-0.5-0.3-1.1c-0.2-0.9-1.5-0.6-1.5-0.6s-3.8 1.1-5 1.4-1 1.3-1 1.3l0.3 1.1-1.2 0.3s-0.2-0.6-0.3-1.1c-0.3-1.1-1.8-0.5-1.8-0.5s-4.3 1.2-5.1 1.4-0.7 1.2-0.7 1.2l0.3 1.1 0.4 1.4s0 0.1 0.3 1.1c0.4 0.9 1.2 0.9 1.2 0.9s4.6-1.3 5.5-1.5c0.9-0.3 0.9-1.2 0.9-1.2l-0.3-1.2 1.2-0.3 0.2 1c0.6 1.3 2 0.7 2 0.7s2.5-0.7 4.4-1.1c1.9-0.5 1.4-1.5 1.4-1.5l-0.3-1.2 1.1-0.3 0.2 0.9c0.3 1.4 1.5 0.9 1.5 0.9s4.9-1.4 5.5-1.5c0.6-0.2 0.7-1.2 0.7-1.2l-0.3-1.2 1.1-0.3s0.1 0.2 0.3 1.2c0.3 1 1.4 0.6 1.4 0.6s4.1-1.2 5.4-1.5c1.2-0.3 0.8-1.2 0.8-1.2l-0.3-1.2 1.2-0.3 0.3 1 1.2 0.9s4-1.1 5.3-1.5 1.1-1.3 1.1-1.3l-0.5-1.2 1.8-0.5 0.3 1.2c0.5 1.2 1.6 0.5 1.6 0.5s3.6-1 5-1.4c1.3-0.4 1-1.4 1-1.4l-0.5-1.1 1.4-0.4s0 0.2 0.3 1.2c0.5 1 1.5 0.6 1.5 0.6s3.3-0.9 4.8-1.3c1.6-0.4 1.2-1.3 1.2-1.3l-0.3-1.2 1.1-0.3s0 0.1 0.3 1.2 1.4 0.6 1.4 0.6 4.6-1.3 5.5-1.5c0.9-0.3 0.6-1.2 0.6-1.2l-0.6-1.2 1.5-0.3s-0.1 0 0.2 1.2c0.7 1 1.4 0.7 1.4 0.7s3.6-1 5.1-1.6 1.2-0.8 1.2-0.8 0.1-0.7 0.1-1c0.2 0.5 1.4 0.4 2.6 0 1.6-1.3 5.4-1.6 5.4-1.6l0.6-0.6 2.9 0.5 0.8 0.2s1.1-0.3 0.6-1.4c0.6 0.1 0.7 0.1 1.2 0.4 0.5 0.2 2.7 0.8 2.7 1.6-0.1 0.1-1.6 0.3-0.8 1.3l2.4 1.7s-0.7 0.8-0.4 1.2 5.1 3.2 6.3 3.7 1.3-0.6 1.3-0.6l1.7 1.2s-0.1 0.1-0.7 0.9 0.1 1.4 0.1 1.4 3.9 2.9 4.8 3.6 1.4-0.4 1.4-0.4l0.6-0.9 0.9 0.7s-0.2 0.2-0.8 1 0.4 1.5 0.4 1.5 3.4 2.5 4.4 3.2 1.4 0.1 1.4 0.1l0.9-1.2 1.4 1.1s-0.2 0.2-0.6 0.9c-0.5 0.6 0.1 1.4 0.1 1.4l2.3 1.7 0.7-1.3s-0.8-0.6-1-0.8-0.4-0.4-0.4-0.9c2 0.5 1.5-1 1.1-1.5 0.1-0.4 0.8-0.2 0.8-0.2l0.9 0.6 0.7-1.3s-0.6-0.4-1.4-1.1c-0.7-0.7-1.5 0.2-1.5 0.2zm-116.5 3.7s-1.6 0.5-2.8 0.8c-1.2 0.4-1.3 0-1.4-0.4 0.5-0.2 1-0.4 0.9-1.1s-1.2-0.6-1.4-0.5c-0.2-0.6 0.4-0.8 0.4-0.8s2.5-0.6 3.3-0.9 0.9 0.3 0.9 0.3c-0.8 0.4-1 0.8-0.9 1.3 0.2 0.5 1 0.5 1.4 0.5 0.2 0.6-0.4 0.8-0.4 0.8zm9-2.5s-2.6 0.7-3 0.9c-0.3 0.2-1 0.2-1.2 0.2-0.2-0.1-0.2-0.5-0.2-0.5s1-0.4 1.3-1-0.9-0.7-0.9-0.7-0.7 0.5-0.9 0c-0.2-0.4 0.4-0.7 0.4-0.7s2.8-0.7 3.4-0.9c0.6-0.3 0.8 0.3 0.8 0.3s-1.1 0.5-1 1.2c0 0.7 1.1 0.7 1.5 0.6 0.1 0.2-0.2 0.6-0.2 0.6zm8.6-2.4s-2.6 0.8-3.5 1c-0.8 0.2-0.8-0.1-0.8-0.4 2.4-1.6-0.3-1.8-0.6-1.7-0.1-0.5 0.4-0.6 0.4-0.6s2.7-0.7 3.4-1 0.8 0.3 0.8 0.3c-3.5 1.9-0.2 1.9 0.5 1.8 0.2 0.5-0.2 0.6-0.2 0.6zm8.8-2.5l-3.5 1c-0.7 0.2-0.8-0.2-0.9-0.5 1.1-0.9 0-1.6-0.5-1.6-0.2-0.5 0.4-0.7 0.4-0.7s2.9-0.7 3.4-1 0.7 0.4 0.7 0.4c-2 1.3 0.1 1.8 0.6 1.7 0.2 0.5-0.2 0.7-0.2 0.7zm8.7-2.4l-3.5 1c-0.7 0.2-0.8-0.1-0.9-0.5 0.9-0.3 1.3-0.7 1.2-1.3s-1.1-0.5-1.7-0.4c-0.1-0.5 0.3-0.7 0.3-0.7s2.4-0.5 3.2-0.9 1.1 0.1 1.1 0.1-0.8 0.3-0.7 1.1c0.1 0.9 0.8 0.8 1.2 0.8 0.2 0.6-0.2 0.8-0.2 0.8zm9.2-2.5s-2.5 0.8-3.2 1-1-0.1-1-0.5c0.7-0.2 1-0.5 0.8-1.1-0.1-0.6-0.9-0.6-1.4-0.6-0.1-0.3 0.3-0.6 0.3-0.6s2.6-0.5 3.3-0.9 0.9 0.1 0.9 0.1c-0.8 0.3-0.9 1-0.9 1.4 0.1 0.4 1 0.5 1.4 0.5 0.3 0.3-0.2 0.7-0.2 0.7zm9-2.6s-3.5 1.1-3.9 1.1c-0.4 0.1-0.7-0.5-0.7-0.5s0.5 0.1 1.3-0.6c0.8-0.8-1.1-1.1-1.1-1.1s-0.5 0.3-0.6 0 0.4-0.6 0.4-0.6 2.6-0.5 3.3-0.9c0.6-0.4 0.9 0.2 0.9 0.2s-1.2 0.5-1.1 1.3 1.3 0.5 1.6 0.6c0.2 0.2-0.1 0.5-0.1 0.5zm8.6-2.4s-3.4 1-3.8 1.1c-0.5 0.1-0.4-0.2-0.6-0.6 0.3 0 1.2-0.2 1.1-1.1s-0.9-0.6-1.6-0.5c-0.1-0.4 0.3-0.6 0.3-0.6s2.7-0.8 3.3-1 1.1 0.2 1.1 0.2c-1.5 0.4-1.7 0.9-1.7 1.6 0.1 0.7 1.4 0.4 2.2 0.2 0.2 0.4-0.3 0.7-0.3 0.7zm8.7-2.4s-2.5 0.8-3.4 1c-0.8 0.2-0.8 0-0.9-0.4 1.1-1.1-0.1-1.6-0.6-1.8 0.1-0.9 2.3-1 3.5-1.4 1.2-0.5 1.3 0.3 1.3 0.3-2.4 1.6 0 1.9 0.5 1.8-0.1 0.5-0.4 0.5-0.4 0.5zm5.5-2.3c0.3-0.9-0.9-1.1-1.1-1.3s0.6-0.5 0.6-0.5l3.4-0.7c-0.6 0.8 0 1.3 0.3 1.7-0.2 0.4-3 0.8-3.2 0.8zm20.4 6.4c-0.6 0-1.7-0.3-2.5-1.3 0.4-0.3 0.8-0.7 0.3-1.3 0 0 1.8 0.4 2.8 1.7-0.5 0.1-0.9 0.3-0.6 0.9zm9.5 5.3c-0.3-0.3-2.5-0.8-0.9 1.3 0 0-0.1 0.8-1.1 0.1s-2.8-2-2.8-2-0.4-0.8 0-1 1.9 0.4 1.1-1.2c0.2-0.3 0.5-0.5 1.2 0.1 0.8 0.7 2.3 1.7 2.3 1.7s0.6 0.6 0.2 1zm7.3 5.1s-2-0.3-1.2 1.6c-0.1 0.3-0.6 0.2-1.3-0.4s-2.2-1.5-2.2-1.5-0.8-0.6 0-1c0.4 0.4 2.8 1.1 1.2-1.2-0.1-0.3-0.1-0.6 0.5-0.2s2.8 2 2.8 2 0.5 0.4 0.2 0.7z"/>
	<path class="dark-shade" d="m372.2 206.4l-4.2-3.7-1.1 0.7s1.1 0.9 1.8 1.4c0.6 0.4 2.1 2.2 2.1 2.2s0 0-1.1 0.4c-0.5-2.9-1.6-0.7-1.6-0.7l-0.1 1.6-2.7-2.1c-0.2 0.3-0.1 1.4-0.1 1.4l2.2 2 0.5 0.6s-0.2 0.1-1.2 0c-1 0-1.1 1.4-1.1 1.4s0 4-0.1 5.2 1 1.3 1 1.3h1.3v0.7h-1.3c-0.9 0-1 0.9-1 0.9s0 4.4 0 5.7c0 1.2 0.9 1.3 0.9 1.3h1.3v1.7h-1.3c-0.9 0-1 0.9-1 0.9s-0.1 4.8-0.2 5.8c0 1 1.3 1.1 1.3 1.1h1.1v1.7h-1c-0.8 0-1.2 0.9-1.2 0.9s0 5-0.1 5.9 1 1.1 1 1.1h1.3v1.3h-1.1c-1.2 0-1.2 0.9-1.2 0.9s0 4.6-0.1 5.7 1 1.3 1 1.3h1.3l0.1 1.1h-1.3c-1.1 0-1.1 1.1-1.1 1.1s-0.2 4.5-0.1 5.6c0.1 1 1.1 1.1 1.1 1.1h1.2l0.1 1.2h-1.3c-1.3 0-1 1.2-1 1.2s0 4.2 0 5.5 1.2 1.2 1.2 1.2 2.2 0 3.5 0.1 1.3-1.5 1.3-1.5 0.2-3.9 0.1-5.2-1.3-1.3-1.4-1.3h-0.9v-1.2h1.2c0.7 0 0.9-0.7 0.9-0.7s0.1-4.2 0.1-5.6-1-1.5-1-1.5h-1.1v-1.1h0.8c1.4 0 1.2-0.7 1.2-0.7s0-4.2 0.1-5.7-1.1-1.5-1.1-1.5h-1.1v-1.3h0.9c1.2 0 1.3-1.1 1.3-1.1s0.1-3.9 0.1-5.3-1.1-1.4-1.1-1.4h-1l0.1-1.8s0.2 0.1 1 0c0.9-0.1 0.9-1.2 0.9-1.2s0.1-4 0.1-5.6-1.3-1.2-1.3-1.2h-0.9l-0.1-1.7h1.4c0.8 0 0.9-1.1 0.9-1.1s0.3-3.3 0.2-5-0.9-1.8-0.9-1.8h-1.4l-0.1-0.7h1.1c1 0 1.1-0.7 1.1-0.7s0-3.5 0.1-5.3c0.1-1.9-1.1-1.7-1.1-1.7h-0.9l-0.1-1.2s1.7-0.5 2.6-1.1c1.3-0.5 0.3-1.5 0.3-1.5zm-2.9 60.3c0.3 0 0.5 0.1 0.5 1.6-0.1 1.5-0.1 2.4-0.1 2.4s0 0.6-0.8 0.7-1.5 0-1.5 0-0.6-0.1-0.6-1.1-0.1-3.1-0.1-3.1 0-0.6 0.7-0.5c0-0.1 0.9 1.5 1.9 0zm0.7-8.2c0 1-0.2 3.2-0.2 3.2s-0.2 0.6-0.6 0.7c-0.2-0.4-0.8-4.7-1.7-0.1-0.3 0-0.9 0.1-0.8-1 0-1.1 0.2-3.3 0.2-3.3s0.1-0.6 0.7-0.5c0 0.4 0.9 3.1 1.6 0 0 0.1 0.8 0 0.8 1zm-0.7-10s0.8 0 0.8 0.9c0 1-0.2 3.2-0.2 3.2s-0.2 0.6-0.6 0.7c-0.2-0.4-0.9-2.5-1.7-0.1-0.3 0-0.9 0.1-0.8-1 0-1.1 0.2-3.3 0.2-3.3s0.1-0.6 0.7-0.5c-0.1 0.5 0.7 3.2 1.6 0.1zm0.8-8.1c0 1-0.2 3.2-0.2 3.2s-0.2 0.6-0.6 0.7c-0.2-0.4-1-2.5-1.7-0.1-0.3 0-0.9 0.1-0.8-1 0-1.1 0.2-3.3 0.2-3.3s0.1-0.6 0.7-0.5c0 0.4 0.9 2.4 1.6 0 0.1 0 0.8 0 0.8 1zm-0.7-10.6s0.7 0 0.8 0.9c0 1-0.2 3.2-0.2 3.2s-0.2 0.6-0.6 0.7c-0.2-0.4-1-1.7-1.7-0.1-0.3 0-0.9 0.1-0.8-1 0-1.1 0.2-3.3 0.2-3.3s0.1-0.6 0.7-0.5c0 0.4 0.9 3.2 1.6 0.1zm0.1-9.6s0.7 0 0.8 0.9c0 1-0.2 3.2-0.2 3.2s-0.2 0.6-0.6 0.7c-0.2-0.4-1-1.7-1.7-0.1-0.3 0-0.9 0.1-0.8-1 0-1.1 0.2-3.3 0.2-3.3s0.1-0.6 0.7-0.5c-0.1 0.4 0.9 2.5 1.6 0.1zm0.2-8c0-0.4 0.1-0.7 0.1-0.7s0.4 0 0.4 0.3 0.1 3.9 0.1 3.9-0.1 0.6-0.6 0.6c0-0.9-0.2-1.2-0.2-1.2s-0.6-1.1-1.2-0.7c-0.4 0.6-0.3 1-0.4 1.9-0.4 0-1 0.1-0.9-1.1 0-1.1-0.2-3.5 0.6-3.7 0 0-0.1 1.1 0.7 1.3 0.7 0.3 1.4-0.2 1.4-0.6z"/>
	<path d="m340.8 178.1l-0.6 0.8-1-0.7 0.5-0.7c0.2-0.3 0.3-0.6 0.2-0.9 0-0.3-0.2-0.6-0.5-0.8l-4.8-3.6c-0.5-0.4-1.3-0.3-1.7 0.3l-0.5 0.7-0.4-0.3 0.5-0.7c0.4-0.5 0.3-1.3-0.3-1.7l-4.8-3.6c-0.5-0.4-1.3-0.3-1.7 0.3l-0.5 0.7-1.3-0.9c0.3-0.6-0.4-1.6-0.9-1.9l-3.7-2.3c-1.2-0.7-2-0.6-2.5-0.3l-0.2 0.2-0.5-0.3 0.2-0.5c0.3-0.7-0.5-1.8-1.1-2l-4.8-2.3c-1.3-0.6-1.9-0.2-2.3 0.1l-0.1 0.1-0.4 0.7-1.2-0.2-0.3-0.9c-0.2-0.8-1.5-1.1-2.2-0.9l-5.2 1.1c-1.4 0.3-1.6 0.9-1.8 1.5v0.1l0.1 0.7-0.5 0.1-0.3-1c-0.2-0.7-0.9-1-1.5-0.9l-5.8 1.6c-0.7 0.2-1 0.9-0.9 1.5l0.2 0.9-0.6 0.2-0.2-0.9c-0.1-0.3-0.3-0.6-0.6-0.7-0.3-0.2-0.6-0.2-0.9-0.1l-5.8 1.6c-0.3 0.1-0.6 0.3-0.7 0.6-0.2 0.3-0.2 0.6-0.1 0.9l0.2 0.9-0.5 0.1-0.2-0.9c-0.1-0.3-0.3-0.6-0.6-0.7-0.3-0.2-0.6-0.2-0.9-0.1l-5.8 1.6c-0.7 0.2-1 0.9-0.9 1.5l0.2 0.9-0.7 0.2-0.2-0.9c-0.2-0.7-0.9-1-1.5-0.9l-5.8 1.6c-0.7 0.2-1 0.9-0.9 1.5l0.2 0.9-1.1 0.3-0.2-0.9c-0.1-0.3-0.3-0.6-0.6-0.7-0.3-0.2-0.6-0.2-0.9-0.1l-5.8 1.6c-0.7 0.2-1.1 0.9-0.9 1.5l0.2 0.9-0.6 0.2-0.2-0.8c-0.2-0.7-0.9-1-1.5-0.9l-5.8 1.6c-0.3 0.1-0.6 0.3-0.7 0.6-0.2 0.3-0.2 0.6-0.1 0.9l0.2 0.9-0.6 0.2-0.2-0.9c-0.1-0.3-0.3-0.6-0.6-0.7-0.3-0.2-0.6-0.2-0.9-0.1l-5.8 1.6c-0.7 0.2-1 0.9-0.9 1.5l0.2 0.9-0.5 0.1-0.2-0.9c-0.1-0.3-0.3-0.6-0.6-0.7-0.3-0.2-0.6-0.2-0.9-0.1l-5.8 1.6c-0.7 0.2-1 0.9-0.9 1.5l0.2 0.9-0.7 0.2-0.2-0.9c-0.1-0.3-0.3-0.6-0.6-0.7-0.3-0.2-0.6-0.2-0.9-0.1l-5.8 1.6c-0.3 0.1-0.6 0.3-0.7 0.6-0.2 0.3-0.2 0.6-0.1 0.9l0.3 1.1 0.6-0.2-0.3-1.1c0-0.2 0-0.3 0.1-0.5s0.2-0.3 0.4-0.3l5.8-1.6c0.2 0 0.3 0 0.5 0.1s0.3 0.2 0.3 0.4l0.2 0.9-1.2 0.3v-0.1c-0.1-0.1-0.2-0.2-0.3-0.2h-0.4c-0.1 0-0.2 0-0.3 0.1-0.5 0.1-0.9 0.2-1.4 0.3s-0.9 0.3-1.3 0.4c-0.1 0-0.2 0.1-0.3 0.1s-0.3 0.1-0.4 0.2-0.2 0.2-0.2 0.4v0.1l-0.8 0.2-0.2 2-0.2 0.1 0.3 1.2c0.1 0.3 0.3 0.6 0.6 0.7 0.2 0.1 0.4 0.2 0.6 0.2h0.3l5.8-1.6c0.3-0.1 0.6-0.3 0.8-0.6s0.2-0.6 0.1-0.9l-0.3-0.9 0.7-0.2 0.3 0.9c0.2 0.5 0.7 0.9 1.2 0.9h0.3l5.8-1.6c0.7-0.2 1-0.9 0.9-1.5l-0.3-0.9 0.5-0.1 0.3 0.9c0.2 0.5 0.7 0.9 1.2 0.9h0.3l5.8-1.6c0.3-0.1 0.6-0.3 0.7-0.6 0.2-0.3 0.2-0.6 0.1-0.9l-0.3-0.9 0.6-0.2 0.3 0.9c0.1 0.3 0.3 0.6 0.6 0.7 0.2 0.1 0.4 0.2 0.6 0.2h0.3l5.8-1.6c0.7-0.2 1-0.9 0.9-1.5l-0.3-1 0.6-0.2 0.3 0.9c0.2 0.5 0.7 0.9 1.2 0.9h0.3l5.8-1.6c0.7-0.2 1-0.9 0.9-1.5l-0.3-0.9 1.1-0.3 0.3 0.9c0.1 0.3 0.3 0.6 0.6 0.7 0.2 0.1 0.4 0.2 0.6 0.2h0.3l5.8-1.6c0.3-0.1 0.6-0.3 0.7-0.6 0.2-0.3 0.2-0.6 0.1-0.9l-0.3-0.9 0.7-0.2 0.3 0.9c0.2 0.5 0.7 0.9 1.2 0.9h0.3l5.8-1.6c0.7-0.2 1-0.9 0.9-1.5l-0.3-0.9 0.5-0.1 0.3 0.9c0.1 0.3 0.3 0.6 0.6 0.7 0.2 0.1 0.4 0.2 0.6 0.2h0.3l5.8-1.6c0.7-0.2 1-0.9 0.9-1.5l-0.3-0.9 0.6-0.2 0.3 0.9c0.1 0.3 0.3 0.6 0.6 0.8 0.2 0.1 0.4 0.2 0.6 0.2h0.3l5.8-1.6c0.7-0.2 1-0.9 0.9-1.5l-0.1-0.4c0.1 0.3 0.4 0.5 1 0.5h0.4 0.4v-0.4h-0.4c-0.9 0.1-1.1-0.1-1.1-0.5l2.4-0.7c0.3-0.1 0.6-0.3 0.7-0.5 0.5 0 1 0 1.5-0.1s1.1-0.3 1.5-0.6c0.1 0 0.1 0 0.2 0.1l5.2 0.9h0.2c0.2 0 0.4-0.1 0.6-0.2 0.3-0.2 0.4-0.4 0.5-0.7 0-0.2 0-0.4-0.1-0.6 0.1 0 0.2 0.1 0.4 0.1l1 0.5c0.4 0.2 0.7 0.3 1.1 0.5 0.2 0.1 0.4 0.1 0.5 0.2 0.2 0.1 0.3 0.1 0.5 0.3 0 0 0 0.1 0.1 0.1-0.2-0.1-0.4-0.1-0.6 0-0.3 0.1-0.6 0.2-0.7 0.5-0.3 0.5-0.1 1.2 0.5 1.5l2 1.2c-0.1 0.2-0.3 0.4-0.2 0.7 0 0.3 0.3 0.6 0.7 0.9 0.1 0.1 1.9 1.7 4.2 2.8 0.6 0.3 1.1 0.5 1.6 0.7 0.3 0.1 0.5 0.1 0.7 0.1 0.5 0 0.7-0.2 0.9-0.5l1 0.7-0.6 0.8c-0.4 0.5-0.3 1.3 0.3 1.7l4.8 3.6c0.2 0.2 0.5 0.2 0.7 0.2 0.4 0 0.8-0.2 1-0.5l0.6-0.8 0.4 0.3-0.6 0.8c-0.2 0.3-0.3 0.6-0.2 0.9 0 0.3 0.2 0.6 0.5 0.8l4.8 3.6c0.2 0.2 0.5 0.2 0.7 0.2 0.4 0 0.8-0.2 1-0.5l0.6-0.8 1 0.7-0.6 0.7c-0.4 0.5-0.3 1.3 0.3 1.7l2.3 1.7 0.3-0.5-2.3-1.7c-0.3-0.2-0.4-0.6-0.1-0.9l0.6-0.7 0.9 0.6c-0.1 0.1-0.1 0.3-0.1 0.4 0 0.2 0.1 0.3 0.2 0.4s0.2 0.2 0.3 0.2l0.6 0.3c0.2 0.1 0.4 0.2 0.7 0.2-0.1-0.2-0.2-0.4-0.4-0.6-0.1-0.2-0.3-0.3-0.5-0.4s-0.3-0.2-0.4-0.3c0 0 0-0.1-0.1-0.1l0.1 0.1c0.2 0.2 0.5 0.3 0.8 0.3h0.1c0.3 0 0.6-0.2 0.8-0.4 0.4-0.5 0.2-1.2-0.3-1.6l-0.1-0.1h0.1c0.1 0 0.2 0.1 0.3 0.2s0.3 0.2 0.5 0.3 0.3 0.1 0.6 0.1c-0.1-0.2-0.2-0.4-0.3-0.5s-0.2-0.3-0.4-0.4-0.4-0.2-0.7-0.1c-0.1 0-0.2 0.1-0.3 0.2l-0.9-0.7 0.6-0.8c0.2-0.3 0.6-0.4 0.9-0.1l1.6 1.2 0.3-0.5-1.6-1.2c-1-1.3-1.7-1.1-2.1-0.6zm-7.4-5.4c0.2-0.3 0.6-0.4 0.9-0.1l4.8 3.6c0.1 0.1 0.2 0.3 0.3 0.4 0 0.2 0 0.3-0.1 0.5l-0.5 0.7-1-0.8s0-0.1 0.1-0.1v-0.4c0-0.1-0.2-0.3-0.3-0.3-0.1-0.1-0.2-0.2-0.3-0.2-0.3-0.3-0.7-0.6-1.1-0.9s-0.8-0.5-1.2-0.8c-0.1-0.1-0.2-0.1-0.3-0.2s-0.3-0.1-0.4-0.1-0.3 0-0.4 0.1l-0.1 0.1-0.9-0.7 0.5-0.8zm2.5 5.2c0.1 0.3 0.2 0.5 0.5 0.7h-0.3c-0.1 0-0.2-0.1-0.2-0.1-0.1-0.1-0.2-0.2-0.3-0.2-0.4-0.3-0.7-0.6-1.1-0.9s-0.8-0.6-1.2-0.8c-0.1-0.1-0.2-0.1-0.3-0.2-0.1 0-0.2-0.1-0.2-0.2-0.1-0.1-0.1-0.2-0.1-0.3l0.4 0.3c0.2 0.2 0.5 0.3 0.8 0.3s0.6-0.1 0.8-0.4c0.4-0.5 0.2-1.2-0.3-1.6l-0.4-0.3h0.3c0.1 0 0.1 0.1 0.2 0.2s0.2 0.2 0.3 0.2c0.3 0.3 0.7 0.6 1.1 0.9s0.8 0.5 1.2 0.8c0.1 0.1 0.2 0.1 0.3 0.2s0.2 0.1 0.2 0.2c0.1 0.1 0.1 0.2 0.1 0.3-0.5-0.4-1.2-0.3-1.6 0.2-0.2 0.1-0.3 0.4-0.2 0.7zm-10.4-7.5c0.2 0.1 0.4 0.2 0.6 0.2h0.1c0.3 0 0.6-0.2 0.7-0.4 0.3-0.4 0.2-1-0.1-1.3h0.2c0.1 0 0.1 0.1 0.2 0.2s0.2 0.2 0.3 0.2c0.3 0.3 0.7 0.6 1.1 0.9s0.8 0.5 1.2 0.8c0.1 0.1 0.2 0.1 0.3 0.2s0.2 0.1 0.2 0.2c0.1 0.1 0.1 0.2 0.1 0.3l-0.3-0.2c-0.2-0.2-0.5-0.3-0.8-0.3s-0.6 0.2-0.8 0.4-0.2 0.5-0.2 0.8c0.1 0.3 0.2 0.5 0.5 0.7l0.3 0.2h-0.3c-0.1 0-0.2-0.1-0.2-0.1-0.1-0.1-0.2-0.2-0.3-0.2-0.4-0.3-0.7-0.6-1.1-0.9s-0.8-0.6-1.2-0.8c-0.1-0.1-0.2-0.1-0.3-0.2-0.1 0-0.2-0.1-0.2-0.2-0.1-0.1-0.1-0.2-0.1-0.3s0.1-0.1 0.1-0.2zm-4.1-3.5c-0.3-0.2-0.4-0.5-0.2-0.8 0.1-0.1 0.2-0.2 0.3-0.2h0.1c0.1 0 0.3 0 0.4 0.1l4.3 3c0.3 0.2 0.4 0.5 0.2 0.8-0.1 0.1-0.2 0.2-0.3 0.2-0.2 0-0.3 0-0.5-0.1l-4.3-3zm-0.7-1.1c-0.2 0.2-0.2 0.5-0.2 0.8l-0.9-0.6c-0.3-0.2-0.7-0.4-1-0.6 0.2-0.1 0.4-0.2 0.5-0.4 0.2-0.3 0.2-0.6 0.1-0.9v-0.1c0.3 0.2 0.6 0.4 0.8 0.6 0.3 0.2 0.6 0.4 0.9 0.5 0.1 0.1 0.3 0.1 0.4 0.2-0.3 0.2-0.5 0.3-0.6 0.5zm8.5 6.8c-0.1-0.1-0.2-0.2-0.3-0.4 0-0.1 0-0.3 0.1-0.4s0.2-0.2 0.3-0.2 0.3 0 0.4 0.1l4.2 3.1c0.3 0.2 0.4 0.5 0.2 0.8-0.2 0.2-0.5 0.2-0.8 0l-4.1-3zm-3-5.3c0.2-0.3 0.6-0.4 0.9-0.1l4.8 3.6c0.3 0.2 0.4 0.6 0.1 0.9l-0.5 0.7-1-0.8v-0.1-0.4c0-0.1-0.2-0.3-0.3-0.3-0.1-0.1-0.2-0.2-0.3-0.2-0.3-0.3-0.7-0.6-1.1-0.9s-0.8-0.5-1.2-0.8c-0.1-0.1-0.2-0.1-0.3-0.2s-0.3-0.1-0.4-0.1-0.3 0-0.4 0.1l-0.1-0.1-0.9-0.6 0.7-0.7zm-7.2-4.3l3.7 2.3c0.4 0.2 0.7 0.8 0.7 1l-1.1-0.8c-0.2-0.2-0.5-0.2-0.8-0.2l-0.1-0.1c-0.1-0.1-0.3-0.2-0.4-0.3l-0.9-0.6c-0.3-0.2-0.6-0.4-0.9-0.5-0.2-0.1-0.3-0.1-0.5-0.2-0.1-0.1-0.1-0.1-0.2-0.1l-1.4-0.9c0.5-0.2 1.2 0 1.9 0.4zm-21.6-4.2c0.2-0.5 0.3-0.9 1.3-1.1l5.2-1.1c0.5-0.1 1.4 0.2 1.5 0.5l0.2 0.6-1.5-0.3c-0.3-0.1-0.6 0-0.9 0.2h-0.1-0.4c-0.2 0-0.4 0-0.6 0.1-0.4 0.1-0.8 0.1-1.2 0.2s-0.8 0.2-1.1 0.3l-0.6 0.3-0.3 0.3-1.6 0.5 0.1-0.5zm-8.8 1.8c-0.1-0.4 0.1-0.7 0.5-0.8l5.8-1.6c0.4-0.1 0.7 0.1 0.8 0.5l0.3 1-1.2 0.3v-0.1c0-0.1-0.1-0.3-0.3-0.3-0.1-0.1-0.3-0.1-0.4-0.1-0.2 0-0.2 0-0.4 0.1-0.5 0.1-0.9 0.2-1.4 0.3s-0.9 0.3-1.4 0.5c-0.1 0-0.2 0.1-0.3 0.1s-0.3 0.1-0.4 0.2-0.2 0.2-0.2 0.4v0.1h-0.1l-1 0.3-0.3-0.9zm4.7 0.9c0.1 0.5 0.6 0.8 1.1 0.8h0.4l0.3-0.1-0.2 0.2c-0.1 0-0.2 0-0.3 0.1-0.1 0-0.2 0-0.3 0.1-0.5 0.1-0.9 0.2-1.4 0.3s-0.9 0.3-1.3 0.4c-0.1 0-0.2 0.1-0.3 0.1s-0.2 0.1-0.3 0c-0.1 0-0.2 0-0.2-0.1 0.2-0.1 0.4-0.2 0.5-0.4 0.2-0.3 0.2-0.6 0.1-0.8-0.1-0.3-0.3-0.5-0.6-0.6-0.2-0.1-0.4-0.1-0.7-0.1 0-0.1 0.1-0.2 0.2-0.2h0.1 0.2c0.1 0 0.2 0 0.4-0.1 0.5-0.1 0.9-0.2 1.4-0.3s0.9-0.3 1.4-0.5l0.3-0.1h0.3c0.1 0 0.2 0.1 0.2 0.1v0.1l-0.4 0.1c-0.3 0.1-0.5 0.3-0.7 0.5-0.2-0.1-0.3 0.2-0.2 0.5zm-64.2 17.3h0.2c0.1 0 0.2 0 0.3 0.1s0.2 0.2 0.2 0.3 0 0.2-0.1 0.4c-0.1 0.1-0.2 0.2-0.4 0.3l-5 1.4c-0.3 0.1-0.6 0-0.7-0.3s0.1-0.5 0.5-0.6l5-1.6zm0.4 1.5c0.3-0.1 0.6-0.3 0.7-0.5 0.2-0.3 0.2-0.6 0.1-0.8-0.1-0.3-0.3-0.5-0.6-0.6s-0.6-0.2-0.9-0.1l-0.5 0.1c0-0.1 0.1-0.2 0.2-0.2s0.2-0.1 0.3-0.1 0.2 0 0.3-0.1c0.5-0.1 0.9-0.2 1.4-0.3s0.9-0.3 1.3-0.4c0.1 0 0.2-0.1 0.3-0.1s0.2-0.1 0.3-0.1 0.2 0 0.3 0.1l-0.3 0.1c-0.3 0.1-0.6 0.3-0.7 0.5-0.2 0.3-0.2 0.6-0.1 0.8 0.1 0.5 0.6 0.8 1.1 0.8h0.4l0.4-0.1v0.1c0 0.1-0.1 0.2-0.2 0.2-0.1 0.1-0.2 0.1-0.3 0.1s-0.2 0-0.4 0.1c-0.5 0.1-0.9 0.2-1.4 0.3s-0.9 0.3-1.4 0.5c-0.1 0-0.2 0.1-0.3 0.1s-0.2 0.1-0.3 0.1-0.2 0-0.3-0.1l0.6-0.4zm3.5-1.6c-0.3 0.1-0.6 0-0.7-0.3 0-0.1 0-0.2 0.1-0.4 0.1-0.1 0.2-0.2 0.4-0.3l5-1.4h0.2c0.2 0 0.5 0.1 0.5 0.3 0 0.1 0 0.2-0.1 0.4-0.1 0.1-0.2 0.2-0.4 0.3l-5 1.4zm5.2-0.8c0.3-0.1 0.6-0.3 0.7-0.5 0.2-0.3 0.2-0.6 0.1-0.8-0.2-0.6-0.8-0.9-1.4-0.7l-0.5 0.1c0-0.1 0.1-0.2 0.2-0.2s0.2-0.1 0.3-0.1 0.2 0 0.3-0.1c0.5-0.1 0.9-0.2 1.4-0.3s0.9-0.3 1.3-0.4c0.1 0 0.2-0.1 0.3-0.1s0.2-0.1 0.3-0.1 0.2 0 0.3 0.1l-1 0.3c-0.3 0.1-0.5 0.3-0.7 0.5-0.2 0.3-0.2 0.6-0.1 0.8 0.1 0.3 0.3 0.5 0.6 0.6 0.2 0.1 0.3 0.1 0.5 0.1h0.4l1-0.3c0 0.1-0.1 0.2-0.2 0.2-0.1 0.1-0.2 0.1-0.3 0.1s-0.2 0-0.4 0.1c-0.5 0.1-0.9 0.2-1.4 0.3s-0.9 0.3-1.4 0.5c-0.1 0-0.2 0.1-0.3 0.1s-0.2 0.1-0.3 0.1-0.2 0-0.3-0.1l0.6-0.2zm2.8-1.4h-0.5c-0.1-0.1-0.2-0.2-0.2-0.3s0-0.2 0.1-0.4c0.1-0.1 0.2-0.2 0.4-0.3l5-1.4h0.5c0.1 0.1 0.2 0.2 0.2 0.3s0 0.2-0.1 0.4c-0.1 0.1-0.2 0.2-0.4 0.3l-5 1.4zm5.9-1.4c0.2-0.3 0.2-0.6 0.1-0.8-0.1-0.3-0.3-0.5-0.6-0.6-0.2-0.1-0.4-0.1-0.7-0.1 0-0.1 0.1-0.2 0.2-0.2s0.2-0.1 0.3-0.1 0.2 0 0.3-0.1c0.5-0.1 0.9-0.2 1.4-0.3s0.9-0.3 1.3-0.4c0.1 0 0.2-0.1 0.3-0.1 0.1-0.1 0.2-0.1 0.3-0.1s0.2 0 0.3 0.1l-0.2 0.1c-0.3 0.1-0.6 0.3-0.7 0.5-0.2 0.3-0.2 0.6-0.1 0.8 0.1 0.5 0.6 0.8 1.1 0.8h0.4l0.3-0.1v0.1c0 0.1-0.1 0.2-0.2 0.2-0.1 0.1-0.2 0.1-0.3 0.1s-0.2 0-0.4 0.1c-0.5 0.1-1 0.2-1.4 0.3-0.5 0.1-0.9 0.3-1.4 0.5-0.1 0-0.2 0.1-0.3 0.1s-0.2 0.1-0.3 0.1-0.2 0-0.3-0.1v-0.1c0.3-0.3 0.5-0.5 0.6-0.7zm3.5-1.3c-0.3 0.1-0.6 0-0.7-0.3 0-0.1 0-0.2 0.1-0.4 0.1-0.1 0.2-0.2 0.4-0.3l5-1.4h0.2c0.2 0 0.5 0.1 0.5 0.3 0 0.1 0 0.2-0.1 0.4-0.1 0.1-0.2 0.2-0.4 0.3l-5 1.4zm5.2-0.8c0.3-0.1 0.6-0.3 0.7-0.5 0.2-0.3 0.2-0.6 0.1-0.8-0.2-0.6-0.8-0.9-1.4-0.7l-0.5 0.1c0-0.1 0.1-0.2 0.2-0.2s0.2-0.1 0.3-0.1 0.2 0 0.3-0.1c0.5-0.1 0.9-0.2 1.4-0.3s0.9-0.3 1.3-0.4c0.1 0 0.2-0.1 0.3-0.1s0.2-0.1 0.3-0.1 0.2 0 0.3 0.1c-0.6 0.2-1 0.8-0.9 1.4 0.1 0.5 0.6 0.8 1.1 0.8h0.4v0.1c0 0.1-0.1 0.2-0.2 0.2-0.1 0.1-0.2 0.1-0.3 0.1s-0.2 0-0.4 0.1c-0.5 0.1-0.9 0.2-1.4 0.3s-0.9 0.3-1.4 0.5c-0.1 0-0.2 0.1-0.3 0.1s-0.2 0.1-0.3 0.1-0.2 0-0.3-0.1l0.7-0.5zm3.8-1.7c-0.3 0.1-0.6 0-0.7-0.3s0.1-0.5 0.5-0.6l5-1.4h0.5c0.1 0.1 0.2 0.2 0.2 0.3s0 0.2-0.1 0.4c-0.1 0.1-0.2 0.2-0.4 0.3l-5 1.3zm5.2-0.8c0.3-0.1 0.6-0.3 0.7-0.5 0.2-0.3 0.2-0.6 0.1-0.8-0.1-0.3-0.3-0.5-0.6-0.6s-0.6-0.2-0.9-0.1l-0.2 0.1c0-0.1 0.1-0.2 0.2-0.2s0.2-0.1 0.3-0.1 0.2 0 0.3-0.1c0.5-0.1 0.9-0.2 1.4-0.3s0.9-0.3 1.3-0.4c0.1 0 0.2-0.1 0.3-0.1s0.2-0.1 0.3-0.1 0.2 0 0.3 0.1h-0.2c-0.3 0.1-0.6 0.3-0.7 0.5-0.2 0.3-0.2 0.6-0.1 0.8 0.1 0.5 0.6 0.8 1.1 0.8h0.4l0.2-0.1v0.1c0 0.1-0.1 0.2-0.2 0.2-0.1 0.1-0.2 0.1-0.3 0.1s-0.2 0-0.4 0.1c-0.5 0.1-0.9 0.2-1.4 0.3s-0.9 0.3-1.4 0.5c-0.1 0-0.2 0.1-0.3 0.1s-0.2 0.1-0.3 0.1-0.2 0-0.3-0.1l0.4-0.3zm3.9-1.7c-0.3 0.1-0.6 0-0.7-0.3 0-0.1 0-0.2 0.1-0.4 0.1-0.1 0.2-0.2 0.4-0.3l5-1.4h0.2c0.2 0 0.5 0.1 0.5 0.3 0 0.1 0 0.2-0.1 0.4-0.1 0.1-0.2 0.2-0.4 0.3l-5 1.4zm5.2-0.9c0.3-0.1 0.6-0.3 0.7-0.5 0.2-0.3 0.2-0.6 0.1-0.8-0.2-0.6-0.8-0.9-1.4-0.7l-0.5 0.1c0-0.1 0.1-0.2 0.2-0.2s0.2-0.1 0.3-0.1 0.2 0 0.3-0.1c0.5-0.1 0.9-0.2 1.4-0.3s0.9-0.3 1.3-0.4c0.1 0 0.2-0.1 0.3-0.1s0.2-0.1 0.3-0.1 0.2 0 0.3 0.1l-0.3 0.1c-0.3 0.1-0.6 0.3-0.7 0.5-0.2 0.3-0.2 0.6-0.1 0.8 0.1 0.3 0.3 0.5 0.6 0.6 0.2 0.1 0.3 0.1 0.5 0.1h0.4l0.4-0.1v0.1c0 0.1-0.1 0.2-0.2 0.2-0.1 0.1-0.2 0.1-0.3 0.1s-0.2 0-0.4 0.1c-0.5 0.1-0.9 0.2-1.4 0.3s-0.9 0.3-1.4 0.5c-0.1 0-0.2 0.1-0.3 0.1s-0.2 0.1-0.3 0.1-0.2 0-0.3-0.1l0.5-0.3zm3.5-1.5h-0.5c-0.1-0.1-0.2-0.2-0.2-0.3s0-0.2 0.1-0.4c0.1-0.1 0.2-0.2 0.4-0.3l5-1.4c0.3-0.1 0.6 0 0.7 0.3 0 0.1 0 0.2-0.1 0.4-0.1 0.1-0.2 0.2-0.4 0.3l-5 1.4zm5.2-0.9c0.3-0.1 0.6-0.3 0.7-0.5 0.2-0.3 0.2-0.6 0.1-0.8-0.2-0.6-0.8-0.9-1.4-0.7l-0.5 0.1c0-0.1 0.1-0.2 0.2-0.2s0.2-0.1 0.3-0.1 0.2 0 0.3-0.1c0.5-0.1 0.9-0.2 1.4-0.3s0.9-0.3 1.3-0.4c0.1 0 0.2-0.1 0.3-0.1s0.2-0.1 0.3-0.1 0.2 0 0.3 0.1l-1 0.3c-0.3 0.1-0.6 0.3-0.7 0.5-0.2 0.3-0.2 0.6-0.1 0.8 0.1 0.5 0.6 0.8 1.1 0.8h0.4l1-0.3c0 0.1-0.1 0.2-0.2 0.2-0.1 0.1-0.2 0.1-0.3 0.1s-0.2 0-0.4 0.1c-0.5 0.1-0.9 0.2-1.4 0.3s-0.9 0.3-1.4 0.5c-0.1 0-0.2 0.1-0.3 0.1s-0.2 0.1-0.3 0.1-0.2 0-0.3-0.1l0.6-0.3zm2.8-1.4c-0.3 0.1-0.6 0-0.7-0.3 0-0.1 0-0.2 0.1-0.4 0.1-0.1 0.2-0.2 0.4-0.3l5-1.4h0.5c0.1 0.1 0.2 0.2 0.2 0.3s0 0.2-0.1 0.4c-0.1 0.1-0.2 0.2-0.4 0.3l-5 1.4zm-5.3-1c0-0.2 0-0.3 0.1-0.5s0.2-0.3 0.4-0.3l5.8-1.6c0.2 0 0.3 0 0.5 0.1s0.3 0.2 0.3 0.4l0.2 0.9-1.2 0.3v-0.1c-0.1-0.1-0.2-0.2-0.3-0.2h-0.4c-0.1 0-0.2 0-0.3 0.1-0.5 0.1-0.9 0.2-1.4 0.3s-0.9 0.3-1.3 0.4c-0.1 0-0.2 0.1-0.3 0.1s-0.3 0.1-0.4 0.2-0.2 0.2-0.2 0.4v0.1l-1.1 0.3-0.4-0.9zm-8.7 2.4c0-0.2 0-0.3 0.1-0.5s0.2-0.3 0.4-0.3l5.8-1.6c0.2 0 0.3 0 0.5 0.1s0.3 0.2 0.3 0.4l0.2 0.9-1.2 0.3v-0.1c-0.1-0.1-0.2-0.2-0.3-0.2h-0.4c-0.1 0-0.2 0-0.3 0.1-0.5 0.1-0.9 0.2-1.4 0.3s-0.9 0.3-1.3 0.4c-0.1 0-0.2 0.1-0.3 0.1s-0.3 0.1-0.4 0.2-0.2 0.2-0.2 0.4v0.1l-1.1 0.3-0.4-0.9zm-8.8 2.4c-0.1-0.3 0.1-0.7 0.5-0.8l5.8-1.6c0.4-0.1 0.7 0.1 0.8 0.5l0.2 0.9-1.2 0.3v-0.1c-0.1-0.1-0.2-0.2-0.3-0.2h-0.4c-0.1 0-0.2 0-0.3 0.1-0.5 0.1-0.9 0.2-1.4 0.3s-0.9 0.3-1.3 0.4c-0.1 0-0.2 0.1-0.3 0.1s-0.3 0.1-0.4 0.2-0.2 0.2-0.2 0.4v0.1l-1.1 0.3-0.4-0.9zm-9.3 2.6c-0.1-0.3 0.1-0.7 0.5-0.8l5.8-1.6c0.2 0 0.3 0 0.5 0.1s0.3 0.2 0.3 0.4l0.2 0.9-1.2 0.3v-0.1c-0.1-0.1-0.2-0.2-0.3-0.2h-0.4c-0.1 0-0.2 0-0.3 0.1-0.5 0.1-0.9 0.2-1.4 0.3s-0.9 0.3-1.3 0.4c-0.1 0-0.2 0.1-0.3 0.1s-0.3 0.1-0.4 0.2-0.2 0.2-0.2 0.4v0.1l-1.1 0.3-0.4-0.9zm-8.8 2.5c0-0.2 0-0.3 0.1-0.5s0.2-0.3 0.4-0.3l5.8-1.6c0.4-0.1 0.7 0.1 0.8 0.5l0.2 0.8-1.2 0.3v-0.1c-0.1-0.1-0.2-0.2-0.3-0.2h-0.4c-0.1 0-0.2 0-0.3 0.1-0.5 0.1-0.9 0.2-1.4 0.3-0.4 0.1-0.9 0.3-1.3 0.4-0.1 0-0.2 0.1-0.3 0.1s-0.3 0.1-0.4 0.2-0.2 0.2-0.2 0.4v0.1h-0.1l-1 0.3-0.4-0.8zm-8.7 2.4c-0.1-0.3 0.1-0.7 0.5-0.8l5.8-1.6c0.2 0 0.3 0 0.5 0.1s0.3 0.2 0.3 0.4l0.2 0.9-1.2 0.3v-0.1c-0.1-0.1-0.2-0.2-0.3-0.2h-0.4c-0.1 0-0.2 0-0.3 0.1-0.5 0.1-0.9 0.2-1.4 0.3s-0.9 0.3-1.3 0.4c-0.1 0-0.2 0.1-0.3 0.1s-0.3 0.1-0.4 0.2-0.2 0.2-0.2 0.4v0.1l-1.1 0.3-0.4-0.9zm-8.6 2.4c-0.1-0.3 0.1-0.7 0.5-0.8l5.8-1.6c0.2 0 0.3 0 0.5 0.1s0.3 0.2 0.3 0.4l0.2 0.9-1.2 0.3v-0.1c-0.1-0.1-0.2-0.2-0.3-0.2h-0.4c-0.1 0-0.2 0-0.3 0.1-0.5 0.1-0.9 0.2-1.4 0.3s-0.9 0.3-1.3 0.4c-0.1 0-0.2 0.1-0.3 0.1s-0.3 0.1-0.4 0.2-0.2 0.2-0.2 0.4v0.1l-1.1 0.3-0.4-0.9zm-7.4 3c0-0.1 0.1-0.2 0.2-0.2s0.2-0.1 0.3-0.1 0.2 0 0.3-0.1c0.5-0.1 0.9-0.2 1.4-0.3s0.9-0.3 1.3-0.4c0.1 0 0.2-0.1 0.3-0.1s0.2-0.1 0.3-0.1 0.2 0 0.3 0.1h-0.2c-0.6 0.2-1 0.8-0.9 1.4 0.1 0.5 0.6 0.8 1.1 0.8h0.4l0.2-0.1v0.1c0 0.1-0.1 0.2-0.2 0.2-0.1 0.1-0.2 0.1-0.3 0.1s-0.2 0-0.4 0.1c-0.5 0.1-0.9 0.2-1.4 0.3s-0.9 0.3-1.4 0.5c-0.1 0-0.2 0.1-0.3 0.1s-0.2 0.1-0.3 0.1-0.2 0-0.3-0.1l0.2-0.1c0.6-0.2 1-0.8 0.9-1.4-0.2-0.6-0.8-0.9-1.4-0.7l-0.1-0.1zm0.4 0.5c0.3-0.1 0.6 0 0.7 0.3s-0.1 0.5-0.5 0.6l-1.3 0.4v-1l1.1-0.3zm6.2 0.9c0 0.2 0 0.3-0.1 0.5s-0.2 0.3-0.4 0.3l-5.8 1.6c-0.3 0.1-0.7-0.1-0.8-0.5l-0.3-0.9 1.1-0.3v0.1l0.3 0.3c0.1 0.1 0.3 0.1 0.4 0 0.1 0 0.2 0 0.4-0.1 0.5-0.1 0.9-0.2 1.4-0.3s0.9-0.3 1.4-0.5c0.1 0 0.2-0.1 0.3-0.1 0.1-0.1 0.3-0.1 0.4-0.3 0.1-0.1 0.1-0.3 0.1-0.4v-0.1l1.2-0.3 0.4 1zm8.9-2.4c0.1 0.3-0.1 0.7-0.5 0.8l-5.8 1.6c-0.3 0.1-0.7-0.1-0.8-0.5l-0.3-0.9 1.1-0.3v0.1l0.3 0.3c0.1 0.1 0.3 0.1 0.4 0 0.1 0 0.2 0 0.4-0.1 0.5-0.1 0.9-0.2 1.4-0.3s0.9-0.3 1.4-0.5c0.1 0 0.2-0.1 0.3-0.1 0.1-0.1 0.3-0.1 0.4-0.3 0.1-0.1 0.1-0.3 0.1-0.4v-0.1l1.2-0.3 0.4 1zm8.6-2.5c0 0.2 0 0.3-0.1 0.5s-0.2 0.3-0.4 0.3l-5.8 1.6c-0.4 0.1-0.7-0.1-0.8-0.5l-0.3-0.9 1.1-0.3v0.1l0.3 0.3c0.1 0.1 0.3 0.1 0.4 0 0.1 0 0.2 0 0.4-0.1 0.5-0.1 0.9-0.2 1.4-0.3s0.9-0.3 1.4-0.5c0.1 0 0.2-0.1 0.3-0.1 0.1-0.1 0.3-0.1 0.4-0.3 0.1-0.1 0.1-0.3 0.1-0.4v-0.1l1.2-0.3 0.4 1zm8.8-2.4c0.1 0.4-0.1 0.7-0.5 0.8l-5.8 1.6c-0.2 0-0.3 0-0.5-0.1s-0.3-0.2-0.3-0.4l-0.3-0.9 1-0.3h0.1v0.1l0.3 0.3c0.1 0.1 0.3 0.1 0.4 0 0.1 0 0.2 0 0.4-0.1 0.5-0.1 0.9-0.2 1.4-0.3s0.9-0.3 1.4-0.5c0.1 0 0.2-0.1 0.3-0.1 0.1-0.1 0.3-0.1 0.4-0.3 0.1-0.1 0.1-0.3 0.1-0.4v-0.1l1.2-0.3 0.4 1zm8.7-2.5c0.1 0.3-0.1 0.7-0.5 0.8l-5.8 1.6c-0.4 0.1-0.7-0.1-0.8-0.5l-0.3-0.9 1.1-0.3v0.1l0.3 0.3c0.1 0.1 0.3 0.1 0.4 0 0.1 0 0.2 0 0.4-0.1 0.5-0.1 0.9-0.2 1.4-0.3s0.9-0.3 1.4-0.5c0.1 0 0.2-0.1 0.3-0.1 0.1-0.1 0.3-0.1 0.4-0.3 0.1-0.1 0.1-0.3 0.1-0.4v-0.1l1.2-0.3 0.4 1zm9.3-2.5c0 0.2 0 0.3-0.1 0.5s-0.2 0.3-0.4 0.3l-5.8 1.6c-0.2 0-0.3 0-0.5-0.1s-0.3-0.2-0.3-0.4l-0.3-0.9 1.1-0.3v0.1l0.3 0.3c0.1 0.1 0.3 0.1 0.4 0 0.1 0 0.2 0 0.4-0.1 0.5-0.1 0.9-0.2 1.4-0.3s0.9-0.3 1.4-0.5c0.1 0 0.2-0.1 0.3-0.1 0.1-0.1 0.3-0.1 0.4-0.3 0.1-0.1 0.1-0.3 0.1-0.4v-0.1l1.2-0.3 0.4 1zm8.8-2.5c0.1 0.3-0.1 0.7-0.5 0.8l-5.8 1.6c-0.3 0.1-0.7-0.1-0.8-0.5l-0.3-0.9 1.1-0.3v0.1l0.3 0.3c0.1 0.1 0.3 0.1 0.4 0 0.1 0 0.2 0 0.4-0.1 0.5-0.1 0.9-0.2 1.4-0.3s0.9-0.3 1.4-0.5c0.1 0 0.2-0.1 0.3-0.1 0.1-0.1 0.3-0.1 0.4-0.3 0.1-0.1 0.1-0.3 0.1-0.4v-0.1l1.2-0.3 0.4 1zm8.7-2.4c0.1 0.3-0.1 0.7-0.5 0.8l-5.8 1.6c-0.4 0.1-0.7-0.1-0.8-0.5l-0.3-0.9 1.1-0.3v0.1l0.3 0.3c0.1 0.1 0.3 0.1 0.4 0 0.1 0 0.2 0 0.4-0.1 0.5-0.1 0.9-0.2 1.4-0.3s0.9-0.3 1.4-0.5c0.1 0 0.2-0.1 0.3-0.1 0.1-0.1 0.3-0.1 0.4-0.3 0.1-0.1 0.1-0.3 0.1-0.4v-0.1l1.2-0.3 0.4 1zm8.2-1.7l-5.8 1.6c-0.2 0-0.3 0-0.5-0.1s-0.3-0.2-0.3-0.4l-0.3-0.9 1-0.3h0.1v0.1l0.3 0.3c0.1 0.1 0.3 0.1 0.4 0.1s0.2 0 0.4-0.1c0.5-0.1 0.9-0.2 1.4-0.3s0.9-0.3 1.3-0.4c0.1 0 0.2-0.1 0.3-0.1s0.2-0.1 0.4-0.2c0.1-0.1 0.2-0.2 0.2-0.4v-0.1l1.2-0.3 0.2 0.8c0.3 0.3 0.1 0.6-0.3 0.7zm3.8-3.3c-0.1 0.1-0.2 0.2-0.4 0.3l-5 1.4c-0.3 0.1-0.6 0-0.7-0.3 0-0.1 0-0.3 0.1-0.4s0.2-0.2 0.4-0.3l5-1.4h0.2c0.2 0 0.5 0.1 0.5 0.3 0 0.1 0 0.3-0.1 0.4zm1.9-0.3c-0.4 0.1-0.9 0.2-1.3 0.3 0.1-0.2 0.1-0.4 0-0.6-0.1-0.5-0.7-0.8-1.2-0.7 0.2-0.1 0.4-0.2 0.7-0.2 0.4-0.1 0.8-0.1 1.1-0.2 0.4-0.1 0.8-0.2 1.1-0.3 0.2-0.1 0.4-0.1 0.6-0.2 0.1 0 0.1 0 0.2-0.1-0.2 0.2-0.3 0.3-0.3 0.5-0.1 0.5 0.2 0.9 0.7 1.2-0.6 0.1-1.1 0.2-1.6 0.3zm7.6 0.1c-0.1 0.1-0.3 0.1-0.5 0.1l-5.2-0.9c-0.3-0.1-0.6-0.3-0.5-0.6 0-0.1 0.1-0.2 0.2-0.3s0.2-0.1 0.3-0.1h0.1l5.2 0.9c0.1 0 0.1 0 0.2 0.1 0.1 0 0.1 0.1 0.2 0.1 0.1 0.1 0.1 0.2 0.1 0.4 0.1 0.1 0 0.2-0.1 0.3zm4.3 0.7c-0.1-0.2-0.3-0.3-0.5-0.4s-0.3-0.2-0.5-0.3c-0.3-0.2-0.7-0.4-1-0.5-0.4-0.2-0.7-0.3-1.1-0.5-0.2-0.1-0.4-0.1-0.6-0.1h-0.1c-0.2-0.2-0.4-0.3-0.7-0.4l-1.2-0.2 0.2-0.3c0.4-0.3 0.7-0.5 1.7-0.1l4.8 2.3c0.5 0.2 1 1 0.9 1.3l-0.2 0.4-1.5-0.9c-0.1 0-0.1-0.1-0.2-0.1 0.1 0 0.1-0.1 0-0.2zm-0.8 0.9c0.1-0.1 0.2-0.2 0.3-0.2h0.1c0.1 0 0.3 0 0.4 0.1l1.6 1 0.2 0.1 2.7 1.6c0.1 0.1 0.3 0.2 0.3 0.4v0.4c-0.1 0.1-0.2 0.2-0.3 0.2-0.2 0-0.3 0-0.5-0.1l-4.5-2.7c-0.3-0.2-0.4-0.5-0.3-0.8zm8.4 7.1c-0.5-0.1-1-0.4-1.5-0.6-2.2-1.1-4-2.7-4.1-2.8-0.4-0.3-0.5-0.5-0.5-0.6s0-0.2 0.1-0.3l2 1.2c0.2 0.1 0.4 0.2 0.7 0.2h0.2c0.3 0.3 0.7 0.6 1.1 0.8 0.2 0.1 0.5 0.3 0.8 0.4 0.1 0.1 0.3 0.1 0.5 0.1 0.1 0.2 0.2 0.4 0.4 0.5l1.4 1c-0.2 0.2-0.4 0.3-1.1 0.1zm8.3 6.4c-0.2 0.3-0.6 0.4-0.9 0.1l-4.8-3.6c-0.3-0.2-0.4-0.6-0.1-0.9l0.6-0.8 0.9 0.6h0.1l-0.1 0.1c-0.1 0.1-0.1 0.3 0 0.4 0 0.1 0.1 0.3 0.2 0.4s0.2 0.2 0.3 0.2c0.4 0.3 0.7 0.6 1.1 0.9s0.8 0.6 1.2 0.8c0.1 0.1 0.2 0.1 0.3 0.2s0.3 0.1 0.4 0.1 0.3-0.1 0.4-0.2l0.1-0.1 1 0.7-0.7 1.1zm7.2 5.4c-0.2 0.3-0.6 0.4-0.9 0.1l-4.8-3.6c-0.1-0.1-0.2-0.3-0.3-0.4 0-0.2 0-0.3 0.1-0.5l0.6-0.8 0.9 0.7-0.1 0.1c-0.1 0.1-0.1 0.3 0 0.4 0 0.1 0.1 0.3 0.2 0.4s0.2 0.2 0.3 0.2c0.4 0.3 0.7 0.6 1.1 0.9s0.8 0.6 1.2 0.8c0.1 0.1 0.2 0.1 0.3 0.2s0.3 0.1 0.4 0.1 0.3-0.1 0.4-0.2v-0.1l1 0.7-0.4 1zm4.8 1c-0.1 0.1-0.2 0.2-0.3 0.2-0.2 0-0.3 0-0.5-0.1l-4.2-3.1c-0.1-0.1-0.2-0.2-0.3-0.4 0-0.1 0-0.3 0.1-0.4s0.2-0.2 0.4-0.2c0.1 0 0.3 0 0.4 0.1l4.2 3.1c0.3 0.3 0.3 0.6 0.2 0.8z"/>
	<path d="m372.4 206.2l-4.3-3.7-0.4 0.4 4.3 3.7c0.2 0.1 0.2 0.3 0.2 0.4 0 0.2-0.1 0.3-0.2 0.4l-2.1 1v-1.2c0.1 0 0.3 0 0.4-0.1h0.4s0.1 0 0.2-0.1l0.1-0.1v-0.2c-0.1-0.2-0.2-0.2-0.3-0.3l-0.5-0.5c-0.3-0.3-0.7-0.6-1-0.9-0.7-0.6-1.5-1.1-2.3-1.6 0.6 0.8 1.2 1.4 1.9 2 0.1 0.1 0.2 0.2 0.3 0.2h-0.2c-0.6 0-1.1 0.5-1.1 1.1v1.1s0-0.1-0.1-0.1c-0.1-0.1-0.2-0.2-0.3-0.4l-0.6-0.6c-0.2-0.2-0.5-0.4-0.7-0.5-0.2-0.2-0.5-0.3-0.8-0.4 0.1 0.3 0.3 0.5 0.5 0.8l0.6 0.6c0.2 0.2 0.5 0.4 0.7 0.5 0.1 0.1 0.3 0.2 0.4 0.2s0.2 0.1 0.2 0.1v1.1c-0.1 0-0.2-0.1-0.3-0.2l-2.5-2.3-0.4 0.4 2.5 2.4c0.2 0.1 0.3 0.2 0.4 0.3h-0.8c-0.3 0-0.6 0.1-0.9 0.4-0.2 0.2-0.4 0.5-0.4 0.9v6c0 0.3 0.1 0.6 0.4 0.9 0.2 0.2 0.5 0.4 0.9 0.4h1v0.1h-1c-0.7 0-1.2 0.6-1.2 1.2v6c0 0.7 0.5 1.2 1.2 1.2h1v1.1h-1c-0.3 0-0.6 0.1-0.9 0.4-0.2 0.2-0.4 0.5-0.4 0.9v6c0 0.3 0.1 0.6 0.4 0.9 0.2 0.2 0.5 0.4 0.9 0.4h1v1.1h-1c-0.7 0-1.2 0.6-1.2 1.2v6c0 0.3 0.1 0.6 0.4 0.9 0.2 0.2 0.5 0.4 0.9 0.4h1v0.7h-1c-0.7 0-1.2 0.6-1.2 1.2v6c0 0.3 0.1 0.6 0.4 0.9 0.2 0.2 0.5 0.4 0.9 0.4h1v0.5h-1c-0.7 0-1.2 0.6-1.2 1.2v6c0 0.7 0.5 1.2 1.2 1.2h1v0.6h-1c-0.3 0-0.6 0.1-0.9 0.4-0.2 0.2-0.4 0.5-0.4 0.9v6c0 0.3 0.1 0.6 0.4 0.9 0.2 0.2 0.5 0.4 0.9 0.4h4c0.3 0 0.6-0.1 0.8-0.3 0.3-0.2 0.5-0.6 0.5-1v-6c0-0.3-0.1-0.6-0.4-0.9-0.2-0.2-0.5-0.4-0.9-0.4h-0.9v-0.6h0.9c0.3 0 0.6-0.1 0.9-0.4 0.2-0.2 0.4-0.5 0.4-0.9v-6c0-0.3-0.1-0.6-0.4-0.9-0.2-0.2-0.5-0.4-0.9-0.4h-0.9v-0.5h0.9c0.7 0 1.2-0.6 1.2-1.2v-6c0-0.7-0.5-1.2-1.2-1.2h-0.9v-0.7h0.9c0.7 0 1.2-0.6 1.2-1.2v-6c0-0.3-0.1-0.6-0.4-0.9-0.2-0.2-0.5-0.4-0.9-0.4h-0.9v-1.1h0.9c0.7 0 1.2-0.6 1.2-1.2v-6c0-0.7-0.5-1.2-1.2-1.3h-0.9v-1.1h0.9c0.3 0 0.6-0.1 0.9-0.4 0.2-0.2 0.4-0.5 0.4-0.9v-6c0-0.3-0.1-0.6-0.4-0.9-0.2-0.2-0.5-0.4-0.9-0.4h-0.9v-0.1h0.9c0.7 0 1.2-0.6 1.2-1.2v-6c0-0.7-0.5-1.2-1.2-1.3h-0.9v-0.6l2.4-1.2c0.3-0.2 0.5-0.5 0.6-0.8 0.1-0.2-0.1-0.5-0.4-0.8zm-1.7 0.6zm-0.8-0.5c0.2 0.1 0.4 0.3 0.6 0.4 0.1 0 0.1 0.1 0.2 0.1h-0.1c-0.1 0-0.2 0.1-0.4 0.1-0.1 0.1-0.2 0.1-0.3 0.2v-0.4c0.1 0 0-0.1 0-0.4v0zm-0.1 5.8v-0.4c0.1 0.1 0.1 0.1 0.1 0.2v0.3 0.4c0 0.5-0.1 0.9-0.1 1.4s0 0.9 0.1 1.4v0.4 0.3c0 0.1-0.1 0.2-0.1 0.2v-1c0-0.3-0.1-0.6-0.3-0.8s-0.5-0.4-0.8-0.4c-0.6 0-1.1 0.5-1.1 1.2v1c-0.1 0-0.1-0.1-0.2-0.2v-0.3-0.4c0-0.5 0.1-1 0.1-1.4 0-0.5 0-1-0.1-1.4v-0.4-0.3c0-0.1 0.1-0.2 0.2-0.2v0.4c0 0.3 0.1 0.6 0.3 0.8s0.5 0.4 0.8 0.4c0.6 0 1-0.6 1.1-1.2zm0 11.9v0.4 0.3c0 0.1-0.1 0.2-0.1 0.2 0-0.2-0.1-0.4-0.3-0.6s-0.5-0.4-0.8-0.4c-0.5 0-0.9 0.4-1.1 0.9h-0.1c-0.1 0-0.1-0.1-0.2-0.2v-0.3-0.4c0-0.5 0.1-1 0.1-1.4 0-0.5 0-1-0.1-1.4v-0.4-0.3c0-0.1 0.1-0.2 0.2-0.2v0.2c0 0.3 0.1 0.6 0.3 0.8s0.5 0.4 0.8 0.4 0.6-0.1 0.8-0.4c0.2-0.2 0.3-0.5 0.3-0.8v-0.2c0.1 0.1 0.1 0.1 0.1 0.2v0.3 0.4c0 0.5-0.1 0.9-0.1 1.4 0.2 0.6 0.2 1 0.2 1.5zm0 9.6v0.4 0.3c0 0.1-0.1 0.2-0.1 0.2 0-0.3-0.1-0.6-0.3-0.8s-0.5-0.4-0.8-0.4c-0.6 0-1.1 0.5-1.1 1.2-0.1 0-0.1-0.1-0.2-0.2v-0.3-0.4c0-0.5 0.1-1 0.1-1.4 0-0.5 0-1-0.1-1.4v-0.4-0.3c0-0.1 0.1-0.2 0.2-0.2v0.5c0 0.7 0.5 1.2 1.1 1.2s1.1-0.5 1.1-1.2v-0.5c0.1 0.1 0.1 0.1 0.1 0.2v0.3 0.4c0 0.5-0.1 0.9-0.1 1.4s0 0.9 0.1 1.4zm-0.1 9.6v0.4 0.3c0 0.1-0.1 0.2-0.1 0.2v-0.2c0-0.3-0.1-0.6-0.3-0.8s-0.5-0.4-0.8-0.4-0.6 0.1-0.8 0.4c-0.2 0.2-0.3 0.5-0.3 0.8v0.2c-0.1 0-0.1-0.1-0.2-0.2v-0.3-0.4c0-0.5 0.1-1 0.1-1.4 0-0.5 0-1-0.1-1.4v-0.4-0.3c0-0.1 0.1-0.2 0.2-0.2v0.2c0 0.3 0.1 0.6 0.3 0.8s0.5 0.4 0.8 0.4c0.6 0 1.1-0.5 1.1-1.2v-0.2c0.1 0.1 0.1 0.1 0.1 0.2v0.3 0.4c0 0.5-0.1 0.9-0.1 1.4s0.1 0.9 0.1 1.4zm-0.1 9.2v0.4 0.3c0 0.1-0.1 0.2-0.1 0.2v-0.4c0-0.7-0.5-1.2-1.1-1.2-0.3 0-0.6 0.1-0.8 0.4-0.2 0.2-0.3 0.5-0.3 0.8v0.4c-0.1 0-0.1-0.1-0.2-0.2v-0.3-0.4c0-0.5 0.1-1 0.1-1.4 0-0.5 0-1-0.1-1.4v-0.4-0.3c0-0.1 0.1-0.2 0.2-0.2v0.5c0 0.7 0.5 1.2 1.1 1.2s1.1-0.5 1.1-1.2v-0.5c0.1 0.1 0.1 0.1 0.1 0.2v0.3 0.4c0 0.5-0.1 0.9-0.1 1.4 0.1 0.4 0.1 0.9 0.1 1.4zm0 9v0.4 0.3c0 0.1-0.1 0.2-0.1 0.2v-1c0-0.3-0.1-0.6-0.3-0.8s-0.5-0.4-0.8-0.4-0.5 0.1-0.7 0.3-0.4 0.5-0.4 0.9v1c-0.1 0-0.1-0.1-0.2-0.2v-0.3-0.4c0-0.5 0.1-1 0.1-1.4 0-0.5 0-1-0.1-1.4v-0.4-0.3c0-0.1 0.1-0.2 0.2-0.2v0.5c0 0.3 0.1 0.6 0.3 0.8s0.5 0.4 0.8 0.4 0.6-0.1 0.8-0.4c0.2-0.2 0.3-0.5 0.3-0.8v-0.5c0.1 0.1 0.1 0.1 0.1 0.2v0.3 0.4c0 0.5-0.1 0.9-0.1 1.4 0 0.4 0 0.9 0.1 1.4zm-2.3 5.5c0.1 0.2 0.2 0.3 0.3 0.4 0.2 0.2 0.5 0.4 0.8 0.4s0.7-0.2 0.9-0.5c0.1-0.1 0.1-0.2 0.1-0.3l0.1 0.1v0.1 3.6c0 0.2-0.1 0.3-0.2 0.3h-2-0.1c-0.1-0.1-0.1-0.1-0.1-0.2v-3.6c0-0.2 0.1-0.3 0.2-0.3zm0.5-0.4v-5.2c0-0.2 0.1-0.4 0.2-0.5s0.2-0.1 0.3-0.1c0.2 0 0.3 0.1 0.3 0.2 0.1 0.1 0.2 0.3 0.2 0.4v5.2c0 0.1 0 0.3-0.1 0.4s-0.2 0.2-0.4 0.2-0.3-0.1-0.3-0.2c-0.1-0.1-0.2-0.3-0.2-0.4zm0.1-8.4v-5.2c0-0.2 0.1-0.3 0.2-0.4s0.2-0.2 0.3-0.2c0.3 0 0.5 0.3 0.5 0.6v5.2c0 0.2-0.1 0.3-0.2 0.4s-0.2 0.2-0.3 0.2-0.2-0.1-0.3-0.2c-0.1 0-0.2-0.2-0.2-0.4zm0.1-8.9v-5.2c0-0.2 0.1-0.3 0.2-0.4s0.2-0.2 0.3-0.2 0.2 0.1 0.3 0.2 0.2 0.3 0.2 0.4v5.2c0 0.3-0.2 0.6-0.5 0.6s-0.5-0.3-0.5-0.6zm0-9.5v-5.2c0-0.3 0.2-0.6 0.5-0.6 0.1 0 0.2 0.1 0.3 0.2s0.2 0.3 0.2 0.4v5.2c0 0.3-0.2 0.6-0.5 0.6-0.1 0-0.2-0.1-0.3-0.2s-0.2-0.2-0.2-0.4zm0.1-9.3v-5.2c0-0.3 0.2-0.6 0.5-0.6 0.1 0 0.2 0.1 0.3 0.2s0.2 0.3 0.2 0.4v5.2c0 0.3-0.2 0.6-0.5 0.6s-0.5-0.3-0.5-0.6zm0.1-9.9v-5.2c0-0.3 0.2-0.6 0.5-0.6 0.1 0 0.2 0.1 0.3 0.2s0.2 0.3 0.2 0.4v5.2c0 0.2-0.1 0.3-0.2 0.4s-0.2 0.2-0.3 0.2-0.2-0.1-0.3-0.2c-0.2-0.1-0.2-0.2-0.2-0.4zm-1.6-2.9c-0.2 0-0.3-0.1-0.5-0.2-0.1-0.1-0.2-0.3-0.2-0.5v-6c0-0.2 0.1-0.3 0.2-0.5 0.1-0.1 0.3-0.2 0.5-0.2h1v1.1h-0.1c-0.1 0-0.3 0.1-0.4 0.2s-0.1 0.3-0.2 0.4v0.4c0 0.5-0.1 1-0.1 1.4 0 0.5 0 1 0.1 1.4v0.4c0 0.1 0.1 0.3 0.2 0.4s0.2 0.2 0.4 0.2h0.1v1.3l-1 0.2zm0 8.7c-0.4 0-0.7-0.3-0.7-0.7v-6c0-0.4 0.3-0.7 0.7-0.7h1v1.2h-0.1c-0.1 0-0.3 0.1-0.4 0.2s-0.1 0.3-0.2 0.4v0.4c0 0.5-0.1 1-0.1 1.4 0 0.5 0 1 0.1 1.4v0.4c0 0.1 0.1 0.3 0.2 0.4s0.2 0.2 0.4 0.2h0.1v0.1 1.1l-1 0.2zm-0.1 9.6c-0.2 0-0.3-0.1-0.5-0.2-0.1-0.1-0.2-0.3-0.2-0.5v-6c0-0.2 0.1-0.3 0.2-0.5 0.1-0.1 0.3-0.2 0.5-0.2h1v1.2h-0.1c-0.1 0-0.3 0.1-0.4 0.2s-0.1 0.3-0.2 0.4v0.4c0 0.5-0.1 1-0.1 1.4 0 0.5 0 1 0.1 1.4v0.4c0 0.1 0.1 0.3 0.2 0.4s0.2 0.2 0.4 0.2h0.1v1.3l-1 0.1zm-0.1 9.6c-0.2 0-0.3-0.1-0.5-0.2-0.1-0.1-0.2-0.3-0.2-0.5v-6c0-0.4 0.3-0.7 0.7-0.7h1v1.2h-0.1c-0.1 0-0.3 0.1-0.4 0.2s-0.1 0.3-0.2 0.4v0.4c0 0.5-0.1 1-0.1 1.4 0 0.5 0 1 0.1 1.4v0.4c0 0.1 0.1 0.3 0.2 0.4s0.2 0.2 0.4 0.2h0.1v1.3l-1 0.1zm0 9.1c-0.2 0-0.3-0.1-0.5-0.2-0.1-0.1-0.2-0.3-0.2-0.5v-6c0-0.4 0.3-0.7 0.7-0.7h1v1.2h-0.1c-0.1 0-0.3 0.1-0.4 0.2s-0.1 0.3-0.2 0.4v0.4c0 0.5-0.1 1-0.1 1.4 0 0.5 0 1 0.1 1.4v0.4c0 0.1 0.1 0.3 0.2 0.4s0.2 0.2 0.4 0.2h0.1v1.2l-1 0.2zm-0.1 9c-0.4 0-0.7-0.3-0.7-0.7v-6c0-0.4 0.3-0.6 0.7-0.7h1v1.2h-0.1c-0.1 0-0.3 0.1-0.4 0.2s-0.1 0.3-0.2 0.4v0.4c0 0.5-0.1 1-0.1 1.4 0 0.5 0 1 0.1 1.4v0.4c0 0.1 0.1 0.3 0.2 0.4s0.2 0.2 0.4 0.2h0.1v1.2l-1 0.2zm4 1.8c0.2 0 0.3 0.1 0.5 0.2 0.1 0.1 0.2 0.3 0.2 0.5v6c0 0.2-0.1 0.4-0.3 0.5-0.1 0.1-0.3 0.1-0.4 0.1h-4c-0.4 0-0.7-0.3-0.7-0.7v-6c0-0.2 0.1-0.3 0.2-0.5 0.1-0.1 0.3-0.2 0.5-0.2h1v0.9c-0.4 0-0.7 0.4-0.7 0.9v3.6c0 0.3 0.1 0.5 0.3 0.7 0.1 0.1 0.3 0.2 0.5 0.2h2c0.4 0 0.8-0.4 0.8-0.9v-3.6c0-0.1 0-0.2-0.1-0.3-0.1-0.3-0.3-0.5-0.6-0.5v-0.9h0.8zm0.1-9c0.2 0 0.3 0.1 0.5 0.2 0.1 0.1 0.2 0.3 0.2 0.5v6c0 0.2-0.1 0.3-0.2 0.5-0.1 0.1-0.3 0.2-0.5 0.2h-0.9v-1.3h0.1c0.1 0 0.3-0.1 0.3-0.3 0.1-0.1 0.1-0.3 0.1-0.4v-0.4c0-0.5 0.1-0.9 0.1-1.4s0-0.9-0.1-1.4v-0.4c0-0.1 0-0.3-0.1-0.4l-0.3-0.3h-0.1v-1.2l0.9 0.1zm0-9c0.4 0 0.7 0.3 0.7 0.7v6c0 0.4-0.3 0.7-0.7 0.7h-0.9v-1.3h0.1c0.1 0 0.3-0.1 0.3-0.3 0.1-0.1 0.1-0.3 0.1-0.4v-0.4c0-0.5 0.1-0.9 0.1-1.4s0-0.9-0.1-1.4v-0.4c0-0.1 0-0.3-0.1-0.4l-0.3-0.3h-0.1v-1.2l0.9 0.1zm0.1-9.2c0.2 0 0.3 0.1 0.5 0.2 0.1 0.1 0.2 0.3 0.2 0.5v6c0 0.4-0.3 0.7-0.7 0.7h-0.9v-1.3h0.1c0.1 0 0.3-0.1 0.3-0.3 0.1-0.1 0.1-0.3 0.1-0.4v-0.4c0-0.5 0.1-0.9 0.1-1.4s0-0.9-0.1-1.4v-0.4c0-0.1 0-0.3-0.1-0.4l-0.3-0.3h-0.1v-1.2l0.9 0.1zm0.1-9.6c0.4 0 0.7 0.3 0.7 0.7v6c0 0.4-0.3 0.7-0.7 0.7h-0.9v-1.3h0.1c0.1 0 0.3-0.1 0.3-0.3 0.1-0.1 0.1-0.3 0.1-0.4v-0.4c0-0.5 0.1-0.9 0.1-1.4s0-0.9-0.1-1.4v-0.4c0-0.1 0-0.3-0.1-0.4l-0.3-0.3h-0.1v-1.2l0.9 0.1zm0-9.6c0.2 0 0.3 0.1 0.5 0.2 0.1 0.1 0.2 0.3 0.2 0.5v6c0 0.2-0.1 0.3-0.2 0.5-0.1 0.1-0.3 0.2-0.5 0.2h-0.9v-1.1-0.1h0.1c0.1 0 0.3-0.1 0.3-0.3 0.1-0.1 0.1-0.3 0.1-0.4v-0.4c0-0.5 0.1-0.9 0.1-1.4s0-0.9-0.1-1.4v-0.4c0-0.1 0-0.3-0.1-0.4l-0.3-0.3h-0.1v-1.2h0.9zm0.1-8.6c0.4 0 0.7 0.3 0.7 0.7v6c0 0.4-0.3 0.7-0.7 0.7h-0.9v-1.3h0.1c0.1 0 0.3-0.1 0.3-0.3 0.1-0.1 0.1-0.3 0.1-0.4v-0.4c0-0.5 0.1-0.9 0.1-1.4s0-0.9-0.1-1.4v-0.4c0-0.1 0-0.3-0.1-0.4l-0.3-0.3h-0.1v-1.2l0.9 0.1zm-1.5 0l-0.1 1.7c0 0.3-0.2 0.6-0.5 0.6-0.1 0-0.2-0.1-0.3-0.2s-0.1-0.3-0.1-0.5l0.2-5.2c0-0.3 0.2-0.6 0.5-0.6 0.2 0 0.4 0.2 0.4 0.4v0.3l-0.1 2.9h-0.1l0.1 0.6z"/>
	<path d="m366.3 206c0.3 0 0.6-0.1 0.8-0.3s0.3-0.5 0.3-0.8-0.2-0.6-0.4-0.8l-0.3-0.2-0.4 0.4 0.3 0.2c0.1 0.1 0.2 0.3 0.2 0.4s0 0.3-0.1 0.4c-0.2 0.2-0.5 0.2-0.8-0.1l-0.5-0.4-0.4 0.4 0.5 0.4c0.2 0.3 0.5 0.4 0.8 0.4z"/>
	<path d="m363.3 203.3l-0.2-0.1s-1.1-0.6-1.7-1c-0.2-0.1-0.2-0.3-0.3-0.5-0.1-0.6 0.5-1.3 0.5-1.4l0.1-0.2 2.4 1.7-0.8 1.5zm-1.4-2.4c-0.2 0.3-0.3 0.6-0.3 0.8 0 0.1 0 0.1 0.1 0.2 0.4 0.3 1.1 0.7 1.5 0.9l0.5-0.7-1.8-1.2z"/>
	<path d="m359.8 200.5c-0.3 0-0.6-0.1-0.8-0.3l-3.9-2.9v0.7l-1.8-1.5c-0.2 0-0.5-0.1-1.1-0.3-0.9-0.3-0.9-1.4-0.8-2l-0.5-0.4 0.7-1.5 2.6 1.9-0.3 0.3-0.2 0.2 0.7 0.5v-0.1l0.3-0.3 6.3 4.7-0.3 0.3c-0.1 0.5-0.5 0.7-0.9 0.7zm-5.2-4.2l0.4 0.4 4.2 3.1c0.4 0.3 0.9 0.2 1.1-0.1l-5.6-4.2c0 0.1-0.1 0.1-0.1 0.2l-0.1 0.3-1.8-1.4 0.4-0.1c0.1 0 0.2-0.1 0.3-0.2l-1.8-1.3-0.3 0.7 0.4 0.3v0.2s-0.2 1.3 0.6 1.5c0.6 0.2 1 0.3 1.1 0.3h0.1l1.1 0.9v-0.6z"/>
	<polygon class="dark-shade" points="158.6 297.6 158.6 308.6 201.5 288.8 201.4 281.7"/>
	<polygon class="dark-shade" points="63.9 284 66.4 283.1 66.5 295.6 66.8 296.5 66.9 308.6 64.1 309.9 64.1 297"/>
	<polygon class="dark-shade" points="101.2 284 103.7 283.1 103.8 295.6 104.1 296.5 104.2 308.6 101.4 309.9 101.4 297"/>
	<polygon class="dark-shade" points="149.7 259 148.4 261.9 103.1 261.9 102.1 253.4 148.1 253.3"/>
	<polygon class="shade" points="26.1 116.3 20.6 163.4 57.9 110.4"/>
	<polygon class="shade" points="62.1 109.6 19.1 175.8 16.2 201.1 79.7 106.3"/>
	<polygon class="shade" points="94.2 103.6 25.8 219 82.7 216.4 155.4 92.2"/>
	<polygon class="shade" points="167.8 89.9 95.5 215.8 116.7 214.8 188.8 86"/>
	<polygon class="shade" points="204.5 83 148.4 213.3 202.9 210.7 209.7 82.1"/>
	<path class="dark-shade" d="m168.2 303.9l21.6-9.6 3.1-1.2s-0.8 5.8-6.2 9.3l-4.1 1.6c0.1 0.1-8.4 4-14.4-0.1z"/>
	<path class="dark-shade" d="m161.9 282.3s1.6-2.7 3.4-3.4h13.2l1.5-0.6v-3.6s6.8 0.3 11.2 7.7"/>
	<path class="dark-shade" d="m138 328.9c4.8-0.9 9.2-2.9 9.2-2.9 4.9-3.4 8.1-9.2 8.1-15.6 0-8.7-5.8-16.1-13.6-18.3 0 0-2.3-1-10.4 0.3"/>
	<path class="dark-shade" d="m31 328.9c4.8-0.9 9.2-2.9 9.2-2.9 4.9-3.4 8.1-9.2 8.1-15.6 0-8.7-5.8-16.1-13.6-18.3 0 0-2.3-1-10.4 0.3"/>
	<ellipse class="clear" transform="matrix(.0022798 -1 1 .0022798 -285.23 336.09)" cx="25.8" cy="311" rx="13.4" ry="13.4"/>
	<ellipse class="dark-shade" transform="matrix(.001183 -1 1 .001183 -285.2 336.43)" cx="25.8" cy="311" rx="18.7" ry="18.7"/>
	<ellipse class="clear" transform="matrix(.0022798 -1 1 .0022798 -285.23 336.09)" cx="25.8" cy="311" rx="13.4" ry="13.4"/>
	<path class="dark-shade" d="m151.5 311c0 10.3-8.4 18.7-18.7 18.7s-18.7-8.4-18.7-18.7 8.4-18.7 18.7-18.7 18.7 8.4 18.7 18.7z"/>
	<path class="clear" d="m146.3 311c0 7.4-6 13.4-13.4 13.4s-13.4-6-13.4-13.4 6-13.4 13.4-13.4 13.4 6 13.4 13.4z"/>
	<path d="m183.6 297.5c-0.9 1.4-2.3 2.6-3.9 3.3-0.8 0.3-1.6 0.6-2.5 0.7-0.8 0.1-1.7 0.1-2.6 0 1.7-0.2 3.3-0.5 4.8-1.2 1.6-0.7 2.9-1.7 4.2-2.8z"/>
	<polygon points="63.9 290.2 63.6 290.2 63.6 288.5 63.9 288.5"/>
	<polygon points="149.5 268.5 149.5 268.5 149.5 266.2"/>
	<path d="m63.9 288.1h-0.2-0.1v0.1-0.2-0.7c0-0.3 0-0.6 0.1-0.7v-0.2 0.1h0.1 0.2l-0.1 1.6z"/>
	<path d="m64 287.3h-0.2-0.1v0.1-0.2c0-0.2-0.1-0.4-0.1-0.7s0-0.6-0.1-0.7v-0.2 0.1h0.1 0.2l0.2 1.6z"/>
	<polygon points="63.9 290.2 63.5 290.2 63.6 288.5 63.9 288.5"/>
	<polygon points="101.2 290.2 100.8 290.2 100.8 288.5 101.1 288.5"/>
	<path d="m101.1 288.1h-0.2-0.1v0.1-0.2-0.7c0-0.3 0-0.6 0.1-0.7v-0.2 0.1h0.1 0.2l-0.1 1.6z"/>
	<path d="m101.2 287.3h-0.2-0.1v0.1-0.2c0-0.2-0.1-0.4-0.1-0.7s0-0.6-0.1-0.7v-0.2 0.1h0.1 0.2l0.2 1.6z"/>
	<polygon points="101.2 290.2 100.7 290.2 100.8 288.5 101.2 288.5"/>
	<rect x="66.5" y="295" width=".8" height="1.1"/>
	<rect x="161.2" y="281.7" width="30.5" height="1.1"/>
	<path d="m38.2 316.1c-0.7 1.6-1.7 3.1-3 4.3s-2.8 2.1-4.4 2.8c-1.6 0.6-3.3 0.9-5 0.8-3.4-0.1-6.7-1.6-9-4s-3.6-5.7-3.6-9 1.3-6.6 3.6-9 5.6-3.9 9-4c1.7-0.1 3.4 0.2 5 0.8s3.1 1.5 4.4 2.8c1.3 1.2 2.3 2.7 3 4.3s1 3.4 1.1 5.1c0-3.5-1.4-7-3.8-9.6s-5.9-4.2-9.6-4.3c-1.8-0.1-3.7 0.2-5.4 0.9s-3.3 1.7-4.7 2.9c-1.3 1.3-2.4 2.8-3.2 4.6-0.7 1.7-1.1 3.6-1.1 5.5s0.4 3.7 1.1 5.5c0.7 1.7 1.8 3.3 3.2 4.6 1.3 1.3 2.9 2.3 4.7 2.9 1.7 0.7 3.6 1 5.4 0.9 3.6-0.1 7.1-1.7 9.6-4.3s3.9-6.1 3.9-9.6c-0.2 1.7-0.5 3.5-1.2 5.1z"/>
	<path d="m145.2 316.1c-0.7 1.6-1.7 3.1-3 4.3s-2.8 2.1-4.4 2.8c-1.6 0.6-3.3 0.9-5 0.8-3.4-0.1-6.7-1.6-9-4s-3.6-5.7-3.6-9 1.3-6.6 3.6-9 5.6-3.9 9-4c1.7-0.1 3.4 0.2 5 0.8s3.1 1.5 4.4 2.8c1.3 1.2 2.3 2.7 3 4.3s1 3.4 1.1 5.1c0-3.5-1.4-7-3.8-9.6s-5.9-4.2-9.6-4.3c-1.8-0.1-3.7 0.2-5.4 0.9s-3.3 1.7-4.7 2.9c-1.3 1.3-2.4 2.8-3.2 4.6-0.7 1.7-1.1 3.6-1.1 5.5s0.4 3.7 1.1 5.5c0.7 1.7 1.8 3.3 3.2 4.6 1.3 1.3 2.9 2.3 4.7 2.9 1.7 0.7 3.6 1 5.4 0.9 3.6-0.1 7.1-1.7 9.6-4.3s3.9-6.1 3.9-9.6c-0.1 1.7-0.5 3.5-1.2 5.1z"/>
	<path d="m132.9 304.5c-1.7-0.1-3.5 0.5-4.8 1.7-0.7 0.6-1.2 1.4-1.6 2.2s-0.6 1.7-0.6 2.7c0 0.9 0.2 1.8 0.6 2.7 0.4 0.8 0.9 1.6 1.6 2.2 1.3 1.2 3.1 1.8 4.8 1.7s3.3-0.9 4.4-2.1 1.7-2.8 1.7-4.4c0 1.6-0.7 3.2-1.9 4.2-1.2 1.1-2.7 1.6-4.2 1.4-1.5-0.1-2.9-0.8-3.8-1.9-1-1-1.4-2.4-1.5-3.8 0-1.4 0.5-2.7 1.5-3.8 0.9-1 2.3-1.8 3.8-1.9s3.1 0.4 4.2 1.4c1.2 1.1 1.9 2.6 1.9 4.2 0-1.6-0.6-3.2-1.7-4.4s-2.7-2-4.4-2.1z"/>
	<path d="m25.8 304.5c-1.7-0.1-3.5 0.5-4.8 1.7-0.7 0.6-1.2 1.4-1.6 2.2s-0.6 1.7-0.6 2.7c0 0.9 0.2 1.8 0.6 2.7 0.4 0.8 0.9 1.6 1.6 2.2 1.3 1.2 3.1 1.8 4.8 1.7s3.3-0.9 4.4-2.1 1.7-2.8 1.7-4.4c0 1.6-0.7 3.2-1.9 4.2-1.2 1.1-2.7 1.6-4.2 1.4-1.5-0.1-2.9-0.8-3.8-1.9-1-1-1.4-2.4-1.5-3.8 0-1.4 0.5-2.7 1.5-3.8 0.9-1 2.3-1.8 3.8-1.9s3.1 0.4 4.2 1.4c1.2 1.1 1.9 2.6 1.9 4.2 0-1.6-0.6-3.2-1.7-4.4s-2.7-2-4.4-2.1z"/>
	<path d="m202.3 281.8v-0.4h-11.3c-0.3-0.7-0.7-1.3-1.2-1.9-0.7-0.8-1.4-1.6-2.3-2.2-0.8-0.7-1.7-1.3-2.7-1.8-0.9-0.5-1.9-0.9-3-1.2h0.1c-0.2-0.1-0.4-0.1-0.5-0.1-0.2 0-0.3 0-0.5-0.1h-0.5v-9.7h-29l0.1 1.1h0.2v0.7h25.7v11.8h-18.6v-6.6h-110.9v-5h56.2v-1.2h0.1l-0.1-0.7h-54.6l-1.2 0.2h-2.1v6.7h-25.3l-1.2 0.3h-1.7v18.5h3.4l-20.9 6.8h-0.5v12.5h6.4c0 0.5-0.1 1-0.1 1.6 0 10.8 8.8 19.5 19.5 19.5 1.8 0 3.6-0.3 5.3-0.7 4.9-0.9 9.2-2.9 9.4-2.9l0.1-0.1c5.3-3.7 8.4-9.8 8.4-16.3v-1h6.4c0.1 0.8 0.8 1.5 1.7 1.5h6.1c0.4 0 0.8-0.2 1.1-0.4v0.1l2.5-1.2v0.1h25.8c0.1 0.8 0.8 1.5 1.7 1.5h6.1c0.4 0 0.8-0.2 1.1-0.4v0.1l2.5-1.2v0.1h9.3c0 0.5-0.1 1-0.1 1.6 0 10.8 8.8 19.5 19.5 19.5 1.8 0 3.6-0.3 5.3-0.7 4.9-0.9 9.2-2.9 9.4-2.9l0.1-0.1c5.3-3.7 8.4-9.8 8.4-16.3v-1h3.3v-0.1l9.3-4.3c0.9 0.4 1.7 0.7 2.6 0.9 1.2 0.3 2.3 0.5 3.5 0.5 2.3 0 4.5-0.4 6.6-1.4 2.9-0.8 5.2-1.8 5.3-1.8l0.1-0.1c3.9-2.7 6-5.9 6.5-9.7l9-4.2 0.2-7.9zm-21.6-6.4c0.1 0 0.3 0 0.4 0.1 0.1 0 0.3 0.1 0.3 0.1 0.9 0.3 1.8 0.7 2.7 1.1 0.9 0.5 1.7 1 2.5 1.6s1.5 1.3 2.1 2c0.3 0.4 0.6 0.7 0.9 1.1h-1.9c-0.1-0.2-0.2-0.3-0.3-0.5-0.3-0.4-0.7-0.8-1-1.2-0.7-0.8-1.5-1.5-2.3-2.1s-1.8-1.2-2.7-1.6c-0.3-0.1-0.6-0.3-0.9-0.4v-0.3c0 0.1 0.1 0.1 0.2 0.1zm-1.6 4.4v-0.4l1.3-0.7v-1.7c0.1 0.1 0.3 0.1 0.4 0.2 0.9 0.4 1.7 0.9 2.5 1.5s1.5 1.2 2.2 1.9c0.3 0.3 0.5 0.5 0.7 0.8h-5c-0.7-0.7-1.5-1.2-2.4-1.6-0.1 0-0.1 0-0.2-0.1l0.5 0.1zm-4.3 0.3c1.3 0 2.5 0.2 3.8 0.6 0.7 0.2 1.3 0.5 2 0.8h-11.6c0.6-0.3 1.3-0.6 2-0.8 1.2-0.4 2.5-0.6 3.8-0.6zm-10-0.3h6.1c-0.1 0-0.1 0-0.2 0.1-0.9 0.4-1.7 1-2.4 1.6h-5.1c0.5-0.7 1-1.2 1.6-1.7zm-6 0h4.3c-0.5 0.5-0.9 1.1-1.4 1.7h-3l0.1-1.7zm-141 13.4c-2 0.9-3.9 2.2-5.5 3.7h-6.2l11.7-3.7zm-16.1 14.5v-9h8.9c-2.1 2.6-3.5 5.6-4.1 9h-4.8zm24.1 21.1c-9.8 0-17.8-8-17.8-17.8s8-17.8 17.8-17.8 17.8 8 17.8 17.8-8 17.8-17.8 17.8zm31.7-32.9v-11.4h5.5v11.4h-5.5zm7-0.4v-11.1l1.3-0.5v11.2l-1.3 0.4zm-8.2 0.6c-0.3 0.2-0.6 0.5-0.8 0.8h-11.6c-2.4-2.6-5.5-4.6-9-5.7-0.5-0.2-3.2-1-10.8 0.3-0.7 0.1-1.3 0.2-2 0.3l5-1.6h29.3l-0.1 5.9zm-16.6 29.2c-0.2 0.1-0.6 0.3-1.2 0.5 4.2-3.6 6.8-8.9 6.8-14.8 0-8.4-5.4-15.6-12.9-18.4 1.3 0.1 1.8 0.3 1.8 0.3h0.1c7.6 2.2 13 9.4 13 17.5 0.1 5.9-2.8 11.5-7.6 14.9zm9.2-17.6c-0.5-3.3-1.7-6.4-3.6-9h10.1v9h-6.5zm14.9 1.5c0 0.3-0.3 0.6-0.6 0.6h-6.1c-0.3 0-0.6-0.3-0.6-0.6v-11.6c0-0.3 0.3-0.6 0.6-0.6h6.1c0.3 0 0.6 0.3 0.6 0.6v11.6zm1.1-0.2v-11.3c0-0.2 0-0.3-0.1-0.5l1.4-0.5v11.6l-1.3 0.7zm27.7-1.3h-25.2v-9h25.2v9zm1-11.6c-0.3 0.2-0.6 0.5-0.8 0.8h-25.4v-1.9l-0.5 0.2v-5h26.6l0.1 5.9zm7.4 13.1c0 0.3-0.3 0.6-0.6 0.6h-6.1c-0.3 0-0.6-0.3-0.6-0.6v-11.6c0-0.3 0.3-0.6 0.6-0.6h6.1c0.3 0 0.6 0.3 0.6 0.6v11.6zm-6.3-13.3v-11.4h5.5v11.4h-5.5zm7.5 13.1v-11.3c0-0.2 0-0.3-0.1-0.5l1.4-0.5v11.6l-1.3 0.7zm-0.5-13.5v-11.1l1.3-0.5v11.2l-1.3 0.4zm2-13.1h-6.3l-3.3 0.9h-0.5v5.2h-26.7v-6.3l-0.4 0.2h-6.3l-3.3 0.9h-0.5v5.2h-36.6v-15.1h136v15.1h-51.6v-6.3l-0.5 0.2zm1 25.3v-9h13c-2.1 2.6-3.5 5.6-4.1 9h-8.9zm28.2 21.1c-9.8 0-17.8-8-17.8-17.8s8-17.8 17.8-17.8 17.8 8 17.8 17.8-8 17.8-17.8 17.8zm13.9-3.5c-0.2 0.1-0.6 0.3-1.2 0.5 4.2-3.6 6.8-8.9 6.8-14.8 0-8.4-5.4-15.6-12.9-18.4 1.3 0.1 1.8 0.3 1.8 0.3h0.1c7.6 2.2 13 9.4 13 17.5 0 5.9-2.9 11.5-7.6 14.9zm10.9-17.6h-1.8c-0.5-3.4-1.8-6.6-3.8-9.3h5.5v9.3zm0.7-11h-7.7c-2.4-2.5-5.4-4.4-8.8-5.4-0.5-0.2-3.2-1-10.8 0.3-4.6 0.4-8.7 2.4-11.8 5.4h-14.6v-1.9l-0.5 0.2v-5h53.3v-0.6l1.3-0.5v-6h34.8l-9.2 3.4-26 10.1zm22.8 7c-2 0.9-4.2 1.4-6.4 1.4-1.6 0-3.2-0.3-4.7-0.8l19-8.9c-0.3 0.6-0.6 1.1-0.9 1.7-0.5 1-1.1 1.9-1.9 2.7-1.3 1.7-3.1 3-5.1 3.9zm5-1.5c-0.1 0-0.4 0.2-0.7 0.3 0.7-0.6 1.3-1.2 1.9-1.9 0.7-0.9 1.4-1.9 1.9-3 0.4-0.8 0.6-1.7 0.7-2.5l2.1-1c-0.6 3.1-2.6 5.8-5.9 8.1zm-26.8 5.2v-9.3l25.6-10 15.6-5.7 0.1 5.8-41.3 19.2z"/>
	<path class="clear" d="m101.9 129.2l-66.2 9.3h-0.2l-3.5 33.7 67.8-6.3 2.1-36.7zm-69.3 42.4l3.4-32.6 65.3-9.2-2 35.6-66.7 6.2z"/>
	<path d="m31.7 172.5l3.5-34.2 0.4-0.1 66.5-9.3v0.3l-2.1 37-68.3 6.3zm4-33.8l-3.5 33.3 67.4-6.3 2-36.3-65.9 9.3zm-3.3 33.2l3.4-33h0.2l65.5-9.2v0.3l-2 35.8-67.1 6.1zm3.8-32.7l-3.3 32.1 66.2-6.1 2-35.1-64.9 9.1z"/>
	<polygon points="37.9 121.4 36.6 134.2 188.5 110.5 189.3 94.4"/>
	<path d="m36.1 134.7l1.4-13.7 0.3-0.1 152-27.2-0.9 17.1-0.4 0.1-152.4 23.8zm2.2-12.9l-1.2 11.8 150.9-23.6 0.8-15.2-150.5 27z"/>
	<polygon points="103.2 153.2 102.6 165.3 145.9 161.3 146.6 148.5"/>
	<path d="m102.1 165.8l0.7-13 44.3-4.8-0.7 13.8-44.3 4zm1.6-12.2l-0.6 11.2 42.4-3.9 0.6-11.9-42.4 4.6z"/>
	<polygon points="148.6 161.1 186 157.6 186.7 144.1 149.3 148.3"/>
	<path d="m148.1 161.6l0.7-13.7 38.4-4.3-0.8 14.4-38.3 3.6zm1.6-12.9l-0.6 11.9 36.5-3.4 0.7-12.5-36.6 4z"/>
	<path d="m26.9 209.6l4-34.3 155.3-14.6-2.1 40.7h-0.4l-156.8 8.2zm4.9-33.4l-3.8 32.5 155.3-8 2-38.9-153.5 14.4z"/>
	<path class="clear" d="m104.3 128.8l-1.1 22.4 83.7-9.4h0.2l1.3-25.5-84.4 12.5h0.3zm83.6-11.8l-1.3 24.3-82.8 9.3 1.1-21.3 83-12.3z"/>
	<path d="m103 151.4l1.1-22.4-0.1-0.4 0.5-0.1 84.1-12.4-1.3 25.9h-0.4l-83.9 9.4zm1.6-22.4l-1.1 22 83.5-9.3 1.3-25-83.7 12.3zm-1 21.8l1.1-21.7h0.2l83.2-12.3-1.3 24.7h-0.2l-83 9.3zm1.5-21.3l-1.1 20.8 82.3-9.2 1.2-23.8-82.4 12.2z"/>
	<path d="m32.9 206.6l64.7-3.5h0.3l1.7-31.7-63.6 6-3.1 29.2zm66.1-34.5l-1.6 30.5-63.9 3.4 2.9-28.1 62.6-5.8z"/>
	<path d="m32.6 206.9l3.1-29.6h0.2l63.9-6-1.7 32.2h-0.5l-65 3.4zm3.5-29.3l-3 28.7 64.5-3.4 1.7-31.2-63.2 5.9zm-2.8 28.7l3-28.5h0.2l62.8-5.9-1.7 31h-0.2l-64.1 3.4zm3.4-28.1l-2.9 27.6 63.3-3.4 1.6-30.1-62 5.9z"/>
	<path d="m103.5 171.1h-0.2l-1.6 31.8 77.5-4 1.9-35.2-77.6 7.4zm75.2 27.3l-76.4 4 1.5-30.7 76.7-7.2-1.8 33.9z"/>
	<path d="m101.5 203.2l1.6-32.3h0.4l77.9-7.3v0.3l-1.9 35.4h-0.2l-77.8 3.9zm2-31.9l-1.5 31.4 77.1-4 1.9-34.7-77.5 7.3zm-1.4 31.3l1.5-31.2h0.2l77-7.2v0.3l-1.9 34.2h-0.2l-76.6 3.9zm1.9-30.8l-1.5 30.3 75.9-3.9 1.8-33.5-76.2 7.1z"/>
	<path d="m108.7 96.7c0.7 0 1.2-0.6 1.2-1.4s-0.5-1.4-1.2-1.4-1.2 0.6-1.2 1.4c0 0.7 0.5 1.4 1.2 1.4zm0-2.3c0.3 0 0.6 0.4 0.6 0.8s-0.3 0.8-0.6 0.8-0.6-0.4-0.6-0.8c-0.1-0.4 0.2-0.8 0.6-0.8z"/>
	<polygon points="150 272.8 151.7 272.4 146.3 255.5"/>
	<path d="m222.1 72c-1.8-1.7-4.3-2.6-6.8-2.5-2.9-0.2-5.4 0.5-5.5 0.5-1.7 0.3-171.8 34.4-181.3 36-9.7 1.7-10.2 10-10.3 10.8-0.2 2.1-9.3 77.8-13.5 112.3-0.9 8.9-1.7 15.1-2 16.8-0.4 2.7 0.2 4.8 1.6 6.3 1.8 1.9 4.6 2.1 6 2.1h0.8 90.3l1.9 14.6s0.2 1.1 0.1 2.6v0.5 0.5l1.7 0.2c0-0.2 0-0.4 0.1-0.6v-0.6c0.1-1.7-0.1-2.8-0.1-2.9v-0.3l9.8-0.5-10-0.5-0.5-4.2 9.6-0.5-9.7-0.5-0.5-4.1 10.3-0.5-10.4-0.5-0.4-2.7h44.4-0.2s2.1 8.3 4.4 17.5c0 0.2 0.1 0.3 0.1 0.5l0.1 0.5 1.7-0.4-0.1-0.5c0-0.2-0.1-0.3-0.1-0.5-2-8.1-3.9-15.5-4.3-17.2h56.1c4.2 0 7.5-1.2 9.7-3.6 3.4-3.6 3.3-8.5 3.2-9.1 0-1 0.9-20.9 1.9-46.6l0.2-4.3c0.9-20.7 1.9-43.8 2.9-64.1 1.1-24.1 2-43.1 2-46.9-0.2-3.1-1.2-5.8-3.2-7.6zm-7.6 169.5c0 0.1 0.2 4.8-2.8 8-1.9 2-4.8 3.1-8.5 3.1h-192.1-0.1s-3.5 0.3-5.4-1.6c-1-1.1-1.4-2.7-1.1-4.9 0.2-1.6 0.9-7.5 2-16.3l208.8-7.1-0.8 18.8zm1.9 0.1s0.1 2.6-1 5.2c0.9-2.5 0.9-4.8 0.9-5.2l0.5-11h0.1c-0.4 6.8-0.5 10.9-0.5 11zm5.1-162c-0.4 6.9-3.1 66.7-5.1 114.3l-0.1 1.9c-0.3 6-0.5 11.7-0.7 16.9l-0.4 8.8-208.6 7.1c4.3-35.1 13.4-110.8 13.5-111.6v-0.1c0-0.3 0.1-7.7 8.8-9.2 9.4-1.6 179.6-35.7 181.3-36.1 0 0 1.9-0.5 4.1-0.5h0.9c1.7 0.1 3.4 1 4.6 2.3 1.3 1.7 1.9 3.8 1.7 6.2z"/>
	<path d="m26.6 116l-12.1 103.2v0.3l188.8-8.9h0.3l6.8-129-183.6 34.3-0.2 0.1zm183.1-33.6l-6.7 127.7-187.9 8.8 12-102.5 182.6-34z"/>
</svg>
